M48
;Layer_Color=9474304
;FILE_FORMAT=2:4
INCH,LZ
;TYPE=PLATED
T1F00S00C0.0160
T2F00S00C0.0354
T3F00S00C0.0433
T4F00S00C0.0472
T5F00S00C0.0551
%
T01
X031322Y0282
X032087Y028326
X039572Y028791
X039122Y029341
X039335Y030278
X040358Y0282
X041558
X042323Y028326
X030122Y0282
X029622Y0283
X029322Y0299
X027622Y027591
X026022Y028991
X025322Y028391
Y031491
X027922Y0337
X02848Y033691
X028322Y0354
X028922
X027722
X027522Y037
X027022
X028322
X028822
X029622
X030622
X030722Y034741
X030822Y034118
X031122Y033291
X030722Y0329
X030024Y032937
X029322Y0383
X02815Y038607
X02765
X02715
X02665
X02615
X02565
X02515
X02465
X025176Y036491
X025922Y0365
X030622Y0403
X031022Y042191
X030096Y042202
X029322Y0423
X031722Y042191
X032422
X034886Y038607
X035386
X035886
X036386
X036886
X037386
X037886
X038386
X039622Y038341
X039858Y037
X039058
X038558
X037758
X037258
X036158Y0365
X035413Y036491
X034772Y035541
X032722Y035391
X032222Y0325
X031522
X035622Y033341
X038158Y0337
X038716Y033691
X038558Y0354
X037958
X039158
X040958Y034741
X041058Y034118
X041358Y033291
X040958Y0329
X040261Y032937
X041758Y0325
X042458
X040858Y037
Y0403
X041258Y042191
X041958
X042658
X039558Y0423
T02
X028406Y042717
X038642
T03
X031322Y026291
X032322
Y027291
X031322
X040558
Y026291
X041558
X042558
Y027291
X041558
X030322
Y026291
T04
X035322Y026391
X036722
X037822
X039172
X034622Y027791
Y028991
Y030991
Y031991
Y032991
T05
X024509Y026378
Y027953
Y029528
X024322Y0336
Y034891
M30
