%FSTAX24Y24*%
%MOIN*%
G70*
G01*
G75*
G04 Layer_Color=8388736*
%ADD10R,0.0472X0.0217*%
%ADD11R,0.0472X0.0256*%
%ADD12R,0.0315X0.0374*%
%ADD13R,0.0630X0.0492*%
%ADD14R,0.0374X0.0315*%
%ADD15C,0.0197*%
%ADD16O,0.0217X0.0650*%
%ADD17O,0.0650X0.0217*%
%ADD18R,0.0472X0.0472*%
G04:AMPARAMS|DCode=19|XSize=21.7mil|YSize=47.2mil|CornerRadius=0mil|HoleSize=0mil|Usage=FLASHONLY|Rotation=180.000|XOffset=0mil|YOffset=0mil|HoleType=Round|Shape=Octagon|*
%AMOCTAGOND19*
4,1,8,0.0054,-0.0236,-0.0054,-0.0236,-0.0108,-0.0182,-0.0108,0.0182,-0.0054,0.0236,0.0054,0.0236,0.0108,0.0182,0.0108,-0.0182,0.0054,-0.0236,0.0*
%
%ADD19OCTAGOND19*%

%ADD20R,0.0217X0.0472*%
%ADD21R,0.0900X0.2200*%
%ADD22O,0.0394X0.0906*%
%ADD23O,0.0945X0.0236*%
%ADD24R,0.0945X0.0236*%
%ADD25R,0.0551X0.0591*%
%ADD26R,0.0591X0.0551*%
%ADD27R,0.0512X0.0394*%
%ADD28R,0.0709X0.1772*%
%ADD29C,0.0100*%
%ADD30C,0.0787*%
%ADD31C,0.0591*%
%ADD32C,0.0591*%
%ADD33R,0.0591X0.0591*%
%ADD34R,0.0591X0.0591*%
%ADD35C,0.0866*%
%ADD36C,0.0984*%
%ADD37C,0.0320*%
%ADD38C,0.0236*%
%ADD39C,0.0098*%
%ADD40C,0.0079*%
%ADD41C,0.0080*%
%ADD42C,0.0020*%
%ADD43C,0.0040*%
%ADD44R,0.0512X0.0256*%
%ADD45R,0.0552X0.0336*%
%ADD46R,0.0395X0.0454*%
%ADD47R,0.0710X0.0572*%
%ADD48R,0.0454X0.0395*%
%ADD49C,0.0277*%
%ADD50O,0.0297X0.0730*%
%ADD51O,0.0730X0.0297*%
%ADD52R,0.0552X0.0552*%
G04:AMPARAMS|DCode=53|XSize=25.6mil|YSize=51.2mil|CornerRadius=0mil|HoleSize=0mil|Usage=FLASHONLY|Rotation=180.000|XOffset=0mil|YOffset=0mil|HoleType=Round|Shape=Octagon|*
%AMOCTAGOND53*
4,1,8,0.0064,-0.0256,-0.0064,-0.0256,-0.0128,-0.0192,-0.0128,0.0192,-0.0064,0.0256,0.0064,0.0256,0.0128,0.0192,0.0128,-0.0192,0.0064,-0.0256,0.0*
%
%ADD53OCTAGOND53*%

%ADD54R,0.0256X0.0512*%
%ADD55R,0.0980X0.2280*%
%ADD56O,0.0474X0.0986*%
%ADD57O,0.1025X0.0316*%
%ADD58R,0.1025X0.0316*%
%ADD59R,0.0631X0.0671*%
%ADD60R,0.0671X0.0631*%
%ADD61R,0.0592X0.0474*%
%ADD62R,0.0789X0.1852*%
%ADD63C,0.0867*%
%ADD64C,0.0671*%
%ADD65C,0.0671*%
%ADD66R,0.0671X0.0671*%
%ADD67R,0.0671X0.0671*%
%ADD68C,0.0946*%
%ADD69C,0.1064*%
%ADD70C,0.0400*%
D44*
X0375Y030915D02*
D03*
Y030541D02*
D03*
Y030167D02*
D03*
X0267Y029117D02*
D03*
Y029491D02*
D03*
Y029865D02*
D03*
X027734Y029117D02*
D03*
Y029491D02*
D03*
Y029865D02*
D03*
D45*
X038544Y030167D02*
D03*
Y030915D02*
D03*
X0355Y031991D02*
D03*
X036544Y031617D02*
D03*
Y032365D02*
D03*
D46*
X034318Y034841D02*
D03*
X035026D02*
D03*
X035418Y030841D02*
D03*
X036126D02*
D03*
X034318Y034141D02*
D03*
X035026D02*
D03*
X038326Y031541D02*
D03*
X037618D02*
D03*
X035413Y037091D02*
D03*
X034704D02*
D03*
X041804Y034691D02*
D03*
X042513D02*
D03*
X042513Y035391D02*
D03*
X041804D02*
D03*
X041804Y033991D02*
D03*
X042513D02*
D03*
X042513Y033291D02*
D03*
X041804D02*
D03*
X039804Y043091D02*
D03*
X040513D02*
D03*
X039804Y043791D02*
D03*
X040513D02*
D03*
X039804Y044491D02*
D03*
X040513D02*
D03*
X037668Y029541D02*
D03*
X038376D02*
D03*
X04248Y031102D02*
D03*
X041772D02*
D03*
X04248Y03189D02*
D03*
X041772D02*
D03*
X040197D02*
D03*
X040906D02*
D03*
X040197Y031102D02*
D03*
X040906D02*
D03*
X025176Y037091D02*
D03*
X024468D02*
D03*
X031568Y034691D02*
D03*
X032276D02*
D03*
X032276Y035391D02*
D03*
X031568D02*
D03*
X031568Y033991D02*
D03*
X032276D02*
D03*
X032276Y033291D02*
D03*
X031568D02*
D03*
X029568Y043091D02*
D03*
X030276D02*
D03*
X029568Y043791D02*
D03*
X030276D02*
D03*
X029568Y044491D02*
D03*
X030276D02*
D03*
X027776Y028391D02*
D03*
X027068D02*
D03*
X026476D02*
D03*
X025768D02*
D03*
X024764Y030709D02*
D03*
X024055D02*
D03*
Y032283D02*
D03*
X024764D02*
D03*
X024055Y031496D02*
D03*
X024764D02*
D03*
X028876Y027591D02*
D03*
X028168D02*
D03*
X032244Y031102D02*
D03*
X031535D02*
D03*
X032244Y03189D02*
D03*
X031535D02*
D03*
X029961D02*
D03*
X030669D02*
D03*
X029961Y031102D02*
D03*
X030669D02*
D03*
D47*
X037772Y02872D02*
D03*
Y027361D02*
D03*
X036872D02*
D03*
Y02872D02*
D03*
X035972D02*
D03*
Y027361D02*
D03*
X038672D02*
D03*
Y02872D02*
D03*
D48*
X040172Y038936D02*
D03*
Y039645D02*
D03*
X039472Y038936D02*
D03*
Y039645D02*
D03*
X036772Y030845D02*
D03*
Y030136D02*
D03*
X040858Y039645D02*
D03*
Y038936D02*
D03*
Y037636D02*
D03*
Y038345D02*
D03*
X025222Y033945D02*
D03*
Y033236D02*
D03*
Y035345D02*
D03*
Y034636D02*
D03*
X029322Y039645D02*
D03*
Y038936D02*
D03*
X028522Y029036D02*
D03*
Y029745D02*
D03*
X025622Y030145D02*
D03*
Y029436D02*
D03*
X030622Y039645D02*
D03*
Y038936D02*
D03*
Y037636D02*
D03*
Y038345D02*
D03*
D49*
X039658Y0318D02*
D03*
Y0323D02*
D03*
X029422Y0318D02*
D03*
Y0323D02*
D03*
D50*
X039661Y032937D02*
D03*
X039346D02*
D03*
X039031D02*
D03*
X038716D02*
D03*
X038401D02*
D03*
X038086D02*
D03*
X037771D02*
D03*
X037456D02*
D03*
Y036244D02*
D03*
X037771D02*
D03*
X038086D02*
D03*
X038401D02*
D03*
X038716D02*
D03*
X039031D02*
D03*
X039346D02*
D03*
X039661D02*
D03*
X029424Y032937D02*
D03*
X029109D02*
D03*
X028794D02*
D03*
X02848D02*
D03*
X028165D02*
D03*
X02785D02*
D03*
X027535D02*
D03*
X02722D02*
D03*
Y036244D02*
D03*
X027535D02*
D03*
X02785D02*
D03*
X028165D02*
D03*
X02848D02*
D03*
X028794D02*
D03*
X029109D02*
D03*
X029424D02*
D03*
D51*
X036905Y033488D02*
D03*
Y033803D02*
D03*
Y034118D02*
D03*
Y034433D02*
D03*
Y034748D02*
D03*
Y035063D02*
D03*
Y035378D02*
D03*
Y035693D02*
D03*
X040212D02*
D03*
Y035378D02*
D03*
Y035063D02*
D03*
Y034748D02*
D03*
Y034433D02*
D03*
Y034118D02*
D03*
Y033803D02*
D03*
Y033488D02*
D03*
X026669D02*
D03*
Y033803D02*
D03*
Y034118D02*
D03*
Y034433D02*
D03*
Y034748D02*
D03*
Y035063D02*
D03*
Y035378D02*
D03*
Y035693D02*
D03*
X029976D02*
D03*
Y035378D02*
D03*
Y035063D02*
D03*
Y034748D02*
D03*
Y034433D02*
D03*
Y034118D02*
D03*
Y033803D02*
D03*
Y033488D02*
D03*
D52*
X041269Y042805D02*
D03*
X041958D02*
D03*
X042647D02*
D03*
Y044576D02*
D03*
X041958D02*
D03*
X041269D02*
D03*
X031033Y042805D02*
D03*
X031722D02*
D03*
X032411D02*
D03*
Y044576D02*
D03*
X031722D02*
D03*
X031033D02*
D03*
D53*
X040332Y040568D02*
D03*
X039958D02*
D03*
X040332Y041602D02*
D03*
X039584D02*
D03*
X030096Y040568D02*
D03*
X029722D02*
D03*
X030096Y041602D02*
D03*
X029348D02*
D03*
D54*
X039584Y040568D02*
D03*
X029348D02*
D03*
D55*
X042158Y037417D02*
D03*
Y040764D02*
D03*
X031922Y037417D02*
D03*
Y040764D02*
D03*
D56*
X034886Y038307D02*
D03*
X035386D02*
D03*
X035886D02*
D03*
X036386D02*
D03*
X036886D02*
D03*
X037386D02*
D03*
X037886D02*
D03*
X038386D02*
D03*
X02465D02*
D03*
X02515D02*
D03*
X02565D02*
D03*
X02615D02*
D03*
X02665D02*
D03*
X02715D02*
D03*
X02765D02*
D03*
X02815D02*
D03*
D57*
X042323Y028778D02*
D03*
Y029278D02*
D03*
Y029778D02*
D03*
Y030278D02*
D03*
X040354Y028778D02*
D03*
Y029278D02*
D03*
Y029778D02*
D03*
X032087Y028778D02*
D03*
Y029278D02*
D03*
Y029778D02*
D03*
Y030278D02*
D03*
X030118Y028778D02*
D03*
Y029278D02*
D03*
Y029778D02*
D03*
D58*
X040354Y030278D02*
D03*
X030118D02*
D03*
D59*
X028722Y030431D02*
D03*
Y031769D02*
D03*
D60*
X025553Y027591D02*
D03*
X026891D02*
D03*
D61*
X027422Y025997D02*
D03*
Y026784D02*
D03*
X026522Y025997D02*
D03*
Y026784D02*
D03*
X025622Y025997D02*
D03*
Y026784D02*
D03*
X028322Y025997D02*
D03*
Y026784D02*
D03*
X029222Y025997D02*
D03*
Y026784D02*
D03*
D62*
X026472Y0313D02*
D03*
X027772D02*
D03*
D63*
X034622Y028991D02*
D03*
Y027791D02*
D03*
Y032991D02*
D03*
Y031991D02*
D03*
Y030991D02*
D03*
X035322Y026391D02*
D03*
X036722D02*
D03*
X037822D02*
D03*
X039172D02*
D03*
D64*
X040558Y026291D02*
D03*
X041558D02*
D03*
Y027291D02*
D03*
X040558D02*
D03*
X030322Y026291D02*
D03*
X031322D02*
D03*
Y027291D02*
D03*
X030322D02*
D03*
D65*
X042558Y026291D02*
D03*
X032322D02*
D03*
D66*
X042558Y027291D02*
D03*
X032322D02*
D03*
D67*
X038642Y042717D02*
D03*
X028406D02*
D03*
D68*
X024322Y034891D02*
D03*
Y0336D02*
D03*
D69*
X024509Y029528D02*
D03*
Y027953D02*
D03*
Y026378D02*
D03*
D70*
X035622Y033341D02*
D03*
X035386Y038607D02*
D03*
X039622Y038341D02*
D03*
X034772Y035541D02*
D03*
X039122Y029341D02*
D03*
X039335Y030278D02*
D03*
X041058Y034118D02*
D03*
X040958Y034741D02*
D03*
X038716Y033691D02*
D03*
X041358Y033291D02*
D03*
X042323Y028326D02*
D03*
X042658Y042191D02*
D03*
X041958D02*
D03*
X041258D02*
D03*
X039572Y028791D02*
D03*
X037958Y0354D02*
D03*
X038558D02*
D03*
X039158D02*
D03*
X037258Y037D02*
D03*
X037758D02*
D03*
X038558D02*
D03*
X039058D02*
D03*
X038386Y038607D02*
D03*
X036886D02*
D03*
X036386D02*
D03*
X035886D02*
D03*
X039858Y037D02*
D03*
X034886Y038607D02*
D03*
X038158Y0337D02*
D03*
X040261Y032937D02*
D03*
X039558Y0423D02*
D03*
X037886Y038607D02*
D03*
X037386D02*
D03*
X041558Y0282D02*
D03*
X040958Y0329D02*
D03*
X041758Y0325D02*
D03*
X040358Y0282D02*
D03*
X036158Y0365D02*
D03*
X035413Y036491D02*
D03*
X042458Y0325D02*
D03*
X040858Y037D02*
D03*
Y0403D02*
D03*
X030622D02*
D03*
Y037D02*
D03*
X032222Y0325D02*
D03*
X025176Y036491D02*
D03*
X025922Y0365D02*
D03*
X030122Y0282D02*
D03*
X031522Y0325D02*
D03*
X030722Y0329D02*
D03*
X031322Y0282D02*
D03*
X02715Y038607D02*
D03*
X02765D02*
D03*
X029322Y0423D02*
D03*
X030096Y042202D02*
D03*
X029322Y0383D02*
D03*
X030024Y032937D02*
D03*
X027922Y0337D02*
D03*
X02465Y038607D02*
D03*
X02515D02*
D03*
X029622Y037D02*
D03*
X02565Y038607D02*
D03*
X02615D02*
D03*
X02665D02*
D03*
X02815D02*
D03*
X028822Y037D02*
D03*
X028322D02*
D03*
X027522D02*
D03*
X027022D02*
D03*
X028922Y0354D02*
D03*
X028322D02*
D03*
X027722D02*
D03*
X027622Y027591D02*
D03*
X029622Y0283D02*
D03*
X029322Y0299D02*
D03*
X025322Y031491D02*
D03*
X031022Y042191D02*
D03*
X031722D02*
D03*
X032422D02*
D03*
X032087Y028326D02*
D03*
X031122Y033291D02*
D03*
X032722Y035391D02*
D03*
X026022Y028991D02*
D03*
X025322Y028391D02*
D03*
X02848Y033691D02*
D03*
X030722Y034741D02*
D03*
X030822Y034118D02*
D03*
M02*
