%FSTAX24Y24*%
%MOIN*%
G70*
G01*
G75*
G04 Layer_Physical_Order=2*
G04 Layer_Color=16711680*
%ADD10R,0.0472X0.0217*%
%ADD11R,0.0472X0.0256*%
%ADD12R,0.0315X0.0374*%
%ADD13R,0.0630X0.0492*%
%ADD14R,0.0374X0.0315*%
%ADD15C,0.0197*%
%ADD16O,0.0217X0.0650*%
%ADD17O,0.0650X0.0217*%
%ADD18R,0.0472X0.0472*%
G04:AMPARAMS|DCode=19|XSize=21.7mil|YSize=47.2mil|CornerRadius=0mil|HoleSize=0mil|Usage=FLASHONLY|Rotation=180.000|XOffset=0mil|YOffset=0mil|HoleType=Round|Shape=Octagon|*
%AMOCTAGOND19*
4,1,8,0.0054,-0.0236,-0.0054,-0.0236,-0.0108,-0.0182,-0.0108,0.0182,-0.0054,0.0236,0.0054,0.0236,0.0108,0.0182,0.0108,-0.0182,0.0054,-0.0236,0.0*
%
%ADD19OCTAGOND19*%

%ADD20R,0.0217X0.0472*%
%ADD21R,0.0900X0.2200*%
%ADD22O,0.0394X0.0906*%
%ADD23O,0.0945X0.0236*%
%ADD24R,0.0945X0.0236*%
%ADD25R,0.0551X0.0591*%
%ADD26R,0.0591X0.0551*%
%ADD27R,0.0512X0.0394*%
%ADD28R,0.0709X0.1772*%
%ADD29C,0.0100*%
%ADD30C,0.0787*%
%ADD31C,0.0591*%
%ADD32C,0.0591*%
%ADD33R,0.0591X0.0591*%
%ADD34R,0.0591X0.0591*%
%ADD35C,0.0866*%
%ADD36C,0.0984*%
%ADD37C,0.0320*%
D29*
X034872Y036241D02*
Y038607D01*
X039356Y030257D02*
X039389Y030291D01*
X036849Y039591D02*
X039558Y0423D01*
X034872Y039591D02*
X036849D01*
X034078Y038797D02*
X034872Y039591D01*
X034078Y029534D02*
Y038797D01*
X034872Y036241D02*
X035312Y035801D01*
Y033212D02*
Y035801D01*
Y033212D02*
X035322Y033202D01*
Y031691D02*
Y033202D01*
X034622Y030991D02*
X035322Y031691D01*
X035622Y032841D02*
Y033341D01*
Y032841D02*
X039122Y029341D01*
X034576Y035737D02*
X034772Y035541D01*
X034576Y035737D02*
Y038735D01*
X034881Y039041D01*
X038922D01*
X039622Y038341D01*
X040272Y040914D02*
X041258Y0419D01*
X040272Y037704D02*
Y040914D01*
X039858Y037291D02*
X040272Y037704D01*
X039858Y037D02*
Y037291D01*
X034078Y029534D02*
X034622Y028991D01*
X035868Y033744D02*
Y036035D01*
Y033744D02*
X039335Y030278D01*
X039356Y030257D01*
X039972Y029641D01*
X037822Y026391D02*
X039972Y028541D01*
Y029641D01*
X034822Y028791D02*
X039572D01*
X034622Y028991D02*
X034822Y028791D01*
X040058Y025791D02*
X040558Y026291D01*
X038422Y025791D02*
X040058D01*
X037822Y026391D02*
X038422Y025791D01*
X036722Y026391D02*
X037822D01*
X038716Y033691D02*
X040958D01*
X041358Y033291D01*
X036886Y038128D02*
Y038607D01*
X036158Y0374D02*
X036886Y038128D01*
X038558Y0354D02*
X038868Y03509D01*
X037958Y0354D02*
X038468Y03489D01*
X038868Y03509D02*
X039448D01*
X041958Y0376D01*
Y042191D01*
X038468Y03489D02*
X039548D01*
X042658Y038D01*
Y042191D01*
X038386Y038172D02*
Y038607D01*
Y038172D02*
X039458Y0371D01*
Y0365D02*
Y0371D01*
X038483Y032937D02*
X040261D01*
X037558Y033862D02*
X038483Y032937D01*
X037558Y033862D02*
Y035438D01*
X03822Y0361D01*
X039058D01*
X039458Y0365D01*
X037886Y037772D02*
Y038607D01*
Y037772D02*
X038158Y0375D01*
Y0366D02*
Y0375D01*
X037958Y0364D02*
X038158Y0366D01*
X037258Y0338D02*
Y0364D01*
Y037D01*
Y0364D02*
X037958D01*
X036858Y0338D02*
Y0372D01*
X037758Y037D02*
Y0373D01*
X037358Y0377D02*
X037758Y0373D01*
X036858Y0372D02*
X037358Y0377D01*
Y0386D01*
X042113Y027736D02*
X042558Y027291D01*
X041113Y026736D02*
X041558Y026291D01*
X041113Y026736D02*
Y027445D01*
X040758Y0278D02*
X041113Y027445D01*
X040758Y0278D02*
Y0299D01*
X036858Y0338D02*
X040758Y0299D01*
X041048Y02801D02*
X041322Y027736D01*
X042113D01*
X037258Y0338D02*
X041048Y03001D01*
Y02801D02*
Y03001D01*
X038158Y0337D02*
X038558Y0333D01*
X040558D01*
X040958Y0329D01*
Y034741D02*
X041018D01*
X041758Y034D01*
Y0325D02*
Y034D01*
X036158Y034217D02*
X040358Y030017D01*
Y0281D02*
Y0282D01*
Y030017D01*
X041558Y0282D02*
Y0311D01*
X041358Y0313D02*
Y033291D01*
Y0313D02*
X041558Y0311D01*
X036158Y034217D02*
Y0365D01*
Y0374D01*
X035413Y036491D02*
X035868Y036035D01*
X04074Y034118D02*
X041058D01*
X040458Y0344D02*
X04074Y034118D01*
X040458Y0344D02*
Y0351D01*
X040658Y0353D01*
X041758D01*
X042458Y0346D01*
Y0325D02*
Y0346D01*
X041258Y0419D02*
Y042191D01*
X040858Y037D02*
Y0403D01*
X030622Y037D02*
Y0403D01*
X031022Y0419D02*
Y042191D01*
X028822Y0397D02*
X031022Y0419D01*
X028822Y0383D02*
Y0397D01*
X032222Y0325D02*
Y0346D01*
X031522Y0353D02*
X032222Y0346D01*
X030422Y0353D02*
X031522D01*
X030222Y0351D02*
X030422Y0353D01*
X030222Y0344D02*
Y0351D01*
Y0344D02*
X030504Y034118D01*
X030822D01*
X025632Y029381D02*
X026022Y028991D01*
X025632Y029381D02*
Y036035D01*
X025176Y036491D02*
X025632Y036035D01*
X025922Y0365D02*
Y0374D01*
Y034217D02*
Y0365D01*
X024509Y027953D02*
X026662Y0258D01*
X032522D01*
X027622Y027591D02*
X028922Y026291D01*
X030322D01*
X031122Y0313D02*
X031322Y0311D01*
X031122Y0313D02*
Y033291D01*
X031322Y0282D02*
Y0311D01*
X030122Y0282D02*
Y030017D01*
Y0281D02*
Y0282D01*
X029122Y0283D02*
X029622D01*
X029032Y028391D02*
X029122Y0283D01*
X025322Y028391D02*
X029032D01*
X025922Y034217D02*
X030122Y030017D01*
X028762Y0299D02*
X029322D01*
X027853Y028991D02*
X028762Y0299D01*
X031522Y0325D02*
Y034D01*
X030782Y034741D02*
X031522Y034D01*
X030722Y034741D02*
X030782D01*
X030322Y0333D02*
X030722Y0329D01*
X028322Y0333D02*
X030322D01*
X027922Y0337D02*
X028322Y0333D01*
X030812Y02801D02*
Y03001D01*
X027022Y0338D02*
X030812Y03001D01*
X031086Y027736D02*
X031877D01*
X030812Y02801D02*
X031086Y027736D01*
X026622Y0338D02*
X030522Y0299D01*
Y0278D02*
Y0299D01*
Y0278D02*
X030877Y027445D01*
Y026736D02*
Y027445D01*
Y026736D02*
X031322Y026291D01*
X031877Y027736D02*
X032322Y027291D01*
X027122Y0377D02*
Y0386D01*
X026622Y0372D02*
X027122Y0377D01*
X027522Y0373D01*
Y037D02*
Y0373D01*
X026622Y0338D02*
Y0372D01*
X027022Y0364D02*
X027722D01*
X027022D02*
Y037D01*
Y0338D02*
Y0364D01*
X027722D02*
X027922Y0366D01*
Y0375D01*
X02765Y037772D02*
X027922Y0375D01*
X02765Y037772D02*
Y038607D01*
X028822Y0361D02*
X029222Y0365D01*
X027984Y0361D02*
X028822D01*
X027322Y035438D02*
X027984Y0361D01*
X027322Y033862D02*
Y035438D01*
Y033862D02*
X028247Y032937D01*
X030024D01*
X029222Y0365D02*
Y0371D01*
X02815Y038172D02*
X029222Y0371D01*
X02815Y038172D02*
Y038607D01*
X028822Y0383D02*
X029622Y0375D01*
Y037D02*
Y0375D01*
X029322Y0383D02*
X030022Y0376D01*
Y0365D02*
Y0376D01*
X028922Y0354D02*
X030022Y0365D01*
X029322Y0423D02*
X029534Y042512D01*
X030224D01*
X027832Y0395D02*
X030406Y042074D01*
X025104Y0395D02*
X027832D01*
X030224Y042512D02*
X030406Y042331D01*
Y042074D02*
Y042331D01*
X02434Y038735D02*
X025104Y0395D01*
X02434Y036082D02*
Y038735D01*
Y036082D02*
X025322Y0351D01*
Y031491D02*
Y0351D01*
X024622Y0399D02*
X027794D01*
X024022Y0393D02*
X024622Y0399D01*
X024022Y036015D02*
Y0393D01*
Y036015D02*
X025122Y034915D01*
X032522Y0258D02*
X032767Y026045D01*
Y035345D01*
X032722Y035391D02*
X032767Y035345D01*
X024509Y031887D02*
X025122Y0325D01*
X024509Y029528D02*
Y031887D01*
X025122Y0325D02*
Y034915D01*
X027794Y0399D02*
X030096Y042202D01*
X032422Y038D02*
Y042191D01*
X029312Y03489D02*
X032422Y038D01*
X028232Y03489D02*
X029312D01*
X031722Y0376D02*
Y042191D01*
X029212Y03509D02*
X031722Y0376D01*
X028632Y03509D02*
X029212D01*
X027722Y0354D02*
X028232Y03489D01*
X028322Y0354D02*
X028632Y03509D01*
X025922Y0374D02*
X02665Y038128D01*
Y038607D01*
X030722Y033691D02*
X031122Y033291D01*
X02848Y033691D02*
X030722D01*
X024509Y026378D02*
X024597Y026291D01*
X026022Y028991D02*
X027853D01*
X025322Y028391D02*
Y031491D01*
D30*
X034622Y028991D02*
D03*
Y027791D02*
D03*
Y032991D02*
D03*
Y031991D02*
D03*
Y030991D02*
D03*
X035322Y026391D02*
D03*
X036722D02*
D03*
X037822D02*
D03*
X039172D02*
D03*
D31*
X040558Y026291D02*
D03*
X041558D02*
D03*
Y027291D02*
D03*
X040558D02*
D03*
X030322Y026291D02*
D03*
X031322D02*
D03*
Y027291D02*
D03*
X030322D02*
D03*
D32*
X042558Y026291D02*
D03*
X032322D02*
D03*
D33*
X042558Y027291D02*
D03*
X032322D02*
D03*
D34*
X038642Y042717D02*
D03*
X028406D02*
D03*
D35*
X024322Y034891D02*
D03*
Y0336D02*
D03*
D36*
X024509Y029528D02*
D03*
Y027953D02*
D03*
Y026378D02*
D03*
D37*
X035622Y033341D02*
D03*
X035386Y038607D02*
D03*
X039622Y038341D02*
D03*
X034772Y035541D02*
D03*
X039122Y029341D02*
D03*
X039335Y030278D02*
D03*
X041058Y034118D02*
D03*
X040958Y034741D02*
D03*
X038716Y033691D02*
D03*
X041358Y033291D02*
D03*
X042323Y028326D02*
D03*
X042658Y042191D02*
D03*
X041958D02*
D03*
X041258D02*
D03*
X039572Y028791D02*
D03*
X037958Y0354D02*
D03*
X038558D02*
D03*
X039158D02*
D03*
X037258Y037D02*
D03*
X037758D02*
D03*
X038558D02*
D03*
X039058D02*
D03*
X038386Y038607D02*
D03*
X036886D02*
D03*
X036386D02*
D03*
X035886D02*
D03*
X039858Y037D02*
D03*
X034886Y038607D02*
D03*
X038158Y0337D02*
D03*
X040261Y032937D02*
D03*
X039558Y0423D02*
D03*
X037886Y038607D02*
D03*
X037386D02*
D03*
X041558Y0282D02*
D03*
X040958Y0329D02*
D03*
X041758Y0325D02*
D03*
X040358Y0282D02*
D03*
X036158Y0365D02*
D03*
X035413Y036491D02*
D03*
X042458Y0325D02*
D03*
X040858Y037D02*
D03*
Y0403D02*
D03*
X030622D02*
D03*
Y037D02*
D03*
X032222Y0325D02*
D03*
X025176Y036491D02*
D03*
X025922Y0365D02*
D03*
X030122Y0282D02*
D03*
X031522Y0325D02*
D03*
X030722Y0329D02*
D03*
X031322Y0282D02*
D03*
X02715Y038607D02*
D03*
X02765D02*
D03*
X029322Y0423D02*
D03*
X030096Y042202D02*
D03*
X029322Y0383D02*
D03*
X030024Y032937D02*
D03*
X027922Y0337D02*
D03*
X02465Y038607D02*
D03*
X02515D02*
D03*
X029622Y037D02*
D03*
X02565Y038607D02*
D03*
X02615D02*
D03*
X02665D02*
D03*
X02815D02*
D03*
X028822Y037D02*
D03*
X028322D02*
D03*
X027522D02*
D03*
X027022D02*
D03*
X028922Y0354D02*
D03*
X028322D02*
D03*
X027722D02*
D03*
X027622Y027591D02*
D03*
X029622Y0283D02*
D03*
X029322Y0299D02*
D03*
X025322Y031491D02*
D03*
X031022Y042191D02*
D03*
X031722D02*
D03*
X032422D02*
D03*
X032087Y028326D02*
D03*
X031122Y033291D02*
D03*
X032722Y035391D02*
D03*
X026022Y028991D02*
D03*
X025322Y028391D02*
D03*
X02848Y033691D02*
D03*
X030722Y034741D02*
D03*
X030822Y034118D02*
D03*
M02*
