%FSTAX24Y24*%
%MOIN*%
G70*
G01*
G75*
G04 Layer_Color=65535*
%ADD10R,0.0472X0.0217*%
%ADD11R,0.0472X0.0256*%
%ADD12R,0.0315X0.0374*%
%ADD13R,0.0630X0.0492*%
%ADD14R,0.0374X0.0315*%
%ADD15C,0.0197*%
%ADD16O,0.0217X0.0650*%
%ADD17O,0.0650X0.0217*%
%ADD18R,0.0472X0.0472*%
G04:AMPARAMS|DCode=19|XSize=21.7mil|YSize=47.2mil|CornerRadius=0mil|HoleSize=0mil|Usage=FLASHONLY|Rotation=180.000|XOffset=0mil|YOffset=0mil|HoleType=Round|Shape=Octagon|*
%AMOCTAGOND19*
4,1,8,0.0054,-0.0236,-0.0054,-0.0236,-0.0108,-0.0182,-0.0108,0.0182,-0.0054,0.0236,0.0054,0.0236,0.0108,0.0182,0.0108,-0.0182,0.0054,-0.0236,0.0*
%
%ADD19OCTAGOND19*%

%ADD20R,0.0217X0.0472*%
%ADD21R,0.0900X0.2200*%
%ADD22O,0.0394X0.0906*%
%ADD23O,0.0945X0.0236*%
%ADD24R,0.0945X0.0236*%
%ADD25R,0.0551X0.0591*%
%ADD26R,0.0591X0.0551*%
%ADD27R,0.0512X0.0394*%
%ADD28R,0.0709X0.1772*%
%ADD29C,0.0100*%
%ADD30C,0.0787*%
%ADD31C,0.0591*%
%ADD32C,0.0591*%
%ADD33R,0.0591X0.0591*%
%ADD34R,0.0591X0.0591*%
%ADD35C,0.0866*%
%ADD36C,0.0984*%
%ADD37C,0.0320*%
%ADD38C,0.0236*%
%ADD39C,0.0098*%
%ADD40C,0.0079*%
%ADD41C,0.0080*%
%ADD42C,0.0020*%
%ADD43C,0.0040*%
%ADD44R,0.0512X0.0256*%
%ADD45R,0.0552X0.0336*%
%ADD46R,0.0395X0.0454*%
%ADD47R,0.0710X0.0572*%
%ADD48R,0.0454X0.0395*%
%ADD49C,0.0277*%
%ADD50O,0.0297X0.0730*%
%ADD51O,0.0730X0.0297*%
%ADD52R,0.0552X0.0552*%
G04:AMPARAMS|DCode=53|XSize=25.6mil|YSize=51.2mil|CornerRadius=0mil|HoleSize=0mil|Usage=FLASHONLY|Rotation=180.000|XOffset=0mil|YOffset=0mil|HoleType=Round|Shape=Octagon|*
%AMOCTAGOND53*
4,1,8,0.0064,-0.0256,-0.0064,-0.0256,-0.0128,-0.0192,-0.0128,0.0192,-0.0064,0.0256,0.0064,0.0256,0.0128,0.0192,0.0128,-0.0192,0.0064,-0.0256,0.0*
%
%ADD53OCTAGOND53*%

%ADD54R,0.0256X0.0512*%
%ADD55R,0.0980X0.2280*%
%ADD56O,0.0474X0.0986*%
%ADD57O,0.1025X0.0316*%
%ADD58R,0.1025X0.0316*%
%ADD59R,0.0631X0.0671*%
%ADD60R,0.0671X0.0631*%
%ADD61R,0.0592X0.0474*%
%ADD62R,0.0789X0.1852*%
%ADD63C,0.0867*%
%ADD64C,0.0671*%
%ADD65C,0.0671*%
%ADD66R,0.0671X0.0671*%
%ADD67R,0.0671X0.0671*%
%ADD68C,0.0946*%
%ADD69C,0.1064*%
%ADD70C,0.0400*%
D29*
X025072Y029541D02*
X028872D01*
X025072Y027941D02*
X028872D01*
X025072Y026341D02*
X028872D01*
X024874Y034242D02*
X02952D01*
X023772Y035441D02*
X024872D01*
Y033091D02*
Y035441D01*
X023772Y033091D02*
X024872D01*
X023772D02*
Y035441D01*
X034072Y029891D02*
X038822D01*
X034072Y027191D02*
Y029891D01*
Y027191D02*
X034722D01*
X035222Y027691D01*
Y029891D01*
X035972Y031591D02*
X042872D01*
X034072Y033541D02*
X035972D01*
X034072Y030541D02*
Y033541D01*
Y030541D02*
X034122Y030491D01*
X035972D01*
Y033541D01*
X037172Y027391D02*
Y028591D01*
Y028641D02*
X038472D01*
X035222Y027391D02*
X037172D01*
X034822Y026991D02*
X035222Y027391D01*
X034822Y025891D02*
Y026991D01*
Y025891D02*
X037172D01*
Y027391D01*
X039672D02*
Y028741D01*
X043172D01*
X039672Y025891D02*
Y027441D01*
X037372Y027391D02*
X039672D01*
X037372Y025891D02*
Y027391D01*
Y025891D02*
X039672D01*
D39*
X028428Y026983D02*
X028527Y027081D01*
X028724D01*
X028822Y026983D01*
Y026589D01*
X028724Y026491D01*
X028527D01*
X028428Y026589D01*
Y026786D01*
X028625D01*
X028232Y026491D02*
Y027081D01*
X027838Y026491D01*
Y027081D01*
X027641D02*
Y026491D01*
X027346D01*
X027248Y026589D01*
Y026983D01*
X027346Y027081D01*
X027641D01*
X028822Y028681D02*
Y028287D01*
X028625Y028091D01*
X028428Y028287D01*
Y028681D01*
X027838Y028583D02*
X027937Y028681D01*
X028133D01*
X028232Y028583D01*
Y028189D01*
X028133Y028091D01*
X027937D01*
X027838Y028189D01*
X027248Y028583D02*
X027346Y028681D01*
X027543D01*
X027641Y028583D01*
Y028189D01*
X027543Y028091D01*
X027346D01*
X027248Y028189D01*
X028428Y030183D02*
X028527Y030281D01*
X028724D01*
X028822Y030183D01*
Y030084D01*
X028724Y029986D01*
X028527D01*
X028428Y029887D01*
Y029789D01*
X028527Y029691D01*
X028724D01*
X028822Y029789D01*
X028232Y030281D02*
X028035D01*
X028133D01*
Y029691D01*
X028232D01*
X028035D01*
X027346Y030183D02*
X027445Y030281D01*
X027641D01*
X02774Y030183D01*
Y029789D01*
X027641Y029691D01*
X027445D01*
X027346Y029789D01*
Y029986D01*
X027543D01*
X027149Y029691D02*
Y030281D01*
X026756Y029691D01*
Y030281D01*
X026559Y029691D02*
Y030084D01*
X026362Y030281D01*
X026165Y030084D01*
Y029691D01*
Y029986D01*
X026559D01*
X025969Y030281D02*
Y029691D01*
X025575D01*
X042778Y029383D02*
X042877Y029481D01*
X043074D01*
X043172Y029383D01*
Y028989D01*
X043074Y028891D01*
X042877D01*
X042778Y028989D01*
X042582Y029481D02*
Y028891D01*
Y029186D01*
X042188D01*
Y029481D01*
Y028891D01*
X041991D02*
Y029284D01*
X041795Y029481D01*
X041598Y029284D01*
Y028891D01*
Y029186D01*
X041991D01*
X041401Y028891D02*
Y029481D01*
X041106D01*
X041007Y029383D01*
Y029186D01*
X041106Y029087D01*
X041401D01*
X041204D02*
X041007Y028891D01*
X040417Y029383D02*
X040515Y029481D01*
X040712D01*
X040811Y029383D01*
Y028989D01*
X040712Y028891D01*
X040515D01*
X040417Y028989D01*
Y029186D01*
X040614D01*
X039827Y029481D02*
X04022D01*
Y028891D01*
X039827D01*
X04022Y029186D02*
X040023D01*
X03963Y028891D02*
Y029481D01*
X039335D01*
X039236Y029383D01*
Y029186D01*
X039335Y029087D01*
X03963D01*
X039433D02*
X039236Y028891D01*
X038422Y029431D02*
Y028841D01*
X038028D01*
X037832Y029431D02*
X037635D01*
X037733D01*
Y028841D01*
X037832D01*
X037635D01*
X03734D02*
Y029431D01*
X037045D01*
X036946Y029333D01*
Y029136D01*
X037045Y029037D01*
X03734D01*
X036454Y029431D02*
X036651D01*
X036749Y029333D01*
Y028939D01*
X036651Y028841D01*
X036454D01*
X036356Y028939D01*
Y029333D01*
X036454Y029431D01*
X038672Y030091D02*
Y030681D01*
X038377D01*
X038278Y030583D01*
Y030386D01*
X038377Y030287D01*
X038672D01*
X038475D02*
X038278Y030091D01*
X037688Y030681D02*
X038082D01*
Y030091D01*
X037688D01*
X038082Y030386D02*
X037885D01*
X037098Y030681D02*
X037491D01*
Y030091D01*
X037098D01*
X037491Y030386D02*
X037295D01*
X036901Y030681D02*
Y030091D01*
X036606D01*
X036507Y030189D01*
Y030583D01*
X036606Y030681D01*
X036901D01*
X036908Y027045D02*
X036515D01*
X038008D02*
X037615D01*
X035522Y027086D02*
X035128D01*
X035325Y027283D02*
Y026889D01*
X039372Y027086D02*
X038978D01*
X039175Y027283D02*
Y026889D01*
X035822Y030986D02*
X035428D01*
X035625Y031183D02*
Y030789D01*
X035808Y031995D02*
X035415D01*
X035822Y032691D02*
X035527D01*
X035428Y032789D01*
X035527Y032887D01*
X035724D01*
X035822Y032986D01*
X035724Y033084D01*
X035428D01*
X042822Y032431D02*
Y031841D01*
Y032136D01*
X042428D01*
Y032431D01*
Y031841D01*
X042232D02*
Y032234D01*
X042035Y032431D01*
X041838Y032234D01*
Y031841D01*
Y032136D01*
X042232D01*
X041641Y032431D02*
Y031841D01*
X041248D01*
X041051Y032431D02*
Y031841D01*
X040657D01*
X039477Y032333D02*
X039575Y032431D01*
X039772D01*
X03987Y032333D01*
Y032234D01*
X039772Y032136D01*
X039575D01*
X039477Y032037D01*
Y031939D01*
X039575Y031841D01*
X039772D01*
X03987Y031939D01*
X038886Y032431D02*
X03928D01*
Y031841D01*
X038886D01*
X03928Y032136D02*
X039083D01*
X03869Y031841D02*
Y032431D01*
X038296Y031841D01*
Y032431D01*
X037706Y032333D02*
X037804Y032431D01*
X038001D01*
X038099Y032333D01*
Y032234D01*
X038001Y032136D01*
X037804D01*
X037706Y032037D01*
Y031939D01*
X037804Y031841D01*
X038001D01*
X038099Y031939D01*
X037214Y032431D02*
X03741D01*
X037509Y032333D01*
Y031939D01*
X03741Y031841D01*
X037214D01*
X037115Y031939D01*
Y032333D01*
X037214Y032431D01*
X036918Y031841D02*
Y032431D01*
X036623D01*
X036525Y032333D01*
Y032136D01*
X036623Y032037D01*
X036918D01*
X036722D02*
X036525Y031841D01*
X029422Y034391D02*
Y034981D01*
X029127D01*
X029028Y034883D01*
Y034686D01*
X029127Y034587D01*
X029422D01*
X029225D02*
X029028Y034391D01*
X028438Y034981D02*
X028832D01*
Y034391D01*
X028438D01*
X028832Y034686D02*
X028635D01*
X027848Y034981D02*
X028241D01*
Y034391D01*
X027848D01*
X028241Y034686D02*
X028045D01*
X027651Y034981D02*
Y034391D01*
X027356D01*
X027257Y034489D01*
Y034883D01*
X027356Y034981D01*
X027651D01*
M02*
