%FSTAX24Y24*%
%MOIN*%
G70*
G01*
G75*
G04 Layer_Color=65535*
%ADD10R,0.0472X0.0217*%
%ADD11R,0.0472X0.0256*%
%ADD12R,0.0315X0.0374*%
%ADD13R,0.0630X0.0492*%
%ADD14R,0.0374X0.0315*%
%ADD15C,0.0197*%
%ADD16O,0.0217X0.0650*%
%ADD17O,0.0650X0.0217*%
%ADD18R,0.0472X0.0472*%
G04:AMPARAMS|DCode=19|XSize=21.7mil|YSize=47.2mil|CornerRadius=0mil|HoleSize=0mil|Usage=FLASHONLY|Rotation=180.000|XOffset=0mil|YOffset=0mil|HoleType=Round|Shape=Octagon|*
%AMOCTAGOND19*
4,1,8,0.0054,-0.0236,-0.0054,-0.0236,-0.0108,-0.0182,-0.0108,0.0182,-0.0054,0.0236,0.0054,0.0236,0.0108,0.0182,0.0108,-0.0182,0.0054,-0.0236,0.0*
%
%ADD19OCTAGOND19*%

%ADD20R,0.0217X0.0472*%
%ADD21R,0.0900X0.2200*%
%ADD22O,0.0394X0.0906*%
%ADD23O,0.0945X0.0236*%
%ADD24R,0.0945X0.0236*%
%ADD25R,0.0551X0.0591*%
%ADD26R,0.0591X0.0551*%
%ADD27R,0.0512X0.0394*%
%ADD28R,0.0709X0.1772*%
%ADD29C,0.0100*%
%ADD30C,0.0787*%
%ADD31C,0.0591*%
%ADD32C,0.0591*%
%ADD33R,0.0591X0.0591*%
%ADD34R,0.0591X0.0591*%
%ADD35C,0.0866*%
%ADD36C,0.0984*%
%ADD37C,0.0320*%
%ADD38C,0.0236*%
%ADD39C,0.0098*%
%ADD40C,0.0079*%
%ADD41C,0.0080*%
%ADD42C,0.0020*%
%ADD43C,0.0040*%
D29*
X034081Y035116D02*
X035263D01*
Y034565D02*
Y035116D01*
X034081Y034565D02*
X035263D01*
X034081D02*
Y035116D01*
X039896Y039881D02*
X040448D01*
X039896Y0387D02*
Y039881D01*
Y0387D02*
X040448D01*
Y039881D01*
X036363Y030565D02*
Y031116D01*
X035182D02*
X036363D01*
X035182Y030565D02*
Y031116D01*
Y030565D02*
X036363D01*
X035263Y033865D02*
Y034416D01*
X034081D02*
X035263D01*
X034081Y033865D02*
Y034416D01*
Y033865D02*
X035263D01*
X037381Y031265D02*
Y031816D01*
Y031265D02*
X038563D01*
Y031816D01*
X037381D02*
X038563D01*
X034468Y036815D02*
X035649D01*
X034468D02*
Y037366D01*
X035649D01*
Y036815D02*
Y037366D01*
X042749Y034415D02*
Y034966D01*
X041568D02*
X042749D01*
X041568Y034415D02*
Y034966D01*
Y034415D02*
X042749D01*
X041568Y035115D02*
Y035666D01*
Y035115D02*
X042749D01*
Y035666D01*
X041568D02*
X042749D01*
X041568Y034266D02*
X042749D01*
Y033715D02*
Y034266D01*
X041568Y033715D02*
X042749D01*
X041568D02*
Y034266D01*
X041568Y033015D02*
Y033566D01*
Y033015D02*
X042749D01*
Y033566D01*
X041568D02*
X042749D01*
X040749Y042815D02*
Y043366D01*
X039568D02*
X040749D01*
X039568Y042815D02*
Y043366D01*
Y042815D02*
X040749D01*
Y043515D02*
Y044066D01*
X039568D02*
X040749D01*
X039568Y043515D02*
Y044066D01*
Y043515D02*
X040749D01*
Y044215D02*
Y044766D01*
X039568D02*
X040749D01*
X039568Y044215D02*
Y044766D01*
Y044215D02*
X040749D01*
X039196Y039881D02*
X039748D01*
X039196Y0387D02*
Y039881D01*
Y0387D02*
X039748D01*
Y039881D01*
X041258Y027691D02*
Y027791D01*
Y027691D02*
X041858D01*
Y027791D01*
X040058Y025791D02*
Y027791D01*
X043058D01*
Y025791D02*
Y027791D01*
X040058Y025791D02*
X043058D01*
X041258Y03686D02*
Y04141D01*
X043058Y03686D02*
Y04141D01*
X041258D02*
X041558D01*
X042758D02*
X043058D01*
X042758Y03686D02*
X043058D01*
X041258D02*
X041558D01*
X037048Y0299D02*
Y031081D01*
X036496Y0299D02*
X037048D01*
X036496D02*
Y031081D01*
X037048D01*
X037431Y029816D02*
X038613D01*
Y029265D02*
Y029816D01*
X037431Y029265D02*
X038613D01*
X037431D02*
Y029816D01*
X041535Y030827D02*
X042717D01*
X041535D02*
Y031378D01*
X042717D01*
Y030827D02*
Y031378D01*
X041535Y031614D02*
X042717D01*
X041535D02*
Y032165D01*
X042717D01*
Y031614D02*
Y032165D01*
X039961D02*
X041142D01*
Y031614D02*
Y032165D01*
X039961Y031614D02*
X041142D01*
X039961D02*
Y032165D01*
X039961Y031378D02*
X041142D01*
Y030827D02*
Y031378D01*
X039961Y030827D02*
X041142D01*
X039961D02*
Y031378D01*
X041134Y0387D02*
Y039881D01*
X040583Y0387D02*
X041134D01*
X040583D02*
Y039881D01*
X041134D01*
X040583Y0374D02*
Y038581D01*
X041134D01*
Y0374D02*
Y038581D01*
X040583Y0374D02*
X041134D01*
X034256Y038189D02*
Y045276D01*
X039016D01*
Y038189D02*
Y045276D01*
X034256Y038189D02*
X039016D01*
X024946Y033D02*
X025498D01*
Y034181D01*
X024946D02*
X025498D01*
X024946Y033D02*
Y034181D01*
Y0344D02*
X025498D01*
Y035581D01*
X024946D02*
X025498D01*
X024946Y0344D02*
Y035581D01*
X024232Y036815D02*
X025413D01*
X024232D02*
Y037366D01*
X025413D01*
Y036815D02*
Y037366D01*
X032513Y034415D02*
Y034966D01*
X031331D02*
X032513D01*
X031331Y034415D02*
Y034966D01*
Y034415D02*
X032513D01*
X031332Y035115D02*
Y035666D01*
Y035115D02*
X032513D01*
Y035666D01*
X031332D02*
X032513D01*
X031332Y034266D02*
X032513D01*
Y033715D02*
Y034266D01*
X031332Y033715D02*
X032513D01*
X031332D02*
Y034266D01*
X031332Y033015D02*
Y033566D01*
Y033015D02*
X032513D01*
Y033566D01*
X031332D02*
X032513D01*
X030513Y042815D02*
Y043366D01*
X029331D02*
X030513D01*
X029331Y042815D02*
Y043366D01*
Y042815D02*
X030513D01*
Y043515D02*
Y044066D01*
X029331D02*
X030513D01*
X029331Y043515D02*
Y044066D01*
Y043515D02*
X030513D01*
Y044215D02*
Y044766D01*
X029331D02*
X030513D01*
X029331Y044215D02*
Y044766D01*
Y044215D02*
X030513D01*
X029046Y0387D02*
X029598D01*
Y039881D01*
X029046D02*
X029598D01*
X029046Y0387D02*
Y039881D01*
X031022Y027691D02*
Y027791D01*
Y027691D02*
X031622D01*
Y027791D01*
X029822Y025791D02*
Y027791D01*
X032822D01*
Y025791D02*
Y027791D01*
X029822Y025791D02*
X032822D01*
X031022Y03686D02*
Y04141D01*
X032822Y03686D02*
Y04141D01*
X031022D02*
X031322D01*
X032522D02*
X032822D01*
X032522Y03686D02*
X032822D01*
X031022D02*
X031322D01*
X026832Y028115D02*
Y028666D01*
Y028115D02*
X028013D01*
Y028666D01*
X026832D02*
X028013D01*
X025531Y028115D02*
Y028666D01*
Y028115D02*
X026713D01*
Y028666D01*
X025531D02*
X026713D01*
X028246Y029981D02*
X028798D01*
X028246Y0288D02*
Y029981D01*
Y0288D02*
X028798D01*
Y029981D01*
X023819Y030433D02*
X025D01*
X023819D02*
Y030984D01*
X025D01*
Y030433D02*
Y030984D01*
X023819Y032559D02*
X025D01*
Y032008D02*
Y032559D01*
X023819Y032008D02*
X025D01*
X023819D02*
Y032559D01*
X023819Y031772D02*
X025D01*
Y03122D02*
Y031772D01*
X023819Y03122D02*
X025D01*
X023819D02*
Y031772D01*
X027931Y027315D02*
X029113D01*
X027931D02*
Y027866D01*
X029113D01*
Y027315D02*
Y027866D01*
X027068Y025682D02*
Y027099D01*
X027776D01*
Y025682D02*
Y027099D01*
X027068Y025682D02*
X027776D01*
X026168D02*
Y027099D01*
X026876D01*
Y025682D02*
Y027099D01*
X026168Y025682D02*
X026876D01*
X025268D02*
Y027099D01*
X025976D01*
Y025682D02*
Y027099D01*
X025268Y025682D02*
X025976D01*
X025898Y0292D02*
Y030381D01*
X025346Y0292D02*
X025898D01*
X025346D02*
Y030381D01*
X025898D01*
X031299Y030827D02*
X03248D01*
X031299D02*
Y031378D01*
X03248D01*
Y030827D02*
Y031378D01*
X031299Y031614D02*
X03248D01*
X031299D02*
Y032165D01*
X03248D01*
Y031614D02*
Y032165D01*
X029724D02*
X030906D01*
Y031614D02*
Y032165D01*
X029724Y031614D02*
X030906D01*
X029724D02*
Y032165D01*
X029724Y031378D02*
X030906D01*
Y030827D02*
Y031378D01*
X029724Y030827D02*
X030906D01*
X029724D02*
Y031378D01*
X030898Y0387D02*
Y039881D01*
X030346Y0387D02*
X030898D01*
X030346D02*
Y039881D01*
X030898D01*
X030346Y0374D02*
Y038581D01*
X030898D01*
Y0374D02*
Y038581D01*
X030346Y0374D02*
X030898D01*
X02402Y038189D02*
Y045276D01*
X02878D01*
Y038189D02*
Y045276D01*
X02402Y038189D02*
X02878D01*
X028224Y030316D02*
Y032284D01*
X02602Y030316D02*
X028224D01*
X02602D02*
Y032284D01*
X028224D01*
X027968Y025682D02*
Y027099D01*
X028676D01*
Y025682D02*
Y027099D01*
X027968Y025682D02*
X028676D01*
X028868D02*
Y027099D01*
X029576D01*
Y025682D02*
Y027099D01*
X028868Y025682D02*
X029576D01*
D38*
X039444Y033823D02*
G03*
X039444Y033823I-000118J0D01*
G01*
X029208D02*
G03*
X029208Y033823I-000118J0D01*
G01*
D39*
X040261Y033163D02*
G03*
X040261Y033163I-000049J0D01*
G01*
X030025D02*
G03*
X030025Y033163I-000049J0D01*
G01*
D40*
X041339Y030276D02*
G03*
X041339Y030276I-000118J0D01*
G01*
X031102D02*
G03*
X031102Y030276I-000118J0D01*
G01*
X037772Y031151D02*
X038272D01*
X037772Y02993D02*
X038272D01*
X037772D02*
Y031151D01*
X038272Y02993D02*
Y031151D01*
X035772Y032542D02*
X036272D01*
X035772Y031439D02*
X036272D01*
X035772D02*
Y032542D01*
X036272Y031439D02*
Y032542D01*
X037496Y028356D02*
X038048D01*
X036596Y027726D02*
X037148D01*
X035696Y028356D02*
X036248D01*
X038396Y027726D02*
X038948D01*
X037397Y035752D02*
X03972D01*
X037397Y033429D02*
X03972D01*
X037397D02*
Y035752D01*
X03972Y033429D02*
Y035752D01*
X042943Y042509D02*
Y044872D01*
X040974Y042509D02*
X042943D01*
X040974D02*
Y044872D01*
X042943D01*
X040974Y042827D02*
X041275Y042526D01*
X039348Y041341D02*
X040568D01*
X039348Y040841D02*
X040568D01*
Y041341D01*
X039348Y040841D02*
Y041341D01*
X040984Y028543D02*
X041693D01*
X040984Y030512D02*
X041693D01*
Y028543D02*
Y030512D01*
X040984Y028543D02*
Y030512D01*
X027161Y035752D02*
X029483D01*
X027161Y033429D02*
X029483D01*
X027161D02*
Y035752D01*
X029483Y033429D02*
Y035752D01*
X027472Y02888D02*
Y030101D01*
X026972Y02888D02*
Y030101D01*
Y02888D02*
X027472D01*
X026972Y030101D02*
X027472D01*
X032706Y042509D02*
Y044872D01*
X030738Y042509D02*
X032706D01*
X030738D02*
Y044872D01*
X032706D01*
X030738Y042827D02*
X031039Y042526D01*
X029112Y041341D02*
X030332D01*
X029112Y040841D02*
X030332D01*
Y041341D01*
X029112Y040841D02*
Y041341D01*
X030748Y028543D02*
X031457D01*
X030748Y030512D02*
X031457D01*
Y028543D02*
Y030512D01*
X030748Y028543D02*
Y030512D01*
D41*
X037372Y029051D02*
X038172D01*
X037372Y027031D02*
Y029051D01*
Y027031D02*
X038172D01*
Y029051D01*
X036472Y027031D02*
X037272D01*
Y029051D01*
X036472D02*
X037272D01*
X036472Y027031D02*
Y029051D01*
X035572D02*
X036372D01*
X035572Y027031D02*
Y029051D01*
Y027031D02*
X036372D01*
Y029051D01*
X038272Y027031D02*
X039072D01*
Y029051D01*
X038272D02*
X039072D01*
X038272Y027031D02*
Y029051D01*
D42*
X029102Y03011D02*
Y0321D01*
X028348Y03011D02*
X029102D01*
X028348D02*
Y0321D01*
X028372Y031272D02*
X029082D01*
X028348Y0321D02*
X029102D01*
X025232Y027211D02*
X027222D01*
X025232D02*
Y027965D01*
X027222D01*
X026395Y027231D02*
Y027941D01*
X027222Y027211D02*
Y027965D01*
D43*
X03567Y030895D02*
X035645Y03092D01*
X035595D01*
X03557Y030895D01*
Y030795D01*
X035595Y03077D01*
X035645D01*
X03567Y030795D01*
X03582Y03077D02*
X03572D01*
X03582Y03087D01*
Y030895D01*
X035795Y03092D01*
X035745D01*
X03572Y030895D01*
X03587D02*
X035895Y03092D01*
X035945D01*
X03597Y030895D01*
Y03087D01*
X035945Y030845D01*
X03597Y03082D01*
Y030795D01*
X035945Y03077D01*
X035895D01*
X03587Y030795D01*
Y03082D01*
X035895Y030845D01*
X03587Y03087D01*
Y030895D01*
X035895Y030845D02*
X035945D01*
X04007Y039345D02*
X040045Y03937D01*
X039995D01*
X03997Y039345D01*
Y039245D01*
X039995Y03922D01*
X040045D01*
X04007Y039245D01*
X04022Y03922D02*
X04012D01*
X04022Y03932D01*
Y039345D01*
X040195Y03937D01*
X040145D01*
X04012Y039345D01*
X04027Y03937D02*
X04037D01*
Y039345D01*
X04027Y039245D01*
Y03922D01*
X03585Y02812D02*
Y02797D01*
X035925D01*
X03595Y027995D01*
Y028095D01*
X035925Y02812D01*
X03585D01*
X036Y028095D02*
X036025Y02812D01*
X036075D01*
X0361Y028095D01*
Y02807D01*
X036075Y028045D01*
X0361Y02802D01*
Y027995D01*
X036075Y02797D01*
X036025D01*
X036Y027995D01*
Y02802D01*
X036025Y028045D01*
X036Y02807D01*
Y028095D01*
X036025Y028045D02*
X036075D01*
X03675Y02812D02*
Y02797D01*
X036825D01*
X03685Y027995D01*
Y028095D01*
X036825Y02812D01*
X03675D01*
X0369D02*
X037D01*
Y028095D01*
X0369Y027995D01*
Y02797D01*
X03765Y02812D02*
Y02797D01*
X037725D01*
X03775Y027995D01*
Y028095D01*
X037725Y02812D01*
X03765D01*
X0379D02*
X03785Y028095D01*
X0378Y028045D01*
Y027995D01*
X037825Y02797D01*
X037875D01*
X0379Y027995D01*
Y02802D01*
X037875Y028045D01*
X0378D01*
X03582Y03192D02*
Y03207D01*
X03587Y03202D01*
X03592Y03207D01*
Y03192D01*
X036045D02*
Y03207D01*
X03597Y031995D01*
X03607D01*
X03612Y03207D02*
X03622D01*
Y032045D01*
X03612Y031945D01*
Y03192D01*
X03622D01*
X03447Y03477D02*
Y03492D01*
X034545D01*
X03457Y034895D01*
Y034845D01*
X034545Y03482D01*
X03447D01*
X03452D02*
X03457Y03477D01*
X03472D02*
X03462D01*
X03472Y03487D01*
Y034895D01*
X034695Y03492D01*
X034645D01*
X03462Y034895D01*
X03487Y03477D02*
X03477D01*
X03487Y03487D01*
Y034895D01*
X034845Y03492D01*
X034795D01*
X03477Y034895D01*
X03791Y03062D02*
Y030495D01*
X037935Y03047D01*
X037985D01*
X03801Y030495D01*
Y03062D01*
X03806Y030595D02*
X038085Y03062D01*
X038135D01*
X03816Y030595D01*
Y03057D01*
X038135Y030545D01*
X03816Y03052D01*
Y030495D01*
X038135Y03047D01*
X038085D01*
X03806Y030495D01*
Y03052D01*
X038085Y030545D01*
X03806Y03057D01*
Y030595D01*
X038085Y030545D02*
X038135D01*
X03448Y03407D02*
Y03422D01*
X034555D01*
X03458Y034195D01*
Y034145D01*
X034555Y03412D01*
X03448D01*
X03453D02*
X03458Y03407D01*
X03463D02*
X03468D01*
X034655D01*
Y03422D01*
X03463Y034195D01*
X034855Y03422D02*
X034805Y034195D01*
X034755Y034145D01*
Y034095D01*
X03478Y03407D01*
X03483D01*
X034855Y034095D01*
Y03412D01*
X03483Y034145D01*
X034755D01*
X03778Y03147D02*
Y03162D01*
X037855D01*
X03788Y031595D01*
Y031545D01*
X037855Y03152D01*
X03778D01*
X03783D02*
X03788Y03147D01*
X03793D02*
X03798D01*
X037955D01*
Y03162D01*
X03793Y031595D01*
X038155Y03162D02*
X038055D01*
Y031545D01*
X038105Y03157D01*
X03813D01*
X038155Y031545D01*
Y031495D01*
X03813Y03147D01*
X03808D01*
X038055Y031495D01*
X03497Y037145D02*
X034945Y03717D01*
X034895D01*
X03487Y037145D01*
Y037045D01*
X034895Y03702D01*
X034945D01*
X03497Y037045D01*
X03502Y03702D02*
X03507D01*
X035045D01*
Y03717D01*
X03502Y037145D01*
X035145Y037045D02*
X03517Y03702D01*
X03522D01*
X035245Y037045D01*
Y037145D01*
X03522Y03717D01*
X03517D01*
X035145Y037145D01*
Y03712D01*
X03517Y037095D01*
X035245D01*
X04198Y03462D02*
Y03477D01*
X042055D01*
X04208Y034745D01*
Y034695D01*
X042055Y03467D01*
X04198D01*
X04203D02*
X04208Y03462D01*
X04223D02*
X04213D01*
X04223Y03472D01*
Y034745D01*
X042205Y03477D01*
X042155D01*
X04213Y034745D01*
X04228Y03462D02*
X04233D01*
X042305D01*
Y03477D01*
X04228Y034745D01*
X04196Y03532D02*
Y03547D01*
X042035D01*
X04206Y035445D01*
Y035395D01*
X042035Y03537D01*
X04196D01*
X04201D02*
X04206Y03532D01*
X04221D02*
X04211D01*
X04221Y03542D01*
Y035445D01*
X042185Y03547D01*
X042135D01*
X04211Y035445D01*
X04226D02*
X042285Y03547D01*
X042335D01*
X04236Y035445D01*
Y035345D01*
X042335Y03532D01*
X042285D01*
X04226Y035345D01*
Y035445D01*
X04206Y034045D02*
X042035Y03407D01*
X041985D01*
X04196Y034045D01*
Y033945D01*
X041985Y03392D01*
X042035D01*
X04206Y033945D01*
X04221Y03392D02*
X04211D01*
X04221Y03402D01*
Y034045D01*
X042185Y03407D01*
X042135D01*
X04211Y034045D01*
X04236Y03407D02*
X04231Y034045D01*
X04226Y033995D01*
Y033945D01*
X042285Y03392D01*
X042335D01*
X04236Y033945D01*
Y03397D01*
X042335Y033995D01*
X04226D01*
X04197Y03322D02*
Y03337D01*
X042045D01*
X04207Y033345D01*
Y033295D01*
X042045Y03327D01*
X04197D01*
X04202D02*
X04207Y03322D01*
X04212D02*
X04217D01*
X042145D01*
Y03337D01*
X04212Y033345D01*
X04232Y03322D02*
Y03337D01*
X042245Y033295D01*
X042345D01*
X03837Y03467D02*
X03842D01*
X038395D01*
Y03452D01*
X03837D01*
X03842D01*
X038595Y034645D02*
X03857Y03467D01*
X03852D01*
X038495Y034645D01*
Y034545D01*
X03852Y03452D01*
X03857D01*
X038595Y034545D01*
X038745Y03452D02*
X038645D01*
X038745Y03462D01*
Y034645D01*
X03872Y03467D01*
X03867D01*
X038645Y034645D01*
X03997Y04302D02*
Y04317D01*
X040045D01*
X04007Y043145D01*
Y043095D01*
X040045Y04307D01*
X03997D01*
X04002D02*
X04007Y04302D01*
X04012D02*
X04017D01*
X040145D01*
Y04317D01*
X04012Y043145D01*
X040245Y04317D02*
X040345D01*
Y043145D01*
X040245Y043045D01*
Y04302D01*
X03997Y04372D02*
Y04387D01*
X040045D01*
X04007Y043845D01*
Y043795D01*
X040045Y04377D01*
X03997D01*
X04002D02*
X04007Y04372D01*
X04012D02*
X04017D01*
X040145D01*
Y04387D01*
X04012Y043845D01*
X040245D02*
X04027Y04387D01*
X04032D01*
X040345Y043845D01*
Y04382D01*
X04032Y043795D01*
X040345Y04377D01*
Y043745D01*
X04032Y04372D01*
X04027D01*
X040245Y043745D01*
Y04377D01*
X04027Y043795D01*
X040245Y04382D01*
Y043845D01*
X04027Y043795D02*
X04032D01*
X03997Y04442D02*
Y04457D01*
X040045D01*
X04007Y044545D01*
Y044495D01*
X040045Y04447D01*
X03997D01*
X04002D02*
X04007Y04442D01*
X04012D02*
X04017D01*
X040145D01*
Y04457D01*
X04012Y044545D01*
X040245Y044445D02*
X04027Y04442D01*
X04032D01*
X040345Y044445D01*
Y044545D01*
X04032Y04457D01*
X04027D01*
X040245Y044545D01*
Y04452D01*
X04027Y044495D01*
X040345D01*
X04183Y04377D02*
Y04362D01*
X041905D01*
X04193Y043645D01*
Y043745D01*
X041905Y04377D01*
X04183D01*
X042055Y04362D02*
Y04377D01*
X04198Y043695D01*
X04208D01*
X03983Y04116D02*
Y041035D01*
X039855Y04101D01*
X039905D01*
X03993Y041035D01*
Y04116D01*
X04008D02*
X03998D01*
Y041085D01*
X04003Y04111D01*
X040055D01*
X04008Y041085D01*
Y041035D01*
X040055Y04101D01*
X040005D01*
X03998Y041035D01*
X03928Y03922D02*
Y03937D01*
X039355D01*
X03938Y039345D01*
Y039295D01*
X039355Y03927D01*
X03928D01*
X03933D02*
X03938Y03922D01*
X03943D02*
X03948D01*
X039455D01*
Y03937D01*
X03943Y039345D01*
X039555D02*
X03958Y03937D01*
X03963D01*
X039655Y039345D01*
Y03932D01*
X03963Y039295D01*
X039605D01*
X03963D01*
X039655Y03927D01*
Y039245D01*
X03963Y03922D01*
X03958D01*
X039555Y039245D01*
X04153Y02687D02*
X04148D01*
X041505D01*
Y026745D01*
X04148Y02672D01*
X041455D01*
X04143Y026745D01*
X04168Y02672D02*
X04158D01*
X04168Y02682D01*
Y026845D01*
X041655Y02687D01*
X041605D01*
X04158Y026845D01*
X04203Y03917D02*
Y039145D01*
X04208Y039095D01*
X04213Y039145D01*
Y03917D01*
X04208Y039095D02*
Y03902D01*
X04228D02*
X04218D01*
X04228Y03912D01*
Y039145D01*
X042255Y03917D01*
X042205D01*
X04218Y039145D01*
X03855Y02812D02*
Y02797D01*
X038625D01*
X03865Y027995D01*
Y028095D01*
X038625Y02812D01*
X03855D01*
X0388D02*
X0387D01*
Y028045D01*
X03875Y02807D01*
X038775D01*
X0388Y028045D01*
Y027995D01*
X038775Y02797D01*
X038725D01*
X0387Y027995D01*
X03667Y030545D02*
X036645Y03057D01*
X036595D01*
X03657Y030545D01*
Y030445D01*
X036595Y03042D01*
X036645D01*
X03667Y030445D01*
X03672Y030545D02*
X036745Y03057D01*
X036795D01*
X03682Y030545D01*
Y03052D01*
X036795Y030495D01*
X03677D01*
X036795D01*
X03682Y03047D01*
Y030445D01*
X036795Y03042D01*
X036745D01*
X03672Y030445D01*
X03697Y03057D02*
X03687D01*
Y030495D01*
X03692Y03052D01*
X036945D01*
X03697Y030495D01*
Y030445D01*
X036945Y03042D01*
X036895D01*
X03687Y030445D01*
X03792Y029595D02*
X037895Y02962D01*
X037845D01*
X03782Y029595D01*
Y029495D01*
X037845Y02947D01*
X037895D01*
X03792Y029495D01*
X03797Y029595D02*
X037995Y02962D01*
X038045D01*
X03807Y029595D01*
Y02957D01*
X038045Y029545D01*
X03802D01*
X038045D01*
X03807Y02952D01*
Y029495D01*
X038045Y02947D01*
X037995D01*
X03797Y029495D01*
X038195Y02947D02*
Y02962D01*
X03812Y029545D01*
X03822D01*
X04203Y031155D02*
X042005Y03118D01*
X041955D01*
X04193Y031155D01*
Y031055D01*
X041955Y03103D01*
X042005D01*
X04203Y031055D01*
X04218Y03103D02*
X04208D01*
X04218Y03113D01*
Y031155D01*
X042155Y03118D01*
X042105D01*
X04208Y031155D01*
X04233Y03118D02*
X04223D01*
Y031105D01*
X04228Y03113D01*
X042305D01*
X04233Y031105D01*
Y031055D01*
X042305Y03103D01*
X042255D01*
X04223Y031055D01*
X04203Y031935D02*
X042005Y03196D01*
X041955D01*
X04193Y031935D01*
Y031835D01*
X041955Y03181D01*
X042005D01*
X04203Y031835D01*
X04218Y03181D02*
X04208D01*
X04218Y03191D01*
Y031935D01*
X042155Y03196D01*
X042105D01*
X04208Y031935D01*
X042305Y03181D02*
Y03196D01*
X04223Y031885D01*
X04233D01*
X04045Y031935D02*
X040425Y03196D01*
X040375D01*
X04035Y031935D01*
Y031835D01*
X040375Y03181D01*
X040425D01*
X04045Y031835D01*
X0406Y03181D02*
X0405D01*
X0406Y03191D01*
Y031935D01*
X040575Y03196D01*
X040525D01*
X0405Y031935D01*
X04065D02*
X040675Y03196D01*
X040725D01*
X04075Y031935D01*
Y03191D01*
X040725Y031885D01*
X0407D01*
X040725D01*
X04075Y03186D01*
Y031835D01*
X040725Y03181D01*
X040675D01*
X04065Y031835D01*
X04045Y031155D02*
X040425Y03118D01*
X040375D01*
X04035Y031155D01*
Y031055D01*
X040375Y03103D01*
X040425D01*
X04045Y031055D01*
X0406Y03103D02*
X0405D01*
X0406Y03113D01*
Y031155D01*
X040575Y03118D01*
X040525D01*
X0405Y031155D01*
X04075Y03103D02*
X04065D01*
X04075Y03113D01*
Y031155D01*
X040725Y03118D01*
X040675D01*
X04065Y031155D01*
X04078Y039345D02*
X040755Y03937D01*
X040705D01*
X04068Y039345D01*
Y039245D01*
X040705Y03922D01*
X040755D01*
X04078Y039245D01*
X04093Y03922D02*
X04083D01*
X04093Y03932D01*
Y039345D01*
X040905Y03937D01*
X040855D01*
X04083Y039345D01*
X04098Y03922D02*
X04103D01*
X041005D01*
Y03937D01*
X04098Y039345D01*
X04076Y038045D02*
X040735Y03807D01*
X040685D01*
X04066Y038045D01*
Y037945D01*
X040685Y03792D01*
X040735D01*
X04076Y037945D01*
X04091Y03792D02*
X04081D01*
X04091Y03802D01*
Y038045D01*
X040885Y03807D01*
X040835D01*
X04081Y038045D01*
X04096D02*
X040985Y03807D01*
X041035D01*
X04106Y038045D01*
Y037945D01*
X041035Y03792D01*
X040985D01*
X04096Y037945D01*
Y038045D01*
X03651Y04164D02*
Y041515D01*
X036535Y04149D01*
X036585D01*
X03661Y041515D01*
Y04164D01*
X03676D02*
X03671Y041615D01*
X03666Y041565D01*
Y041515D01*
X036685Y04149D01*
X036735D01*
X03676Y041515D01*
Y04154D01*
X036735Y041565D01*
X03666D01*
X04121Y0296D02*
Y029475D01*
X041235Y02945D01*
X041285D01*
X04131Y029475D01*
Y0296D01*
X04136D02*
X04146D01*
Y029575D01*
X04136Y029475D01*
Y02945D01*
X02913Y026445D02*
X029105Y02647D01*
X029055D01*
X02903Y026445D01*
Y026345D01*
X029055Y02632D01*
X029105D01*
X02913Y026345D01*
X02918Y02632D02*
X02923D01*
X029205D01*
Y02647D01*
X02918Y026445D01*
X029405Y02632D02*
X029305D01*
X029405Y02642D01*
Y026445D01*
X02938Y02647D01*
X02933D01*
X029305Y026445D01*
X02823D02*
X028205Y02647D01*
X028155D01*
X02813Y026445D01*
Y026345D01*
X028155Y02632D01*
X028205D01*
X02823Y026345D01*
X02828Y02632D02*
X02833D01*
X028305D01*
Y02647D01*
X02828Y026445D01*
X02848Y02632D02*
Y02647D01*
X028405Y026395D01*
X028505D01*
X02702Y03138D02*
Y03123D01*
X02712D01*
X02717D02*
X02722D01*
X027195D01*
Y03138D01*
X02717Y031355D01*
X03098Y0296D02*
Y029475D01*
X031005Y02945D01*
X031055D01*
X03108Y029475D01*
Y0296D01*
X03113Y029575D02*
X031155Y0296D01*
X031205D01*
X03123Y029575D01*
Y02955D01*
X031205Y029525D01*
X03118D01*
X031205D01*
X03123Y0295D01*
Y029475D01*
X031205Y02945D01*
X031155D01*
X03113Y029475D01*
X02627Y04164D02*
Y041515D01*
X026295Y04149D01*
X026345D01*
X02637Y041515D01*
Y04164D01*
X02652Y04149D02*
X02642D01*
X02652Y04159D01*
Y041615D01*
X026495Y04164D01*
X026445D01*
X02642Y041615D01*
X0306Y038045D02*
X030575Y03807D01*
X030525D01*
X0305Y038045D01*
Y037945D01*
X030525Y03792D01*
X030575D01*
X0306Y037945D01*
X03075Y03792D02*
X03065D01*
X03075Y03802D01*
Y038045D01*
X030725Y03807D01*
X030675D01*
X03065Y038045D01*
X0306Y039345D02*
X030575Y03937D01*
X030525D01*
X0305Y039345D01*
Y039245D01*
X030525Y03922D01*
X030575D01*
X0306Y039245D01*
X03065Y039345D02*
X030675Y03937D01*
X030725D01*
X03075Y039345D01*
Y03932D01*
X030725Y039295D01*
X0307D01*
X030725D01*
X03075Y03927D01*
Y039245D01*
X030725Y03922D01*
X030675D01*
X03065Y039245D01*
X03029Y031155D02*
X030265Y03118D01*
X030215D01*
X03019Y031155D01*
Y031055D01*
X030215Y03103D01*
X030265D01*
X03029Y031055D01*
X030415Y03103D02*
Y03118D01*
X03034Y031105D01*
X03044D01*
X03029Y031935D02*
X030265Y03196D01*
X030215D01*
X03019Y031935D01*
Y031835D01*
X030215Y03181D01*
X030265D01*
X03029Y031835D01*
X03044Y03196D02*
X03034D01*
Y031885D01*
X03039Y03191D01*
X030415D01*
X03044Y031885D01*
Y031835D01*
X030415Y03181D01*
X030365D01*
X03034Y031835D01*
X03186Y031935D02*
X031835Y03196D01*
X031785D01*
X03176Y031935D01*
Y031835D01*
X031785Y03181D01*
X031835D01*
X03186Y031835D01*
X03201Y03196D02*
X03196Y031935D01*
X03191Y031885D01*
Y031835D01*
X031935Y03181D01*
X031985D01*
X03201Y031835D01*
Y03186D01*
X031985Y031885D01*
X03191D01*
X03186Y031155D02*
X031835Y03118D01*
X031785D01*
X03176Y031155D01*
Y031055D01*
X031785Y03103D01*
X031835D01*
X03186Y031055D01*
X03191Y03118D02*
X03201D01*
Y031155D01*
X03191Y031055D01*
Y03103D01*
X0256Y029845D02*
X025575Y02987D01*
X025525D01*
X0255Y029845D01*
Y029745D01*
X025525Y02972D01*
X025575D01*
X0256Y029745D01*
X02565D02*
X025675Y02972D01*
X025725D01*
X02575Y029745D01*
Y029845D01*
X025725Y02987D01*
X025675D01*
X02565Y029845D01*
Y02982D01*
X025675Y029795D01*
X02575D01*
X02553Y026445D02*
X025505Y02647D01*
X025455D01*
X02543Y026445D01*
Y026345D01*
X025455Y02632D01*
X025505D01*
X02553Y026345D01*
X02558Y02632D02*
X02563D01*
X025605D01*
Y02647D01*
X02558Y026445D01*
X025705D02*
X02573Y02647D01*
X02578D01*
X025805Y026445D01*
Y026345D01*
X02578Y02632D01*
X02573D01*
X025705Y026345D01*
Y026445D01*
X02646D02*
X026435Y02647D01*
X026385D01*
X02636Y026445D01*
Y026345D01*
X026385Y02632D01*
X026435D01*
X02646Y026345D01*
X02651Y02632D02*
X02656D01*
X026535D01*
Y02647D01*
X02651Y026445D01*
X026635Y02632D02*
X026685D01*
X02666D01*
Y02647D01*
X026635Y026445D01*
X02733D02*
X027305Y02647D01*
X027255D01*
X02723Y026445D01*
Y026345D01*
X027255Y02632D01*
X027305D01*
X02733Y026345D01*
X02738Y02632D02*
X02743D01*
X027405D01*
Y02647D01*
X02738Y026445D01*
X027505D02*
X02753Y02647D01*
X02758D01*
X027605Y026445D01*
Y02642D01*
X02758Y026395D01*
X027555D01*
X02758D01*
X027605Y02637D01*
Y026345D01*
X02758Y02632D01*
X02753D01*
X027505Y026345D01*
X02843Y027645D02*
X028405Y02767D01*
X028355D01*
X02833Y027645D01*
Y027545D01*
X028355Y02752D01*
X028405D01*
X02843Y027545D01*
X02848Y02752D02*
X02853D01*
X028505D01*
Y02767D01*
X02848Y027645D01*
X028705Y02767D02*
X028605D01*
Y027595D01*
X028655Y02762D01*
X02868D01*
X028705Y027595D01*
Y027545D01*
X02868Y02752D01*
X02863D01*
X028605Y027545D01*
X02432Y031545D02*
X024295Y03157D01*
X024245D01*
X02422Y031545D01*
Y031445D01*
X024245Y03142D01*
X024295D01*
X02432Y031445D01*
X02437Y03142D02*
X02442D01*
X024395D01*
Y03157D01*
X02437Y031545D01*
X024595Y03157D02*
X024545Y031545D01*
X024495Y031495D01*
Y031445D01*
X02452Y03142D01*
X02457D01*
X024595Y031445D01*
Y03147D01*
X02457Y031495D01*
X024495D01*
X02432Y032335D02*
X024295Y03236D01*
X024245D01*
X02422Y032335D01*
Y032235D01*
X024245Y03221D01*
X024295D01*
X02432Y032235D01*
X02437Y03221D02*
X02442D01*
X024395D01*
Y03236D01*
X02437Y032335D01*
X024495Y03236D02*
X024595D01*
Y032335D01*
X024495Y032235D01*
Y03221D01*
X02432Y030755D02*
X024295Y03078D01*
X024245D01*
X02422Y030755D01*
Y030655D01*
X024245Y03063D01*
X024295D01*
X02432Y030655D01*
X02437Y03063D02*
X02442D01*
X024395D01*
Y03078D01*
X02437Y030755D01*
X024495D02*
X02452Y03078D01*
X02457D01*
X024595Y030755D01*
Y03073D01*
X02457Y030705D01*
X024595Y03068D01*
Y030655D01*
X02457Y03063D01*
X02452D01*
X024495Y030655D01*
Y03068D01*
X02452Y030705D01*
X024495Y03073D01*
Y030755D01*
X02452Y030705D02*
X02457D01*
X0261Y02766D02*
Y02751D01*
X026175D01*
X0262Y027535D01*
Y027635D01*
X026175Y02766D01*
X0261D01*
X02635Y02751D02*
X02625D01*
X02635Y02761D01*
Y027635D01*
X026325Y02766D01*
X026275D01*
X02625Y027635D01*
X0286Y03118D02*
Y03103D01*
X028675D01*
X0287Y031055D01*
Y031155D01*
X028675Y03118D01*
X0286D01*
X02875Y031155D02*
X028775Y03118D01*
X028825D01*
X02885Y031155D01*
Y03113D01*
X028825Y031105D01*
X0288D01*
X028825D01*
X02885Y03108D01*
Y031055D01*
X028825Y03103D01*
X028775D01*
X02875Y031055D01*
X02833Y02932D02*
Y02947D01*
X028405D01*
X02843Y029445D01*
Y029395D01*
X028405Y02937D01*
X02833D01*
X02838D02*
X02843Y02932D01*
X02848D02*
X02853D01*
X028505D01*
Y02947D01*
X02848Y029445D01*
X028605D02*
X02863Y02947D01*
X02868D01*
X028705Y029445D01*
Y029345D01*
X02868Y02932D01*
X02863D01*
X028605Y029345D01*
Y029445D01*
X02596Y02832D02*
Y02847D01*
X026035D01*
X02606Y028445D01*
Y028395D01*
X026035Y02837D01*
X02596D01*
X02601D02*
X02606Y02832D01*
X02611D02*
X02616D01*
X026135D01*
Y02847D01*
X02611Y028445D01*
X026235Y02832D02*
X026285D01*
X02626D01*
Y02847D01*
X026235Y028445D01*
X02723Y02832D02*
Y02847D01*
X027305D01*
X02733Y028445D01*
Y028395D01*
X027305Y02837D01*
X02723D01*
X02728D02*
X02733Y02832D01*
X02738D02*
X02743D01*
X027405D01*
Y02847D01*
X02738Y028445D01*
X027605Y02832D02*
X027505D01*
X027605Y02842D01*
Y028445D01*
X02758Y02847D01*
X02753D01*
X027505Y028445D01*
X03182Y03917D02*
Y039145D01*
X03187Y039095D01*
X03192Y039145D01*
Y03917D01*
X03187Y039095D02*
Y03902D01*
X03197D02*
X03202D01*
X031995D01*
Y03917D01*
X03197Y039145D01*
X03132Y02687D02*
X03127D01*
X031295D01*
Y026745D01*
X03127Y02672D01*
X031245D01*
X03122Y026745D01*
X03137Y02672D02*
X03142D01*
X031395D01*
Y02687D01*
X03137Y026845D01*
X02922Y03922D02*
Y03937D01*
X029295D01*
X02932Y039345D01*
Y039295D01*
X029295Y03927D01*
X02922D01*
X02927D02*
X02932Y03922D01*
X02937D02*
X02942D01*
X029395D01*
Y03937D01*
X02937Y039345D01*
X02962Y04116D02*
Y041035D01*
X029645Y04101D01*
X029695D01*
X02972Y041035D01*
Y04116D01*
X02977Y04101D02*
X02982D01*
X029795D01*
Y04116D01*
X02977Y041135D01*
X03162Y04377D02*
Y04362D01*
X031695D01*
X03172Y043645D01*
Y043745D01*
X031695Y04377D01*
X03162D01*
X03177Y04362D02*
X03182D01*
X031795D01*
Y04377D01*
X03177Y043745D01*
X0298Y04442D02*
Y04457D01*
X029875D01*
X0299Y044545D01*
Y044495D01*
X029875Y04447D01*
X0298D01*
X02985D02*
X0299Y04442D01*
X02995Y04457D02*
X03005D01*
Y044545D01*
X02995Y044445D01*
Y04442D01*
X0298Y04372D02*
Y04387D01*
X029875D01*
X0299Y043845D01*
Y043795D01*
X029875Y04377D01*
X0298D01*
X02985D02*
X0299Y04372D01*
X03005Y04387D02*
X03Y043845D01*
X02995Y043795D01*
Y043745D01*
X029975Y04372D01*
X030025D01*
X03005Y043745D01*
Y04377D01*
X030025Y043795D01*
X02995D01*
X0298Y04302D02*
Y04317D01*
X029875D01*
X0299Y043145D01*
Y043095D01*
X029875Y04307D01*
X0298D01*
X02985D02*
X0299Y04302D01*
X03005Y04317D02*
X02995D01*
Y043095D01*
X03Y04312D01*
X030025D01*
X03005Y043095D01*
Y043045D01*
X030025Y04302D01*
X029975D01*
X02995Y043045D01*
X02709Y02957D02*
Y029445D01*
X027115Y02942D01*
X027165D01*
X02719Y029445D01*
Y02957D01*
X027315Y02942D02*
Y02957D01*
X02724Y029495D01*
X02734D01*
X02816Y03467D02*
X02821D01*
X028185D01*
Y03452D01*
X02816D01*
X02821D01*
X028385Y034645D02*
X02836Y03467D01*
X02831D01*
X028285Y034645D01*
Y034545D01*
X02831Y03452D01*
X02836D01*
X028385Y034545D01*
X028435Y03452D02*
X028485D01*
X02846D01*
Y03467D01*
X028435Y034645D01*
X0318Y03322D02*
Y03337D01*
X031875D01*
X0319Y033345D01*
Y033295D01*
X031875Y03327D01*
X0318D01*
X03185D02*
X0319Y03322D01*
X03205D02*
X03195D01*
X03205Y03332D01*
Y033345D01*
X032025Y03337D01*
X031975D01*
X03195Y033345D01*
X0319Y034045D02*
X031875Y03407D01*
X031825D01*
X0318Y034045D01*
Y033945D01*
X031825Y03392D01*
X031875D01*
X0319Y033945D01*
X03195Y034045D02*
X031975Y03407D01*
X032025D01*
X03205Y034045D01*
Y03402D01*
X032025Y033995D01*
X03205Y03397D01*
Y033945D01*
X032025Y03392D01*
X031975D01*
X03195Y033945D01*
Y03397D01*
X031975Y033995D01*
X03195Y03402D01*
Y034045D01*
X031975Y033995D02*
X032025D01*
X0318Y03532D02*
Y03547D01*
X031875D01*
X0319Y035445D01*
Y035395D01*
X031875Y03537D01*
X0318D01*
X03185D02*
X0319Y03532D01*
X03195Y035445D02*
X031975Y03547D01*
X032025D01*
X03205Y035445D01*
Y03542D01*
X032025Y035395D01*
X03205Y03537D01*
Y035345D01*
X032025Y03532D01*
X031975D01*
X03195Y035345D01*
Y03537D01*
X031975Y035395D01*
X03195Y03542D01*
Y035445D01*
X031975Y035395D02*
X032025D01*
X0318Y03462D02*
Y03477D01*
X031875D01*
X0319Y034745D01*
Y034695D01*
X031875Y03467D01*
X0318D01*
X03185D02*
X0319Y03462D01*
X03195Y034645D02*
X031975Y03462D01*
X032025D01*
X03205Y034645D01*
Y034745D01*
X032025Y03477D01*
X031975D01*
X03195Y034745D01*
Y03472D01*
X031975Y034695D01*
X03205D01*
X02482Y037145D02*
X024795Y03717D01*
X024745D01*
X02472Y037145D01*
Y037045D01*
X024745Y03702D01*
X024795D01*
X02482Y037045D01*
X02487Y03702D02*
X02492D01*
X024895D01*
Y03717D01*
X02487Y037145D01*
X0251Y03492D02*
Y03507D01*
X025175D01*
X0252Y035045D01*
Y034995D01*
X025175Y03497D01*
X0251D01*
X02515D02*
X0252Y03492D01*
X02525Y035045D02*
X025275Y03507D01*
X025325D01*
X02535Y035045D01*
Y03502D01*
X025325Y034995D01*
X0253D01*
X025325D01*
X02535Y03497D01*
Y034945D01*
X025325Y03492D01*
X025275D01*
X02525Y034945D01*
X0251Y03352D02*
Y03367D01*
X025175D01*
X0252Y033645D01*
Y033595D01*
X025175Y03357D01*
X0251D01*
X02515D02*
X0252Y03352D01*
X025325D02*
Y03367D01*
X02525Y033595D01*
X02535D01*
M02*
