M48
;Layer_Color=9474304
;FILE_FORMAT=2:5
INCH,TZ
;TYPE=PLATED
T1F00S00C0.02800
T2F00S00C0.03937
T3F00S00C0.04400
T4F00S00C0.05512
T5F00S00C0.13780
%
T01
X-54000Y541020
X-34000Y536020
X-17000Y544020
X-11000Y519000
X-12000Y509500
X-41000Y575500
X-41425Y597925
X-48000Y602000
X-47500Y593000
X-69000Y608500
X-69500Y618000
X-71000Y589500
X-83000Y594500
X-99000Y596500
X-104500Y591500
X-120500Y592000
X-122000Y569000
X-115000Y569500
X-116000Y538020
X-100457Y541476
X-88445Y550555
X-75000Y537020
X-99000Y502500
X-143500Y550500
X-158100Y555200
X-158000Y562900
X-180000Y563100
Y554400
X-160520Y538020
X-156500Y618000
X-163900Y623600
X-130500Y614000
X-206000Y609500
X-257000Y621500
X-285000Y618000
X-293291Y597791
X-304709Y597000
X-289000Y571000
X-304709Y555209
X-251000Y551500
X-245500Y559500
X-236000Y532000
X-272000Y525500
X-271500Y506000
X-272500Y634000
X-293291Y628291
X-243421Y679906
X-240921Y718405
X-217421Y689405
X-168000Y670000
X-166000Y658000
X-151500Y665000
X-142217Y665717
X-139000Y678500
X-131000Y680000
X-121000Y677500
X-122500Y652500
X-123500Y640500
X-113500Y648000
X-109000Y652500
X-101500Y658000
X-86000Y677500
X-77500Y676500
X-102500Y695500
X-107500Y702500
X-106500Y722500
X-94500Y726000
X-69500Y725563
X-117000Y716715
X-154400Y699600
X-154700Y639100
X-157000Y632500
X-96600Y625000
X-135000Y764000
X-54000Y725000
X-40000Y711500
X-44500Y703500
X-43000Y674500
X-28500Y721000
X-21000Y715000
X-14000Y721500
X-6000Y713500
T02
X-69055Y474319
X-59055
Y484319
Y494319
X-69055
Y484319
X-39685
Y494319
X-29685
X-19685
Y484319
Y474319
X-29685
X-39685
X-29685Y484319
X-21500Y556000
X-11500
Y566000
Y576000
Y586000
Y596000
Y606000
X-21500
Y596000
Y586000
Y576000
Y566000
X-33500Y583500
Y593500
Y603500
Y613500
Y623500
X-160500Y606500
Y596500
Y586500
Y576500
X-157480Y494319
X-167480
X-177480
Y484319
Y474319
X-167480
X-157480
Y484319
X-167480
X-196850
Y494319
X-206850
X-216850
Y484319
Y474319
X-206850
X-196850
X-206850Y484319
X-118425
Y494319
X-108425
X-98425
Y484319
Y474319
X-108425
X-118425
X-108425Y484319
X-79055
Y494319
Y474319
X-226921Y650863
Y670548
X-268421
Y650863
X-195964Y660906
X-176279
X-177279Y704405
X-196964
X-118110Y772106
X-108110
X-98110
X-78740
X-68740
X-58740
X-39370
X-29370
X-19370
X-1500Y759500
Y749500
Y739500
X-2500Y699500
Y689500
Y679500
X-2910Y659406
Y649406
Y639406
Y629406
X-19370Y782106
Y792106
X-29370
X-39370
Y782106
X-29370
X-58740
Y792106
X-68740
Y782106
X-78740
Y792106
X-98110
X-108110
X-118110
Y782106
X-108110
X-98110
T03
X-298421Y655800
Y666000
Y676200
Y700206
Y710405
Y720606
X-298421Y743205
Y763605
T04
X-307500Y516157
Y535843
T05
X0Y475020
X-314961
X0Y789980
X-314961
M30
