%FSLAX25Y25*%
%MOIN*%
G70*
G01*
G75*
G04 Layer_Color=16711935*
%ADD10R,0.11811X0.03543*%
%ADD11R,0.03543X0.11811*%
%ADD12R,0.05118X0.03937*%
%ADD13R,0.09449X0.02362*%
%ADD14O,0.09449X0.02362*%
%ADD15R,0.04803X0.05551*%
%ADD16R,0.11811X0.15748*%
%ADD17R,0.03937X0.05118*%
%ADD18O,0.02362X0.08661*%
%ADD19R,0.05551X0.04803*%
%ADD20R,0.05118X0.04724*%
%ADD21R,0.08268X0.05512*%
%ADD22R,0.08268X0.08268*%
%ADD23R,0.04331X0.08268*%
%ADD24R,0.08071X0.04528*%
%ADD25R,0.04724X0.02559*%
%ADD26C,0.01000*%
%ADD27C,0.02500*%
%ADD28C,0.02000*%
%ADD29C,0.03000*%
%ADD30C,0.05906*%
%ADD31R,0.05906X0.05906*%
%ADD32R,0.05906X0.05906*%
%ADD33C,0.07874*%
%ADD34C,0.06299*%
%ADD35C,0.05906*%
%ADD36C,0.05000*%
%ADD37C,0.27559*%
%ADD38R,0.12611X0.04343*%
%ADD39R,0.04343X0.12611*%
%ADD40R,0.05918X0.04737*%
%ADD41R,0.10249X0.03162*%
%ADD42O,0.10249X0.03162*%
%ADD43R,0.05603X0.06351*%
%ADD44R,0.12611X0.16548*%
%ADD45R,0.04737X0.05918*%
%ADD46O,0.03162X0.09461*%
%ADD47R,0.06351X0.05603*%
%ADD48R,0.05918X0.05524*%
%ADD49R,0.09068X0.06312*%
%ADD50R,0.09068X0.09068*%
%ADD51R,0.05131X0.09068*%
%ADD52R,0.08871X0.05328*%
%ADD53R,0.05524X0.03359*%
%ADD54C,0.06706*%
%ADD55R,0.06706X0.06706*%
%ADD56R,0.06706X0.06706*%
%ADD57C,0.08674*%
%ADD58C,0.07099*%
%ADD59C,0.06706*%
%ADD60C,0.05800*%
%ADD61C,0.28359*%
D54*
X109100Y233930D02*
D03*
X119100D02*
D03*
X129100D02*
D03*
X139100D02*
D03*
X149100D02*
D03*
X159100D02*
D03*
X169100D02*
D03*
X179100D02*
D03*
X189100D02*
D03*
X199100D02*
D03*
X209100D02*
D03*
X219100D02*
D03*
X229100D02*
D03*
X239100D02*
D03*
X249100D02*
D03*
X259100D02*
D03*
X269100D02*
D03*
X279100D02*
D03*
X289100D02*
D03*
X299100D02*
D03*
X309100D02*
D03*
X319100D02*
D03*
X329100D02*
D03*
X339100D02*
D03*
X349100D02*
D03*
X109100Y243930D02*
D03*
X119100D02*
D03*
X129100D02*
D03*
X139100D02*
D03*
X149100D02*
D03*
X159100D02*
D03*
X169100D02*
D03*
X179100D02*
D03*
X189100D02*
D03*
X199100D02*
D03*
X209100D02*
D03*
X219100D02*
D03*
X229100D02*
D03*
X239100D02*
D03*
X249100D02*
D03*
X259100D02*
D03*
X269100D02*
D03*
X279100D02*
D03*
X289100D02*
D03*
X299100D02*
D03*
X309100D02*
D03*
X319100D02*
D03*
X329100D02*
D03*
X339100D02*
D03*
X109100Y433930D02*
D03*
X119100D02*
D03*
X129100D02*
D03*
X139100D02*
D03*
X149100D02*
D03*
X159100D02*
D03*
X169100D02*
D03*
X179100D02*
D03*
X189100D02*
D03*
X199100D02*
D03*
X209100D02*
D03*
X219100D02*
D03*
X229100D02*
D03*
X239100D02*
D03*
X249100D02*
D03*
X259100D02*
D03*
X269100D02*
D03*
X279100D02*
D03*
X289100D02*
D03*
X299100D02*
D03*
X309100D02*
D03*
X319100D02*
D03*
X329100D02*
D03*
X339100D02*
D03*
X349100D02*
D03*
X109100Y443930D02*
D03*
X119100D02*
D03*
X129100D02*
D03*
X139100D02*
D03*
X149100D02*
D03*
X159100D02*
D03*
X169100D02*
D03*
X179100D02*
D03*
X189100D02*
D03*
X199100D02*
D03*
X209100D02*
D03*
X219100D02*
D03*
X229100D02*
D03*
X239100D02*
D03*
X249100D02*
D03*
X259100D02*
D03*
X269100D02*
D03*
X279100D02*
D03*
X289100D02*
D03*
X299100D02*
D03*
X309100D02*
D03*
X319100D02*
D03*
X329100D02*
D03*
X339100D02*
D03*
X174247Y482000D02*
D03*
Y492000D02*
D03*
X184247Y482000D02*
D03*
Y492000D02*
D03*
X194247Y482000D02*
D03*
Y492000D02*
D03*
X204247Y482000D02*
D03*
Y492000D02*
D03*
X214247Y482000D02*
D03*
Y492000D02*
D03*
X224247Y482000D02*
D03*
Y492000D02*
D03*
X234247Y482000D02*
D03*
Y492000D02*
D03*
X244247Y482000D02*
D03*
X480247Y150000D02*
D03*
X90247Y344000D02*
D03*
Y354000D02*
D03*
Y364000D02*
D03*
X375547Y490400D02*
D03*
X280247Y156000D02*
D03*
Y146000D02*
D03*
Y136000D02*
D03*
X266247Y156000D02*
D03*
Y146000D02*
D03*
Y136000D02*
D03*
X252247Y156000D02*
D03*
Y146000D02*
D03*
Y136000D02*
D03*
X238247Y156000D02*
D03*
Y146000D02*
D03*
Y136000D02*
D03*
X204147Y131949D02*
D03*
Y141949D02*
D03*
X190147Y131949D02*
D03*
Y141949D02*
D03*
X120247Y154000D02*
D03*
Y144000D02*
D03*
Y134000D02*
D03*
X152147Y133949D02*
D03*
Y123949D02*
D03*
X79342Y230000D02*
D03*
Y240000D02*
D03*
Y250000D02*
D03*
Y260000D02*
D03*
Y270000D02*
D03*
Y280000D02*
D03*
Y290000D02*
D03*
Y300000D02*
D03*
Y310000D02*
D03*
Y320000D02*
D03*
Y330000D02*
D03*
Y340000D02*
D03*
X20247Y230000D02*
D03*
Y240000D02*
D03*
Y250000D02*
D03*
Y260000D02*
D03*
Y270000D02*
D03*
Y280000D02*
D03*
Y290000D02*
D03*
Y300000D02*
D03*
Y310000D02*
D03*
Y320000D02*
D03*
Y330000D02*
D03*
X70444Y460000D02*
D03*
Y450000D02*
D03*
Y420000D02*
D03*
Y430000D02*
D03*
X15444D02*
D03*
Y440000D02*
D03*
Y460000D02*
D03*
D55*
X349100Y243930D02*
D03*
Y443930D02*
D03*
X244247Y492000D02*
D03*
X385547Y490400D02*
D03*
X20247Y340000D02*
D03*
X15444Y470000D02*
D03*
D56*
X480247Y160000D02*
D03*
X90247Y334000D02*
D03*
X280247Y126000D02*
D03*
X266247D02*
D03*
X252247D02*
D03*
X238247D02*
D03*
X204147Y121949D02*
D03*
X190147D02*
D03*
X120247Y124000D02*
D03*
X152147Y143949D02*
D03*
D57*
X48405Y158630D02*
D03*
X38562Y198000D02*
D03*
X58247D02*
D03*
X90405Y158630D02*
D03*
X80562Y198000D02*
D03*
X100247D02*
D03*
D58*
X367247Y381989D02*
D03*
Y293800D02*
D03*
D59*
X70444Y470000D02*
D03*
Y440000D02*
D03*
X15444Y420000D02*
D03*
Y450000D02*
D03*
D60*
X251647Y102800D02*
D03*
X419047Y125400D02*
D03*
X209647Y338200D02*
D03*
X210747Y351300D02*
D03*
X369747Y130400D02*
D03*
D61*
X19685Y496612D02*
D03*
X472441D02*
D03*
Y110785D02*
D03*
X19685D02*
D03*
M02*
