%FSLAX25Y25*%
%MOIN*%
G70*
G01*
G75*
G04 Layer_Color=8388736*
%ADD10R,0.11811X0.03543*%
%ADD11R,0.03543X0.11811*%
%ADD12R,0.05118X0.03937*%
%ADD13R,0.09449X0.02362*%
%ADD14O,0.09449X0.02362*%
%ADD15R,0.04803X0.05551*%
%ADD16R,0.11811X0.15748*%
%ADD17R,0.03937X0.05118*%
%ADD18O,0.02362X0.08661*%
%ADD19R,0.05551X0.04803*%
%ADD20R,0.05118X0.04724*%
%ADD21R,0.08268X0.05512*%
%ADD22R,0.08268X0.08268*%
%ADD23R,0.04331X0.08268*%
%ADD24R,0.08071X0.04528*%
%ADD25R,0.04724X0.02559*%
%ADD26C,0.01000*%
%ADD27C,0.02500*%
%ADD28C,0.02000*%
%ADD29C,0.03000*%
%ADD30C,0.05906*%
%ADD31R,0.05906X0.05906*%
%ADD32R,0.05906X0.05906*%
%ADD33C,0.07874*%
%ADD34C,0.06299*%
%ADD35C,0.05906*%
%ADD36C,0.05000*%
%ADD37C,0.27559*%
%ADD38R,0.12611X0.04343*%
%ADD39R,0.04343X0.12611*%
%ADD40R,0.05918X0.04737*%
%ADD41R,0.10249X0.03162*%
%ADD42O,0.10249X0.03162*%
%ADD43R,0.05603X0.06351*%
%ADD44R,0.12611X0.16548*%
%ADD45R,0.04737X0.05918*%
%ADD46O,0.03162X0.09461*%
%ADD47R,0.06351X0.05603*%
%ADD48R,0.05918X0.05524*%
%ADD49R,0.09068X0.06312*%
%ADD50R,0.09068X0.09068*%
%ADD51R,0.05131X0.09068*%
%ADD52R,0.08871X0.05328*%
%ADD53R,0.05524X0.03359*%
%ADD54C,0.06706*%
%ADD55R,0.06706X0.06706*%
%ADD56R,0.06706X0.06706*%
%ADD57C,0.08674*%
%ADD58C,0.07099*%
%ADD59C,0.06706*%
%ADD60C,0.05800*%
%ADD61C,0.28359*%
D26*
X0Y91100D02*
X491800D01*
X0D02*
Y514400D01*
X491800D01*
Y91100D02*
Y514400D01*
D38*
X373401Y139800D02*
D03*
X352928D02*
D03*
X447801Y112300D02*
D03*
X427328D02*
D03*
D39*
X457500Y133099D02*
D03*
Y153572D02*
D03*
X379400Y201001D02*
D03*
Y180528D02*
D03*
D40*
X451947Y177763D02*
D03*
Y185637D02*
D03*
X411947Y175637D02*
D03*
Y167763D02*
D03*
X196147Y186012D02*
D03*
Y193886D02*
D03*
X321047Y173537D02*
D03*
Y165663D02*
D03*
X410247Y110063D02*
D03*
Y117937D02*
D03*
X48947Y138363D02*
D03*
Y146237D02*
D03*
X94247Y134063D02*
D03*
Y141937D02*
D03*
X361047Y179663D02*
D03*
Y187537D02*
D03*
X97347Y413137D02*
D03*
Y405263D02*
D03*
X206147Y193886D02*
D03*
Y186012D02*
D03*
X100247Y397937D02*
D03*
Y390063D02*
D03*
X102247Y381937D02*
D03*
Y374063D02*
D03*
X389547Y480337D02*
D03*
Y472463D02*
D03*
X176147Y193886D02*
D03*
Y186012D02*
D03*
X336247Y112063D02*
D03*
Y119937D02*
D03*
X164247Y186063D02*
D03*
Y193937D02*
D03*
X94247Y429937D02*
D03*
Y422063D02*
D03*
D41*
X421105Y186200D02*
D03*
X61105Y147800D02*
D03*
X331205Y187100D02*
D03*
D42*
X421105Y181200D02*
D03*
Y176200D02*
D03*
Y171200D02*
D03*
X440790Y186200D02*
D03*
Y181200D02*
D03*
Y176200D02*
D03*
Y171200D02*
D03*
X61105Y142800D02*
D03*
Y137800D02*
D03*
Y132800D02*
D03*
X80790Y147800D02*
D03*
Y142800D02*
D03*
Y137800D02*
D03*
Y132800D02*
D03*
X331205Y182100D02*
D03*
Y177100D02*
D03*
Y172100D02*
D03*
X350890Y187100D02*
D03*
Y182100D02*
D03*
Y177100D02*
D03*
Y172100D02*
D03*
D43*
X399947Y169700D02*
D03*
Y182574D02*
D03*
X313047Y165600D02*
D03*
Y178474D02*
D03*
D44*
X417506Y147700D02*
D03*
X389947D02*
D03*
X336606Y145600D02*
D03*
X309047D02*
D03*
D45*
X92184Y460000D02*
D03*
X84310D02*
D03*
X329110Y165600D02*
D03*
X336984D02*
D03*
X204210Y111949D02*
D03*
X212084D02*
D03*
X381484Y480400D02*
D03*
X373610D02*
D03*
X110184Y134000D02*
D03*
X102310D02*
D03*
Y144000D02*
D03*
X110184D02*
D03*
X435884Y163700D02*
D03*
X428010D02*
D03*
X435884Y153700D02*
D03*
X428010D02*
D03*
X350984Y165600D02*
D03*
X343110D02*
D03*
X350984Y157600D02*
D03*
X343110D02*
D03*
X346310Y122000D02*
D03*
X354184D02*
D03*
X182210Y111949D02*
D03*
X190084D02*
D03*
X176084Y141949D02*
D03*
X168210D02*
D03*
X156210Y153949D02*
D03*
X164084D02*
D03*
X138184Y134000D02*
D03*
X130310D02*
D03*
Y144000D02*
D03*
X138184D02*
D03*
D46*
X206247Y173698D02*
D03*
X201247D02*
D03*
X196247D02*
D03*
X191247D02*
D03*
X186247D02*
D03*
X181247D02*
D03*
X176247D02*
D03*
X201247Y154800D02*
D03*
X196247D02*
D03*
X191247D02*
D03*
X186247D02*
D03*
X181247D02*
D03*
X176247D02*
D03*
X171247D02*
D03*
X206247D02*
D03*
X171247Y173698D02*
D03*
D47*
X162147Y131949D02*
D03*
X175021D02*
D03*
D48*
X328247Y111606D02*
D03*
Y120268D02*
D03*
X156247Y185606D02*
D03*
Y194268D02*
D03*
X94247Y437606D02*
D03*
Y446268D02*
D03*
D49*
X364247Y122000D02*
D03*
X400074D02*
D03*
X364247Y104283D02*
D03*
X400074D02*
D03*
D50*
X458586Y283564D02*
D03*
X385161D02*
D03*
Y397737D02*
D03*
X458586D02*
D03*
D51*
X403468Y285139D02*
D03*
X448940D02*
D03*
X438704D02*
D03*
D52*
X358586Y364568D02*
D03*
Y354725D02*
D03*
Y344883D02*
D03*
Y335040D02*
D03*
Y325198D02*
D03*
Y315355D02*
D03*
Y305808D02*
D03*
Y299115D02*
D03*
Y374410D02*
D03*
D53*
X80123Y409200D02*
D03*
X90572Y405460D02*
D03*
Y412940D02*
D03*
X81523Y392900D02*
D03*
X91972Y389160D02*
D03*
Y396640D02*
D03*
X84423Y377300D02*
D03*
X94872Y373560D02*
D03*
Y381040D02*
D03*
D54*
X109100Y233930D02*
D03*
X119100D02*
D03*
X129100D02*
D03*
X139100D02*
D03*
X149100D02*
D03*
X159100D02*
D03*
X169100D02*
D03*
X179100D02*
D03*
X189100D02*
D03*
X199100D02*
D03*
X209100D02*
D03*
X219100D02*
D03*
X229100D02*
D03*
X239100D02*
D03*
X249100D02*
D03*
X259100D02*
D03*
X269100D02*
D03*
X279100D02*
D03*
X289100D02*
D03*
X299100D02*
D03*
X309100D02*
D03*
X319100D02*
D03*
X329100D02*
D03*
X339100D02*
D03*
X349100D02*
D03*
X109100Y243930D02*
D03*
X119100D02*
D03*
X129100D02*
D03*
X139100D02*
D03*
X149100D02*
D03*
X159100D02*
D03*
X169100D02*
D03*
X179100D02*
D03*
X189100D02*
D03*
X199100D02*
D03*
X209100D02*
D03*
X219100D02*
D03*
X229100D02*
D03*
X239100D02*
D03*
X249100D02*
D03*
X259100D02*
D03*
X269100D02*
D03*
X279100D02*
D03*
X289100D02*
D03*
X299100D02*
D03*
X309100D02*
D03*
X319100D02*
D03*
X329100D02*
D03*
X339100D02*
D03*
X109100Y433930D02*
D03*
X119100D02*
D03*
X129100D02*
D03*
X139100D02*
D03*
X149100D02*
D03*
X159100D02*
D03*
X169100D02*
D03*
X179100D02*
D03*
X189100D02*
D03*
X199100D02*
D03*
X209100D02*
D03*
X219100D02*
D03*
X229100D02*
D03*
X239100D02*
D03*
X249100D02*
D03*
X259100D02*
D03*
X269100D02*
D03*
X279100D02*
D03*
X289100D02*
D03*
X299100D02*
D03*
X309100D02*
D03*
X319100D02*
D03*
X329100D02*
D03*
X339100D02*
D03*
X349100D02*
D03*
X109100Y443930D02*
D03*
X119100D02*
D03*
X129100D02*
D03*
X139100D02*
D03*
X149100D02*
D03*
X159100D02*
D03*
X169100D02*
D03*
X179100D02*
D03*
X189100D02*
D03*
X199100D02*
D03*
X209100D02*
D03*
X219100D02*
D03*
X229100D02*
D03*
X239100D02*
D03*
X249100D02*
D03*
X259100D02*
D03*
X269100D02*
D03*
X279100D02*
D03*
X289100D02*
D03*
X299100D02*
D03*
X309100D02*
D03*
X319100D02*
D03*
X329100D02*
D03*
X339100D02*
D03*
X174247Y482000D02*
D03*
Y492000D02*
D03*
X184247Y482000D02*
D03*
Y492000D02*
D03*
X194247Y482000D02*
D03*
Y492000D02*
D03*
X204247Y482000D02*
D03*
Y492000D02*
D03*
X214247Y482000D02*
D03*
Y492000D02*
D03*
X224247Y482000D02*
D03*
Y492000D02*
D03*
X234247Y482000D02*
D03*
Y492000D02*
D03*
X244247Y482000D02*
D03*
X480247Y150000D02*
D03*
X90247Y344000D02*
D03*
Y354000D02*
D03*
Y364000D02*
D03*
X375547Y490400D02*
D03*
X280247Y156000D02*
D03*
Y146000D02*
D03*
Y136000D02*
D03*
X266247Y156000D02*
D03*
Y146000D02*
D03*
Y136000D02*
D03*
X252247Y156000D02*
D03*
Y146000D02*
D03*
Y136000D02*
D03*
X238247Y156000D02*
D03*
Y146000D02*
D03*
Y136000D02*
D03*
X204147Y131949D02*
D03*
Y141949D02*
D03*
X190147Y131949D02*
D03*
Y141949D02*
D03*
X120247Y154000D02*
D03*
Y144000D02*
D03*
Y134000D02*
D03*
X152147Y133949D02*
D03*
Y123949D02*
D03*
X79342Y230000D02*
D03*
Y240000D02*
D03*
Y250000D02*
D03*
Y260000D02*
D03*
Y270000D02*
D03*
Y280000D02*
D03*
Y290000D02*
D03*
Y300000D02*
D03*
Y310000D02*
D03*
Y320000D02*
D03*
Y330000D02*
D03*
Y340000D02*
D03*
X20247Y230000D02*
D03*
Y240000D02*
D03*
Y250000D02*
D03*
Y260000D02*
D03*
Y270000D02*
D03*
Y280000D02*
D03*
Y290000D02*
D03*
Y300000D02*
D03*
Y310000D02*
D03*
Y320000D02*
D03*
Y330000D02*
D03*
X70444Y460000D02*
D03*
Y450000D02*
D03*
Y420000D02*
D03*
Y430000D02*
D03*
X15444D02*
D03*
Y440000D02*
D03*
Y460000D02*
D03*
D55*
X349100Y243930D02*
D03*
Y443930D02*
D03*
X244247Y492000D02*
D03*
X385547Y490400D02*
D03*
X20247Y340000D02*
D03*
X15444Y470000D02*
D03*
D56*
X480247Y160000D02*
D03*
X90247Y334000D02*
D03*
X280247Y126000D02*
D03*
X266247D02*
D03*
X252247D02*
D03*
X238247D02*
D03*
X204147Y121949D02*
D03*
X190147D02*
D03*
X120247Y124000D02*
D03*
X152147Y143949D02*
D03*
D57*
X48405Y158630D02*
D03*
X38562Y198000D02*
D03*
X58247D02*
D03*
X90405Y158630D02*
D03*
X80562Y198000D02*
D03*
X100247D02*
D03*
D58*
X367247Y381989D02*
D03*
Y293800D02*
D03*
D59*
X70444Y470000D02*
D03*
Y440000D02*
D03*
X15444Y420000D02*
D03*
Y450000D02*
D03*
D60*
X251647Y102800D02*
D03*
X419047Y125400D02*
D03*
X209647Y338200D02*
D03*
X210747Y351300D02*
D03*
X369747Y130400D02*
D03*
D61*
X19685Y496612D02*
D03*
X472441D02*
D03*
Y110785D02*
D03*
X19685D02*
D03*
M02*
