%FSLAX25Y25*%
%MOIN*%
G70*
G01*
G75*
G04 Layer_Physical_Order=1*
G04 Layer_Color=255*
%ADD10R,0.11811X0.03543*%
%ADD11R,0.03543X0.11811*%
%ADD12R,0.05118X0.03937*%
%ADD13R,0.09449X0.02362*%
%ADD14O,0.09449X0.02362*%
%ADD15R,0.04803X0.05551*%
%ADD16R,0.11811X0.15748*%
%ADD17R,0.03937X0.05118*%
%ADD18O,0.02362X0.08661*%
%ADD19R,0.05551X0.04803*%
%ADD20R,0.05118X0.04724*%
%ADD21R,0.08268X0.05512*%
%ADD22R,0.08268X0.08268*%
%ADD23R,0.04331X0.08268*%
%ADD24R,0.08071X0.04528*%
%ADD25R,0.04724X0.02559*%
%ADD26C,0.01000*%
%ADD27C,0.02500*%
%ADD28C,0.02000*%
%ADD29C,0.03000*%
%ADD30C,0.05906*%
%ADD31R,0.05906X0.05906*%
%ADD32R,0.05906X0.05906*%
%ADD33C,0.07874*%
%ADD34C,0.06299*%
%ADD35C,0.05906*%
%ADD36C,0.05000*%
%ADD37C,0.27559*%
G36*
X490271Y92629D02*
X208167D01*
Y98607D01*
X208167Y98607D01*
D01*
D01*
X208167Y98824D01*
D01*
X208304Y98961D01*
X217147D01*
X217928Y99116D01*
X218589Y99558D01*
X218589Y99558D01*
X218589Y99558D01*
X224742Y105711D01*
X225184Y106372D01*
X225339Y107153D01*
X225339Y107153D01*
Y209665D01*
X235532Y219858D01*
X235532Y219858D01*
X235797Y220255D01*
X235974Y220520D01*
X236129Y221300D01*
X236129Y221300D01*
X236129Y221300D01*
Y221300D01*
Y230662D01*
X236578Y230883D01*
X237107Y230477D01*
X238068Y230079D01*
X239100Y229943D01*
X240132Y230079D01*
X241093Y230477D01*
X241642Y230898D01*
X242091Y230677D01*
Y222027D01*
X227058Y206995D01*
X226616Y206333D01*
X226461Y205553D01*
Y142953D01*
X226461Y142953D01*
X226461D01*
X226616Y142172D01*
X227058Y141511D01*
X234011Y134558D01*
X234672Y134116D01*
X234756Y134099D01*
X234794Y134007D01*
X235428Y133181D01*
X236254Y132547D01*
X237215Y132149D01*
X238247Y132013D01*
X239279Y132149D01*
X240241Y132547D01*
X241066Y133181D01*
X241700Y134007D01*
X242098Y134968D01*
X242234Y136000D01*
X242098Y137032D01*
X241700Y137993D01*
X241066Y138819D01*
X240241Y139453D01*
X239279Y139851D01*
X238247Y139987D01*
X237215Y139851D01*
X236254Y139453D01*
X235479Y138858D01*
X230539Y143797D01*
Y204708D01*
X245572Y219741D01*
X246014Y220402D01*
X246169Y221183D01*
Y230631D01*
X246618Y230853D01*
X247107Y230477D01*
X248068Y230079D01*
X249100Y229943D01*
X250132Y230079D01*
X251093Y230477D01*
X251592Y230860D01*
X252041Y230639D01*
Y222577D01*
X244458Y214995D01*
X244016Y214333D01*
X243861Y213553D01*
Y142347D01*
X244016Y141567D01*
X244458Y140905D01*
X248389Y136975D01*
X248260Y136000D01*
X248396Y134968D01*
X248795Y134007D01*
X249428Y133181D01*
X250254Y132547D01*
X251215Y132149D01*
X252247Y132013D01*
X253279Y132149D01*
X254241Y132547D01*
X255066Y133181D01*
X255700Y134007D01*
X256098Y134968D01*
X256234Y136000D01*
X256098Y137032D01*
X255700Y137993D01*
X255066Y138819D01*
X254241Y139453D01*
X253279Y139851D01*
X252247Y139987D01*
X251273Y139858D01*
X247939Y143192D01*
Y144790D01*
X248430Y144888D01*
X248795Y144007D01*
X249428Y143181D01*
X250254Y142547D01*
X251215Y142149D01*
X252247Y142013D01*
X253279Y142149D01*
X254241Y142547D01*
X255066Y143181D01*
X255700Y144007D01*
X256098Y144968D01*
X256234Y146000D01*
X256098Y147032D01*
X255700Y147993D01*
X255066Y148819D01*
X254241Y149453D01*
X253279Y149851D01*
X252247Y149987D01*
X251215Y149851D01*
X250254Y149453D01*
X249428Y148819D01*
X248795Y147993D01*
X248430Y147112D01*
X247939Y147210D01*
Y154790D01*
X248430Y154888D01*
X248795Y154007D01*
X249428Y153181D01*
X250254Y152547D01*
X251215Y152149D01*
X251747Y152079D01*
Y155999D01*
Y159921D01*
X251215Y159851D01*
X250254Y159453D01*
X249428Y158819D01*
X248795Y157993D01*
X248430Y157112D01*
X247939Y157210D01*
Y212708D01*
X255522Y220291D01*
X255964Y220952D01*
X256119Y221733D01*
X256119Y221733D01*
X256119Y221733D01*
Y221733D01*
Y230670D01*
X256568Y230891D01*
X257107Y230477D01*
X258068Y230079D01*
X259100Y229943D01*
X260132Y230079D01*
X261093Y230477D01*
X261919Y231111D01*
X262553Y231937D01*
X262951Y232898D01*
X263087Y233930D01*
X262951Y234962D01*
X262553Y235923D01*
X261919Y236749D01*
X261093Y237383D01*
X260132Y237781D01*
X259100Y237917D01*
X258068Y237781D01*
X257107Y237383D01*
X256568Y236969D01*
X256119Y237190D01*
Y240670D01*
X256568Y240891D01*
X257107Y240477D01*
X258068Y240079D01*
X259100Y239943D01*
X260132Y240079D01*
X261093Y240477D01*
X261919Y241111D01*
X262553Y241937D01*
X262951Y242898D01*
X263087Y243930D01*
X262951Y244962D01*
X262553Y245923D01*
X261919Y246749D01*
X261093Y247383D01*
X260132Y247781D01*
X259100Y247917D01*
X258068Y247781D01*
X257107Y247383D01*
X256568Y246969D01*
X256119Y247190D01*
Y336367D01*
X255964Y337148D01*
X255522Y337809D01*
X240589Y352742D01*
X239928Y353184D01*
X239147Y353339D01*
X213594D01*
X213244Y353796D01*
X212512Y354357D01*
X211661Y354710D01*
X210747Y354830D01*
X209834Y354710D01*
X208982Y354357D01*
X208251Y353796D01*
X207690Y353065D01*
X207337Y352214D01*
X207217Y351300D01*
X207337Y350386D01*
X207690Y349535D01*
X208251Y348804D01*
X208982Y348243D01*
X209834Y347890D01*
X210747Y347770D01*
X211661Y347890D01*
X212512Y348243D01*
X213244Y348804D01*
X213594Y349261D01*
X238303D01*
X252041Y335523D01*
Y247221D01*
X251592Y247000D01*
X251093Y247383D01*
X250132Y247781D01*
X249100Y247917D01*
X248068Y247781D01*
X247107Y247383D01*
X246618Y247007D01*
X246169Y247229D01*
Y330917D01*
X246014Y331698D01*
X245572Y332359D01*
X238289Y339642D01*
X237628Y340084D01*
X236847Y340239D01*
X212494D01*
X212143Y340696D01*
X211412Y341257D01*
X210561Y341610D01*
X209647Y341730D01*
X208734Y341610D01*
X207882Y341257D01*
X207151Y340696D01*
X206590Y339965D01*
X206237Y339114D01*
X206117Y338200D01*
X206237Y337286D01*
X206590Y336435D01*
X207151Y335704D01*
X207882Y335143D01*
X208734Y334790D01*
X209647Y334670D01*
X210561Y334790D01*
X211412Y335143D01*
X212143Y335704D01*
X212494Y336161D01*
X236003D01*
X242091Y330073D01*
Y247183D01*
X241642Y246961D01*
X241093Y247383D01*
X240132Y247781D01*
X239100Y247917D01*
X238068Y247781D01*
X237107Y247383D01*
X236281Y246749D01*
X235647Y245923D01*
X235249Y244962D01*
X235186Y244480D01*
X234712Y244319D01*
X233789Y245242D01*
X233128Y245684D01*
X232609Y245787D01*
X232553Y245923D01*
X231919Y246749D01*
X231093Y247383D01*
X230132Y247781D01*
X229100Y247917D01*
X228068Y247781D01*
X227107Y247383D01*
X226281Y246749D01*
X225647Y245923D01*
X225249Y244962D01*
X225113Y243930D01*
X225249Y242898D01*
X225647Y241937D01*
X226281Y241111D01*
X227107Y240477D01*
X228068Y240079D01*
X229100Y239943D01*
X230132Y240079D01*
X231093Y240477D01*
X231602Y240868D01*
X232051Y240647D01*
Y237213D01*
X231602Y236992D01*
X231093Y237383D01*
X230132Y237781D01*
X229100Y237917D01*
X228068Y237781D01*
X227107Y237383D01*
X226281Y236749D01*
X225647Y235923D01*
X225249Y234962D01*
X225113Y233930D01*
X225249Y232898D01*
X225647Y231937D01*
X226281Y231111D01*
X227107Y230477D01*
X227208Y230435D01*
Y227645D01*
X218558Y218995D01*
X218116Y218333D01*
X217961Y217553D01*
Y146500D01*
X210500D01*
Y142294D01*
X210038Y142102D01*
X208569Y143571D01*
X207825Y144068D01*
X207445Y144144D01*
X206966Y144768D01*
X206141Y145402D01*
X205179Y145800D01*
X204147Y145936D01*
X203917Y145905D01*
X203541Y146235D01*
Y151523D01*
X204039Y151573D01*
X204193Y150799D01*
X204675Y150078D01*
X205396Y149596D01*
X206247Y149427D01*
X207098Y149596D01*
X207820Y150078D01*
X208302Y150799D01*
X208471Y151650D01*
Y154447D01*
X208541Y154800D01*
Y159349D01*
X208367Y160227D01*
X207869Y160971D01*
X205569Y163271D01*
X204825Y163768D01*
X203947Y163943D01*
X198247D01*
X197369Y163768D01*
X196625Y163271D01*
X194725Y161371D01*
X194228Y160627D01*
X194053Y159749D01*
Y158099D01*
X194023Y157950D01*
Y154927D01*
X193842Y154909D01*
X193471Y155245D01*
Y157950D01*
X193302Y158801D01*
X192820Y159522D01*
X192098Y160004D01*
X191247Y160173D01*
X190396Y160004D01*
X189675Y159522D01*
X189193Y158801D01*
X189023Y157950D01*
Y155245D01*
X188653Y154909D01*
X188471Y154927D01*
Y157950D01*
X188302Y158801D01*
X187820Y159522D01*
X187098Y160004D01*
X186247Y160173D01*
X185396Y160004D01*
X184675Y159522D01*
X184193Y158801D01*
X184023Y157950D01*
Y151650D01*
X184193Y150799D01*
X184675Y150078D01*
X185396Y149596D01*
X186247Y149427D01*
X187098Y149596D01*
X187820Y150078D01*
X188302Y150799D01*
X188456Y151573D01*
X188953Y151523D01*
Y145733D01*
X188154Y145402D01*
X187328Y144768D01*
X186695Y143942D01*
X186296Y142981D01*
X186160Y141949D01*
X186247Y141293D01*
X180588Y135634D01*
X180091Y134890D01*
X179916Y134012D01*
Y115508D01*
X179242D01*
Y108390D01*
X185179D01*
Y115508D01*
X184504D01*
Y133062D01*
X189491Y138048D01*
X190147Y137962D01*
X191179Y138098D01*
X192141Y138496D01*
X192966Y139130D01*
X193580Y139929D01*
X194045Y139771D01*
X194053Y139768D01*
Y134243D01*
X193369D01*
X192966Y134768D01*
X192141Y135401D01*
X191179Y135800D01*
X190147Y135936D01*
X189115Y135800D01*
X188154Y135401D01*
X187328Y134768D01*
X186695Y133942D01*
X186296Y132981D01*
X186160Y131949D01*
X186296Y130917D01*
X186695Y129955D01*
X187328Y129130D01*
X188154Y128496D01*
X189115Y128098D01*
X190147Y127962D01*
X191179Y128098D01*
X192141Y128496D01*
X192966Y129130D01*
X193369Y129655D01*
X200925D01*
X201328Y129130D01*
X202154Y128496D01*
X203115Y128098D01*
X204147Y127962D01*
X205179Y128098D01*
X206141Y128496D01*
X206966Y129130D01*
X207600Y129955D01*
X207998Y130917D01*
X208134Y131949D01*
X207998Y132981D01*
X207600Y133942D01*
X206966Y134768D01*
X206141Y135401D01*
X205179Y135800D01*
X204147Y135936D01*
X203115Y135800D01*
X202154Y135401D01*
X201328Y134768D01*
X200925Y134243D01*
X198641D01*
Y143874D01*
X199128Y143971D01*
X199625Y143227D01*
X200247Y142605D01*
X200160Y141949D01*
X200296Y140917D01*
X200694Y139955D01*
X201328Y139130D01*
X202154Y138496D01*
X203115Y138098D01*
X204147Y137962D01*
X205179Y138098D01*
X206141Y138496D01*
X206715Y138937D01*
X209853Y135799D01*
Y115508D01*
X209116D01*
Y108390D01*
X212344D01*
X212535Y107928D01*
X211447Y106839D01*
X161992D01*
X157593Y111238D01*
X157784Y111700D01*
X163124D01*
Y119636D01*
X156500D01*
Y112984D01*
X156038Y112793D01*
X146586Y122245D01*
Y146000D01*
X146431Y146780D01*
X145989Y147442D01*
X131789Y161642D01*
X131128Y162084D01*
X130347Y162239D01*
X110147D01*
X110147Y162239D01*
X109367Y162084D01*
X108705Y161642D01*
X108705Y161642D01*
X92805Y145742D01*
X92363Y145080D01*
X92329Y144905D01*
X90688D01*
Y144839D01*
X85207D01*
X85184Y144854D01*
X84333Y145024D01*
X77246D01*
X76395Y144854D01*
X75674Y144372D01*
X75365Y143910D01*
X74886Y144055D01*
Y146545D01*
X75365Y146690D01*
X75674Y146228D01*
X76395Y145746D01*
X77246Y145576D01*
X84333D01*
X85184Y145746D01*
X85207Y145761D01*
X88000D01*
X88780Y145916D01*
X89442Y146358D01*
X89442Y146358D01*
X89442Y146358D01*
X101689Y158605D01*
X102131Y159267D01*
X102286Y160047D01*
X102286Y160047D01*
X102286Y160047D01*
Y160047D01*
Y193501D01*
X102737Y193687D01*
X103768Y194479D01*
X104560Y195510D01*
X105057Y196711D01*
X105227Y198000D01*
X105057Y199289D01*
X104560Y200490D01*
X103768Y201521D01*
X102737Y202312D01*
X101536Y202810D01*
X100247Y202980D01*
X99809Y202922D01*
X93704Y209027D01*
X93043Y209469D01*
X92262Y209624D01*
X48147D01*
X47367Y209469D01*
X46705Y209027D01*
X40302Y202623D01*
X39851Y202810D01*
X39086Y202911D01*
Y326700D01*
X38931Y327480D01*
X38489Y328142D01*
X37128Y329504D01*
X37186Y329800D01*
Y450297D01*
X37031Y451078D01*
X36589Y451739D01*
X19397Y468931D01*
Y473953D01*
X11491D01*
Y466048D01*
X16513D01*
X33108Y449452D01*
Y331839D01*
X23764D01*
X23700Y331993D01*
X23066Y332819D01*
X22286Y333418D01*
Y336047D01*
X24200D01*
Y343953D01*
X16295D01*
Y336047D01*
X18208D01*
Y333418D01*
X17428Y332819D01*
X16794Y331993D01*
X16396Y331032D01*
X16260Y330000D01*
X16396Y328968D01*
X16794Y328007D01*
X17428Y327181D01*
X18254Y326547D01*
X19215Y326149D01*
X20247Y326013D01*
X21279Y326149D01*
X22241Y326547D01*
X23066Y327181D01*
X23511Y327761D01*
X33103D01*
X35008Y325855D01*
Y201478D01*
X34250Y200490D01*
X33752Y199289D01*
X33583Y198000D01*
X33752Y196711D01*
X34250Y195510D01*
X35041Y194479D01*
X36072Y193687D01*
X37273Y193190D01*
X38562Y193020D01*
X39851Y193190D01*
X41052Y193687D01*
X42083Y194479D01*
X42875Y195510D01*
X43372Y196711D01*
X43542Y198000D01*
X43372Y199289D01*
X43185Y199739D01*
X48992Y205546D01*
X91417D01*
X96169Y200795D01*
X95935Y200490D01*
X95437Y199289D01*
X95268Y198000D01*
X95437Y196711D01*
X95935Y195510D01*
X96726Y194479D01*
X97757Y193687D01*
X98208Y193501D01*
Y160892D01*
X95849Y158533D01*
X95376Y158694D01*
X95215Y159919D01*
X94717Y161120D01*
X93926Y162151D01*
X92895Y162942D01*
X91694Y163440D01*
X90405Y163610D01*
X89116Y163440D01*
X87915Y162942D01*
X86884Y162151D01*
X86092Y161120D01*
X85906Y160669D01*
X78377D01*
X77597Y160514D01*
X76935Y160072D01*
X71405Y154542D01*
X71180Y154205D01*
X70680D01*
X70589Y154342D01*
X64859Y160072D01*
X64198Y160514D01*
X63417Y160669D01*
X52904D01*
X52717Y161120D01*
X51926Y162151D01*
X50894Y162942D01*
X49694Y163440D01*
X48405Y163610D01*
X47116Y163440D01*
X45915Y162942D01*
X44884Y162151D01*
X44092Y161120D01*
X43595Y159919D01*
X43425Y158630D01*
X43595Y157341D01*
X44092Y156140D01*
X44884Y155109D01*
X45915Y154317D01*
X47116Y153820D01*
X48405Y153650D01*
X49694Y153820D01*
X50894Y154317D01*
X51926Y155109D01*
X52717Y156140D01*
X52904Y156591D01*
X62573D01*
X67108Y152055D01*
Y149981D01*
X67108D01*
X66829D01*
X66755Y149981D01*
X66755Y149981D01*
Y149981D01*
X55380D01*
Y149839D01*
X50510D01*
X49730Y149684D01*
X49068Y149242D01*
X49032Y149206D01*
X45388D01*
Y145562D01*
X40905Y141079D01*
X40463Y140417D01*
X40308Y139637D01*
Y132900D01*
X40308Y132900D01*
X40308D01*
X40463Y132120D01*
X40905Y131458D01*
X57005Y115358D01*
X57667Y114916D01*
X58447Y114761D01*
X129391D01*
X129754Y114398D01*
X129739Y114361D01*
D01*
X129562Y113936D01*
X107300D01*
Y106236D01*
X107100D01*
Y97644D01*
X129467D01*
Y105344D01*
X129667D01*
Y113831D01*
X130092Y114008D01*
D01*
X130129Y114023D01*
X144594Y99558D01*
X144594Y99558D01*
X144990Y99293D01*
X145255Y99116D01*
X146035Y98961D01*
X185446D01*
X185800Y98607D01*
Y92629D01*
X1529D01*
Y512871D01*
X490271D01*
Y92629D01*
D02*
G37*
G36*
X139642Y148021D02*
X139451Y147559D01*
X138684D01*
Y144500D01*
X141153D01*
Y145857D01*
X141615Y146049D01*
X142508Y145155D01*
Y121400D01*
X142508Y121400D01*
X142508D01*
X142663Y120620D01*
X143105Y119958D01*
X159426Y103637D01*
X159377Y103139D01*
X159381Y103142D01*
X159227Y103039D01*
X146880D01*
X131677Y118242D01*
X131016Y118684D01*
X130235Y118839D01*
X59292D01*
X44386Y133745D01*
Y138792D01*
X44926Y139332D01*
X45388Y139141D01*
Y135395D01*
X52506D01*
Y135761D01*
X56687D01*
X56710Y135746D01*
X57561Y135576D01*
X64648D01*
X65499Y135746D01*
X65522Y135761D01*
X65603D01*
X68608Y132755D01*
Y126600D01*
X68763Y125820D01*
X69205Y125158D01*
X69867Y124716D01*
X70647Y124561D01*
X94910D01*
X95691Y124716D01*
X96352Y125158D01*
X101635Y130441D01*
X105279D01*
Y137559D01*
X101280D01*
X101089Y138021D01*
X103509Y140441D01*
X105279D01*
Y147559D01*
X101043D01*
X100852Y148021D01*
X108438Y155607D01*
X108900Y155416D01*
Y151868D01*
X115524D01*
Y155868D01*
X109352D01*
X109161Y156330D01*
X110992Y158161D01*
X118682D01*
X118779Y157670D01*
X118254Y157453D01*
X117428Y156819D01*
X116795Y155993D01*
X116396Y155032D01*
X116326Y154500D01*
X124168D01*
X124098Y155032D01*
X123700Y155993D01*
X123066Y156819D01*
X122241Y157453D01*
X121715Y157670D01*
X121813Y158161D01*
X129503D01*
X139642Y148021D01*
D02*
G37*
%LPC*%
G36*
X19595Y167436D02*
X5100D01*
Y159500D01*
X19595D01*
Y167436D01*
D02*
G37*
G36*
X427510Y163200D02*
X425042D01*
Y160141D01*
X427510D01*
Y163200D01*
D02*
G37*
G36*
X430979D02*
X428510D01*
Y160141D01*
X430979D01*
Y163200D01*
D02*
G37*
G36*
X265747Y159921D02*
X265215Y159851D01*
X264254Y159453D01*
X263428Y158819D01*
X262794Y157993D01*
X262396Y157032D01*
X262326Y156500D01*
X265747D01*
Y159921D01*
D02*
G37*
G36*
X279747D02*
X279215Y159851D01*
X278254Y159453D01*
X277428Y158819D01*
X276795Y157993D01*
X276396Y157032D01*
X276326Y156500D01*
X279747D01*
Y159921D01*
D02*
G37*
G36*
X280747D02*
Y156500D01*
X284168D01*
X284098Y157032D01*
X283700Y157993D01*
X283066Y158819D01*
X282241Y159453D01*
X281279Y159851D01*
X280747Y159921D01*
D02*
G37*
G36*
X266747D02*
Y156500D01*
X270168D01*
X270098Y157032D01*
X269700Y157993D01*
X269066Y158819D01*
X268241Y159453D01*
X267279Y159851D01*
X266747Y159921D01*
D02*
G37*
G36*
X316449Y165100D02*
X313547D01*
Y161824D01*
X316449D01*
Y165100D01*
D02*
G37*
G36*
X427510Y167259D02*
X425042D01*
Y164200D01*
X427510D01*
Y167259D01*
D02*
G37*
G36*
X324606Y165163D02*
X321547D01*
Y162695D01*
X324606D01*
Y165163D01*
D02*
G37*
G36*
X411447Y167263D02*
X408388D01*
Y164795D01*
X411447D01*
Y167263D01*
D02*
G37*
G36*
X430979Y167259D02*
X428510D01*
Y164200D01*
X430979D01*
Y167259D01*
D02*
G37*
G36*
X328610Y165100D02*
X326142D01*
Y162041D01*
X328610D01*
Y165100D01*
D02*
G37*
G36*
X340142Y169159D02*
X339995Y169159D01*
X339953D01*
Y169159D01*
X339953D01*
X339953D01*
X334016D01*
Y162041D01*
X339953D01*
Y162041D01*
X339953D01*
X339953Y162041D01*
X340142D01*
Y162041D01*
X346079D01*
Y169159D01*
X340142D01*
Y169159D01*
D02*
G37*
G36*
X320547Y165163D02*
X317488D01*
Y162695D01*
X320547D01*
Y165163D01*
D02*
G37*
G36*
X332079Y165100D02*
X329610D01*
Y162041D01*
X332079D01*
Y165100D01*
D02*
G37*
G36*
X252747Y159921D02*
Y156500D01*
X256168D01*
X256098Y157032D01*
X255700Y157993D01*
X255066Y158819D01*
X254241Y159453D01*
X253279Y159851D01*
X252747Y159921D01*
D02*
G37*
G36*
X480747Y153921D02*
Y150500D01*
X484168D01*
X484098Y151032D01*
X483700Y151993D01*
X483066Y152819D01*
X482241Y153453D01*
X481279Y153851D01*
X480747Y153921D01*
D02*
G37*
G36*
X479747D02*
X479215Y153851D01*
X478254Y153453D01*
X477428Y152819D01*
X476794Y151993D01*
X476396Y151032D01*
X476326Y150500D01*
X479747D01*
Y153921D01*
D02*
G37*
G36*
X242168Y155500D02*
X238747D01*
Y152079D01*
X239279Y152149D01*
X240241Y152547D01*
X241066Y153181D01*
X241700Y154007D01*
X242098Y154968D01*
X242168Y155500D01*
D02*
G37*
G36*
X237747D02*
X234326D01*
X234396Y154968D01*
X234794Y154007D01*
X235428Y153181D01*
X236254Y152547D01*
X237215Y152149D01*
X237747Y152079D01*
Y155500D01*
D02*
G37*
G36*
X119747Y153500D02*
X116326D01*
X116396Y152968D01*
X116795Y152007D01*
X117428Y151181D01*
X118254Y150547D01*
X119215Y150149D01*
X119747Y150079D01*
Y153500D01*
D02*
G37*
G36*
X484168Y149500D02*
X480747D01*
Y146079D01*
X481279Y146149D01*
X482241Y146547D01*
X483066Y147181D01*
X483700Y148007D01*
X484098Y148968D01*
X484168Y149500D01*
D02*
G37*
G36*
X151224Y154368D02*
X144600D01*
Y150368D01*
X151224D01*
Y154368D01*
D02*
G37*
G36*
X124168Y153500D02*
X120747D01*
Y150079D01*
X121279Y150149D01*
X122241Y150547D01*
X123066Y151181D01*
X123700Y152007D01*
X124098Y152968D01*
X124168Y153500D01*
D02*
G37*
G36*
X256168Y155500D02*
X252747D01*
Y152079D01*
X253279Y152149D01*
X254241Y152547D01*
X255066Y153181D01*
X255700Y154007D01*
X256098Y154968D01*
X256168Y155500D01*
D02*
G37*
G36*
X430979Y157259D02*
X425042D01*
Y156249D01*
X424412D01*
Y156574D01*
X410601D01*
Y138826D01*
X415467D01*
Y126941D01*
X415619Y126176D01*
X415517Y125400D01*
X415637Y124486D01*
X415990Y123635D01*
X416551Y122904D01*
X417282Y122343D01*
X418134Y121990D01*
X419047Y121870D01*
X419830Y121973D01*
X420206Y121643D01*
Y117128D01*
X420381Y116250D01*
X420873Y115513D01*
X420638Y115072D01*
X420423D01*
Y109528D01*
X434234D01*
Y115072D01*
X427801D01*
X424794Y118079D01*
Y136233D01*
X424855Y136325D01*
X425049Y137300D01*
X424855Y138276D01*
X424445Y138889D01*
Y143310D01*
X424412Y143477D01*
Y151001D01*
X424562Y151151D01*
X425042D01*
Y150141D01*
X430979D01*
Y157259D01*
D02*
G37*
G36*
X181247Y160173D02*
X180396Y160004D01*
X179675Y159522D01*
X179193Y158801D01*
X179023Y157950D01*
Y154927D01*
X178842Y154909D01*
X178471Y155245D01*
Y157950D01*
X178302Y158801D01*
X177820Y159522D01*
X177098Y160004D01*
X176247Y160173D01*
X175396Y160004D01*
X174675Y159522D01*
X174193Y158801D01*
X174023Y157950D01*
Y155153D01*
X173997Y155022D01*
X173497D01*
X173471Y155153D01*
Y157950D01*
X173302Y158801D01*
X172820Y159522D01*
X172098Y160004D01*
X171247Y160173D01*
X170396Y160004D01*
X169675Y159522D01*
X169193Y158801D01*
X169023Y157950D01*
Y156243D01*
X167053D01*
Y157508D01*
X161116D01*
Y150390D01*
X167053D01*
Y151655D01*
X169023D01*
Y151650D01*
X169193Y150799D01*
X169675Y150078D01*
X170396Y149596D01*
X171247Y149427D01*
X172098Y149596D01*
X172820Y150078D01*
X173302Y150799D01*
X173456Y151573D01*
X173953Y151523D01*
Y145508D01*
X173116D01*
Y138390D01*
X173953D01*
Y135350D01*
X171246D01*
Y128547D01*
X172448D01*
X172639Y128085D01*
X170597Y126043D01*
X155523D01*
X154966Y126768D01*
X154141Y127401D01*
X153179Y127800D01*
X152147Y127936D01*
X151115Y127800D01*
X150154Y127401D01*
X149328Y126768D01*
X148695Y125942D01*
X148296Y124981D01*
X148160Y123949D01*
X148296Y122917D01*
X148695Y121955D01*
X149328Y121130D01*
X150154Y120496D01*
X151115Y120098D01*
X152147Y119962D01*
X153179Y120098D01*
X154141Y120496D01*
X154966Y121130D01*
X155216Y121455D01*
X171547D01*
X172425Y121629D01*
X173169Y122127D01*
X173169Y122127D01*
X173169Y122127D01*
X176643Y125601D01*
X177141Y126345D01*
X177315Y127223D01*
X177315Y127223D01*
X177315Y127223D01*
Y127223D01*
Y128547D01*
X178797D01*
Y135350D01*
X178541D01*
Y138390D01*
X179053D01*
Y145508D01*
X178541D01*
Y151523D01*
X179039Y151573D01*
X179193Y150799D01*
X179675Y150078D01*
X180396Y149596D01*
X181247Y149427D01*
X182098Y149596D01*
X182820Y150078D01*
X183302Y150799D01*
X183471Y151650D01*
Y157950D01*
X183302Y158801D01*
X182820Y159522D01*
X182098Y160004D01*
X181247Y160173D01*
D02*
G37*
G36*
X238747Y159921D02*
Y156500D01*
X242168D01*
X242098Y157032D01*
X241700Y157993D01*
X241066Y158819D01*
X240241Y159453D01*
X239279Y159851D01*
X238747Y159921D01*
D02*
G37*
G36*
X237747D02*
X237215Y159851D01*
X236254Y159453D01*
X235428Y158819D01*
X234794Y157993D01*
X234396Y157032D01*
X234326Y156500D01*
X237747D01*
Y159921D01*
D02*
G37*
G36*
X270168Y155500D02*
X266747D01*
Y152079D01*
X267279Y152149D01*
X268241Y152547D01*
X269066Y153181D01*
X269700Y154007D01*
X270098Y154968D01*
X270168Y155500D01*
D02*
G37*
G36*
X265747D02*
X262326D01*
X262396Y154968D01*
X262794Y154007D01*
X263428Y153181D01*
X264254Y152547D01*
X265215Y152149D01*
X265747Y152079D01*
Y155500D01*
D02*
G37*
G36*
X284168D02*
X280747D01*
Y152079D01*
X281279Y152149D01*
X282241Y152547D01*
X283066Y153181D01*
X283700Y154007D01*
X284098Y154968D01*
X284168Y155500D01*
D02*
G37*
G36*
X279747D02*
X276326D01*
X276396Y154968D01*
X276795Y154007D01*
X277428Y153181D01*
X278254Y152547D01*
X279215Y152149D01*
X279747Y152079D01*
Y155500D01*
D02*
G37*
G36*
X330705Y174324D02*
X327661D01*
X326810Y174154D01*
X326089Y173672D01*
X325607Y172951D01*
X325537Y172600D01*
X330705D01*
Y174324D01*
D02*
G37*
G36*
X424648Y173424D02*
X421605D01*
Y171700D01*
X426772D01*
X426703Y172051D01*
X426221Y172773D01*
X425499Y173255D01*
X424648Y173424D01*
D02*
G37*
G36*
X170747Y178972D02*
X170396Y178902D01*
X169675Y178420D01*
X169193Y177698D01*
X169023Y176847D01*
Y174198D01*
X170747D01*
Y178972D01*
D02*
G37*
G36*
X334748Y174324D02*
X331705D01*
Y172600D01*
X336872D01*
X336803Y172951D01*
X336320Y173672D01*
X335599Y174154D01*
X334748Y174324D01*
D02*
G37*
G36*
X403349Y173476D02*
X400447D01*
Y170200D01*
X403349D01*
Y173476D01*
D02*
G37*
G36*
X330705Y171600D02*
X325537D01*
X325607Y171249D01*
X326089Y170528D01*
X326810Y170045D01*
X327661Y169876D01*
X330705D01*
Y171600D01*
D02*
G37*
G36*
X426772Y170700D02*
X421605D01*
Y168976D01*
X424648D01*
X425499Y169146D01*
X426221Y169627D01*
X426703Y170349D01*
X426772Y170700D01*
D02*
G37*
G36*
X399447Y173476D02*
X396546D01*
Y170200D01*
X399447D01*
Y173476D01*
D02*
G37*
G36*
X336872Y171600D02*
X331705D01*
Y169876D01*
X334748D01*
X335599Y170045D01*
X336320Y170528D01*
X336803Y171249D01*
X336872Y171600D01*
D02*
G37*
G36*
X159806Y193768D02*
X156747D01*
Y190905D01*
X159806D01*
Y193768D01*
D02*
G37*
G36*
X155747D02*
X152688D01*
Y190905D01*
X155747D01*
Y193768D01*
D02*
G37*
G36*
X63161Y197500D02*
X58747D01*
Y193086D01*
X59536Y193190D01*
X60737Y193687D01*
X61768Y194479D01*
X62560Y195510D01*
X63057Y196711D01*
X63161Y197500D01*
D02*
G37*
G36*
X57747D02*
X53333D01*
X53437Y196711D01*
X53935Y195510D01*
X54726Y194479D01*
X55757Y193687D01*
X56958Y193190D01*
X57747Y193086D01*
Y197500D01*
D02*
G37*
G36*
X167806Y189032D02*
X160688D01*
Y188357D01*
X159806D01*
Y188969D01*
X152688D01*
Y182244D01*
X159806D01*
Y183769D01*
X160688D01*
Y183095D01*
X167806D01*
Y189032D01*
D02*
G37*
G36*
X199706Y188980D02*
X192588D01*
Y183043D01*
X193953D01*
Y176974D01*
X193456Y176925D01*
X193302Y177698D01*
X192820Y178420D01*
X192098Y178902D01*
X191747Y178972D01*
Y174198D01*
X193471D01*
Y173571D01*
X193653Y173589D01*
X194023Y173253D01*
Y170548D01*
X194193Y169697D01*
X194675Y168975D01*
X195396Y168493D01*
X196247Y168324D01*
X197098Y168493D01*
X197820Y168975D01*
X198302Y169697D01*
X198471Y170548D01*
Y173253D01*
X198842Y173589D01*
X199023Y173571D01*
Y174198D01*
X200747D01*
Y178972D01*
X200396Y178902D01*
X199675Y178420D01*
X199193Y177698D01*
X199039Y176925D01*
X198541Y176974D01*
Y183043D01*
X199706D01*
Y188980D01*
D02*
G37*
G36*
X190747Y178972D02*
X190396Y178902D01*
X189675Y178420D01*
X189193Y177698D01*
X189023Y176847D01*
Y174198D01*
X190747D01*
Y178972D01*
D02*
G37*
G36*
X209706Y188980D02*
X202588D01*
Y183043D01*
X203953D01*
Y176974D01*
X203456Y176925D01*
X203302Y177698D01*
X202820Y178420D01*
X202098Y178902D01*
X201747Y178972D01*
Y174198D01*
X203471D01*
Y173571D01*
X203653Y173589D01*
X204023Y173253D01*
Y170548D01*
X204193Y169697D01*
X204675Y168975D01*
X205396Y168493D01*
X206247Y168324D01*
X207098Y168493D01*
X207820Y168975D01*
X208302Y169697D01*
X208471Y170548D01*
Y173345D01*
X208541Y173698D01*
Y183043D01*
X209706D01*
Y188980D01*
D02*
G37*
G36*
X179706D02*
X172588D01*
Y183043D01*
X173853D01*
Y182749D01*
X173953Y182246D01*
Y176974D01*
X173456Y176925D01*
X173302Y177698D01*
X172820Y178420D01*
X172098Y178902D01*
X171747Y178972D01*
Y174198D01*
X173471D01*
Y173571D01*
X173653Y173589D01*
X174023Y173253D01*
Y170548D01*
X174193Y169697D01*
X174675Y168975D01*
X175396Y168493D01*
X176247Y168324D01*
X177098Y168493D01*
X177820Y168975D01*
X178302Y169697D01*
X178471Y170548D01*
Y173253D01*
X178842Y173589D01*
X179023Y173571D01*
Y170548D01*
X179193Y169697D01*
X179675Y168975D01*
X180396Y168493D01*
X181247Y168324D01*
X182098Y168493D01*
X182820Y168975D01*
X183302Y169697D01*
X183471Y170548D01*
Y176847D01*
X183302Y177698D01*
X182820Y178420D01*
X182098Y178902D01*
X181247Y179071D01*
X180396Y178902D01*
X179675Y178420D01*
X179193Y177698D01*
X179039Y176925D01*
X178541Y176974D01*
Y182649D01*
X178540Y182657D01*
X178857Y183043D01*
X179706D01*
Y188980D01*
D02*
G37*
G36*
X320547Y168631D02*
X317488D01*
Y166163D01*
X320547D01*
Y168631D01*
D02*
G37*
G36*
X332079Y169159D02*
X329610D01*
Y166100D01*
X332079D01*
Y169159D01*
D02*
G37*
G36*
X485999Y175398D02*
X478000D01*
Y167400D01*
X485999D01*
Y175398D01*
D02*
G37*
G36*
X324606Y168631D02*
X321547D01*
Y166163D01*
X324606D01*
Y168631D01*
D02*
G37*
G36*
X328610Y169159D02*
X326142D01*
Y166100D01*
X328610D01*
Y169159D01*
D02*
G37*
G36*
X399447Y169200D02*
X396546D01*
Y165924D01*
X399447D01*
Y169200D01*
D02*
G37*
G36*
X415506Y167263D02*
X412447D01*
Y164795D01*
X415506D01*
Y167263D01*
D02*
G37*
G36*
X316449Y169376D02*
X313547D01*
Y166100D01*
X316449D01*
Y169376D01*
D02*
G37*
G36*
X403349Y169200D02*
X400447D01*
Y165924D01*
X403349D01*
Y169200D01*
D02*
G37*
G36*
X200747Y173198D02*
X199023D01*
Y170548D01*
X199193Y169697D01*
X199675Y168975D01*
X200396Y168493D01*
X200747Y168424D01*
Y173198D01*
D02*
G37*
G36*
X193471D02*
X191747D01*
Y168424D01*
X192098Y168493D01*
X192820Y168975D01*
X193302Y169697D01*
X193471Y170548D01*
Y173198D01*
D02*
G37*
G36*
X415354Y171118D02*
X415037Y170731D01*
X412447D01*
Y168263D01*
X415506D01*
Y169488D01*
X415985Y169633D01*
X415989Y169627D01*
X416710Y169146D01*
X417561Y168976D01*
X420605D01*
Y170700D01*
X415437D01*
X415354Y171118D01*
D02*
G37*
G36*
X203471Y173198D02*
X201747D01*
Y168424D01*
X202098Y168493D01*
X202820Y168975D01*
X203302Y169697D01*
X203471Y170548D01*
Y173198D01*
D02*
G37*
G36*
X190747D02*
X189023D01*
Y170548D01*
X189193Y169697D01*
X189675Y168975D01*
X190396Y168493D01*
X190747Y168424D01*
Y173198D01*
D02*
G37*
G36*
X186247Y179071D02*
X185396Y178902D01*
X184675Y178420D01*
X184193Y177698D01*
X184023Y176847D01*
Y170548D01*
X184193Y169697D01*
X184675Y168975D01*
X185396Y168493D01*
X186247Y168324D01*
X187098Y168493D01*
X187820Y168975D01*
X188302Y169697D01*
X188471Y170548D01*
Y176847D01*
X188302Y177698D01*
X187820Y178420D01*
X187098Y178902D01*
X186247Y179071D01*
D02*
G37*
G36*
X411447Y170731D02*
X408388D01*
Y168263D01*
X411447D01*
Y170731D01*
D02*
G37*
G36*
X173471Y173198D02*
X171747D01*
Y168424D01*
X172098Y168493D01*
X172820Y168975D01*
X173302Y169697D01*
X173471Y170548D01*
Y173198D01*
D02*
G37*
G36*
X167855Y174680D02*
X146800D01*
Y168936D01*
X144000D01*
Y161000D01*
X169647D01*
Y168464D01*
X170088Y168700D01*
X170396Y168493D01*
X170747Y168424D01*
Y173198D01*
X169023D01*
Y170548D01*
X169193Y169697D01*
X169407Y169377D01*
X169171Y168936D01*
X167855D01*
Y174680D01*
D02*
G37*
G36*
X479747Y149500D02*
X476326D01*
X476396Y148968D01*
X476794Y148007D01*
X477428Y147181D01*
X478254Y146547D01*
X479215Y146149D01*
X479747Y146079D01*
Y149500D01*
D02*
G37*
G36*
X19185Y125571D02*
X17366Y125428D01*
X15104Y124885D01*
X12955Y123994D01*
X10971Y122779D01*
X9202Y121268D01*
X7691Y119499D01*
X6476Y117516D01*
X5585Y115366D01*
X5042Y113104D01*
X4899Y111285D01*
X19185D01*
Y125571D01*
D02*
G37*
G36*
X413806Y113031D02*
X410747D01*
Y110563D01*
X413806D01*
Y113031D01*
D02*
G37*
G36*
X471941Y125571D02*
X470122Y125428D01*
X467860Y124885D01*
X465710Y123994D01*
X463727Y122779D01*
X461958Y121268D01*
X460447Y119499D01*
X459232Y117516D01*
X458341Y115366D01*
X457798Y113104D01*
X457655Y111285D01*
X471941D01*
Y125571D01*
D02*
G37*
G36*
X20185D02*
Y111285D01*
X34471D01*
X34328Y113104D01*
X33785Y115366D01*
X32894Y117516D01*
X31679Y119499D01*
X30168Y121268D01*
X28399Y122779D01*
X26416Y123994D01*
X24266Y124885D01*
X22004Y125428D01*
X20185Y125571D01*
D02*
G37*
G36*
X409747Y113031D02*
X406688D01*
Y110563D01*
X409747D01*
Y113031D01*
D02*
G37*
G36*
X284536Y121200D02*
X276600D01*
Y108017D01*
X284536D01*
Y121200D01*
D02*
G37*
G36*
X413806Y109563D02*
X410747D01*
Y107095D01*
X413806D01*
Y109563D01*
D02*
G37*
G36*
X454706Y111800D02*
X448301D01*
Y109528D01*
X454706D01*
Y111800D01*
D02*
G37*
G36*
X447301D02*
X440895D01*
Y109528D01*
X447301D01*
Y111800D01*
D02*
G37*
G36*
X124200Y127953D02*
X116295D01*
Y120047D01*
X124200D01*
Y127953D01*
D02*
G37*
G36*
X331806Y119768D02*
X328747D01*
Y116905D01*
X331806D01*
Y119768D01*
D02*
G37*
G36*
X113024Y126980D02*
X106400D01*
Y120356D01*
X113024D01*
Y126980D01*
D02*
G37*
G36*
X299497Y130098D02*
X285500D01*
Y120100D01*
X299497D01*
Y130098D01*
D02*
G37*
G36*
X327747Y119768D02*
X324688D01*
Y116905D01*
X327747D01*
Y119768D01*
D02*
G37*
G36*
X447301Y115072D02*
X440895D01*
Y112800D01*
X447301D01*
Y115072D01*
D02*
G37*
G36*
X472941Y125571D02*
Y111285D01*
X487227D01*
X487084Y113104D01*
X486541Y115366D01*
X485650Y117516D01*
X484435Y119499D01*
X482924Y121268D01*
X481155Y122779D01*
X479172Y123994D01*
X477022Y124885D01*
X474760Y125428D01*
X472941Y125571D01*
D02*
G37*
G36*
X405208Y125756D02*
X394940D01*
Y118244D01*
X405208D01*
Y119439D01*
X405670Y119631D01*
X406688Y118612D01*
Y114969D01*
X413806D01*
Y120905D01*
X410163D01*
X407626Y123442D01*
X406965Y123884D01*
X406184Y124039D01*
X405208D01*
Y125756D01*
D02*
G37*
G36*
X454706Y115072D02*
X448301D01*
Y112800D01*
X454706D01*
Y115072D01*
D02*
G37*
G36*
X369381Y103784D02*
X364747D01*
Y100528D01*
X369381D01*
Y103784D01*
D02*
G37*
G36*
X363747D02*
X359113D01*
Y100528D01*
X363747D01*
Y103784D01*
D02*
G37*
G36*
X405208D02*
X400574D01*
Y100528D01*
X405208D01*
Y103784D01*
D02*
G37*
G36*
X399574D02*
X394940D01*
Y100528D01*
X399574D01*
Y103784D01*
D02*
G37*
G36*
X487227Y110285D02*
X472941D01*
Y95999D01*
X474760Y96142D01*
X477022Y96685D01*
X479172Y97576D01*
X481155Y98791D01*
X482924Y100302D01*
X484435Y102071D01*
X485650Y104054D01*
X486541Y106204D01*
X487084Y108466D01*
X487227Y110285D01*
D02*
G37*
G36*
X19185D02*
X4899D01*
X5042Y108466D01*
X5585Y106204D01*
X6476Y104054D01*
X7691Y102071D01*
X9202Y100302D01*
X10971Y98791D01*
X12955Y97576D01*
X15104Y96685D01*
X17366Y96142D01*
X19185Y95999D01*
Y110285D01*
D02*
G37*
G36*
X99692Y101636D02*
X36000D01*
Y93700D01*
X99692D01*
Y101636D01*
D02*
G37*
G36*
X471941Y110285D02*
X457655D01*
X457798Y108466D01*
X458341Y106204D01*
X459232Y104054D01*
X460447Y102071D01*
X461958Y100302D01*
X463727Y98791D01*
X465710Y97576D01*
X467860Y96685D01*
X470122Y96142D01*
X471941Y95999D01*
Y110285D01*
D02*
G37*
G36*
X34471D02*
X20185D01*
Y95999D01*
X22004Y96142D01*
X24266Y96685D01*
X26416Y97576D01*
X28399Y98791D01*
X30168Y100302D01*
X31679Y102071D01*
X32894Y104054D01*
X33785Y106204D01*
X34328Y108466D01*
X34471Y110285D01*
D02*
G37*
G36*
X242136Y121500D02*
X234200D01*
Y107005D01*
X242136D01*
Y121500D01*
D02*
G37*
G36*
X270536Y121200D02*
X262600D01*
Y106705D01*
X270536D01*
Y121200D01*
D02*
G37*
G36*
X409747Y109563D02*
X406688D01*
Y107095D01*
X409747D01*
Y109563D01*
D02*
G37*
G36*
X255936Y121500D02*
X248000D01*
Y107005D01*
X255936D01*
Y121500D01*
D02*
G37*
G36*
X405208Y108039D02*
X400574D01*
Y104783D01*
X405208D01*
Y108039D01*
D02*
G37*
G36*
X363747D02*
X359113D01*
Y104783D01*
X363747D01*
Y108039D01*
D02*
G37*
G36*
X77474Y110536D02*
X43300D01*
Y102600D01*
X77474D01*
Y110536D01*
D02*
G37*
G36*
X399574Y108039D02*
X394940D01*
Y104783D01*
X399574D01*
Y108039D01*
D02*
G37*
G36*
X369381D02*
X364747D01*
Y104783D01*
X369381D01*
Y108039D01*
D02*
G37*
G36*
X380306Y139300D02*
X373901D01*
Y137028D01*
X380306D01*
Y139300D01*
D02*
G37*
G36*
X372901D02*
X366495D01*
Y137028D01*
X372901D01*
Y139300D01*
D02*
G37*
G36*
X484699Y141899D02*
X476700D01*
Y137899D01*
X484699D01*
Y141899D01*
D02*
G37*
G36*
X171179Y145508D02*
X165242D01*
Y138390D01*
X165242Y138390D01*
X165242D01*
X165272Y138318D01*
X164486Y137532D01*
X164024Y137723D01*
Y142480D01*
X157400D01*
Y135856D01*
X162157D01*
X162194Y135766D01*
X161916Y135350D01*
X158372D01*
Y134243D01*
X156095D01*
X155998Y134981D01*
X155600Y135942D01*
X154966Y136768D01*
X154141Y137401D01*
X153179Y137800D01*
X152147Y137936D01*
X151115Y137800D01*
X150154Y137401D01*
X149328Y136768D01*
X148695Y135942D01*
X148296Y134981D01*
X148160Y133949D01*
X148296Y132917D01*
X148695Y131955D01*
X149328Y131130D01*
X150154Y130496D01*
X151115Y130098D01*
X152147Y129962D01*
X152919Y130064D01*
X153269Y129829D01*
X154147Y129655D01*
X158372D01*
Y128547D01*
X165923D01*
Y132480D01*
X169832Y136390D01*
X169832Y136390D01*
X169832Y136390D01*
X170330Y137134D01*
X170504Y138012D01*
Y138390D01*
X171179D01*
Y145508D01*
D02*
G37*
G36*
X120247Y137987D02*
X119215Y137851D01*
X118254Y137453D01*
X117428Y136819D01*
X116830Y136039D01*
X113153D01*
Y137559D01*
X107216D01*
Y130441D01*
X113153D01*
Y131961D01*
X116830D01*
X117428Y131181D01*
X118254Y130547D01*
X119215Y130149D01*
X120247Y130013D01*
X121279Y130149D01*
X122241Y130547D01*
X123066Y131181D01*
X123665Y131961D01*
X127342D01*
Y130441D01*
X133279D01*
Y137559D01*
X127342D01*
Y136039D01*
X123665D01*
X123066Y136819D01*
X122241Y137453D01*
X121279Y137851D01*
X120247Y137987D01*
D02*
G37*
G36*
X460272Y140005D02*
X458000D01*
Y133599D01*
X460272D01*
Y140005D01*
D02*
G37*
G36*
X457000D02*
X454728D01*
Y133599D01*
X457000D01*
Y140005D01*
D02*
G37*
G36*
X141153Y137559D02*
X138684D01*
Y134500D01*
X141153D01*
Y137559D01*
D02*
G37*
G36*
X137684D02*
X135216D01*
Y134500D01*
X137684D01*
Y137559D01*
D02*
G37*
G36*
X280247Y149987D02*
X279215Y149851D01*
X278254Y149453D01*
X277428Y148819D01*
X276795Y147993D01*
X276396Y147032D01*
X276260Y146000D01*
X276396Y144968D01*
X276795Y144007D01*
X277428Y143181D01*
X278254Y142547D01*
X279215Y142149D01*
X280247Y142013D01*
X281279Y142149D01*
X282241Y142547D01*
X283066Y143181D01*
X283700Y144007D01*
X284098Y144968D01*
X284234Y146000D01*
X284098Y147032D01*
X283700Y147993D01*
X283066Y148819D01*
X282241Y149453D01*
X281279Y149851D01*
X280247Y149987D01*
D02*
G37*
G36*
X238247D02*
X237215Y149851D01*
X236254Y149453D01*
X235428Y148819D01*
X234794Y147993D01*
X234396Y147032D01*
X234260Y146000D01*
X234396Y144968D01*
X234794Y144007D01*
X235428Y143181D01*
X236254Y142547D01*
X237215Y142149D01*
X238247Y142013D01*
X239279Y142149D01*
X240241Y142547D01*
X241066Y143181D01*
X241700Y144007D01*
X242098Y144968D01*
X242234Y146000D01*
X242098Y147032D01*
X241700Y147993D01*
X241066Y148819D01*
X240241Y149453D01*
X239279Y149851D01*
X238247Y149987D01*
D02*
G37*
G36*
X120247Y147987D02*
X119215Y147851D01*
X118254Y147453D01*
X117428Y146819D01*
X116830Y146039D01*
X113153D01*
Y147559D01*
X107216D01*
Y140441D01*
X113153D01*
Y141961D01*
X116830D01*
X117428Y141181D01*
X118254Y140547D01*
X119215Y140149D01*
X120247Y140013D01*
X121279Y140149D01*
X122241Y140547D01*
X123066Y141181D01*
X123665Y141961D01*
X127342D01*
Y140441D01*
X133279D01*
Y147559D01*
X127342D01*
Y146039D01*
X123665D01*
X123066Y146819D01*
X122241Y147453D01*
X121279Y147851D01*
X120247Y147987D01*
D02*
G37*
G36*
X137684Y147559D02*
X135216D01*
Y144500D01*
X137684D01*
Y147559D01*
D02*
G37*
G36*
X141153Y143500D02*
X138684D01*
Y140441D01*
X141153D01*
Y143500D01*
D02*
G37*
G36*
X372901Y142572D02*
X366495D01*
Y140300D01*
X372901D01*
Y142572D01*
D02*
G37*
G36*
X159179Y157508D02*
X153242D01*
Y150390D01*
X153916D01*
Y148962D01*
X152856Y147902D01*
X148195D01*
Y139996D01*
X156100D01*
Y144657D01*
X157832Y146390D01*
X158330Y147134D01*
X158504Y148012D01*
Y150390D01*
X159179D01*
Y157508D01*
D02*
G37*
G36*
X137684Y143500D02*
X135216D01*
Y140441D01*
X137684D01*
Y143500D01*
D02*
G37*
G36*
X380306Y142572D02*
X373901D01*
Y140300D01*
X380306D01*
Y142572D01*
D02*
G37*
G36*
X369747Y133930D02*
X368834Y133810D01*
X367982Y133457D01*
X367251Y132896D01*
X366690Y132165D01*
X366337Y131314D01*
X366217Y130400D01*
X366337Y129486D01*
X366690Y128635D01*
X367251Y127904D01*
X367555Y127671D01*
X367588Y127172D01*
X366172Y125756D01*
X359113D01*
Y124039D01*
X357153D01*
Y125559D01*
X351216D01*
Y118441D01*
X357153D01*
Y119961D01*
X359113D01*
Y118244D01*
X369381D01*
Y123197D01*
X371189Y125005D01*
X371631Y125667D01*
X371786Y126447D01*
X371786Y126447D01*
X371786Y126447D01*
Y126447D01*
Y127553D01*
X372243Y127904D01*
X372804Y128635D01*
X373157Y129486D01*
X373277Y130400D01*
X373157Y131314D01*
X372804Y132165D01*
X372243Y132896D01*
X371512Y133457D01*
X370661Y133810D01*
X369747Y133930D01*
D02*
G37*
G36*
X284200Y129953D02*
X276294D01*
Y122047D01*
X284200D01*
Y129953D01*
D02*
G37*
G36*
X457000Y132599D02*
X454728D01*
Y126194D01*
X457000D01*
Y132599D01*
D02*
G37*
G36*
X208100Y125902D02*
X200195D01*
Y124243D01*
X194100D01*
Y125902D01*
X186195D01*
Y117996D01*
X187790D01*
Y115508D01*
X187116D01*
Y108390D01*
X193053D01*
Y115508D01*
X192378D01*
Y117996D01*
X194100D01*
Y119655D01*
X200195D01*
Y117996D01*
X201916D01*
Y115508D01*
X201242D01*
Y108390D01*
X207179D01*
Y115508D01*
X206504D01*
Y117996D01*
X208100D01*
Y125902D01*
D02*
G37*
G36*
X270200Y129953D02*
X262295D01*
Y122047D01*
X270200D01*
Y129953D01*
D02*
G37*
G36*
X331806Y123630D02*
X328747D01*
Y120768D01*
X331806D01*
Y123630D01*
D02*
G37*
G36*
X327747D02*
X324688D01*
Y120768D01*
X327747D01*
Y123630D01*
D02*
G37*
G36*
X256200Y129953D02*
X248294D01*
Y122047D01*
X256200D01*
Y129953D01*
D02*
G37*
G36*
X242200D02*
X234295D01*
Y122047D01*
X242200D01*
Y129953D01*
D02*
G37*
G36*
X280247Y139987D02*
X279215Y139851D01*
X278254Y139453D01*
X277428Y138819D01*
X276795Y137993D01*
X276396Y137032D01*
X276260Y136000D01*
X276396Y134968D01*
X276795Y134007D01*
X277428Y133181D01*
X278254Y132547D01*
X279215Y132149D01*
X280247Y132013D01*
X281279Y132149D01*
X282241Y132547D01*
X283066Y133181D01*
X283700Y134007D01*
X284098Y134968D01*
X284234Y136000D01*
X284098Y137032D01*
X283700Y137993D01*
X283066Y138819D01*
X282241Y139453D01*
X281279Y139851D01*
X280247Y139987D01*
D02*
G37*
G36*
X266247D02*
X265215Y139851D01*
X264254Y139453D01*
X263428Y138819D01*
X262794Y137993D01*
X262396Y137032D01*
X262260Y136000D01*
X262396Y134968D01*
X262794Y134007D01*
X263428Y133181D01*
X264254Y132547D01*
X265215Y132149D01*
X266247Y132013D01*
X267279Y132149D01*
X268241Y132547D01*
X269066Y133181D01*
X269700Y134007D01*
X270098Y134968D01*
X270234Y136000D01*
X270098Y137032D01*
X269700Y137993D01*
X269066Y138819D01*
X268241Y139453D01*
X267279Y139851D01*
X266247Y139987D01*
D02*
G37*
G36*
X64648Y135024D02*
X61605D01*
Y133300D01*
X66772D01*
X66703Y133651D01*
X66220Y134372D01*
X65499Y134854D01*
X64648Y135024D01*
D02*
G37*
G36*
X60605D02*
X57561D01*
X56710Y134854D01*
X55989Y134372D01*
X55507Y133651D01*
X55437Y133300D01*
X60605D01*
Y135024D01*
D02*
G37*
G36*
X66772Y132300D02*
X61605D01*
Y130576D01*
X64648D01*
X65499Y130745D01*
X66220Y131228D01*
X66703Y131949D01*
X66772Y132300D01*
D02*
G37*
G36*
X137684Y133500D02*
X135216D01*
Y130441D01*
X137684D01*
Y133500D01*
D02*
G37*
G36*
X460272Y132599D02*
X458000D01*
Y126194D01*
X460272D01*
Y132599D01*
D02*
G37*
G36*
X60605Y132300D02*
X55437D01*
X55507Y131949D01*
X55989Y131228D01*
X56710Y130745D01*
X57561Y130576D01*
X60605D01*
Y132300D01*
D02*
G37*
G36*
X141153Y133500D02*
X138684D01*
Y130441D01*
X141153D01*
Y133500D01*
D02*
G37*
G36*
X80062Y197500D02*
X75648D01*
X75752Y196711D01*
X76250Y195510D01*
X77041Y194479D01*
X78072Y193687D01*
X79273Y193190D01*
X80062Y193086D01*
Y197500D01*
D02*
G37*
G36*
X15444Y423987D02*
X14412Y423851D01*
X13451Y423453D01*
X12625Y422820D01*
X11991Y421994D01*
X11593Y421032D01*
X11457Y420000D01*
X11593Y418968D01*
X11991Y418007D01*
X12625Y417181D01*
X13451Y416548D01*
X14412Y416149D01*
X15444Y416013D01*
X16476Y416149D01*
X17437Y416548D01*
X18263Y417181D01*
X18897Y418007D01*
X19295Y418968D01*
X19431Y420000D01*
X19295Y421032D01*
X18897Y421994D01*
X18263Y422820D01*
X17437Y423453D01*
X16476Y423851D01*
X15444Y423987D01*
D02*
G37*
G36*
X100906Y416106D02*
X97847D01*
Y413637D01*
X100906D01*
Y416106D01*
D02*
G37*
G36*
X97806Y440969D02*
X90688D01*
Y434244D01*
X92208D01*
Y432905D01*
X90688D01*
Y426968D01*
X97806D01*
Y432905D01*
X96286D01*
Y434244D01*
X97806D01*
Y440969D01*
D02*
G37*
G36*
X15444Y433987D02*
X14412Y433851D01*
X13451Y433453D01*
X12625Y432820D01*
X11991Y431994D01*
X11593Y431032D01*
X11457Y430000D01*
X11593Y428968D01*
X11991Y428007D01*
X12625Y427181D01*
X13451Y426548D01*
X14412Y426149D01*
X15444Y426014D01*
X16476Y426149D01*
X17437Y426548D01*
X18263Y427181D01*
X18897Y428007D01*
X19295Y428968D01*
X19431Y430000D01*
X19295Y431032D01*
X18897Y431994D01*
X18263Y432820D01*
X17437Y433453D01*
X16476Y433851D01*
X15444Y433987D01*
D02*
G37*
G36*
X100906Y412637D02*
X97847D01*
Y410169D01*
X100906D01*
Y412637D01*
D02*
G37*
G36*
X96847Y416106D02*
X93788D01*
Y415220D01*
X91072D01*
Y412939D01*
Y410661D01*
X93788D01*
Y410169D01*
X96847D01*
Y413136D01*
Y416106D01*
D02*
G37*
G36*
X90072Y415220D02*
X87209D01*
Y413440D01*
X90072D01*
Y415220D01*
D02*
G37*
G36*
Y412440D02*
X87209D01*
Y410661D01*
X90072D01*
Y412440D01*
D02*
G37*
G36*
X109100Y447917D02*
X108068Y447781D01*
X107107Y447383D01*
X106281Y446749D01*
X105647Y445923D01*
X105249Y444962D01*
X105113Y443930D01*
X105249Y442898D01*
X105647Y441937D01*
X106281Y441111D01*
X107107Y440477D01*
X108068Y440079D01*
X109100Y439943D01*
X110132Y440079D01*
X111093Y440477D01*
X111919Y441111D01*
X112553Y441937D01*
X112951Y442898D01*
X113087Y443930D01*
X112951Y444962D01*
X112553Y445923D01*
X111919Y446749D01*
X111093Y447383D01*
X110132Y447781D01*
X109100Y447917D01*
D02*
G37*
G36*
X15444Y443987D02*
X14412Y443851D01*
X13451Y443453D01*
X12625Y442819D01*
X11991Y441994D01*
X11593Y441032D01*
X11457Y440000D01*
X11593Y438968D01*
X11991Y438007D01*
X12625Y437181D01*
X13451Y436548D01*
X14412Y436149D01*
X15444Y436014D01*
X16476Y436149D01*
X17437Y436548D01*
X18263Y437181D01*
X18897Y438007D01*
X19295Y438968D01*
X19431Y440000D01*
X19295Y441032D01*
X18897Y441994D01*
X18263Y442819D01*
X17437Y443453D01*
X16476Y443851D01*
X15444Y443987D01*
D02*
G37*
G36*
X129100Y447917D02*
X128068Y447781D01*
X127107Y447383D01*
X126281Y446749D01*
X125647Y445923D01*
X125249Y444962D01*
X125113Y443930D01*
X125249Y442898D01*
X125647Y441937D01*
X126281Y441111D01*
X127107Y440477D01*
X128068Y440079D01*
X129100Y439943D01*
X130132Y440079D01*
X131093Y440477D01*
X131919Y441111D01*
X132553Y441937D01*
X132951Y442898D01*
X133087Y443930D01*
X132951Y444962D01*
X132553Y445923D01*
X131919Y446749D01*
X131093Y447383D01*
X130132Y447781D01*
X129100Y447917D01*
D02*
G37*
G36*
X119100D02*
X118068Y447781D01*
X117107Y447383D01*
X116281Y446749D01*
X115647Y445923D01*
X115249Y444962D01*
X115113Y443930D01*
X115249Y442898D01*
X115647Y441937D01*
X116281Y441111D01*
X117107Y440477D01*
X118068Y440079D01*
X119100Y439943D01*
X120132Y440079D01*
X121093Y440477D01*
X121919Y441111D01*
X122553Y441937D01*
X122951Y442898D01*
X123087Y443930D01*
X122951Y444962D01*
X122553Y445923D01*
X121919Y446749D01*
X121093Y447383D01*
X120132Y447781D01*
X119100Y447917D01*
D02*
G37*
G36*
Y437917D02*
X118068Y437781D01*
X117107Y437383D01*
X116281Y436749D01*
X115647Y435923D01*
X115249Y434962D01*
X115113Y433930D01*
X115249Y432898D01*
X115647Y431937D01*
X116281Y431111D01*
X117107Y430477D01*
X118068Y430079D01*
X119100Y429943D01*
X120132Y430079D01*
X121093Y430477D01*
X121919Y431111D01*
X122553Y431937D01*
X122951Y432898D01*
X123087Y433930D01*
X122951Y434962D01*
X122553Y435923D01*
X121919Y436749D01*
X121093Y437383D01*
X120132Y437781D01*
X119100Y437917D01*
D02*
G37*
G36*
X109100D02*
X108068Y437781D01*
X107107Y437383D01*
X106281Y436749D01*
X105647Y435923D01*
X105249Y434962D01*
X105113Y433930D01*
X105249Y432898D01*
X105647Y431937D01*
X106281Y431111D01*
X107107Y430477D01*
X108068Y430079D01*
X109100Y429943D01*
X110132Y430079D01*
X111093Y430477D01*
X111919Y431111D01*
X112553Y431937D01*
X112951Y432898D01*
X113087Y433930D01*
X112951Y434962D01*
X112553Y435923D01*
X111919Y436749D01*
X111093Y437383D01*
X110132Y437781D01*
X109100Y437917D01*
D02*
G37*
G36*
X139100D02*
X138068Y437781D01*
X137107Y437383D01*
X136281Y436749D01*
X135647Y435923D01*
X135249Y434962D01*
X135113Y433930D01*
X135249Y432898D01*
X135647Y431937D01*
X136281Y431111D01*
X137107Y430477D01*
X138068Y430079D01*
X139100Y429943D01*
X140132Y430079D01*
X141093Y430477D01*
X141919Y431111D01*
X142553Y431937D01*
X142951Y432898D01*
X143087Y433930D01*
X142951Y434962D01*
X142553Y435923D01*
X141919Y436749D01*
X141093Y437383D01*
X140132Y437781D01*
X139100Y437917D01*
D02*
G37*
G36*
X129100D02*
X128068Y437781D01*
X127107Y437383D01*
X126281Y436749D01*
X125647Y435923D01*
X125249Y434962D01*
X125113Y433930D01*
X125249Y432898D01*
X125647Y431937D01*
X126281Y431111D01*
X127107Y430477D01*
X128068Y430079D01*
X129100Y429943D01*
X130132Y430079D01*
X131093Y430477D01*
X131919Y431111D01*
X132553Y431937D01*
X132951Y432898D01*
X133087Y433930D01*
X132951Y434962D01*
X132553Y435923D01*
X131919Y436749D01*
X131093Y437383D01*
X130132Y437781D01*
X129100Y437917D01*
D02*
G37*
G36*
X103806Y400906D02*
X100747D01*
Y398437D01*
X103806D01*
Y400906D01*
D02*
G37*
G36*
X105806Y381437D02*
X102747D01*
Y378969D01*
X105806D01*
Y381437D01*
D02*
G37*
G36*
X101747Y384906D02*
X98688D01*
Y383320D01*
X98234D01*
Y383320D01*
X95372D01*
Y381039D01*
Y378761D01*
X98234D01*
Y378969D01*
X98688D01*
Y378969D01*
X101747D01*
Y381936D01*
Y384906D01*
D02*
G37*
G36*
X105806D02*
X102747D01*
Y382437D01*
X105806D01*
Y384906D01*
D02*
G37*
G36*
X94372Y383320D02*
X91509D01*
Y381540D01*
X94372D01*
Y383320D01*
D02*
G37*
G36*
X358086Y348147D02*
X353550D01*
Y345383D01*
X358086D01*
Y348147D01*
D02*
G37*
G36*
X363621Y344383D02*
X359086D01*
Y341619D01*
X363621D01*
Y344383D01*
D02*
G37*
G36*
X94372Y380540D02*
X91509D01*
Y378761D01*
X94372D01*
Y380540D01*
D02*
G37*
G36*
X363621Y348147D02*
X359086D01*
Y345383D01*
X363621D01*
Y348147D01*
D02*
G37*
G36*
X91472Y398920D02*
X88609D01*
Y397140D01*
X91472D01*
Y398920D01*
D02*
G37*
G36*
X103806Y397437D02*
X100747D01*
Y394969D01*
X103806D01*
Y397437D01*
D02*
G37*
G36*
X99747Y400906D02*
X96688D01*
Y398437D01*
X99747D01*
Y400906D01*
D02*
G37*
G36*
X95334Y398920D02*
X92472D01*
Y397140D01*
X95334D01*
Y398920D01*
D02*
G37*
G36*
X91472Y396140D02*
X88609D01*
Y394361D01*
X91472D01*
Y396140D01*
D02*
G37*
G36*
X463720Y402871D02*
X453452D01*
Y392603D01*
X463720D01*
Y402871D01*
D02*
G37*
G36*
X99747Y397437D02*
X96688D01*
Y394969D01*
X99747D01*
Y397437D01*
D02*
G37*
G36*
X95334Y396140D02*
X92472D01*
Y394361D01*
X95334D01*
Y396140D01*
D02*
G37*
G36*
X139100Y447917D02*
X138068Y447781D01*
X137107Y447383D01*
X136281Y446749D01*
X135647Y445923D01*
X135249Y444962D01*
X135113Y443930D01*
X135249Y442898D01*
X135647Y441937D01*
X136281Y441111D01*
X137107Y440477D01*
X138068Y440079D01*
X139100Y439943D01*
X140132Y440079D01*
X141093Y440477D01*
X141919Y441111D01*
X142553Y441937D01*
X142951Y442898D01*
X143087Y443930D01*
X142951Y444962D01*
X142553Y445923D01*
X141919Y446749D01*
X141093Y447383D01*
X140132Y447781D01*
X139100Y447917D01*
D02*
G37*
G36*
X375047Y489900D02*
X371626D01*
X371696Y489368D01*
X372094Y488407D01*
X372728Y487581D01*
X373554Y486947D01*
X374515Y486549D01*
X375047Y486479D01*
Y489900D01*
D02*
G37*
G36*
X173747Y485921D02*
X173215Y485851D01*
X172254Y485453D01*
X171428Y484819D01*
X170794Y483993D01*
X170396Y483032D01*
X170326Y482500D01*
X173747D01*
Y485921D01*
D02*
G37*
G36*
X174247Y495987D02*
X173215Y495851D01*
X172254Y495453D01*
X171428Y494819D01*
X170794Y493993D01*
X170396Y493032D01*
X170260Y492000D01*
X170396Y490968D01*
X170794Y490007D01*
X171428Y489181D01*
X172254Y488547D01*
X173215Y488149D01*
X174247Y488013D01*
X175279Y488149D01*
X176241Y488547D01*
X177066Y489181D01*
X177700Y490007D01*
X178098Y490968D01*
X178234Y492000D01*
X178098Y493032D01*
X177700Y493993D01*
X177066Y494819D01*
X176241Y495453D01*
X175279Y495851D01*
X174247Y495987D01*
D02*
G37*
G36*
X379468Y489900D02*
X376047D01*
Y486479D01*
X376579Y486549D01*
X377541Y486947D01*
X378366Y487581D01*
X379000Y488407D01*
X379398Y489368D01*
X379468Y489900D01*
D02*
G37*
G36*
X34471Y496112D02*
X20185D01*
Y481826D01*
X22004Y481969D01*
X24266Y482512D01*
X26416Y483402D01*
X28399Y484618D01*
X30168Y486129D01*
X31679Y487898D01*
X32894Y489881D01*
X33785Y492031D01*
X34328Y494293D01*
X34471Y496112D01*
D02*
G37*
G36*
X19185D02*
X4899D01*
X5042Y494293D01*
X5585Y492031D01*
X6476Y489881D01*
X7691Y487898D01*
X9202Y486129D01*
X10971Y484618D01*
X12955Y483402D01*
X15104Y482512D01*
X17366Y481969D01*
X19185Y481826D01*
Y496112D01*
D02*
G37*
G36*
X487227D02*
X472941D01*
Y481826D01*
X474760Y481969D01*
X477022Y482512D01*
X479172Y483402D01*
X481155Y484618D01*
X482924Y486129D01*
X484435Y487898D01*
X485650Y489881D01*
X486541Y492031D01*
X487084Y494293D01*
X487227Y496112D01*
D02*
G37*
G36*
X471941D02*
X457655D01*
X457798Y494293D01*
X458341Y492031D01*
X459232Y489881D01*
X460447Y487898D01*
X461958Y486129D01*
X463727Y484618D01*
X465710Y483402D01*
X467860Y482512D01*
X470122Y481969D01*
X471941Y481826D01*
Y496112D01*
D02*
G37*
G36*
Y511398D02*
X470122Y511255D01*
X467860Y510711D01*
X465710Y509821D01*
X463727Y508606D01*
X461958Y507095D01*
X460447Y505326D01*
X459232Y503342D01*
X458341Y501193D01*
X457798Y498931D01*
X457655Y497112D01*
X471941D01*
Y511398D01*
D02*
G37*
G36*
X20185D02*
Y497112D01*
X34471D01*
X34328Y498931D01*
X33785Y501193D01*
X32894Y503342D01*
X31679Y505326D01*
X30168Y507095D01*
X28399Y508606D01*
X26416Y509821D01*
X24266Y510711D01*
X22004Y511255D01*
X20185Y511398D01*
D02*
G37*
G36*
X392267Y509036D02*
X369900D01*
Y501100D01*
X392267D01*
Y509036D01*
D02*
G37*
G36*
X472941Y511398D02*
Y497112D01*
X487227D01*
X487084Y498931D01*
X486541Y501193D01*
X485650Y503342D01*
X484435Y505326D01*
X482924Y507095D01*
X481155Y508606D01*
X479172Y509821D01*
X477022Y510711D01*
X474760Y511255D01*
X472941Y511398D01*
D02*
G37*
G36*
X376047Y494321D02*
Y490900D01*
X379468D01*
X379398Y491432D01*
X379000Y492393D01*
X378366Y493219D01*
X377541Y493853D01*
X376579Y494251D01*
X376047Y494321D01*
D02*
G37*
G36*
X375047D02*
X374515Y494251D01*
X373554Y493853D01*
X372728Y493219D01*
X372094Y492393D01*
X371696Y491432D01*
X371626Y490900D01*
X375047D01*
Y494321D01*
D02*
G37*
G36*
X19185Y511398D02*
X17366Y511255D01*
X15104Y510711D01*
X12955Y509821D01*
X10971Y508606D01*
X9202Y507095D01*
X7691Y505326D01*
X6476Y503342D01*
X5585Y501193D01*
X5042Y498931D01*
X4899Y497112D01*
X19185D01*
Y511398D01*
D02*
G37*
G36*
X312700Y509839D02*
X69247D01*
X68467Y509684D01*
X68202Y509507D01*
X67805Y509242D01*
X67805Y509242D01*
X46805Y488242D01*
X46363Y487580D01*
X46208Y486800D01*
Y447800D01*
X46208Y447800D01*
X46208D01*
X46363Y447020D01*
X46805Y446358D01*
X62705Y430458D01*
X62705Y430458D01*
X63367Y430016D01*
X63367Y430016D01*
X63367Y430016D01*
D01*
X63367Y430016D01*
X63367Y430016D01*
X64147Y429861D01*
X64147Y429861D01*
X66475D01*
X66593Y428968D01*
X66991Y428007D01*
X67625Y427181D01*
X68451Y426548D01*
X69412Y426149D01*
X70002Y426072D01*
X70162Y425598D01*
X69002Y424438D01*
X68560Y423776D01*
X68500Y423473D01*
X68451Y423453D01*
X67625Y422820D01*
X66991Y421994D01*
X66593Y421032D01*
X66457Y420000D01*
X66593Y418968D01*
X66991Y418007D01*
X67625Y417181D01*
X68451Y416548D01*
X69412Y416149D01*
X70444Y416013D01*
X70862Y416069D01*
X71083Y415620D01*
X61105Y405642D01*
X60663Y404980D01*
X60508Y404200D01*
Y349790D01*
X60508Y349790D01*
X60508D01*
X60663Y349010D01*
X61105Y348348D01*
X75943Y333511D01*
X76043Y333444D01*
X76417Y332957D01*
X76454Y332730D01*
X75889Y331993D01*
X75491Y331032D01*
X75355Y330000D01*
X75491Y328968D01*
X75889Y328007D01*
X76523Y327181D01*
X77348Y326547D01*
X78310Y326149D01*
X79342Y326013D01*
X80374Y326149D01*
X81335Y326547D01*
X82161Y327181D01*
X82794Y328007D01*
X83193Y328968D01*
X83329Y330000D01*
X83193Y331032D01*
X82794Y331993D01*
X82161Y332819D01*
X82193Y332914D01*
X86295D01*
Y330047D01*
X94200D01*
Y337953D01*
X86295D01*
Y336992D01*
X82581D01*
X82360Y337440D01*
X82794Y338007D01*
X83193Y338968D01*
X83329Y340000D01*
X83193Y341032D01*
X82794Y341993D01*
X82161Y342819D01*
X82144Y342832D01*
X82247Y343061D01*
X86384D01*
X86396Y342968D01*
X86795Y342007D01*
X87428Y341181D01*
X88254Y340547D01*
X89215Y340149D01*
X90247Y340013D01*
X91279Y340149D01*
X92241Y340547D01*
X93066Y341181D01*
X93700Y342007D01*
X94098Y342968D01*
X94234Y344000D01*
X94098Y345032D01*
X93700Y345993D01*
X93066Y346819D01*
X92241Y347453D01*
X91279Y347851D01*
X90247Y347987D01*
X89215Y347851D01*
X88254Y347453D01*
X87845Y347139D01*
X83092D01*
X78186Y352045D01*
Y355556D01*
X78453Y355734D01*
X78648Y355815D01*
X80805Y353658D01*
X81467Y353216D01*
X82247Y353061D01*
X86384D01*
X86396Y352968D01*
X86795Y352007D01*
X87428Y351181D01*
X88254Y350547D01*
X89215Y350149D01*
X90247Y350013D01*
X91279Y350149D01*
X92241Y350547D01*
X93066Y351181D01*
X93700Y352007D01*
X94098Y352968D01*
X94234Y354000D01*
X94098Y355032D01*
X93700Y355993D01*
X93066Y356819D01*
X92241Y357453D01*
X91279Y357851D01*
X90247Y357987D01*
X89215Y357851D01*
X88254Y357453D01*
X87845Y357139D01*
X83092D01*
X82100Y358131D01*
Y367940D01*
X82578Y368085D01*
X82981Y367482D01*
X86284Y364179D01*
X86260Y364000D01*
X86396Y362968D01*
X86795Y362007D01*
X87428Y361181D01*
X88254Y360547D01*
X89215Y360149D01*
X90247Y360013D01*
X91279Y360149D01*
X92241Y360547D01*
X93066Y361181D01*
X93700Y362007D01*
X94098Y362968D01*
X94234Y364000D01*
X94098Y365032D01*
X93700Y365993D01*
X93066Y366819D01*
X92241Y367453D01*
X91279Y367851D01*
X90247Y367987D01*
X89215Y367851D01*
X88625Y367606D01*
X86462Y369769D01*
Y375021D01*
X87785D01*
Y379579D01*
X83596D01*
X83360Y380020D01*
X83407Y380090D01*
X83562Y380870D01*
Y390620D01*
X84885D01*
Y395180D01*
X80869D01*
X80678Y395641D01*
X81565Y396528D01*
X82007Y397190D01*
X82162Y397970D01*
Y406920D01*
X83485D01*
Y411480D01*
X76761D01*
Y406920D01*
X78084D01*
Y398815D01*
X74705Y395437D01*
X74263Y394775D01*
X74108Y393995D01*
Y351200D01*
X74108Y351200D01*
X74108D01*
X74263Y350420D01*
X74705Y349758D01*
X80099Y344365D01*
X79878Y343916D01*
X79342Y343987D01*
X78310Y343851D01*
X77348Y343453D01*
X76523Y342819D01*
X75889Y341993D01*
X75491Y341032D01*
X75413Y340442D01*
X74940Y340282D01*
X64586Y350635D01*
Y403355D01*
X86089Y424858D01*
X86531Y425520D01*
X86686Y426300D01*
X86686Y426300D01*
X86686Y426300D01*
Y426300D01*
Y449100D01*
X86686Y449100D01*
X86531Y449880D01*
X86089Y450542D01*
X86089Y450542D01*
X80236Y456395D01*
X79575Y456837D01*
X78794Y456992D01*
X73684D01*
X73462Y457441D01*
X73862Y457961D01*
X74942D01*
X74944Y457961D01*
X81342D01*
Y456441D01*
X87279D01*
Y463559D01*
X81342D01*
Y462039D01*
X74945D01*
X74944Y462040D01*
X73862D01*
X73263Y462819D01*
X72438Y463453D01*
X71476Y463851D01*
X70444Y463987D01*
X69412Y463851D01*
X68451Y463453D01*
X67625Y462819D01*
X66991Y461994D01*
X66593Y461032D01*
X66457Y460000D01*
X66526Y459474D01*
X66078Y459253D01*
X61986Y463345D01*
Y482655D01*
X77892Y498561D01*
X220267D01*
X220458Y498099D01*
X217853Y495493D01*
X217491Y494953D01*
X216998Y494872D01*
X216241Y495453D01*
X215279Y495851D01*
X214247Y495987D01*
X213215Y495851D01*
X212254Y495453D01*
X211428Y494819D01*
X210794Y493993D01*
X210396Y493032D01*
X210260Y492000D01*
X210389Y491025D01*
X207758Y488395D01*
X207316Y487733D01*
X207161Y486953D01*
Y485312D01*
X206712Y485091D01*
X206241Y485453D01*
X205279Y485851D01*
X204247Y485987D01*
X204203Y486076D01*
X205689Y487562D01*
X205689Y487562D01*
X206131Y488224D01*
X206191Y488527D01*
X206241Y488547D01*
X207066Y489181D01*
X207700Y490007D01*
X208098Y490968D01*
X208234Y492000D01*
X208098Y493032D01*
X207700Y493993D01*
X207066Y494819D01*
X206241Y495453D01*
X205279Y495851D01*
X204247Y495987D01*
X203215Y495851D01*
X202254Y495453D01*
X201428Y494819D01*
X200795Y493993D01*
X200396Y493032D01*
X200260Y492000D01*
X200396Y490968D01*
X200795Y490007D01*
X201428Y489181D01*
X201435Y489076D01*
X197758Y485399D01*
X197691Y485298D01*
X197204Y484925D01*
X196977Y484887D01*
X196241Y485453D01*
X195279Y485851D01*
X194247Y485987D01*
X193215Y485851D01*
X192254Y485453D01*
X191428Y484819D01*
X190795Y483993D01*
X190396Y483032D01*
X190260Y482000D01*
X190396Y480968D01*
X190795Y480007D01*
X191428Y479181D01*
X192254Y478547D01*
X193215Y478149D01*
X194247Y478013D01*
X195279Y478149D01*
X196241Y478547D01*
X196712Y478909D01*
X197161Y478688D01*
Y477892D01*
X172705Y453436D01*
X172263Y452775D01*
X172108Y451995D01*
Y447169D01*
X171711Y446974D01*
X171286Y447238D01*
Y466155D01*
X180736Y475605D01*
X181178Y476267D01*
X181334Y477047D01*
X181334Y477047D01*
X181334Y477047D01*
Y477047D01*
Y478688D01*
X181782Y478909D01*
X182254Y478547D01*
X183215Y478149D01*
X183747Y478079D01*
Y482001D01*
X184246D01*
Y482500D01*
X188168D01*
X188098Y483032D01*
X187700Y483993D01*
X187066Y484819D01*
X187098Y484914D01*
X189200D01*
X189980Y485069D01*
X190642Y485511D01*
X190642Y485511D01*
X190642Y485511D01*
X193272Y488141D01*
X194247Y488013D01*
X195279Y488149D01*
X196241Y488547D01*
X197066Y489181D01*
X197700Y490007D01*
X198098Y490968D01*
X198234Y492000D01*
X198098Y493032D01*
X197700Y493993D01*
X197066Y494819D01*
X196241Y495453D01*
X195279Y495851D01*
X194247Y495987D01*
X193215Y495851D01*
X192254Y495453D01*
X191428Y494819D01*
X190795Y493993D01*
X190396Y493032D01*
X190260Y492000D01*
X190389Y491025D01*
X188355Y488992D01*
X187487D01*
X187266Y489440D01*
X187700Y490007D01*
X188098Y490968D01*
X188234Y492000D01*
X188098Y493032D01*
X187700Y493993D01*
X187066Y494819D01*
X186241Y495453D01*
X185279Y495851D01*
X184247Y495987D01*
X183215Y495851D01*
X182254Y495453D01*
X181428Y494819D01*
X180795Y493993D01*
X180396Y493032D01*
X180260Y492000D01*
X180396Y490968D01*
X180795Y490007D01*
X181376Y489249D01*
X181294Y488756D01*
X180754Y488395D01*
X177853Y485493D01*
X177491Y484953D01*
X176998Y484871D01*
X176241Y485453D01*
X175279Y485851D01*
X174747Y485921D01*
Y481999D01*
Y478079D01*
X175279Y478149D01*
X176241Y478547D01*
X176807Y478982D01*
X177255Y478761D01*
Y477892D01*
X167805Y468442D01*
X167363Y467780D01*
X167208Y467000D01*
Y447425D01*
X167107Y447383D01*
X166281Y446749D01*
X165647Y445923D01*
X165249Y444962D01*
X165113Y443930D01*
X165249Y442898D01*
X165647Y441937D01*
X166009Y441465D01*
X165788Y441016D01*
X164115D01*
X162741Y442390D01*
X162951Y442898D01*
X163087Y443930D01*
X162951Y444962D01*
X162553Y445923D01*
X161919Y446749D01*
X161093Y447383D01*
X160132Y447781D01*
X159100Y447917D01*
X158068Y447781D01*
X157107Y447383D01*
X156618Y447008D01*
X156169Y447229D01*
Y453417D01*
X156014Y454198D01*
X155572Y454859D01*
X148989Y461442D01*
X148328Y461884D01*
X147547Y462039D01*
X95153D01*
Y463559D01*
X89216D01*
Y456441D01*
X95153D01*
Y457961D01*
X146703D01*
X152091Y452573D01*
Y447183D01*
X151642Y446961D01*
X151093Y447383D01*
X150132Y447781D01*
X149100Y447917D01*
X148068Y447781D01*
X147107Y447383D01*
X146281Y446749D01*
X145647Y445923D01*
X145249Y444962D01*
X145113Y443930D01*
X145249Y442898D01*
X145647Y441937D01*
X146281Y441111D01*
X147107Y440477D01*
X148068Y440079D01*
X149100Y439943D01*
X150132Y440079D01*
X151093Y440477D01*
X151642Y440899D01*
X152091Y440677D01*
Y437183D01*
X151642Y436962D01*
X151093Y437383D01*
X150132Y437781D01*
X149100Y437917D01*
X148068Y437781D01*
X147107Y437383D01*
X146281Y436749D01*
X145647Y435923D01*
X145249Y434962D01*
X145113Y433930D01*
X145249Y432898D01*
X145647Y431937D01*
X146281Y431111D01*
X147107Y430477D01*
X148068Y430079D01*
X149100Y429943D01*
X150132Y430079D01*
X151093Y430477D01*
X151642Y430899D01*
X152091Y430677D01*
Y429617D01*
X152091Y429617D01*
X152091D01*
X152246Y428837D01*
X152688Y428175D01*
X155005Y425858D01*
X155667Y425416D01*
X156447Y425261D01*
X189847D01*
X190628Y425416D01*
X191289Y425858D01*
X191289Y425858D01*
X191289Y425858D01*
X195589Y430158D01*
X196031Y430820D01*
X196881Y430651D01*
X197107Y430477D01*
X197208Y430435D01*
Y428645D01*
X193303Y424739D01*
X97806D01*
Y425032D01*
X90688D01*
Y419095D01*
X97806D01*
Y420661D01*
X193871D01*
X194062Y420199D01*
X181166Y407302D01*
X100906D01*
Y408231D01*
X93788D01*
Y407739D01*
X87209D01*
Y403180D01*
X93788D01*
Y402294D01*
X100906D01*
Y403224D01*
X182010D01*
X182791Y403379D01*
X183452Y403821D01*
X205495Y425864D01*
X205495Y425864D01*
X205760Y426260D01*
X205937Y426525D01*
X206092Y427306D01*
Y430691D01*
X206540Y430912D01*
X207107Y430477D01*
X207208Y430435D01*
Y426445D01*
X172803Y392039D01*
X104164D01*
X103847Y392102D01*
X103806D01*
Y393032D01*
X96688D01*
Y391002D01*
X96190D01*
X96128Y391044D01*
X95347Y391199D01*
X95334D01*
Y391439D01*
X88609D01*
Y386880D01*
X95334D01*
Y386924D01*
X98747D01*
X99528Y387079D01*
X99551Y387094D01*
X103806D01*
Y387876D01*
X103910Y387961D01*
X173647D01*
X174428Y388116D01*
X174573Y388213D01*
X174890Y387826D01*
X163166Y376102D01*
X105806D01*
Y377031D01*
X98688D01*
Y375839D01*
X98234D01*
Y375839D01*
X91509D01*
Y371280D01*
X98234D01*
Y371280D01*
X98502D01*
X98688Y371094D01*
Y371094D01*
X105806D01*
Y372024D01*
X164010D01*
X164791Y372179D01*
X165452Y372621D01*
X165452Y372621D01*
X165452Y372621D01*
X220689Y427858D01*
X221131Y428520D01*
X221286Y429300D01*
X221286Y429300D01*
X221286Y429300D01*
Y429300D01*
Y430622D01*
X221711Y430886D01*
X222108Y430691D01*
Y428545D01*
X188105Y394542D01*
X187663Y393880D01*
X187508Y393100D01*
Y247549D01*
X187107Y247383D01*
X186281Y246749D01*
X185647Y245923D01*
X185249Y244962D01*
X185113Y243930D01*
X185249Y242898D01*
X185647Y241937D01*
X186281Y241111D01*
X187107Y240477D01*
X188068Y240079D01*
X189100Y239943D01*
X190132Y240079D01*
X191093Y240477D01*
X191660Y240912D01*
X192108Y240691D01*
Y237169D01*
X191660Y236948D01*
X191093Y237383D01*
X190132Y237781D01*
X189100Y237917D01*
X188068Y237781D01*
X187107Y237383D01*
X186281Y236749D01*
X185647Y235923D01*
X185249Y234962D01*
X185113Y233930D01*
X185249Y232898D01*
X185647Y231937D01*
X186281Y231111D01*
X187107Y230477D01*
X188068Y230079D01*
X189100Y229943D01*
X190132Y230079D01*
X191093Y230477D01*
X191660Y230912D01*
X192108Y230691D01*
Y229863D01*
Y225645D01*
X174705Y208242D01*
X174263Y207580D01*
X174108Y206800D01*
Y196854D01*
X172588D01*
Y195976D01*
X167806D01*
Y196906D01*
X160688D01*
Y190969D01*
X167806D01*
Y191898D01*
X172588D01*
Y190917D01*
X179706D01*
Y196854D01*
X178186D01*
Y205955D01*
X195589Y223358D01*
X196031Y224020D01*
X196186Y224800D01*
X196186Y224800D01*
X196186Y224800D01*
Y224800D01*
Y230618D01*
X196635Y230839D01*
X197107Y230477D01*
X198068Y230079D01*
X199100Y229943D01*
X200132Y230079D01*
X201093Y230477D01*
X201592Y230860D01*
X202041Y230639D01*
Y221655D01*
X194705Y214319D01*
X194263Y213658D01*
X194108Y212877D01*
Y196854D01*
X192588D01*
Y190917D01*
X199706D01*
Y196854D01*
X198186D01*
Y212033D01*
X205522Y219368D01*
X205964Y220030D01*
X206119Y220810D01*
X206119Y220810D01*
Y230670D01*
X206568Y230891D01*
X207107Y230477D01*
X208068Y230079D01*
X209100Y229943D01*
X210132Y230079D01*
X211093Y230477D01*
X211652Y230906D01*
X212101Y230685D01*
Y222245D01*
X204705Y214849D01*
X204263Y214188D01*
X204108Y213407D01*
Y196854D01*
X202588D01*
Y190917D01*
X209706D01*
Y196854D01*
X208186D01*
Y212563D01*
X215582Y219958D01*
X216024Y220620D01*
X216179Y221400D01*
X216179Y221400D01*
X216179Y221400D01*
Y221400D01*
Y230624D01*
X216628Y230845D01*
X217107Y230477D01*
X218068Y230079D01*
X219100Y229943D01*
X220132Y230079D01*
X221093Y230477D01*
X221919Y231111D01*
X222553Y231937D01*
X222951Y232898D01*
X223087Y233930D01*
X222951Y234962D01*
X222553Y235923D01*
X221919Y236749D01*
X221093Y237383D01*
X220132Y237781D01*
X219100Y237917D01*
X218068Y237781D01*
X217107Y237383D01*
X216628Y237015D01*
X216179Y237236D01*
Y240624D01*
X216628Y240845D01*
X217107Y240477D01*
X218068Y240079D01*
X219100Y239943D01*
X220132Y240079D01*
X221093Y240477D01*
X221919Y241111D01*
X222553Y241937D01*
X222951Y242898D01*
X223087Y243930D01*
X222951Y244962D01*
X222553Y245923D01*
X221919Y246749D01*
X221093Y247383D01*
X220132Y247781D01*
X219100Y247917D01*
X218068Y247781D01*
X217107Y247383D01*
X216628Y247015D01*
X216179Y247236D01*
Y253160D01*
X216179Y253160D01*
X216024Y253940D01*
X215582Y254602D01*
X205486Y264697D01*
Y379255D01*
X250689Y424458D01*
X251131Y425120D01*
X251286Y425900D01*
X251286Y425900D01*
X251286Y425900D01*
Y425900D01*
Y430503D01*
X251711Y430767D01*
X252014Y430618D01*
Y427447D01*
X252169Y426667D01*
X252611Y426005D01*
X315490Y363126D01*
X315490D01*
X315490Y363126D01*
X315490Y363126D01*
Y363126D01*
X316152Y362684D01*
X316932Y362528D01*
X353550D01*
Y361304D01*
X353550D01*
Y360994D01*
X352942Y360873D01*
X352280Y360431D01*
X336805Y344956D01*
X336363Y344295D01*
X336208Y343514D01*
Y316100D01*
X336208Y316100D01*
X336208D01*
X336363Y315320D01*
X336805Y314658D01*
X347097Y304366D01*
X347759Y303924D01*
X348539Y303769D01*
X353550D01*
Y302732D01*
X353550Y302732D01*
X353550D01*
X353550Y302544D01*
Y302379D01*
D01*
D01*
D01*
X353550D01*
D01*
Y295851D01*
X363155D01*
X363433Y295435D01*
X363204Y294883D01*
X363062Y293800D01*
X363204Y292717D01*
X363623Y291707D01*
X364288Y290841D01*
X365155Y290175D01*
X366164Y289757D01*
X367247Y289615D01*
X368331Y289757D01*
X369340Y290175D01*
X370207Y290841D01*
X370872Y291707D01*
X371290Y292717D01*
X371433Y293800D01*
X371290Y294883D01*
X370872Y295893D01*
X370207Y296760D01*
X369340Y297425D01*
X368331Y297843D01*
X367247Y297985D01*
X366164Y297843D01*
X365155Y297425D01*
X364288Y296760D01*
X364095Y296508D01*
X363621Y296669D01*
Y302190D01*
X363621Y302190D01*
D01*
D01*
X363621Y302379D01*
Y302398D01*
Y302461D01*
X363621Y302544D01*
X363621Y302732D01*
X363621Y302732D01*
X363621D01*
Y309072D01*
X353550D01*
Y307847D01*
X349384D01*
X340286Y316945D01*
Y342670D01*
X353088Y355472D01*
X353550Y355280D01*
Y351461D01*
X363621D01*
Y352686D01*
X375372D01*
X376153Y352841D01*
X376814Y353283D01*
X376814Y353283D01*
X376814Y353283D01*
X381489Y357958D01*
X381489Y357958D01*
X381931Y358620D01*
X381931Y358620D01*
X381931Y358620D01*
X382086Y359400D01*
X382086Y359400D01*
Y381800D01*
X382086Y381800D01*
X381931Y382580D01*
X381489Y383242D01*
X376151Y388580D01*
X375489Y389023D01*
X374709Y389178D01*
Y389210D01*
X375062Y389564D01*
X379796D01*
X384508Y384852D01*
Y335245D01*
X376500Y327237D01*
X363621D01*
Y328461D01*
X353550D01*
D01*
X353550D01*
X353286Y328725D01*
Y331776D01*
X353550D01*
Y331776D01*
X363621D01*
Y338304D01*
X353550D01*
Y336722D01*
X352430D01*
X351650Y336567D01*
X350988Y336125D01*
X349805Y334942D01*
X349363Y334280D01*
X349208Y333500D01*
Y322100D01*
X349208Y322100D01*
X349208D01*
X349363Y321320D01*
X349805Y320658D01*
X352205Y318258D01*
X352205D01*
X352205Y318258D01*
X352205Y318258D01*
Y318258D01*
X352867Y317816D01*
X353550Y317680D01*
Y315855D01*
X363621D01*
Y317661D01*
X389255D01*
Y288698D01*
X380027D01*
Y278430D01*
X389255D01*
Y227439D01*
X370113Y208297D01*
X369671Y207635D01*
X369516Y206855D01*
Y198890D01*
X361132Y190506D01*
X357488D01*
Y189394D01*
X310647D01*
X309769Y189219D01*
X309025Y188722D01*
X294325Y174022D01*
X293828Y173278D01*
X293653Y172400D01*
Y158199D01*
X293460D01*
X293299D01*
D01*
D01*
Y158199D01*
X285300D01*
Y154199D01*
X293299D01*
Y154199D01*
X293299D01*
D01*
X293653Y153846D01*
Y140898D01*
X293653D01*
X293399D01*
X293300Y140898D01*
X293300Y140898D01*
Y140898D01*
X292899D01*
Y141300D01*
X292899D01*
Y151298D01*
X284900D01*
Y141300D01*
X285400D01*
Y140898D01*
X285400D01*
Y130900D01*
X293399D01*
Y137503D01*
X293877Y137648D01*
X294325Y136978D01*
X294325Y136978D01*
X294325Y136978D01*
X303325Y127978D01*
X303325D01*
X303325Y127978D01*
X303325Y127978D01*
Y127978D01*
X304069Y127480D01*
X304947Y127306D01*
X334567D01*
Y122906D01*
X332688D01*
Y116969D01*
X339806D01*
Y117898D01*
X343661D01*
Y115004D01*
X340268Y111612D01*
X339806Y111803D01*
Y115032D01*
X332688D01*
Y113646D01*
X331806D01*
Y114969D01*
X324688D01*
Y108244D01*
X331806D01*
Y109567D01*
X332688D01*
Y109095D01*
X337098D01*
X337289Y108633D01*
X333496Y104839D01*
X254494D01*
X254144Y105296D01*
X253412Y105857D01*
X252561Y106210D01*
X251647Y106330D01*
X250734Y106210D01*
X249882Y105857D01*
X249151Y105296D01*
X248590Y104565D01*
X248237Y103714D01*
X248117Y102800D01*
X248237Y101886D01*
X248590Y101035D01*
X249151Y100304D01*
X249882Y99743D01*
X250734Y99390D01*
X251647Y99270D01*
X252561Y99390D01*
X253412Y99743D01*
X254144Y100304D01*
X254494Y100761D01*
X334340D01*
X335121Y100916D01*
X335782Y101358D01*
X335782Y101358D01*
X335782Y101358D01*
X347142Y112718D01*
X347584Y113379D01*
X347739Y114160D01*
X347739Y114160D01*
Y118441D01*
X349279D01*
Y125559D01*
X343342D01*
Y121976D01*
X339806D01*
Y122906D01*
X338646D01*
Y136726D01*
X343512D01*
Y144916D01*
X348753D01*
Y142572D01*
X346023D01*
Y137028D01*
X359834D01*
Y142572D01*
X353401D01*
X353341Y142631D01*
Y147210D01*
X353167Y148088D01*
X352669Y148832D01*
X351925Y149330D01*
X351047Y149504D01*
X343512D01*
Y154041D01*
X346079D01*
Y161159D01*
X340142D01*
Y159194D01*
X338247D01*
X337369Y159019D01*
X336625Y158522D01*
X334984Y156881D01*
X334487Y156137D01*
X334312Y155259D01*
Y154474D01*
X329701D01*
Y136726D01*
X334567D01*
Y131894D01*
X305897D01*
X298241Y139550D01*
Y171450D01*
X309184Y182392D01*
X309646Y182201D01*
Y182201D01*
X309646D01*
Y178317D01*
X305525Y174196D01*
X305028Y173452D01*
X304853Y172574D01*
Y154474D01*
X302142D01*
Y136726D01*
X315953D01*
Y154474D01*
X309441D01*
Y161620D01*
X309646Y161824D01*
X309795Y161824D01*
X309795Y161824D01*
Y161824D01*
X312547D01*
Y165599D01*
Y169376D01*
X309795D01*
X309795Y169376D01*
Y169376D01*
X309646Y169376D01*
X309441Y169580D01*
Y171624D01*
X312516Y174698D01*
X316449D01*
Y178631D01*
X317623Y179806D01*
X327535D01*
X327584Y179308D01*
X326810Y179155D01*
X326787Y179139D01*
X324610D01*
X323830Y178984D01*
X323168Y178542D01*
X321132Y176505D01*
X317488D01*
Y170569D01*
X324606D01*
Y174212D01*
X325455Y175061D01*
X326787D01*
X326810Y175046D01*
X327661Y174876D01*
X334748D01*
X335599Y175046D01*
X336320Y175528D01*
X336803Y176249D01*
X336972Y177100D01*
X336803Y177951D01*
X336320Y178673D01*
X335599Y179155D01*
X334748Y179324D01*
X331332D01*
X331283Y179821D01*
X331558Y179876D01*
X334748D01*
X335599Y180045D01*
X336320Y180527D01*
X336803Y181249D01*
X336972Y182100D01*
X336803Y182951D01*
X336320Y183672D01*
X335599Y184154D01*
X334826Y184308D01*
X334875Y184806D01*
X337997D01*
X342325Y180478D01*
X343069Y179981D01*
X343947Y179806D01*
X347219D01*
X347269Y179308D01*
X346495Y179155D01*
X345774Y178673D01*
X345292Y177951D01*
X345123Y177100D01*
X345292Y176249D01*
X345774Y175528D01*
X346495Y175046D01*
X347346Y174876D01*
X350445D01*
X350781Y174506D01*
X350763Y174324D01*
X347346D01*
X346495Y174154D01*
X345774Y173672D01*
X345292Y172951D01*
X345123Y172100D01*
X345292Y171249D01*
X345774Y170528D01*
X346495Y170045D01*
X347346Y169876D01*
X348690D01*
Y169159D01*
X348016D01*
Y162041D01*
X348690D01*
Y161159D01*
X348016D01*
Y154041D01*
X353953D01*
Y161159D01*
X353278D01*
Y162041D01*
X353953D01*
Y169159D01*
X353278D01*
Y169876D01*
X354433D01*
X355284Y170045D01*
X356006Y170528D01*
X356488Y171249D01*
X356657Y172100D01*
X356488Y172951D01*
X356006Y173672D01*
X355284Y174154D01*
X354511Y174308D01*
X354560Y174806D01*
X359053D01*
Y170910D01*
X359228Y170032D01*
X359725Y169288D01*
X359725Y169288D01*
X359725Y169288D01*
X361425Y167588D01*
X362169Y167091D01*
X363047Y166916D01*
X363925Y167091D01*
X364045Y167171D01*
X372458D01*
X373238Y167326D01*
X373899Y167768D01*
X373899Y167768D01*
X373899Y167768D01*
X379754Y173623D01*
X382172D01*
Y176041D01*
X404692Y198561D01*
X457203D01*
X471908Y183855D01*
Y162039D01*
X459826D01*
X459551Y162451D01*
X458807Y162948D01*
X457929Y163123D01*
X457051Y162948D01*
X456327Y162464D01*
X454241Y164550D01*
Y174794D01*
X455506D01*
Y180731D01*
X448388D01*
Y178494D01*
X444460D01*
X444411Y178992D01*
X445184Y179146D01*
X445906Y179628D01*
X446388Y180349D01*
X446557Y181200D01*
X446388Y182051D01*
X445906Y182773D01*
X445184Y183255D01*
X444333Y183424D01*
Y183552D01*
X444687Y183906D01*
X448388D01*
Y182668D01*
X455506D01*
Y188605D01*
X448388D01*
Y188494D01*
X421105D01*
X420537Y188381D01*
X415380D01*
Y184019D01*
X420304D01*
X420640Y183648D01*
X420643Y183683D01*
X420625Y183494D01*
X403349D01*
Y186350D01*
X396546D01*
Y182417D01*
X388325Y174196D01*
X387828Y173452D01*
X387653Y172574D01*
Y156574D01*
X383042D01*
Y138826D01*
X396853D01*
Y156574D01*
X392241D01*
Y171624D01*
X399416Y178798D01*
X403349D01*
Y178906D01*
X408035D01*
X408388Y178552D01*
Y172669D01*
X415389D01*
D01*
X415519Y172425D01*
D01*
X415625Y172228D01*
X415507Y172051D01*
X415437Y171700D01*
X420605D01*
Y173424D01*
X421232D01*
X421183Y173921D01*
X421458Y173976D01*
X424648D01*
X425499Y174145D01*
X426221Y174627D01*
X426703Y175349D01*
X426872Y176200D01*
X426703Y177051D01*
X426221Y177772D01*
X425499Y178254D01*
X424648Y178424D01*
X421458D01*
X421105Y178494D01*
Y178906D01*
X421458Y178976D01*
X424648D01*
X425499Y179146D01*
X426221Y179628D01*
X426703Y180349D01*
X426872Y181200D01*
X426703Y182051D01*
X426221Y182773D01*
X425499Y183255D01*
X424726Y183408D01*
X424775Y183906D01*
X430497D01*
X434825Y179578D01*
X435569Y179080D01*
X436447Y178906D01*
X437119D01*
X437169Y178408D01*
X436395Y178254D01*
X435674Y177772D01*
X435192Y177051D01*
X435023Y176200D01*
X435192Y175349D01*
X435674Y174627D01*
X436395Y174145D01*
X437247Y173976D01*
X440345D01*
X440681Y173606D01*
X440663Y173424D01*
X437247D01*
X436395Y173255D01*
X435674Y172773D01*
X435192Y172051D01*
X435023Y171200D01*
X435192Y170349D01*
X435674Y169627D01*
X435701Y169355D01*
X434262Y167917D01*
X433823Y167259D01*
X432916D01*
Y160141D01*
X433590D01*
Y157259D01*
X432916D01*
Y150141D01*
X438853D01*
Y157259D01*
X438178D01*
Y160141D01*
X438853D01*
Y166019D01*
X441517Y168683D01*
X441713Y168976D01*
X444333D01*
X445184Y169146D01*
X445906Y169627D01*
X446388Y170349D01*
X446557Y171200D01*
X446388Y172051D01*
X445906Y172773D01*
X445184Y173255D01*
X444411Y173408D01*
X444460Y173906D01*
X449653D01*
Y163600D01*
X449828Y162722D01*
X450325Y161978D01*
X454728Y157575D01*
Y146666D01*
X460272D01*
Y153835D01*
X460325Y154102D01*
Y157517D01*
X460272Y157784D01*
Y157961D01*
X476295D01*
Y156047D01*
X484200D01*
Y163953D01*
X476295D01*
D01*
X476295D01*
X475986Y164261D01*
Y184700D01*
X475986Y184700D01*
X475831Y185480D01*
X475389Y186142D01*
X475389Y186142D01*
X459489Y202042D01*
X458828Y202484D01*
X458047Y202639D01*
X403847D01*
X403067Y202484D01*
X402405Y202042D01*
X382634Y182270D01*
X382172Y182462D01*
Y187434D01*
X376628D01*
Y176265D01*
X371613Y171249D01*
X364252D01*
X363641Y171861D01*
Y176695D01*
X364606D01*
Y182632D01*
X357488D01*
Y179394D01*
X354560D01*
X354511Y179892D01*
X355284Y180045D01*
X356006Y180527D01*
X356488Y181249D01*
X356657Y182100D01*
X356488Y182951D01*
X356006Y183672D01*
X355284Y184154D01*
X354433Y184324D01*
Y184452D01*
X354787Y184806D01*
X357488D01*
Y184569D01*
X364606D01*
Y188212D01*
X372997Y196603D01*
X373839Y197445D01*
X374281Y198106D01*
X374436Y198887D01*
X374281Y199667D01*
X373839Y200328D01*
X373594Y200492D01*
Y206011D01*
X392736Y225153D01*
X393178Y225814D01*
X393334Y226594D01*
Y322400D01*
Y470716D01*
X393178Y471496D01*
X393106Y471604D01*
Y475431D01*
X385988D01*
Y469494D01*
X389255D01*
Y402871D01*
X380027D01*
Y393642D01*
X324289D01*
X288369Y429562D01*
X288590Y430010D01*
X289100Y429943D01*
X290090Y430073D01*
X300805Y419358D01*
X301467Y418916D01*
X302247Y418761D01*
X302247Y418761D01*
X353600D01*
X354380Y418916D01*
X355042Y419358D01*
X355042Y419358D01*
X355042Y419358D01*
X363289Y427605D01*
X363731Y428267D01*
X363886Y429047D01*
X363886Y429047D01*
X363886Y429047D01*
Y429047D01*
Y458653D01*
X363731Y459433D01*
X363289Y460095D01*
X314142Y509242D01*
X313480Y509684D01*
X312700Y509839D01*
D02*
G37*
G36*
X376579Y483959D02*
X374110D01*
Y480900D01*
X376579D01*
Y483959D01*
D02*
G37*
G36*
X14944Y459500D02*
X11523D01*
X11593Y458968D01*
X11991Y458007D01*
X12625Y457181D01*
X13451Y456548D01*
X14412Y456149D01*
X14944Y456079D01*
Y459500D01*
D02*
G37*
G36*
X97806Y449630D02*
X94747D01*
Y446768D01*
X97806D01*
Y449630D01*
D02*
G37*
G36*
X14944Y463921D02*
X14412Y463851D01*
X13451Y463453D01*
X12625Y462819D01*
X11991Y461994D01*
X11593Y461032D01*
X11523Y460500D01*
X14944D01*
Y463921D01*
D02*
G37*
G36*
X19365Y459500D02*
X15944D01*
Y456079D01*
X16476Y456149D01*
X17437Y456548D01*
X18263Y457181D01*
X18897Y458007D01*
X19295Y458968D01*
X19365Y459500D01*
D02*
G37*
G36*
X97806Y445768D02*
X94747D01*
Y442906D01*
X97806D01*
Y445768D01*
D02*
G37*
G36*
X93747D02*
X90688D01*
Y442906D01*
X93747D01*
Y445768D01*
D02*
G37*
G36*
Y449630D02*
X90688D01*
Y446768D01*
X93747D01*
Y449630D01*
D02*
G37*
G36*
X15444Y453987D02*
X14412Y453851D01*
X13451Y453453D01*
X12625Y452819D01*
X11991Y451994D01*
X11593Y451032D01*
X11457Y450000D01*
X11593Y448968D01*
X11991Y448007D01*
X12625Y447181D01*
X13451Y446548D01*
X14412Y446149D01*
X15444Y446013D01*
X16476Y446149D01*
X17437Y446548D01*
X18263Y447181D01*
X18897Y448007D01*
X19295Y448968D01*
X19431Y450000D01*
X19295Y451032D01*
X18897Y451994D01*
X18263Y452819D01*
X17437Y453453D01*
X16476Y453851D01*
X15444Y453987D01*
D02*
G37*
G36*
X173747Y481500D02*
X170326D01*
X170396Y480968D01*
X170794Y480007D01*
X171428Y479181D01*
X172254Y478547D01*
X173215Y478149D01*
X173747Y478079D01*
Y481500D01*
D02*
G37*
G36*
X389500Y494353D02*
X381594D01*
Y486447D01*
X383508D01*
Y485308D01*
X382159Y483959D01*
X378516D01*
Y476841D01*
X384453D01*
Y480485D01*
X385526Y481558D01*
X385988Y481367D01*
Y477368D01*
X393106D01*
Y483306D01*
X392386D01*
Y485600D01*
X392386Y485600D01*
X392231Y486380D01*
X391789Y487042D01*
X391789Y487042D01*
X389500Y489331D01*
Y494353D01*
D02*
G37*
G36*
X373110Y483959D02*
X370642D01*
Y480900D01*
X373110D01*
Y483959D01*
D02*
G37*
G36*
X188168Y481500D02*
X184747D01*
Y478079D01*
X185279Y478149D01*
X186241Y478547D01*
X187066Y479181D01*
X187700Y480007D01*
X188098Y480968D01*
X188168Y481500D01*
D02*
G37*
G36*
X70444Y473987D02*
X69412Y473851D01*
X68451Y473453D01*
X67625Y472820D01*
X66991Y471994D01*
X66593Y471032D01*
X66457Y470000D01*
X66593Y468968D01*
X66991Y468007D01*
X67625Y467181D01*
X68451Y466548D01*
X69412Y466149D01*
X70444Y466013D01*
X71476Y466149D01*
X72438Y466548D01*
X73263Y467181D01*
X73897Y468007D01*
X74295Y468968D01*
X74431Y470000D01*
X74295Y471032D01*
X73897Y471994D01*
X73263Y472820D01*
X72438Y473453D01*
X71476Y473851D01*
X70444Y473987D01*
D02*
G37*
G36*
X15944Y463921D02*
Y460500D01*
X19365D01*
X19295Y461032D01*
X18897Y461994D01*
X18263Y462819D01*
X17437Y463453D01*
X16476Y463851D01*
X15944Y463921D01*
D02*
G37*
G36*
X376579Y479900D02*
X374110D01*
Y476841D01*
X376579D01*
Y479900D01*
D02*
G37*
G36*
X373110D02*
X370642D01*
Y476841D01*
X373110D01*
Y479900D01*
D02*
G37*
G36*
X358086Y344383D02*
X353550D01*
Y341619D01*
X358086D01*
Y344383D01*
D02*
G37*
G36*
X329100Y237917D02*
X328068Y237781D01*
X327107Y237383D01*
X326281Y236749D01*
X325647Y235923D01*
X325249Y234962D01*
X325113Y233930D01*
X325249Y232898D01*
X325647Y231937D01*
X326281Y231111D01*
X327107Y230477D01*
X328068Y230079D01*
X329100Y229943D01*
X330132Y230079D01*
X331093Y230477D01*
X331919Y231111D01*
X332553Y231937D01*
X332951Y232898D01*
X333087Y233930D01*
X332951Y234962D01*
X332553Y235923D01*
X331919Y236749D01*
X331093Y237383D01*
X330132Y237781D01*
X329100Y237917D01*
D02*
G37*
G36*
X319100D02*
X318068Y237781D01*
X317107Y237383D01*
X316281Y236749D01*
X315647Y235923D01*
X315249Y234962D01*
X315113Y233930D01*
X315249Y232898D01*
X315647Y231937D01*
X316281Y231111D01*
X317107Y230477D01*
X318068Y230079D01*
X319100Y229943D01*
X320132Y230079D01*
X321093Y230477D01*
X321919Y231111D01*
X322553Y231937D01*
X322951Y232898D01*
X323087Y233930D01*
X322951Y234962D01*
X322553Y235923D01*
X321919Y236749D01*
X321093Y237383D01*
X320132Y237781D01*
X319100Y237917D01*
D02*
G37*
G36*
X348600Y233430D02*
X345179D01*
X345249Y232898D01*
X345647Y231937D01*
X346281Y231111D01*
X347107Y230477D01*
X348068Y230079D01*
X348600Y230009D01*
Y233430D01*
D02*
G37*
G36*
X339100Y237917D02*
X338068Y237781D01*
X337107Y237383D01*
X336281Y236749D01*
X335647Y235923D01*
X335249Y234962D01*
X335113Y233930D01*
X335249Y232898D01*
X335647Y231937D01*
X336281Y231111D01*
X337107Y230477D01*
X338068Y230079D01*
X339100Y229943D01*
X340132Y230079D01*
X341093Y230477D01*
X341919Y231111D01*
X342553Y231937D01*
X342951Y232898D01*
X343087Y233930D01*
X342951Y234962D01*
X342553Y235923D01*
X341919Y236749D01*
X341093Y237383D01*
X340132Y237781D01*
X339100Y237917D01*
D02*
G37*
G36*
X309100D02*
X308068Y237781D01*
X307107Y237383D01*
X306281Y236749D01*
X305647Y235923D01*
X305249Y234962D01*
X305113Y233930D01*
X305249Y232898D01*
X305647Y231937D01*
X306281Y231111D01*
X307107Y230477D01*
X308068Y230079D01*
X309100Y229943D01*
X310132Y230079D01*
X311093Y230477D01*
X311919Y231111D01*
X312553Y231937D01*
X312951Y232898D01*
X313087Y233930D01*
X312951Y234962D01*
X312553Y235923D01*
X311919Y236749D01*
X311093Y237383D01*
X310132Y237781D01*
X309100Y237917D01*
D02*
G37*
G36*
X179100D02*
X178068Y237781D01*
X177107Y237383D01*
X176281Y236749D01*
X175647Y235923D01*
X175249Y234962D01*
X175113Y233930D01*
X175249Y232898D01*
X175647Y231937D01*
X176281Y231111D01*
X177107Y230477D01*
X178068Y230079D01*
X179100Y229943D01*
X180132Y230079D01*
X181093Y230477D01*
X181919Y231111D01*
X182553Y231937D01*
X182951Y232898D01*
X183087Y233930D01*
X182951Y234962D01*
X182553Y235923D01*
X181919Y236749D01*
X181093Y237383D01*
X180132Y237781D01*
X179100Y237917D01*
D02*
G37*
G36*
X149100D02*
X148068Y237781D01*
X147107Y237383D01*
X146281Y236749D01*
X145647Y235923D01*
X145249Y234962D01*
X145113Y233930D01*
X145249Y232898D01*
X145647Y231937D01*
X146281Y231111D01*
X147107Y230477D01*
X148068Y230079D01*
X149100Y229943D01*
X150132Y230079D01*
X151093Y230477D01*
X151919Y231111D01*
X152553Y231937D01*
X152951Y232898D01*
X153087Y233930D01*
X152951Y234962D01*
X152553Y235923D01*
X151919Y236749D01*
X151093Y237383D01*
X150132Y237781D01*
X149100Y237917D01*
D02*
G37*
G36*
X279100D02*
X278068Y237781D01*
X277107Y237383D01*
X276281Y236749D01*
X275647Y235923D01*
X275249Y234962D01*
X275113Y233930D01*
X275249Y232898D01*
X275647Y231937D01*
X276281Y231111D01*
X277107Y230477D01*
X278068Y230079D01*
X279100Y229943D01*
X280132Y230079D01*
X281093Y230477D01*
X281919Y231111D01*
X282553Y231937D01*
X282951Y232898D01*
X283087Y233930D01*
X282951Y234962D01*
X282553Y235923D01*
X281919Y236749D01*
X281093Y237383D01*
X280132Y237781D01*
X279100Y237917D01*
D02*
G37*
G36*
X269100D02*
X268068Y237781D01*
X267107Y237383D01*
X266281Y236749D01*
X265647Y235923D01*
X265249Y234962D01*
X265113Y233930D01*
X265249Y232898D01*
X265647Y231937D01*
X266281Y231111D01*
X267107Y230477D01*
X268068Y230079D01*
X269100Y229943D01*
X270132Y230079D01*
X271093Y230477D01*
X271919Y231111D01*
X272553Y231937D01*
X272951Y232898D01*
X273087Y233930D01*
X272951Y234962D01*
X272553Y235923D01*
X271919Y236749D01*
X271093Y237383D01*
X270132Y237781D01*
X269100Y237917D01*
D02*
G37*
G36*
X79342Y243987D02*
X78310Y243851D01*
X77348Y243453D01*
X76523Y242819D01*
X75889Y241993D01*
X75491Y241032D01*
X75355Y240000D01*
X75491Y238968D01*
X75889Y238007D01*
X76523Y237181D01*
X77348Y236547D01*
X78310Y236149D01*
X79342Y236013D01*
X80374Y236149D01*
X81335Y236547D01*
X82161Y237181D01*
X82794Y238007D01*
X83193Y238968D01*
X83329Y240000D01*
X83193Y241032D01*
X82794Y241993D01*
X82161Y242819D01*
X81335Y243453D01*
X80374Y243851D01*
X79342Y243987D01*
D02*
G37*
G36*
X20247D02*
X19215Y243851D01*
X18254Y243453D01*
X17428Y242819D01*
X16794Y241993D01*
X16396Y241032D01*
X16260Y240000D01*
X16396Y238968D01*
X16794Y238007D01*
X17428Y237181D01*
X18254Y236547D01*
X19215Y236149D01*
X20247Y236013D01*
X21279Y236149D01*
X22241Y236547D01*
X23066Y237181D01*
X23700Y238007D01*
X24098Y238968D01*
X24234Y240000D01*
X24098Y241032D01*
X23700Y241993D01*
X23066Y242819D01*
X22241Y243453D01*
X21279Y243851D01*
X20247Y243987D01*
D02*
G37*
G36*
X109100Y247917D02*
X108068Y247781D01*
X107107Y247383D01*
X106281Y246749D01*
X105647Y245923D01*
X105249Y244962D01*
X105113Y243930D01*
X105249Y242898D01*
X105647Y241937D01*
X106281Y241111D01*
X107107Y240477D01*
X108068Y240079D01*
X109100Y239943D01*
X110132Y240079D01*
X111093Y240477D01*
X111919Y241111D01*
X112553Y241937D01*
X112951Y242898D01*
X113087Y243930D01*
X112951Y244962D01*
X112553Y245923D01*
X111919Y246749D01*
X111093Y247383D01*
X110132Y247781D01*
X109100Y247917D01*
D02*
G37*
G36*
X299100D02*
X298068Y247781D01*
X297107Y247383D01*
X296281Y246749D01*
X295647Y245923D01*
X295249Y244962D01*
X295113Y243930D01*
X295249Y242898D01*
X295647Y241937D01*
X296281Y241111D01*
X296288Y241006D01*
X292611Y237329D01*
X292544Y237228D01*
X292057Y236855D01*
X291830Y236817D01*
X291093Y237383D01*
X290132Y237781D01*
X289100Y237917D01*
X288068Y237781D01*
X287107Y237383D01*
X286281Y236749D01*
X285647Y235923D01*
X285249Y234962D01*
X285113Y233930D01*
X285249Y232898D01*
X285647Y231937D01*
X286281Y231111D01*
X287107Y230477D01*
X288068Y230079D01*
X289100Y229943D01*
X290132Y230079D01*
X291093Y230477D01*
X291565Y230839D01*
X292014Y230618D01*
Y204797D01*
X272158Y184942D01*
X271716Y184280D01*
X271561Y183500D01*
Y154197D01*
X267222Y149858D01*
X266247Y149987D01*
X265215Y149851D01*
X264254Y149453D01*
X263428Y148819D01*
X262794Y147993D01*
X262396Y147032D01*
X262260Y146000D01*
X262396Y144968D01*
X262794Y144007D01*
X263428Y143181D01*
X264254Y142547D01*
X265215Y142149D01*
X266247Y142013D01*
X267279Y142149D01*
X268241Y142547D01*
X269066Y143181D01*
X269700Y144007D01*
X270098Y144968D01*
X270234Y146000D01*
X270106Y146975D01*
X275042Y151911D01*
X275484Y152572D01*
X275639Y153353D01*
X275639Y153353D01*
X275639Y153353D01*
Y153353D01*
Y182655D01*
X295495Y202511D01*
X295937Y203172D01*
X296092Y203953D01*
X296092Y203953D01*
X296092Y203953D01*
Y203953D01*
Y230691D01*
X296540Y230912D01*
X297107Y230477D01*
X298068Y230079D01*
X299100Y229943D01*
X300132Y230079D01*
X301093Y230477D01*
X301919Y231111D01*
X302553Y231937D01*
X302951Y232898D01*
X303087Y233930D01*
X302951Y234962D01*
X302553Y235923D01*
X301919Y236749D01*
X301093Y237383D01*
X300132Y237781D01*
X299100Y237917D01*
X299056Y238006D01*
X299956Y238906D01*
X300028Y238920D01*
X300689Y239362D01*
X301131Y240024D01*
X301244Y240593D01*
X301919Y241111D01*
X302553Y241937D01*
X302951Y242898D01*
X303087Y243930D01*
X302951Y244962D01*
X302553Y245923D01*
X301919Y246749D01*
X301093Y247383D01*
X300132Y247781D01*
X299100Y247917D01*
D02*
G37*
G36*
X349600Y237851D02*
Y234430D01*
X353021D01*
X352951Y234962D01*
X352553Y235923D01*
X351919Y236749D01*
X351093Y237383D01*
X350132Y237781D01*
X349600Y237851D01*
D02*
G37*
G36*
X78842Y233921D02*
X78310Y233851D01*
X77348Y233453D01*
X76523Y232819D01*
X75889Y231993D01*
X75491Y231032D01*
X75421Y230500D01*
X78842D01*
Y233921D01*
D02*
G37*
G36*
X353021Y233430D02*
X349600D01*
Y230009D01*
X350132Y230079D01*
X351093Y230477D01*
X351919Y231111D01*
X352553Y231937D01*
X352951Y232898D01*
X353021Y233430D01*
D02*
G37*
G36*
X348600Y237851D02*
X348068Y237781D01*
X347107Y237383D01*
X346281Y236749D01*
X345647Y235923D01*
X345249Y234962D01*
X345179Y234430D01*
X348600D01*
Y237851D01*
D02*
G37*
G36*
X79842Y233921D02*
Y230500D01*
X83263D01*
X83193Y231032D01*
X82794Y231993D01*
X82161Y232819D01*
X81335Y233453D01*
X80374Y233851D01*
X79842Y233921D01*
D02*
G37*
G36*
X58747Y202914D02*
Y198500D01*
X63161D01*
X63057Y199289D01*
X62560Y200490D01*
X61768Y201521D01*
X60737Y202312D01*
X59536Y202810D01*
X58747Y202914D01*
D02*
G37*
G36*
X57747D02*
X56958Y202810D01*
X55757Y202312D01*
X54726Y201521D01*
X53935Y200490D01*
X53437Y199289D01*
X53333Y198500D01*
X57747D01*
Y202914D01*
D02*
G37*
G36*
X81062D02*
Y198500D01*
X85476D01*
X85372Y199289D01*
X84875Y200490D01*
X84083Y201521D01*
X83052Y202312D01*
X81851Y202810D01*
X81062Y202914D01*
D02*
G37*
G36*
X80062D02*
X79273Y202810D01*
X78072Y202312D01*
X77041Y201521D01*
X76250Y200490D01*
X75752Y199289D01*
X75648Y198500D01*
X80062D01*
Y202914D01*
D02*
G37*
G36*
X159806Y197630D02*
X156747D01*
Y194768D01*
X159806D01*
Y197630D01*
D02*
G37*
G36*
X378900Y200501D02*
X376628D01*
Y194095D01*
X378900D01*
Y200501D01*
D02*
G37*
G36*
X85476Y197500D02*
X81062D01*
Y193086D01*
X81851Y193190D01*
X83052Y193687D01*
X84083Y194479D01*
X84875Y195510D01*
X85372Y196711D01*
X85476Y197500D01*
D02*
G37*
G36*
X155747Y197630D02*
X152688D01*
Y194768D01*
X155747D01*
Y197630D01*
D02*
G37*
G36*
X382172Y200501D02*
X379900D01*
Y194095D01*
X382172D01*
Y200501D01*
D02*
G37*
G36*
X119100Y237917D02*
X118068Y237781D01*
X117107Y237383D01*
X116281Y236749D01*
X115647Y235923D01*
X115249Y234962D01*
X115113Y233930D01*
X115249Y232898D01*
X115647Y231937D01*
X116281Y231111D01*
X117107Y230477D01*
X118068Y230079D01*
X119100Y229943D01*
X120132Y230079D01*
X121093Y230477D01*
X121919Y231111D01*
X122553Y231937D01*
X122951Y232898D01*
X123087Y233930D01*
X122951Y234962D01*
X122553Y235923D01*
X121919Y236749D01*
X121093Y237383D01*
X120132Y237781D01*
X119100Y237917D01*
D02*
G37*
G36*
X109100D02*
X108068Y237781D01*
X107107Y237383D01*
X106281Y236749D01*
X105647Y235923D01*
X105249Y234962D01*
X105113Y233930D01*
X105249Y232898D01*
X105647Y231937D01*
X106281Y231111D01*
X107107Y230477D01*
X108068Y230079D01*
X109100Y229943D01*
X110132Y230079D01*
X111093Y230477D01*
X111919Y231111D01*
X112553Y231937D01*
X112951Y232898D01*
X113087Y233930D01*
X112951Y234962D01*
X112553Y235923D01*
X111919Y236749D01*
X111093Y237383D01*
X110132Y237781D01*
X109100Y237917D01*
D02*
G37*
G36*
X139100D02*
X138068Y237781D01*
X137107Y237383D01*
X136281Y236749D01*
X135647Y235923D01*
X135249Y234962D01*
X135113Y233930D01*
X135249Y232898D01*
X135647Y231937D01*
X136281Y231111D01*
X137107Y230477D01*
X138068Y230079D01*
X139100Y229943D01*
X140132Y230079D01*
X141093Y230477D01*
X141919Y231111D01*
X142553Y231937D01*
X142951Y232898D01*
X143087Y233930D01*
X142951Y234962D01*
X142553Y235923D01*
X141919Y236749D01*
X141093Y237383D01*
X140132Y237781D01*
X139100Y237917D01*
D02*
G37*
G36*
X129100D02*
X128068Y237781D01*
X127107Y237383D01*
X126281Y236749D01*
X125647Y235923D01*
X125249Y234962D01*
X125113Y233930D01*
X125249Y232898D01*
X125647Y231937D01*
X126281Y231111D01*
X127107Y230477D01*
X128068Y230079D01*
X129100Y229943D01*
X130132Y230079D01*
X131093Y230477D01*
X131919Y231111D01*
X132553Y231937D01*
X132951Y232898D01*
X133087Y233930D01*
X132951Y234962D01*
X132553Y235923D01*
X131919Y236749D01*
X131093Y237383D01*
X130132Y237781D01*
X129100Y237917D01*
D02*
G37*
G36*
X83263Y229500D02*
X79842D01*
Y226079D01*
X80374Y226149D01*
X81335Y226547D01*
X82161Y227181D01*
X82794Y228007D01*
X83193Y228968D01*
X83263Y229500D01*
D02*
G37*
G36*
X382172Y207906D02*
X379900D01*
Y201501D01*
X382172D01*
Y207906D01*
D02*
G37*
G36*
X378900D02*
X376628D01*
Y201501D01*
X378900D01*
Y207906D01*
D02*
G37*
G36*
X78842Y229500D02*
X75421D01*
X75491Y228968D01*
X75889Y228007D01*
X76523Y227181D01*
X77348Y226547D01*
X78310Y226149D01*
X78842Y226079D01*
Y229500D01*
D02*
G37*
G36*
X20247Y233987D02*
X19215Y233851D01*
X18254Y233453D01*
X17428Y232819D01*
X16794Y231993D01*
X16396Y231032D01*
X16260Y230000D01*
X16396Y228968D01*
X16794Y228007D01*
X17428Y227181D01*
X18254Y226547D01*
X19215Y226149D01*
X20247Y226013D01*
X21279Y226149D01*
X22241Y226547D01*
X23066Y227181D01*
X23700Y228007D01*
X24098Y228968D01*
X24234Y230000D01*
X24098Y231032D01*
X23700Y231993D01*
X23066Y232819D01*
X22241Y233453D01*
X21279Y233851D01*
X20247Y233987D01*
D02*
G37*
G36*
X119100Y247917D02*
X118068Y247781D01*
X117107Y247383D01*
X116281Y246749D01*
X115647Y245923D01*
X115249Y244962D01*
X115113Y243930D01*
X115249Y242898D01*
X115647Y241937D01*
X116281Y241111D01*
X117107Y240477D01*
X118068Y240079D01*
X119100Y239943D01*
X120132Y240079D01*
X121093Y240477D01*
X121919Y241111D01*
X122553Y241937D01*
X122951Y242898D01*
X123087Y243930D01*
X122951Y244962D01*
X122553Y245923D01*
X121919Y246749D01*
X121093Y247383D01*
X120132Y247781D01*
X119100Y247917D01*
D02*
G37*
G36*
X20247Y283987D02*
X19215Y283851D01*
X18254Y283453D01*
X17428Y282819D01*
X16794Y281993D01*
X16396Y281032D01*
X16260Y280000D01*
X16396Y278968D01*
X16794Y278007D01*
X17428Y277181D01*
X18254Y276547D01*
X19215Y276149D01*
X20247Y276013D01*
X21279Y276149D01*
X22241Y276547D01*
X23066Y277181D01*
X23700Y278007D01*
X24098Y278968D01*
X24234Y280000D01*
X24098Y281032D01*
X23700Y281993D01*
X23066Y282819D01*
X22241Y283453D01*
X21279Y283851D01*
X20247Y283987D01*
D02*
G37*
G36*
X79342Y273987D02*
X78310Y273851D01*
X77348Y273453D01*
X76523Y272819D01*
X75889Y271993D01*
X75491Y271032D01*
X75355Y270000D01*
X75491Y268968D01*
X75889Y268007D01*
X76523Y267181D01*
X77348Y266547D01*
X78310Y266149D01*
X79342Y266013D01*
X80374Y266149D01*
X81335Y266547D01*
X82161Y267181D01*
X82794Y268007D01*
X83193Y268968D01*
X83329Y270000D01*
X83193Y271032D01*
X82794Y271993D01*
X82161Y272819D01*
X81335Y273453D01*
X80374Y273851D01*
X79342Y273987D01*
D02*
G37*
G36*
X463720Y288698D02*
X453452D01*
Y278430D01*
X463720D01*
Y288698D01*
D02*
G37*
G36*
X79342Y283987D02*
X78310Y283851D01*
X77348Y283453D01*
X76523Y282819D01*
X75889Y281993D01*
X75491Y281032D01*
X75355Y280000D01*
X75491Y278968D01*
X75889Y278007D01*
X76523Y277181D01*
X77348Y276547D01*
X78310Y276149D01*
X79342Y276013D01*
X80374Y276149D01*
X81335Y276547D01*
X82161Y277181D01*
X82794Y278007D01*
X83193Y278968D01*
X83329Y280000D01*
X83193Y281032D01*
X82794Y281993D01*
X82161Y282819D01*
X81335Y283453D01*
X80374Y283851D01*
X79342Y283987D01*
D02*
G37*
G36*
X20247Y273987D02*
X19215Y273851D01*
X18254Y273453D01*
X17428Y272819D01*
X16794Y271993D01*
X16396Y271032D01*
X16260Y270000D01*
X16396Y268968D01*
X16794Y268007D01*
X17428Y267181D01*
X18254Y266547D01*
X19215Y266149D01*
X20247Y266013D01*
X21279Y266149D01*
X22241Y266547D01*
X23066Y267181D01*
X23700Y268007D01*
X24098Y268968D01*
X24234Y270000D01*
X24098Y271032D01*
X23700Y271993D01*
X23066Y272819D01*
X22241Y273453D01*
X21279Y273851D01*
X20247Y273987D01*
D02*
G37*
G36*
X79342Y253987D02*
X78310Y253851D01*
X77348Y253453D01*
X76523Y252819D01*
X75889Y251993D01*
X75491Y251032D01*
X75355Y250000D01*
X75491Y248968D01*
X75889Y248007D01*
X76523Y247181D01*
X77348Y246547D01*
X78310Y246149D01*
X79342Y246013D01*
X80374Y246149D01*
X81335Y246547D01*
X82161Y247181D01*
X82794Y248007D01*
X83193Y248968D01*
X83329Y250000D01*
X83193Y251032D01*
X82794Y251993D01*
X82161Y252819D01*
X81335Y253453D01*
X80374Y253851D01*
X79342Y253987D01*
D02*
G37*
G36*
X20247D02*
X19215Y253851D01*
X18254Y253453D01*
X17428Y252819D01*
X16794Y251993D01*
X16396Y251032D01*
X16260Y250000D01*
X16396Y248968D01*
X16794Y248007D01*
X17428Y247181D01*
X18254Y246547D01*
X19215Y246149D01*
X20247Y246013D01*
X21279Y246149D01*
X22241Y246547D01*
X23066Y247181D01*
X23700Y248007D01*
X24098Y248968D01*
X24234Y250000D01*
X24098Y251032D01*
X23700Y251993D01*
X23066Y252819D01*
X22241Y253453D01*
X21279Y253851D01*
X20247Y253987D01*
D02*
G37*
G36*
X79342Y263987D02*
X78310Y263851D01*
X77348Y263453D01*
X76523Y262819D01*
X75889Y261993D01*
X75491Y261032D01*
X75355Y260000D01*
X75491Y258968D01*
X75889Y258007D01*
X76523Y257181D01*
X77348Y256547D01*
X78310Y256149D01*
X79342Y256013D01*
X80374Y256149D01*
X81335Y256547D01*
X82161Y257181D01*
X82794Y258007D01*
X83193Y258968D01*
X83329Y260000D01*
X83193Y261032D01*
X82794Y261993D01*
X82161Y262819D01*
X81335Y263453D01*
X80374Y263851D01*
X79342Y263987D01*
D02*
G37*
G36*
X20247D02*
X19215Y263851D01*
X18254Y263453D01*
X17428Y262819D01*
X16794Y261993D01*
X16396Y261032D01*
X16260Y260000D01*
X16396Y258968D01*
X16794Y258007D01*
X17428Y257181D01*
X18254Y256547D01*
X19215Y256149D01*
X20247Y256013D01*
X21279Y256149D01*
X22241Y256547D01*
X23066Y257181D01*
X23700Y258007D01*
X24098Y258968D01*
X24234Y260000D01*
X24098Y261032D01*
X23700Y261993D01*
X23066Y262819D01*
X22241Y263453D01*
X21279Y263851D01*
X20247Y263987D01*
D02*
G37*
G36*
X406633Y290272D02*
X400302D01*
Y280005D01*
X406633D01*
Y290272D01*
D02*
G37*
G36*
X358086Y314855D02*
X353550D01*
Y312091D01*
X358086D01*
Y314855D01*
D02*
G37*
G36*
X79342Y313987D02*
X78310Y313851D01*
X77348Y313453D01*
X76523Y312819D01*
X75889Y311993D01*
X75491Y311032D01*
X75355Y310000D01*
X75483Y309025D01*
X71305Y304847D01*
X70863Y304186D01*
X70708Y303405D01*
Y298100D01*
X70708Y298100D01*
X70708D01*
X70863Y297320D01*
X71305Y296658D01*
X74405Y293558D01*
X75067Y293116D01*
X75847Y292961D01*
X76066D01*
X76287Y292512D01*
X75889Y291993D01*
X75491Y291032D01*
X75355Y290000D01*
X75491Y288968D01*
X75889Y288007D01*
X76523Y287181D01*
X77348Y286547D01*
X78310Y286149D01*
X79342Y286013D01*
X80374Y286149D01*
X81335Y286547D01*
X82161Y287181D01*
X82759Y287961D01*
X111555D01*
X151964Y247552D01*
X151883Y247058D01*
X151660Y246948D01*
X151093Y247383D01*
X150132Y247781D01*
X149100Y247917D01*
X148068Y247781D01*
X147107Y247383D01*
X146281Y246749D01*
X145647Y245923D01*
X145249Y244962D01*
X145113Y243930D01*
X145249Y242898D01*
X145647Y241937D01*
X146281Y241111D01*
X147107Y240477D01*
X148068Y240079D01*
X149100Y239943D01*
X150132Y240079D01*
X151093Y240477D01*
X151851Y241058D01*
X152344Y240977D01*
X152705Y240437D01*
X156288Y236854D01*
X156281Y236749D01*
X155647Y235923D01*
X155249Y234962D01*
X155113Y233930D01*
X155249Y232898D01*
X155647Y231937D01*
X156281Y231111D01*
X157107Y230477D01*
X158068Y230079D01*
X159100Y229943D01*
X160132Y230079D01*
X161093Y230477D01*
X161919Y231111D01*
X162553Y231937D01*
X162951Y232898D01*
X163087Y233930D01*
X162951Y234962D01*
X162553Y235923D01*
X161919Y236749D01*
X161093Y237383D01*
X161044Y237403D01*
X160984Y237706D01*
X160542Y238368D01*
X159056Y239854D01*
X159100Y239943D01*
X160132Y240079D01*
X161093Y240477D01*
X161851Y241058D01*
X162344Y240977D01*
X162705Y240437D01*
X166288Y236854D01*
X166281Y236749D01*
X165647Y235923D01*
X165249Y234962D01*
X165113Y233930D01*
X165249Y232898D01*
X165647Y231937D01*
X166281Y231111D01*
X167107Y230477D01*
X168068Y230079D01*
X169100Y229943D01*
X170132Y230079D01*
X171093Y230477D01*
X171919Y231111D01*
X172553Y231937D01*
X172951Y232898D01*
X173087Y233930D01*
X172951Y234962D01*
X172553Y235923D01*
X171919Y236749D01*
X171093Y237383D01*
X171044Y237403D01*
X170984Y237706D01*
X170542Y238368D01*
X169056Y239854D01*
X169100Y239943D01*
X170132Y240079D01*
X171093Y240477D01*
X171919Y241111D01*
X172553Y241937D01*
X172951Y242898D01*
X173087Y243930D01*
X172951Y244962D01*
X172553Y245923D01*
X171919Y246749D01*
X171286Y247235D01*
Y250000D01*
X171131Y250780D01*
X170689Y251442D01*
X120689Y301442D01*
X120028Y301884D01*
X119247Y302039D01*
X82759D01*
X82161Y302819D01*
X81335Y303453D01*
X80374Y303851D01*
X79342Y303987D01*
X78310Y303851D01*
X77348Y303453D01*
X76523Y302819D01*
X75889Y301993D01*
X75491Y301032D01*
X75355Y300000D01*
X75491Y298968D01*
X75515Y298910D01*
X75227Y298717D01*
X74786Y298953D01*
Y302561D01*
X78367Y306141D01*
X79342Y306013D01*
X80374Y306149D01*
X81335Y306547D01*
X82161Y307181D01*
X82794Y308007D01*
X83193Y308968D01*
X83329Y310000D01*
X83193Y311032D01*
X82794Y311993D01*
X82161Y312819D01*
X81335Y313453D01*
X80374Y313851D01*
X79342Y313987D01*
D02*
G37*
G36*
X20247Y323987D02*
X19215Y323851D01*
X18254Y323453D01*
X17428Y322819D01*
X16794Y321993D01*
X16396Y321032D01*
X16260Y320000D01*
X16396Y318968D01*
X16794Y318007D01*
X17428Y317181D01*
X18254Y316547D01*
X19215Y316149D01*
X20247Y316013D01*
X21279Y316149D01*
X22241Y316547D01*
X23066Y317181D01*
X23700Y318007D01*
X24098Y318968D01*
X24234Y320000D01*
X24098Y321032D01*
X23700Y321993D01*
X23066Y322819D01*
X22241Y323453D01*
X21279Y323851D01*
X20247Y323987D01*
D02*
G37*
G36*
X363621Y314855D02*
X359086D01*
Y312091D01*
X363621D01*
Y314855D01*
D02*
G37*
G36*
X20247Y313987D02*
X19215Y313851D01*
X18254Y313453D01*
X17428Y312819D01*
X16794Y311993D01*
X16396Y311032D01*
X16260Y310000D01*
X16396Y308968D01*
X16794Y308007D01*
X17428Y307181D01*
X18254Y306547D01*
X19215Y306149D01*
X20247Y306013D01*
X21279Y306149D01*
X22241Y306547D01*
X23066Y307181D01*
X23700Y308007D01*
X24098Y308968D01*
X24234Y310000D01*
X24098Y311032D01*
X23700Y311993D01*
X23066Y312819D01*
X22241Y313453D01*
X21279Y313851D01*
X20247Y313987D01*
D02*
G37*
G36*
X452106Y290272D02*
X445775D01*
Y280005D01*
X452106D01*
Y290272D01*
D02*
G37*
G36*
X441869D02*
X435539D01*
Y280005D01*
X441869D01*
Y290272D01*
D02*
G37*
G36*
X20247Y303987D02*
X19215Y303851D01*
X18254Y303453D01*
X17428Y302819D01*
X16794Y301993D01*
X16396Y301032D01*
X16260Y300000D01*
X16396Y298968D01*
X16794Y298007D01*
X17428Y297181D01*
X18254Y296547D01*
X19215Y296149D01*
X20247Y296013D01*
X21279Y296149D01*
X22241Y296547D01*
X23066Y297181D01*
X23700Y298007D01*
X24098Y298968D01*
X24234Y300000D01*
X24098Y301032D01*
X23700Y301993D01*
X23066Y302819D01*
X22241Y303453D01*
X21279Y303851D01*
X20247Y303987D01*
D02*
G37*
G36*
Y293987D02*
X19215Y293851D01*
X18254Y293453D01*
X17428Y292819D01*
X16794Y291993D01*
X16396Y291032D01*
X16260Y290000D01*
X16396Y288968D01*
X16794Y288007D01*
X17428Y287181D01*
X18254Y286547D01*
X19215Y286149D01*
X20247Y286013D01*
X21279Y286149D01*
X22241Y286547D01*
X23066Y287181D01*
X23700Y288007D01*
X24098Y288968D01*
X24234Y290000D01*
X24098Y291032D01*
X23700Y291993D01*
X23066Y292819D01*
X22241Y293453D01*
X21279Y293851D01*
X20247Y293987D01*
D02*
G37*
G36*
X353053Y247883D02*
X345147D01*
Y239977D01*
X353053D01*
Y247883D01*
D02*
G37*
G36*
X269100Y247917D02*
X268068Y247781D01*
X267107Y247383D01*
X266281Y246749D01*
X265647Y245923D01*
X265249Y244962D01*
X265113Y243930D01*
X265249Y242898D01*
X265647Y241937D01*
X266281Y241111D01*
X267107Y240477D01*
X268068Y240079D01*
X269100Y239943D01*
X270132Y240079D01*
X271093Y240477D01*
X271919Y241111D01*
X272553Y241937D01*
X272951Y242898D01*
X273087Y243930D01*
X272951Y244962D01*
X272553Y245923D01*
X271919Y246749D01*
X271093Y247383D01*
X270132Y247781D01*
X269100Y247917D01*
D02*
G37*
G36*
X279100D02*
X278068Y247781D01*
X277107Y247383D01*
X276281Y246749D01*
X275647Y245923D01*
X275249Y244962D01*
X275113Y243930D01*
X275249Y242898D01*
X275647Y241937D01*
X276281Y241111D01*
X277107Y240477D01*
X278068Y240079D01*
X279100Y239943D01*
X280132Y240079D01*
X281093Y240477D01*
X281919Y241111D01*
X282553Y241937D01*
X282951Y242898D01*
X283087Y243930D01*
X282951Y244962D01*
X282553Y245923D01*
X281919Y246749D01*
X281093Y247383D01*
X280132Y247781D01*
X279100Y247917D01*
D02*
G37*
G36*
X79342Y323987D02*
X78310Y323851D01*
X77348Y323453D01*
X76523Y322819D01*
X75889Y321993D01*
X75491Y321032D01*
X75355Y320000D01*
X75491Y318968D01*
X75889Y318007D01*
X76523Y317181D01*
X77348Y316547D01*
X78310Y316149D01*
X79342Y316013D01*
X80374Y316149D01*
X81335Y316547D01*
X82161Y317181D01*
X82759Y317961D01*
X107203D01*
X177208Y247955D01*
Y247425D01*
X177107Y247383D01*
X176281Y246749D01*
X175647Y245923D01*
X175249Y244962D01*
X175113Y243930D01*
X175249Y242898D01*
X175647Y241937D01*
X176281Y241111D01*
X177107Y240477D01*
X178068Y240079D01*
X179100Y239943D01*
X180132Y240079D01*
X181093Y240477D01*
X181919Y241111D01*
X182553Y241937D01*
X182951Y242898D01*
X183087Y243930D01*
X182951Y244962D01*
X182553Y245923D01*
X181919Y246749D01*
X181286Y247235D01*
Y248800D01*
X181286Y248800D01*
X181131Y249580D01*
X180689Y250242D01*
X180689Y250242D01*
X109489Y321442D01*
X108828Y321884D01*
X108047Y322039D01*
X82759D01*
X82161Y322819D01*
X81335Y323453D01*
X80374Y323851D01*
X79342Y323987D01*
D02*
G37*
G36*
X129100Y247917D02*
X128068Y247781D01*
X127107Y247383D01*
X126281Y246749D01*
X125647Y245923D01*
X125249Y244962D01*
X125113Y243930D01*
X125249Y242898D01*
X125647Y241937D01*
X126281Y241111D01*
X127107Y240477D01*
X128068Y240079D01*
X129100Y239943D01*
X130132Y240079D01*
X131093Y240477D01*
X131919Y241111D01*
X132553Y241937D01*
X132951Y242898D01*
X133087Y243930D01*
X132951Y244962D01*
X132553Y245923D01*
X131919Y246749D01*
X131093Y247383D01*
X130132Y247781D01*
X129100Y247917D01*
D02*
G37*
G36*
X139100D02*
X138068Y247781D01*
X137107Y247383D01*
X136281Y246749D01*
X135647Y245923D01*
X135249Y244962D01*
X135113Y243930D01*
X135249Y242898D01*
X135647Y241937D01*
X136281Y241111D01*
X137107Y240477D01*
X138068Y240079D01*
X139100Y239943D01*
X140132Y240079D01*
X141093Y240477D01*
X141919Y241111D01*
X142553Y241937D01*
X142951Y242898D01*
X143087Y243930D01*
X142951Y244962D01*
X142553Y245923D01*
X141919Y246749D01*
X141093Y247383D01*
X140132Y247781D01*
X139100Y247917D01*
D02*
G37*
G36*
X329100D02*
X328068Y247781D01*
X327107Y247383D01*
X326281Y246749D01*
X325647Y245923D01*
X325249Y244962D01*
X325113Y243930D01*
X325249Y242898D01*
X325647Y241937D01*
X326281Y241111D01*
X327107Y240477D01*
X328068Y240079D01*
X329100Y239943D01*
X330132Y240079D01*
X331093Y240477D01*
X331919Y241111D01*
X332553Y241937D01*
X332951Y242898D01*
X333087Y243930D01*
X332951Y244962D01*
X332553Y245923D01*
X331919Y246749D01*
X331093Y247383D01*
X330132Y247781D01*
X329100Y247917D01*
D02*
G37*
G36*
X339100D02*
X338068Y247781D01*
X337107Y247383D01*
X336281Y246749D01*
X335647Y245923D01*
X335249Y244962D01*
X335113Y243930D01*
X335249Y242898D01*
X335647Y241937D01*
X336281Y241111D01*
X337107Y240477D01*
X338068Y240079D01*
X339100Y239943D01*
X340132Y240079D01*
X341093Y240477D01*
X341919Y241111D01*
X342553Y241937D01*
X342951Y242898D01*
X343087Y243930D01*
X342951Y244962D01*
X342553Y245923D01*
X341919Y246749D01*
X341093Y247383D01*
X340132Y247781D01*
X339100Y247917D01*
D02*
G37*
G36*
X319100D02*
X318068Y247781D01*
X317107Y247383D01*
X316281Y246749D01*
X315647Y245923D01*
X315249Y244962D01*
X315113Y243930D01*
X315249Y242898D01*
X315647Y241937D01*
X316281Y241111D01*
X317107Y240477D01*
X318068Y240079D01*
X319100Y239943D01*
X320132Y240079D01*
X321093Y240477D01*
X321919Y241111D01*
X322553Y241937D01*
X322951Y242898D01*
X323087Y243930D01*
X322951Y244962D01*
X322553Y245923D01*
X321919Y246749D01*
X321093Y247383D01*
X320132Y247781D01*
X319100Y247917D01*
D02*
G37*
G36*
X289100D02*
X288068Y247781D01*
X287107Y247383D01*
X286281Y246749D01*
X285647Y245923D01*
X285249Y244962D01*
X285113Y243930D01*
X285249Y242898D01*
X285647Y241937D01*
X286281Y241111D01*
X287107Y240477D01*
X288068Y240079D01*
X289100Y239943D01*
X290132Y240079D01*
X291093Y240477D01*
X291919Y241111D01*
X292553Y241937D01*
X292951Y242898D01*
X293087Y243930D01*
X292951Y244962D01*
X292553Y245923D01*
X291919Y246749D01*
X291093Y247383D01*
X290132Y247781D01*
X289100Y247917D01*
D02*
G37*
G36*
X309100D02*
X308068Y247781D01*
X307107Y247383D01*
X306281Y246749D01*
X305647Y245923D01*
X305249Y244962D01*
X305113Y243930D01*
X305249Y242898D01*
X305647Y241937D01*
X306281Y241111D01*
X307107Y240477D01*
X308068Y240079D01*
X309100Y239943D01*
X310132Y240079D01*
X311093Y240477D01*
X311919Y241111D01*
X312553Y241937D01*
X312951Y242898D01*
X313087Y243930D01*
X312951Y244962D01*
X312553Y245923D01*
X311919Y246749D01*
X311093Y247383D01*
X310132Y247781D01*
X309100Y247917D01*
D02*
G37*
%LPD*%
G36*
X354861Y451755D02*
Y432645D01*
X350155Y427939D01*
X307575D01*
X306186Y429327D01*
Y430618D01*
X306635Y430839D01*
X307107Y430477D01*
X308068Y430079D01*
X309100Y429943D01*
X310132Y430079D01*
X311093Y430477D01*
X311919Y431111D01*
X312553Y431937D01*
X312951Y432898D01*
X313087Y433930D01*
X312951Y434962D01*
X312553Y435923D01*
X311919Y436749D01*
X311983Y436938D01*
X315861D01*
X316082Y436490D01*
X315647Y435923D01*
X315249Y434962D01*
X315113Y433930D01*
X315249Y432898D01*
X315647Y431937D01*
X316281Y431111D01*
X317107Y430477D01*
X318068Y430079D01*
X319100Y429943D01*
X320132Y430079D01*
X321093Y430477D01*
X321919Y431111D01*
X322553Y431937D01*
X322951Y432898D01*
X323087Y433930D01*
X322951Y434962D01*
X322553Y435923D01*
X321919Y436749D01*
X321862Y436793D01*
X321932Y437093D01*
X322593Y437535D01*
X325495Y440437D01*
X325856Y440977D01*
X326349Y441058D01*
X327107Y440477D01*
X328068Y440079D01*
X329100Y439943D01*
X330132Y440079D01*
X331093Y440477D01*
X331919Y441111D01*
X332553Y441937D01*
X332951Y442898D01*
X333087Y443930D01*
X332951Y444962D01*
X332553Y445923D01*
X331919Y446749D01*
X331093Y447383D01*
X330132Y447781D01*
X329100Y447917D01*
X328068Y447781D01*
X327107Y447383D01*
X326540Y446948D01*
X326092Y447169D01*
Y456795D01*
X325937Y457575D01*
X325495Y458236D01*
X281689Y502042D01*
X281756Y502261D01*
X304355D01*
X354861Y451755D01*
D02*
G37*
%LPC*%
G36*
X339100Y447917D02*
X338068Y447781D01*
X337107Y447383D01*
X336281Y446749D01*
X335647Y445923D01*
X335249Y444962D01*
X335113Y443930D01*
X335249Y442898D01*
X335647Y441937D01*
X336281Y441111D01*
X337107Y440477D01*
X338068Y440079D01*
X339100Y439943D01*
X340132Y440079D01*
X341093Y440477D01*
X341919Y441111D01*
X342553Y441937D01*
X342951Y442898D01*
X343087Y443930D01*
X342951Y444962D01*
X342553Y445923D01*
X341919Y446749D01*
X341093Y447383D01*
X340132Y447781D01*
X339100Y447917D01*
D02*
G37*
G36*
X349600Y437851D02*
Y434430D01*
X353021D01*
X352951Y434962D01*
X352553Y435923D01*
X351919Y436749D01*
X351093Y437383D01*
X350132Y437781D01*
X349600Y437851D01*
D02*
G37*
G36*
X348600D02*
X348068Y437781D01*
X347107Y437383D01*
X346281Y436749D01*
X345647Y435923D01*
X345249Y434962D01*
X345179Y434430D01*
X348600D01*
Y437851D01*
D02*
G37*
G36*
X339100Y437917D02*
X338068Y437781D01*
X337107Y437383D01*
X336281Y436749D01*
X335647Y435923D01*
X335249Y434962D01*
X335113Y433930D01*
X335249Y432898D01*
X335647Y431937D01*
X336281Y431111D01*
X337107Y430477D01*
X338068Y430079D01*
X339100Y429943D01*
X340132Y430079D01*
X341093Y430477D01*
X341919Y431111D01*
X342553Y431937D01*
X342951Y432898D01*
X343087Y433930D01*
X342951Y434962D01*
X342553Y435923D01*
X341919Y436749D01*
X341093Y437383D01*
X340132Y437781D01*
X339100Y437917D01*
D02*
G37*
G36*
X329100D02*
X328068Y437781D01*
X327107Y437383D01*
X326281Y436749D01*
X325647Y435923D01*
X325249Y434962D01*
X325113Y433930D01*
X325249Y432898D01*
X325647Y431937D01*
X326281Y431111D01*
X327107Y430477D01*
X328068Y430079D01*
X329100Y429943D01*
X330132Y430079D01*
X331093Y430477D01*
X331919Y431111D01*
X332553Y431937D01*
X332951Y432898D01*
X333087Y433930D01*
X332951Y434962D01*
X332553Y435923D01*
X331919Y436749D01*
X331093Y437383D01*
X330132Y437781D01*
X329100Y437917D01*
D02*
G37*
G36*
X348600Y433430D02*
X345179D01*
X345249Y432898D01*
X345647Y431937D01*
X346281Y431111D01*
X347107Y430477D01*
X348068Y430079D01*
X348600Y430009D01*
Y433430D01*
D02*
G37*
G36*
X353053Y447883D02*
X345147D01*
Y439977D01*
X353053D01*
Y447883D01*
D02*
G37*
G36*
X353021Y433430D02*
X349600D01*
Y430009D01*
X350132Y430079D01*
X351093Y430477D01*
X351919Y431111D01*
X352553Y431937D01*
X352951Y432898D01*
X353021Y433430D01*
D02*
G37*
%LPD*%
D10*
X373401Y139800D02*
D03*
X352928D02*
D03*
X447801Y112300D02*
D03*
X427328D02*
D03*
D11*
X457500Y133099D02*
D03*
Y153572D02*
D03*
X379400Y201001D02*
D03*
Y180528D02*
D03*
D12*
X451947Y177763D02*
D03*
Y185637D02*
D03*
X411947Y175637D02*
D03*
Y167763D02*
D03*
X196147Y186012D02*
D03*
Y193886D02*
D03*
X321047Y173537D02*
D03*
Y165663D02*
D03*
X410247Y110063D02*
D03*
Y117937D02*
D03*
X48947Y138363D02*
D03*
Y146237D02*
D03*
X94247Y134063D02*
D03*
Y141937D02*
D03*
X361047Y179663D02*
D03*
Y187537D02*
D03*
X97347Y413137D02*
D03*
Y405263D02*
D03*
X206147Y193886D02*
D03*
Y186012D02*
D03*
X100247Y397937D02*
D03*
Y390063D02*
D03*
X102247Y381937D02*
D03*
Y374063D02*
D03*
X389547Y480337D02*
D03*
Y472463D02*
D03*
X176147Y193886D02*
D03*
Y186012D02*
D03*
X336247Y112063D02*
D03*
Y119937D02*
D03*
X164247Y186063D02*
D03*
Y193937D02*
D03*
X94247Y429937D02*
D03*
Y422063D02*
D03*
D13*
X421105Y186200D02*
D03*
X61105Y147800D02*
D03*
X331205Y187100D02*
D03*
D14*
X421105Y181200D02*
D03*
Y176200D02*
D03*
Y171200D02*
D03*
X440790Y186200D02*
D03*
Y181200D02*
D03*
Y176200D02*
D03*
Y171200D02*
D03*
X61105Y142800D02*
D03*
Y137800D02*
D03*
Y132800D02*
D03*
X80790Y147800D02*
D03*
Y142800D02*
D03*
Y137800D02*
D03*
Y132800D02*
D03*
X331205Y182100D02*
D03*
Y177100D02*
D03*
Y172100D02*
D03*
X350890Y187100D02*
D03*
Y182100D02*
D03*
Y177100D02*
D03*
Y172100D02*
D03*
D15*
X399947Y169700D02*
D03*
Y182574D02*
D03*
X313047Y165600D02*
D03*
Y178474D02*
D03*
D16*
X417506Y147700D02*
D03*
X389947D02*
D03*
X336606Y145600D02*
D03*
X309047D02*
D03*
D17*
X92184Y460000D02*
D03*
X84310D02*
D03*
X329110Y165600D02*
D03*
X336984D02*
D03*
X204210Y111949D02*
D03*
X212084D02*
D03*
X381484Y480400D02*
D03*
X373610D02*
D03*
X110184Y134000D02*
D03*
X102310D02*
D03*
Y144000D02*
D03*
X110184D02*
D03*
X435884Y163700D02*
D03*
X428010D02*
D03*
X435884Y153700D02*
D03*
X428010D02*
D03*
X350984Y165600D02*
D03*
X343110D02*
D03*
X350984Y157600D02*
D03*
X343110D02*
D03*
X346310Y122000D02*
D03*
X354184D02*
D03*
X182210Y111949D02*
D03*
X190084D02*
D03*
X176084Y141949D02*
D03*
X168210D02*
D03*
X156210Y153949D02*
D03*
X164084D02*
D03*
X138184Y134000D02*
D03*
X130310D02*
D03*
Y144000D02*
D03*
X138184D02*
D03*
D18*
X206247Y173698D02*
D03*
X201247D02*
D03*
X196247D02*
D03*
X191247D02*
D03*
X186247D02*
D03*
X181247D02*
D03*
X176247D02*
D03*
X201247Y154800D02*
D03*
X196247D02*
D03*
X191247D02*
D03*
X186247D02*
D03*
X181247D02*
D03*
X176247D02*
D03*
X171247D02*
D03*
X206247D02*
D03*
X171247Y173698D02*
D03*
D19*
X162147Y131949D02*
D03*
X175021D02*
D03*
D20*
X328247Y111606D02*
D03*
Y120268D02*
D03*
X156247Y185606D02*
D03*
Y194268D02*
D03*
X94247Y437606D02*
D03*
Y446268D02*
D03*
D21*
X364247Y122000D02*
D03*
X400074D02*
D03*
X364247Y104283D02*
D03*
X400074D02*
D03*
D22*
X458586Y283564D02*
D03*
X385161D02*
D03*
Y397737D02*
D03*
X458586D02*
D03*
D23*
X403468Y285139D02*
D03*
X448940D02*
D03*
X438704D02*
D03*
D24*
X358586Y364568D02*
D03*
Y354725D02*
D03*
Y344883D02*
D03*
Y335040D02*
D03*
Y325198D02*
D03*
Y315355D02*
D03*
Y305808D02*
D03*
Y299115D02*
D03*
Y374410D02*
D03*
D25*
X80123Y409200D02*
D03*
X90572Y405460D02*
D03*
Y412940D02*
D03*
X81523Y392900D02*
D03*
X91972Y389160D02*
D03*
Y396640D02*
D03*
X84423Y377300D02*
D03*
X94872Y373560D02*
D03*
Y381040D02*
D03*
D26*
X491800Y91100D02*
Y514400D01*
X0D02*
X491800D01*
X0Y91100D02*
Y514400D01*
Y91100D02*
X491800D01*
X38000Y99636D02*
Y95700D01*
X39968D01*
X40624Y96356D01*
Y98980D01*
X39968Y99636D01*
X38000D01*
X41936D02*
X43248D01*
X42592D01*
Y95700D01*
X41936D01*
X43248D01*
X45215Y99636D02*
Y97012D01*
X46527Y95700D01*
X47839Y97012D01*
Y99636D01*
X49151D02*
X50463D01*
X49807D01*
Y95700D01*
X49151D01*
X50463D01*
X55055Y98980D02*
X54399Y99636D01*
X53087D01*
X52431Y98980D01*
Y98324D01*
X53087Y97668D01*
X54399D01*
X55055Y97012D01*
Y96356D01*
X54399Y95700D01*
X53087D01*
X52431Y96356D01*
X56367Y99636D02*
X57679D01*
X57023D01*
Y95700D01*
X56367D01*
X57679D01*
X61614Y99636D02*
X60303D01*
X59647Y98980D01*
Y96356D01*
X60303Y95700D01*
X61614D01*
X62270Y96356D01*
Y98980D01*
X61614Y99636D01*
X63582Y95700D02*
Y99636D01*
X66206Y95700D01*
Y99636D01*
X71454D02*
Y95700D01*
X73422D01*
X74078Y96356D01*
Y97012D01*
X73422Y97668D01*
X71454D01*
X73422D01*
X74078Y98324D01*
Y98980D01*
X73422Y99636D01*
X71454D01*
X75389D02*
Y98980D01*
X76701Y97668D01*
X78013Y98980D01*
Y99636D01*
X76701Y97668D02*
Y95700D01*
X83261Y99636D02*
X85885D01*
Y98980D01*
X83261Y96356D01*
Y95700D01*
X85885D01*
X89821Y99636D02*
X87197D01*
Y95700D01*
X89821D01*
X87197Y97668D02*
X88509D01*
X91132Y95700D02*
Y99636D01*
X93100D01*
X93756Y98980D01*
Y97668D01*
X93100Y97012D01*
X91132D01*
X92444D02*
X93756Y95700D01*
X97036Y99636D02*
X95724D01*
X95068Y98980D01*
Y96356D01*
X95724Y95700D01*
X97036D01*
X97692Y96356D01*
Y98980D01*
X97036Y99636D01*
X45300Y104600D02*
Y108536D01*
X47268D01*
X47924Y107880D01*
Y106568D01*
X47268Y105912D01*
X45300D01*
X46612D02*
X47924Y104600D01*
X51204Y108536D02*
X49892D01*
X49236Y107880D01*
Y105256D01*
X49892Y104600D01*
X51204D01*
X51860Y105256D01*
Y107880D01*
X51204Y108536D01*
X53171D02*
Y104600D01*
X55139D01*
X55795Y105256D01*
Y105912D01*
X55139Y106568D01*
X53171D01*
X55139D01*
X55795Y107224D01*
Y107880D01*
X55139Y108536D01*
X53171D01*
X59075D02*
X57763D01*
X57107Y107880D01*
Y105256D01*
X57763Y104600D01*
X59075D01*
X59731Y105256D01*
Y107880D01*
X59075Y108536D01*
X61043Y104600D02*
Y108536D01*
X63667Y104600D01*
Y108536D01*
X64979Y104600D02*
Y107224D01*
X66291Y108536D01*
X67602Y107224D01*
Y104600D01*
Y106568D01*
X64979D01*
X68914Y108536D02*
Y105256D01*
X69570Y104600D01*
X70882D01*
X71538Y105256D01*
Y108536D01*
X72850D02*
X75474D01*
X74162D01*
Y104600D01*
X7100Y165436D02*
X9724D01*
X8412D01*
Y161500D01*
X13004Y165436D02*
X11692D01*
X11036Y164780D01*
Y162156D01*
X11692Y161500D01*
X13004D01*
X13660Y162156D01*
Y164780D01*
X13004Y165436D01*
X14972Y161500D02*
Y165436D01*
X16939D01*
X17595Y164780D01*
Y163468D01*
X16939Y162812D01*
X14972D01*
X480000Y171399D02*
X483999D01*
X481999Y173398D02*
Y169400D01*
X478700Y139899D02*
X482699D01*
X287300Y156199D02*
X291299D01*
X290899Y149298D02*
X286900D01*
Y143300D01*
X290899D01*
X286900Y146299D02*
X288899D01*
X287400Y138898D02*
X291399D01*
X289399D01*
Y132900D01*
X291499Y128098D02*
X287500D01*
Y125099D01*
X289499Y126099D01*
X290499D01*
X291499Y125099D01*
Y123100D01*
X290499Y122100D01*
X288500D01*
X287500Y123100D01*
X293498Y128098D02*
Y124099D01*
X295497Y122100D01*
X297497Y124099D01*
Y128098D01*
X282536Y119200D02*
X279256D01*
X278600Y118544D01*
Y117232D01*
X279256Y116576D01*
X282536D01*
Y115264D02*
X278600D01*
X280568D01*
Y112640D01*
X282536D01*
X278600D01*
Y111328D02*
Y110017D01*
Y110673D01*
X282536D01*
X281880Y111328D01*
X268536Y119200D02*
X265256D01*
X264600Y118544D01*
Y117232D01*
X265256Y116576D01*
X268536D01*
Y115264D02*
X264600D01*
X266568D01*
Y112640D01*
X268536D01*
X264600D01*
Y108705D02*
Y111328D01*
X267224Y108705D01*
X267880D01*
X268536Y109361D01*
Y110673D01*
X267880Y111328D01*
X253936Y119500D02*
X250656D01*
X250000Y118844D01*
Y117532D01*
X250656Y116876D01*
X253936D01*
Y115564D02*
X250000D01*
X251968D01*
Y112940D01*
X253936D01*
X250000D01*
X253280Y111628D02*
X253936Y110973D01*
Y109661D01*
X253280Y109005D01*
X252624D01*
X251968Y109661D01*
Y110317D01*
Y109661D01*
X251312Y109005D01*
X250656D01*
X250000Y109661D01*
Y110973D01*
X250656Y111628D01*
X240136Y119500D02*
X236856D01*
X236200Y118844D01*
Y117532D01*
X236856Y116876D01*
X240136D01*
Y115564D02*
X236200D01*
X238168D01*
Y112940D01*
X240136D01*
X236200D01*
Y109661D02*
X240136D01*
X238168Y111628D01*
Y109005D01*
X215968Y122500D02*
Y119876D01*
X216184Y131100D02*
Y129788D01*
X216840Y130444D02*
X215528D01*
X215780Y141876D02*
X216436Y142532D01*
Y143844D01*
X215780Y144500D01*
X215124D01*
X214468Y143844D01*
Y142532D01*
X213812Y141876D01*
X213156D01*
X212500Y142532D01*
Y143844D01*
X213156Y144500D01*
X161124Y116980D02*
X160468Y117636D01*
X159156D01*
X158500Y116980D01*
Y114356D01*
X159156Y113700D01*
X160468D01*
X161124Y114356D01*
Y115668D01*
X159812D01*
X146600Y152368D02*
X149224D01*
X159400Y139168D02*
X162024D01*
X160712Y140480D02*
Y137856D01*
X108400Y123668D02*
X111024D01*
X109712Y124980D02*
Y122356D01*
X110900Y153868D02*
X113524D01*
X111724Y104236D02*
X109100D01*
Y100300D01*
X111724D01*
X109100Y102268D02*
X110412D01*
X113036Y100300D02*
Y104236D01*
X115660Y100300D01*
Y104236D01*
X119595Y103580D02*
X118939Y104236D01*
X117627D01*
X116972Y103580D01*
Y100956D01*
X117627Y100300D01*
X118939D01*
X119595Y100956D01*
X120907Y99644D02*
X123531D01*
X124843Y100300D02*
Y102924D01*
X126155Y104236D01*
X127467Y102924D01*
Y100300D01*
Y102268D01*
X124843D01*
X111924Y111936D02*
X109300D01*
Y108000D01*
X111924D01*
X109300Y109968D02*
X110612D01*
X113236Y108000D02*
Y111936D01*
X115860Y108000D01*
Y111936D01*
X119795Y111280D02*
X119139Y111936D01*
X117827D01*
X117172Y111280D01*
Y108656D01*
X117827Y108000D01*
X119139D01*
X119795Y108656D01*
X121107Y107344D02*
X123731D01*
X125043Y111936D02*
Y108000D01*
X127011D01*
X127667Y108656D01*
Y109312D01*
X127011Y109968D01*
X125043D01*
X127011D01*
X127667Y110624D01*
Y111280D01*
X127011Y111936D01*
X125043D01*
X374524Y506380D02*
X373868Y507036D01*
X372556D01*
X371900Y506380D01*
Y505724D01*
X372556Y505068D01*
X373868D01*
X374524Y504412D01*
Y503756D01*
X373868Y503100D01*
X372556D01*
X371900Y503756D01*
X375836Y507036D02*
X378460D01*
X377148D01*
Y503100D01*
X379771D02*
Y505724D01*
X381083Y507036D01*
X382395Y505724D01*
Y503100D01*
Y505068D01*
X379771D01*
X383707Y503100D02*
Y507036D01*
X385675D01*
X386331Y506380D01*
Y505068D01*
X385675Y504412D01*
X383707D01*
X385019D02*
X386331Y503100D01*
X387643Y507036D02*
X390267D01*
X388955D01*
Y503100D01*
X187800Y94200D02*
X189768D01*
X190424Y94856D01*
X189768Y95512D01*
X188456D01*
X187800Y96168D01*
X188456Y96824D01*
X190424D01*
X193704Y94200D02*
X192392D01*
X191736Y94856D01*
Y96168D01*
X192392Y96824D01*
X193704D01*
X194360Y96168D01*
Y95512D01*
X191736D01*
X195671Y96824D02*
Y94200D01*
Y95512D01*
X196327Y96168D01*
X196983Y96824D01*
X197639D01*
X199607D02*
X200919Y94200D01*
X202231Y96824D01*
X204199Y94200D02*
X205511D01*
X206167Y94856D01*
Y96168D01*
X205511Y96824D01*
X204199D01*
X203543Y96168D01*
Y94856D01*
X204199Y94200D01*
X148800Y169400D02*
Y172024D01*
X149456D01*
X150112Y171368D01*
Y169400D01*
Y171368D01*
X150768Y172024D01*
X151424Y171368D01*
Y169400D01*
X153392D02*
X154704D01*
X155360Y170056D01*
Y171368D01*
X154704Y172024D01*
X153392D01*
X152736Y171368D01*
Y170056D01*
X153392Y169400D01*
X157327Y172680D02*
Y172024D01*
X156672D01*
X157983D01*
X157327D01*
Y170056D01*
X157983Y169400D01*
X160607D02*
X161919D01*
X162575Y170056D01*
Y171368D01*
X161919Y172024D01*
X160607D01*
X159951Y171368D01*
Y170056D01*
X160607Y169400D01*
X163887Y172024D02*
Y169400D01*
Y170712D01*
X164543Y171368D01*
X165199Y172024D01*
X165855D01*
X147968Y163000D02*
X146656D01*
X146000Y163656D01*
Y164968D01*
X146656Y165624D01*
X147968D01*
X148624Y164968D01*
Y164312D01*
X146000D01*
X149936Y163000D02*
Y165624D01*
X151904D01*
X152560Y164968D01*
Y163000D01*
X154527Y165624D02*
X155839D01*
X156495Y164968D01*
Y163000D01*
X154527D01*
X153872Y163656D01*
X154527Y164312D01*
X156495D01*
X157807Y166936D02*
Y163000D01*
X159775D01*
X160431Y163656D01*
Y164312D01*
Y164968D01*
X159775Y165624D01*
X157807D01*
X161743Y163000D02*
X163055D01*
X162399D01*
Y166936D01*
X161743D01*
X166991Y163000D02*
X165679D01*
X165023Y163656D01*
Y164968D01*
X165679Y165624D01*
X166991D01*
X167647Y164968D01*
Y164312D01*
X165023D01*
D27*
X457929Y157618D02*
Y160829D01*
Y154204D02*
X458031Y154102D01*
X451947Y163600D02*
X457929Y157618D01*
X458031Y157517D01*
Y154102D02*
Y157517D01*
X422500Y117128D02*
Y137300D01*
Y117128D02*
X427328Y112300D01*
X351047Y141681D02*
X352928Y139800D01*
X351047Y141681D02*
Y147210D01*
X336606Y145600D02*
Y155259D01*
X338247Y156900D01*
X342410D01*
X343110Y157600D01*
X304947Y129600D02*
X336006D01*
X295947Y138600D02*
Y172400D01*
Y138600D02*
X304947Y129600D01*
X295947Y172400D02*
X310647Y187100D01*
X331205D01*
X101350Y381040D02*
X102247Y381937D01*
X94872Y381040D02*
X101350D01*
X91972Y396640D02*
X98950D01*
X90572Y412940D02*
X90768Y413137D01*
X97347D01*
X436447Y181200D02*
X440790D01*
X431447Y186200D02*
X436447Y181200D01*
X421105Y186200D02*
X431447D01*
X440790D01*
X412510Y176200D02*
X421105D01*
X411947Y175637D02*
X412510Y176200D01*
X440790Y186200D02*
X451384D01*
X451947Y185637D01*
X440790Y176200D02*
X450384D01*
X451947Y177763D01*
X435884Y166295D02*
X439895Y170305D01*
X435884Y153700D02*
Y163700D01*
Y166295D01*
X389947Y147700D02*
Y172574D01*
X399947Y182574D01*
X451947Y163600D02*
Y177763D01*
X345547Y182100D02*
X350890D01*
X336984Y165600D02*
X343110D01*
X350984Y157600D02*
Y165600D01*
Y172005D01*
X338216Y147210D02*
X351047D01*
X336606Y145600D02*
X338216Y147210D01*
X316673Y182100D02*
X331205D01*
X313047Y178474D02*
X316673Y182100D01*
X307147Y172574D02*
X313047Y178474D01*
X307147Y147500D02*
X309047Y145600D01*
X307147Y147500D02*
Y172574D01*
X361247Y177100D02*
X361347Y177200D01*
Y170910D02*
Y177200D01*
Y170910D02*
X363047Y169210D01*
X350890Y177100D02*
X361247D01*
X343947Y182100D02*
X350890D01*
X338947Y187100D02*
X343947Y182100D01*
X331205Y187100D02*
X338947D01*
X350890D01*
X206247Y173698D02*
Y185912D01*
X206147Y186012D02*
X206247Y185912D01*
X196247Y173698D02*
Y185912D01*
X196147Y186012D02*
X196247Y185912D01*
X201247Y167749D02*
Y173698D01*
X199647Y166149D02*
X201247Y167749D01*
X191247Y168249D02*
Y173698D01*
Y168249D02*
X193347Y166149D01*
X199647D01*
X176147Y182749D02*
X176247Y182649D01*
X176147Y182749D02*
Y186012D01*
X176247Y173698D02*
Y182649D01*
X164084Y153949D02*
X170396D01*
X171247Y154800D01*
X175021Y131949D02*
X176247Y133175D01*
X175021Y127223D02*
Y131949D01*
X171547Y123749D02*
X175021Y127223D01*
X152347Y123749D02*
X171547D01*
X152147Y123949D02*
X152347Y123749D01*
X176247Y133175D02*
Y154800D01*
X156210Y148012D02*
Y153949D01*
X152147Y143949D02*
X156210Y148012D01*
X154147Y131949D02*
X162147D01*
X152147Y133949D02*
X154147Y131949D01*
X168210Y138012D02*
Y141949D01*
X162147Y131949D02*
X168210Y138012D01*
X206247Y154800D02*
Y159349D01*
X203947Y161649D02*
X206247Y159349D01*
X198247Y161649D02*
X203947D01*
X203047Y133049D02*
X204147Y131949D01*
X190147D02*
X204147D01*
X196347Y159749D02*
X198247Y161649D01*
X196347Y131949D02*
Y159749D01*
X201247Y144849D02*
Y154800D01*
Y144849D02*
X204147Y141949D01*
X191247Y143049D02*
Y154800D01*
X182210Y111949D02*
Y134012D01*
X190147Y141949D01*
X191247Y143049D01*
X204147Y141949D02*
X206947D01*
X212147Y136749D01*
Y112012D02*
Y136749D01*
X212084Y111949D02*
X212147Y112012D01*
X204210Y111949D02*
Y121886D01*
X204147Y121949D02*
X204210Y121886D01*
X190147Y121949D02*
X204147D01*
X190084Y121886D02*
X190147Y121949D01*
X190084Y111949D02*
Y121886D01*
X399947Y182574D02*
X401321Y181200D01*
X421105D01*
X350890Y187100D02*
X360610D01*
X361047Y187537D01*
X156704Y186063D02*
X164247D01*
X156247Y185606D02*
X156704Y186063D01*
D28*
X372458Y169210D02*
X403847Y200600D01*
X391295Y226594D02*
Y322400D01*
X371555Y206855D02*
X391295Y226594D01*
X371555Y198045D02*
Y206855D01*
X62547Y349790D02*
Y404200D01*
X89294Y334953D02*
X90247Y334000D01*
X77385Y334953D02*
X89294D01*
X62547Y349790D02*
X77385Y334953D01*
X116842Y295000D02*
X164147Y247694D01*
X75847Y295000D02*
X116842D01*
X72747Y298100D02*
X75847Y295000D01*
X146035Y101000D02*
X217147D01*
X130235Y116800D02*
X146035Y101000D01*
X214140Y221400D02*
Y253160D01*
X206147Y213407D02*
X214140Y221400D01*
X203447Y263853D02*
X214140Y253160D01*
X274147Y431183D02*
X318191Y387139D01*
X274147Y431183D02*
Y438605D01*
X274294Y438753D01*
X279247Y440804D02*
X284200Y435851D01*
X284147Y430900D02*
Y435851D01*
Y430900D02*
X323444Y391603D01*
X264200Y446087D02*
Y469052D01*
X264147Y446034D02*
X264200Y446087D01*
X264147Y438900D02*
Y446034D01*
Y438900D02*
X264200Y438847D01*
X304200Y428430D02*
X306730Y425900D01*
X301647Y438883D02*
X304147Y436383D01*
Y428483D02*
Y436383D01*
X294425Y438883D02*
X301647D01*
X294295Y438753D02*
X294425Y438883D01*
X302243Y443800D02*
X304147Y441896D01*
Y441879D02*
Y441896D01*
Y441879D02*
X307049Y438977D01*
X321151D01*
X324053Y441879D01*
X253617Y438883D02*
X254053Y438447D01*
X244330Y438883D02*
X253617D01*
X239247Y433800D02*
X244330Y438883D01*
X198947Y386496D02*
X234147Y421696D01*
Y446500D01*
X219295Y450757D02*
X224147Y445904D01*
Y427806D02*
Y445904D01*
Y427806D02*
X224200Y427753D01*
X182010Y405263D02*
X204053Y427306D01*
Y435982D01*
X204000Y436034D02*
Y438553D01*
Y436034D02*
X204053Y435982D01*
X204000Y438553D02*
X209247Y443800D01*
X199247Y441081D02*
Y443800D01*
X194147Y435982D02*
X199247Y441081D01*
X194147Y431600D02*
Y435982D01*
X189847Y427300D02*
X194147Y431600D01*
X184100Y449453D02*
X209200Y474553D01*
X184100Y441648D02*
Y449453D01*
X181429Y438977D02*
X184100Y441648D01*
X169247Y433800D02*
X171966D01*
X177143Y438977D02*
X181429D01*
X171966Y433800D02*
X177143Y438977D01*
X174147Y441696D02*
Y451995D01*
X171429Y438977D02*
X174147Y441696D01*
X163270Y438977D02*
X171429D01*
X174147Y451995D02*
X199200Y477047D01*
X159247Y443000D02*
X163270Y438977D01*
X147547Y460000D02*
X154130Y453417D01*
Y429617D02*
Y453417D01*
Y429617D02*
X156447Y427300D01*
X239147Y351300D02*
X254080Y336367D01*
Y221733D02*
Y336367D01*
X236847Y338200D02*
X244130Y330917D01*
Y221183D02*
Y330917D01*
X229247Y226800D02*
Y233800D01*
X232347Y243800D02*
X234090Y242057D01*
Y221300D02*
Y242057D01*
X196147Y212877D02*
X204080Y220810D01*
X196147Y193886D02*
Y212877D01*
X206147Y193886D02*
Y213407D01*
X194147Y224800D02*
Y231130D01*
Y229863D02*
Y390000D01*
X176147Y206800D02*
X194147Y224800D01*
Y390000D02*
X229247Y425100D01*
X269247Y426300D02*
Y433800D01*
X229200Y475094D02*
X259247Y445047D01*
Y443800D02*
Y445047D01*
X236947Y449300D02*
X244547D01*
X234147Y446500D02*
X236947Y449300D01*
X199247Y427800D02*
Y433800D01*
X194147Y422700D02*
X199247Y427800D01*
X94884Y422700D02*
X194147D01*
X97347Y405263D02*
X182010D01*
X209247Y425600D02*
Y433800D01*
X173647Y390000D02*
X209247Y425600D01*
X103910Y390000D02*
X173647D01*
X219247Y429300D02*
Y433800D01*
X164010Y374063D02*
X219247Y429300D01*
X102247Y374063D02*
X164010D01*
X159247Y443000D02*
Y443800D01*
X156447Y427300D02*
X189847D01*
X103847Y390063D02*
X103910Y390000D01*
X15444Y470000D02*
X35147Y450297D01*
Y329800D02*
Y450297D01*
X20447Y329800D02*
X35147D01*
X33947D02*
X37047Y326700D01*
Y199515D02*
Y326700D01*
Y199515D02*
X38562Y198000D01*
X179247Y243800D02*
Y248800D01*
X169247Y243800D02*
Y250000D01*
X119247Y300000D02*
X169247Y250000D01*
X72747Y303405D02*
X79342Y310000D01*
X72747Y298100D02*
Y303405D01*
X48247Y486800D02*
X69247Y507800D01*
X53847Y483700D02*
X74447Y504300D01*
X77047Y500600D02*
X280247D01*
X59947Y483500D02*
X77047Y500600D01*
X226299Y496953D02*
X229294Y493957D01*
X222196Y496953D02*
X226299D01*
X219295Y494052D02*
X222196Y496953D01*
X48247Y447800D02*
Y486800D01*
X53847Y449593D02*
Y483700D01*
X59947Y462500D02*
Y483500D01*
Y462500D02*
X67494Y454953D01*
X78794D01*
X64147Y431900D02*
X68544D01*
X48247Y447800D02*
X64147Y431900D01*
X338247Y343514D02*
X353722Y358989D01*
X338247Y316100D02*
Y343514D01*
Y316100D02*
X348539Y305808D01*
X400074Y104283D02*
X404468D01*
X410247Y110063D01*
X473947Y160000D02*
Y184700D01*
Y160000D02*
X480247D01*
X458757D02*
X473947D01*
X458047Y200600D02*
X473947Y184700D01*
X363047Y169210D02*
X372458D01*
X61105Y137800D02*
X66447D01*
X390347Y481137D02*
Y485600D01*
X385547Y490400D02*
X390347Y485600D01*
X381484Y480400D02*
X385547Y484463D01*
Y490400D01*
X251647Y102800D02*
X334340D01*
X20247Y330000D02*
X20447Y329800D01*
X20247Y330000D02*
Y340000D01*
X100247Y198000D02*
Y199600D01*
X92262Y207585D02*
X100247Y199600D01*
X48147Y207585D02*
X92262D01*
X38562Y198000D02*
X48147Y207585D01*
X58247Y198000D02*
X80562D01*
X417506Y126941D02*
X419047Y125400D01*
X417506Y126941D02*
Y147700D01*
X94247Y429937D02*
Y437606D01*
X209647Y338200D02*
X236847D01*
X210747Y351300D02*
X239147D01*
X364247Y104283D02*
X376458Y116494D01*
Y135990D01*
X351047D02*
X376458D01*
X354184Y122000D02*
X364247D01*
X78794Y454953D02*
X84647Y449100D01*
Y426300D02*
Y449100D01*
X62547Y404200D02*
X84647Y426300D01*
X176147Y193886D02*
Y206800D01*
X164247Y193937D02*
X176096D01*
X259247Y433800D02*
Y433894D01*
X246299Y486953D02*
X264200Y469052D01*
X259247Y433894D02*
X264200Y438847D01*
X239295Y486953D02*
X246299D01*
X234247Y492000D02*
X239295Y486953D01*
X101744Y373560D02*
X102247Y374063D01*
X94872Y373560D02*
X101744D01*
X90768Y405263D02*
X97347D01*
X203447Y380100D02*
X249247Y425900D01*
Y433800D01*
X189547Y244100D02*
Y393100D01*
X224200Y427753D01*
X299247Y443800D02*
X302243D01*
X271047Y492000D02*
X319247Y443800D01*
X244247Y492000D02*
X271047D01*
X189247Y243800D02*
X189547Y244100D01*
X229247Y425100D02*
Y433800D01*
X219295Y450757D02*
Y494052D01*
X229294Y489949D02*
Y493957D01*
Y489949D02*
X232200Y487043D01*
Y484047D02*
Y487043D01*
Y484047D02*
X234247Y482000D01*
X229200Y475094D02*
Y484052D01*
X224247Y489004D02*
X229200Y484052D01*
X224247Y489004D02*
Y492000D01*
X348539Y305808D02*
X358586D01*
X366147Y359900D02*
Y368900D01*
X364901Y370146D02*
X366147Y368900D01*
X325401Y370146D02*
X364901D01*
X386547Y334400D02*
Y385697D01*
X279247Y440804D02*
Y443800D01*
X353722Y358989D02*
X365236D01*
X366147Y359900D01*
X375372Y354725D02*
X380047Y359400D01*
X358586Y354725D02*
X375372D01*
X269247Y443800D02*
X274294Y438753D01*
X289247Y443800D02*
X294295Y438753D01*
X209200Y474553D02*
Y486953D01*
X214247Y492000D01*
X199200Y477047D02*
Y483957D01*
X204247Y489004D01*
Y492000D01*
X169247Y443800D02*
Y467000D01*
X179295Y477047D01*
Y484052D01*
X182196Y486953D01*
X189200D01*
X194247Y492000D01*
X245900Y142347D02*
X252247Y136000D01*
X95150Y388963D02*
X98747D01*
X91972Y389160D02*
X95347D01*
X95150Y388963D02*
X95347Y389160D01*
X70444Y420000D02*
Y422996D01*
X75397Y427949D01*
Y432052D01*
X72496Y434953D02*
X75397Y432052D01*
X68487Y434953D02*
X72496D01*
X53847Y449593D02*
X68487Y434953D01*
X68544Y431900D02*
X70444Y430000D01*
X74944Y460000D02*
X84310D01*
X74944Y460000D02*
X74944Y460000D01*
X72444Y460000D02*
X74944D01*
X94247Y134063D02*
X102310Y142126D01*
Y144000D01*
X110184D02*
X120247D01*
X110184Y134000D02*
X120247D01*
X130310D01*
X120247Y144000D02*
X130310D01*
X49510Y137800D02*
X61105D01*
X48947Y138363D02*
X49510Y137800D01*
X48405Y158630D02*
X63417D01*
X69147Y152900D01*
X72847Y153100D02*
X78377Y158630D01*
X90405D01*
X80790Y132800D02*
X91647D01*
X92910Y134063D01*
X94247D01*
X72847Y139600D02*
Y153100D01*
Y139600D02*
X74647Y137800D01*
X80790D01*
X61105Y142800D02*
X68047D01*
X69147Y143900D01*
Y152900D01*
X81523Y380870D02*
Y392900D01*
X80123Y397970D02*
Y409200D01*
X84423Y368924D02*
Y377300D01*
Y368924D02*
X88247Y365100D01*
X82247Y355100D02*
X88247D01*
X82247Y345100D02*
X88247D01*
X80061Y357287D02*
X82247Y355100D01*
X80061Y357287D02*
Y379408D01*
X81523Y380870D01*
X76147Y351200D02*
X82247Y345100D01*
X76147Y351200D02*
Y393995D01*
X80123Y397970D01*
X100247Y390063D02*
X103847D01*
X92184Y460000D02*
X147547D01*
X244547Y449300D02*
X249247Y444600D01*
Y443706D02*
Y444600D01*
X351247Y333500D02*
X352430Y334683D01*
X358943D01*
X351247Y322100D02*
Y333500D01*
Y322100D02*
X353647Y319700D01*
X390170D01*
X358586Y325198D02*
X377345D01*
X386547Y334400D01*
X318191Y387139D02*
X374709D01*
X380047Y381800D01*
Y359400D02*
Y381800D01*
X380641Y391603D02*
X386547Y385697D01*
X323444Y391603D02*
X380641D01*
X269247Y426300D02*
X325401Y370146D01*
X50510Y147800D02*
X61105D01*
X42347Y132900D02*
Y139637D01*
X48947Y146237D01*
X50510Y147800D01*
X80790Y142800D02*
X93384D01*
X94247Y141937D01*
X130347Y160200D02*
X144547Y146000D01*
Y121400D02*
Y146000D01*
X110147Y160200D02*
X130347D01*
X229247Y243800D02*
X232347D01*
X144547Y121400D02*
X161147Y104800D01*
X212291D01*
X66447Y137800D02*
X70647Y133600D01*
Y126600D02*
Y133600D01*
Y126600D02*
X94910D01*
X102310Y134000D01*
X42347Y132900D02*
X58447Y116800D01*
X130235D01*
X324053Y441879D02*
Y456795D01*
X280247Y500600D02*
X324053Y456795D01*
X74447Y504300D02*
X305200D01*
X69247Y507800D02*
X312700D01*
X361847Y458653D01*
X389547Y472463D02*
X391295Y470716D01*
Y320747D02*
Y322400D01*
Y470716D01*
X361047Y187537D02*
X371555Y198045D01*
X372397Y198887D01*
X403847Y200600D02*
X458047D01*
X324610Y177100D02*
X331205D01*
X321047Y173537D02*
X324610Y177100D01*
X266247Y146000D02*
X273600Y153353D01*
X336247Y119937D02*
X336606Y120296D01*
Y145600D01*
X334340Y102800D02*
X345700Y114160D01*
Y121390D01*
X346310Y122000D01*
X336247Y119937D02*
X345937D01*
X346310Y120310D01*
Y122000D01*
X364247D02*
X365300D01*
X369747Y126447D01*
Y130400D01*
X328247Y111606D02*
X335790D01*
X336247Y112063D01*
X400074Y122000D02*
X406184D01*
X410247Y117937D01*
X294053Y235887D02*
X298970Y240804D01*
X299247D01*
X273600Y153353D02*
Y183500D01*
X294053Y203953D01*
Y235887D01*
X245900Y213553D02*
X254080Y221733D01*
X245900Y142347D02*
Y213553D01*
X228500Y142953D02*
Y205553D01*
X244130Y221183D01*
X228500Y142953D02*
X235453Y136000D01*
X238247D01*
X80790Y147800D02*
X88000D01*
X100247Y160047D01*
Y198000D01*
X94247Y141937D02*
Y144300D01*
X110147Y160200D01*
X79342Y320000D02*
X108047D01*
X179247Y248800D01*
X79342Y300000D02*
X119247D01*
X169100Y233930D02*
Y236926D01*
X164147Y241879D02*
X169100Y236926D01*
X164147Y241879D02*
Y247694D01*
X159100Y233930D02*
Y236926D01*
X154147Y241879D02*
X159100Y236926D01*
X79342Y290000D02*
X112400D01*
X154147Y248253D01*
Y241879D02*
Y248253D01*
X198947Y260253D02*
Y386496D01*
Y260253D02*
X204080Y255120D01*
Y220810D02*
Y255120D01*
X289247Y433800D02*
X302247Y420800D01*
X305200Y504300D02*
X356900Y452600D01*
X306730Y425900D02*
X351000D01*
X356900Y431800D01*
Y452600D01*
X302247Y420800D02*
X353600D01*
X361847Y429047D01*
Y458653D01*
X254053Y427447D02*
Y438447D01*
Y427447D02*
X316932Y364568D01*
X358586D01*
X203447Y263853D02*
Y380100D01*
X217147Y101000D02*
X223300Y107153D01*
Y210510D01*
X234090Y221300D01*
X212291Y104800D02*
X220000Y112509D01*
Y217553D01*
X229247Y226800D01*
D29*
X421896Y137904D02*
X422500Y137300D01*
X421896Y137904D02*
Y143310D01*
X417506Y147700D02*
X421896Y143310D01*
X423506Y153700D02*
X428010D01*
X417506Y147700D02*
X423506Y153700D01*
D30*
X109100Y233930D02*
D03*
X119100D02*
D03*
X129100D02*
D03*
X139100D02*
D03*
X149100D02*
D03*
X159100D02*
D03*
X169100D02*
D03*
X179100D02*
D03*
X189100D02*
D03*
X199100D02*
D03*
X209100D02*
D03*
X219100D02*
D03*
X229100D02*
D03*
X239100D02*
D03*
X249100D02*
D03*
X259100D02*
D03*
X269100D02*
D03*
X279100D02*
D03*
X289100D02*
D03*
X299100D02*
D03*
X309100D02*
D03*
X319100D02*
D03*
X329100D02*
D03*
X339100D02*
D03*
X349100D02*
D03*
X109100Y243930D02*
D03*
X119100D02*
D03*
X129100D02*
D03*
X139100D02*
D03*
X149100D02*
D03*
X159100D02*
D03*
X169100D02*
D03*
X179100D02*
D03*
X189100D02*
D03*
X199100D02*
D03*
X209100D02*
D03*
X219100D02*
D03*
X229100D02*
D03*
X239100D02*
D03*
X249100D02*
D03*
X259100D02*
D03*
X269100D02*
D03*
X279100D02*
D03*
X289100D02*
D03*
X299100D02*
D03*
X309100D02*
D03*
X319100D02*
D03*
X329100D02*
D03*
X339100D02*
D03*
X109100Y433930D02*
D03*
X119100D02*
D03*
X129100D02*
D03*
X139100D02*
D03*
X149100D02*
D03*
X159100D02*
D03*
X169100D02*
D03*
X179100D02*
D03*
X189100D02*
D03*
X199100D02*
D03*
X209100D02*
D03*
X219100D02*
D03*
X229100D02*
D03*
X239100D02*
D03*
X249100D02*
D03*
X259100D02*
D03*
X269100D02*
D03*
X279100D02*
D03*
X289100D02*
D03*
X299100D02*
D03*
X309100D02*
D03*
X319100D02*
D03*
X329100D02*
D03*
X339100D02*
D03*
X349100D02*
D03*
X109100Y443930D02*
D03*
X119100D02*
D03*
X129100D02*
D03*
X139100D02*
D03*
X149100D02*
D03*
X159100D02*
D03*
X169100D02*
D03*
X179100D02*
D03*
X189100D02*
D03*
X199100D02*
D03*
X209100D02*
D03*
X219100D02*
D03*
X229100D02*
D03*
X239100D02*
D03*
X249100D02*
D03*
X259100D02*
D03*
X269100D02*
D03*
X279100D02*
D03*
X289100D02*
D03*
X299100D02*
D03*
X309100D02*
D03*
X319100D02*
D03*
X329100D02*
D03*
X339100D02*
D03*
X174247Y482000D02*
D03*
Y492000D02*
D03*
X184247Y482000D02*
D03*
Y492000D02*
D03*
X194247Y482000D02*
D03*
Y492000D02*
D03*
X204247Y482000D02*
D03*
Y492000D02*
D03*
X214247Y482000D02*
D03*
Y492000D02*
D03*
X224247Y482000D02*
D03*
Y492000D02*
D03*
X234247Y482000D02*
D03*
Y492000D02*
D03*
X244247Y482000D02*
D03*
X480247Y150000D02*
D03*
X90247Y344000D02*
D03*
Y354000D02*
D03*
Y364000D02*
D03*
X375547Y490400D02*
D03*
X280247Y156000D02*
D03*
Y146000D02*
D03*
Y136000D02*
D03*
X266247Y156000D02*
D03*
Y146000D02*
D03*
Y136000D02*
D03*
X252247Y156000D02*
D03*
Y146000D02*
D03*
Y136000D02*
D03*
X238247Y156000D02*
D03*
Y146000D02*
D03*
Y136000D02*
D03*
X204147Y131949D02*
D03*
Y141949D02*
D03*
X190147Y131949D02*
D03*
Y141949D02*
D03*
X120247Y154000D02*
D03*
Y144000D02*
D03*
Y134000D02*
D03*
X152147Y133949D02*
D03*
Y123949D02*
D03*
X79342Y230000D02*
D03*
Y240000D02*
D03*
Y250000D02*
D03*
Y260000D02*
D03*
Y270000D02*
D03*
Y280000D02*
D03*
Y290000D02*
D03*
Y300000D02*
D03*
Y310000D02*
D03*
Y320000D02*
D03*
Y330000D02*
D03*
Y340000D02*
D03*
X20247Y230000D02*
D03*
Y240000D02*
D03*
Y250000D02*
D03*
Y260000D02*
D03*
Y270000D02*
D03*
Y280000D02*
D03*
Y290000D02*
D03*
Y300000D02*
D03*
Y310000D02*
D03*
Y320000D02*
D03*
Y330000D02*
D03*
X70444Y460000D02*
D03*
Y450000D02*
D03*
Y420000D02*
D03*
Y430000D02*
D03*
X15444D02*
D03*
Y440000D02*
D03*
Y460000D02*
D03*
D31*
X349100Y243930D02*
D03*
Y443930D02*
D03*
X244247Y492000D02*
D03*
X385547Y490400D02*
D03*
X20247Y340000D02*
D03*
X15444Y470000D02*
D03*
D32*
X480247Y160000D02*
D03*
X90247Y334000D02*
D03*
X280247Y126000D02*
D03*
X266247D02*
D03*
X252247D02*
D03*
X238247D02*
D03*
X204147Y121949D02*
D03*
X190147D02*
D03*
X120247Y124000D02*
D03*
X152147Y143949D02*
D03*
D33*
X48405Y158630D02*
D03*
X38562Y198000D02*
D03*
X58247D02*
D03*
X90405Y158630D02*
D03*
X80562Y198000D02*
D03*
X100247D02*
D03*
D34*
X367247Y381989D02*
D03*
Y293800D02*
D03*
D35*
X70444Y470000D02*
D03*
Y440000D02*
D03*
X15444Y420000D02*
D03*
Y450000D02*
D03*
D36*
X251647Y102800D02*
D03*
X419047Y125400D02*
D03*
X209647Y338200D02*
D03*
X210747Y351300D02*
D03*
X369747Y130400D02*
D03*
D37*
X19685Y496612D02*
D03*
X472441D02*
D03*
Y110785D02*
D03*
X19685D02*
D03*
M02*
