M48
;Layer_Color=9474304
;FILE_FORMAT=2:5
INCH,TZ
;TYPE=PLATED
T1F00S00C0.02800
T2F00S00C0.04331
T3F00S00C0.05512
T4F00S00C0.06299
T5F00S00C0.13780
%
T01
X251647Y102800
X369747Y130400
X419047Y125400
X209647Y338200
X210747Y351300
T02
X120247Y124000
Y134000
Y144000
Y154000
X152147Y143949
Y133949
Y123949
X190147Y121949
Y131949
Y141949
X204147
Y131949
Y121949
X238247Y126000
Y136000
Y146000
Y156000
X252247
Y146000
Y136000
Y126000
X266247
Y136000
Y146000
Y156000
X280247
Y146000
Y136000
Y126000
X480247Y150000
Y160000
X349100Y233930
X339100
X329100
X319100
X309100
X299100
X289100
X279100
X269100
X259100
Y243930
X269100
X279100
X289100
X299100
X309100
X319100
X329100
X339100
X349100
X249100
Y233930
X239100
X229100
X219100
X209100
X199100
X189100
X179100
X169100
X159100
X149100
X139100
X129100
X119100
X109100
Y243930
X119100
X129100
X139100
X149100
X159100
X169100
X179100
X189100
X199100
X209100
X219100
X229100
X239100
X79342Y240000
Y230000
Y250000
Y260000
Y270000
Y280000
Y290000
Y300000
Y310000
X20247
Y300000
Y290000
Y280000
Y270000
Y260000
Y250000
Y240000
Y230000
Y320000
Y330000
Y340000
X79342
Y330000
Y320000
X90247Y334000
Y344000
Y354000
Y364000
X70444Y420000
Y430000
Y440000
Y450000
Y460000
X15444
Y450000
Y440000
Y430000
Y420000
X109100Y433930
X119100
X129100
X139100
X149100
X159100
X169100
X179100
X189100
X199100
X209100
X219100
X229100
X239100
X249100
Y443930
X239100
X229100
X219100
X209100
X199100
X189100
X179100
X169100
X159100
X149100
X139100
X129100
X119100
X109100
X259100
Y433930
X269100
X279100
X289100
X299100
X309100
X319100
X329100
X339100
X349100
Y443930
X339100
X329100
X319100
X309100
X299100
X289100
X279100
X269100
X375547Y490400
X385547
X244247Y492000
X234247
X224247
X214247
X204247
X194247
X184247
X174247
Y482000
X184247
X194247
X204247
X214247
X224247
X234247
X244247
X70444Y470000
X15444
T03
X48405Y158630
X90405
X80562Y198000
X100247
X58247
X38562
T04
X367247Y293800
Y381989
T05
X19685Y110785
X472441
Y496612
X19685
M30
