M48
;Layer_Color=9474304
;FILE_FORMAT=2:4
INCH,LZ
;TYPE=PLATED
T1F00S00C0.0200
T2F00S00C0.0354
T3F00S00C0.0787
%
T01
X097835Y050696
X097827Y051021
X097823Y051331
X097819Y051641
X097815Y051951
X098208
X098212Y051641
X098216Y051331
X09822Y051021
X098224Y050711
X105709Y050696
X105701Y051021
X105697Y051331
X105693Y051641
X105689Y051951
X106082
X106086Y051641
X10609Y051331
X106094Y051021
X106098Y050711
Y059373
X106094Y059683
X10609Y059993
X106086Y060303
X106082Y060613
X105689
X105693Y060303
X105697Y059993
X105701Y059683
X105709Y059358
X098224Y059373
X09822Y059683
X098216Y059993
X098212Y060303
X098208Y060613
X097815
X097819Y060303
X097823Y059993
X097827Y059683
X097835Y059358
X09035Y059373
X090346Y059683
X090342Y059993
X090338Y060303
X090334Y060613
X089941
X089945Y060303
X089949Y059993
X089953Y059683
X089961Y059358
X089941Y051951
X089945Y051641
X089949Y051331
X089953Y051021
X089961Y050696
X09035Y050711
X090346Y051021
X090342Y051331
X090338Y051641
X090334Y051951
X08246
X08246
X082464Y051641
X082464
X082468Y051331
X082468
X082472Y051021
X082472
X082476Y050711
X082476
X082087Y050696
X082087
X082079Y051021
X082079
X082075Y051331
X082075
X082071Y051641
X082071
X082067Y051951
X082067
X082087Y059358
X082079Y059683
X082075Y059993
X082071Y060303
X082067Y060613
X08246
X082464Y060303
X082468Y059993
X082472Y059683
X082476Y059373
Y069215
X082472Y069525
X082468Y069835
X082464Y070145
X08246Y070455
X082067
X082071Y070145
X082075Y069835
X082079Y069525
X082087Y0692
X089961
X089953Y069525
X089949Y069835
X089945Y070145
X089941Y070455
X090334
X090338Y070145
X090342Y069835
X090346Y069525
X09035Y069215
X097835Y0692
X097827Y069525
X097823Y069835
X097819Y070145
X097815Y070455
X098208
X098212Y070145
X098216Y069835
X09822Y069525
X098224Y069215
X105709Y0692
X105701Y069525
X105697Y069835
X105693Y070145
X105689Y070455
X106082
X106086Y070145
X10609Y069835
X106094Y069525
X106098Y069215
X111811Y08622
X112598
X108268
X107087
X104724
X103937
X105709Y087704
X105701Y088029
X105697Y088339
X105693Y088649
X105689Y088959
X106082
X106086Y088649
X10609Y088339
X106094Y088029
X106098Y087719
X100394Y08622
X099213
X09685Y086267
X096063
X097835Y087704
X097827Y088029
X097823Y088339
X097819Y088649
X097815Y088959
X098208
X098212Y088649
X098216Y088339
X09822Y088029
X098224Y087719
X098208Y080298
X098212Y079988
X098216Y079678
X09822Y079368
X098224Y079058
X097835Y079043
X097827Y079368
X097823Y079678
X097819Y079988
X097815Y080298
X105689
X105693Y079988
X105697Y079678
X105701Y079368
X105709Y079043
X106098Y079058
X106094Y079368
X10609Y079678
X106086Y079988
X106082Y080298
X090334
X090338Y079988
X090342Y079678
X090346Y079368
X09035Y079058
X089961Y079043
X089953Y079368
X089949Y079678
X089945Y079988
X089941Y080298
X088976Y08622
X088189
X091339Y086267
X09252
X09035Y087719
X090346Y088029
X090342Y088339
X090338Y088649
X090334Y088959
X089941
X089945Y088649
X089949Y088339
X089953Y088029
X089961Y087704
X084646Y08622
X083465
X081102
X080315
X082087Y087704
X082079Y088029
X082075Y088339
X082071Y088649
X082067Y088959
X08246
X082464Y088649
X082468Y088339
X082472Y088029
X082476Y087719
X08246Y080298
X082464Y079988
X082468Y079678
X082472Y079368
X082476Y079058
X082087Y079043
X082079Y079368
X082075Y079678
X082071Y079988
X082067Y080298
X076772Y08622
X075591
T02
X109843Y088733
X110843
X108843
X102969
X101968
X100969
X095094Y08878
X094094
X093094
X08722Y088733
X08622
X08522
X079346
X078346
X077346
T03
X112598Y088733
X107087
X104724
X099213
X09685Y08878
X091339
X088976Y088733
X083465
X081102
X075591
M30
