%FSLAX25Y25*%
%MOIN*%
G70*
G01*
G75*
G04 Layer_Physical_Order=1*
G04 Layer_Color=255*
%ADD10C,0.00787*%
%ADD11C,0.02000*%
%ADD12R,0.03740X0.03150*%
%ADD13R,0.04724X0.02559*%
G04:AMPARAMS|DCode=14|XSize=31.5mil|YSize=37.4mil|CornerRadius=0mil|HoleSize=0mil|Usage=FLASHONLY|Rotation=300.000|XOffset=0mil|YOffset=0mil|HoleType=Round|Shape=Rectangle|*
%AMROTATEDRECTD14*
4,1,4,-0.02407,0.00429,0.00832,0.02299,0.02407,-0.00429,-0.00832,-0.02299,-0.02407,0.00429,0.0*
%
%ADD14ROTATEDRECTD14*%

G04:AMPARAMS|DCode=15|XSize=31.5mil|YSize=37.4mil|CornerRadius=0mil|HoleSize=0mil|Usage=FLASHONLY|Rotation=240.000|XOffset=0mil|YOffset=0mil|HoleType=Round|Shape=Rectangle|*
%AMROTATEDRECTD15*
4,1,4,-0.00832,0.02299,0.02407,0.00429,0.00832,-0.02299,-0.02407,-0.00429,-0.00832,0.02299,0.0*
%
%ADD15ROTATEDRECTD15*%

%ADD16P,0.06681X4X75.0*%
%ADD17P,0.06681X4X375.0*%
%ADD18O,0.03937X0.07874*%
%ADD19R,0.03937X0.07874*%
%ADD20R,0.06299X0.06299*%
%ADD21R,0.12992X0.10039*%
%ADD22R,0.03740X0.10039*%
G04:AMPARAMS|DCode=23|XSize=55.12mil|YSize=82.68mil|CornerRadius=0mil|HoleSize=0mil|Usage=FLASHONLY|Rotation=120.000|XOffset=0mil|YOffset=0mil|HoleType=Round|Shape=Rectangle|*
%AMROTATEDRECTD23*
4,1,4,0.04958,-0.00320,-0.02202,-0.04454,-0.04958,0.00320,0.02202,0.04454,0.04958,-0.00320,0.0*
%
%ADD23ROTATEDRECTD23*%

%ADD24R,0.06299X0.06299*%
%ADD25R,0.03150X0.03740*%
%ADD26R,0.04724X0.04724*%
%ADD27C,0.02500*%
%ADD28C,0.01500*%
%ADD29R,0.05906X0.05906*%
%ADD30C,0.05906*%
%ADD31O,0.19685X0.11811*%
%ADD32C,0.07874*%
%ADD33R,0.07874X0.07874*%
%ADD34C,0.06299*%
G36*
X33000Y850000D02*
X60500Y841500D01*
X81500Y831000D01*
X103500Y815000D01*
X118000Y800500D01*
X128500Y787000D01*
X133500Y779500D01*
X138500Y771000D01*
X146500Y754000D01*
X152000Y736500D01*
X156000Y719500D01*
X157500Y702500D01*
X156500Y681500D01*
X154000Y662500D01*
X148500Y644000D01*
X141500Y627000D01*
X133000Y611500D01*
X122500Y597000D01*
X112500Y585500D01*
X101000Y575000D01*
X82000Y561500D01*
X70000Y555000D01*
X57000Y549000D01*
X28500Y541000D01*
X500Y538500D01*
X-22000Y540000D01*
X-46500Y545500D01*
X-69500Y554500D01*
X-92500Y568500D01*
X-113500Y586500D01*
X-131000Y608500D01*
X-141000Y626500D01*
X-148000Y642000D01*
X-154500Y666000D01*
X-157000Y688000D01*
X-156500Y712000D01*
X-154000Y728500D01*
X-149000Y746000D01*
X-141500Y765000D01*
X-130500Y783500D01*
X-118500Y799500D01*
X-104500Y814000D01*
X-80500Y831500D01*
X-66500Y838500D01*
X-52500Y844500D01*
X-22500Y852000D01*
X8000Y853500D01*
X33000Y850000D01*
D02*
G37*
%LPC*%
G36*
X40500Y746193D02*
X36276D01*
Y741968D01*
X40500D01*
Y746193D01*
D02*
G37*
G36*
X-82000Y785693D02*
X-84945D01*
Y784594D01*
X-87776D01*
Y781739D01*
Y778886D01*
X-85298D01*
X-84945Y778532D01*
Y777114D01*
X-92213D01*
Y771406D01*
Y769740D01*
X-88275D01*
Y769241D01*
X-87776D01*
Y766386D01*
X-84945D01*
Y765894D01*
X-82000D01*
Y769044D01*
X-81501D01*
Y769543D01*
X-78055D01*
Y772193D01*
D01*
Y772193D01*
X-78055Y772193D01*
Y772307D01*
X-78055D01*
Y773086D01*
X-72439D01*
X-41684Y742332D01*
X-41876Y741870D01*
X-44518D01*
X-66281Y763633D01*
X-67050Y764147D01*
X-67957Y764327D01*
X-78055D01*
Y765106D01*
X-84945D01*
Y764614D01*
X-92213D01*
Y758906D01*
Y756740D01*
X-88275D01*
Y756241D01*
X-87776D01*
Y753386D01*
X-84945D01*
Y752394D01*
X-82000D01*
Y755544D01*
X-81501D01*
Y756043D01*
X-78055D01*
Y758693D01*
D01*
Y758693D01*
X-78055Y758693D01*
Y758807D01*
X-78055D01*
Y759586D01*
X-68938D01*
X-48184Y738832D01*
X-48376Y738370D01*
X-68062D01*
X-78055Y748364D01*
Y751606D01*
X-84339D01*
Y751614D01*
X-92213D01*
Y745905D01*
X-84945D01*
Y745307D01*
X-81703D01*
X-70719Y734324D01*
X-69950Y733810D01*
X-69043Y733630D01*
X-7559D01*
X-6652Y733810D01*
X-5883Y734324D01*
X4117Y744324D01*
X4631Y745093D01*
X4811Y746000D01*
X4811Y746000D01*
X4811Y746000D01*
Y746000D01*
Y747884D01*
X4968Y748004D01*
X5536Y748745D01*
X5893Y749607D01*
X6015Y750531D01*
Y754468D01*
X5893Y755394D01*
X5536Y756255D01*
X4968Y756996D01*
X4228Y757564D01*
X3366Y757921D01*
X2441Y758042D01*
X1516Y757921D01*
X654Y757564D01*
X-86Y756996D01*
X-654Y756255D01*
X-1011Y755394D01*
X-1133Y754468D01*
Y750531D01*
X-1011Y749607D01*
X-654Y748745D01*
X-86Y748004D01*
X71Y747884D01*
Y746982D01*
X-8282Y738630D01*
X-8772Y738727D01*
X-8816Y738832D01*
X-3824Y743824D01*
X-3310Y744593D01*
X-3130Y745500D01*
X-3130Y745500D01*
X-3130Y745500D01*
Y745500D01*
Y747833D01*
X-2906Y748004D01*
X-2338Y748744D01*
X-1981Y749607D01*
X-1859Y750531D01*
Y754468D01*
X-1981Y755394D01*
X-2338Y756255D01*
X-2906Y756996D01*
X-3646Y757564D01*
X-4508Y757921D01*
X-5433Y758042D01*
X-6358Y757921D01*
X-7220Y757564D01*
X-7960Y756996D01*
X-8528Y756255D01*
X-8885Y755394D01*
X-9007Y754468D01*
Y750531D01*
X-8885Y749607D01*
X-8528Y748744D01*
X-7960Y748004D01*
X-7870Y747935D01*
Y746482D01*
X-12482Y741870D01*
X-13624D01*
X-13815Y742332D01*
X-11631Y744517D01*
X-11117Y745286D01*
X-10937Y746193D01*
X-10937Y746193D01*
X-10937Y746193D01*
Y746193D01*
Y747884D01*
X-10780Y748004D01*
X-10212Y748744D01*
X-9855Y749607D01*
X-9733Y750531D01*
Y754468D01*
X-9855Y755394D01*
X-10212Y756255D01*
X-10780Y756996D01*
X-11520Y757564D01*
X-12382Y757921D01*
X-13307Y758042D01*
X-14232Y757921D01*
X-15094Y757564D01*
X-15834Y756996D01*
X-16402Y756255D01*
X-16759Y755394D01*
X-16881Y754468D01*
Y750531D01*
X-16759Y749607D01*
X-16402Y748744D01*
X-15834Y748004D01*
X-15677Y747884D01*
Y747175D01*
X-17482Y745370D01*
X-38018D01*
X-69781Y777133D01*
X-70550Y777647D01*
X-71457Y777827D01*
X-78055D01*
Y778606D01*
X-84059D01*
X-84339Y778886D01*
X-84339Y778960D01*
X-84339Y778960D01*
X-84339D01*
Y779394D01*
X-82000D01*
Y782542D01*
Y785693D01*
D02*
G37*
G36*
X50500Y746193D02*
X46276D01*
Y741968D01*
X50500D01*
Y746193D01*
D02*
G37*
G36*
X45724D02*
X41500D01*
Y741968D01*
X45724D01*
Y746193D01*
D02*
G37*
G36*
X18945Y735606D02*
X16000D01*
Y732957D01*
X18945D01*
Y735606D01*
D02*
G37*
G36*
X15000D02*
X12055D01*
Y732957D01*
X15000D01*
Y735606D01*
D02*
G37*
G36*
X26445Y735606D02*
X23500D01*
Y732957D01*
X26445D01*
Y735606D01*
D02*
G37*
G36*
X22500D02*
X19555D01*
Y732957D01*
X22500D01*
Y735606D01*
D02*
G37*
G36*
X50500Y751417D02*
X46276D01*
Y747193D01*
X50500D01*
Y751417D01*
D02*
G37*
G36*
X45724D02*
X41500D01*
Y747193D01*
X45724D01*
Y751417D01*
D02*
G37*
G36*
X60500D02*
X56276D01*
Y747193D01*
X60500D01*
Y751417D01*
D02*
G37*
G36*
X55724D02*
X51500D01*
Y747193D01*
X55724D01*
Y751417D01*
D02*
G37*
G36*
X60500Y746193D02*
X56276D01*
Y741968D01*
X60500D01*
Y746193D01*
D02*
G37*
G36*
X55724D02*
X51500D01*
Y741968D01*
X55724D01*
Y746193D01*
D02*
G37*
G36*
X13889Y752000D02*
X10815D01*
Y747023D01*
X11240Y747079D01*
X12102Y747436D01*
X12842Y748004D01*
X13410Y748745D01*
X13767Y749607D01*
X13889Y750531D01*
Y752000D01*
D02*
G37*
G36*
X9815D02*
X6741D01*
Y750531D01*
X6863Y749607D01*
X7220Y748745D01*
X7788Y748004D01*
X8528Y747436D01*
X9390Y747079D01*
X9815Y747023D01*
Y752000D01*
D02*
G37*
G36*
X-113469Y659000D02*
X-117693D01*
Y654776D01*
X-113469D01*
Y659000D01*
D02*
G37*
G36*
X-118693D02*
X-122917D01*
Y654776D01*
X-118693D01*
Y659000D01*
D02*
G37*
G36*
X-113469Y664224D02*
X-117693D01*
Y660000D01*
X-113469D01*
Y664224D01*
D02*
G37*
G36*
X-118693D02*
X-122917D01*
Y660000D01*
X-118693D01*
Y664224D01*
D02*
G37*
G36*
X-39801Y648500D02*
X-44000D01*
Y644301D01*
X-43267Y644397D01*
X-42117Y644873D01*
X-41131Y645631D01*
X-40373Y646617D01*
X-39897Y647767D01*
X-39801Y648500D01*
D02*
G37*
G36*
X-45000D02*
X-49199D01*
X-49103Y647767D01*
X-48627Y646617D01*
X-47870Y645631D01*
X-46883Y644873D01*
X-45733Y644397D01*
X-45000Y644301D01*
Y648500D01*
D02*
G37*
G36*
X-44000Y653699D02*
Y649500D01*
X-39801D01*
X-39897Y650233D01*
X-40373Y651383D01*
X-41131Y652369D01*
X-42117Y653127D01*
X-43267Y653603D01*
X-44000Y653699D01*
D02*
G37*
G36*
X-45000D02*
X-45733Y653603D01*
X-46883Y653127D01*
X-47870Y652369D01*
X-48627Y651383D01*
X-49103Y650233D01*
X-49199Y649500D01*
X-45000D01*
Y653699D01*
D02*
G37*
G36*
X-114110Y686787D02*
X-117055D01*
Y680693D01*
X-114110D01*
Y686787D01*
D02*
G37*
G36*
X-118055D02*
X-121000D01*
Y680693D01*
X-118055D01*
Y686787D01*
D02*
G37*
G36*
X-114110Y693882D02*
X-117055D01*
Y687787D01*
X-114110D01*
Y693882D01*
D02*
G37*
G36*
X-118055D02*
X-121000D01*
Y687787D01*
X-118055D01*
Y693882D01*
D02*
G37*
G36*
X-113469Y671000D02*
X-117693D01*
Y666776D01*
X-113469D01*
Y671000D01*
D02*
G37*
G36*
X-118693D02*
X-122917D01*
Y666776D01*
X-118693D01*
Y671000D01*
D02*
G37*
G36*
X-113469Y676224D02*
X-117693D01*
Y672000D01*
X-113469D01*
Y676224D01*
D02*
G37*
G36*
X-118693D02*
X-122917D01*
Y672000D01*
X-118693D01*
Y676224D01*
D02*
G37*
G36*
X-90555Y792606D02*
X-93500D01*
Y789957D01*
X-90555D01*
Y792606D01*
D02*
G37*
G36*
X37500Y795000D02*
X33499D01*
X33589Y794318D01*
X34045Y793217D01*
X34771Y792271D01*
X35717Y791545D01*
X36818Y791089D01*
X37500Y790999D01*
Y795000D01*
D02*
G37*
G36*
X42501D02*
X38500D01*
Y790999D01*
X39182Y791089D01*
X40283Y791545D01*
X41229Y792271D01*
X41955Y793217D01*
X42411Y794318D01*
X42501Y795000D01*
D02*
G37*
G36*
X-94500Y792606D02*
X-97445D01*
Y789957D01*
X-94500D01*
Y792606D01*
D02*
G37*
G36*
X50500Y790001D02*
Y786000D01*
X54501D01*
X54411Y786682D01*
X53955Y787783D01*
X53229Y788729D01*
X52283Y789455D01*
X51182Y789911D01*
X50500Y790001D01*
D02*
G37*
G36*
X-94500Y788957D02*
X-97445D01*
Y786307D01*
X-94500D01*
Y788957D01*
D02*
G37*
G36*
X-90555D02*
X-93500D01*
Y786307D01*
X-90555D01*
Y788957D01*
D02*
G37*
G36*
X38500Y800001D02*
Y796000D01*
X42501D01*
X42411Y796682D01*
X41955Y797783D01*
X41229Y798729D01*
X40283Y799455D01*
X39182Y799911D01*
X38500Y800001D01*
D02*
G37*
G36*
X-80107Y811034D02*
X-89994Y805326D01*
X-86542Y799347D01*
X-86792Y798914D01*
X-90555D01*
Y799693D01*
X-97445D01*
Y793394D01*
X-90555D01*
Y794173D01*
X-82465D01*
X-79613Y791320D01*
X-79678Y790825D01*
X-81136Y789983D01*
X-78909Y786126D01*
X-79159Y785693D01*
X-81000D01*
Y783043D01*
X-78055D01*
Y783680D01*
X-77572Y783810D01*
X-76805Y782482D01*
X-66918Y788190D01*
X-71248Y795691D01*
X-75072Y793484D01*
X-79808Y798219D01*
X-80576Y798733D01*
X-81484Y798914D01*
X-82812D01*
X-82941Y799397D01*
X-75776Y803533D01*
X-80107Y811034D01*
D02*
G37*
G36*
X0Y852165D02*
X-7663Y851977D01*
X-15307Y851413D01*
X-22914Y850475D01*
X-23335Y850402D01*
X-23335Y850402D01*
Y850402D01*
X-23366Y850361D01*
X-23616Y850328D01*
X-24243Y850068D01*
X-24781Y849656D01*
X-30380Y844057D01*
X-30465Y843945D01*
X-31693D01*
Y837055D01*
X-31693Y837055D01*
X-31693Y836945D01*
X-31693D01*
Y830055D01*
X-31693Y830055D01*
X-31693Y829945D01*
X-31693D01*
Y823055D01*
X-31140D01*
Y821543D01*
X-31140Y821543D01*
X-31140D01*
X-31052Y820871D01*
X-30792Y820245D01*
X-30380Y819707D01*
X-28005Y817332D01*
X-28196Y816870D01*
X-37018D01*
X-44167Y824019D01*
X-44936Y824533D01*
X-45843Y824713D01*
X-46635D01*
X-49080Y828948D01*
X-58968Y823239D01*
X-58106Y821747D01*
X-61676Y818176D01*
X-62190Y817407D01*
X-62370Y816500D01*
Y804000D01*
X-62370Y804000D01*
X-62370D01*
X-62190Y803093D01*
X-61676Y802324D01*
X-40676Y781324D01*
X-40676Y781324D01*
X-40676D01*
X-40676Y781324D01*
X-40676D01*
X-40676Y781324D01*
Y781324D01*
Y781324D01*
D01*
D01*
X-40676D01*
Y781324D01*
X-39907Y780810D01*
X-39000Y780630D01*
X-15677D01*
Y773175D01*
X-22857Y765995D01*
X-23371Y765226D01*
X-23551Y764319D01*
Y758012D01*
X-24724D01*
Y746988D01*
X-17638D01*
Y758012D01*
X-18811D01*
Y763337D01*
X-11631Y770517D01*
X-11117Y771286D01*
X-10937Y772193D01*
X-10937Y772193D01*
X-10937Y772193D01*
Y772193D01*
Y783000D01*
Y795916D01*
X-10780Y796036D01*
X-10212Y796776D01*
X-9855Y797638D01*
X-9733Y798563D01*
Y802500D01*
X-9855Y803425D01*
X-10212Y804287D01*
X-10780Y805027D01*
X-11520Y805595D01*
X-12382Y805952D01*
X-13307Y806074D01*
X-14232Y805952D01*
X-15094Y805595D01*
X-15834Y805027D01*
X-16402Y804287D01*
X-16759Y803425D01*
X-16881Y802500D01*
Y798563D01*
X-16759Y797638D01*
X-16402Y796776D01*
X-15834Y796036D01*
X-15677Y795916D01*
Y785370D01*
X-38018D01*
X-57630Y804982D01*
Y815518D01*
X-55942Y817206D01*
X-55446Y817140D01*
X-54637Y815738D01*
X-47302Y819973D01*
X-46825D01*
X-40661Y813809D01*
X-40727Y813313D01*
X-50109Y807896D01*
X-45779Y800395D01*
X-38444Y804630D01*
X-30500D01*
X-29593Y804810D01*
X-28824Y805324D01*
X-27518Y806630D01*
X-9482D01*
X-7955Y805103D01*
X-7960Y805027D01*
X-8528Y804287D01*
X-8885Y803425D01*
X-9007Y802500D01*
Y798563D01*
X-8885Y797638D01*
X-8528Y796776D01*
X-7960Y796036D01*
X-7220Y795468D01*
X-6358Y795111D01*
X-5433Y794989D01*
X-4508Y795111D01*
X-3646Y795468D01*
X-2906Y796036D01*
X-2338Y796776D01*
X-1981Y797638D01*
X-1859Y798563D01*
Y802500D01*
X-1981Y803425D01*
X-2338Y804287D01*
X-2906Y805027D01*
X-3063Y805147D01*
Y805933D01*
X-3243Y806840D01*
X-3757Y807609D01*
X-6824Y810676D01*
X-7593Y811190D01*
X-8500Y811370D01*
X-28500D01*
X-29407Y811190D01*
X-30176Y810676D01*
X-31482Y809370D01*
X-37777D01*
X-39280Y811973D01*
X-38915Y812315D01*
X-38907Y812310D01*
X-38000Y812130D01*
X3624D01*
X3816Y811668D01*
X765Y808617D01*
X251Y807848D01*
X71Y806941D01*
Y805147D01*
X-86Y805027D01*
X-654Y804287D01*
X-1011Y803425D01*
X-1133Y802500D01*
Y798563D01*
X-1011Y797638D01*
X-654Y796776D01*
X-86Y796036D01*
X654Y795468D01*
X1516Y795111D01*
X2441Y794989D01*
X3366Y795111D01*
X4228Y795468D01*
X4968Y796036D01*
X5536Y796776D01*
X5893Y797638D01*
X6015Y798563D01*
Y802500D01*
X5893Y803425D01*
X5536Y804287D01*
X4968Y805027D01*
X4811Y805147D01*
Y805959D01*
X6982Y808130D01*
X9124D01*
X9315Y807668D01*
X8824Y807176D01*
X8310Y806407D01*
X8130Y805500D01*
Y805289D01*
X7788Y805027D01*
X7220Y804287D01*
X6863Y803425D01*
X6741Y802500D01*
Y798563D01*
X6863Y797638D01*
X7220Y796776D01*
X7788Y796036D01*
X8528Y795468D01*
X9390Y795111D01*
X10315Y794989D01*
X11240Y795111D01*
X12102Y795468D01*
X12842Y796036D01*
X13410Y796776D01*
X13767Y797638D01*
X13889Y798563D01*
Y802500D01*
X13767Y803425D01*
X13410Y804287D01*
X13075Y804723D01*
X13482Y805130D01*
X15175D01*
X15396Y804681D01*
X15094Y804287D01*
X14737Y803425D01*
X14615Y802500D01*
Y798563D01*
X14737Y797638D01*
X15094Y796776D01*
X15662Y796036D01*
X16402Y795468D01*
X17264Y795111D01*
X18189Y794989D01*
X19114Y795111D01*
X19976Y795468D01*
X20716Y796036D01*
X21284Y796776D01*
X21641Y797638D01*
X21763Y798563D01*
Y802500D01*
X21641Y803425D01*
X21284Y804287D01*
X20716Y805027D01*
X20751Y805130D01*
X23049D01*
X23270Y804681D01*
X22968Y804287D01*
X22611Y803425D01*
X22489Y802500D01*
Y801031D01*
X29637D01*
Y802500D01*
X29515Y803425D01*
X29158Y804287D01*
X28590Y805027D01*
X28625Y805130D01*
X48518D01*
X53158Y800490D01*
X52967Y800027D01*
X45472D01*
Y790973D01*
X54527D01*
Y798467D01*
X54989Y798658D01*
X56130Y797518D01*
Y784982D01*
X54571Y783423D01*
X54155Y783701D01*
X54411Y784318D01*
X54501Y785000D01*
X50500D01*
Y780999D01*
X51182Y781089D01*
X52283Y781545D01*
X53229Y782271D01*
X53307Y782372D01*
X53762Y782166D01*
X53630Y781500D01*
Y778987D01*
X53181Y778766D01*
X52283Y779455D01*
X51182Y779911D01*
X50000Y780067D01*
X48818Y779911D01*
X47717Y779455D01*
X46771Y778729D01*
X46045Y777783D01*
X45589Y776682D01*
X45433Y775500D01*
X45575Y774427D01*
X43121Y771973D01*
X42607Y771204D01*
X42427Y770297D01*
Y763345D01*
X42427Y763345D01*
X42427D01*
X42607Y762438D01*
X43121Y761669D01*
X45458Y759332D01*
X45266Y758870D01*
X40000D01*
X39093Y758690D01*
X38324Y758176D01*
X30029Y749881D01*
X29580Y750102D01*
X29637Y750531D01*
Y754468D01*
X29515Y755394D01*
X29158Y756255D01*
X28590Y756996D01*
X28433Y757116D01*
Y772581D01*
X36825Y780972D01*
X42528D01*
Y790028D01*
X33472D01*
Y784325D01*
X24387Y775239D01*
X23873Y774470D01*
X23693Y773563D01*
Y757116D01*
X23536Y756996D01*
X22968Y756255D01*
X22611Y755394D01*
X22489Y754468D01*
Y750531D01*
X22611Y749607D01*
X22968Y748744D01*
X23536Y748004D01*
X23745Y747844D01*
X23584Y747370D01*
X21982D01*
X20990Y748362D01*
X21284Y748744D01*
X21641Y749607D01*
X21763Y750531D01*
Y754468D01*
X21641Y755394D01*
X21284Y756255D01*
X20716Y756996D01*
X19976Y757564D01*
X19114Y757921D01*
X18189Y758042D01*
X17264Y757921D01*
X16402Y757564D01*
X15662Y756996D01*
X15094Y756255D01*
X14737Y755394D01*
X14615Y754468D01*
Y750531D01*
X14737Y749607D01*
X15094Y748744D01*
X15662Y748004D01*
X15819Y747884D01*
X15819Y747884D01*
X15819Y747811D01*
X15819Y747811D01*
X15819D01*
X15999Y746904D01*
X16513Y746135D01*
X19324Y743324D01*
X19555Y743169D01*
X19555Y742693D01*
X19555D01*
Y741914D01*
X18945D01*
Y742693D01*
X12055D01*
Y736394D01*
X18945D01*
Y737173D01*
X19555D01*
Y736394D01*
X26445D01*
Y742630D01*
X28500D01*
X29407Y742810D01*
X30176Y743324D01*
X35814Y748961D01*
X36276Y748770D01*
Y747193D01*
X40500D01*
Y751417D01*
X38923D01*
X38731Y751879D01*
X40982Y754130D01*
X56500D01*
X57407Y754310D01*
X58176Y754824D01*
X61298Y757946D01*
X62061Y757630D01*
X63500Y757441D01*
X64939Y757630D01*
X66280Y758185D01*
X67431Y759069D01*
X67515Y759178D01*
X67988Y759017D01*
Y757488D01*
X70630D01*
Y746289D01*
X66186Y741846D01*
X66031Y741910D01*
X65724Y742037D01*
X65724D01*
D01*
D01*
Y746193D01*
X61500D01*
Y741968D01*
X65635D01*
X65658Y741964D01*
X65791Y741642D01*
X65847Y741507D01*
X62372Y738031D01*
X56276D01*
Y735370D01*
X55724D01*
Y738031D01*
X46276D01*
Y735370D01*
X45724D01*
Y738031D01*
X36276D01*
Y731628D01*
X34018Y729370D01*
X26445D01*
Y731957D01*
X19555D01*
Y729370D01*
X18945D01*
Y731957D01*
X12055D01*
Y729370D01*
X-91000D01*
X-91907Y729190D01*
X-92676Y728676D01*
X-104045Y717307D01*
X-116571D01*
Y704118D01*
X-110870D01*
Y693882D01*
X-111945D01*
Y680693D01*
X-110870D01*
Y675193D01*
X-110870Y675193D01*
X-110870D01*
X-110690Y674286D01*
X-110176Y673517D01*
X-109531Y672872D01*
Y666776D01*
X-100083D01*
Y676224D01*
X-106130D01*
Y680693D01*
X-105055D01*
Y693882D01*
X-106130D01*
Y704118D01*
X-100429D01*
Y714219D01*
X-90018Y724630D01*
X-74196D01*
X-74005Y724168D01*
X-101281Y696891D01*
X-101694Y696354D01*
X-101953Y695727D01*
X-102042Y695055D01*
Y693882D01*
X-102890D01*
Y680693D01*
X-99866D01*
X-96597Y677424D01*
Y664576D01*
X-99076Y662097D01*
X-100083D01*
Y664224D01*
X-109531D01*
Y654776D01*
X-100083D01*
Y656903D01*
X-98000D01*
X-97328Y656991D01*
X-96702Y657251D01*
X-96164Y657664D01*
X-92164Y661664D01*
X-91751Y662201D01*
X-91492Y662828D01*
X-91403Y663500D01*
Y676403D01*
X-48462D01*
X-47870Y675631D01*
X-46883Y674873D01*
X-45733Y674397D01*
X-44615Y674250D01*
Y673750D01*
X-45733Y673603D01*
X-46883Y673127D01*
X-47870Y672369D01*
X-48627Y671383D01*
X-49103Y670233D01*
X-49265Y669000D01*
X-49103Y667767D01*
X-48627Y666617D01*
X-47870Y665630D01*
X-46883Y664873D01*
X-45733Y664397D01*
X-44615Y664250D01*
Y663750D01*
X-45733Y663603D01*
X-46883Y663127D01*
X-47870Y662369D01*
X-48627Y661383D01*
X-49103Y660233D01*
X-49265Y659000D01*
X-49103Y657767D01*
X-48627Y656617D01*
X-47870Y655630D01*
X-46883Y654873D01*
X-45733Y654397D01*
X-44615Y654250D01*
Y653750D01*
X-44500Y653765D01*
X-44385Y653750D01*
Y654250D01*
X-43267Y654397D01*
X-42117Y654873D01*
X-41131Y655630D01*
X-40373Y656617D01*
X-39897Y657767D01*
X-39735Y659000D01*
X-39897Y660233D01*
X-40373Y661383D01*
X-41131Y662369D01*
X-42117Y663127D01*
X-43267Y663603D01*
X-44385Y663750D01*
Y664250D01*
X-43267Y664397D01*
X-42117Y664873D01*
X-41131Y665630D01*
X-40373Y666617D01*
X-39897Y667767D01*
X-39735Y669000D01*
X-39897Y670233D01*
X-40373Y671383D01*
X-41131Y672369D01*
X-42117Y673127D01*
X-43267Y673603D01*
X-44385Y673750D01*
Y674250D01*
X-43267Y674397D01*
X-42117Y674873D01*
X-41131Y675631D01*
X-40373Y676617D01*
X-39897Y677767D01*
X-39735Y679000D01*
X-39897Y680233D01*
X-40373Y681383D01*
X-41131Y682370D01*
X-42117Y683127D01*
X-43267Y683603D01*
X-44500Y683765D01*
X-45733Y683603D01*
X-46883Y683127D01*
X-47870Y682370D01*
X-48462Y681597D01*
X-93424D01*
X-96000Y684173D01*
Y693882D01*
X-96292D01*
X-96483Y694344D01*
X-70424Y720403D01*
X66500D01*
X67172Y720492D01*
X67799Y720751D01*
X68336Y721164D01*
X85086Y737914D01*
X85499Y738451D01*
X85759Y739078D01*
X85847Y739750D01*
X85847Y739750D01*
X85847Y739750D01*
Y739750D01*
Y768250D01*
X85759Y768922D01*
X85565Y769389D01*
X85981Y769667D01*
X102324Y753324D01*
X103093Y752810D01*
X104000Y752630D01*
X113852D01*
X116521Y748006D01*
X118719Y749275D01*
X131630Y736364D01*
Y725165D01*
X131168Y724973D01*
X130641Y725500D01*
X80500D01*
X61500Y706500D01*
X62000Y620000D01*
X96902D01*
X97111Y619546D01*
X94500Y616500D01*
X100258D01*
X100258Y616500D01*
Y616500D01*
X100630Y616192D01*
Y602982D01*
X81018Y583370D01*
X3142D01*
X2235Y583190D01*
X1466Y582676D01*
X-10534Y570676D01*
X-11048Y569907D01*
X-11229Y569000D01*
Y568827D01*
X-11975D01*
X-15824Y572676D01*
X-16593Y573190D01*
X-17500Y573370D01*
X-52518D01*
X-83130Y603982D01*
Y613500D01*
X-83310Y614407D01*
X-83824Y615176D01*
X-93630Y624982D01*
Y627500D01*
X-93810Y628407D01*
X-94324Y629176D01*
X-101324Y636176D01*
X-102093Y636690D01*
X-103000Y636870D01*
X-112197D01*
X-116021Y643494D01*
X-119268Y641620D01*
X-131630Y653982D01*
Y709018D01*
X-102074Y738574D01*
X-101560Y739343D01*
X-101380Y740250D01*
X-101380Y740250D01*
X-101380Y740250D01*
Y740250D01*
Y749646D01*
X-94787D01*
Y755354D01*
X-101380D01*
Y759250D01*
X-101560Y760157D01*
X-102074Y760926D01*
X-106187Y765039D01*
X-103905Y768992D01*
X-103409Y769057D01*
X-102661Y768309D01*
Y762646D01*
X-94787D01*
Y768354D01*
X-96479D01*
X-96535Y768632D01*
X-97048Y769401D01*
X-102691Y775043D01*
X-102691Y775116D01*
X-102661Y775146D01*
X-102523Y775146D01*
X-102523Y775146D01*
Y775146D01*
X-94787D01*
Y780854D01*
X-102661D01*
Y780370D01*
X-118154D01*
X-119061Y780190D01*
X-119767Y779718D01*
X-121979Y780994D01*
X-125916Y774175D01*
X-125893Y774162D01*
X-125779Y773675D01*
X-126190Y773061D01*
X-126370Y772154D01*
Y769327D01*
X-126370Y769327D01*
X-126370D01*
X-126190Y768420D01*
X-125676Y767651D01*
X-115250Y757225D01*
X-115554Y756828D01*
X-118903Y758762D01*
X-118903Y758762D01*
X-118904D01*
X-124870Y762207D01*
D01*
X-130837Y765651D01*
X-134774Y758832D01*
X-133345Y758008D01*
X-135092Y754828D01*
X-135574Y754694D01*
X-136137Y755019D01*
X-139286Y749563D01*
X-133320Y746118D01*
X-130170Y751574D01*
X-131158Y752144D01*
X-129411Y755324D01*
X-128929Y755458D01*
X-127955Y754895D01*
D01*
X-127164Y754439D01*
X-128793Y750957D01*
X-129270Y750807D01*
X-129637Y751019D01*
X-132787Y745563D01*
X-126820Y742119D01*
X-123670Y747574D01*
X-124829Y748243D01*
X-123200Y751725D01*
X-122723Y751875D01*
X-121988Y751450D01*
X-121988Y751450D01*
X-121988Y751450D01*
D01*
X-120998Y750879D01*
X-122495Y747085D01*
X-122967Y746920D01*
X-123137Y747019D01*
X-126286Y741563D01*
X-120320Y738119D01*
X-117170Y743574D01*
X-118484Y744333D01*
X-116988Y748126D01*
X-116516Y748291D01*
X-116021Y748006D01*
X-114353Y750895D01*
X-113870Y750765D01*
Y742982D01*
X-121132Y735720D01*
X-121529Y736024D01*
X-120713Y737437D01*
X-126680Y740881D01*
X-126842Y740602D01*
X-127219Y740506D01*
X-127520Y740905D01*
X-127214Y741437D01*
X-133180Y744881D01*
X-133342Y744602D01*
X-133719Y744506D01*
X-134020Y744905D01*
X-133713Y745437D01*
X-139680Y748881D01*
X-140881Y746802D01*
X-145182D01*
X-146089Y746621D01*
X-146858Y746107D01*
X-146927Y746038D01*
X-147261Y745900D01*
X-147799Y745487D01*
X-148211Y744949D01*
X-148417Y744452D01*
X-148417Y744452D01*
X-148413Y744444D01*
X-149441Y741332D01*
X-151485Y733945D01*
X-153165Y726466D01*
X-154475Y718914D01*
X-155413Y711307D01*
X-155977Y703663D01*
X-156165Y696000D01*
X-155977Y688337D01*
X-155413Y680693D01*
X-154475Y673086D01*
X-153165Y665534D01*
X-151485Y658055D01*
X-149441Y650668D01*
X-147036Y643390D01*
X-144278Y636238D01*
X-141172Y629231D01*
X-137725Y622384D01*
X-133947Y615715D01*
X-129847Y609239D01*
X-125433Y602973D01*
X-120717Y596930D01*
X-118292Y594118D01*
X-118248Y594062D01*
X-118249Y594062D01*
X-118132Y593909D01*
X-118072Y593864D01*
X-115711Y591126D01*
X-110425Y585575D01*
X-104874Y580289D01*
X-99070Y575283D01*
X-93028Y570567D01*
X-86761Y566153D01*
X-80285Y562053D01*
X-73616Y558275D01*
X-66769Y554828D01*
X-59762Y551722D01*
X-52610Y548964D01*
X-45332Y546559D01*
X-37945Y544515D01*
X-30466Y542836D01*
X-22914Y541525D01*
X-15307Y540587D01*
X-7663Y540023D01*
X0Y539835D01*
X7663Y540023D01*
X15307Y540587D01*
X22914Y541525D01*
X28466Y542488D01*
Y542488D01*
D01*
D01*
Y542488D01*
X28466D01*
X28466D01*
X28466Y542488D01*
Y542488D01*
D01*
X28630Y542517D01*
X28666Y542522D01*
X28673Y542524D01*
X30466Y542836D01*
X37945Y544515D01*
X45332Y546559D01*
X52610Y548964D01*
X59762Y551722D01*
X66769Y554828D01*
X73616Y558275D01*
X80285Y562053D01*
X86761Y566153D01*
X93028Y570567D01*
X99070Y575283D01*
X104874Y580289D01*
X110425Y585575D01*
X115711Y591126D01*
X120717Y596930D01*
X125433Y602973D01*
X129847Y609239D01*
X133947Y615715D01*
X137725Y622384D01*
X141172Y629231D01*
X144278Y636238D01*
X147036Y643390D01*
X147504Y644804D01*
X147504D01*
X147504D01*
X147504D01*
Y644804D01*
D01*
X147504Y644804D01*
D01*
D01*
D01*
X147504Y644804D01*
D01*
D01*
D01*
X147504D01*
X147560Y644974D01*
X147563Y644982D01*
X147564Y644985D01*
X149441Y650668D01*
X151485Y658055D01*
X153165Y665534D01*
X154475Y673086D01*
X155413Y680693D01*
X155977Y688337D01*
X156165Y696000D01*
X155977Y703663D01*
X155413Y711307D01*
X154475Y718914D01*
X153165Y726466D01*
X151485Y733945D01*
X149441Y741332D01*
X147036Y748610D01*
X144278Y755762D01*
X141172Y762769D01*
X137725Y769616D01*
X133947Y776285D01*
X129847Y782761D01*
X125433Y789028D01*
X120717Y795070D01*
X118042Y798172D01*
X117997Y798230D01*
X117997D01*
X117884Y798378D01*
X117826Y798422D01*
X115711Y800874D01*
X110425Y806425D01*
X104874Y811711D01*
X99070Y816717D01*
X93028Y821433D01*
X86761Y825847D01*
X80285Y829947D01*
X73616Y833725D01*
X66769Y837172D01*
X59762Y840278D01*
X52610Y843036D01*
X45332Y845441D01*
X37945Y847485D01*
X30466Y849164D01*
X22914Y850475D01*
X15307Y851413D01*
X7663Y851977D01*
X0Y852165D01*
D02*
G37*
G36*
X37500Y800001D02*
X36818Y799911D01*
X35717Y799455D01*
X34771Y798729D01*
X34045Y797783D01*
X33589Y796682D01*
X33499Y796000D01*
X37500D01*
Y800001D01*
D02*
G37*
G36*
X-21181Y806074D02*
X-22106Y805952D01*
X-22968Y805595D01*
X-23708Y805027D01*
X-24276Y804287D01*
X-24633Y803425D01*
X-24755Y802500D01*
Y798563D01*
X-24633Y797638D01*
X-24276Y796776D01*
X-23708Y796036D01*
X-22968Y795468D01*
X-22106Y795111D01*
X-21181Y794989D01*
X-20256Y795111D01*
X-19394Y795468D01*
X-18654Y796036D01*
X-18086Y796776D01*
X-17729Y797638D01*
X-17607Y798563D01*
Y802500D01*
X-17729Y803425D01*
X-18086Y804287D01*
X-18654Y805027D01*
X-19394Y805595D01*
X-20256Y805952D01*
X-21181Y806074D01*
D02*
G37*
G36*
X25563Y800031D02*
X22489D01*
Y798563D01*
X22611Y797638D01*
X22968Y796776D01*
X23536Y796036D01*
X24276Y795468D01*
X25138Y795111D01*
X25563Y795055D01*
Y800031D01*
D02*
G37*
G36*
X29637D02*
X26563D01*
Y795055D01*
X26988Y795111D01*
X27850Y795468D01*
X28590Y796036D01*
X29158Y796776D01*
X29515Y797638D01*
X29637Y798563D01*
Y800031D01*
D02*
G37*
G36*
X49500Y790001D02*
X48818Y789911D01*
X47717Y789455D01*
X46771Y788729D01*
X46045Y787783D01*
X45589Y786682D01*
X45499Y786000D01*
X49500D01*
Y790001D01*
D02*
G37*
G36*
X-88776Y755740D02*
X-92213D01*
Y753386D01*
X-88776D01*
Y755740D01*
D02*
G37*
G36*
X-78055Y768543D02*
X-81000D01*
Y765894D01*
X-78055D01*
Y768543D01*
D02*
G37*
G36*
X-88776Y768740D02*
X-92213D01*
Y766386D01*
X-88776D01*
Y768740D01*
D02*
G37*
G36*
X-78055Y755043D02*
X-81000D01*
Y752394D01*
X-78055D01*
Y755043D01*
D02*
G37*
G36*
X9815Y757977D02*
X9390Y757921D01*
X8528Y757564D01*
X7788Y756996D01*
X7220Y756255D01*
X6863Y755394D01*
X6741Y754468D01*
Y753000D01*
X9815D01*
Y757977D01*
D02*
G37*
G36*
X10815D02*
Y753000D01*
X13889D01*
Y754468D01*
X13767Y755394D01*
X13410Y756255D01*
X12842Y756996D01*
X12102Y757564D01*
X11240Y757921D01*
X10815Y757977D01*
D02*
G37*
G36*
X-78055Y782043D02*
X-81000D01*
Y779394D01*
X-78055D01*
Y782043D01*
D02*
G37*
G36*
X49500Y785000D02*
X45499D01*
X45589Y784318D01*
X46045Y783217D01*
X46771Y782271D01*
X47717Y781545D01*
X48818Y781089D01*
X49500Y780999D01*
Y785000D01*
D02*
G37*
G36*
X-88776Y784594D02*
X-92213D01*
Y782240D01*
X-88776D01*
Y784594D01*
D02*
G37*
G36*
Y781240D02*
X-92213D01*
Y778886D01*
X-88776D01*
Y781240D01*
D02*
G37*
G36*
X65724Y751417D02*
X61500D01*
Y747193D01*
X65724D01*
Y751417D01*
D02*
G37*
%LPD*%
G36*
X141141Y642553D02*
X139472Y638229D01*
X136470Y631455D01*
X133138Y624836D01*
X129486Y618389D01*
X125522Y612129D01*
X121255Y606071D01*
X116697Y600230D01*
X111857Y594619D01*
X106748Y589252D01*
X101381Y584143D01*
X95771Y579303D01*
X89929Y574745D01*
X89497Y574440D01*
X89175Y574823D01*
X113926Y599574D01*
X114440Y600343D01*
X114620Y601250D01*
X114620Y601250D01*
X114620Y601250D01*
Y601250D01*
Y605268D01*
X120817Y611465D01*
X122479Y610506D01*
X126416Y617325D01*
X123408Y619061D01*
Y626462D01*
X123228Y627369D01*
X122714Y628138D01*
X117707Y633146D01*
X118011Y633542D01*
X119403Y632738D01*
X119403Y632738D01*
X119404Y632738D01*
D01*
X125370Y629293D01*
D01*
X131337Y625849D01*
X135274Y632668D01*
X134261Y633252D01*
X134134Y633736D01*
X136678Y638035D01*
X137637Y637481D01*
X140690Y642769D01*
X141141Y642553D01*
D02*
G37*
G36*
X7407Y846782D02*
X14797Y846237D01*
X22151Y845330D01*
X29452Y844063D01*
X33042Y843257D01*
X32987Y842760D01*
X12795D01*
Y844327D01*
X4921D01*
Y836453D01*
Y829563D01*
Y822673D01*
X12795D01*
Y824240D01*
X43518D01*
X44434Y823324D01*
X45203Y822810D01*
X46110Y822630D01*
X59018D01*
X81630Y800018D01*
Y795293D01*
X81168Y795101D01*
X55933Y820336D01*
X55395Y820749D01*
X54768Y821008D01*
X54096Y821097D01*
X-24424D01*
X-25946Y822619D01*
Y823055D01*
X-25394D01*
Y829945D01*
D01*
Y829945D01*
X-25394Y829945D01*
Y830055D01*
X-25394D01*
Y836945D01*
D01*
Y836945D01*
X-25394Y836945D01*
Y837055D01*
X-25394D01*
Y841697D01*
X-25068Y842023D01*
X-24606Y841831D01*
Y837055D01*
X-24606Y837055D01*
X-24606Y836945D01*
X-24606D01*
Y830055D01*
X-24606Y830055D01*
X-24606Y829945D01*
X-24606D01*
Y823055D01*
X-18307D01*
Y824157D01*
X-13150Y824202D01*
X-12795Y823850D01*
Y822673D01*
X-4921D01*
Y829563D01*
Y836453D01*
Y844327D01*
X-12795D01*
Y843150D01*
X-13150Y842798D01*
X-18307Y842843D01*
Y843945D01*
X-22493D01*
X-22684Y844407D01*
X-21706Y845385D01*
X-14797Y846237D01*
X-7407Y846782D01*
X0Y846964D01*
X7407Y846782D01*
D02*
G37*
G36*
X41816Y836332D02*
X41624Y835870D01*
X12795D01*
Y836453D01*
Y838019D01*
X40128D01*
X41816Y836332D01*
D02*
G37*
G36*
X-94370Y605311D02*
Y600000D01*
X-94370Y600000D01*
X-94370D01*
X-94190Y599093D01*
X-93676Y598324D01*
X-57676Y562324D01*
X-56907Y561810D01*
X-56000Y561630D01*
X-33982D01*
X-22676Y550324D01*
X-21907Y549810D01*
X-21000Y549630D01*
X-12795D01*
Y547173D01*
X-4921D01*
Y548740D01*
X-3390D01*
X-2483Y548920D01*
X-1714Y549434D01*
X2926Y554074D01*
X3440Y554843D01*
X3620Y555750D01*
Y567768D01*
X4459Y568607D01*
X4921Y568416D01*
Y560953D01*
Y554063D01*
Y547173D01*
X12795D01*
Y548349D01*
X13150Y548701D01*
X17807Y548658D01*
Y547555D01*
X24106D01*
Y554445D01*
D01*
Y554445D01*
X24106Y554445D01*
Y554555D01*
X24106D01*
Y561445D01*
D01*
Y561445D01*
X24106Y561445D01*
Y561555D01*
X24106D01*
Y568445D01*
X17807D01*
Y567342D01*
X13150Y567299D01*
X12795Y567651D01*
Y568827D01*
X5332D01*
X5141Y569289D01*
X5482Y569630D01*
X81634D01*
X81773Y569149D01*
X77611Y566514D01*
X71164Y562862D01*
X64545Y559530D01*
X57771Y556528D01*
X50858Y553861D01*
X43823Y551537D01*
X36681Y549560D01*
X31583Y548415D01*
X31193Y548728D01*
Y554445D01*
D01*
Y554445D01*
X31193Y554445D01*
Y554555D01*
X31193D01*
Y561445D01*
D01*
Y561445D01*
X31193Y561445D01*
Y561555D01*
X31193D01*
Y568445D01*
X24894D01*
Y561555D01*
X24894Y561555D01*
X24894Y561445D01*
X24894D01*
Y554555D01*
X24894Y554555D01*
X24894Y554445D01*
X24894D01*
Y547555D01*
X24894D01*
Y547146D01*
X22151Y546670D01*
X14797Y545763D01*
X7407Y545218D01*
X0Y545036D01*
X-7407Y545218D01*
X-14797Y545763D01*
X-22151Y546670D01*
X-29452Y547937D01*
X-36681Y549560D01*
X-43823Y551537D01*
X-50858Y553861D01*
X-57771Y556528D01*
X-64545Y559530D01*
X-71164Y562862D01*
X-77611Y566514D01*
X-83871Y570478D01*
X-89929Y574745D01*
X-95771Y579303D01*
X-101381Y584143D01*
X-106748Y589252D01*
X-111857Y594619D01*
X-112235Y595057D01*
X-112152Y595550D01*
X-107170Y598426D01*
X-107170Y598426D01*
Y598426D01*
X-106746Y598671D01*
X-106637Y598481D01*
X-100670Y601926D01*
X-100991Y602481D01*
X-100889Y602860D01*
X-100393Y602926D01*
X-100137Y602481D01*
X-94803Y605561D01*
X-94370Y605311D01*
D02*
G37*
G36*
X-134694Y633172D02*
X-134759Y632676D01*
X-134774Y632668D01*
X-130837Y625849D01*
X-128639Y627117D01*
X-128345Y626824D01*
X-127576Y626310D01*
X-126669Y626130D01*
X-111631D01*
X-111502Y625647D01*
X-113982Y624215D01*
D01*
X-119097Y621262D01*
D01*
X-125916Y617325D01*
X-121979Y610506D01*
X-121115Y611004D01*
X-120635Y610862D01*
X-118761Y607191D01*
X-119830Y606574D01*
X-116680Y601119D01*
X-110714Y604563D01*
X-110714Y604563D01*
X-110479Y604699D01*
X-110180Y604619D01*
X-110180Y604619D01*
X-104214Y608063D01*
X-107363Y613519D01*
X-107961Y613173D01*
X-108443Y613305D01*
X-110581Y617086D01*
X-109193Y617887D01*
D01*
X-108505Y618284D01*
X-106250Y614828D01*
X-106366Y614341D01*
X-106830Y614074D01*
X-103680Y608618D01*
X-97714Y612063D01*
X-98529Y613476D01*
X-98132Y613780D01*
X-94370Y610018D01*
Y607239D01*
X-94853Y607109D01*
X-97320Y611381D01*
X-103287Y607937D01*
X-103074Y607569D01*
X-103176Y607190D01*
X-103672Y607125D01*
X-103820Y607381D01*
X-109786Y603937D01*
X-109786Y603937D01*
Y603937D01*
X-110210Y603692D01*
X-110320Y603882D01*
X-116287Y600437D01*
X-116287Y600437D01*
Y600437D01*
X-116680Y600210D01*
X-116697Y600230D01*
X-121255Y606071D01*
X-125522Y612129D01*
X-129486Y618389D01*
X-133138Y624836D01*
X-136470Y631455D01*
X-138698Y636482D01*
X-138286Y636764D01*
X-134694Y633172D01*
D02*
G37*
G36*
X-15176Y556324D02*
X-14407Y555810D01*
X-13500Y555630D01*
X-12795D01*
Y555047D01*
Y554370D01*
X-20018D01*
X-30816Y565168D01*
X-30624Y565630D01*
X-24482D01*
X-15176Y556324D01*
D02*
G37*
G36*
X-136863Y739981D02*
X-136702Y740261D01*
X-136325Y740356D01*
X-136023Y739958D01*
X-136330Y739426D01*
X-130363Y735981D01*
X-130202Y736261D01*
X-129825Y736356D01*
X-129523Y735958D01*
X-129830Y735426D01*
X-124858Y732555D01*
X-124792Y732060D01*
X-141676Y715176D01*
X-142190Y714407D01*
X-142370Y713500D01*
Y647415D01*
X-142864Y647336D01*
X-144464Y652177D01*
X-146440Y659319D01*
X-148063Y666548D01*
X-149330Y673849D01*
X-150237Y681203D01*
X-150782Y688593D01*
X-150964Y696000D01*
X-150782Y703407D01*
X-150237Y710797D01*
X-149330Y718151D01*
X-148063Y725452D01*
X-146440Y732681D01*
X-144464Y739822D01*
X-143724Y742061D01*
X-140465D01*
X-136863Y739981D01*
D02*
G37*
G36*
X80653Y767174D02*
Y740826D01*
X65424Y725597D01*
X37602D01*
X37411Y726059D01*
X39935Y728583D01*
X45724D01*
Y730630D01*
X46276D01*
Y728583D01*
X55724D01*
Y730630D01*
X56276D01*
Y728583D01*
X65724D01*
Y734679D01*
X74676Y743631D01*
X74676Y743631D01*
X74676Y743631D01*
X75190Y744400D01*
X75370Y745307D01*
Y757488D01*
X79012D01*
Y768162D01*
X79474Y768354D01*
X80653Y767174D01*
D02*
G37*
G36*
X70630Y794018D02*
Y768512D01*
X67988D01*
Y766983D01*
X67515Y766822D01*
X67431Y766931D01*
X66280Y767815D01*
X64939Y768370D01*
X63500Y768559D01*
X62061Y768370D01*
X60720Y767815D01*
X59569Y766931D01*
X59344Y766638D01*
X58870Y766798D01*
Y767518D01*
X63676Y772324D01*
X64190Y773093D01*
X64370Y774000D01*
Y799624D01*
X64832Y799816D01*
X70630Y794018D01*
D02*
G37*
G36*
X76903Y792021D02*
Y772000D01*
X76991Y771328D01*
X77251Y770702D01*
X77664Y770164D01*
X78853Y768974D01*
X78662Y768512D01*
X75370D01*
Y792900D01*
X75832Y793091D01*
X76903Y792021D01*
D02*
G37*
G36*
X71164Y829138D02*
X77611Y825486D01*
X83871Y821522D01*
X89929Y817255D01*
X95771Y812697D01*
X101381Y807857D01*
X106748Y802748D01*
X111697Y797549D01*
X111674Y797080D01*
X111637Y797019D01*
D01*
X111637D01*
D01*
D01*
Y797019D01*
D01*
Y797019D01*
D01*
D01*
D01*
D01*
Y797019D01*
X105670Y793574D01*
X105686Y793547D01*
X105637Y793519D01*
Y793519D01*
X105637Y793519D01*
X99670Y790074D01*
X99686Y790047D01*
X99637Y790019D01*
Y790019D01*
X99637Y790019D01*
X93670Y786574D01*
X96820Y781118D01*
X102787Y784563D01*
Y784563D01*
X102771Y784590D01*
X102820Y784619D01*
X103077Y784767D01*
X103077Y784767D01*
Y784767D01*
X108786Y788063D01*
Y788063D01*
X108771Y788090D01*
X108820Y788119D01*
X109077Y788267D01*
X109077Y788267D01*
Y788267D01*
X114787Y791563D01*
X114183Y792609D01*
X115352Y793329D01*
X116697Y791771D01*
X121255Y785929D01*
X125522Y779871D01*
X129486Y773611D01*
X133138Y767164D01*
X136470Y760545D01*
X138833Y755215D01*
X138421Y754932D01*
X137517Y755835D01*
X137176Y756345D01*
X135194Y758328D01*
X135259Y758824D01*
X135274Y758832D01*
X131337Y765651D01*
X129139Y764383D01*
X127345Y766176D01*
X126576Y766690D01*
X125669Y766870D01*
X114729D01*
X114600Y767353D01*
X119597Y770238D01*
D01*
X126416Y774175D01*
X122479Y780994D01*
X120895Y780080D01*
X117794Y784695D01*
X117907Y785182D01*
X118330Y785426D01*
X115180Y790881D01*
X109213Y787437D01*
X109229Y787410D01*
X109180Y787382D01*
Y787382D01*
X109180Y787382D01*
X103214Y783937D01*
X103229Y783910D01*
X103180Y783882D01*
Y783882D01*
X103180Y783882D01*
X97214Y780437D01*
X100363Y774981D01*
X101498Y775636D01*
X104606Y771099D01*
X104495Y770612D01*
X103726Y770168D01*
X104874Y768179D01*
X104478Y767875D01*
X92370Y779982D01*
Y804000D01*
X92190Y804907D01*
X91676Y805676D01*
X66337Y831015D01*
X66630Y831421D01*
X71164Y829138D01*
D02*
G37*
G36*
X50858Y838139D02*
X57771Y835472D01*
X60282Y834359D01*
X60179Y833870D01*
X50982D01*
X45433Y839419D01*
X45695Y839845D01*
X50858Y838139D01*
D02*
G37*
G36*
X43741Y829443D02*
X43549Y828981D01*
X12795D01*
Y829563D01*
Y831130D01*
X42054D01*
X43741Y829443D01*
D02*
G37*
G36*
X144464Y739822D02*
X146440Y732681D01*
X148063Y725452D01*
X149330Y718151D01*
X150237Y710797D01*
X150782Y703407D01*
X150964Y696000D01*
X150782Y688593D01*
X150237Y681203D01*
X149330Y673849D01*
X148063Y666548D01*
X146440Y659319D01*
X144464Y652177D01*
X143705Y649882D01*
X143238Y649704D01*
X138363Y652519D01*
X138254Y652329D01*
X137830Y652574D01*
Y652574D01*
X137830Y652574D01*
X131863Y656019D01*
X131754Y655829D01*
X131330Y656074D01*
Y656074D01*
X131330Y656074D01*
X125363Y659519D01*
X122213Y654063D01*
X128180Y650619D01*
X128290Y650808D01*
X128714Y650563D01*
X128714Y650563D01*
X134680Y647119D01*
X134790Y647308D01*
X135213Y647063D01*
X135213Y647063D01*
X141180Y643618D01*
X141180Y643618D01*
Y643618D01*
X141484Y643443D01*
X141351Y643098D01*
X140894Y642895D01*
X140787Y642937D01*
Y642937D01*
X140787Y642937D01*
X134820Y646382D01*
X134710Y646192D01*
X134286Y646437D01*
X134286Y646437D01*
X128320Y649882D01*
X128210Y649692D01*
X127787Y649937D01*
X127787Y649937D01*
X121820Y653381D01*
X118670Y647926D01*
X119788Y647281D01*
X117793Y643183D01*
X117315Y643036D01*
X116521Y643494D01*
X113373Y638041D01*
X113276Y638028D01*
X112870Y638137D01*
Y648190D01*
X141676Y676996D01*
X142190Y677765D01*
X142370Y678672D01*
X142370Y678672D01*
X142370Y678672D01*
Y678672D01*
Y744585D01*
X142864Y744664D01*
X144464Y739822D01*
D02*
G37*
D10*
X157480Y696000D02*
G03*
X157480Y696000I-157480J0D01*
G01*
D11*
X116048Y796541D02*
G03*
X-22944Y847819I-116048J-100541D01*
G01*
X145055Y645654D02*
G03*
X116048Y796541I-145055J50345D01*
G01*
X27994Y545030D02*
G03*
X145055Y645654I-27994J150970D01*
G01*
X-116295Y595745D02*
G03*
X27994Y545030I116295J100255D01*
G01*
X-145962Y743651D02*
G03*
X-116295Y595746I145962J-47651D01*
G01*
X100657Y689657D02*
X106500D01*
X84500Y673500D02*
X100657Y689657D01*
X84500Y638000D02*
Y673500D01*
X75500Y629000D02*
X84500Y638000D01*
X95842Y709342D02*
X106500D01*
X75500Y689000D02*
X95842Y709342D01*
X-28543Y842220D02*
X-22944Y847819D01*
X-93500Y679000D02*
X-44500D01*
X-94000Y678500D02*
X-93500Y679000D01*
X83250Y739750D02*
Y768250D01*
X66500Y723000D02*
X83250Y739750D01*
X-71500Y723000D02*
X66500D01*
X-99445Y695055D02*
X-71500Y723000D01*
X-99445Y683945D02*
Y687287D01*
Y683945D02*
X-94000Y678500D01*
Y663500D02*
Y678500D01*
X-98000Y659500D02*
X-94000Y663500D01*
X-104807Y659500D02*
X-98000D01*
X-99445Y687287D02*
Y695055D01*
X79500Y772000D02*
X83250Y768250D01*
X79500Y772000D02*
Y793096D01*
X54096Y818500D02*
X79500Y793096D01*
X-25500Y818500D02*
X54096D01*
X-28543Y821543D02*
X-25500Y818500D01*
X-28543Y821543D02*
Y826500D01*
Y833500D02*
Y840500D01*
Y826500D02*
Y833500D01*
D12*
X-81500Y761957D02*
D03*
Y769043D02*
D03*
Y748457D02*
D03*
Y755543D02*
D03*
Y775457D02*
D03*
Y782543D02*
D03*
X-94000Y789457D02*
D03*
Y796543D02*
D03*
X15500Y732457D02*
D03*
Y739543D02*
D03*
X23000Y739543D02*
D03*
Y732457D02*
D03*
D13*
X-88276Y769240D02*
D03*
Y761760D02*
D03*
X-98724Y765500D02*
D03*
X-88276Y756240D02*
D03*
Y748760D02*
D03*
X-98724Y752500D02*
D03*
X-88276Y781740D02*
D03*
Y774260D02*
D03*
X-98724Y778000D02*
D03*
D14*
X-111728Y599431D02*
D03*
X-115272Y605569D02*
D03*
X-98728Y606931D02*
D03*
X-102272Y613069D02*
D03*
X-105228Y602931D02*
D03*
X-108772Y609069D02*
D03*
X110228Y792569D02*
D03*
X113772Y786431D02*
D03*
X98228Y785569D02*
D03*
X101772Y779431D02*
D03*
X104228Y789069D02*
D03*
X107772Y782931D02*
D03*
D15*
X-138272Y744431D02*
D03*
X-134728Y750569D02*
D03*
X-125272Y736431D02*
D03*
X-121728Y742569D02*
D03*
X-131772Y740431D02*
D03*
X-128228Y746569D02*
D03*
X139772Y648069D02*
D03*
X136228Y641931D02*
D03*
X126772Y655069D02*
D03*
X123228Y648931D02*
D03*
X133272Y651569D02*
D03*
X129728Y645431D02*
D03*
D16*
X-129396Y631227D02*
D03*
X-123429Y634671D02*
D03*
X-117462Y638116D02*
D03*
X-108604Y622773D02*
D03*
X-114571Y619328D02*
D03*
X-120538Y615884D02*
D03*
X129896Y760273D02*
D03*
X123929Y756828D02*
D03*
X117962Y753384D02*
D03*
X109104Y768727D02*
D03*
X115071Y772171D02*
D03*
X121038Y775616D02*
D03*
D17*
X-120538Y775616D02*
D03*
X-114571Y772171D02*
D03*
X-108604Y768727D02*
D03*
X-117462Y753384D02*
D03*
X-123429Y756828D02*
D03*
X-129396Y760273D02*
D03*
X121038Y615884D02*
D03*
X115071Y619328D02*
D03*
X109104Y622773D02*
D03*
X117962Y638116D02*
D03*
X123929Y634671D02*
D03*
X129896Y631227D02*
D03*
D18*
X-21181Y800531D02*
D03*
X-13307D02*
D03*
X-5433D02*
D03*
X2441D02*
D03*
X10315D02*
D03*
X18189D02*
D03*
X26063D02*
D03*
Y752500D02*
D03*
X18189D02*
D03*
X10315D02*
D03*
X2441D02*
D03*
X-5433D02*
D03*
X-13307D02*
D03*
D19*
X-21181D02*
D03*
D20*
X-118193Y671500D02*
D03*
X-104807D02*
D03*
X-104807Y659500D02*
D03*
X-118193D02*
D03*
D21*
X-108500Y710713D02*
D03*
D22*
X-99445Y687287D02*
D03*
X-108500D02*
D03*
X-117555D02*
D03*
D23*
X-43000Y807000D02*
D03*
X-74027Y789087D02*
D03*
X-51858Y822343D02*
D03*
X-82885Y804430D02*
D03*
D24*
X51000Y746693D02*
D03*
Y733307D02*
D03*
X41000Y746693D02*
D03*
Y733307D02*
D03*
X61000Y746693D02*
D03*
Y733307D02*
D03*
D25*
X-28543Y840500D02*
D03*
X-21457D02*
D03*
X-28543Y826500D02*
D03*
X-21457D02*
D03*
X-28543Y833500D02*
D03*
X-21457D02*
D03*
X28043Y551000D02*
D03*
X20957D02*
D03*
X28043Y565000D02*
D03*
X20957D02*
D03*
X28043Y558000D02*
D03*
X20957D02*
D03*
D26*
X8858Y840390D02*
D03*
Y833500D02*
D03*
Y826610D02*
D03*
X-8858D02*
D03*
Y833500D02*
D03*
Y840390D02*
D03*
X-8858Y551110D02*
D03*
Y558000D02*
D03*
Y564890D02*
D03*
X8858D02*
D03*
Y558000D02*
D03*
Y551110D02*
D03*
D27*
X-118193Y659500D02*
Y686650D01*
Y689693D01*
X-106594Y732457D02*
X-93388Y745662D01*
X-125500Y713550D02*
X-106594Y732457D01*
X-110500Y649000D02*
X-44500D01*
X-118193Y656693D02*
X-110500Y649000D01*
X-93388Y745662D02*
Y769240D01*
Y781112D01*
X-92760Y781740D02*
X-88276D01*
X-93388Y781112D02*
X-92760Y781740D01*
X-118193Y686650D02*
X-117555Y687287D01*
X-125500Y713000D02*
Y713550D01*
Y697000D02*
Y713000D01*
Y697000D02*
X-118193Y689693D01*
Y656693D02*
Y659500D01*
D28*
X-106594Y732457D02*
X6000D01*
X56000Y772243D02*
Y781500D01*
X50000Y766243D02*
X56000Y772243D01*
X50000Y765500D02*
Y766243D01*
X62000Y774000D02*
Y800000D01*
X56500Y768500D02*
X62000Y774000D01*
X56500Y762500D02*
Y768500D01*
X54000Y760000D02*
X56500Y762500D01*
X48142Y760000D02*
X54000D01*
X44797Y763345D02*
X48142Y760000D01*
X110055Y792851D02*
X116048Y796541D01*
X104141Y789210D02*
X110055Y792851D01*
X98228Y785569D02*
X104141Y789210D01*
X139772Y648069D02*
X145055Y645654D01*
X27994Y545030D02*
X28043Y551000D01*
X-145962Y743651D02*
X-145182Y744431D01*
X-105337Y603119D02*
X-98728Y606931D01*
X-111728Y599431D02*
X-105337Y603119D01*
X-116295Y595746D02*
X-111728Y599431D01*
X35000Y727000D02*
X41000Y733000D01*
X-91000Y727000D02*
X35000D01*
X-107287Y710713D02*
X-91000Y727000D01*
X-69043Y736000D02*
X-7559D01*
X-81500Y748457D02*
X-69043Y736000D01*
X23000Y732457D02*
X23000Y732457D01*
X15500Y732457D02*
X23000D01*
X-108500Y710713D02*
X-107287D01*
X-103750Y740250D02*
Y752500D01*
X-134000Y710000D02*
X-103750Y740250D01*
X-93388Y769240D02*
X-88276D01*
X-125500Y713000D02*
X-117500Y721000D01*
X44797Y763345D02*
Y770297D01*
X50000Y775500D01*
X56000Y781500D02*
X58500Y784000D01*
Y798500D01*
X51500Y810500D02*
X62000Y800000D01*
X6000Y810500D02*
X51500D01*
X40000Y795500D02*
X50000Y785500D01*
X38000Y795500D02*
X40000D01*
X60000Y825000D02*
X84000Y801000D01*
X46110Y825000D02*
X60000D01*
X44500Y826610D02*
X46110Y825000D01*
X48535Y828000D02*
X61500D01*
X43036Y833500D02*
X48535Y828000D01*
X61500D02*
X87000Y802500D01*
X50000Y831500D02*
X62500D01*
X41110Y840390D02*
X50000Y831500D01*
X8858Y840390D02*
X41110D01*
X62500Y831500D02*
X90000Y804000D01*
X2441Y806941D02*
X6000Y810500D01*
X73000Y762500D02*
Y795000D01*
X53500Y814500D02*
X73000Y795000D01*
X-38000Y814500D02*
X53500D01*
X90000Y779000D02*
Y804000D01*
Y779000D02*
X106336Y762664D01*
X105000Y759000D02*
X121758D01*
X87000Y777000D02*
X105000Y759000D01*
X87000Y777000D02*
Y802500D01*
X104000Y755000D02*
X116346D01*
X84000Y775000D02*
X104000Y755000D01*
X84000Y775000D02*
Y801000D01*
X121758Y759000D02*
X123929Y756828D01*
X116346Y755000D02*
X117962Y753384D01*
X134000Y682000D02*
Y737346D01*
X104500Y652500D02*
X134000Y682000D01*
X104500Y631500D02*
Y652500D01*
X107500Y650500D02*
X137000Y680000D01*
X107500Y634500D02*
Y650500D01*
Y634500D02*
X116500Y625500D01*
X104500Y631500D02*
X109104Y626896D01*
X116500Y620758D02*
Y625500D01*
X121038Y615884D02*
Y626462D01*
X110500Y637000D02*
X121038Y626462D01*
X110500Y637000D02*
Y649172D01*
X140000Y678672D01*
X109104Y622773D02*
Y626896D01*
X4000Y576500D02*
X82500D01*
X-3000Y569500D02*
X4000Y576500D01*
X-3000Y560500D02*
Y569500D01*
X-23500Y568000D02*
X-13500Y558000D01*
X-55000Y568000D02*
X-23500D01*
X-89000Y602000D02*
X-55000Y568000D01*
X-17500Y571000D02*
X-11390Y564890D01*
X-53500Y571000D02*
X-17500D01*
X-85500Y603000D02*
X-53500Y571000D01*
X-85500Y603000D02*
Y613500D01*
X-89000Y602000D02*
Y612500D01*
X-96000Y624000D02*
X-85500Y613500D01*
X-96000Y624000D02*
Y627500D01*
X-7559Y736000D02*
X2441Y746000D01*
X-103750Y752500D02*
Y759250D01*
Y752500D02*
X-98724D01*
X-110000Y765500D02*
X-103750Y759250D01*
X-134000Y653000D02*
Y710000D01*
Y653000D02*
X-119116Y638116D01*
X-108000Y741000D02*
Y758500D01*
X-137000Y712000D02*
X-108000Y741000D01*
X-137000Y648242D02*
Y712000D01*
X-116500Y767000D02*
X-108000Y758500D01*
X49500Y807500D02*
X58500Y798500D01*
X12500Y807500D02*
X49500D01*
X10500Y805500D02*
X12500Y807500D01*
X10500Y800717D02*
Y805500D01*
X40000Y756500D02*
X56500D01*
X63000Y763000D01*
X-5433Y800531D02*
Y805933D01*
X-8500Y809000D02*
X-5433Y805933D01*
X-28500Y809000D02*
X-8500D01*
X-30500Y807000D02*
X-28500Y809000D01*
X-45843Y822343D02*
X-38000Y814500D01*
X41000Y733000D02*
X60693D01*
X-43000Y807000D02*
X-30500D01*
X-39000Y783000D02*
X-13307D01*
X-60000Y804000D02*
X-39000Y783000D01*
X-60000Y804000D02*
Y816500D01*
X-54157Y822343D01*
X-51858D01*
X-45843D01*
X-94000Y789457D02*
X-88276Y783732D01*
Y781740D02*
Y783732D01*
X-87500Y782516D02*
X-87472Y782543D01*
X-94000Y796543D02*
X-81484D01*
X-74027Y789087D01*
X33500Y733000D02*
Y744500D01*
X35693Y746693D01*
X41000D01*
X22500Y745000D02*
X23000Y744500D01*
X22500Y745000D02*
X28500D01*
X21000D02*
X22500D01*
X23000Y739543D02*
Y744500D01*
X23000Y739543D02*
X23000Y739543D01*
X15500Y739543D02*
X23000D01*
X10315Y748815D02*
Y752500D01*
X6000Y732457D02*
Y744500D01*
Y732457D02*
X15500D01*
X6000Y744500D02*
X10315Y748815D01*
X23000Y732457D02*
X32957D01*
X33500Y733000D01*
X26063Y793000D02*
Y800531D01*
X10315Y777252D02*
X26063Y793000D01*
X10315Y752500D02*
Y777252D01*
X26063Y800531D02*
X32969D01*
X38000Y795500D01*
X2441Y800531D02*
Y806941D01*
X26063Y752500D02*
Y773563D01*
X38000Y785500D01*
X103000Y602000D02*
Y616669D01*
X82000Y581000D02*
X103000Y602000D01*
X3142Y581000D02*
X82000D01*
X107500Y601500D02*
Y611758D01*
X82500Y576500D02*
X107500Y601500D01*
X83000Y572000D02*
X112250Y601250D01*
Y606250D02*
X121038Y615038D01*
X112250Y601250D02*
Y606250D01*
X121038Y615038D02*
Y615884D01*
X107500Y611758D02*
X115071Y619328D01*
X103000Y616669D02*
X109104Y622773D01*
X8858Y826610D02*
X44500D01*
X8858Y833500D02*
X43036D01*
X-13307Y783000D02*
Y800531D01*
Y772193D02*
Y783000D01*
X51000Y746693D02*
X61000D01*
X41000D02*
X51000D01*
X73000Y762500D02*
X73500Y763000D01*
X73000Y745307D02*
Y762500D01*
X28500Y745000D02*
X40000Y756500D01*
X18189Y747811D02*
X21000Y745000D01*
X18189Y747811D02*
Y752500D01*
X60693Y733000D02*
X61000Y733307D01*
X73000Y745307D01*
X-108500Y687287D02*
Y710713D01*
Y675193D02*
X-104807Y671500D01*
X-108500Y675193D02*
Y687287D01*
X10315Y800531D02*
X10500Y800717D01*
X-21181Y752500D02*
Y764319D01*
X-13307Y772193D01*
X-103000Y634500D02*
X-96000Y627500D01*
X-99000Y622500D02*
X-89000Y612500D01*
X-104500Y631500D02*
X-99000Y626000D01*
Y622500D02*
Y626000D01*
X-92000Y600000D02*
Y611000D01*
X-102000Y621000D02*
X-92000Y611000D01*
X-106000Y628500D02*
X-102000Y624500D01*
Y621000D02*
Y624500D01*
X-33000Y564000D02*
X-21000Y552000D01*
X-56000Y564000D02*
X-33000D01*
X-92000Y600000D02*
X-56000Y564000D01*
X-13500Y558000D02*
X-8858D01*
X-11390Y564890D02*
X-8858D01*
X-21000Y552000D02*
X-9748D01*
X-87472Y782543D02*
X-81500D01*
X-88276Y769240D02*
X-88079Y769043D01*
X-81500D01*
X-88276Y756240D02*
X-87579Y755543D01*
X-81500D01*
X-93000Y756240D02*
X-88276D01*
X-81697Y761760D02*
X-81500Y761957D01*
X-88276Y761760D02*
X-81697D01*
X-82697Y774260D02*
X-81500Y775457D01*
X-88276Y774260D02*
X-82697D01*
X-81803Y748760D02*
X-81500Y748457D01*
X-88276Y748760D02*
X-81803D01*
X-120538Y775616D02*
X-118154Y778000D01*
X-98724D01*
Y765500D02*
Y767724D01*
X-106000Y775000D02*
X-98724Y767724D01*
X-111742Y775000D02*
X-106000D01*
X-114571Y772171D02*
X-111742Y775000D01*
X2441Y746000D02*
Y752500D01*
X-45500Y739500D02*
X-11500D01*
X-67957Y761957D02*
X-45500Y739500D01*
X-81500Y761957D02*
X-67957D01*
X-5500Y752433D02*
X-5433Y752500D01*
X-5500Y745500D02*
Y752433D01*
X-16500Y743000D02*
X-13307Y746193D01*
X-39000Y743000D02*
X-16500D01*
X-13307Y746193D02*
Y752500D01*
X-11500Y739500D02*
X-5500Y745500D01*
X-71457Y775457D02*
X-39000Y743000D01*
X-81500Y775457D02*
X-71457D01*
X-140000Y713500D02*
X-111500Y742000D01*
Y756827D01*
X106336Y762664D02*
X111500D01*
X137000Y680000D02*
Y744000D01*
X-9748Y552000D02*
X-8858Y551110D01*
X-113846Y634500D02*
X-103000D01*
X-120258Y631500D02*
X-104500D01*
X-137000Y648242D02*
X-123429Y634671D01*
X-124000Y769327D02*
X-111500Y756827D01*
X-110000Y765500D02*
Y767331D01*
X-108604Y768727D01*
X-116500Y767000D02*
Y770242D01*
X-114571Y772171D01*
X-124000Y769327D02*
Y772154D01*
X-120538Y775616D01*
X-119116Y638116D02*
X-117462D01*
X-140000Y641831D02*
Y713500D01*
Y641831D02*
X-129396Y631227D01*
X-117462Y638116D02*
X-113846Y634500D01*
X-123429Y634671D02*
X-120258Y631500D01*
X-126669Y628500D02*
X-106000D01*
X-129396Y631227D02*
X-126669Y628500D01*
X-8858Y569000D02*
X3142Y581000D01*
X-8858Y564890D02*
Y569000D01*
X-5500Y558000D02*
X-3000Y560500D01*
X-8858Y558000D02*
X-5500D01*
X4500Y572000D02*
X83000D01*
X1250Y568750D02*
X4500Y572000D01*
X1250Y555750D02*
Y568750D01*
X-8858Y551110D02*
X-3390D01*
X1250Y555750D01*
X115071Y619328D02*
X116500Y620758D01*
X117962Y753384D02*
X134000Y737346D01*
X140000Y678672D02*
Y750000D01*
X136758Y744000D02*
X137000D01*
X123929Y756828D02*
X136758Y744000D01*
X135500Y754500D02*
X140000Y750000D01*
X129896Y760273D02*
X135500Y754669D01*
Y754500D02*
Y754669D01*
X125669Y764500D02*
X129896Y760273D01*
X113336Y764500D02*
X125669D01*
X111500Y762664D02*
X113336Y764500D01*
X-108604Y622773D02*
X-102272Y613069D01*
X-114571Y619328D02*
X-108772Y609069D01*
X-120538Y615884D02*
X-115272Y605569D01*
X8858Y551110D02*
X20957Y551000D01*
X8858Y558000D02*
X20957D01*
X8858Y564890D02*
X20957Y565000D01*
X129896Y631227D02*
X136228Y641931D01*
X123929Y634671D02*
X129728Y645431D01*
X117962Y638116D02*
X123228Y648931D01*
X113772Y786431D02*
X121038Y775616D01*
X107772Y782931D02*
X115071Y772171D01*
X101772Y779431D02*
X109104Y768727D01*
X-21457Y826500D02*
X-8858Y826610D01*
X-21457Y833500D02*
X-8858D01*
X-21457Y840500D02*
X-8858Y840390D01*
X-121728Y742569D02*
X-117462Y753384D01*
X-128228Y746569D02*
X-123429Y756828D01*
X-134728Y750569D02*
X-129396Y760273D01*
X-145182Y744431D02*
X-138272D01*
X-131772Y740431D02*
X-125272Y736431D01*
X-138272Y744431D02*
X-131772Y740431D01*
X28043Y558000D02*
Y565000D01*
Y551000D02*
Y558000D01*
X133272Y651569D02*
X139772Y648069D01*
X126772Y655069D02*
X133272Y651569D01*
X-28543Y840500D02*
Y842220D01*
D29*
X38000Y785500D02*
D03*
X50000Y795500D02*
D03*
D30*
X38000D02*
D03*
X50000Y785500D02*
D03*
Y775500D02*
D03*
Y765500D02*
D03*
D31*
X106500Y689657D02*
D03*
Y709342D02*
D03*
D32*
X63500Y763000D02*
D03*
D33*
X73500D02*
D03*
D34*
X75500Y689000D02*
D03*
Y679000D02*
D03*
Y669000D02*
D03*
Y659000D02*
D03*
Y649000D02*
D03*
Y639000D02*
D03*
Y629000D02*
D03*
X-44500Y679000D02*
D03*
Y669000D02*
D03*
Y659000D02*
D03*
Y649000D02*
D03*
M02*
