%FSTAX24Y24*%
%MOIN*%
G70*
G01*
G75*
G04 Layer_Color=8388736*
%ADD10R,0.0374X0.0315*%
%ADD11R,0.0217X0.0472*%
%ADD12R,0.0256X0.0472*%
%ADD13C,0.0100*%
%ADD14C,0.0039*%
%ADD15C,0.0591*%
%ADD16R,0.0591X0.0591*%
%ADD17C,0.1181*%
%ADD18C,0.0320*%
%ADD19O,0.0217X0.0472*%
%ADD20R,0.0315X0.0374*%
%ADD21C,0.0079*%
%ADD22C,0.0059*%
%ADD23R,0.0454X0.0395*%
%ADD24R,0.0256X0.0512*%
%ADD25R,0.0336X0.0552*%
%ADD26C,0.0671*%
%ADD27R,0.0671X0.0671*%
%ADD28C,0.1261*%
%ADD29C,0.0400*%
D23*
X108268Y087512D02*
D03*
Y086804D02*
D03*
X11063D02*
D03*
Y087512D02*
D03*
X111417Y086804D02*
D03*
Y087512D02*
D03*
X10748D02*
D03*
Y086804D02*
D03*
X112205Y087512D02*
D03*
Y086804D02*
D03*
X100394Y087512D02*
D03*
Y086804D02*
D03*
X102756D02*
D03*
Y087512D02*
D03*
X103543Y086804D02*
D03*
Y087512D02*
D03*
X099606D02*
D03*
Y086804D02*
D03*
X104331Y087512D02*
D03*
Y086804D02*
D03*
X09252Y087559D02*
D03*
Y08685D02*
D03*
X094882D02*
D03*
Y087559D02*
D03*
X095669Y08685D02*
D03*
Y087559D02*
D03*
X091732D02*
D03*
Y08685D02*
D03*
X096457Y087559D02*
D03*
Y08685D02*
D03*
X084646Y087512D02*
D03*
Y086804D02*
D03*
X087008D02*
D03*
Y087512D02*
D03*
X087795Y086804D02*
D03*
Y087512D02*
D03*
X083858D02*
D03*
Y086804D02*
D03*
X088583Y087512D02*
D03*
Y086804D02*
D03*
X080709Y087512D02*
D03*
Y086804D02*
D03*
X075984Y087512D02*
D03*
Y086804D02*
D03*
X079921D02*
D03*
Y087512D02*
D03*
X079134Y086804D02*
D03*
Y087512D02*
D03*
X076772D02*
D03*
Y086804D02*
D03*
D24*
X109823Y08768D02*
D03*
X109449D02*
D03*
X109075D02*
D03*
X101949D02*
D03*
X101575D02*
D03*
X101201D02*
D03*
X094075Y087727D02*
D03*
X093701D02*
D03*
X093327D02*
D03*
X086201Y08768D02*
D03*
X085827D02*
D03*
X085453D02*
D03*
X078327D02*
D03*
X077953D02*
D03*
X077579D02*
D03*
D25*
X109075Y086635D02*
D03*
X109823D02*
D03*
X101201D02*
D03*
X101949D02*
D03*
X093327Y086682D02*
D03*
X094075D02*
D03*
X085453Y086635D02*
D03*
X086201D02*
D03*
X077579D02*
D03*
X078327D02*
D03*
D26*
X110843Y088733D02*
D03*
X109843D02*
D03*
X102969D02*
D03*
X101968D02*
D03*
X095094Y08878D02*
D03*
X094094D02*
D03*
X08722Y088733D02*
D03*
X08622D02*
D03*
X079346D02*
D03*
X078346D02*
D03*
D27*
X108843D02*
D03*
X100969D02*
D03*
X093094Y08878D02*
D03*
X08522Y088733D02*
D03*
X077346D02*
D03*
D28*
X107087D02*
D03*
X112598D02*
D03*
X099213D02*
D03*
X104724D02*
D03*
X091339Y08878D02*
D03*
X09685D02*
D03*
X083465Y088733D02*
D03*
X088976D02*
D03*
X081102D02*
D03*
X075591D02*
D03*
D29*
X108268Y08622D02*
D03*
X111811D02*
D03*
X107087D02*
D03*
X112598D02*
D03*
X100394D02*
D03*
X103937D02*
D03*
X099213D02*
D03*
X104724D02*
D03*
X09252Y086267D02*
D03*
X096063D02*
D03*
X091339D02*
D03*
X09685D02*
D03*
X084646Y08622D02*
D03*
X088189D02*
D03*
X083465D02*
D03*
X088976D02*
D03*
X081102D02*
D03*
X075591D02*
D03*
X080315D02*
D03*
X082087Y0692D02*
D03*
X082071Y070145D02*
D03*
X082075Y069835D02*
D03*
X082079Y069525D02*
D03*
X082464Y070145D02*
D03*
X082468Y069835D02*
D03*
X082472Y069525D02*
D03*
X082476Y069215D02*
D03*
X082067Y070455D02*
D03*
X08246D02*
D03*
X089961Y0692D02*
D03*
X089945Y070145D02*
D03*
X089949Y069835D02*
D03*
X089953Y069525D02*
D03*
X090338Y070145D02*
D03*
X090342Y069835D02*
D03*
X090346Y069525D02*
D03*
X09035Y069215D02*
D03*
X089941Y070455D02*
D03*
X090334D02*
D03*
X097835Y0692D02*
D03*
X097819Y070145D02*
D03*
X097823Y069835D02*
D03*
X097827Y069525D02*
D03*
X098212Y070145D02*
D03*
X098216Y069835D02*
D03*
X09822Y069525D02*
D03*
X098224Y069215D02*
D03*
X097815Y070455D02*
D03*
X098208D02*
D03*
X105709Y0692D02*
D03*
X105693Y070145D02*
D03*
X105697Y069835D02*
D03*
X105701Y069525D02*
D03*
X106086Y070145D02*
D03*
X10609Y069835D02*
D03*
X106094Y069525D02*
D03*
X106098Y069215D02*
D03*
X105689Y070455D02*
D03*
X106082D02*
D03*
X082087Y050696D02*
D03*
X082071Y051641D02*
D03*
X082075Y051331D02*
D03*
X082079Y051021D02*
D03*
X082464Y051641D02*
D03*
X082468Y051331D02*
D03*
X082472Y051021D02*
D03*
X082476Y050711D02*
D03*
X082067Y051951D02*
D03*
X08246D02*
D03*
X097835Y050696D02*
D03*
X097819Y051641D02*
D03*
X097823Y051331D02*
D03*
X097827Y051021D02*
D03*
X098212Y051641D02*
D03*
X098216Y051331D02*
D03*
X09822Y051021D02*
D03*
X098224Y050711D02*
D03*
X097815Y051951D02*
D03*
X098208D02*
D03*
X105709Y050696D02*
D03*
X105693Y051641D02*
D03*
X105697Y051331D02*
D03*
X105701Y051021D02*
D03*
X106086Y051641D02*
D03*
X10609Y051331D02*
D03*
X106094Y051021D02*
D03*
X106098Y050711D02*
D03*
X105689Y051951D02*
D03*
X106082D02*
D03*
X089961Y050696D02*
D03*
X089945Y051641D02*
D03*
X089949Y051331D02*
D03*
X089953Y051021D02*
D03*
X090338Y051641D02*
D03*
X090342Y051331D02*
D03*
X090346Y051021D02*
D03*
X09035Y050711D02*
D03*
X089941Y051951D02*
D03*
X090334D02*
D03*
X082087Y087704D02*
D03*
X082071Y088649D02*
D03*
X082075Y088339D02*
D03*
X082079Y088029D02*
D03*
X082464Y088649D02*
D03*
X082468Y088339D02*
D03*
X082472Y088029D02*
D03*
X082476Y087719D02*
D03*
X082067Y088959D02*
D03*
X08246D02*
D03*
X089961Y087704D02*
D03*
X089945Y088649D02*
D03*
X089949Y088339D02*
D03*
X089953Y088029D02*
D03*
X090338Y088649D02*
D03*
X090342Y088339D02*
D03*
X090346Y088029D02*
D03*
X09035Y087719D02*
D03*
X089941Y088959D02*
D03*
X090334D02*
D03*
X097835Y087704D02*
D03*
X097819Y088649D02*
D03*
X097823Y088339D02*
D03*
X097827Y088029D02*
D03*
X098212Y088649D02*
D03*
X098216Y088339D02*
D03*
X09822Y088029D02*
D03*
X098224Y087719D02*
D03*
X097815Y088959D02*
D03*
X098208D02*
D03*
X105709Y087704D02*
D03*
X105693Y088649D02*
D03*
X105697Y088339D02*
D03*
X105701Y088029D02*
D03*
X106086Y088649D02*
D03*
X10609Y088339D02*
D03*
X106094Y088029D02*
D03*
X106098Y087719D02*
D03*
X105689Y088959D02*
D03*
X106082D02*
D03*
X08246Y080298D02*
D03*
X082067D02*
D03*
X082476Y079058D02*
D03*
X082472Y079368D02*
D03*
X082468Y079678D02*
D03*
X082464Y079988D02*
D03*
X082079Y079368D02*
D03*
X082075Y079678D02*
D03*
X082071Y079988D02*
D03*
X082087Y079043D02*
D03*
X090334Y080298D02*
D03*
X089941D02*
D03*
X09035Y079058D02*
D03*
X090346Y079368D02*
D03*
X090342Y079678D02*
D03*
X090338Y079988D02*
D03*
X089953Y079368D02*
D03*
X089949Y079678D02*
D03*
X089945Y079988D02*
D03*
X089961Y079043D02*
D03*
X098208Y080298D02*
D03*
X097815D02*
D03*
X098224Y079058D02*
D03*
X09822Y079368D02*
D03*
X098216Y079678D02*
D03*
X098212Y079988D02*
D03*
X097827Y079368D02*
D03*
X097823Y079678D02*
D03*
X097819Y079988D02*
D03*
X097835Y079043D02*
D03*
X106082Y080298D02*
D03*
X105689D02*
D03*
X106098Y079058D02*
D03*
X106094Y079368D02*
D03*
X10609Y079678D02*
D03*
X106086Y079988D02*
D03*
X105701Y079368D02*
D03*
X105697Y079678D02*
D03*
X105693Y079988D02*
D03*
X105709Y079043D02*
D03*
X08246Y051951D02*
D03*
X082067D02*
D03*
X082476Y050711D02*
D03*
X082472Y051021D02*
D03*
X082468Y051331D02*
D03*
X082464Y051641D02*
D03*
X082079Y051021D02*
D03*
X082075Y051331D02*
D03*
X082071Y051641D02*
D03*
X082087Y050696D02*
D03*
X090334Y051951D02*
D03*
X089941D02*
D03*
X09035Y050711D02*
D03*
X090346Y051021D02*
D03*
X090342Y051331D02*
D03*
X090338Y051641D02*
D03*
X089953Y051021D02*
D03*
X089949Y051331D02*
D03*
X089945Y051641D02*
D03*
X089961Y050696D02*
D03*
X082087Y059358D02*
D03*
X082071Y060303D02*
D03*
X082075Y059993D02*
D03*
X082079Y059683D02*
D03*
X082464Y060303D02*
D03*
X082468Y059993D02*
D03*
X082472Y059683D02*
D03*
X082476Y059373D02*
D03*
X082067Y060613D02*
D03*
X08246D02*
D03*
X089961Y059358D02*
D03*
X089945Y060303D02*
D03*
X089949Y059993D02*
D03*
X089953Y059683D02*
D03*
X090338Y060303D02*
D03*
X090342Y059993D02*
D03*
X090346Y059683D02*
D03*
X09035Y059373D02*
D03*
X089941Y060613D02*
D03*
X090334D02*
D03*
X097835Y059358D02*
D03*
X097819Y060303D02*
D03*
X097823Y059993D02*
D03*
X097827Y059683D02*
D03*
X098212Y060303D02*
D03*
X098216Y059993D02*
D03*
X09822Y059683D02*
D03*
X098224Y059373D02*
D03*
X097815Y060613D02*
D03*
X098208D02*
D03*
X105709Y059358D02*
D03*
X105693Y060303D02*
D03*
X105697Y059993D02*
D03*
X105701Y059683D02*
D03*
X106086Y060303D02*
D03*
X10609Y059993D02*
D03*
X106094Y059683D02*
D03*
X106098Y059373D02*
D03*
X105689Y060613D02*
D03*
X106082D02*
D03*
X076772Y08622D02*
D03*
M02*
