%FSTAX24Y24*%
%MOIN*%
G70*
G01*
G75*
G04 Layer_Physical_Order=1*
G04 Layer_Color=255*
%ADD10R,0.0374X0.0315*%
%ADD11R,0.0217X0.0472*%
%ADD12R,0.0256X0.0472*%
%ADD13C,0.0100*%
%ADD14C,0.0039*%
%ADD15C,0.0591*%
%ADD16R,0.0591X0.0591*%
%ADD17C,0.1181*%
%ADD18C,0.0320*%
G36*
X089567Y050347D02*
X088878D01*
Y05202D01*
X08376D01*
Y053792D01*
X088878D01*
Y055957D01*
X08376D01*
Y057729D01*
X088878D01*
Y059894D01*
X08376D01*
Y061666D01*
X088878D01*
Y063831D01*
X08376D01*
Y065603D01*
X088878D01*
Y067768D01*
X08376D01*
Y06954D01*
X088878D01*
Y071705D01*
X08376D01*
Y073477D01*
X088878D01*
Y075642D01*
X08376D01*
Y077414D01*
X088878D01*
Y079579D01*
X08376D01*
Y081351D01*
X088878D01*
Y083516D01*
X08376D01*
Y085583D01*
X089567D01*
Y050347D01*
D02*
G37*
G36*
X099311Y083319D02*
X104429D01*
Y081548D01*
X099311D01*
Y079382D01*
X104429D01*
Y077611D01*
X099311D01*
Y075445D01*
X104429D01*
Y073674D01*
X099311D01*
Y071508D01*
X104429D01*
Y069737D01*
X099311D01*
Y067571D01*
X104429D01*
Y0658D01*
X099311D01*
Y063634D01*
X104429D01*
Y061863D01*
X099311D01*
Y059697D01*
X104429D01*
Y057926D01*
X099311D01*
Y05576D01*
X104429D01*
Y053989D01*
X099311D01*
Y051823D01*
X104429D01*
Y050347D01*
X098622D01*
Y085583D01*
X099311D01*
Y083319D01*
D02*
G37*
G36*
X083563D02*
X088681D01*
Y081548D01*
X083563D01*
Y079382D01*
X088681D01*
Y077611D01*
X083563D01*
Y075445D01*
X088681D01*
Y073674D01*
X083563D01*
Y071508D01*
X088681D01*
Y069737D01*
X083563D01*
Y067571D01*
X088681D01*
Y0658D01*
X083563D01*
Y063634D01*
X088681D01*
Y061863D01*
X083563D01*
Y059697D01*
X088681D01*
Y057926D01*
X083563D01*
Y05576D01*
X088681D01*
Y053989D01*
X083563D01*
Y051823D01*
X088681D01*
Y050347D01*
X082874D01*
Y085583D01*
X083563D01*
Y083319D01*
D02*
G37*
G36*
X075689D02*
X080807D01*
Y081548D01*
X075689D01*
Y079382D01*
X080807D01*
Y077611D01*
X075689D01*
Y075445D01*
X080807D01*
Y073674D01*
X075689D01*
Y071508D01*
X080807D01*
Y069737D01*
X075689D01*
Y067571D01*
X080807D01*
Y0658D01*
X075689D01*
Y063634D01*
X080807D01*
Y061863D01*
X075689D01*
Y059697D01*
X080807D01*
Y057926D01*
X075689D01*
Y05576D01*
X080807D01*
Y053989D01*
X075689D01*
Y051823D01*
X080807D01*
Y050347D01*
X075D01*
Y085583D01*
X075689D01*
Y083319D01*
D02*
G37*
G36*
X081693Y050347D02*
X081004D01*
Y05202D01*
X075886D01*
Y053792D01*
X081004D01*
Y055957D01*
X075886D01*
Y057729D01*
X081004D01*
Y059894D01*
X075886D01*
Y061666D01*
X081004D01*
Y063831D01*
X075886D01*
Y065603D01*
X081004D01*
Y067768D01*
X075886D01*
Y06954D01*
X081004D01*
Y071705D01*
X075886D01*
Y073477D01*
X081004D01*
Y075642D01*
X075886D01*
Y077414D01*
X081004D01*
Y079579D01*
X075886D01*
Y081351D01*
X081004D01*
Y083516D01*
X075886D01*
Y085583D01*
X081693D01*
Y050347D01*
D02*
G37*
G36*
X091437Y083366D02*
X096555D01*
Y081594D01*
X091437D01*
Y079429D01*
X096555D01*
Y077657D01*
X091437D01*
Y075492D01*
X096555D01*
Y07372D01*
X091437D01*
Y071555D01*
X096555D01*
Y069783D01*
X091437D01*
Y067618D01*
X096555D01*
Y065846D01*
X091437D01*
Y063681D01*
X096555D01*
Y061909D01*
X091437D01*
Y059744D01*
X096555D01*
Y057972D01*
X091437D01*
Y055807D01*
X096555D01*
Y054035D01*
X091437D01*
Y05187D01*
X096555D01*
Y050394D01*
X090748D01*
Y08563D01*
X091437D01*
Y083366D01*
D02*
G37*
G36*
X097441Y050394D02*
X096752D01*
Y052067D01*
X091634D01*
Y053839D01*
X096752D01*
Y056004D01*
X091634D01*
Y057776D01*
X096752D01*
Y059941D01*
X091634D01*
Y061713D01*
X096752D01*
Y063878D01*
X091634D01*
Y06565D01*
X096752D01*
Y067815D01*
X091634D01*
Y069587D01*
X096752D01*
Y071752D01*
X091634D01*
Y073524D01*
X096752D01*
Y075689D01*
X091634D01*
Y077461D01*
X096752D01*
Y079626D01*
X091634D01*
Y081398D01*
X096752D01*
Y083563D01*
X091634D01*
Y08563D01*
X097441D01*
Y050394D01*
D02*
G37*
G36*
X113189Y050347D02*
X1125D01*
Y05202D01*
X107382D01*
Y053792D01*
X1125D01*
Y055957D01*
X107382D01*
Y057729D01*
X1125D01*
Y059894D01*
X107382D01*
Y061666D01*
X1125D01*
Y063831D01*
X107382D01*
Y065603D01*
X1125D01*
Y067768D01*
X107382D01*
Y06954D01*
X1125D01*
Y071705D01*
X107382D01*
Y073477D01*
X1125D01*
Y075642D01*
X107382D01*
Y077414D01*
X1125D01*
Y079579D01*
X107382D01*
Y081351D01*
X1125D01*
Y083516D01*
X107382D01*
Y085583D01*
X113189D01*
Y050347D01*
D02*
G37*
G36*
X105315D02*
X104626D01*
Y05202D01*
X099508D01*
Y053792D01*
X104626D01*
Y055957D01*
X099508D01*
Y057729D01*
X104626D01*
Y059894D01*
X099508D01*
Y061666D01*
X104626D01*
Y063831D01*
X099508D01*
Y065603D01*
X104626D01*
Y067768D01*
X099508D01*
Y06954D01*
X104626D01*
Y071705D01*
X099508D01*
Y073477D01*
X104626D01*
Y075642D01*
X099508D01*
Y077414D01*
X104626D01*
Y079579D01*
X099508D01*
Y081351D01*
X104626D01*
Y083516D01*
X099508D01*
Y085583D01*
X105315D01*
Y050347D01*
D02*
G37*
G36*
X107185Y083319D02*
X112303D01*
Y081548D01*
X107185D01*
Y079382D01*
X112303D01*
Y077611D01*
X107185D01*
Y075445D01*
X112303D01*
Y073674D01*
X107185D01*
Y071508D01*
X112303D01*
Y069737D01*
X107185D01*
Y067571D01*
X112303D01*
Y0658D01*
X107185D01*
Y063634D01*
X112303D01*
Y061863D01*
X107185D01*
Y059697D01*
X112303D01*
Y057926D01*
X107185D01*
Y05576D01*
X112303D01*
Y053989D01*
X107185D01*
Y051823D01*
X112303D01*
Y050347D01*
X106496D01*
Y085583D01*
X107185D01*
Y083319D01*
D02*
G37*
D10*
X108268Y087512D02*
D03*
Y086804D02*
D03*
X11063D02*
D03*
Y087512D02*
D03*
X111417Y086804D02*
D03*
Y087512D02*
D03*
X10748D02*
D03*
Y086804D02*
D03*
X112205Y087512D02*
D03*
Y086804D02*
D03*
X100394Y087512D02*
D03*
Y086804D02*
D03*
X102756D02*
D03*
Y087512D02*
D03*
X103543Y086804D02*
D03*
Y087512D02*
D03*
X099606D02*
D03*
Y086804D02*
D03*
X104331Y087512D02*
D03*
Y086804D02*
D03*
X09252Y087559D02*
D03*
Y08685D02*
D03*
X094882D02*
D03*
Y087559D02*
D03*
X095669Y08685D02*
D03*
Y087559D02*
D03*
X091732D02*
D03*
Y08685D02*
D03*
X096457Y087559D02*
D03*
Y08685D02*
D03*
X084646Y087512D02*
D03*
Y086804D02*
D03*
X087008D02*
D03*
Y087512D02*
D03*
X087795Y086804D02*
D03*
Y087512D02*
D03*
X083858D02*
D03*
Y086804D02*
D03*
X088583Y087512D02*
D03*
Y086804D02*
D03*
X080709Y087512D02*
D03*
Y086804D02*
D03*
X075984Y087512D02*
D03*
Y086804D02*
D03*
X079921D02*
D03*
Y087512D02*
D03*
X079134Y086804D02*
D03*
Y087512D02*
D03*
X076772D02*
D03*
Y086804D02*
D03*
D11*
X109823Y08768D02*
D03*
X109449D02*
D03*
X109075D02*
D03*
X101949D02*
D03*
X101575D02*
D03*
X101201D02*
D03*
X094075Y087727D02*
D03*
X093701D02*
D03*
X093327D02*
D03*
X086201Y08768D02*
D03*
X085827D02*
D03*
X085453D02*
D03*
X078327D02*
D03*
X077953D02*
D03*
X077579D02*
D03*
D12*
X109075Y086635D02*
D03*
X109823D02*
D03*
X101201D02*
D03*
X101949D02*
D03*
X093327Y086682D02*
D03*
X094075D02*
D03*
X085453Y086635D02*
D03*
X086201D02*
D03*
X077579D02*
D03*
X078327D02*
D03*
D13*
X109511Y08622D02*
X109823Y086533D01*
X108268Y08622D02*
X109511D01*
X110843Y088733D02*
X111417D01*
X112205Y087945D01*
Y087512D02*
Y087945D01*
X107559Y087512D02*
X108268Y086804D01*
X10748Y087512D02*
X107559D01*
X11063Y086804D02*
X111417D01*
X11063Y087512D02*
X111417D01*
X109449Y087158D02*
Y08768D01*
Y087158D02*
X110276D01*
X108622D02*
X109449D01*
X108268Y086804D02*
X108622Y087158D01*
X110276D02*
X11063Y087512D01*
X108946Y087552D02*
X109075Y08768D01*
X108307Y087552D02*
X108946D01*
X108268Y087512D02*
X108307Y087552D01*
X107087Y08641D02*
X10748Y086804D01*
X107087Y08622D02*
Y08641D01*
X109823Y086533D02*
Y086635D01*
Y086757D01*
X109869Y086804D01*
X11063D01*
X111811Y08641D02*
X112205Y086804D01*
X111811Y08622D02*
Y08641D01*
X109075Y08768D02*
Y088107D01*
X108843Y088339D02*
X109075Y088107D01*
X108843Y088339D02*
Y088733D01*
X107087Y085485D02*
Y08622D01*
X106988Y085386D02*
X107087Y085485D01*
X112598Y085485D02*
Y08622D01*
Y085485D02*
X112598Y085485D01*
X109843Y088733D02*
X110512Y088063D01*
Y08763D02*
Y088063D01*
Y08763D02*
X11063Y087512D01*
X109075Y088142D02*
X109646D01*
X109823Y087965D01*
Y08768D02*
Y087965D01*
X101637Y08622D02*
X101949Y086533D01*
X100394Y08622D02*
X101637D01*
X102969Y088733D02*
X103543D01*
X104331Y087945D01*
Y087512D02*
Y087945D01*
X099685Y087512D02*
X100394Y086804D01*
X099606Y087512D02*
X099685D01*
X102756Y086804D02*
X103543D01*
X102756Y087512D02*
X103543D01*
X101575Y087158D02*
Y08768D01*
Y087158D02*
X102402D01*
X100748D02*
X101575D01*
X100394Y086804D02*
X100748Y087158D01*
X102402D02*
X102756Y087512D01*
X101072Y087552D02*
X101201Y08768D01*
X100433Y087552D02*
X101072D01*
X100394Y087512D02*
X100433Y087552D01*
X099213Y08641D02*
X099606Y086804D01*
X099213Y08622D02*
Y08641D01*
X101949Y086533D02*
Y086635D01*
Y086757D01*
X101995Y086804D01*
X102756D01*
X103937Y08641D02*
X104331Y086804D01*
X103937Y08622D02*
Y08641D01*
X101201Y08768D02*
Y088107D01*
X100969Y088339D02*
X101201Y088107D01*
X100969Y088339D02*
Y088733D01*
X099213Y085485D02*
Y08622D01*
X099114Y085386D02*
X099213Y085485D01*
X104724Y085485D02*
Y08622D01*
Y085485D02*
X104724Y085485D01*
X101968Y088733D02*
X102638Y088063D01*
Y08763D02*
Y088063D01*
Y08763D02*
X102756Y087512D01*
X101201Y088142D02*
X101772D01*
X101949Y087965D01*
Y08768D02*
Y087965D01*
X093763Y086267D02*
X094075Y08658D01*
X09252Y086267D02*
X093763D01*
X095094Y08878D02*
X095669D01*
X096457Y087992D01*
Y087559D02*
Y087992D01*
X091811Y087559D02*
X09252Y08685D01*
X091732Y087559D02*
X091811D01*
X094882Y08685D02*
X095669D01*
X094882Y087559D02*
X095669D01*
X093701Y087205D02*
Y087727D01*
Y087205D02*
X094528D01*
X092874D02*
X093701D01*
X09252Y08685D02*
X092874Y087205D01*
X094528D02*
X094882Y087559D01*
X093198Y087598D02*
X093327Y087727D01*
X092559Y087598D02*
X093198D01*
X09252Y087559D02*
X092559Y087598D01*
X091339Y086457D02*
X091732Y08685D01*
X091339Y086267D02*
Y086457D01*
X094075Y08658D02*
Y086682D01*
Y086804D01*
X094121Y08685D01*
X094882D01*
X096063Y086457D02*
X096457Y08685D01*
X096063Y086267D02*
Y086457D01*
X093327Y087727D02*
Y088154D01*
X093094Y088386D02*
X093327Y088154D01*
X093094Y088386D02*
Y08878D01*
X091339Y085531D02*
Y086267D01*
X09124Y085433D02*
X091339Y085531D01*
X09685Y085532D02*
Y086267D01*
Y085532D02*
X09685Y085532D01*
X094094Y08878D02*
X094764Y08811D01*
Y087677D02*
Y08811D01*
Y087677D02*
X094882Y087559D01*
X093327Y088189D02*
X093898D01*
X094075Y088012D01*
Y087727D02*
Y088012D01*
X085889Y08622D02*
X086201Y086533D01*
X084646Y08622D02*
X085889D01*
X08722Y088733D02*
X087795D01*
X088583Y087945D01*
Y087512D02*
Y087945D01*
X083937Y087512D02*
X084646Y086804D01*
X083858Y087512D02*
X083937D01*
X087008Y086804D02*
X087795D01*
X087008Y087512D02*
X087795D01*
X085827Y087158D02*
Y08768D01*
Y087158D02*
X086654D01*
X085D02*
X085827D01*
X084646Y086804D02*
X085Y087158D01*
X086654D02*
X087008Y087512D01*
X085324Y087552D02*
X085453Y08768D01*
X084685Y087552D02*
X085324D01*
X084646Y087512D02*
X084685Y087552D01*
X083465Y08641D02*
X083858Y086804D01*
X083465Y08622D02*
Y08641D01*
X086201Y086533D02*
Y086635D01*
Y086757D01*
X086247Y086804D01*
X087008D01*
X088189Y08641D02*
X088583Y086804D01*
X088189Y08622D02*
Y08641D01*
X085453Y08768D02*
Y088107D01*
X08522Y088339D02*
X085453Y088107D01*
X08522Y088339D02*
Y088733D01*
X083465Y085485D02*
Y08622D01*
X083366Y085386D02*
X083465Y085485D01*
X088976Y085485D02*
Y08622D01*
Y085485D02*
X088976Y085485D01*
X08622Y088733D02*
X08689Y088063D01*
Y08763D02*
Y088063D01*
Y08763D02*
X087008Y087512D01*
X085453Y088142D02*
X086024D01*
X086201Y087965D01*
Y08768D02*
Y087965D01*
X078327Y08768D02*
Y087965D01*
X07815Y088142D02*
X078327Y087965D01*
X077579Y088142D02*
X07815D01*
X079016Y08763D02*
X079134Y087512D01*
X079016Y08763D02*
Y088063D01*
X078346Y088733D02*
X079016Y088063D01*
X081102Y085485D02*
X081102Y085485D01*
X081102Y085485D02*
Y08622D01*
X075492Y085386D02*
X075591Y085485D01*
Y08622D01*
X077346Y088339D02*
Y088733D01*
Y088339D02*
X077579Y088107D01*
Y08768D02*
Y088107D01*
X080315Y08622D02*
Y08641D01*
X080709Y086804D01*
X078373Y086804D02*
X079134D01*
X078327Y086757D02*
X078373Y086804D01*
X078327Y086635D02*
Y086757D01*
Y086533D02*
Y086635D01*
X075591Y08622D02*
Y08641D01*
X075984Y086804D01*
X076772Y087512D02*
X076811Y087552D01*
X07745D01*
X077579Y08768D01*
X07878Y087158D02*
X079134Y087512D01*
X076772Y086804D02*
X077126Y087158D01*
X077953D01*
X07878D01*
X077953D02*
Y08768D01*
X079134Y087512D02*
X079921D01*
X079134Y086804D02*
X079921D01*
X075984Y087512D02*
X076063D01*
X076772Y086804D01*
X080709Y087512D02*
Y087945D01*
X079921Y088733D02*
X080709Y087945D01*
X079346Y088733D02*
X079921D01*
X076772Y08622D02*
X078015D01*
X078327Y086533D01*
D14*
X106693Y086024D02*
X106496D01*
X106627D02*
X106562Y086122D01*
X106627Y086024D02*
X106693Y086122D01*
Y086319D02*
Y086253D01*
X10666Y08622D01*
X106595D01*
X106562Y086253D01*
Y086319D01*
X106595Y086352D01*
X106627D01*
Y08622D01*
X106562Y086417D02*
X106693D01*
X106627D01*
X106595Y08645D01*
X106562Y086483D01*
Y086516D01*
X106529Y086647D02*
X106562D01*
Y086614D01*
Y08668D01*
Y086647D01*
X10666D01*
X106693Y08668D01*
Y086876D02*
Y086811D01*
X10666Y086778D01*
X106595D01*
X106562Y086811D01*
Y086876D01*
X106595Y086909D01*
X106627D01*
Y086778D01*
X106693Y086975D02*
Y087073D01*
X10666Y087106D01*
X106627Y087073D01*
Y087008D01*
X106595Y086975D01*
X106562Y087008D01*
Y087106D01*
Y087172D02*
Y087303D01*
X106693Y087172D01*
Y087303D01*
Y087368D02*
Y087467D01*
X10666Y0875D01*
X106627Y087467D01*
Y087401D01*
X106595Y087368D01*
X106562Y087401D01*
Y0875D01*
Y087598D02*
Y087664D01*
X106595Y087696D01*
X106693D01*
Y087598D01*
X10666Y087565D01*
X106627Y087598D01*
Y087696D01*
X106693Y087762D02*
Y08786D01*
X10666Y087893D01*
X106627Y08786D01*
Y087795D01*
X106595Y087762D01*
X106562Y087795D01*
Y087893D01*
Y087991D02*
Y088057D01*
X106595Y08809D01*
X106693D01*
Y087991D01*
X10666Y087959D01*
X106627Y087991D01*
Y08809D01*
X098819Y086024D02*
X098622D01*
X098753D02*
X098688Y086122D01*
X098753Y086024D02*
X098819Y086122D01*
Y086319D02*
Y086253D01*
X098786Y08622D01*
X098721D01*
X098688Y086253D01*
Y086319D01*
X098721Y086352D01*
X098753D01*
Y08622D01*
X098688Y086417D02*
X098819D01*
X098753D01*
X098721Y08645D01*
X098688Y086483D01*
Y086516D01*
X098655Y086647D02*
X098688D01*
Y086614D01*
Y08668D01*
Y086647D01*
X098786D01*
X098819Y08668D01*
Y086876D02*
Y086811D01*
X098786Y086778D01*
X098721D01*
X098688Y086811D01*
Y086876D01*
X098721Y086909D01*
X098753D01*
Y086778D01*
X098819Y086975D02*
Y087073D01*
X098786Y087106D01*
X098753Y087073D01*
Y087008D01*
X098721Y086975D01*
X098688Y087008D01*
Y087106D01*
Y087172D02*
Y087303D01*
X098819Y087172D01*
Y087303D01*
Y087368D02*
Y087467D01*
X098786Y0875D01*
X098753Y087467D01*
Y087401D01*
X098721Y087368D01*
X098688Y087401D01*
Y0875D01*
Y087598D02*
Y087664D01*
X098721Y087696D01*
X098819D01*
Y087598D01*
X098786Y087565D01*
X098753Y087598D01*
Y087696D01*
X098819Y087762D02*
Y08786D01*
X098786Y087893D01*
X098753Y08786D01*
Y087795D01*
X098721Y087762D01*
X098688Y087795D01*
Y087893D01*
Y087991D02*
Y088057D01*
X098721Y08809D01*
X098819D01*
Y087991D01*
X098786Y087959D01*
X098753Y087991D01*
Y08809D01*
X090945Y08607D02*
X090748D01*
X090879D02*
X090814Y086169D01*
X090879Y08607D02*
X090945Y086169D01*
Y086366D02*
Y0863D01*
X090912Y086267D01*
X090846D01*
X090814Y0863D01*
Y086366D01*
X090846Y086398D01*
X090879D01*
Y086267D01*
X090814Y086464D02*
X090945D01*
X090879D01*
X090846Y086497D01*
X090814Y08653D01*
Y086562D01*
X090781Y086694D02*
X090814D01*
Y086661D01*
Y086726D01*
Y086694D01*
X090912D01*
X090945Y086726D01*
Y086923D02*
Y086858D01*
X090912Y086825D01*
X090846D01*
X090814Y086858D01*
Y086923D01*
X090846Y086956D01*
X090879D01*
Y086825D01*
X090945Y087022D02*
Y08712D01*
X090912Y087153D01*
X090879Y08712D01*
Y087054D01*
X090846Y087022D01*
X090814Y087054D01*
Y087153D01*
Y087218D02*
Y08735D01*
X090945Y087218D01*
Y08735D01*
Y087415D02*
Y087514D01*
X090912Y087546D01*
X090879Y087514D01*
Y087448D01*
X090846Y087415D01*
X090814Y087448D01*
Y087546D01*
Y087645D02*
Y08771D01*
X090846Y087743D01*
X090945D01*
Y087645D01*
X090912Y087612D01*
X090879Y087645D01*
Y087743D01*
X090945Y087809D02*
Y087907D01*
X090912Y08794D01*
X090879Y087907D01*
Y087842D01*
X090846Y087809D01*
X090814Y087842D01*
Y08794D01*
Y088038D02*
Y088104D01*
X090846Y088137D01*
X090945D01*
Y088038D01*
X090912Y088006D01*
X090879Y088038D01*
Y088137D01*
X083071Y086024D02*
X082874D01*
X083005D02*
X08294Y086122D01*
X083005Y086024D02*
X083071Y086122D01*
Y086319D02*
Y086253D01*
X083038Y08622D01*
X082972D01*
X08294Y086253D01*
Y086319D01*
X082972Y086352D01*
X083005D01*
Y08622D01*
X08294Y086417D02*
X083071D01*
X083005D01*
X082972Y08645D01*
X08294Y086483D01*
Y086516D01*
X082907Y086647D02*
X08294D01*
Y086614D01*
Y08668D01*
Y086647D01*
X083038D01*
X083071Y08668D01*
Y086876D02*
Y086811D01*
X083038Y086778D01*
X082972D01*
X08294Y086811D01*
Y086876D01*
X082972Y086909D01*
X083005D01*
Y086778D01*
X083071Y086975D02*
Y087073D01*
X083038Y087106D01*
X083005Y087073D01*
Y087008D01*
X082972Y086975D01*
X08294Y087008D01*
Y087106D01*
Y087172D02*
Y087303D01*
X083071Y087172D01*
Y087303D01*
Y087368D02*
Y087467D01*
X083038Y0875D01*
X083005Y087467D01*
Y087401D01*
X082972Y087368D01*
X08294Y087401D01*
Y0875D01*
Y087598D02*
Y087664D01*
X082972Y087696D01*
X083071D01*
Y087598D01*
X083038Y087565D01*
X083005Y087598D01*
Y087696D01*
X083071Y087762D02*
Y08786D01*
X083038Y087893D01*
X083005Y08786D01*
Y087795D01*
X082972Y087762D01*
X08294Y087795D01*
Y087893D01*
Y087991D02*
Y088057D01*
X082972Y08809D01*
X083071D01*
Y087991D01*
X083038Y087959D01*
X083005Y087991D01*
Y08809D01*
X075197Y086024D02*
X075D01*
X075131D02*
X075066Y086122D01*
X075131Y086024D02*
X075197Y086122D01*
Y086319D02*
Y086253D01*
X075164Y08622D01*
X075098D01*
X075066Y086253D01*
Y086319D01*
X075098Y086352D01*
X075131D01*
Y08622D01*
X075066Y086417D02*
X075197D01*
X075131D01*
X075098Y08645D01*
X075066Y086483D01*
Y086516D01*
X075033Y086647D02*
X075066D01*
Y086614D01*
Y08668D01*
Y086647D01*
X075164D01*
X075197Y08668D01*
Y086876D02*
Y086811D01*
X075164Y086778D01*
X075098D01*
X075066Y086811D01*
Y086876D01*
X075098Y086909D01*
X075131D01*
Y086778D01*
X075197Y086975D02*
Y087073D01*
X075164Y087106D01*
X075131Y087073D01*
Y087008D01*
X075098Y086975D01*
X075066Y087008D01*
Y087106D01*
Y087172D02*
Y087303D01*
X075197Y087172D01*
Y087303D01*
Y087368D02*
Y087467D01*
X075164Y0875D01*
X075131Y087467D01*
Y087401D01*
X075098Y087368D01*
X075066Y087401D01*
Y0875D01*
Y087598D02*
Y087664D01*
X075098Y087696D01*
X075197D01*
Y087598D01*
X075164Y087565D01*
X075131Y087598D01*
Y087696D01*
X075197Y087762D02*
Y08786D01*
X075164Y087893D01*
X075131Y08786D01*
Y087795D01*
X075098Y087762D01*
X075066Y087795D01*
Y087893D01*
Y087991D02*
Y088057D01*
X075098Y08809D01*
X075197D01*
Y087991D01*
X075164Y087959D01*
X075131Y087991D01*
Y08809D01*
D15*
X110843Y088733D02*
D03*
X109843D02*
D03*
X102969D02*
D03*
X101968D02*
D03*
X095094Y08878D02*
D03*
X094094D02*
D03*
X08722Y088733D02*
D03*
X08622D02*
D03*
X079346D02*
D03*
X078346D02*
D03*
D16*
X108843D02*
D03*
X100969D02*
D03*
X093094Y08878D02*
D03*
X08522Y088733D02*
D03*
X077346D02*
D03*
D17*
X107087D02*
D03*
X112598D02*
D03*
X099213D02*
D03*
X104724D02*
D03*
X091339Y08878D02*
D03*
X09685D02*
D03*
X083465Y088733D02*
D03*
X088976D02*
D03*
X081102D02*
D03*
X075591D02*
D03*
D18*
X108268Y08622D02*
D03*
X111811D02*
D03*
X107087D02*
D03*
X112598D02*
D03*
X100394D02*
D03*
X103937D02*
D03*
X099213D02*
D03*
X104724D02*
D03*
X09252Y086267D02*
D03*
X096063D02*
D03*
X091339D02*
D03*
X09685D02*
D03*
X084646Y08622D02*
D03*
X088189D02*
D03*
X083465D02*
D03*
X088976D02*
D03*
X081102D02*
D03*
X075591D02*
D03*
X080315D02*
D03*
X082087Y0692D02*
D03*
X082071Y070145D02*
D03*
X082075Y069835D02*
D03*
X082079Y069525D02*
D03*
X082464Y070145D02*
D03*
X082468Y069835D02*
D03*
X082472Y069525D02*
D03*
X082476Y069215D02*
D03*
X082067Y070455D02*
D03*
X08246D02*
D03*
X089961Y0692D02*
D03*
X089945Y070145D02*
D03*
X089949Y069835D02*
D03*
X089953Y069525D02*
D03*
X090338Y070145D02*
D03*
X090342Y069835D02*
D03*
X090346Y069525D02*
D03*
X09035Y069215D02*
D03*
X089941Y070455D02*
D03*
X090334D02*
D03*
X097835Y0692D02*
D03*
X097819Y070145D02*
D03*
X097823Y069835D02*
D03*
X097827Y069525D02*
D03*
X098212Y070145D02*
D03*
X098216Y069835D02*
D03*
X09822Y069525D02*
D03*
X098224Y069215D02*
D03*
X097815Y070455D02*
D03*
X098208D02*
D03*
X105709Y0692D02*
D03*
X105693Y070145D02*
D03*
X105697Y069835D02*
D03*
X105701Y069525D02*
D03*
X106086Y070145D02*
D03*
X10609Y069835D02*
D03*
X106094Y069525D02*
D03*
X106098Y069215D02*
D03*
X105689Y070455D02*
D03*
X106082D02*
D03*
X082087Y050696D02*
D03*
X082071Y051641D02*
D03*
X082075Y051331D02*
D03*
X082079Y051021D02*
D03*
X082464Y051641D02*
D03*
X082468Y051331D02*
D03*
X082472Y051021D02*
D03*
X082476Y050711D02*
D03*
X082067Y051951D02*
D03*
X08246D02*
D03*
X097835Y050696D02*
D03*
X097819Y051641D02*
D03*
X097823Y051331D02*
D03*
X097827Y051021D02*
D03*
X098212Y051641D02*
D03*
X098216Y051331D02*
D03*
X09822Y051021D02*
D03*
X098224Y050711D02*
D03*
X097815Y051951D02*
D03*
X098208D02*
D03*
X105709Y050696D02*
D03*
X105693Y051641D02*
D03*
X105697Y051331D02*
D03*
X105701Y051021D02*
D03*
X106086Y051641D02*
D03*
X10609Y051331D02*
D03*
X106094Y051021D02*
D03*
X106098Y050711D02*
D03*
X105689Y051951D02*
D03*
X106082D02*
D03*
X089961Y050696D02*
D03*
X089945Y051641D02*
D03*
X089949Y051331D02*
D03*
X089953Y051021D02*
D03*
X090338Y051641D02*
D03*
X090342Y051331D02*
D03*
X090346Y051021D02*
D03*
X09035Y050711D02*
D03*
X089941Y051951D02*
D03*
X090334D02*
D03*
X082087Y087704D02*
D03*
X082071Y088649D02*
D03*
X082075Y088339D02*
D03*
X082079Y088029D02*
D03*
X082464Y088649D02*
D03*
X082468Y088339D02*
D03*
X082472Y088029D02*
D03*
X082476Y087719D02*
D03*
X082067Y088959D02*
D03*
X08246D02*
D03*
X089961Y087704D02*
D03*
X089945Y088649D02*
D03*
X089949Y088339D02*
D03*
X089953Y088029D02*
D03*
X090338Y088649D02*
D03*
X090342Y088339D02*
D03*
X090346Y088029D02*
D03*
X09035Y087719D02*
D03*
X089941Y088959D02*
D03*
X090334D02*
D03*
X097835Y087704D02*
D03*
X097819Y088649D02*
D03*
X097823Y088339D02*
D03*
X097827Y088029D02*
D03*
X098212Y088649D02*
D03*
X098216Y088339D02*
D03*
X09822Y088029D02*
D03*
X098224Y087719D02*
D03*
X097815Y088959D02*
D03*
X098208D02*
D03*
X105709Y087704D02*
D03*
X105693Y088649D02*
D03*
X105697Y088339D02*
D03*
X105701Y088029D02*
D03*
X106086Y088649D02*
D03*
X10609Y088339D02*
D03*
X106094Y088029D02*
D03*
X106098Y087719D02*
D03*
X105689Y088959D02*
D03*
X106082D02*
D03*
X08246Y080298D02*
D03*
X082067D02*
D03*
X082476Y079058D02*
D03*
X082472Y079368D02*
D03*
X082468Y079678D02*
D03*
X082464Y079988D02*
D03*
X082079Y079368D02*
D03*
X082075Y079678D02*
D03*
X082071Y079988D02*
D03*
X082087Y079043D02*
D03*
X090334Y080298D02*
D03*
X089941D02*
D03*
X09035Y079058D02*
D03*
X090346Y079368D02*
D03*
X090342Y079678D02*
D03*
X090338Y079988D02*
D03*
X089953Y079368D02*
D03*
X089949Y079678D02*
D03*
X089945Y079988D02*
D03*
X089961Y079043D02*
D03*
X098208Y080298D02*
D03*
X097815D02*
D03*
X098224Y079058D02*
D03*
X09822Y079368D02*
D03*
X098216Y079678D02*
D03*
X098212Y079988D02*
D03*
X097827Y079368D02*
D03*
X097823Y079678D02*
D03*
X097819Y079988D02*
D03*
X097835Y079043D02*
D03*
X106082Y080298D02*
D03*
X105689D02*
D03*
X106098Y079058D02*
D03*
X106094Y079368D02*
D03*
X10609Y079678D02*
D03*
X106086Y079988D02*
D03*
X105701Y079368D02*
D03*
X105697Y079678D02*
D03*
X105693Y079988D02*
D03*
X105709Y079043D02*
D03*
X08246Y051951D02*
D03*
X082067D02*
D03*
X082476Y050711D02*
D03*
X082472Y051021D02*
D03*
X082468Y051331D02*
D03*
X082464Y051641D02*
D03*
X082079Y051021D02*
D03*
X082075Y051331D02*
D03*
X082071Y051641D02*
D03*
X082087Y050696D02*
D03*
X090334Y051951D02*
D03*
X089941D02*
D03*
X09035Y050711D02*
D03*
X090346Y051021D02*
D03*
X090342Y051331D02*
D03*
X090338Y051641D02*
D03*
X089953Y051021D02*
D03*
X089949Y051331D02*
D03*
X089945Y051641D02*
D03*
X089961Y050696D02*
D03*
X082087Y059358D02*
D03*
X082071Y060303D02*
D03*
X082075Y059993D02*
D03*
X082079Y059683D02*
D03*
X082464Y060303D02*
D03*
X082468Y059993D02*
D03*
X082472Y059683D02*
D03*
X082476Y059373D02*
D03*
X082067Y060613D02*
D03*
X08246D02*
D03*
X089961Y059358D02*
D03*
X089945Y060303D02*
D03*
X089949Y059993D02*
D03*
X089953Y059683D02*
D03*
X090338Y060303D02*
D03*
X090342Y059993D02*
D03*
X090346Y059683D02*
D03*
X09035Y059373D02*
D03*
X089941Y060613D02*
D03*
X090334D02*
D03*
X097835Y059358D02*
D03*
X097819Y060303D02*
D03*
X097823Y059993D02*
D03*
X097827Y059683D02*
D03*
X098212Y060303D02*
D03*
X098216Y059993D02*
D03*
X09822Y059683D02*
D03*
X098224Y059373D02*
D03*
X097815Y060613D02*
D03*
X098208D02*
D03*
X105709Y059358D02*
D03*
X105693Y060303D02*
D03*
X105697Y059993D02*
D03*
X105701Y059683D02*
D03*
X106086Y060303D02*
D03*
X10609Y059993D02*
D03*
X106094Y059683D02*
D03*
X106098Y059373D02*
D03*
X105689Y060613D02*
D03*
X106082D02*
D03*
X076772Y08622D02*
D03*
M02*
