%FSTAX24Y24*%
%MOIN*%
G70*
G01*
G75*
G04 Layer_Color=65535*
%ADD10R,0.0374X0.0315*%
%ADD11R,0.0217X0.0472*%
%ADD12R,0.0256X0.0472*%
%ADD13C,0.0100*%
%ADD14C,0.0039*%
%ADD15C,0.0591*%
%ADD16R,0.0591X0.0591*%
%ADD17C,0.1181*%
%ADD18C,0.0320*%
%ADD19O,0.0217X0.0472*%
%ADD20R,0.0315X0.0374*%
%ADD21C,0.0079*%
%ADD22C,0.0059*%
D13*
X107992Y086567D02*
X108543D01*
Y087748D01*
X107992D02*
X108543D01*
X107992Y086567D02*
Y087748D01*
X110354D02*
X110906D01*
X110354Y086567D02*
Y087748D01*
Y086567D02*
X110906D01*
Y087748D01*
X111142D02*
X111693D01*
X111142Y086567D02*
Y087748D01*
Y086567D02*
X111693D01*
Y087748D01*
X107205Y086567D02*
X107756D01*
Y087748D01*
X107205D02*
X107756D01*
X107205Y086567D02*
Y087748D01*
X111929Y086567D02*
X11248D01*
Y087748D01*
X111929D02*
X11248D01*
X111929Y086567D02*
Y087748D01*
X100118Y086567D02*
X100669D01*
Y087748D01*
X100118D02*
X100669D01*
X100118Y086567D02*
Y087748D01*
X10248D02*
X103032D01*
X10248Y086567D02*
Y087748D01*
Y086567D02*
X103032D01*
Y087748D01*
X103268D02*
X103819D01*
X103268Y086567D02*
Y087748D01*
Y086567D02*
X103819D01*
Y087748D01*
X099331Y086567D02*
X099882D01*
Y087748D01*
X099331D02*
X099882D01*
X099331Y086567D02*
Y087748D01*
X104055Y086567D02*
X104606D01*
Y087748D01*
X104055D02*
X104606D01*
X104055Y086567D02*
Y087748D01*
X092244Y086614D02*
X092795D01*
Y087795D01*
X092244D02*
X092795D01*
X092244Y086614D02*
Y087795D01*
X094606D02*
X095157D01*
X094606Y086614D02*
Y087795D01*
Y086614D02*
X095157D01*
Y087795D01*
X095394D02*
X095945D01*
X095394Y086614D02*
Y087795D01*
Y086614D02*
X095945D01*
Y087795D01*
X091457Y086614D02*
X092008D01*
Y087795D01*
X091457D02*
X092008D01*
X091457Y086614D02*
Y087795D01*
X096181Y086614D02*
X096732D01*
Y087795D01*
X096181D02*
X096732D01*
X096181Y086614D02*
Y087795D01*
X08437Y086567D02*
X084921D01*
Y087748D01*
X08437D02*
X084921D01*
X08437Y086567D02*
Y087748D01*
X086732D02*
X087283D01*
X086732Y086567D02*
Y087748D01*
Y086567D02*
X087283D01*
Y087748D01*
X08752D02*
X088071D01*
X08752Y086567D02*
Y087748D01*
Y086567D02*
X088071D01*
Y087748D01*
X083583Y086567D02*
X084134D01*
Y087748D01*
X083583D02*
X084134D01*
X083583Y086567D02*
Y087748D01*
X088307Y086567D02*
X088858D01*
Y087748D01*
X088307D02*
X088858D01*
X088307Y086567D02*
Y087748D01*
X080433Y086567D02*
X080984D01*
Y087748D01*
X080433D02*
X080984D01*
X080433Y086567D02*
Y087748D01*
X075709Y086567D02*
X07626D01*
Y087748D01*
X075709D02*
X07626D01*
X075709Y086567D02*
Y087748D01*
X079646D02*
X080197D01*
X079646Y086567D02*
Y087748D01*
Y086567D02*
X080197D01*
Y087748D01*
X078858D02*
X079409D01*
X078858Y086567D02*
Y087748D01*
Y086567D02*
X079409D01*
Y087748D01*
X076496Y086567D02*
X077047D01*
Y087748D01*
X076496D02*
X077047D01*
X076496Y086567D02*
Y087748D01*
D21*
X110059Y086908D02*
Y087408D01*
X108839Y086908D02*
Y087408D01*
X110059D01*
X108839Y086908D02*
X110059D01*
X108343Y088233D02*
Y089233D01*
X111343D01*
Y088233D02*
Y089233D01*
X108343Y088233D02*
X111343D01*
X102185Y086908D02*
Y087408D01*
X100965Y086908D02*
Y087408D01*
X102185D01*
X100965Y086908D02*
X102185D01*
X100469Y088233D02*
Y089233D01*
X103469D01*
Y088233D02*
Y089233D01*
X100469Y088233D02*
X103469D01*
X094311Y086955D02*
Y087455D01*
X093091Y086955D02*
Y087455D01*
X094311D01*
X093091Y086955D02*
X094311D01*
X092594Y08828D02*
Y08928D01*
X095594D01*
Y08828D02*
Y08928D01*
X092594Y08828D02*
X095594D01*
X086437Y086908D02*
Y087408D01*
X085217Y086908D02*
Y087408D01*
X086437D01*
X085217Y086908D02*
X086437D01*
X08472Y088233D02*
Y089233D01*
X08772D01*
Y088233D02*
Y089233D01*
X08472Y088233D02*
X08772D01*
X076846D02*
Y089233D01*
X079846D01*
Y088233D02*
Y089233D01*
X076846Y088233D02*
X079846D01*
X078563Y086908D02*
Y087408D01*
X077343Y086908D02*
Y087408D01*
X078563D01*
X077343Y086908D02*
X078563D01*
D22*
X108104Y086239D02*
X108071Y086272D01*
X108005D01*
X107972Y086239D01*
Y086108D01*
X108005Y086075D01*
X108071D01*
X108104Y086108D01*
X108169Y086075D02*
X108235D01*
X108202D01*
Y086272D01*
X108169Y086239D01*
X108333Y086042D02*
X108464D01*
X108628Y086075D02*
Y086272D01*
X10853Y086174D01*
X108661D01*
X110466Y086141D02*
X110433Y086174D01*
X110367D01*
X110335Y086141D01*
Y08601D01*
X110367Y085977D01*
X110433D01*
X110466Y08601D01*
X110663Y085977D02*
X110531D01*
X110663Y086108D01*
Y086141D01*
X11063Y086174D01*
X110564D01*
X110531Y086141D01*
X110728Y085944D02*
X110859D01*
X111023Y085977D02*
Y086174D01*
X110925Y086075D01*
X111056D01*
X111253Y086141D02*
X11122Y086174D01*
X111155D01*
X111122Y086141D01*
Y08601D01*
X111155Y085977D01*
X11122D01*
X111253Y08601D01*
X111319Y086141D02*
X111352Y086174D01*
X111417D01*
X11145Y086141D01*
Y086108D01*
X111417Y086075D01*
X111384D01*
X111417D01*
X11145Y086042D01*
Y08601D01*
X111417Y085977D01*
X111352D01*
X111319Y08601D01*
X111516Y085944D02*
X111647D01*
X111811Y085977D02*
Y086174D01*
X111712Y086075D01*
X111844D01*
X107316Y086239D02*
X107283Y086272D01*
X107218D01*
X107185Y086239D01*
Y086108D01*
X107218Y086075D01*
X107283D01*
X107316Y086108D01*
X107513Y086272D02*
X107382D01*
Y086174D01*
X107447Y086206D01*
X10748D01*
X107513Y086174D01*
Y086108D01*
X10748Y086075D01*
X107415D01*
X107382Y086108D01*
X107579Y086042D02*
X10771D01*
X107874Y086075D02*
Y086272D01*
X107775Y086174D01*
X107907D01*
X108957Y086174D02*
Y085977D01*
X109088D01*
X109153Y086174D02*
Y085977D01*
X109252D01*
X109285Y08601D01*
Y086141D01*
X109252Y086174D01*
X109153D01*
X109449D02*
X109383D01*
X10935Y086141D01*
Y08601D01*
X109383Y085977D01*
X109449D01*
X109481Y08601D01*
Y086141D01*
X109449Y086174D01*
X109547Y085977D02*
X109613D01*
X10958D01*
Y086174D01*
X109547Y086141D01*
X109711Y085944D02*
X109842D01*
X110006Y085977D02*
Y086174D01*
X109908Y086075D01*
X110039D01*
X107874Y088976D02*
Y089173D01*
X107972D01*
X108005Y08914D01*
Y089075D01*
X107972Y089042D01*
X107874D01*
X108071Y088976D02*
X108136D01*
X108104D01*
Y089173D01*
X108071Y08914D01*
X108235Y088944D02*
X108366D01*
X10853Y088976D02*
Y089173D01*
X108432Y089075D01*
X108563D01*
X111909Y085977D02*
Y086174D01*
X112008D01*
X112041Y086141D01*
Y086075D01*
X112008Y086042D01*
X111909D01*
X111975D02*
X112041Y085977D01*
X112106Y086141D02*
X112139Y086174D01*
X112205D01*
X112237Y086141D01*
Y086108D01*
X112205Y086075D01*
X112172D01*
X112205D01*
X112237Y086042D01*
Y08601D01*
X112205Y085977D01*
X112139D01*
X112106Y08601D01*
X112303Y085944D02*
X112434D01*
X112598Y085977D02*
Y086174D01*
X1125Y086075D01*
X112631D01*
X10023Y086239D02*
X100197Y086272D01*
X100131D01*
X100098Y086239D01*
Y086108D01*
X100131Y086075D01*
X100197D01*
X10023Y086108D01*
X100295Y086075D02*
X100361D01*
X100328D01*
Y086272D01*
X100295Y086239D01*
X100459Y086042D02*
X10059D01*
X100656Y086239D02*
X100689Y086272D01*
X100754D01*
X100787Y086239D01*
Y086206D01*
X100754Y086174D01*
X100722D01*
X100754D01*
X100787Y086141D01*
Y086108D01*
X100754Y086075D01*
X100689D01*
X100656Y086108D01*
X102592Y086141D02*
X102559Y086174D01*
X102493D01*
X102461Y086141D01*
Y08601D01*
X102493Y085977D01*
X102559D01*
X102592Y08601D01*
X102789Y085977D02*
X102657D01*
X102789Y086108D01*
Y086141D01*
X102756Y086174D01*
X10269D01*
X102657Y086141D01*
X102854Y085944D02*
X102985D01*
X103051Y086141D02*
X103084Y086174D01*
X103149D01*
X103182Y086141D01*
Y086108D01*
X103149Y086075D01*
X103117D01*
X103149D01*
X103182Y086042D01*
Y08601D01*
X103149Y085977D01*
X103084D01*
X103051Y08601D01*
X103379Y086141D02*
X103346Y086174D01*
X103281D01*
X103248Y086141D01*
Y08601D01*
X103281Y085977D01*
X103346D01*
X103379Y08601D01*
X103445Y086141D02*
X103478Y086174D01*
X103543D01*
X103576Y086141D01*
Y086108D01*
X103543Y086075D01*
X10351D01*
X103543D01*
X103576Y086042D01*
Y08601D01*
X103543Y085977D01*
X103478D01*
X103445Y08601D01*
X103642Y085944D02*
X103773D01*
X103838Y086141D02*
X103871Y086174D01*
X103937D01*
X10397Y086141D01*
Y086108D01*
X103937Y086075D01*
X103904D01*
X103937D01*
X10397Y086042D01*
Y08601D01*
X103937Y085977D01*
X103871D01*
X103838Y08601D01*
X099442Y086239D02*
X099409Y086272D01*
X099344D01*
X099311Y086239D01*
Y086108D01*
X099344Y086075D01*
X099409D01*
X099442Y086108D01*
X099639Y086272D02*
X099508D01*
Y086174D01*
X099573Y086206D01*
X099606D01*
X099639Y086174D01*
Y086108D01*
X099606Y086075D01*
X099541D01*
X099508Y086108D01*
X099705Y086042D02*
X099836D01*
X099901Y086239D02*
X099934Y086272D01*
X1D01*
X100033Y086239D01*
Y086206D01*
X1Y086174D01*
X099967D01*
X1D01*
X100033Y086141D01*
Y086108D01*
X1Y086075D01*
X099934D01*
X099901Y086108D01*
X101083Y086174D02*
Y085977D01*
X101214D01*
X101279Y086174D02*
Y085977D01*
X101378D01*
X101411Y08601D01*
Y086141D01*
X101378Y086174D01*
X101279D01*
X101575D02*
X101509D01*
X101476Y086141D01*
Y08601D01*
X101509Y085977D01*
X101575D01*
X101607Y08601D01*
Y086141D01*
X101575Y086174D01*
X101673Y085977D02*
X101739D01*
X101706D01*
Y086174D01*
X101673Y086141D01*
X101837Y085944D02*
X101968D01*
X102034Y086141D02*
X102067Y086174D01*
X102132D01*
X102165Y086141D01*
Y086108D01*
X102132Y086075D01*
X102099D01*
X102132D01*
X102165Y086042D01*
Y08601D01*
X102132Y085977D01*
X102067D01*
X102034Y08601D01*
X1Y088976D02*
Y089173D01*
X100098D01*
X100131Y08914D01*
Y089075D01*
X100098Y089042D01*
X1D01*
X100197Y088976D02*
X100262D01*
X10023D01*
Y089173D01*
X100197Y08914D01*
X100361Y088944D02*
X100492D01*
X100558Y08914D02*
X10059Y089173D01*
X100656D01*
X100689Y08914D01*
Y089108D01*
X100656Y089075D01*
X100623D01*
X100656D01*
X100689Y089042D01*
Y089009D01*
X100656Y088976D01*
X10059D01*
X100558Y089009D01*
X104035Y085977D02*
Y086174D01*
X104134D01*
X104167Y086141D01*
Y086075D01*
X104134Y086042D01*
X104035D01*
X104101D02*
X104167Y085977D01*
X104232Y086141D02*
X104265Y086174D01*
X104331D01*
X104363Y086141D01*
Y086108D01*
X104331Y086075D01*
X104298D01*
X104331D01*
X104363Y086042D01*
Y08601D01*
X104331Y085977D01*
X104265D01*
X104232Y08601D01*
X104429Y085944D02*
X10456D01*
X104626Y086141D02*
X104659Y086174D01*
X104724D01*
X104757Y086141D01*
Y086108D01*
X104724Y086075D01*
X104691D01*
X104724D01*
X104757Y086042D01*
Y08601D01*
X104724Y085977D01*
X104659D01*
X104626Y08601D01*
X092356Y086286D02*
X092323Y086319D01*
X092257D01*
X092224Y086286D01*
Y086155D01*
X092257Y086122D01*
X092323D01*
X092356Y086155D01*
X092421Y086122D02*
X092487D01*
X092454D01*
Y086319D01*
X092421Y086286D01*
X092585Y086089D02*
X092716D01*
X092913Y086122D02*
X092782D01*
X092913Y086253D01*
Y086286D01*
X09288Y086319D01*
X092815D01*
X092782Y086286D01*
X094718Y086188D02*
X094685Y08622D01*
X094619D01*
X094587Y086188D01*
Y086056D01*
X094619Y086024D01*
X094685D01*
X094718Y086056D01*
X094915Y086024D02*
X094783D01*
X094915Y086155D01*
Y086188D01*
X094882Y08622D01*
X094816D01*
X094783Y086188D01*
X09498Y085991D02*
X095111D01*
X095308Y086024D02*
X095177D01*
X095308Y086155D01*
Y086188D01*
X095275Y08622D01*
X09521D01*
X095177Y086188D01*
X095505D02*
X095472Y08622D01*
X095407D01*
X095374Y086188D01*
Y086056D01*
X095407Y086024D01*
X095472D01*
X095505Y086056D01*
X095571Y086188D02*
X095604Y08622D01*
X095669D01*
X095702Y086188D01*
Y086155D01*
X095669Y086122D01*
X095636D01*
X095669D01*
X095702Y086089D01*
Y086056D01*
X095669Y086024D01*
X095604D01*
X095571Y086056D01*
X095768Y085991D02*
X095899D01*
X096096Y086024D02*
X095964D01*
X096096Y086155D01*
Y086188D01*
X096063Y08622D01*
X095997D01*
X095964Y086188D01*
X091568Y086286D02*
X091535Y086319D01*
X09147D01*
X091437Y086286D01*
Y086155D01*
X09147Y086122D01*
X091535D01*
X091568Y086155D01*
X091765Y086319D02*
X091634D01*
Y08622D01*
X091699Y086253D01*
X091732D01*
X091765Y08622D01*
Y086155D01*
X091732Y086122D01*
X091667D01*
X091634Y086155D01*
X091831Y086089D02*
X091962D01*
X092159Y086122D02*
X092027D01*
X092159Y086253D01*
Y086286D01*
X092126Y086319D01*
X09206D01*
X092027Y086286D01*
X093209Y08622D02*
Y086024D01*
X09334D01*
X093405Y08622D02*
Y086024D01*
X093504D01*
X093537Y086056D01*
Y086188D01*
X093504Y08622D01*
X093405D01*
X093701D02*
X093635D01*
X093602Y086188D01*
Y086056D01*
X093635Y086024D01*
X093701D01*
X093733Y086056D01*
Y086188D01*
X093701Y08622D01*
X093799Y086024D02*
X093865D01*
X093832D01*
Y08622D01*
X093799Y086188D01*
X093963Y085991D02*
X094094D01*
X094291Y086024D02*
X09416D01*
X094291Y086155D01*
Y086188D01*
X094258Y08622D01*
X094193D01*
X09416Y086188D01*
X092126Y089023D02*
Y08922D01*
X092224D01*
X092257Y089187D01*
Y089122D01*
X092224Y089089D01*
X092126D01*
X092323Y089023D02*
X092388D01*
X092356D01*
Y08922D01*
X092323Y089187D01*
X092487Y08899D02*
X092618D01*
X092815Y089023D02*
X092684D01*
X092815Y089154D01*
Y089187D01*
X092782Y08922D01*
X092716D01*
X092684Y089187D01*
X096161Y086024D02*
Y08622D01*
X09626D01*
X096293Y086188D01*
Y086122D01*
X09626Y086089D01*
X096161D01*
X096227D02*
X096293Y086024D01*
X096358Y086188D02*
X096391Y08622D01*
X096457D01*
X096489Y086188D01*
Y086155D01*
X096457Y086122D01*
X096424D01*
X096457D01*
X096489Y086089D01*
Y086056D01*
X096457Y086024D01*
X096391D01*
X096358Y086056D01*
X096555Y085991D02*
X096686D01*
X096883Y086024D02*
X096752D01*
X096883Y086155D01*
Y086188D01*
X09685Y08622D01*
X096785D01*
X096752Y086188D01*
X084482Y086239D02*
X084449Y086272D01*
X084383D01*
X08435Y086239D01*
Y086108D01*
X084383Y086075D01*
X084449D01*
X084482Y086108D01*
X084547Y086075D02*
X084613D01*
X08458D01*
Y086272D01*
X084547Y086239D01*
X084711Y086042D02*
X084842D01*
X084908Y086075D02*
X084974D01*
X084941D01*
Y086272D01*
X084908Y086239D01*
X086844Y086141D02*
X086811Y086174D01*
X086745D01*
X086713Y086141D01*
Y08601D01*
X086745Y085977D01*
X086811D01*
X086844Y08601D01*
X087041Y085977D02*
X086909D01*
X087041Y086108D01*
Y086141D01*
X087008Y086174D01*
X086942D01*
X086909Y086141D01*
X087106Y085944D02*
X087237D01*
X087303Y085977D02*
X087369D01*
X087336D01*
Y086174D01*
X087303Y086141D01*
X087631D02*
X087598Y086174D01*
X087533D01*
X0875Y086141D01*
Y08601D01*
X087533Y085977D01*
X087598D01*
X087631Y08601D01*
X087697Y086141D02*
X08773Y086174D01*
X087795D01*
X087828Y086141D01*
Y086108D01*
X087795Y086075D01*
X087762D01*
X087795D01*
X087828Y086042D01*
Y08601D01*
X087795Y085977D01*
X08773D01*
X087697Y08601D01*
X087894Y085944D02*
X088025D01*
X08809Y085977D02*
X088156D01*
X088123D01*
Y086174D01*
X08809Y086141D01*
X083694Y086239D02*
X083661Y086272D01*
X083596D01*
X083563Y086239D01*
Y086108D01*
X083596Y086075D01*
X083661D01*
X083694Y086108D01*
X083891Y086272D02*
X08376D01*
Y086174D01*
X083825Y086206D01*
X083858D01*
X083891Y086174D01*
Y086108D01*
X083858Y086075D01*
X083793D01*
X08376Y086108D01*
X083957Y086042D02*
X084088D01*
X084153Y086075D02*
X084219D01*
X084186D01*
Y086272D01*
X084153Y086239D01*
X085335Y086174D02*
Y085977D01*
X085466D01*
X085531Y086174D02*
Y085977D01*
X08563D01*
X085663Y08601D01*
Y086141D01*
X08563Y086174D01*
X085531D01*
X085827D02*
X085761D01*
X085728Y086141D01*
Y08601D01*
X085761Y085977D01*
X085827D01*
X085859Y08601D01*
Y086141D01*
X085827Y086174D01*
X085925Y085977D02*
X085991D01*
X085958D01*
Y086174D01*
X085925Y086141D01*
X086089Y085944D02*
X08622D01*
X086286Y085977D02*
X086351D01*
X086319D01*
Y086174D01*
X086286Y086141D01*
X084252Y088976D02*
Y089173D01*
X08435D01*
X084383Y08914D01*
Y089075D01*
X08435Y089042D01*
X084252D01*
X084449Y088976D02*
X084514D01*
X084482D01*
Y089173D01*
X084449Y08914D01*
X084613Y088944D02*
X084744D01*
X08481Y088976D02*
X084875D01*
X084842D01*
Y089173D01*
X08481Y08914D01*
X088287Y085977D02*
Y086174D01*
X088386D01*
X088419Y086141D01*
Y086075D01*
X088386Y086042D01*
X088287D01*
X088353D02*
X088419Y085977D01*
X088484Y086141D02*
X088517Y086174D01*
X088583D01*
X088615Y086141D01*
Y086108D01*
X088583Y086075D01*
X08855D01*
X088583D01*
X088615Y086042D01*
Y08601D01*
X088583Y085977D01*
X088517D01*
X088484Y08601D01*
X088681Y085944D02*
X088812D01*
X088878Y085977D02*
X088943D01*
X088911D01*
Y086174D01*
X088878Y086141D01*
X080413Y085977D02*
Y086174D01*
X080512D01*
X080545Y086141D01*
Y086075D01*
X080512Y086042D01*
X080413D01*
X080479D02*
X080545Y085977D01*
X08061Y086141D02*
X080643Y086174D01*
X080709D01*
X080741Y086141D01*
Y086108D01*
X080709Y086075D01*
X080676D01*
X080709D01*
X080741Y086042D01*
Y08601D01*
X080709Y085977D01*
X080643D01*
X08061Y08601D01*
X076378Y088976D02*
Y089173D01*
X076476D01*
X076509Y08914D01*
Y089075D01*
X076476Y089042D01*
X076378D01*
X076575Y088976D02*
X07664D01*
X076608D01*
Y089173D01*
X076575Y08914D01*
X077461Y086174D02*
Y085977D01*
X077592D01*
X077657Y086174D02*
Y085977D01*
X077756D01*
X077789Y08601D01*
Y086141D01*
X077756Y086174D01*
X077657D01*
X077953D02*
X077887D01*
X077854Y086141D01*
Y08601D01*
X077887Y085977D01*
X077953D01*
X077985Y08601D01*
Y086141D01*
X077953Y086174D01*
X078051Y085977D02*
X078117D01*
X078084D01*
Y086174D01*
X078051Y086141D01*
X07582Y086239D02*
X075787Y086272D01*
X075722D01*
X075689Y086239D01*
Y086108D01*
X075722Y086075D01*
X075787D01*
X07582Y086108D01*
X076017Y086272D02*
X075886D01*
Y086174D01*
X075951Y086206D01*
X075984D01*
X076017Y086174D01*
Y086108D01*
X075984Y086075D01*
X075919D01*
X075886Y086108D01*
X079757Y086141D02*
X079724Y086174D01*
X079659D01*
X079626Y086141D01*
Y08601D01*
X079659Y085977D01*
X079724D01*
X079757Y08601D01*
X079823Y086141D02*
X079856Y086174D01*
X079921D01*
X079954Y086141D01*
Y086108D01*
X079921Y086075D01*
X079888D01*
X079921D01*
X079954Y086042D01*
Y08601D01*
X079921Y085977D01*
X079856D01*
X079823Y08601D01*
X07897Y086141D02*
X078937Y086174D01*
X078871D01*
X078839Y086141D01*
Y08601D01*
X078871Y085977D01*
X078937D01*
X07897Y08601D01*
X079167Y085977D02*
X079035D01*
X079167Y086108D01*
Y086141D01*
X079134Y086174D01*
X079068D01*
X079035Y086141D01*
X076608Y086239D02*
X076575Y086272D01*
X076509D01*
X076476Y086239D01*
Y086108D01*
X076509Y086075D01*
X076575D01*
X076608Y086108D01*
X076673Y086075D02*
X076739D01*
X076706D01*
Y086272D01*
X076673Y086239D01*
M02*
