G04 Layer_Physical_Order=1*
G04 Layer_Color=255*
%FSTAX42Y42*%
%MOMM*%
G71*
G01*
G75*
%ADD10R,0.95X0.80*%
%ADD11R,0.80X0.95*%
%ADD12O,1.20X0.55*%
%ADD13R,1.20X0.55*%
%ADD14R,1.20X0.65*%
%ADD15O,3.05X0.60*%
%ADD16R,3.05X0.60*%
%ADD17O,3.06X0.60*%
%ADD18C,0.25*%
%ADD19C,1.30*%
%ADD20R,1.30X1.30*%
%ADD21C,1.50*%
%ADD22R,1.50X1.50*%
%ADD23R,1.50X1.50*%
%ADD24C,0.81*%
D10*
X025828Y042529D02*
D03*
Y042709D02*
D03*
D11*
X024263Y043719D02*
D03*
X024443D02*
D03*
X024418Y043169D02*
D03*
X024238D02*
D03*
X024493Y041669D02*
D03*
X024313D02*
D03*
X024493Y041844D02*
D03*
X024313D02*
D03*
X024888Y041669D02*
D03*
X025068D02*
D03*
X024888Y041844D02*
D03*
X025068D02*
D03*
D12*
X024458Y043539D02*
D03*
Y043349D02*
D03*
X024196Y043444D02*
D03*
Y043349D02*
D03*
D13*
Y043539D02*
D03*
D14*
X024221Y042699D02*
D03*
Y042889D02*
D03*
X024486Y042794D02*
D03*
D15*
X02496Y04218D02*
D03*
Y042307D02*
D03*
X024296Y042053D02*
D03*
Y04218D02*
D03*
Y042307D02*
D03*
X02496Y042053D02*
D03*
D16*
X024296Y042434D02*
D03*
D17*
X02496D02*
D03*
D18*
X025928Y042744D02*
X026028D01*
X025893Y042709D02*
X025928Y042744D01*
X025828Y042709D02*
X025893D01*
X024128Y043719D02*
X024263D01*
X024078Y043669D02*
X024128Y043719D01*
X024078Y042694D02*
Y043169D01*
X024238D01*
X024221Y042509D02*
X024296Y042434D01*
X024221Y042509D02*
Y042559D01*
X024871Y041669D02*
X02488Y04166D01*
X024971Y041586D02*
X02514D01*
X024888Y041669D02*
X024971Y041586D01*
X02514D02*
X025362Y041808D01*
X024493Y041669D02*
X024871D01*
X025362Y041808D02*
Y042529D01*
X025068Y041652D02*
X025068Y041652D01*
X025068Y041652D02*
Y041844D01*
X024653Y041944D02*
Y042776D01*
Y041944D02*
X024753Y041844D01*
X024888D01*
X024636Y042794D02*
X024653Y042776D01*
X024221Y042889D02*
X024683D01*
X024712Y04236D02*
X024765Y042307D01*
X024712Y04236D02*
Y04286D01*
X024683Y042889D02*
X024712Y04286D01*
X024303Y041519D02*
X025857D01*
X024203D02*
X024303D01*
X024313Y041529D01*
Y041669D01*
X024493Y041844D02*
X024603Y041954D01*
Y042225D01*
X024521Y042307D02*
X024603Y042225D01*
X024521Y042052D02*
Y04218D01*
X024313Y041844D02*
X024521Y042052D01*
X024486Y042794D02*
X024636D01*
X02496Y042053D02*
X02521D01*
X02496Y04218D02*
X02521D01*
X02496Y042307D02*
X02521D01*
X024296Y04218D02*
X024521D01*
X024296Y042307D02*
X024521D01*
X024083Y042699D02*
X024221D01*
X024078Y042694D02*
X024083Y042699D01*
X024765Y042307D02*
X02496D01*
X024418Y043019D02*
Y043169D01*
X024078Y041644D02*
X024203Y041519D01*
X02496Y042595D02*
X025128Y042763D01*
X02496Y042434D02*
Y042595D01*
X025128Y042763D02*
X025362Y042529D01*
X025828D01*
X026013D02*
X026028Y042544D01*
X025828Y042529D02*
X026013D01*
X025128Y042763D02*
Y043044D01*
X024353Y043419D02*
X024753D01*
X025128Y043044D01*
X024283Y043349D02*
X024353Y043419D01*
X024196Y043349D02*
X024283D01*
X024078Y042044D02*
Y042694D01*
Y041644D02*
Y042044D01*
X024088Y042053D01*
X024296D01*
X025857Y041519D02*
X025982Y041644D01*
X024078Y043449D02*
Y043669D01*
Y043169D02*
Y043449D01*
X024083Y043444D01*
X024196D01*
X024458Y043299D02*
Y043349D01*
X024418Y043259D02*
X024458Y043299D01*
X024418Y043169D02*
Y043259D01*
X024443Y043719D02*
X024458Y043704D01*
Y043539D02*
Y043704D01*
D19*
X026028Y043544D02*
D03*
Y043344D02*
D03*
Y043144D02*
D03*
Y042744D02*
D03*
Y042944D02*
D03*
D20*
Y042544D02*
D03*
D21*
X025128Y043525D02*
D03*
X025728Y041644D02*
D03*
X025982D02*
D03*
D22*
X025128Y042763D02*
D03*
D23*
X025474Y041644D02*
D03*
D24*
X02521Y042307D02*
D03*
X024521D02*
D03*
X024418Y043019D02*
D03*
X024521Y04218D02*
D03*
X024636Y042794D02*
D03*
X024221Y042559D02*
D03*
X02521Y04218D02*
D03*
Y042053D02*
D03*
M02*
