G04 Layer_Physical_Order=2*
G04 Layer_Color=16711680*
%FSTAX42Y42*%
%MOMM*%
G71*
G01*
G75*
%ADD18C,0.25*%
%ADD19C,1.30*%
%ADD20R,1.30X1.30*%
%ADD21C,1.50*%
%ADD22R,1.50X1.50*%
%ADD23R,1.50X1.50*%
%ADD24C,0.81*%
%ADD25R,2.50X2.50*%
%ADD26C,2.50*%
D18*
X026028Y043544D02*
X026153Y043419D01*
Y041815D02*
Y043419D01*
X025982Y041644D02*
X026153Y041815D01*
X025287Y042027D02*
X026003Y042744D01*
X026028D01*
X025287Y042022D02*
Y042027D01*
X025242Y041977D02*
X025287Y042022D01*
X024995Y041977D02*
X025242D01*
X02456Y042762D02*
Y043612D01*
X024528Y043644D02*
X02456Y043612D01*
X025128Y043286D02*
Y043525D01*
X024636Y042794D02*
X025128Y043286D01*
X025034Y042669D02*
X025128Y042763D01*
X024653Y042669D02*
X025034D01*
X02456Y042762D02*
X024653Y042669D01*
X02445Y043095D02*
X024503Y043042D01*
Y042469D02*
Y043042D01*
Y042469D02*
X024995Y041977D01*
X024329Y043095D02*
X02445D01*
X024221Y042987D02*
X024329Y043095D01*
X024221Y042559D02*
Y042987D01*
X024418Y04241D02*
X024521Y042307D01*
X024418Y04241D02*
Y043019D01*
X024833Y041869D02*
X025503D01*
X025728Y041644D01*
X024521Y04218D02*
X024833Y041869D01*
X024328D02*
X024553Y041644D01*
X024328Y041869D02*
Y042114D01*
X024521Y042307D01*
X024553Y041644D02*
X025474D01*
X025134Y042339D02*
X025939Y043144D01*
X026028D01*
X025086Y042178D02*
Y042401D01*
X026028Y043344D01*
X025086Y042178D02*
X02521Y042053D01*
X025134Y042256D02*
Y042339D01*
Y042256D02*
X02521Y04218D01*
X025847Y042944D02*
X026028D01*
X02521Y042307D02*
X025847Y042944D01*
X025928Y043644D02*
X026028Y043544D01*
X025728Y043644D02*
X025928D01*
D19*
X026028Y043544D02*
D03*
Y043344D02*
D03*
Y043144D02*
D03*
Y042744D02*
D03*
Y042944D02*
D03*
D20*
Y042544D02*
D03*
D21*
X025128Y043525D02*
D03*
X025728Y041644D02*
D03*
X025982D02*
D03*
D22*
X025128Y042763D02*
D03*
D23*
X025474Y041644D02*
D03*
D24*
X02521Y042307D02*
D03*
X024521D02*
D03*
X024418Y043019D02*
D03*
X024521Y04218D02*
D03*
X024636Y042794D02*
D03*
X024221Y042559D02*
D03*
X02521Y04218D02*
D03*
Y042053D02*
D03*
D25*
X024528Y043644D02*
D03*
D26*
X025728D02*
D03*
M02*
