G04 Layer_Color=8388736*
%FSTAX42Y42*%
%MOMM*%
G71*
G01*
G75*
%ADD31R,1.15X1.00*%
%ADD32R,1.00X1.15*%
%ADD33O,1.30X0.65*%
%ADD34R,1.30X0.65*%
%ADD35R,1.40X0.85*%
%ADD36O,3.25X0.80*%
%ADD37R,3.25X0.80*%
%ADD38O,3.26X0.80*%
%ADD39C,1.50*%
%ADD40R,1.50X1.50*%
%ADD41C,1.70*%
%ADD42R,1.70X1.70*%
%ADD43R,1.70X1.70*%
D31*
X025828Y042529D02*
D03*
Y042709D02*
D03*
D32*
X024263Y043719D02*
D03*
X024443D02*
D03*
X024418Y043169D02*
D03*
X024238D02*
D03*
X024493Y041669D02*
D03*
X024313D02*
D03*
X024493Y041844D02*
D03*
X024313D02*
D03*
X024888Y041669D02*
D03*
X025068D02*
D03*
X024888Y041844D02*
D03*
X025068D02*
D03*
D33*
X024458Y043539D02*
D03*
Y043349D02*
D03*
X024196Y043444D02*
D03*
Y043349D02*
D03*
D34*
Y043539D02*
D03*
D35*
X024221Y042699D02*
D03*
Y042889D02*
D03*
X024486Y042794D02*
D03*
D36*
X02496Y04218D02*
D03*
Y042307D02*
D03*
X024296Y042053D02*
D03*
Y04218D02*
D03*
Y042307D02*
D03*
X02496Y042053D02*
D03*
D37*
X024296Y042434D02*
D03*
D38*
X02496D02*
D03*
D39*
X026028Y043544D02*
D03*
Y043344D02*
D03*
Y043144D02*
D03*
Y042744D02*
D03*
Y042944D02*
D03*
D40*
Y042544D02*
D03*
D41*
X025128Y043525D02*
D03*
X025728Y041644D02*
D03*
X025982D02*
D03*
D42*
X025128Y042763D02*
D03*
D43*
X025474Y041644D02*
D03*
M02*
