M48
;Layer_Color=9474304
;FILE_FORMAT=2:4
INCH,LZ
;TYPE=PLATED
T1F00S00C0.0200
T2F00S00C0.0315
T3F00S00C0.0354
T4F00S00C0.0394
T5F00S00C0.0472
T6F00S00C0.0866
%
T01
X024052Y01338
X027024Y014266
X027674Y014306
X028304Y014325
X028619Y015231
X027398Y014758
X029761Y013341
X030391Y013105
X030981Y013695
X03169Y01279
X03295Y01275
X032713Y014286
X033776Y014443
X033225Y015034
X035233
Y012868
X035745Y012632
X035154Y015703
X035312Y016254
X036257Y015861
X036414Y017554
X034043Y0259
X033943Y0267
X031843Y0276
X031453Y0239
X036043Y0297
X0262
X0241Y0267
X0242Y0259
X022Y0276
X02161Y0239
X022241Y018302
X024406Y018183
X024761Y016057
X028028Y015821
X029505Y016668
T02
X02176Y013435
Y014435
Y015239
X02176Y016239
T03
X022961Y014518
X023961
Y015518
X022961
X026698Y01153
X027698
X028698
X029698
X030698
X03217Y018144
X03317
X03417
X03458Y021159
X03558
X037019Y020902
Y021902
Y022902
Y023902
Y024902
Y025902
Y026902
Y027902
Y028902
Y029902
X034308Y029693
X033308
X032971Y023382
X031971
Y022382
X032971
X033971
Y023382
X034971
Y022382
X03358Y021159
X03258
X03158
X030143Y020902
Y021902
Y022902
Y023902
Y024902
Y025902
Y026902
Y027902
Y028902
Y029902
X027176Y029902
Y028902
Y027902
Y026902
Y025902
Y024902
Y023902
Y022902
Y021902
Y020902
X025737Y021159
X024737
X023737
X022737
X021737
X022129Y022382
Y023382
X023129
Y022382
X024129
Y023382
X025129
Y022382
X02517Y018144
X02617
X02717
X02817
X02917
X03017
X03117
X023961Y017518
Y016518
X022961
Y017518
X0203Y020902
Y021902
Y022902
Y023902
Y024902
Y025902
Y026902
Y027902
Y028902
Y029902
X023465Y029693
X024465
T04
X031572Y014256
Y016206
T05
X020929Y013935
Y015739
T06
X020923Y012534
X020923Y01714
M30
