G04 Layer_Color=8421504*
%FSTAX42Y42*%
%MOMM*%
G71*
G01*
G75*
%ADD11R,0.80X0.95*%
%ADD12R,0.80X0.80*%
%ADD13R,0.95X0.80*%
%ADD14O,1.20X0.55*%
%ADD15R,1.20X0.55*%
%ADD16R,1.40X2.10*%
%ADD17R,2.30X2.00*%
%ADD18R,1.60X1.60*%
%ADD19R,2.55X0.95*%
%ADD20R,2.55X3.30*%
%ADD21R,1.50X0.90*%
G04:AMPARAMS|DCode=22|XSize=1.5mm|YSize=0.9mm|CornerRadius=0mm|HoleSize=0mm|Usage=FLASHONLY|Rotation=30.000|XOffset=0mm|YOffset=0mm|HoleType=Round|Shape=Rectangle|*
%AMROTATEDRECTD22*
4,1,4,-0.42,-0.76,-0.87,0.01,0.42,0.76,0.87,-0.01,-0.42,-0.76,0.0*
%
%ADD22ROTATEDRECTD22*%

G04:AMPARAMS|DCode=23|XSize=1.5mm|YSize=0.9mm|CornerRadius=0mm|HoleSize=0mm|Usage=FLASHONLY|Rotation=60.000|XOffset=0mm|YOffset=0mm|HoleType=Round|Shape=Rectangle|*
%AMROTATEDRECTD23*
4,1,4,0.01,-0.87,-0.76,-0.42,-0.01,0.87,0.76,0.42,0.01,-0.87,0.0*
%
%ADD23ROTATEDRECTD23*%

%ADD24R,0.90X1.50*%
G04:AMPARAMS|DCode=25|XSize=1.5mm|YSize=0.9mm|CornerRadius=0mm|HoleSize=0mm|Usage=FLASHONLY|Rotation=120.000|XOffset=0mm|YOffset=0mm|HoleType=Round|Shape=Rectangle|*
%AMROTATEDRECTD25*
4,1,4,0.76,-0.42,-0.01,-0.87,-0.76,0.42,0.01,0.87,0.76,-0.42,0.0*
%
%ADD25ROTATEDRECTD25*%

G04:AMPARAMS|DCode=26|XSize=1.5mm|YSize=0.9mm|CornerRadius=0mm|HoleSize=0mm|Usage=FLASHONLY|Rotation=150.000|XOffset=0mm|YOffset=0mm|HoleType=Round|Shape=Rectangle|*
%AMROTATEDRECTD26*
4,1,4,0.87,0.01,0.42,-0.76,-0.87,-0.01,-0.42,0.76,0.87,0.01,0.0*
%
%ADD26ROTATEDRECTD26*%

%ADD27O,1.50X0.90*%
%ADD28R,2.00X3.30*%
D11*
X025968Y040544D02*
D03*
X025788D02*
D03*
X025738Y040344D02*
D03*
X025918D02*
D03*
X025788Y040744D02*
D03*
X025968D02*
D03*
X023718Y043544D02*
D03*
X023538D02*
D03*
X025768Y041944D02*
D03*
X025588D02*
D03*
X024788Y039494D02*
D03*
X024968D02*
D03*
X023188D02*
D03*
X023368D02*
D03*
X026438Y040744D02*
D03*
X026618D02*
D03*
X026538Y042094D02*
D03*
X026718D02*
D03*
X025738Y043294D02*
D03*
X025918D02*
D03*
X021568Y042094D02*
D03*
X021388D02*
D03*
X021618Y040644D02*
D03*
X021438D02*
D03*
X022218Y039544D02*
D03*
X022038D02*
D03*
D12*
X024153Y039844D02*
D03*
X024303D02*
D03*
D13*
X022828Y041804D02*
D03*
Y041984D02*
D03*
X024978Y041184D02*
D03*
Y041004D02*
D03*
X026093Y041804D02*
D03*
Y041984D02*
D03*
X025328Y042054D02*
D03*
Y042234D02*
D03*
X021978Y041904D02*
D03*
Y042084D02*
D03*
X023378Y038984D02*
D03*
Y038804D02*
D03*
X024678Y038968D02*
D03*
Y038788D02*
D03*
X025878Y039584D02*
D03*
Y039404D02*
D03*
X024678Y043854D02*
D03*
Y044034D02*
D03*
X023378Y043854D02*
D03*
Y044034D02*
D03*
X022178Y043204D02*
D03*
Y043384D02*
D03*
D14*
X025546Y042149D02*
D03*
Y042244D02*
D03*
X025808Y042149D02*
D03*
Y042244D02*
D03*
Y042339D02*
D03*
D15*
X025546Y042339D02*
D03*
D16*
X022178Y041544D02*
D03*
Y042454D02*
D03*
X022628Y041544D02*
D03*
Y042454D02*
D03*
D17*
X023828Y040924D02*
D03*
Y040464D02*
D03*
D18*
X024358Y041144D02*
D03*
X024698D02*
D03*
X024698Y040144D02*
D03*
X024358D02*
D03*
D19*
X024231Y040874D02*
D03*
Y040644D02*
D03*
Y040414D02*
D03*
D20*
X024826Y040644D02*
D03*
D21*
X024273Y039009D02*
D03*
Y038679D02*
D03*
X023783D02*
D03*
Y039009D02*
D03*
X023128Y042644D02*
D03*
X023783Y043879D02*
D03*
Y044209D02*
D03*
X024273D02*
D03*
Y043879D02*
D03*
D22*
X025458Y039409D02*
D03*
X025623Y039123D02*
D03*
X025199Y038878D02*
D03*
X025034Y039164D02*
D03*
X022599Y043478D02*
D03*
X022434Y043764D02*
D03*
X022858Y044009D02*
D03*
X023023Y043723D02*
D03*
D23*
X026208Y040338D02*
D03*
X026494Y040173D02*
D03*
X026249Y039749D02*
D03*
X025963Y039914D02*
D03*
X021749Y042449D02*
D03*
X021463Y042614D02*
D03*
X021708Y043038D02*
D03*
X021994Y042873D02*
D03*
D24*
X026463Y041689D02*
D03*
X026793D02*
D03*
Y041199D02*
D03*
X026463D02*
D03*
X021593D02*
D03*
X021263D02*
D03*
Y041689D02*
D03*
X021593D02*
D03*
D25*
X026063Y042873D02*
D03*
X026349Y043038D02*
D03*
X026594Y042614D02*
D03*
X026308Y042449D02*
D03*
X022094Y039914D02*
D03*
X021808Y039749D02*
D03*
X021563Y040173D02*
D03*
X021849Y040338D02*
D03*
D26*
X025034Y043723D02*
D03*
X025199Y044009D02*
D03*
X025623Y043764D02*
D03*
X025458Y043478D02*
D03*
X023023Y039164D02*
D03*
X022858Y038878D02*
D03*
X022434Y039123D02*
D03*
X022599Y039409D02*
D03*
D27*
X023128Y042494D02*
D03*
Y042344D02*
D03*
Y042194D02*
D03*
Y042044D02*
D03*
Y041894D02*
D03*
Y041744D02*
D03*
Y041594D02*
D03*
Y041444D02*
D03*
X024928Y042344D02*
D03*
Y042194D02*
D03*
Y042044D02*
D03*
Y041894D02*
D03*
Y041744D02*
D03*
Y041594D02*
D03*
Y041444D02*
D03*
Y042494D02*
D03*
Y042644D02*
D03*
D28*
X023063Y039994D02*
D03*
X023494D02*
D03*
M02*
