G04 Layer_Color=8388736*
%FSTAX42Y42*%
%MOMM*%
G71*
G01*
G75*
%ADD44R,1.00X1.15*%
%ADD45R,1.00X1.00*%
%ADD46R,1.15X1.00*%
%ADD47O,1.30X0.65*%
%ADD48R,1.30X0.65*%
%ADD49R,1.60X2.30*%
%ADD50R,2.50X2.20*%
%ADD51R,1.80X1.80*%
%ADD52R,2.75X1.15*%
%ADD53R,2.75X3.50*%
%ADD54R,1.70X1.10*%
G04:AMPARAMS|DCode=55|XSize=1.7mm|YSize=1.1mm|CornerRadius=0mm|HoleSize=0mm|Usage=FLASHONLY|Rotation=30.000|XOffset=0mm|YOffset=0mm|HoleType=Round|Shape=Rectangle|*
%AMROTATEDRECTD55*
4,1,4,-0.46,-0.90,-1.01,0.05,0.46,0.90,1.01,-0.05,-0.46,-0.90,0.0*
%
%ADD55ROTATEDRECTD55*%

G04:AMPARAMS|DCode=56|XSize=1.7mm|YSize=1.1mm|CornerRadius=0mm|HoleSize=0mm|Usage=FLASHONLY|Rotation=60.000|XOffset=0mm|YOffset=0mm|HoleType=Round|Shape=Rectangle|*
%AMROTATEDRECTD56*
4,1,4,0.05,-1.01,-0.90,-0.46,-0.05,1.01,0.90,0.46,0.05,-1.01,0.0*
%
%ADD56ROTATEDRECTD56*%

%ADD57R,1.10X1.70*%
G04:AMPARAMS|DCode=58|XSize=1.7mm|YSize=1.1mm|CornerRadius=0mm|HoleSize=0mm|Usage=FLASHONLY|Rotation=120.000|XOffset=0mm|YOffset=0mm|HoleType=Round|Shape=Rectangle|*
%AMROTATEDRECTD58*
4,1,4,0.90,-0.46,-0.05,-1.01,-0.90,0.46,0.05,1.01,0.90,-0.46,0.0*
%
%ADD58ROTATEDRECTD58*%

G04:AMPARAMS|DCode=59|XSize=1.7mm|YSize=1.1mm|CornerRadius=0mm|HoleSize=0mm|Usage=FLASHONLY|Rotation=150.000|XOffset=0mm|YOffset=0mm|HoleType=Round|Shape=Rectangle|*
%AMROTATEDRECTD59*
4,1,4,1.01,0.05,0.46,-0.90,-1.01,-0.05,-0.46,0.90,1.01,0.05,0.0*
%
%ADD59ROTATEDRECTD59*%

%ADD60O,1.70X1.10*%
%ADD61R,2.20X3.50*%
%ADD62C,2.70*%
%ADD63O,1.70X1.20*%
%ADD64C,1.50*%
%ADD65R,1.50X1.50*%
%ADD66C,5.70*%
%ADD67C,5.20*%
%ADD68C,1.70*%
D44*
X025968Y040544D02*
D03*
X025788D02*
D03*
X025738Y040344D02*
D03*
X025918D02*
D03*
X025788Y040744D02*
D03*
X025968D02*
D03*
X023718Y043544D02*
D03*
X023538D02*
D03*
X025768Y041944D02*
D03*
X025588D02*
D03*
X024788Y039494D02*
D03*
X024968D02*
D03*
X023188D02*
D03*
X023368D02*
D03*
X026438Y040744D02*
D03*
X026618D02*
D03*
X026538Y042094D02*
D03*
X026718D02*
D03*
X025738Y043294D02*
D03*
X025918D02*
D03*
X021568Y042094D02*
D03*
X021388D02*
D03*
X021618Y040644D02*
D03*
X021438D02*
D03*
X022218Y039544D02*
D03*
X022038D02*
D03*
D45*
X024153Y039844D02*
D03*
X024303D02*
D03*
D46*
X022828Y041804D02*
D03*
Y041984D02*
D03*
X024978Y041184D02*
D03*
Y041004D02*
D03*
X026093Y041804D02*
D03*
Y041984D02*
D03*
X025328Y042054D02*
D03*
Y042234D02*
D03*
X021978Y041904D02*
D03*
Y042084D02*
D03*
X023378Y038984D02*
D03*
Y038804D02*
D03*
X024678Y038968D02*
D03*
Y038788D02*
D03*
X025878Y039584D02*
D03*
Y039404D02*
D03*
X024678Y043854D02*
D03*
Y044034D02*
D03*
X023378Y043854D02*
D03*
Y044034D02*
D03*
X022178Y043204D02*
D03*
Y043384D02*
D03*
D47*
X025546Y042149D02*
D03*
Y042244D02*
D03*
X025808Y042149D02*
D03*
Y042244D02*
D03*
Y042339D02*
D03*
D48*
X025546Y042339D02*
D03*
D49*
X022178Y041544D02*
D03*
Y042454D02*
D03*
X022628Y041544D02*
D03*
Y042454D02*
D03*
D50*
X023828Y040924D02*
D03*
Y040464D02*
D03*
D51*
X024358Y041144D02*
D03*
X024698D02*
D03*
X024698Y040144D02*
D03*
X024358D02*
D03*
D52*
X024231Y040874D02*
D03*
Y040644D02*
D03*
Y040414D02*
D03*
D53*
X024826Y040644D02*
D03*
D54*
X024273Y039009D02*
D03*
Y038679D02*
D03*
X023783D02*
D03*
Y039009D02*
D03*
X023128Y042644D02*
D03*
X023783Y043879D02*
D03*
Y044209D02*
D03*
X024273D02*
D03*
Y043879D02*
D03*
D55*
X025458Y039409D02*
D03*
X025623Y039123D02*
D03*
X025199Y038878D02*
D03*
X025034Y039164D02*
D03*
X022599Y043478D02*
D03*
X022434Y043764D02*
D03*
X022858Y044009D02*
D03*
X023023Y043723D02*
D03*
D56*
X026208Y040338D02*
D03*
X026494Y040173D02*
D03*
X026249Y039749D02*
D03*
X025963Y039914D02*
D03*
X021749Y042449D02*
D03*
X021463Y042614D02*
D03*
X021708Y043038D02*
D03*
X021994Y042873D02*
D03*
D57*
X026463Y041689D02*
D03*
X026793D02*
D03*
Y041199D02*
D03*
X026463D02*
D03*
X021593D02*
D03*
X021263D02*
D03*
Y041689D02*
D03*
X021593D02*
D03*
D58*
X026063Y042873D02*
D03*
X026349Y043038D02*
D03*
X026594Y042614D02*
D03*
X026308Y042449D02*
D03*
X022094Y039914D02*
D03*
X021808Y039749D02*
D03*
X021563Y040173D02*
D03*
X021849Y040338D02*
D03*
D59*
X025034Y043723D02*
D03*
X025199Y044009D02*
D03*
X025623Y043764D02*
D03*
X025458Y043478D02*
D03*
X023023Y039164D02*
D03*
X022858Y038878D02*
D03*
X022434Y039123D02*
D03*
X022599Y039409D02*
D03*
D60*
X023128Y042494D02*
D03*
Y042344D02*
D03*
Y042194D02*
D03*
Y042044D02*
D03*
Y041894D02*
D03*
Y041744D02*
D03*
Y041594D02*
D03*
Y041444D02*
D03*
X024928Y042344D02*
D03*
Y042194D02*
D03*
Y042044D02*
D03*
Y041894D02*
D03*
Y041744D02*
D03*
Y041594D02*
D03*
Y041444D02*
D03*
Y042494D02*
D03*
Y042644D02*
D03*
D61*
X023063Y039994D02*
D03*
X023494D02*
D03*
D62*
X022578Y040644D02*
D03*
Y041144D02*
D03*
D63*
X025943Y041121D02*
D03*
Y041248D02*
D03*
Y041375D02*
D03*
D64*
X023578Y039494D02*
D03*
X023778D02*
D03*
X023978D02*
D03*
X024378D02*
D03*
X024178D02*
D03*
D65*
X024578D02*
D03*
D66*
X022628Y040044D02*
D03*
Y042844D02*
D03*
X025428D02*
D03*
Y040044D02*
D03*
D67*
Y040694D02*
D03*
D68*
X025578Y041694D02*
D03*
M02*
