G04 Layer_Color=65535*
%FSTAX42Y42*%
%MOMM*%
G71*
G01*
G75*
%ADD29C,0.25*%
%ADD39C,0.25*%
%ADD40C,0.15*%
%ADD41C,0.20*%
%ADD42C,0.10*%
%ADD43C,0.13*%
D29*
X025879Y041476D02*
G03*
X025879Y041019I000076J-000229D01*
G01*
X025591Y042424D02*
G03*
X025591Y042424I-000007J0D01*
G01*
X022578Y041999D02*
G03*
X022578Y041999I-000175J0D01*
G01*
X02569Y041694D02*
G03*
X02569Y041694I-000112J0D01*
G01*
X022203Y041394D02*
X022953D01*
X022203Y040394D02*
Y041394D01*
Y040394D02*
X022953D01*
Y041394D01*
X025728Y040474D02*
Y040614D01*
Y040474D02*
X026028D01*
Y040614D01*
X025728D02*
X026028D01*
X025978Y040274D02*
Y040414D01*
X025678D02*
X025978D01*
X025678Y040274D02*
Y040414D01*
Y040274D02*
X025978D01*
X026028Y040674D02*
Y040814D01*
X025728D02*
X026028D01*
X025728Y040674D02*
Y040814D01*
Y040674D02*
X026028D01*
X022758Y042044D02*
X022898D01*
X022758Y041744D02*
Y042044D01*
Y041744D02*
X022898D01*
Y042044D01*
X023478Y043474D02*
Y043614D01*
Y043474D02*
X023778D01*
Y043614D01*
X023478D02*
X023778D01*
X024908Y040944D02*
X025048D01*
Y041244D01*
X024908D02*
X025048D01*
X024908Y040944D02*
Y041244D01*
X026023Y041744D02*
Y042044D01*
X026163D01*
Y041744D02*
Y042044D01*
X026023Y041744D02*
X026163D01*
X026082Y041032D02*
Y041476D01*
X025879Y041019D02*
X026082D01*
X025892Y041476D02*
X026082D01*
X025258Y041994D02*
Y042294D01*
X025398D01*
Y041994D02*
Y042294D01*
X025258Y041994D02*
X025398D01*
X025528Y041874D02*
X025828D01*
X025528D02*
Y042014D01*
X025828D01*
Y041874D02*
Y042014D01*
X021908Y041844D02*
Y042144D01*
X022048D01*
Y041844D02*
Y042144D01*
X021908Y041844D02*
X022048D01*
X022103Y041699D02*
X022703D01*
Y042299D01*
X022103D02*
X022703D01*
X022103Y041699D02*
Y042299D01*
X023968Y040981D02*
X024028D01*
X023628D02*
X023689D01*
X023968Y040409D02*
X024028D01*
X023628D02*
X023689D01*
X023628D02*
Y040981D01*
X024028Y040409D02*
Y040981D01*
X023628Y040595D02*
X024026D01*
X024248Y041254D02*
X024808D01*
Y041034D02*
Y041254D01*
X024248Y041034D02*
X024808D01*
X024248D02*
Y041254D01*
X024248Y040034D02*
X024808D01*
X024248D02*
Y040254D01*
X024808D01*
Y040034D02*
Y040254D01*
X025028Y039424D02*
Y039564D01*
X024728D02*
X025028D01*
X024728Y039424D02*
Y039564D01*
Y039424D02*
X025028D01*
X023484Y0394D02*
Y039585D01*
Y0394D02*
X024672D01*
Y039585D01*
X023484D02*
X024672D01*
X023428Y039424D02*
Y039564D01*
X023128D02*
X023428D01*
X023128Y039424D02*
Y039564D01*
Y039424D02*
X023428D01*
X023308Y038744D02*
X023448D01*
Y039044D01*
X023308D02*
X023448D01*
X023308Y038744D02*
Y039044D01*
X024608Y038728D02*
X024748D01*
Y039028D01*
X024608D02*
X024748D01*
X024608Y038728D02*
Y039028D01*
X025808Y039344D02*
X025948D01*
Y039644D01*
X025808D02*
X025948D01*
X025808Y039344D02*
Y039644D01*
X026678Y040674D02*
Y040814D01*
X026378D02*
X026678D01*
X026378Y040674D02*
Y040814D01*
Y040674D02*
X026678D01*
X026778Y042024D02*
Y042164D01*
X026478D02*
X026778D01*
X026478Y042024D02*
Y042164D01*
Y042024D02*
X026778D01*
X025978Y043224D02*
Y043364D01*
X025678D02*
X025978D01*
X025678Y043224D02*
Y043364D01*
Y043224D02*
X025978D01*
X024608Y044094D02*
X024748D01*
X024608Y043794D02*
Y044094D01*
Y043794D02*
X024748D01*
Y044094D01*
X023308D02*
X023448D01*
X023308Y043794D02*
Y044094D01*
Y043794D02*
X023448D01*
Y044094D01*
X022108Y043444D02*
X022248D01*
X022108Y043144D02*
Y043444D01*
Y043144D02*
X022248D01*
Y043444D01*
X021328Y042024D02*
Y042164D01*
Y042024D02*
X021628D01*
Y042164D01*
X021328D02*
X021628D01*
X021378Y040574D02*
Y040714D01*
Y040574D02*
X021678D01*
Y040714D01*
X021378D02*
X021678D01*
X021978Y039474D02*
Y039614D01*
Y039474D02*
X022278D01*
Y039614D01*
X021978D02*
X022278D01*
X022953Y040894D02*
X023578D01*
X022953Y041294D02*
X023578D01*
Y040494D02*
Y041294D01*
X022953Y040494D02*
X023578D01*
X025149Y041207D02*
X025191Y04126D01*
X02517Y041234D01*
X025249Y04117D01*
X025244Y041326D02*
X025223Y0413D01*
X025226Y041276D01*
X025278Y041234D01*
X025302Y041236D01*
X025323Y041263D01*
X025321Y041287D01*
X025268Y041329D01*
X025244Y041326D01*
X025276Y041366D02*
X025342Y041313D01*
X025366Y041316D01*
X025387Y041342D01*
X025384Y041366D01*
X025318Y041419D01*
X025395Y041487D02*
X025371Y041485D01*
X02535Y041458D01*
X025353Y041435D01*
X025405Y041392D01*
X025429Y041395D01*
X02545Y041421D01*
X025448Y041445D01*
X025403Y041524D02*
X025482Y041461D01*
X025442Y041493D01*
X025485Y041546D01*
X025445Y041577D01*
X025524Y041514D01*
X02323Y040696D02*
X023128D01*
Y04062D01*
X023179Y040645D01*
X023204D01*
X02323Y04062D01*
Y040569D01*
X023204Y040544D01*
X023154D01*
X023128Y040569D01*
X023281Y040696D02*
Y040595D01*
X023331Y040544D01*
X023382Y040595D01*
Y040696D01*
X02318Y041171D02*
X023154Y041196D01*
X023104D01*
X023078Y041171D01*
Y041069D01*
X023104Y041044D01*
X023154D01*
X02318Y041069D01*
Y04112D01*
X023129D01*
X023231Y041044D02*
Y041196D01*
X023332Y041044D01*
Y041196D01*
X023383D02*
Y041044D01*
X023459D01*
X023485Y041069D01*
Y041171D01*
X023459Y041196D01*
X023383D01*
D39*
X024468Y040904D02*
G03*
X024468Y040904I-000012J0D01*
G01*
D40*
X024243Y039827D02*
Y039863D01*
X024093Y039784D02*
Y039904D01*
Y039784D02*
X024363D01*
Y039904D01*
X024093D02*
X024363D01*
D41*
X025729Y042089D02*
Y042399D01*
X025625Y042089D02*
Y042399D01*
Y042089D02*
X025729D01*
X025625Y042399D02*
X025729D01*
X024398Y040309D02*
Y040979D01*
X024658Y040309D02*
Y040979D01*
X024398D02*
X024658D01*
X024398Y040309D02*
X024658D01*
X025026Y041341D02*
Y043369D01*
X023031Y041341D02*
X025026D01*
X023031D02*
Y043369D01*
X025026D01*
D42*
X022943Y040179D02*
X023614D01*
X022943Y039808D02*
X023614D01*
X022943D02*
Y040179D01*
X023614Y039808D02*
Y040179D01*
D43*
X02606Y040529D02*
Y040606D01*
X026098D01*
X026111Y040593D01*
Y040567D01*
X026098Y040555D01*
X02606D01*
X026086D02*
X026111Y040529D01*
X026136Y040542D02*
X026149Y040529D01*
X026175D01*
X026187Y040542D01*
Y040593D01*
X026175Y040606D01*
X026149D01*
X026136Y040593D01*
Y04058D01*
X026149Y040567D01*
X026187D01*
X025527Y040326D02*
Y040402D01*
X025565D01*
X025578Y04039D01*
Y040364D01*
X025565Y040352D01*
X025527D01*
X025552D02*
X025578Y040326D01*
X025603Y04039D02*
X025616Y040402D01*
X025641D01*
X025654Y04039D01*
Y040377D01*
X025641Y040364D01*
X025654Y040352D01*
Y040339D01*
X025641Y040326D01*
X025616D01*
X025603Y040339D01*
Y040352D01*
X025616Y040364D01*
X025603Y040377D01*
Y04039D01*
X025616Y040364D02*
X025641D01*
X02606Y040707D02*
Y040783D01*
X026098D01*
X026111Y040771D01*
Y040745D01*
X026098Y040733D01*
X02606D01*
X026086D02*
X026111Y040707D01*
X026136D02*
X026162D01*
X026149D01*
Y040783D01*
X026136Y040771D01*
X0262D02*
X026213Y040783D01*
X026238D01*
X026251Y040771D01*
Y04072D01*
X026238Y040707D01*
X026213D01*
X0262Y04072D01*
Y040771D01*
X023878Y03987D02*
Y039794D01*
X023929D01*
X024005Y039857D02*
X023993Y03987D01*
X023967D01*
X023954Y039857D01*
Y039845D01*
X023967Y039832D01*
X023993D01*
X024005Y039819D01*
Y039806D01*
X023993Y039794D01*
X023967D01*
X023954Y039806D01*
X024031Y039794D02*
X024056D01*
X024043D01*
Y03987D01*
X024031Y039857D01*
X022778Y042094D02*
Y04217D01*
X022816D01*
X022829Y042157D01*
Y042132D01*
X022816Y042119D01*
X022778D01*
X022804D02*
X022829Y042094D01*
X022854Y042157D02*
X022867Y04217D01*
X022893D01*
X022905Y042157D01*
Y042145D01*
X022893Y042132D01*
X02288D01*
X022893D01*
X022905Y042119D01*
Y042106D01*
X022893Y042094D01*
X022867D01*
X022854Y042106D01*
X023878Y043494D02*
Y04357D01*
X023916D01*
X023929Y043557D01*
Y043532D01*
X023916Y043519D01*
X023878D01*
X023904D02*
X023929Y043494D01*
X023954D02*
X02398D01*
X023967D01*
Y04357D01*
X023954Y043557D01*
X025129Y040957D02*
X025116Y04097D01*
X025091D01*
X025078Y040957D01*
Y040906D01*
X025091Y040894D01*
X025116D01*
X025129Y040906D01*
X025154Y040894D02*
X02518D01*
X025167D01*
Y04097D01*
X025154Y040957D01*
X026028Y042094D02*
Y04217D01*
X026066D01*
X026079Y042157D01*
Y042132D01*
X026066Y042119D01*
X026028D01*
X026054D02*
X026079Y042094D01*
X026104Y04217D02*
X026155D01*
Y042157D01*
X026104Y042106D01*
Y042094D01*
X026136Y041291D02*
X026187D01*
X026162D01*
Y041215D01*
X026263Y041279D02*
X026251Y041291D01*
X026225D01*
X026213Y041279D01*
Y041266D01*
X026225Y041253D01*
X026251D01*
X026263Y041241D01*
Y041228D01*
X026251Y041215D01*
X026225D01*
X026213Y041228D01*
X025178Y041994D02*
X025102D01*
Y042032D01*
X025115Y042045D01*
X02514D01*
X025153Y042032D01*
Y041994D01*
Y042019D02*
X025178Y042045D01*
X025102Y042121D02*
X025115Y042095D01*
X02514Y04207D01*
X025166D01*
X025178Y042083D01*
Y042108D01*
X025166Y042121D01*
X025153D01*
X02514Y042108D01*
Y04207D01*
X025628Y04252D02*
Y042456D01*
X025641Y042444D01*
X025666D01*
X025679Y042456D01*
Y04252D01*
X025755Y042444D02*
X025704D01*
X025755Y042495D01*
Y042507D01*
X025743Y04252D01*
X025717D01*
X025704Y042507D01*
X025329Y041907D02*
X025316Y04192D01*
X025291D01*
X025278Y041907D01*
Y041856D01*
X025291Y041844D01*
X025316D01*
X025329Y041856D01*
X025354Y041844D02*
X02538D01*
X025367D01*
Y04192D01*
X025354Y041907D01*
X025469Y04192D02*
X025418D01*
Y041882D01*
X025443Y041895D01*
X025456D01*
X025469Y041882D01*
Y041856D01*
X025456Y041844D01*
X025431D01*
X025418Y041856D01*
X021907Y04222D02*
Y042296D01*
X021946D01*
X021958Y042283D01*
Y042258D01*
X021946Y042245D01*
X021907D01*
X021933D02*
X021958Y04222D01*
X022034Y042296D02*
X021984D01*
Y042258D01*
X022009Y042271D01*
X022022D01*
X022034Y042258D01*
Y042233D01*
X022022Y04222D01*
X021996D01*
X021984Y042233D01*
X021929Y041557D02*
X021916Y04157D01*
X021891D01*
X021878Y041557D01*
Y041545D01*
X021891Y041532D01*
X021916D01*
X021929Y041519D01*
Y041506D01*
X021916Y041494D01*
X021891D01*
X021878Y041506D01*
X021954Y04157D02*
Y041494D01*
X02198Y041519D01*
X022005Y041494D01*
Y04157D01*
X022031Y041494D02*
X022056D01*
X022043D01*
Y04157D01*
X022031Y041557D01*
X021978Y041244D02*
Y04132D01*
X022016D01*
X022029Y041307D01*
Y041282D01*
X022016Y041269D01*
X021978D01*
X022105Y041244D02*
X022054D01*
X022105Y041295D01*
Y041307D01*
X022093Y04132D01*
X022067D01*
X022054Y041307D01*
X023828Y04027D02*
Y040194D01*
X023866D01*
X023879Y040206D01*
Y040257D01*
X023866Y04027D01*
X023828D01*
X023904Y040194D02*
X02393D01*
X023917D01*
Y04027D01*
X023904Y040257D01*
X023968D02*
X023981Y04027D01*
X024006D01*
X024019Y040257D01*
Y040245D01*
X024006Y040232D01*
X023993D01*
X024006D01*
X024019Y040219D01*
Y040206D01*
X024006Y040194D01*
X023981D01*
X023968Y040206D01*
X024079Y041257D02*
X024066Y04127D01*
X024041D01*
X024028Y041257D01*
Y041206D01*
X024041Y041194D01*
X024066D01*
X024079Y041206D01*
X024104Y041194D02*
X02413D01*
X024117D01*
Y04127D01*
X024104Y041257D01*
X024168D02*
X024181Y04127D01*
X024206D01*
X024219Y041257D01*
Y041245D01*
X024206Y041232D01*
X024219Y041219D01*
Y041206D01*
X024206Y041194D01*
X024181D01*
X024168Y041206D01*
Y041219D01*
X024181Y041232D01*
X024168Y041245D01*
Y041257D01*
X024181Y041232D02*
X024206D01*
X024978Y04057D02*
Y040506D01*
X024991Y040494D01*
X025016D01*
X025029Y040506D01*
Y04057D01*
X025054D02*
X025105D01*
Y040557D01*
X025054Y040506D01*
Y040494D01*
X024929Y040157D02*
X024916Y04017D01*
X024891D01*
X024878Y040157D01*
Y040106D01*
X024891Y040094D01*
X024916D01*
X024929Y040106D01*
X025005Y04017D02*
X02498Y040157D01*
X024954Y040132D01*
Y040106D01*
X024967Y040094D01*
X024993D01*
X025005Y040106D01*
Y040119D01*
X024993Y040132D01*
X024954D01*
X024928Y039594D02*
Y03967D01*
X024966D01*
X024979Y039657D01*
Y039632D01*
X024966Y039619D01*
X024928D01*
X024954D02*
X024979Y039594D01*
X025055D02*
X025004D01*
X025055Y039645D01*
Y039657D01*
X025043Y03967D01*
X025017D01*
X025004Y039657D01*
X024629Y03937D02*
X024604D01*
X024616D01*
Y039306D01*
X024604Y039294D01*
X024591D01*
X024578Y039306D01*
X024654Y039294D02*
X02468D01*
X024667D01*
Y03937D01*
X024654Y039357D01*
X024629Y039636D02*
X024595D01*
X024612Y039619D02*
Y039653D01*
X024426Y039636D02*
X024392D01*
X024223Y039611D02*
X024189D01*
X024206D01*
Y039661D01*
X024172Y039628D02*
X024138Y039661D01*
X024155Y039644D01*
X024138Y039628D01*
X024172Y039661D01*
X02402D02*
Y039611D01*
X023994D01*
X023986Y039619D01*
Y039636D01*
X023994Y039644D01*
X02402D01*
X024003D02*
X023986Y039661D01*
X023969Y039628D02*
X023935Y039661D01*
X023952Y039644D01*
X023935Y039628D01*
X023969Y039661D01*
X023867D02*
Y039611D01*
X023842D01*
X023833Y039619D01*
Y039636D01*
X023842Y039644D01*
X023867D01*
X02385D02*
X023833Y039661D01*
X023791D02*
X023808D01*
X023817Y039653D01*
Y039636D01*
X023808Y039628D01*
X023791D01*
X023783Y039636D01*
Y039644D01*
X023817D01*
X023766Y039661D02*
X02374D01*
X023732Y039653D01*
X02374Y039644D01*
X023757D01*
X023766Y039636D01*
X023757Y039628D01*
X023732D01*
X023664Y039611D02*
X023647D01*
X023656D01*
Y039661D01*
X023664D01*
X023647D01*
X023596Y039611D02*
X023613D01*
X023622Y039619D01*
Y039653D01*
X023613Y039661D01*
X023596D01*
X023588Y039653D01*
Y039619D01*
X023596Y039611D01*
X023571Y039619D02*
X023563Y039611D01*
X023546D01*
X023537Y039619D01*
Y039653D01*
X023546Y039661D01*
X023563D01*
X023571Y039653D01*
Y039619D01*
X022978Y039444D02*
Y03952D01*
X023016D01*
X023029Y039507D01*
Y039482D01*
X023016Y039469D01*
X022978D01*
X023004D02*
X023029Y039444D01*
X023093D02*
Y03952D01*
X023054Y039482D01*
X023105D01*
X023379Y039157D02*
X023366Y03917D01*
X023341D01*
X023328Y039157D01*
Y039106D01*
X023341Y039094D01*
X023366D01*
X023379Y039106D01*
X023404Y039094D02*
X02343D01*
X023417D01*
Y03917D01*
X023404Y039157D01*
X023468D02*
X023481Y03917D01*
X023506D01*
X023519Y039157D01*
Y039106D01*
X023506Y039094D01*
X023481D01*
X023468Y039106D01*
Y039157D01*
X023978Y03922D02*
Y039144D01*
X024016D01*
X024029Y039156D01*
Y039207D01*
X024016Y03922D01*
X023978D01*
X024105D02*
X02408Y039207D01*
X024054Y039182D01*
Y039156D01*
X024067Y039144D01*
X024093D01*
X024105Y039156D01*
Y039169D01*
X024093Y039182D01*
X024054D01*
X024679Y039157D02*
X024666Y03917D01*
X024641D01*
X024628Y039157D01*
Y039106D01*
X024641Y039094D01*
X024666D01*
X024679Y039106D01*
X024704D02*
X024717Y039094D01*
X024743D01*
X024755Y039106D01*
Y039157D01*
X024743Y03917D01*
X024717D01*
X024704Y039157D01*
Y039145D01*
X024717Y039132D01*
X024755D01*
X025578Y03937D02*
Y039294D01*
X025616D01*
X025629Y039306D01*
Y039357D01*
X025616Y03937D01*
X025578D01*
X025705D02*
X025654D01*
Y039332D01*
X02568Y039345D01*
X025693D01*
X025705Y039332D01*
Y039306D01*
X025693Y039294D01*
X025667D01*
X025654Y039306D01*
X026029Y039557D02*
X026016Y03957D01*
X025991D01*
X025978Y039557D01*
Y039506D01*
X025991Y039494D01*
X026016D01*
X026029Y039506D01*
X026054Y039557D02*
X026067Y03957D01*
X026093D01*
X026105Y039557D01*
Y039545D01*
X026093Y039532D01*
X026105Y039519D01*
Y039506D01*
X026093Y039494D01*
X026067D01*
X026054Y039506D01*
Y039519D01*
X026067Y039532D01*
X026054Y039545D01*
Y039557D01*
X026067Y039532D02*
X026093D01*
X026328Y04042D02*
Y040344D01*
X026366D01*
X026379Y040356D01*
Y040407D01*
X026366Y04042D01*
X026328D01*
X026443Y040344D02*
Y04042D01*
X026404Y040382D01*
X026455D01*
X026429Y040907D02*
X026416Y04092D01*
X026391D01*
X026378Y040907D01*
Y040856D01*
X026391Y040844D01*
X026416D01*
X026429Y040856D01*
X026454Y040844D02*
X02648D01*
X026467D01*
Y04092D01*
X026454Y040907D01*
X026518Y040844D02*
X026543D01*
X026531D01*
Y04092D01*
X026518Y040907D01*
X026578Y04182D02*
Y041744D01*
X026616D01*
X026629Y041756D01*
Y041807D01*
X026616Y04182D01*
X026578D01*
X026654Y041807D02*
X026667Y04182D01*
X026693D01*
X026705Y041807D01*
Y041795D01*
X026693Y041782D01*
X02668D01*
X026693D01*
X026705Y041769D01*
Y041756D01*
X026693Y041744D01*
X026667D01*
X026654Y041756D01*
X026579Y042257D02*
X026566Y04227D01*
X026541D01*
X026528Y042257D01*
Y042206D01*
X026541Y042194D01*
X026566D01*
X026579Y042206D01*
X026604Y042194D02*
X02663D01*
X026617D01*
Y04227D01*
X026604Y042257D01*
X026706Y042194D02*
Y04227D01*
X026668Y042232D01*
X026719D01*
X025779Y043457D02*
X025766Y04347D01*
X025741D01*
X025728Y043457D01*
Y043406D01*
X025741Y043394D01*
X025766D01*
X025779Y043406D01*
X025804Y043394D02*
X02583D01*
X025817D01*
Y04347D01*
X025804Y043457D01*
X025868D02*
X025881Y04347D01*
X025906D01*
X025919Y043457D01*
Y043445D01*
X025906Y043432D01*
X025893D01*
X025906D01*
X025919Y043419D01*
Y043406D01*
X025906Y043394D01*
X025881D01*
X025868Y043406D01*
X026078Y04312D02*
Y043044D01*
X026116D01*
X026129Y043056D01*
Y043107D01*
X026116Y04312D01*
X026078D01*
X026205Y043044D02*
X026154D01*
X026205Y043095D01*
Y043107D01*
X026193Y04312D01*
X026167D01*
X026154Y043107D01*
X025178Y04347D02*
Y043394D01*
X025216D01*
X025229Y043406D01*
Y043457D01*
X025216Y04347D01*
X025178D01*
X025254Y043394D02*
X02528D01*
X025267D01*
Y04347D01*
X025254Y043457D01*
X024629Y044207D02*
X024616Y04422D01*
X024591D01*
X024578Y044207D01*
Y044156D01*
X024591Y044144D01*
X024616D01*
X024629Y044156D01*
X024654Y044144D02*
X02468D01*
X024667D01*
Y04422D01*
X024654Y044207D01*
X024769Y044144D02*
X024718D01*
X024769Y044195D01*
Y044207D01*
X024756Y04422D01*
X024731D01*
X024718Y044207D01*
X023128Y04347D02*
Y043406D01*
X023141Y043394D01*
X023166D01*
X023179Y043406D01*
Y04347D01*
X023204Y043394D02*
X02323D01*
X023217D01*
Y04347D01*
X023204Y043457D01*
X023928Y04377D02*
Y043694D01*
X023966D01*
X023979Y043706D01*
Y043757D01*
X023966Y04377D01*
X023928D01*
X024004Y043694D02*
X02403D01*
X024017D01*
Y04377D01*
X024004Y043757D01*
X024119Y043694D02*
X024068D01*
X024119Y043745D01*
Y043757D01*
X024106Y04377D01*
X024081D01*
X024068Y043757D01*
X023379Y044207D02*
X023366Y04422D01*
X023341D01*
X023328Y044207D01*
Y044156D01*
X023341Y044144D01*
X023366D01*
X023379Y044156D01*
X023455Y04422D02*
X023404D01*
Y044182D01*
X02343Y044195D01*
X023443D01*
X023455Y044182D01*
Y044156D01*
X023443Y044144D01*
X023417D01*
X023404Y044156D01*
X022978Y04397D02*
Y043894D01*
X023016D01*
X023029Y043906D01*
Y043957D01*
X023016Y04397D01*
X022978D01*
X023054Y043894D02*
X02308D01*
X023067D01*
Y04397D01*
X023054Y043957D01*
X023118Y043894D02*
X023143D01*
X023131D01*
Y04397D01*
X023118Y043957D01*
X022179Y043557D02*
X022166Y04357D01*
X022141D01*
X022128Y043557D01*
Y043506D01*
X022141Y043494D01*
X022166D01*
X022179Y043506D01*
X022243Y043494D02*
Y04357D01*
X022204Y043532D01*
X022255D01*
X021828Y04307D02*
Y042994D01*
X021866D01*
X021879Y043006D01*
Y043057D01*
X021866Y04307D01*
X021828D01*
X021904Y042994D02*
X02193D01*
X021917D01*
Y04307D01*
X021904Y043057D01*
X021968D02*
X021981Y04307D01*
X022006D01*
X022019Y043057D01*
Y043006D01*
X022006Y042994D01*
X021981D01*
X021968Y043006D01*
Y043057D01*
X021379Y042257D02*
X021366Y04227D01*
X021341D01*
X021328Y042257D01*
Y042206D01*
X021341Y042194D01*
X021366D01*
X021379Y042206D01*
X021404Y042257D02*
X021417Y04227D01*
X021443D01*
X021455Y042257D01*
Y042245D01*
X021443Y042232D01*
X02143D01*
X021443D01*
X021455Y042219D01*
Y042206D01*
X021443Y042194D01*
X021417D01*
X021404Y042206D01*
X021378Y04182D02*
Y041744D01*
X021416D01*
X021429Y041756D01*
Y041807D01*
X021416Y04182D01*
X021378D01*
X021454Y041756D02*
X021467Y041744D01*
X021493D01*
X021505Y041756D01*
Y041807D01*
X021493Y04182D01*
X021467D01*
X021454Y041807D01*
Y041795D01*
X021467Y041782D01*
X021505D01*
X021429Y040807D02*
X021416Y04082D01*
X021391D01*
X021378Y040807D01*
Y040756D01*
X021391Y040744D01*
X021416D01*
X021429Y040756D01*
X021454Y04082D02*
X021505D01*
Y040807D01*
X021454Y040756D01*
Y040744D01*
X021578Y04037D02*
Y040294D01*
X021616D01*
X021629Y040306D01*
Y040357D01*
X021616Y04037D01*
X021578D01*
X021654Y040357D02*
X021667Y04037D01*
X021693D01*
X021705Y040357D01*
Y040345D01*
X021693Y040332D01*
X021705Y040319D01*
Y040306D01*
X021693Y040294D01*
X021667D01*
X021654Y040306D01*
Y040319D01*
X021667Y040332D01*
X021654Y040345D01*
Y040357D01*
X021667Y040332D02*
X021693D01*
X022979Y03977D02*
X022928D01*
Y039732D01*
X022954D01*
X022928D01*
Y039694D01*
X023004D02*
X02303D01*
X023017D01*
Y03977D01*
X023004Y039757D01*
X023106Y039694D02*
Y03977D01*
X023068Y039732D01*
X023119D01*
X022179Y039707D02*
X022166Y03972D01*
X022141D01*
X022128Y039707D01*
Y039656D01*
X022141Y039644D01*
X022166D01*
X022179Y039656D01*
X022255Y039644D02*
X022204D01*
X022255Y039695D01*
Y039707D01*
X022243Y03972D01*
X022217D01*
X022204Y039707D01*
X022378Y03937D02*
Y039294D01*
X022416D01*
X022429Y039306D01*
Y039357D01*
X022416Y03937D01*
X022378D01*
X022454D02*
X022505D01*
Y039357D01*
X022454Y039306D01*
Y039294D01*
M02*
