G04 Layer_Color=16711935*
%FSTAX42Y42*%
%MOMM*%
G71*
G01*
G75*
%ADD29C,0.25*%
D29*
X027028Y041444D02*
G03*
X027028Y041496I-003J0D01*
G01*
D02*
G03*
X027026Y041548I-003J-000052D01*
G01*
D02*
G03*
X027024Y041601I-002998J-000105D01*
G01*
D02*
G03*
X027021Y041653I-002996J-000157D01*
G01*
D02*
G03*
X027017Y041705I-002993J-000209D01*
G01*
D02*
G03*
X027012Y041757I-002989J-000261D01*
G01*
D02*
G03*
X027006Y041809I-002984J-000314D01*
G01*
D02*
G03*
X026999Y041861I-002978J-000366D01*
G01*
D02*
G03*
X026991Y041913I-002971J-000418D01*
G01*
D02*
G03*
X026983Y041965I-002963J-000469D01*
G01*
D02*
G03*
X026973Y042016I-002954J-000521D01*
G01*
D02*
G03*
X026963Y042067I-002945J-000572D01*
G01*
D02*
G03*
X026951Y042119I-002934J-000624D01*
G01*
D02*
G03*
X026939Y04217I-002923J-000675D01*
G01*
D02*
G03*
X026926Y04222I-002911J-000726D01*
G01*
D02*
G03*
X026912Y042271I-002898J-000776D01*
G01*
D02*
G03*
X026897Y042321I-002884J-000827D01*
G01*
D02*
G03*
X026881Y042371I-002869J-000877D01*
G01*
D02*
G03*
X026865Y04242I-002853J-000927D01*
G01*
D02*
G03*
X026847Y04247I-002837J-000977D01*
G01*
D02*
G03*
X026829Y042519I-002819J-001026D01*
G01*
D02*
G03*
X02681Y042568I-002801J-001075D01*
G01*
D02*
G03*
X02679Y042616I-002782J-001124D01*
G01*
D02*
G03*
X026769Y042664I-002762J-001172D01*
G01*
D02*
G03*
X026747Y042712I-002741J-00122D01*
G01*
D02*
G03*
X026725Y042759I-002719J-001268D01*
G01*
D02*
G03*
X026701Y042806I-002696J-001315D01*
G01*
D02*
G03*
X026677Y042852I-002673J-001362D01*
G01*
D02*
G03*
X026652Y042898I-002649J-001408D01*
G01*
D02*
G03*
X026626Y042944I-002624J-001454D01*
G01*
D02*
G03*
X0266Y042989I-002598J-0015D01*
G01*
D02*
G03*
X026572Y043034I-002572J-001545D01*
G01*
D02*
G03*
X026544Y043078I-002544J-00159D01*
G01*
D02*
G03*
X026515Y043121I-002516J-001634D01*
G01*
D02*
G03*
X026486Y043164I-002487J-001678D01*
G01*
D02*
G03*
X026455Y043207I-002457J-001721D01*
G01*
D02*
G03*
X026424Y043249I-002427J-001763D01*
G01*
D02*
G03*
X026392Y043291I-002396J-001805D01*
G01*
D02*
G03*
X02636Y043332I-002364J-001847D01*
G01*
D02*
G03*
X026326Y043372I-002331J-001888D01*
G01*
D02*
G03*
X026292Y043412I-002298J-001928D01*
G01*
D02*
G03*
X026258Y043451I-002264J-001968D01*
G01*
D02*
G03*
X026222Y04349I-002229J-002007D01*
G01*
D02*
G03*
X026186Y043528I-002194J-002046D01*
G01*
D02*
G03*
X02615Y043565I-002158J-002084D01*
G01*
D02*
G03*
X026112Y043602I-002121J-002121D01*
G01*
D02*
G03*
X026074Y043638I-002084J-002158D01*
G01*
D02*
G03*
X026036Y043673I-002046J-002194D01*
G01*
D02*
G03*
X025996Y043708I-002007J-002229D01*
G01*
D02*
G03*
X025957Y043742I-001968J-002264D01*
G01*
D02*
G03*
X025916Y043775I-001928J-002298D01*
G01*
D02*
G03*
X025875Y043808I-001888J-002331D01*
G01*
D02*
G03*
X025834Y04384I-001847J-002364D01*
G01*
D02*
G03*
X025792Y043871I-001805J-002396D01*
G01*
D02*
G03*
X025749Y043901I-001763J-002427D01*
G01*
D02*
G03*
X025706Y043931I-001721J-002457D01*
G01*
D02*
G03*
X025662Y04396I-001678J-002487D01*
G01*
D02*
G03*
X025618Y043988I-001634J-002516D01*
G01*
D02*
G03*
X025573Y044015I-00159J-002544D01*
G01*
D02*
G03*
X025528Y044042I-001545J-002572D01*
G01*
D02*
G03*
X025483Y044068I-0015J-002598D01*
G01*
D02*
G03*
X025437Y044093I-001454J-002624D01*
G01*
D02*
G03*
X02539Y044117I-001408J-002649D01*
G01*
D02*
G03*
X025343Y04414I-001362J-002673D01*
G01*
D02*
G03*
X025296Y044163I-001315J-002696D01*
G01*
D02*
G03*
X025248Y044184I-001268J-002719D01*
G01*
D02*
G03*
X0252Y044205I-00122J-002741D01*
G01*
D02*
G03*
X025152Y044225I-001172J-002762D01*
G01*
D02*
G03*
X025103Y044245I-001124J-002782D01*
G01*
D02*
G03*
X025054Y044263I-001075J-002801D01*
G01*
D02*
G03*
X025005Y04428I-001026J-002819D01*
G01*
D02*
G03*
X024955Y044297I-000977J-002837D01*
G01*
D02*
G03*
X024905Y044313I-000927J-002853D01*
G01*
D02*
G03*
X024855Y044328I-000877J-002869D01*
G01*
D02*
G03*
X024805Y044342I-000827J-002884D01*
G01*
D02*
G03*
X024754Y044355I-000776J-002898D01*
G01*
D02*
G03*
X024703Y044367I-000726J-002911D01*
G01*
D02*
G03*
X024652Y044378I-000675J-002923D01*
G01*
D02*
G03*
X024601Y044389I-000624J-002934D01*
G01*
D02*
G03*
X024549Y044398I-000572J-002945D01*
G01*
D02*
G03*
X024498Y044407I-000521J-002954D01*
G01*
D02*
G03*
X024446Y044415I-000469J-002963D01*
G01*
D02*
G03*
X024394Y044421I-000418J-002971D01*
G01*
D02*
G03*
X024342Y044427I-000366J-002978D01*
G01*
D02*
G03*
X02429Y044432I-000314J-002984D01*
G01*
D02*
G03*
X024238Y044436I-000261J-002989D01*
G01*
D02*
G03*
X024185Y04444I-000209J-002993D01*
G01*
D02*
G03*
X024133Y044442I-000157J-002996D01*
G01*
D02*
G03*
X024081Y044443I-000105J-002998D01*
G01*
D02*
G03*
X024028Y044444I-000052J-003D01*
G01*
D02*
G03*
X023976Y044443I0J-003D01*
G01*
D02*
G03*
X023924Y044442I000052J-003D01*
G01*
D02*
G03*
X023871Y04444I000105J-002998D01*
G01*
D02*
G03*
X023819Y044436I000157J-002996D01*
G01*
D02*
G03*
X023767Y044432I000209J-002993D01*
G01*
D02*
G03*
X023715Y044427I000261J-002989D01*
G01*
D02*
G03*
X023663Y044421I000314J-002984D01*
G01*
D02*
G03*
X023611Y044415I000366J-002978D01*
G01*
D02*
G03*
X023559Y044407I000418J-002971D01*
G01*
D02*
G03*
X023507Y044398I000469J-002963D01*
G01*
D02*
G03*
X023456Y044389I000521J-002954D01*
G01*
D02*
G03*
X023405Y044378I000572J-002945D01*
G01*
D02*
G03*
X023353Y044367I000624J-002934D01*
G01*
D02*
G03*
X023302Y044355I000675J-002923D01*
G01*
D02*
G03*
X023252Y044342I000726J-002911D01*
G01*
D02*
G03*
X023201Y044328I000776J-002898D01*
G01*
D02*
G03*
X023151Y044313I000827J-002884D01*
G01*
D02*
G03*
X023101Y044297I000877J-002869D01*
G01*
D02*
G03*
X023052Y04428I000927J-002853D01*
G01*
D02*
G03*
X023002Y044263I000977J-002837D01*
G01*
D02*
G03*
X022953Y044245I001026J-002819D01*
G01*
D02*
G03*
X022904Y044225I001075J-002801D01*
G01*
D02*
G03*
X022856Y044205I001124J-002782D01*
G01*
D02*
G03*
X022808Y044184I001172J-002762D01*
G01*
D02*
G03*
X02276Y044163I00122J-002741D01*
G01*
D02*
G03*
X022713Y04414I001268J-002719D01*
G01*
D02*
G03*
X022666Y044117I001315J-002696D01*
G01*
D02*
G03*
X02262Y044093I001362J-002673D01*
G01*
D02*
G03*
X022574Y044068I001408J-002649D01*
G01*
D02*
G03*
X022528Y044042I001454J-002624D01*
G01*
D02*
G03*
X022483Y044015I0015J-002598D01*
G01*
D02*
G03*
X022439Y043988I001545J-002572D01*
G01*
D02*
G03*
X022394Y04396I00159J-002544D01*
G01*
D02*
G03*
X022351Y043931I001634J-002516D01*
G01*
D02*
G03*
X022308Y043901I001678J-002487D01*
G01*
D02*
G03*
X022265Y043871I001721J-002457D01*
G01*
D02*
G03*
X022223Y04384I001763J-002427D01*
G01*
D02*
G03*
X022181Y043808I001805J-002396D01*
G01*
D02*
G03*
X02214Y043775I001847J-002364D01*
G01*
D02*
G03*
X0221Y043742I001888J-002331D01*
G01*
D02*
G03*
X02206Y043708I001928J-002298D01*
G01*
D02*
G03*
X022021Y043673I001968J-002264D01*
G01*
D02*
G03*
X021982Y043638I002007J-002229D01*
G01*
D02*
G03*
X021944Y043602I002046J-002194D01*
G01*
D02*
G03*
X021907Y043565I002084J-002158D01*
G01*
D02*
G03*
X02187Y043528I002121J-002121D01*
G01*
D02*
G03*
X021834Y04349I002158J-002084D01*
G01*
D02*
G03*
X021799Y043451I002194J-002046D01*
G01*
D02*
G03*
X021764Y043412I002229J-002007D01*
G01*
D02*
G03*
X02173Y043372I002264J-001968D01*
G01*
D02*
G03*
X021697Y043332I002298J-001928D01*
G01*
D02*
G03*
X021664Y043291I002331J-001888D01*
G01*
D02*
G03*
X021632Y043249I002364J-001847D01*
G01*
D02*
G03*
X021601Y043207I002396J-001805D01*
G01*
D02*
G03*
X021571Y043164I002427J-001763D01*
G01*
D02*
G03*
X021541Y043121I002457J-001721D01*
G01*
D02*
G03*
X021512Y043078I002487J-001678D01*
G01*
D02*
G03*
X021484Y043034I002516J-001634D01*
G01*
D02*
G03*
X021457Y042989I002544J-00159D01*
G01*
D02*
G03*
X02143Y042944I002572J-001545D01*
G01*
D02*
G03*
X021404Y042898I002598J-0015D01*
G01*
D02*
G03*
X021379Y042852I002624J-001454D01*
G01*
D02*
G03*
X021355Y042806I002649J-001408D01*
G01*
D02*
G03*
X021332Y042759I002673J-001362D01*
G01*
D02*
G03*
X021309Y042712I002696J-001315D01*
G01*
D02*
G03*
X021288Y042664I002719J-001268D01*
G01*
D02*
G03*
X021267Y042616I002741J-00122D01*
G01*
D02*
G03*
X021247Y042568I002762J-001172D01*
G01*
D02*
G03*
X021228Y042519I002782J-001124D01*
G01*
D02*
G03*
X021209Y04247I002801J-001075D01*
G01*
D02*
G03*
X021192Y04242I002819J-001026D01*
G01*
D02*
G03*
X021175Y042371I002837J-000977D01*
G01*
D02*
G03*
X021159Y042321I002853J-000927D01*
G01*
D02*
G03*
X021144Y042271I002869J-000877D01*
G01*
D02*
G03*
X02113Y04222I002884J-000827D01*
G01*
D02*
G03*
X021117Y04217I002898J-000776D01*
G01*
D02*
G03*
X021105Y042119I002911J-000726D01*
G01*
D02*
G03*
X021094Y042067I002923J-000675D01*
G01*
D02*
G03*
X021083Y042016I002934J-000624D01*
G01*
D02*
G03*
X021074Y041965I002945J-000572D01*
G01*
D02*
G03*
X021065Y041913I002954J-000521D01*
G01*
D02*
G03*
X021057Y041861I002963J-000469D01*
G01*
D02*
G03*
X021051Y041809I002971J-000418D01*
G01*
D02*
G03*
X021045Y041757I002978J-000366D01*
G01*
D02*
G03*
X02104Y041705I002984J-000314D01*
G01*
D02*
G03*
X021036Y041653I002989J-000261D01*
G01*
D02*
G03*
X021032Y041601I002993J-000209D01*
G01*
D02*
G03*
X02103Y041548I002996J-000157D01*
G01*
D02*
G03*
X021029Y041496I002998J-000105D01*
G01*
D02*
G03*
X021028Y041444I003J-000052D01*
G01*
D02*
G03*
X021029Y041391I003J0D01*
G01*
D02*
G03*
X02103Y041339I003J000052D01*
G01*
D02*
G03*
X021032Y041287I002998J000105D01*
G01*
D02*
G03*
X021036Y041234I002996J000157D01*
G01*
D02*
G03*
X02104Y041182I002993J000209D01*
G01*
D02*
G03*
X021045Y04113I002989J000261D01*
G01*
D02*
G03*
X021051Y041078I002984J000314D01*
G01*
D02*
G03*
X021057Y041026I002978J000366D01*
G01*
D02*
G03*
X021065Y040974I002971J000418D01*
G01*
D02*
G03*
X021074Y040923I002963J000469D01*
G01*
D02*
G03*
X021083Y040871I002954J000521D01*
G01*
D02*
G03*
X021094Y04082I002945J000572D01*
G01*
D02*
G03*
X021105Y040769I002934J000624D01*
G01*
D02*
G03*
X021117Y040718I002923J000675D01*
G01*
D02*
G03*
X02113Y040667I002911J000726D01*
G01*
D02*
G03*
X021144Y040617I002898J000776D01*
G01*
D02*
G03*
X021159Y040567I002884J000827D01*
G01*
D02*
G03*
X021175Y040517I002869J000877D01*
G01*
D02*
G03*
X021192Y040467I002853J000927D01*
G01*
D02*
G03*
X021209Y040418I002837J000977D01*
G01*
D02*
G03*
X021228Y040369I002819J001026D01*
G01*
D02*
G03*
X021247Y04032I002801J001075D01*
G01*
D02*
G03*
X021267Y040272I002782J001124D01*
G01*
D02*
G03*
X021288Y040224I002762J001172D01*
G01*
D02*
G03*
X021309Y040176I002741J00122D01*
G01*
D02*
G03*
X021332Y040129I002719J001268D01*
G01*
D02*
G03*
X021355Y040082I002696J001315D01*
G01*
D02*
G03*
X021379Y040035I002673J001362D01*
G01*
D02*
G03*
X021404Y039989I002649J001408D01*
G01*
D02*
G03*
X02143Y039944I002624J001454D01*
G01*
D02*
G03*
X021457Y039899I002598J0015D01*
G01*
D02*
G03*
X021484Y039854I002572J001545D01*
G01*
D02*
G03*
X021512Y03981I002544J00159D01*
G01*
D02*
G03*
X021541Y039766I002516J001634D01*
G01*
D02*
G03*
X021571Y039723I002487J001678D01*
G01*
D02*
G03*
X021601Y03968I002457J001721D01*
G01*
D02*
G03*
X021632Y039638I002427J001763D01*
G01*
D02*
G03*
X021664Y039597I002396J001805D01*
G01*
D02*
G03*
X021697Y039556I002364J001847D01*
G01*
D02*
G03*
X02173Y039515I002331J001888D01*
G01*
D02*
G03*
X021764Y039476I002298J001928D01*
G01*
D02*
G03*
X021799Y039436I002264J001968D01*
G01*
D02*
G03*
X021834Y039398I002229J002007D01*
G01*
D02*
G03*
X02187Y03936I002194J002046D01*
G01*
D02*
G03*
X021907Y039322I002158J002084D01*
G01*
D02*
G03*
X021944Y039286I002121J002121D01*
G01*
D02*
G03*
X021982Y03925I002084J002158D01*
G01*
D02*
G03*
X022021Y039214I002046J002194D01*
G01*
D02*
G03*
X02206Y03918I002007J002229D01*
G01*
D02*
G03*
X0221Y039146I001968J002264D01*
G01*
D02*
G03*
X02214Y039112I001928J002298D01*
G01*
D02*
G03*
X022181Y03908I001888J002331D01*
G01*
D02*
G03*
X022223Y039048I001847J002364D01*
G01*
D02*
G03*
X022265Y039017I001805J002396D01*
G01*
D02*
G03*
X022308Y038986I001763J002427D01*
G01*
D02*
G03*
X022351Y038957I001721J002457D01*
G01*
D02*
G03*
X022394Y038928I001678J002487D01*
G01*
D02*
G03*
X022439Y0389I001634J002516D01*
G01*
D02*
G03*
X022483Y038872I00159J002544D01*
G01*
D02*
G03*
X022528Y038846I001545J002572D01*
G01*
D02*
G03*
X022574Y03882I0015J002598D01*
G01*
D02*
G03*
X02262Y038795I001454J002624D01*
G01*
D02*
G03*
X022666Y038771I001408J002649D01*
G01*
D02*
G03*
X022713Y038747I001362J002673D01*
G01*
D02*
G03*
X02276Y038725I001315J002696D01*
G01*
D02*
G03*
X022808Y038703I001268J002719D01*
G01*
D02*
G03*
X022856Y038682I00122J002741D01*
G01*
D02*
G03*
X022904Y038662I001172J002762D01*
G01*
D02*
G03*
X022953Y038643I001124J002782D01*
G01*
D02*
G03*
X023002Y038625I001075J002801D01*
G01*
D02*
G03*
X023052Y038607I001026J002819D01*
G01*
D02*
G03*
X023101Y038591I000977J002837D01*
G01*
D02*
G03*
X023151Y038575I000927J002853D01*
G01*
D02*
G03*
X023201Y03856I000877J002869D01*
G01*
D02*
G03*
X023252Y038546I000827J002884D01*
G01*
D02*
G03*
X023302Y038533I000776J002898D01*
G01*
D02*
G03*
X023353Y038521I000726J002911D01*
G01*
D02*
G03*
X023405Y038509I000675J002923D01*
G01*
D02*
G03*
X023456Y038499I000624J002934D01*
G01*
D02*
G03*
X023507Y038489I000572J002945D01*
G01*
D02*
G03*
X023559Y038481I000521J002954D01*
G01*
D02*
G03*
X023611Y038473I000469J002963D01*
G01*
D02*
G03*
X023663Y038466I000418J002971D01*
G01*
D02*
G03*
X023715Y03846I000366J002978D01*
G01*
D02*
G03*
X023767Y038455I000314J002984D01*
G01*
D02*
G03*
X023819Y038451I000261J002989D01*
G01*
D02*
G03*
X023871Y038448I000209J002993D01*
G01*
D02*
G03*
X023924Y038446I000157J002996D01*
G01*
D02*
G03*
X023976Y038444I000105J002998D01*
G01*
D02*
G03*
X024028Y038444I000052J003D01*
G01*
D02*
G03*
X024081Y038444I0J003D01*
G01*
D02*
G03*
X024133Y038446I-000052J003D01*
G01*
D02*
G03*
X024185Y038448I-000105J002998D01*
G01*
D02*
G03*
X024238Y038451I-000157J002996D01*
G01*
D02*
G03*
X02429Y038455I-000209J002993D01*
G01*
D02*
G03*
X024342Y03846I-000261J002989D01*
G01*
D02*
G03*
X024394Y038466I-000314J002984D01*
G01*
D02*
G03*
X024446Y038473I-000366J002978D01*
G01*
D02*
G03*
X024498Y038481I-000418J002971D01*
G01*
D02*
G03*
X024549Y038489I-000469J002963D01*
G01*
D02*
G03*
X024601Y038499I-000521J002954D01*
G01*
D02*
G03*
X024652Y038509I-000572J002945D01*
G01*
D02*
G03*
X024703Y038521I-000624J002934D01*
G01*
D02*
G03*
X024754Y038533I-000675J002923D01*
G01*
D02*
G03*
X024805Y038546I-000726J002911D01*
G01*
D02*
G03*
X024855Y03856I-000776J002898D01*
G01*
D02*
G03*
X024905Y038575I-000827J002884D01*
G01*
D02*
G03*
X024955Y038591I-000877J002869D01*
G01*
D02*
G03*
X025005Y038607I-000927J002853D01*
G01*
D02*
G03*
X025054Y038625I-000977J002837D01*
G01*
D02*
G03*
X025103Y038643I-001026J002819D01*
G01*
D02*
G03*
X025152Y038662I-001075J002801D01*
G01*
D02*
G03*
X0252Y038682I-001124J002782D01*
G01*
D02*
G03*
X025248Y038703I-001172J002762D01*
G01*
D02*
G03*
X025296Y038725I-00122J002741D01*
G01*
D02*
G03*
X025343Y038747I-001268J002719D01*
G01*
D02*
G03*
X02539Y038771I-001315J002696D01*
G01*
D02*
G03*
X025437Y038795I-001362J002673D01*
G01*
D02*
G03*
X025483Y03882I-001408J002649D01*
G01*
D02*
G03*
X025528Y038846I-001454J002624D01*
G01*
D02*
G03*
X025573Y038872I-0015J002598D01*
G01*
D02*
G03*
X025618Y0389I-001545J002572D01*
G01*
D02*
G03*
X025662Y038928I-00159J002544D01*
G01*
D02*
G03*
X025706Y038957I-001634J002516D01*
G01*
D02*
G03*
X025749Y038986I-001678J002487D01*
G01*
D02*
G03*
X025792Y039017I-001721J002457D01*
G01*
D02*
G03*
X025834Y039048I-001763J002427D01*
G01*
D02*
G03*
X025875Y03908I-001805J002396D01*
G01*
D02*
G03*
X025916Y039112I-001847J002364D01*
G01*
D02*
G03*
X025957Y039146I-001888J002331D01*
G01*
D02*
G03*
X025996Y03918I-001928J002298D01*
G01*
D02*
G03*
X026036Y039214I-001968J002264D01*
G01*
D02*
G03*
X026074Y03925I-002007J002229D01*
G01*
D02*
G03*
X026112Y039286I-002046J002194D01*
G01*
D02*
G03*
X02615Y039322I-002084J002158D01*
G01*
D02*
G03*
X026186Y03936I-002121J002121D01*
G01*
D02*
G03*
X026222Y039398I-002158J002084D01*
G01*
D02*
G03*
X026258Y039436I-002194J002046D01*
G01*
D02*
G03*
X026292Y039476I-002229J002007D01*
G01*
D02*
G03*
X026326Y039515I-002264J001968D01*
G01*
D02*
G03*
X02636Y039556I-002298J001928D01*
G01*
D02*
G03*
X026392Y039597I-002331J001888D01*
G01*
D02*
G03*
X026424Y039638I-002364J001847D01*
G01*
D02*
G03*
X026455Y03968I-002396J001805D01*
G01*
D02*
G03*
X026486Y039723I-002427J001763D01*
G01*
D02*
G03*
X026515Y039766I-002457J001721D01*
G01*
D02*
G03*
X026544Y03981I-002487J001678D01*
G01*
D02*
G03*
X026572Y039854I-002516J001634D01*
G01*
D02*
G03*
X0266Y039899I-002544J00159D01*
G01*
D02*
G03*
X026626Y039944I-002572J001545D01*
G01*
D02*
G03*
X026652Y039989I-002598J0015D01*
G01*
D02*
G03*
X026677Y040035I-002624J001454D01*
G01*
D02*
G03*
X026701Y040082I-002649J001408D01*
G01*
D02*
G03*
X026725Y040129I-002673J001362D01*
G01*
D02*
G03*
X026747Y040176I-002696J001315D01*
G01*
D02*
G03*
X026769Y040224I-002719J001268D01*
G01*
D02*
G03*
X02679Y040272I-002741J00122D01*
G01*
D02*
G03*
X02681Y04032I-002762J001172D01*
G01*
D02*
G03*
X026829Y040369I-002782J001124D01*
G01*
D02*
G03*
X026847Y040418I-002801J001075D01*
G01*
D02*
G03*
X026865Y040467I-002819J001026D01*
G01*
D02*
G03*
X026881Y040517I-002837J000977D01*
G01*
D02*
G03*
X026897Y040567I-002853J000927D01*
G01*
D02*
G03*
X026912Y040617I-002869J000877D01*
G01*
D02*
G03*
X026926Y040667I-002884J000827D01*
G01*
D02*
G03*
X026939Y040718I-002898J000776D01*
G01*
D02*
G03*
X026951Y040769I-002911J000726D01*
G01*
D02*
G03*
X026963Y04082I-002923J000675D01*
G01*
D02*
G03*
X026973Y040871I-002934J000624D01*
G01*
D02*
G03*
X026983Y040923I-002945J000572D01*
G01*
D02*
G03*
X026991Y040974I-002954J000521D01*
G01*
D02*
G03*
X026999Y041026I-002963J000469D01*
G01*
D02*
G03*
X027006Y041078I-002971J000418D01*
G01*
D02*
G03*
X027012Y04113I-002978J000366D01*
G01*
D02*
G03*
X027017Y041182I-002984J000314D01*
G01*
D02*
G03*
X027021Y041234I-002989J000261D01*
G01*
D02*
G03*
X027024Y041287I-002993J000209D01*
G01*
D02*
G03*
X027026Y041339I-002996J000157D01*
G01*
D02*
G03*
X027028Y041391I-002998J000105D01*
G01*
D02*
G03*
X027028Y041444I-003J000052D01*
G01*
M02*
