G04 Layer_Color=16711935*
%FSTAX24Y24*%
%MOIN*%
G70*
G01*
G75*
%ADD76C,0.0671*%
%ADD77R,0.0671X0.0671*%
%ADD78R,0.0671X0.0671*%
%ADD79C,0.0592*%
%ADD80R,0.0592X0.0592*%
%ADD81C,0.0316*%
%ADD82C,0.0789*%
%ADD83C,0.0380*%
%ADD84C,0.0780*%
%ADD85C,0.0671*%
%ADD86C,0.2442*%
%ADD87C,0.0400*%
D76*
X07714Y042259D02*
D03*
X08424Y0405D02*
D03*
X08524D02*
D03*
X07564Y052329D02*
D03*
X07664D02*
D03*
X07764D02*
D03*
X07864D02*
D03*
X07964D02*
D03*
X07664Y060929D02*
D03*
X07764D02*
D03*
X07864D02*
D03*
X07964D02*
D03*
X08064D02*
D03*
X08404Y0644D02*
D03*
D77*
X08014Y042259D02*
D03*
D78*
X08324Y0405D02*
D03*
X08164Y060929D02*
D03*
X08304Y0644D02*
D03*
D79*
X087892Y059398D02*
D03*
Y05861D02*
D03*
Y057823D02*
D03*
Y056248D02*
D03*
Y057035D02*
D03*
D80*
Y055461D02*
D03*
D81*
X070451Y055133D02*
D03*
Y053401D02*
D03*
D82*
X072638Y047377D02*
D03*
Y049346D02*
D03*
Y046393D02*
D03*
Y05033D02*
D03*
X070669Y048361D02*
D03*
D83*
X07215Y06335D02*
D03*
X07263D02*
D03*
X07311D02*
D03*
X07215Y06285D02*
D03*
X07263D02*
D03*
X07311D02*
D03*
D84*
X079923Y062518D02*
D03*
X077364D02*
D03*
X079923Y06429D02*
D03*
X077364D02*
D03*
D85*
X08064Y052329D02*
D03*
D86*
X087302Y041078D02*
D03*
X069979Y041078D02*
D03*
X087302Y063913D02*
D03*
X069979D02*
D03*
X087302Y043637D02*
D03*
Y061354D02*
D03*
X069979Y043637D02*
D03*
Y061354D02*
D03*
D87*
X087994Y048013D02*
D03*
M02*
