G04 Layer_Color=8421504*
%FSTAX24Y24*%
%MOIN*%
G70*
G01*
G75*
%ADD10O,0.0984X0.0394*%
%ADD11R,0.0315X0.0374*%
%ADD12R,0.0374X0.0315*%
%ADD13R,0.0630X0.0630*%
%ADD14R,0.0256X0.0472*%
%ADD15R,0.0472X0.0256*%
%ADD16O,0.0650X0.0217*%
%ADD17O,0.0217X0.0650*%
%ADD18R,0.0551X0.0591*%
%ADD19R,0.0098X0.0256*%
%ADD20R,0.0256X0.0098*%
%ADD21C,0.0059*%
%ADD22R,0.0394X0.0512*%
%ADD23R,0.0945X0.0236*%
%ADD24O,0.0945X0.0236*%
%ADD25R,0.0984X0.0787*%
%ADD26R,0.0906X0.0197*%
%ADD27R,0.0630X0.0630*%
%ADD28R,0.0250X0.0860*%
%ADD29O,0.0250X0.0860*%
%ADD30R,0.1400X0.0900*%
%ADD31R,0.0472X0.0472*%
%ADD32R,0.0512X0.0394*%
D10*
X081199Y045761D02*
D03*
Y046761D02*
D03*
Y047761D02*
D03*
Y048761D02*
D03*
Y049761D02*
D03*
Y050761D02*
D03*
X076081Y045761D02*
D03*
Y046761D02*
D03*
Y047761D02*
D03*
Y048761D02*
D03*
Y049761D02*
D03*
Y050761D02*
D03*
D11*
X069786Y0454D02*
D03*
X070495D02*
D03*
X071786Y0435D02*
D03*
X072495D02*
D03*
X073895D02*
D03*
X073186D02*
D03*
X075395Y0418D02*
D03*
X074686D02*
D03*
X074686Y0425D02*
D03*
X075395D02*
D03*
X075395Y0411D02*
D03*
X074686D02*
D03*
X073895Y0406D02*
D03*
X073186D02*
D03*
X071786D02*
D03*
X072495D02*
D03*
X087286Y0542D02*
D03*
X087995D02*
D03*
Y0518D02*
D03*
X087286D02*
D03*
X084786Y0573D02*
D03*
X085495D02*
D03*
X072986Y061D02*
D03*
X073695D02*
D03*
X072886Y06D02*
D03*
X073595D02*
D03*
X071686Y061D02*
D03*
X072395D02*
D03*
X070136Y057613D02*
D03*
X069428D02*
D03*
X073286Y0516D02*
D03*
X073995D02*
D03*
X073995Y0542D02*
D03*
X073286D02*
D03*
X073595Y0579D02*
D03*
X072886D02*
D03*
X073595Y0586D02*
D03*
X072886D02*
D03*
X073595Y0593D02*
D03*
X072886D02*
D03*
D12*
X07484Y047154D02*
D03*
Y046446D02*
D03*
X08504Y041546D02*
D03*
Y042254D02*
D03*
Y043654D02*
D03*
Y042946D02*
D03*
X08504Y045154D02*
D03*
Y044446D02*
D03*
X08254Y048154D02*
D03*
Y047446D02*
D03*
Y049454D02*
D03*
Y048746D02*
D03*
X088019Y049691D02*
D03*
Y048982D02*
D03*
X08714Y059354D02*
D03*
Y058646D02*
D03*
Y055446D02*
D03*
Y056154D02*
D03*
X07644Y063054D02*
D03*
Y062346D02*
D03*
X08094Y063154D02*
D03*
Y062446D02*
D03*
Y063846D02*
D03*
Y064554D02*
D03*
X08234Y062854D02*
D03*
Y062146D02*
D03*
X08524D02*
D03*
Y062854D02*
D03*
X07644Y064354D02*
D03*
Y063646D02*
D03*
D13*
X07474Y045669D02*
D03*
Y044331D02*
D03*
D14*
X073914Y044278D02*
D03*
X073166D02*
D03*
X07354Y045322D02*
D03*
X072514Y044278D02*
D03*
X071766D02*
D03*
X07214Y045322D02*
D03*
X073877Y041379D02*
D03*
X073129D02*
D03*
X073503Y042424D02*
D03*
X072514Y041378D02*
D03*
X071766D02*
D03*
X07214Y042422D02*
D03*
X074014Y052378D02*
D03*
X073266D02*
D03*
X07364Y053422D02*
D03*
X074014Y054978D02*
D03*
X073266D02*
D03*
X07364Y056022D02*
D03*
X08334Y063322D02*
D03*
X082966Y062278D02*
D03*
X083714D02*
D03*
D15*
X084263Y042274D02*
D03*
Y041526D02*
D03*
X083218Y0419D02*
D03*
X084248Y043637D02*
D03*
Y042889D02*
D03*
X083203Y043263D02*
D03*
X084263Y045174D02*
D03*
Y044426D02*
D03*
X083218Y0448D02*
D03*
D16*
X087194Y048098D02*
D03*
Y048413D02*
D03*
Y048728D02*
D03*
Y049043D02*
D03*
Y049357D02*
D03*
Y049672D02*
D03*
Y049987D02*
D03*
Y050302D02*
D03*
X083887D02*
D03*
Y049987D02*
D03*
Y049672D02*
D03*
Y049357D02*
D03*
Y049043D02*
D03*
Y048728D02*
D03*
Y048413D02*
D03*
Y048098D02*
D03*
D17*
X086643Y050854D02*
D03*
X086328D02*
D03*
X086013D02*
D03*
X085698D02*
D03*
X085383D02*
D03*
X085068D02*
D03*
X084753D02*
D03*
X084438D02*
D03*
Y047546D02*
D03*
X084753D02*
D03*
X085068D02*
D03*
X085383D02*
D03*
X085698D02*
D03*
X086013D02*
D03*
X086328D02*
D03*
X086643D02*
D03*
D18*
X087305Y05344D02*
D03*
X087935D02*
D03*
Y052574D02*
D03*
X087305D02*
D03*
D19*
X085137Y055359D02*
D03*
X08494D02*
D03*
X084743D02*
D03*
Y056441D02*
D03*
X08494D02*
D03*
X085137D02*
D03*
D20*
X084399Y055506D02*
D03*
Y055703D02*
D03*
Y0559D02*
D03*
Y056097D02*
D03*
Y056294D02*
D03*
X085482D02*
D03*
Y056097D02*
D03*
Y0559D02*
D03*
Y055703D02*
D03*
Y055506D02*
D03*
D21*
X084596Y056412D02*
D03*
D22*
X084747Y0581D02*
D03*
X085534D02*
D03*
D23*
X069782Y059741D02*
D03*
D24*
Y059241D02*
D03*
Y058741D02*
D03*
Y058241D02*
D03*
X071751Y059741D02*
D03*
Y059241D02*
D03*
Y058741D02*
D03*
Y058241D02*
D03*
D25*
X071436Y052515D02*
D03*
Y056019D02*
D03*
X06927D02*
D03*
Y052515D02*
D03*
D26*
X071475Y053637D02*
D03*
Y053952D02*
D03*
Y054267D02*
D03*
Y054582D02*
D03*
Y054897D02*
D03*
D27*
X072471Y057D02*
D03*
X07381D02*
D03*
D28*
X07189Y06204D02*
D03*
D29*
X07239D02*
D03*
X07289D02*
D03*
X07339D02*
D03*
X07189Y06416D02*
D03*
X07239D02*
D03*
X07289D02*
D03*
X07339D02*
D03*
D30*
X07264Y0631D02*
D03*
D31*
X074528Y0634D02*
D03*
X075552D02*
D03*
X074528Y0625D02*
D03*
X075552D02*
D03*
X074528Y0643D02*
D03*
X075552D02*
D03*
D32*
X08444Y062206D02*
D03*
Y062994D02*
D03*
M02*
