G04 Layer_Color=65535*
%FSTAX24Y24*%
%MOIN*%
G70*
G01*
G75*
%ADD34C,0.0080*%
%ADD35C,0.0100*%
%ADD48C,0.0098*%
%ADD49C,0.0236*%
%ADD50C,0.0079*%
%ADD51C,0.0150*%
%ADD52C,0.0050*%
G36*
X08062Y045761D02*
X08021Y045381D01*
Y046141D01*
X08062Y045761D01*
D02*
G37*
D34*
X07161Y062975D02*
G03*
X07161Y063225I0J000125D01*
G01*
X075491Y044914D02*
X08179D01*
X075491Y051213D02*
X08179D01*
X0818Y044931D02*
Y051211D01*
X07548Y044921D02*
Y051211D01*
X070731Y045124D02*
Y045676D01*
X06955D02*
X070731D01*
X06955Y045124D02*
Y045676D01*
Y045124D02*
X070731D01*
X074565Y046209D02*
X075116D01*
Y047391D01*
X074565D02*
X075116D01*
X074565Y046209D02*
Y047391D01*
X07433Y04392D02*
X07515D01*
Y04608D01*
X07433D02*
X07515D01*
X07433Y04392D02*
Y04608D01*
X07291Y043934D02*
X07417D01*
X07291Y045666D02*
X07417D01*
X07291Y043934D02*
Y045666D01*
X07417Y043934D02*
Y045666D01*
X07151Y043934D02*
X07277D01*
X07151Y045666D02*
X07277D01*
X07151Y043934D02*
Y045666D01*
X07277Y043934D02*
Y045666D01*
X072731Y043224D02*
Y043776D01*
X07155D02*
X072731D01*
X07155Y043224D02*
Y043776D01*
Y043224D02*
X072731D01*
X07295D02*
Y043776D01*
Y043224D02*
X074131D01*
Y043776D01*
X07295D02*
X074131D01*
X072873Y041035D02*
X074133D01*
X072873Y042767D02*
X074133D01*
X072873Y041035D02*
Y042767D01*
X074133Y041035D02*
Y042767D01*
X07151Y041034D02*
X07277D01*
X07151Y042766D02*
X07277D01*
X07151Y041034D02*
Y042766D01*
X07277Y041034D02*
Y042766D01*
X07445Y041524D02*
Y042076D01*
Y041524D02*
X075631D01*
Y042076D01*
X07445D02*
X075631D01*
X075631Y042224D02*
Y042776D01*
X07445D02*
X075631D01*
X07445Y042224D02*
Y042776D01*
Y042224D02*
X075631D01*
X07445Y040824D02*
Y04137D01*
Y040824D02*
X075631D01*
Y04137D01*
X07445D02*
X075631D01*
X07295Y040324D02*
Y040876D01*
Y040324D02*
X074131D01*
Y040876D01*
X07295D02*
X074131D01*
X072731Y040324D02*
Y040876D01*
X07155D02*
X072731D01*
X07155Y040324D02*
Y040876D01*
Y040324D02*
X072731D01*
X084765Y042491D02*
X085316D01*
X084765Y041309D02*
Y042491D01*
Y041309D02*
X085316D01*
Y042491D01*
X084765Y042709D02*
X085316D01*
Y043891D01*
X084765D02*
X085316D01*
X084765Y042709D02*
Y043891D01*
X084765Y044209D02*
X085316D01*
Y045391D01*
X084765D02*
X085316D01*
X084765Y044209D02*
Y045391D01*
X084606Y04127D02*
Y04253D01*
X082874Y04127D02*
Y04253D01*
Y04127D02*
X084606D01*
X082874Y04253D02*
X084606D01*
X084592Y042633D02*
Y043893D01*
X08286Y042633D02*
Y043893D01*
Y042633D02*
X084592D01*
X08286Y043893D02*
X084592D01*
X084606Y04417D02*
Y04543D01*
X082874Y04417D02*
Y04543D01*
Y04417D02*
X084606D01*
X082874Y04543D02*
X084606D01*
X08227Y047209D02*
X082816D01*
Y048391D01*
X08227D02*
X082816D01*
X08227Y047209D02*
Y048391D01*
Y048509D02*
X082816D01*
Y049691D01*
X08227D02*
X082816D01*
X08227Y048509D02*
Y049691D01*
X087749Y048746D02*
X088295D01*
Y049927D01*
X087749D02*
X088295D01*
X087749Y048746D02*
Y049927D01*
X088231Y05393D02*
Y054476D01*
X08705D02*
X088231D01*
X08705Y05393D02*
Y054476D01*
Y05393D02*
X088231D01*
X08705Y051524D02*
Y05207D01*
Y051524D02*
X088231D01*
Y05207D01*
X08705D02*
X088231D01*
X08693Y053837D02*
X08831D01*
X08693Y052177D02*
Y053837D01*
Y052177D02*
X08831D01*
Y053837D01*
X08687Y058409D02*
X087416D01*
Y059591D01*
X08687D02*
X087416D01*
X08687Y058409D02*
Y059591D01*
X086865Y056391D02*
X087416D01*
X086865Y055209D02*
Y056391D01*
Y055209D02*
X087416D01*
Y056391D01*
X085731Y05703D02*
Y057576D01*
X08455D02*
X085731D01*
X08455Y05703D02*
Y057576D01*
Y05703D02*
X085731D01*
X08416Y05513D02*
Y05667D01*
Y05513D02*
X08572D01*
Y05667D01*
X08416D02*
X08572D01*
X08446Y058454D02*
X08582D01*
Y057746D02*
Y058454D01*
X08446Y057746D02*
X08582D01*
X08446D02*
Y058454D01*
X073931Y060724D02*
Y061276D01*
X07275D02*
X073931D01*
X07275Y060724D02*
Y061276D01*
Y060724D02*
X073931D01*
X073831Y05973D02*
Y060276D01*
X07265D02*
X073831D01*
X07265Y05973D02*
Y060276D01*
Y05973D02*
X073831D01*
X072631Y060724D02*
Y061276D01*
X07145D02*
X072631D01*
X07145Y060724D02*
Y061276D01*
Y060724D02*
X072631D01*
X069191Y057338D02*
Y057883D01*
Y057338D02*
X070373D01*
Y057883D01*
X069191D02*
X070373D01*
X074231Y051324D02*
Y051876D01*
X07305D02*
X074231D01*
X07305Y051324D02*
Y051876D01*
Y051324D02*
X074231D01*
X07301Y052034D02*
X07427D01*
X07301Y053766D02*
X07427D01*
X07301Y052034D02*
Y053766D01*
X07427Y052034D02*
Y053766D01*
X07305Y053924D02*
Y054476D01*
Y053924D02*
X074231D01*
Y054476D01*
X07305D02*
X074231D01*
X07301Y054634D02*
X07427D01*
X07301Y056366D02*
X07427D01*
X07301Y054634D02*
Y056366D01*
X07427Y054634D02*
Y056366D01*
X07422Y05659D02*
Y05741D01*
X07206D02*
X07422D01*
X07206Y05659D02*
Y05741D01*
Y05659D02*
X07422D01*
X07265Y057624D02*
Y05817D01*
Y057624D02*
X073831D01*
Y05817D01*
X07265D02*
X073831D01*
X07265Y058324D02*
Y058876D01*
Y058324D02*
X073831D01*
Y058876D01*
X07265D02*
X073831D01*
X07265Y059024D02*
Y059576D01*
Y059024D02*
X073831D01*
Y059576D01*
X07265D02*
X073831D01*
X07161Y06151D02*
Y062975D01*
Y063225D02*
Y06469D01*
X07368D01*
Y06151D02*
Y06469D01*
X07161Y06151D02*
X07368D01*
X074174Y063754D02*
X075906D01*
Y063046D02*
Y063754D01*
X074174Y063046D02*
X075906D01*
X074174D02*
Y063754D01*
X074883Y063085D02*
Y063754D01*
X074174Y062854D02*
X075906D01*
Y062146D02*
Y062854D01*
X074174Y062146D02*
X075906D01*
X074174D02*
Y062854D01*
X074883Y062185D02*
Y062854D01*
X076165Y062109D02*
X076716D01*
Y063291D01*
X076165D02*
X076716D01*
X076165Y062109D02*
Y063291D01*
X074174Y064654D02*
X075906D01*
Y063946D02*
Y064654D01*
X074174Y063946D02*
X075906D01*
X074174D02*
Y064654D01*
X074883Y063985D02*
Y064654D01*
X074591Y061528D02*
X083681D01*
X074591Y051688D02*
Y061528D01*
Y051688D02*
X083691D01*
Y061528D01*
X080665Y062209D02*
X081216D01*
Y063391D01*
X080665D02*
X081216D01*
X080665Y062209D02*
Y063391D01*
Y064791D02*
X08121D01*
X080665Y063609D02*
Y064791D01*
Y063609D02*
X08121D01*
Y064791D01*
X08397Y061934D02*
Y063666D01*
X08271Y061934D02*
Y063666D01*
X08397D01*
X08271Y061934D02*
X08397D01*
X08207Y061909D02*
X082616D01*
Y063091D01*
X08207D02*
X082616D01*
X08207Y061909D02*
Y063091D01*
X084086Y06192D02*
Y06328D01*
X084795D01*
Y06192D02*
Y06328D01*
X084086Y06192D02*
X084795D01*
X084965Y063091D02*
X08551D01*
X084965Y061909D02*
Y063091D01*
Y061909D02*
X08551D01*
Y063091D01*
X076165Y063409D02*
X076716D01*
Y064591D01*
X076165D02*
X076716D01*
X076165Y063409D02*
Y064591D01*
X08134Y0447D02*
Y04445D01*
X08139Y0444D01*
X08149D01*
X08154Y04445D01*
Y0447D01*
X08164Y04465D02*
X08169Y0447D01*
X08179D01*
X08184Y04465D01*
Y0446D01*
X08179Y04455D01*
X08174D01*
X08179D01*
X08184Y0445D01*
Y04445D01*
X08179Y0444D01*
X08169D01*
X08164Y04445D01*
X06934Y0452D02*
X06904D01*
Y04535D01*
X06909Y0454D01*
X06919D01*
X06924Y04535D01*
Y0452D01*
Y0453D02*
X06934Y0454D01*
X06904Y0457D02*
X06909Y0456D01*
X06919Y0455D01*
X06929D01*
X06934Y04555D01*
Y04565D01*
X06929Y0457D01*
X06924D01*
X06919Y04565D01*
Y0455D01*
X07454Y0475D02*
Y0478D01*
X07469D01*
X07474Y04775D01*
Y04765D01*
X07469Y0476D01*
X07454D01*
X07464D02*
X07474Y0475D01*
X07504D02*
X07484D01*
X07504Y0477D01*
Y04775D01*
X07499Y0478D01*
X07489D01*
X07484Y04775D01*
X07514Y0475D02*
X07524D01*
X07519D01*
Y0478D01*
X07514Y04775D01*
X07554Y04445D02*
X07549Y0445D01*
X07539D01*
X07534Y04445D01*
Y04425D01*
X07539Y0442D01*
X07549D01*
X07554Y04425D01*
X07584Y0442D02*
X07564D01*
X07584Y0444D01*
Y04445D01*
X07579Y0445D01*
X07569D01*
X07564Y04445D01*
X07344Y0463D02*
X07364D01*
X07354D01*
Y046D01*
X07374Y04625D02*
X07379Y0463D01*
X07389D01*
X07394Y04625D01*
Y0462D01*
X07389Y04615D01*
X07384D01*
X07389D01*
X07394Y0461D01*
Y04605D01*
X07389Y046D01*
X07379D01*
X07374Y04605D01*
X07084Y045D02*
X07104D01*
X07094D01*
Y0447D01*
X07114Y045D02*
X07134D01*
Y04495D01*
X07114Y04475D01*
Y0447D01*
X07184Y0429D02*
Y0432D01*
X07199D01*
X07204Y04315D01*
Y04305D01*
X07199Y043D01*
X07184D01*
X07194D02*
X07204Y0429D01*
X07214D02*
X07224D01*
X07219D01*
Y0432D01*
X07214Y04315D01*
X07259Y0432D02*
X07249Y04315D01*
X07239Y04305D01*
Y04295D01*
X07244Y0429D01*
X07254D01*
X07259Y04295D01*
Y043D01*
X07254Y04305D01*
X07239D01*
X07434Y0434D02*
Y0437D01*
X07449D01*
X07454Y04365D01*
Y04355D01*
X07449Y0435D01*
X07434D01*
X07444D02*
X07454Y0434D01*
X07464D02*
X07474D01*
X07469D01*
Y0437D01*
X07464Y04365D01*
X07509Y0434D02*
X07489D01*
X07509Y0436D01*
Y04365D01*
X07504Y0437D01*
X07494D01*
X07489Y04365D01*
X07414Y0432D02*
X07434D01*
X07424D01*
Y0429D01*
X07464D02*
X07444D01*
X07464Y0431D01*
Y04315D01*
X07459Y0432D01*
X07449D01*
X07444Y04315D01*
X07084Y0424D02*
X07104D01*
X07094D01*
Y0421D01*
X07134Y0424D02*
X07124Y04235D01*
X07114Y04225D01*
Y04215D01*
X07119Y0421D01*
X07129D01*
X07134Y04215D01*
Y0422D01*
X07129Y04225D01*
X07114D01*
X07614Y0414D02*
X07584D01*
Y04155D01*
X07589Y0416D01*
X07599D01*
X07604Y04155D01*
Y0414D01*
Y0415D02*
X07614Y0416D01*
Y0419D02*
Y0417D01*
X07594Y0419D01*
X07589D01*
X07584Y04185D01*
Y04175D01*
X07589Y0417D01*
Y042D02*
X07584Y04205D01*
Y04215D01*
X07589Y0422D01*
X07609D01*
X07614Y04215D01*
Y04205D01*
X07609Y042D01*
X07589D01*
X07504Y0429D02*
Y0432D01*
X07519D01*
X07524Y04315D01*
Y04305D01*
X07519Y043D01*
X07504D01*
X07514D02*
X07524Y0429D01*
X07534D02*
X07544D01*
X07539D01*
Y0432D01*
X07534Y04315D01*
X07559Y04295D02*
X07564Y0429D01*
X07574D01*
X07579Y04295D01*
Y04315D01*
X07574Y0432D01*
X07564D01*
X07559Y04315D01*
Y0431D01*
X07564Y04305D01*
X07579D01*
X074713Y040623D02*
X074663Y040673D01*
X074563D01*
X074513Y040623D01*
Y040423D01*
X074563Y040373D01*
X074663D01*
X074713Y040423D01*
X074813Y040373D02*
X074913D01*
X074863D01*
Y040673D01*
X074813Y040623D01*
X075063D02*
X075113Y040673D01*
X075213D01*
X075263Y040623D01*
Y040423D01*
X075213Y040373D01*
X075113D01*
X075063Y040423D01*
Y040623D01*
X07324Y0399D02*
Y0402D01*
X07339D01*
X07344Y04015D01*
Y04005D01*
X07339Y04D01*
X07324D01*
X07334D02*
X07344Y0399D01*
X07354Y0402D02*
X07374D01*
Y04015D01*
X07354Y03995D01*
Y0399D01*
X07174D02*
Y0402D01*
X07189D01*
X07194Y04015D01*
Y04005D01*
X07189Y04D01*
X07174D01*
X07184D02*
X07194Y0399D01*
X07204D02*
X07214D01*
X07209D01*
Y0402D01*
X07204Y04015D01*
X07249Y0402D02*
X07229D01*
Y04005D01*
X07239Y0401D01*
X07244D01*
X07249Y04005D01*
Y03995D01*
X07244Y0399D01*
X07234D01*
X07229Y03995D01*
X07644Y0443D02*
Y044D01*
X07659D01*
X07664Y04405D01*
Y04425D01*
X07659Y0443D01*
X07644D01*
X07694Y044D02*
X07674D01*
X07694Y0442D01*
Y04425D01*
X07689Y0443D01*
X07679D01*
X07674Y04425D01*
X08574Y0415D02*
X08544D01*
Y04165D01*
X08549Y0417D01*
X08559D01*
X08564Y04165D01*
Y0415D01*
Y0416D02*
X08574Y0417D01*
Y0418D02*
Y0419D01*
Y04185D01*
X08544D01*
X08549Y0418D01*
Y04205D02*
X08544Y0421D01*
Y0422D01*
X08549Y04225D01*
X08554D01*
X08559Y0422D01*
X08564Y04225D01*
X08569D01*
X08574Y0422D01*
Y0421D01*
X08569Y04205D01*
X08564D01*
X08559Y0421D01*
X08554Y04205D01*
X08549D01*
X08559Y0421D02*
Y0422D01*
X08574Y0429D02*
X08544D01*
Y04305D01*
X08549Y0431D01*
X08559D01*
X08564Y04305D01*
Y0429D01*
Y043D02*
X08574Y0431D01*
Y0432D02*
Y0433D01*
Y04325D01*
X08544D01*
X08549Y0432D01*
X08574Y0436D02*
X08544D01*
X08559Y04345D01*
Y04365D01*
X08574Y0446D02*
X08544D01*
Y04475D01*
X08549Y0448D01*
X08559D01*
X08564Y04475D01*
Y0446D01*
Y0447D02*
X08574Y0448D01*
Y0449D02*
Y045D01*
Y04495D01*
X08544D01*
X08549Y0449D01*
X08584Y0399D02*
Y0402D01*
X08599D01*
X08604Y04015D01*
Y04005D01*
X08599Y04D01*
X08584D01*
X08629Y0399D02*
Y0402D01*
X08614Y04005D01*
X08634D01*
X08214Y0422D02*
X08234D01*
X08224D01*
Y0419D01*
X08244Y04195D02*
X08249Y0419D01*
X08259D01*
X08264Y04195D01*
Y04215D01*
X08259Y0422D01*
X08249D01*
X08244Y04215D01*
Y0421D01*
X08249Y04205D01*
X08264D01*
X08214Y0433D02*
X08234D01*
X08224D01*
Y043D01*
X08264Y0433D02*
X08244D01*
Y04315D01*
X08254Y0432D01*
X08259D01*
X08264Y04315D01*
Y04305D01*
X08259Y043D01*
X08249D01*
X08244Y04305D01*
X08234Y0449D02*
X08254D01*
X08244D01*
Y0446D01*
X08264D02*
X08274D01*
X08269D01*
Y0449D01*
X08264Y04485D01*
X08264Y04695D02*
X08259Y047D01*
X08249D01*
X08244Y04695D01*
Y04675D01*
X08249Y0467D01*
X08259D01*
X08264Y04675D01*
X08274Y0467D02*
X08284D01*
X08279D01*
Y047D01*
X08274Y04695D01*
X08319Y0467D02*
X08299D01*
X08319Y0469D01*
Y04695D01*
X08314Y047D01*
X08304D01*
X08299Y04695D01*
X08234Y05015D02*
X08229Y0502D01*
X08219D01*
X08214Y05015D01*
Y04995D01*
X08219Y0499D01*
X08229D01*
X08234Y04995D01*
X08244Y0499D02*
X08254D01*
X08249D01*
Y0502D01*
X08244Y05015D01*
X08269D02*
X08274Y0502D01*
X08284D01*
X08289Y05015D01*
Y0501D01*
X08284Y05005D01*
X08279D01*
X08284D01*
X08289Y05D01*
Y04995D01*
X08284Y0499D01*
X08274D01*
X08269Y04995D01*
X08714Y047D02*
X08724D01*
X08719D01*
Y0467D01*
X08714D01*
X08724D01*
X08759Y04695D02*
X08754Y047D01*
X08744D01*
X08739Y04695D01*
Y04675D01*
X08744Y0467D01*
X08754D01*
X08759Y04675D01*
X08769Y0467D02*
X08779D01*
X08774D01*
Y047D01*
X08769Y04695D01*
X08789Y0503D02*
X08784Y05025D01*
Y05015D01*
X08789Y0501D01*
X08809D01*
X08814Y05015D01*
Y05025D01*
X08809Y0503D01*
X08814Y0504D02*
Y0505D01*
Y05045D01*
X08784D01*
X08789Y0504D01*
Y05065D02*
X08784Y0507D01*
Y0508D01*
X08789Y05085D01*
X08794D01*
X08799Y0508D01*
X08804Y05085D01*
X08809D01*
X08814Y0508D01*
Y0507D01*
X08809Y05065D01*
X08804D01*
X08799Y0507D01*
X08794Y05065D01*
X08789D01*
X08799Y0507D02*
Y0508D01*
X08669Y0542D02*
X08664Y05415D01*
Y05405D01*
X08669Y054D01*
X08689D01*
X08694Y05405D01*
Y05415D01*
X08689Y0542D01*
X08694Y05445D02*
X08664D01*
X08679Y0543D01*
Y0545D01*
X08669Y051767D02*
X08664Y051717D01*
Y051617D01*
X08669Y051567D01*
X08689D01*
X08694Y051617D01*
Y051717D01*
X08689Y051767D01*
X08669Y051867D02*
X08664Y051917D01*
Y052017D01*
X08669Y052067D01*
X08674D01*
X08679Y052017D01*
Y051967D01*
Y052017D01*
X08684Y052067D01*
X08689D01*
X08694Y052017D01*
Y051917D01*
X08689Y051867D01*
X08664Y05255D02*
Y05275D01*
X08659Y0528D01*
X08649D01*
X08644Y05275D01*
Y05255D01*
X08649Y0525D01*
X08659D01*
X08654Y0526D02*
X08664Y0525D01*
X08659D02*
X08664Y05255D01*
X08674Y0525D02*
X08684D01*
X08679D01*
Y0528D01*
X08674Y05275D01*
X08814Y0602D02*
X08804D01*
X08809D01*
Y05995D01*
X08804Y0599D01*
X08799D01*
X08794Y05995D01*
X08824Y0599D02*
X08834D01*
X08829D01*
Y0602D01*
X08824Y06015D01*
X08639Y0587D02*
X08634Y05865D01*
Y05855D01*
X08639Y0585D01*
X08659D01*
X08664Y05855D01*
Y05865D01*
X08659Y0587D01*
Y0588D02*
X08664Y05885D01*
Y05895D01*
X08659Y059D01*
X08639D01*
X08634Y05895D01*
Y05885D01*
X08639Y0588D01*
X08644D01*
X08649Y05885D01*
Y059D01*
X08664Y0555D02*
X08634D01*
Y05565D01*
X08639Y0557D01*
X08649D01*
X08654Y05565D01*
Y0555D01*
Y0556D02*
X08664Y0557D01*
X08639Y0558D02*
X08634Y05585D01*
Y05595D01*
X08639Y056D01*
X08644D01*
X08649Y05595D01*
Y0559D01*
Y05595D01*
X08654Y056D01*
X08659D01*
X08664Y05595D01*
Y05585D01*
X08659Y0558D01*
X08399Y0572D02*
X08394Y05715D01*
Y05705D01*
X08399Y057D01*
X08419D01*
X08424Y05705D01*
Y05715D01*
X08419Y0572D01*
X08424Y05745D02*
X08394D01*
X08409Y0573D01*
Y0575D01*
X08424Y05775D02*
X08394D01*
X08409Y0576D01*
Y0578D01*
X085137Y0549D02*
Y05465D01*
X085187Y0546D01*
X085287D01*
X085337Y05465D01*
Y0549D01*
X085587Y0546D02*
Y0549D01*
X085437Y05475D01*
X085637D01*
X08484Y05885D02*
X08479Y0589D01*
X08469D01*
X08464Y05885D01*
Y05865D01*
X08469Y0586D01*
X08479D01*
X08484Y05865D01*
X08509Y0586D02*
Y0589D01*
X08494Y05875D01*
X08514D01*
X08524Y0589D02*
X08544D01*
Y05885D01*
X08524Y05865D01*
Y0586D01*
X07434Y0606D02*
X07404D01*
Y06075D01*
X07409Y0608D01*
X07419D01*
X07424Y06075D01*
Y0606D01*
Y0607D02*
X07434Y0608D01*
Y0609D02*
Y061D01*
Y06095D01*
X07404D01*
X07409Y0609D01*
Y06115D02*
X07404Y0612D01*
Y0613D01*
X07409Y06135D01*
X07429D01*
X07434Y0613D01*
Y0612D01*
X07429Y06115D01*
X07409D01*
X07414Y06015D02*
X07409Y0602D01*
X07399D01*
X07394Y06015D01*
Y05995D01*
X07399Y0599D01*
X07409D01*
X07414Y05995D01*
X07444Y0602D02*
X07434Y06015D01*
X07424Y06005D01*
Y05995D01*
X07429Y0599D01*
X07439D01*
X07444Y05995D01*
Y06D01*
X07439Y06005D01*
X07424D01*
X07164Y0603D02*
Y0606D01*
X07179D01*
X07184Y06055D01*
Y06045D01*
X07179Y0604D01*
X07164D01*
X07174D02*
X07184Y0603D01*
X07194D02*
X07204D01*
X07199D01*
Y0606D01*
X07194Y06055D01*
X07219Y0603D02*
X07229D01*
X07224D01*
Y0606D01*
X07219Y06055D01*
X07094Y0605D02*
Y06025D01*
X07099Y0602D01*
X07109D01*
X07114Y06025D01*
Y0605D01*
X07124Y0602D02*
X07134D01*
X07129D01*
Y0605D01*
X07124Y06045D01*
X07084Y05765D02*
X07079Y0577D01*
X07069D01*
X07064Y05765D01*
Y05745D01*
X07069Y0574D01*
X07079D01*
X07084Y05745D01*
X07094Y05765D02*
X07099Y0577D01*
X07109D01*
X07114Y05765D01*
Y0576D01*
X07109Y05755D01*
X07114Y0575D01*
Y05745D01*
X07109Y0574D01*
X07099D01*
X07094Y05745D01*
Y0575D01*
X07099Y05755D01*
X07094Y0576D01*
Y05765D01*
X07099Y05755D02*
X07109D01*
X06914Y05185D02*
X06909Y0519D01*
X06899D01*
X06894Y05185D01*
Y05165D01*
X06899Y0516D01*
X06909D01*
X06914Y05165D01*
X06944Y0519D02*
X06924D01*
Y05175D01*
X06934Y0518D01*
X06939D01*
X06944Y05175D01*
Y05165D01*
X06939Y0516D01*
X06929D01*
X06924Y05165D01*
X06984Y05125D02*
X06979Y0513D01*
X06969D01*
X06964Y05125D01*
Y05105D01*
X06969Y051D01*
X06979D01*
X06984Y05105D01*
X06999Y051D02*
X07009D01*
X07014Y05105D01*
Y05115D01*
X07009Y0512D01*
X06999D01*
X06994Y05115D01*
Y05105D01*
X06999Y051D01*
X07024D02*
Y0512D01*
X07039D01*
X07044Y05115D01*
Y051D01*
X07054D02*
X07064D01*
X07059D01*
Y0513D01*
X07054Y05125D01*
X07214Y0514D02*
Y0517D01*
X07229D01*
X07234Y05165D01*
Y05155D01*
X07229Y0515D01*
X07214D01*
X07224D02*
X07234Y0514D01*
X07244D02*
X07254D01*
X07249D01*
Y0517D01*
X07244Y05165D01*
X07269Y0517D02*
X07289D01*
Y05165D01*
X07269Y05145D01*
Y0514D01*
X07234Y053135D02*
X07254D01*
X07244D01*
Y052835D01*
X07264Y053085D02*
X07269Y053135D01*
X07279D01*
X07284Y053085D01*
Y053035D01*
X07279Y052985D01*
X07284Y052935D01*
Y052885D01*
X07279Y052835D01*
X07269D01*
X07264Y052885D01*
Y052935D01*
X07269Y052985D01*
X07264Y053035D01*
Y053085D01*
X07269Y052985D02*
X07279D01*
X07214Y054D02*
Y0543D01*
X07229D01*
X07234Y05425D01*
Y05415D01*
X07229Y0541D01*
X07214D01*
X07224D02*
X07234Y054D01*
X07244D02*
X07254D01*
X07249D01*
Y0543D01*
X07244Y05425D01*
X07269D02*
X07274Y0543D01*
X07284D01*
X07289Y05425D01*
Y0542D01*
X07284Y05415D01*
X07279D01*
X07284D01*
X07289Y0541D01*
Y05405D01*
X07284Y054D01*
X07274D01*
X07269Y05405D01*
X07234Y0555D02*
X07254D01*
X07244D01*
Y0552D01*
X07279D02*
Y0555D01*
X07264Y05535D01*
X07284D01*
X07164Y05715D02*
X07159Y0572D01*
X07149D01*
X07144Y05715D01*
Y05695D01*
X07149Y0569D01*
X07159D01*
X07164Y05695D01*
X07174Y0569D02*
X07184D01*
X07179D01*
Y0572D01*
X07174Y05715D01*
X07414Y05795D02*
X07409Y058D01*
X07399D01*
X07394Y05795D01*
Y05775D01*
X07399Y0577D01*
X07409D01*
X07414Y05775D01*
X07424Y058D02*
X07444D01*
Y05795D01*
X07424Y05775D01*
Y0577D01*
X07394Y0585D02*
Y0588D01*
X07409D01*
X07414Y05875D01*
Y05865D01*
X07409Y0586D01*
X07394D01*
X07404D02*
X07414Y0585D01*
X07444Y0588D02*
X07424D01*
Y05865D01*
X07434Y0587D01*
X07439D01*
X07444Y05865D01*
Y05855D01*
X07439Y0585D01*
X07429D01*
X07424Y05855D01*
X07394Y0592D02*
Y0595D01*
X07409D01*
X07414Y05945D01*
Y05935D01*
X07409Y0593D01*
X07394D01*
X07404D02*
X07414Y0592D01*
X07439D02*
Y0595D01*
X07424Y05935D01*
X07444D01*
X07104Y0651D02*
Y06485D01*
X07109Y0648D01*
X07119D01*
X07124Y06485D01*
Y0651D01*
X07154D02*
X07144Y06505D01*
X07134Y06495D01*
Y06485D01*
X07139Y0648D01*
X07149D01*
X07154Y06485D01*
Y0649D01*
X07149Y06495D01*
X07134D01*
X07374Y0631D02*
X07404D01*
Y06325D01*
X07399Y0633D01*
X07379D01*
X07374Y06325D01*
Y0631D01*
Y0636D02*
Y0634D01*
X07389D01*
X07384Y0635D01*
Y06355D01*
X07389Y0636D01*
X07399D01*
X07404Y06355D01*
Y06345D01*
X07399Y0634D01*
X07534Y062D02*
Y0617D01*
X07549D01*
X07554Y06175D01*
Y06195D01*
X07549Y062D01*
X07534D01*
X07579Y0617D02*
Y062D01*
X07564Y06185D01*
X07584D01*
X07624Y0617D02*
Y062D01*
X07639D01*
X07644Y06195D01*
Y06185D01*
X07639Y0618D01*
X07624D01*
X07634D02*
X07644Y0617D01*
X07654Y06195D02*
X07659Y062D01*
X07669D01*
X07674Y06195D01*
Y0619D01*
X07669Y06185D01*
X07674Y0618D01*
Y06175D01*
X07669Y0617D01*
X07659D01*
X07654Y06175D01*
Y0618D01*
X07659Y06185D01*
X07654Y0619D01*
Y06195D01*
X07659Y06185D02*
X07669D01*
X07764Y065145D02*
X07759Y065195D01*
X07749D01*
X07744Y065145D01*
Y065095D01*
X07749Y065045D01*
X07759D01*
X07764Y064995D01*
Y064945D01*
X07759Y064895D01*
X07749D01*
X07744Y064945D01*
X07774Y065195D02*
Y064895D01*
X07784Y064995D01*
X07794Y064895D01*
Y065195D01*
X07804Y064895D02*
X07814D01*
X07809D01*
Y065195D01*
X07804Y065145D01*
X07514Y0651D02*
Y0648D01*
X07529D01*
X07534Y06485D01*
Y06505D01*
X07529Y0651D01*
X07514D01*
X07544Y06505D02*
X07549Y0651D01*
X07559D01*
X07564Y06505D01*
Y065D01*
X07559Y06495D01*
X07554D01*
X07559D01*
X07564Y0649D01*
Y06485D01*
X07559Y0648D01*
X07549D01*
X07544Y06485D01*
X08384Y0601D02*
Y05985D01*
X08389Y0598D01*
X08399D01*
X08404Y05985D01*
Y0601D01*
X08434D02*
X08414D01*
Y05995D01*
X08424Y06D01*
X08429D01*
X08434Y05995D01*
Y05985D01*
X08429Y0598D01*
X08419D01*
X08414Y05985D01*
X08074Y0618D02*
Y0621D01*
X08089D01*
X08094Y06205D01*
Y06195D01*
X08089Y0619D01*
X08074D01*
X08084D02*
X08094Y0618D01*
X08124D02*
X08104D01*
X08124Y062D01*
Y06205D01*
X08119Y0621D01*
X08109D01*
X08104Y06205D01*
X08084Y065145D02*
X08079Y065195D01*
X08069D01*
X08064Y065145D01*
Y064945D01*
X08069Y064895D01*
X08079D01*
X08084Y064945D01*
X08094Y064895D02*
X08104D01*
X08099D01*
Y065195D01*
X08094Y065145D01*
X08119Y064895D02*
X08129D01*
X08124D01*
Y065195D01*
X08119Y065145D01*
X08414Y0637D02*
Y06345D01*
X08419Y0634D01*
X08429D01*
X08434Y06345D01*
Y0637D01*
X08464Y0634D02*
X08444D01*
X08464Y0636D01*
Y06365D01*
X08459Y0637D01*
X08449D01*
X08444Y06365D01*
X08494Y0634D02*
X08474D01*
X08494Y0636D01*
Y06365D01*
X08489Y0637D01*
X08479D01*
X08474Y06365D01*
X08169Y0622D02*
X08164Y06215D01*
Y06205D01*
X08169Y062D01*
X08189D01*
X08194Y06205D01*
Y06215D01*
X08189Y0622D01*
X08169Y0623D02*
X08164Y06235D01*
Y06245D01*
X08169Y0625D01*
X08174D01*
X08179Y06245D01*
Y0624D01*
Y06245D01*
X08184Y0625D01*
X08189D01*
X08194Y06245D01*
Y06235D01*
X08189Y0623D01*
X08194Y06275D02*
X08164D01*
X08179Y0626D01*
Y0628D01*
X08564Y0649D02*
Y0652D01*
X08579D01*
X08584Y06515D01*
Y06505D01*
X08579Y065D01*
X08564D01*
X08614Y0649D02*
X08594D01*
X08614Y0651D01*
Y06515D01*
X08609Y0652D01*
X08599D01*
X08594Y06515D01*
X08439Y0609D02*
X08434Y06085D01*
Y06075D01*
X08439Y0607D01*
X08459D01*
X08464Y06075D01*
Y06085D01*
X08459Y0609D01*
X08464Y061D02*
Y0611D01*
Y06105D01*
X08434D01*
X08439Y061D01*
Y06125D02*
X08434Y0613D01*
Y0614D01*
X08439Y06145D01*
X08444D01*
X08449Y0614D01*
Y06135D01*
Y0614D01*
X08454Y06145D01*
X08459D01*
X08464Y0614D01*
Y0613D01*
X08459Y06125D01*
X08439Y06155D02*
X08434Y0616D01*
Y0617D01*
X08439Y06175D01*
X08459D01*
X08464Y0617D01*
Y0616D01*
X08459Y06155D01*
X08439D01*
X08509Y0612D02*
X08504Y06115D01*
Y06105D01*
X08509Y061D01*
X08529D01*
X08534Y06105D01*
Y06115D01*
X08529Y0612D01*
X08509Y0613D02*
X08504Y06135D01*
Y06145D01*
X08509Y0615D01*
X08514D01*
X08519Y06145D01*
Y0614D01*
Y06145D01*
X08524Y0615D01*
X08529D01*
X08534Y06145D01*
Y06135D01*
X08529Y0613D01*
X08534Y0618D02*
Y0616D01*
X08514Y0618D01*
X08509D01*
X08504Y06175D01*
Y06165D01*
X08509Y0616D01*
X0762Y06491D02*
Y06521D01*
X07635D01*
X0764Y06516D01*
Y06506D01*
X07635Y06501D01*
X0762D01*
X0763D02*
X0764Y06491D01*
X0765Y06496D02*
X07655Y06491D01*
X07665D01*
X0767Y06496D01*
Y06516D01*
X07665Y06521D01*
X07655D01*
X0765Y06516D01*
Y06511D01*
X07655Y06506D01*
X0767D01*
D35*
X080943Y042259D02*
G03*
X080943Y042259I-002303J0D01*
G01*
X079345Y063404D02*
G03*
X079345Y063404I-000702J0D01*
G01*
X08574Y04D02*
Y041D01*
X08274D02*
X08574D01*
X08274Y04D02*
Y041D01*
Y04D02*
X08574D01*
X087522Y059767D02*
X088252D01*
X087522Y055091D02*
Y059767D01*
Y055091D02*
X088252D01*
Y059767D01*
X069559Y050811D02*
X074139D01*
Y045881D02*
Y050811D01*
X069559Y045881D02*
X074139D01*
X069559D02*
Y050811D01*
X077293Y062004D02*
X079893D01*
X077293D02*
Y064804D01*
X079993D01*
Y062004D02*
Y064804D01*
X077293Y062004D02*
X079993D01*
X075148Y052829D02*
X08114D01*
Y051829D02*
Y052829D01*
X075148Y051829D02*
X08114D01*
X075148D02*
Y052829D01*
X076148Y061429D02*
X08214D01*
Y060429D02*
Y061429D01*
X076148Y060429D02*
X08214D01*
X076148D02*
Y061429D01*
X08454Y0639D02*
Y0649D01*
X08254D02*
X08454D01*
X08254Y0639D02*
Y0649D01*
Y0639D02*
X08454D01*
X08214Y0642D02*
X08174D01*
X08194Y064D02*
Y0644D01*
X08514Y0643D02*
X08474D01*
D48*
X087243Y047773D02*
G03*
X087243Y047773I-000049J0D01*
G01*
X072193Y054897D02*
G03*
X072193Y054897I-000049J0D01*
G01*
D49*
X086426Y048432D02*
G03*
X086426Y048432I-000118J0D01*
G01*
D50*
X070766Y059739D02*
G03*
X070766Y059739I-000118J0D01*
G01*
X086702Y048039D02*
Y050361D01*
X084379Y048039D02*
Y050361D01*
Y048039D02*
X086702D01*
X084379Y050361D02*
X086702D01*
X070412Y058007D02*
Y059976D01*
X071121Y058007D02*
Y059976D01*
X070412D02*
X071121D01*
X070412Y058007D02*
X071121D01*
D51*
X068109Y052318D02*
Y056216D01*
Y052318D02*
X068621D01*
X06992D02*
X070786D01*
X06992Y056216D02*
X070786D01*
X068109D02*
X068621D01*
X071888Y053066D02*
Y053381D01*
Y055153D02*
Y055468D01*
D52*
X08464Y0646D02*
Y064753D01*
X084717Y06483D01*
X084794Y064753D01*
Y0646D01*
Y064715D01*
X08464D01*
X08487Y06483D02*
Y0646D01*
Y064677D01*
X085024Y06483D01*
X084909Y064715D01*
X085024Y0646D01*
X0851Y06483D02*
Y0646D01*
Y064677D01*
X085253Y06483D01*
X085138Y064715D01*
X085253Y0646D01*
X08533Y06483D02*
Y064638D01*
X085368Y0646D01*
X085445D01*
X085483Y064638D01*
Y06483D01*
X08154Y0646D02*
Y064753D01*
X081617Y06483D01*
X081694Y064753D01*
Y0646D01*
Y064715D01*
X08154D01*
X08177Y06483D02*
Y0646D01*
Y064677D01*
X081924Y06483D01*
X081809Y064715D01*
X081924Y0646D01*
X082Y06483D02*
Y0646D01*
Y064677D01*
X082153Y06483D01*
X082038Y064715D01*
X082153Y0646D01*
X08223Y06483D02*
Y064638D01*
X082268Y0646D01*
X082345D01*
X082383Y064638D01*
Y06483D01*
X08151Y0401D02*
X081664D01*
X08174Y040177D01*
X081664Y040253D01*
X08151D01*
X081549Y040483D02*
X08151Y040445D01*
Y040368D01*
X081549Y04033D01*
X081702D01*
X08174Y040368D01*
Y040445D01*
X081702Y040483D01*
X081549Y040713D02*
X08151Y040675D01*
Y040598D01*
X081549Y04056D01*
X081702D01*
X08174Y040598D01*
Y040675D01*
X081702Y040713D01*
X081849Y040253D02*
X08181Y040215D01*
Y040138D01*
X081849Y0401D01*
X081887D01*
X081925Y040138D01*
Y040215D01*
X081964Y040253D01*
X082002D01*
X08204Y040215D01*
Y040138D01*
X082002Y0401D01*
X08181Y04033D02*
Y040407D01*
Y040368D01*
X08204D01*
Y04033D01*
Y040407D01*
X081849Y040675D02*
X08181Y040636D01*
Y04056D01*
X081849Y040522D01*
X082002D01*
X08204Y04056D01*
Y040636D01*
X082002Y040675D01*
X081925D01*
Y040598D01*
X08204Y040751D02*
X08181D01*
X08204Y040905D01*
X08181D01*
X08204Y040981D02*
X081887D01*
X08181Y041058D01*
X081887Y041135D01*
X08204D01*
X081925D01*
Y040981D01*
X08181Y041211D02*
X08204D01*
Y041365D01*
X082149Y040253D02*
X08211Y040215D01*
Y040138D01*
X082149Y0401D01*
X082302D01*
X08234Y040138D01*
Y040215D01*
X082302Y040253D01*
X082225D01*
Y040177D01*
X08234Y04033D02*
X08211D01*
X08234Y040483D01*
X08211D01*
Y04056D02*
X08234D01*
Y040675D01*
X082302Y040713D01*
X082149D01*
X08211Y040675D01*
Y04056D01*
X08584Y04553D02*
Y0453D01*
X085955D01*
X085994Y045338D01*
Y045377D01*
X085955Y045415D01*
X08584D01*
X085955D01*
X085994Y045453D01*
Y045492D01*
X085955Y04553D01*
X08584D01*
X08607D02*
X086147D01*
X086109D01*
Y0453D01*
X08607D01*
X086147D01*
X086262Y04553D02*
Y0453D01*
Y045377D01*
X086415Y04553D01*
X0863Y045415D01*
X086415Y0453D01*
X086645Y04553D02*
X086492D01*
Y0453D01*
X086645D01*
X086492Y045415D02*
X086568D01*
X086722Y045262D02*
X086875D01*
X087105Y045492D02*
X087067Y04553D01*
X08699D01*
X086952Y045492D01*
Y045338D01*
X08699Y0453D01*
X087067D01*
X087105Y045338D01*
Y045415D01*
X087028D01*
X087182Y0453D02*
Y04553D01*
X087297D01*
X087335Y045492D01*
Y045415D01*
X087297Y045377D01*
X087182D01*
X087565Y045492D02*
X087526Y04553D01*
X08745D01*
X087411Y045492D01*
Y045453D01*
X08745Y045415D01*
X087526D01*
X087565Y045377D01*
Y045338D01*
X087526Y0453D01*
X08745D01*
X087411Y045338D01*
X087641Y045262D02*
X087795D01*
X087871Y045453D02*
X087948Y0453D01*
X088025Y045453D01*
X088101Y0453D02*
X088178D01*
X08814D01*
Y04553D01*
X088101Y045492D01*
X08574Y04593D02*
Y0457D01*
Y045777D01*
X085894Y04593D01*
X085779Y045815D01*
X085894Y0457D01*
X086124Y04593D02*
X08597D01*
Y0457D01*
X086124D01*
X08597Y045815D02*
X086047D01*
X0862Y0457D02*
Y04593D01*
X086315D01*
X086353Y045892D01*
Y045815D01*
X086315Y045777D01*
X0862D01*
X086277D02*
X086353Y0457D01*
X08643Y04593D02*
X086583D01*
X086507D01*
Y0457D01*
X086813Y04593D02*
X08666D01*
Y0457D01*
X086813D01*
X08666Y045815D02*
X086737D01*
X087043Y045892D02*
X087005Y04593D01*
X086928D01*
X08689Y045892D01*
Y045853D01*
X086928Y045815D01*
X087005D01*
X087043Y045777D01*
Y045738D01*
X087005Y0457D01*
X086928D01*
X08689Y045738D01*
X08712Y04593D02*
X087273D01*
Y045892D01*
X08712Y045738D01*
Y0457D01*
X087273D01*
X087503Y045892D02*
X087465Y04593D01*
X087388D01*
X08735Y045892D01*
Y045853D01*
X087388Y045815D01*
X087465D01*
X087503Y045777D01*
Y045738D01*
X087465Y0457D01*
X087388D01*
X08735Y045738D01*
X08758Y0457D02*
Y045853D01*
X087656Y04593D01*
X087733Y045853D01*
Y0457D01*
Y045815D01*
X08758D01*
X087963Y045892D02*
X087925Y04593D01*
X087848D01*
X08781Y045892D01*
Y045853D01*
X087848Y045815D01*
X087925D01*
X087963Y045777D01*
Y045738D01*
X087925Y0457D01*
X087848D01*
X08781Y045738D01*
X08804Y0457D02*
Y045853D01*
X088116Y04593D01*
X088193Y045853D01*
Y0457D01*
Y045815D01*
X08804D01*
X08624Y056692D02*
X086279Y05673D01*
X086355D01*
X086394Y056692D01*
Y056653D01*
X086355Y056615D01*
X086317D01*
X086355D01*
X086394Y056577D01*
Y056538D01*
X086355Y0565D01*
X086279D01*
X08624Y056538D01*
X08647Y0565D02*
Y056538D01*
X086509D01*
Y0565D01*
X08647D01*
X086662Y056692D02*
X0867Y05673D01*
X086777D01*
X086815Y056692D01*
Y056653D01*
X086777Y056615D01*
X086738D01*
X086777D01*
X086815Y056577D01*
Y056538D01*
X086777Y0565D01*
X0867D01*
X086662Y056538D01*
X086892Y05673D02*
Y056577D01*
X086968Y0565D01*
X087045Y056577D01*
Y05673D01*
X08624Y0568D02*
Y05703D01*
X086355D01*
X086394Y056992D01*
Y056915D01*
X086355Y056877D01*
X08624D01*
X086317D02*
X086394Y0568D01*
X086624Y05703D02*
X08647D01*
Y0568D01*
X086624D01*
X08647Y056915D02*
X086547D01*
X086853Y056992D02*
X086815Y05703D01*
X086738D01*
X0867Y056992D01*
Y056953D01*
X086738Y056915D01*
X086815D01*
X086853Y056877D01*
Y056838D01*
X086815Y0568D01*
X086738D01*
X0867Y056838D01*
X087083Y05703D02*
X08693D01*
Y0568D01*
X087083D01*
X08693Y056915D02*
X087007D01*
X08716Y05703D02*
X087313D01*
X087237D01*
Y0568D01*
X086394Y057292D02*
X086355Y05733D01*
X086279D01*
X08624Y057292D01*
Y057253D01*
X086279Y057215D01*
X086355D01*
X086394Y057177D01*
Y057138D01*
X086355Y0571D01*
X086279D01*
X08624Y057138D01*
X086624Y057292D02*
X086585Y05733D01*
X086509D01*
X08647Y057292D01*
Y057138D01*
X086509Y0571D01*
X086585D01*
X086624Y057138D01*
X0867Y05733D02*
Y0571D01*
Y057177D01*
X086853Y05733D01*
X086738Y057215D01*
X086853Y0571D01*
X08624Y0574D02*
Y05763D01*
X086317Y057553D01*
X086394Y05763D01*
Y0574D01*
X08647Y05763D02*
X086547D01*
X086509D01*
Y0574D01*
X08647D01*
X086547D01*
X086815Y057592D02*
X086777Y05763D01*
X0867D01*
X086662Y057592D01*
Y057553D01*
X0867Y057515D01*
X086777D01*
X086815Y057477D01*
Y057438D01*
X086777Y0574D01*
X0867D01*
X086662Y057438D01*
X087007Y05763D02*
X08693D01*
X086892Y057592D01*
Y057438D01*
X08693Y0574D01*
X087007D01*
X087045Y057438D01*
Y057592D01*
X087007Y05763D01*
X08624Y0577D02*
Y05793D01*
X086317Y057853D01*
X086394Y05793D01*
Y0577D01*
X086585Y05793D02*
X086509D01*
X08647Y057892D01*
Y057738D01*
X086509Y0577D01*
X086585D01*
X086624Y057738D01*
Y057892D01*
X086585Y05793D01*
X086853Y057892D02*
X086815Y05793D01*
X086738D01*
X0867Y057892D01*
Y057853D01*
X086738Y057815D01*
X086815D01*
X086853Y057777D01*
Y057738D01*
X086815Y0577D01*
X086738D01*
X0867Y057738D01*
X08693Y05793D02*
X087007D01*
X086968D01*
Y0577D01*
X08693D01*
X087007D01*
X086394Y058192D02*
X086355Y05823D01*
X086279D01*
X08624Y058192D01*
Y058038D01*
X086279Y058D01*
X086355D01*
X086394Y058038D01*
Y058115D01*
X086317D01*
X08647Y058D02*
Y05823D01*
X086624Y058D01*
Y05823D01*
X0867D02*
Y058D01*
X086815D01*
X086853Y058038D01*
Y058192D01*
X086815Y05823D01*
X0867D01*
M02*
