G04 Layer_Color=8388736*
%FSTAX24Y24*%
%MOIN*%
G70*
G01*
G75*
%ADD53O,0.1064X0.0474*%
%ADD54R,0.0395X0.0454*%
%ADD55R,0.0454X0.0395*%
%ADD56R,0.0710X0.0710*%
%ADD57R,0.0336X0.0552*%
%ADD58R,0.0552X0.0336*%
%ADD59O,0.0730X0.0297*%
%ADD60O,0.0297X0.0730*%
%ADD61R,0.0631X0.0671*%
%ADD62R,0.0178X0.0336*%
%ADD63R,0.0336X0.0178*%
%ADD64C,0.0139*%
%ADD65R,0.0474X0.0592*%
%ADD66R,0.1025X0.0316*%
%ADD67O,0.1025X0.0316*%
%ADD68R,0.1064X0.0867*%
%ADD69R,0.0986X0.0277*%
%ADD70R,0.0710X0.0710*%
%ADD71R,0.0330X0.0940*%
%ADD72O,0.0330X0.0940*%
%ADD73R,0.1480X0.0980*%
%ADD74R,0.0552X0.0552*%
%ADD75R,0.0592X0.0474*%
%ADD76C,0.0671*%
%ADD77R,0.0671X0.0671*%
%ADD78R,0.0671X0.0671*%
%ADD79C,0.0592*%
%ADD80R,0.0592X0.0592*%
%ADD81C,0.0316*%
%ADD82C,0.0789*%
%ADD83C,0.0380*%
%ADD84C,0.0780*%
%ADD85C,0.0671*%
%ADD86C,0.2442*%
%ADD87C,0.0400*%
D53*
X081199Y045761D02*
D03*
Y046761D02*
D03*
Y047761D02*
D03*
Y048761D02*
D03*
Y049761D02*
D03*
Y050761D02*
D03*
X076081Y045761D02*
D03*
Y046761D02*
D03*
Y047761D02*
D03*
Y048761D02*
D03*
Y049761D02*
D03*
Y050761D02*
D03*
D54*
X069786Y0454D02*
D03*
X070495D02*
D03*
X071786Y0435D02*
D03*
X072495D02*
D03*
X073895D02*
D03*
X073186D02*
D03*
X075395Y0418D02*
D03*
X074686D02*
D03*
X074686Y0425D02*
D03*
X075395D02*
D03*
X075395Y0411D02*
D03*
X074686D02*
D03*
X073895Y0406D02*
D03*
X073186D02*
D03*
X071786D02*
D03*
X072495D02*
D03*
X087286Y0542D02*
D03*
X087995D02*
D03*
Y0518D02*
D03*
X087286D02*
D03*
X084786Y0573D02*
D03*
X085495D02*
D03*
X072986Y061D02*
D03*
X073695D02*
D03*
X072886Y06D02*
D03*
X073595D02*
D03*
X071686Y061D02*
D03*
X072395D02*
D03*
X070136Y057613D02*
D03*
X069428D02*
D03*
X073286Y0516D02*
D03*
X073995D02*
D03*
X073995Y0542D02*
D03*
X073286D02*
D03*
X073595Y0579D02*
D03*
X072886D02*
D03*
X073595Y0586D02*
D03*
X072886D02*
D03*
X073595Y0593D02*
D03*
X072886D02*
D03*
D55*
X07484Y047154D02*
D03*
Y046446D02*
D03*
X08504Y041546D02*
D03*
Y042254D02*
D03*
Y043654D02*
D03*
Y042946D02*
D03*
X08504Y045154D02*
D03*
Y044446D02*
D03*
X08254Y048154D02*
D03*
Y047446D02*
D03*
Y049454D02*
D03*
Y048746D02*
D03*
X088019Y049691D02*
D03*
Y048982D02*
D03*
X08714Y059354D02*
D03*
Y058646D02*
D03*
Y055446D02*
D03*
Y056154D02*
D03*
X07644Y063054D02*
D03*
Y062346D02*
D03*
X08094Y063154D02*
D03*
Y062446D02*
D03*
Y063846D02*
D03*
Y064554D02*
D03*
X08234Y062854D02*
D03*
Y062146D02*
D03*
X08524D02*
D03*
Y062854D02*
D03*
X07644Y064354D02*
D03*
Y063646D02*
D03*
D56*
X07474Y045669D02*
D03*
Y044331D02*
D03*
D57*
X073914Y044278D02*
D03*
X073166D02*
D03*
X07354Y045322D02*
D03*
X072514Y044278D02*
D03*
X071766D02*
D03*
X07214Y045322D02*
D03*
X073877Y041379D02*
D03*
X073129D02*
D03*
X073503Y042424D02*
D03*
X072514Y041378D02*
D03*
X071766D02*
D03*
X07214Y042422D02*
D03*
X074014Y052378D02*
D03*
X073266D02*
D03*
X07364Y053422D02*
D03*
X074014Y054978D02*
D03*
X073266D02*
D03*
X07364Y056022D02*
D03*
X08334Y063322D02*
D03*
X082966Y062278D02*
D03*
X083714D02*
D03*
D58*
X084263Y042274D02*
D03*
Y041526D02*
D03*
X083218Y0419D02*
D03*
X084248Y043637D02*
D03*
Y042889D02*
D03*
X083203Y043263D02*
D03*
X084263Y045174D02*
D03*
Y044426D02*
D03*
X083218Y0448D02*
D03*
D59*
X087194Y048098D02*
D03*
Y048413D02*
D03*
Y048728D02*
D03*
Y049043D02*
D03*
Y049357D02*
D03*
Y049672D02*
D03*
Y049987D02*
D03*
Y050302D02*
D03*
X083887D02*
D03*
Y049987D02*
D03*
Y049672D02*
D03*
Y049357D02*
D03*
Y049043D02*
D03*
Y048728D02*
D03*
Y048413D02*
D03*
Y048098D02*
D03*
D60*
X086643Y050854D02*
D03*
X086328D02*
D03*
X086013D02*
D03*
X085698D02*
D03*
X085383D02*
D03*
X085068D02*
D03*
X084753D02*
D03*
X084438D02*
D03*
Y047546D02*
D03*
X084753D02*
D03*
X085068D02*
D03*
X085383D02*
D03*
X085698D02*
D03*
X086013D02*
D03*
X086328D02*
D03*
X086643D02*
D03*
D61*
X087305Y05344D02*
D03*
X087935D02*
D03*
Y052574D02*
D03*
X087305D02*
D03*
D62*
X085137Y055359D02*
D03*
X08494D02*
D03*
X084743D02*
D03*
Y056441D02*
D03*
X08494D02*
D03*
X085137D02*
D03*
D63*
X084399Y055506D02*
D03*
Y055703D02*
D03*
Y0559D02*
D03*
Y056097D02*
D03*
Y056294D02*
D03*
X085482D02*
D03*
Y056097D02*
D03*
Y0559D02*
D03*
Y055703D02*
D03*
Y055506D02*
D03*
D64*
X084596Y056412D02*
D03*
D65*
X084747Y0581D02*
D03*
X085534D02*
D03*
D66*
X069782Y059741D02*
D03*
D67*
Y059241D02*
D03*
Y058741D02*
D03*
Y058241D02*
D03*
X071751Y059741D02*
D03*
Y059241D02*
D03*
Y058741D02*
D03*
Y058241D02*
D03*
D68*
X071436Y052515D02*
D03*
Y056019D02*
D03*
X06927D02*
D03*
Y052515D02*
D03*
D69*
X071475Y053637D02*
D03*
Y053952D02*
D03*
Y054267D02*
D03*
Y054582D02*
D03*
Y054897D02*
D03*
D70*
X072471Y057D02*
D03*
X07381D02*
D03*
D71*
X07189Y06204D02*
D03*
D72*
X07239D02*
D03*
X07289D02*
D03*
X07339D02*
D03*
X07189Y06416D02*
D03*
X07239D02*
D03*
X07289D02*
D03*
X07339D02*
D03*
D73*
X07264Y0631D02*
D03*
D74*
X074528Y0634D02*
D03*
X075552D02*
D03*
X074528Y0625D02*
D03*
X075552D02*
D03*
X074528Y0643D02*
D03*
X075552D02*
D03*
D75*
X08444Y062206D02*
D03*
Y062994D02*
D03*
D76*
X07714Y042259D02*
D03*
X08424Y0405D02*
D03*
X08524D02*
D03*
X07564Y052329D02*
D03*
X07664D02*
D03*
X07764D02*
D03*
X07864D02*
D03*
X07964D02*
D03*
X07664Y060929D02*
D03*
X07764D02*
D03*
X07864D02*
D03*
X07964D02*
D03*
X08064D02*
D03*
X08404Y0644D02*
D03*
D77*
X08014Y042259D02*
D03*
D78*
X08324Y0405D02*
D03*
X08164Y060929D02*
D03*
X08304Y0644D02*
D03*
D79*
X087892Y059398D02*
D03*
Y05861D02*
D03*
Y057823D02*
D03*
Y056248D02*
D03*
Y057035D02*
D03*
D80*
Y055461D02*
D03*
D81*
X070451Y055133D02*
D03*
Y053401D02*
D03*
D82*
X072638Y047377D02*
D03*
Y049346D02*
D03*
Y046393D02*
D03*
Y05033D02*
D03*
X070669Y048361D02*
D03*
D83*
X07215Y06335D02*
D03*
X07263D02*
D03*
X07311D02*
D03*
X07215Y06285D02*
D03*
X07263D02*
D03*
X07311D02*
D03*
D84*
X079923Y062518D02*
D03*
X077364D02*
D03*
X079923Y06429D02*
D03*
X077364D02*
D03*
D85*
X08064Y052329D02*
D03*
D86*
X087302Y041078D02*
D03*
X069979Y041078D02*
D03*
X087302Y063913D02*
D03*
X069979D02*
D03*
X087302Y043637D02*
D03*
Y061354D02*
D03*
X069979Y043637D02*
D03*
Y061354D02*
D03*
D87*
X087994Y048013D02*
D03*
M02*
