%FSTAX24Y24*%
%MOIN*%
G70*
G01*
G75*
G04 Layer_Color=8388736*
%ADD10R,0.0472X0.0256*%
%ADD11R,0.1575X0.0591*%
%ADD12R,0.0591X0.1575*%
%ADD13R,0.0315X0.0374*%
%ADD14R,0.0374X0.0315*%
%ADD15R,0.1063X0.0512*%
%ADD16R,0.1500X0.1100*%
%ADD17R,0.1575X0.2165*%
%ADD18R,0.0374X0.1004*%
%ADD19R,0.1299X0.1004*%
%ADD20R,0.2362X0.2598*%
%ADD21R,0.0591X0.0866*%
%ADD22R,0.1301X0.0801*%
%ADD23R,0.0866X0.0591*%
%ADD24R,0.2598X0.2362*%
%ADD25R,0.0256X0.0472*%
%ADD26O,0.0472X0.0217*%
%ADD27R,0.0472X0.0217*%
G04:AMPARAMS|DCode=28|XSize=21.7mil|YSize=47.2mil|CornerRadius=0mil|HoleSize=0mil|Usage=FLASHONLY|Rotation=90.000|XOffset=0mil|YOffset=0mil|HoleType=Round|Shape=Octagon|*
%AMOCTAGOND28*
4,1,8,-0.0236,-0.0054,-0.0236,0.0054,-0.0182,0.0108,0.0182,0.0108,0.0236,0.0054,0.0236,-0.0054,0.0182,-0.0108,-0.0182,-0.0108,-0.0236,-0.0054,0.0*
%
%ADD28OCTAGOND28*%

%ADD29O,0.0945X0.0236*%
%ADD30R,0.0945X0.0236*%
%ADD31R,0.0492X0.0630*%
%ADD32R,0.0630X0.0492*%
%ADD33C,0.0100*%
%ADD34C,0.0709*%
%ADD35C,0.0300*%
%ADD36R,0.0591X0.0591*%
%ADD37C,0.0591*%
%ADD38R,0.0591X0.0591*%
%ADD39C,0.0320*%
%ADD40C,0.0500*%
%ADD41C,0.0200*%
%ADD42R,0.0552X0.0336*%
%ADD43R,0.1655X0.0671*%
%ADD44R,0.0671X0.1655*%
%ADD45R,0.0395X0.0454*%
%ADD46R,0.0454X0.0395*%
%ADD47R,0.1143X0.0592*%
%ADD48R,0.1580X0.1180*%
%ADD49R,0.1655X0.2245*%
%ADD50R,0.0454X0.1084*%
%ADD51R,0.1379X0.1084*%
%ADD52R,0.2442X0.2678*%
%ADD53R,0.0671X0.0946*%
%ADD54R,0.1381X0.0881*%
%ADD55R,0.0946X0.0671*%
%ADD56R,0.2678X0.2442*%
%ADD57R,0.0336X0.0552*%
%ADD58O,0.0512X0.0256*%
%ADD59R,0.0512X0.0256*%
G04:AMPARAMS|DCode=60|XSize=25.6mil|YSize=51.2mil|CornerRadius=0mil|HoleSize=0mil|Usage=FLASHONLY|Rotation=90.000|XOffset=0mil|YOffset=0mil|HoleType=Round|Shape=Octagon|*
%AMOCTAGOND60*
4,1,8,-0.0256,-0.0064,-0.0256,0.0064,-0.0192,0.0128,0.0192,0.0128,0.0256,0.0064,0.0256,-0.0064,0.0192,-0.0128,-0.0192,-0.0128,-0.0256,-0.0064,0.0*
%
%ADD60OCTAGOND60*%

%ADD61O,0.1025X0.0316*%
%ADD62R,0.1025X0.0316*%
%ADD63R,0.0572X0.0710*%
%ADD64R,0.0710X0.0572*%
%ADD65R,0.0671X0.0671*%
%ADD66C,0.0671*%
%ADD67R,0.0671X0.0671*%
%ADD68C,0.0400*%
%ADD69C,0.0580*%
D42*
X030432Y02343D02*
D03*
X029388Y023804D02*
D03*
Y023056D02*
D03*
X028532Y02343D02*
D03*
X027488Y023804D02*
D03*
Y023056D02*
D03*
X026746Y025787D02*
D03*
X027791Y025413D02*
D03*
Y026161D02*
D03*
X028714Y025787D02*
D03*
X029759Y025413D02*
D03*
Y026161D02*
D03*
D43*
X040693Y034843D02*
D03*
X037465D02*
D03*
D44*
X03967Y02248D02*
D03*
Y019252D02*
D03*
X025143D02*
D03*
Y02248D02*
D03*
D45*
X036874Y024016D02*
D03*
X036166D02*
D03*
X038252D02*
D03*
X037544D02*
D03*
X02593Y030512D02*
D03*
X026638D02*
D03*
X033725Y027362D02*
D03*
X033016D02*
D03*
X032622Y023031D02*
D03*
X033331D02*
D03*
X033804Y024016D02*
D03*
X034512D02*
D03*
X034985Y033661D02*
D03*
X035693D02*
D03*
X025457Y024016D02*
D03*
X024748D02*
D03*
X023685D02*
D03*
X022977D02*
D03*
X028095Y024409D02*
D03*
X028804D02*
D03*
X024552Y027362D02*
D03*
X02526D02*
D03*
X031835Y031693D02*
D03*
X032544D02*
D03*
X026717Y024409D02*
D03*
X027426D02*
D03*
X02526Y02815D02*
D03*
X024552D02*
D03*
X030575Y028937D02*
D03*
X029867D02*
D03*
X030575Y029921D02*
D03*
X029867D02*
D03*
X028016Y027756D02*
D03*
X027307D02*
D03*
X027307Y026969D02*
D03*
X028016D02*
D03*
X029473Y024409D02*
D03*
X030182D02*
D03*
X030851D02*
D03*
X031559D02*
D03*
X023685Y033071D02*
D03*
X022977D02*
D03*
X031835Y03248D02*
D03*
X032544D02*
D03*
X023685Y024803D02*
D03*
X022977D02*
D03*
X025457D02*
D03*
X024748D02*
D03*
D46*
X023725Y02878D02*
D03*
Y029488D02*
D03*
X03082Y025976D02*
D03*
Y026684D02*
D03*
X034945Y02563D02*
D03*
Y026339D02*
D03*
X03337Y03252D02*
D03*
Y033228D02*
D03*
Y03185D02*
D03*
Y031142D02*
D03*
X035142Y023386D02*
D03*
Y022677D02*
D03*
D47*
X026087Y033821D02*
D03*
Y034963D02*
D03*
Y036931D02*
D03*
Y035789D02*
D03*
D48*
X035172Y032052D02*
D03*
Y029052D02*
D03*
D49*
X040654Y026911D02*
D03*
X036717D02*
D03*
D50*
X033843Y034656D02*
D03*
X034748D02*
D03*
X035654D02*
D03*
X030693D02*
D03*
X031599D02*
D03*
X032504D02*
D03*
D51*
X034748Y036998D02*
D03*
X031599D02*
D03*
D52*
X02904Y019882D02*
D03*
X023725Y03636D02*
D03*
D53*
X02814Y022244D02*
D03*
X02994D02*
D03*
X024625Y033998D02*
D03*
X022825D02*
D03*
D54*
X036323Y018976D02*
D03*
Y021576D02*
D03*
X031599D02*
D03*
Y018976D02*
D03*
X034748D02*
D03*
Y021576D02*
D03*
X033174D02*
D03*
Y018976D02*
D03*
D55*
X040851Y030202D02*
D03*
Y032002D02*
D03*
D56*
X038489Y031102D02*
D03*
D57*
X033174Y030444D02*
D03*
X0328Y029399D02*
D03*
X033548D02*
D03*
X031796Y030444D02*
D03*
X031422Y029399D02*
D03*
X03217D02*
D03*
D58*
X035801Y022657D02*
D03*
Y023031D02*
D03*
X036835Y022657D02*
D03*
Y023406D02*
D03*
X024974Y028957D02*
D03*
Y029331D02*
D03*
X026008Y028957D02*
D03*
Y029705D02*
D03*
D59*
X035801Y023406D02*
D03*
X027927Y030886D02*
D03*
Y029508D02*
D03*
X024974Y029705D02*
D03*
D60*
X028961Y030886D02*
D03*
Y030138D02*
D03*
X027927Y030512D02*
D03*
Y030138D02*
D03*
X028961Y029508D02*
D03*
Y02876D02*
D03*
X027927Y029134D02*
D03*
Y02876D02*
D03*
D61*
X033764Y025037D02*
D03*
Y025537D02*
D03*
Y026037D02*
D03*
Y026537D02*
D03*
X031796Y025037D02*
D03*
Y025537D02*
D03*
Y026037D02*
D03*
D62*
Y026537D02*
D03*
D63*
X031117Y033268D02*
D03*
X032475D02*
D03*
X026372Y032874D02*
D03*
X025014D02*
D03*
D64*
X026087Y02688D02*
D03*
Y028238D02*
D03*
D65*
X040654Y037402D02*
D03*
X039654D02*
D03*
X02274Y03159D02*
D03*
X02275Y02615D02*
D03*
D66*
X038654Y037402D02*
D03*
X037654D02*
D03*
X022741Y022488D02*
D03*
Y021488D02*
D03*
X02752Y03444D02*
D03*
X02374Y03159D02*
D03*
X02474D02*
D03*
X02475Y02615D02*
D03*
X02375D02*
D03*
D67*
X022741Y020488D02*
D03*
Y019488D02*
D03*
X02752Y03544D02*
D03*
D68*
X034945Y024803D02*
D03*
X027268Y029921D02*
D03*
Y02874D02*
D03*
X03231Y02787D02*
D03*
X03535Y024016D02*
D03*
X02422Y02402D02*
D03*
X024315Y030315D02*
D03*
X035339Y035827D02*
D03*
X02431Y03304D02*
D03*
X031599Y03581D02*
D03*
X03093Y02504D02*
D03*
X028952Y026969D02*
D03*
X02896Y03169D02*
D03*
X03372Y02801D02*
D03*
X0392Y02387D02*
D03*
X03211Y02305D02*
D03*
X03326Y02405D02*
D03*
X03422Y02311D02*
D03*
D69*
X035142Y031102D02*
D03*
X038292Y022835D02*
D03*
X040654Y019488D02*
D03*
M02*
