%FSTAX24Y24*%
%MOIN*%
G70*
G01*
G75*
G04 Layer_Physical_Order=1*
G04 Layer_Color=255*
%ADD10R,0.0472X0.0256*%
%ADD11R,0.1575X0.0591*%
%ADD12R,0.0591X0.1575*%
%ADD13R,0.0315X0.0374*%
%ADD14R,0.0374X0.0315*%
%ADD15R,0.1063X0.0512*%
%ADD16R,0.1500X0.1100*%
%ADD17R,0.1575X0.2165*%
%ADD18R,0.0374X0.1004*%
%ADD19R,0.1299X0.1004*%
%ADD20R,0.2362X0.2598*%
%ADD21R,0.0591X0.0866*%
%ADD22R,0.1301X0.0801*%
%ADD23R,0.0866X0.0591*%
%ADD24R,0.2598X0.2362*%
%ADD25R,0.0256X0.0472*%
%ADD26O,0.0472X0.0217*%
%ADD27R,0.0472X0.0217*%
G04:AMPARAMS|DCode=28|XSize=21.7mil|YSize=47.2mil|CornerRadius=0mil|HoleSize=0mil|Usage=FLASHONLY|Rotation=90.000|XOffset=0mil|YOffset=0mil|HoleType=Round|Shape=Octagon|*
%AMOCTAGOND28*
4,1,8,-0.0236,-0.0054,-0.0236,0.0054,-0.0182,0.0108,0.0182,0.0108,0.0236,0.0054,0.0236,-0.0054,0.0182,-0.0108,-0.0182,-0.0108,-0.0236,-0.0054,0.0*
%
%ADD28OCTAGOND28*%

%ADD29O,0.0945X0.0236*%
%ADD30R,0.0945X0.0236*%
%ADD31R,0.0492X0.0630*%
%ADD32R,0.0630X0.0492*%
%ADD33C,0.0100*%
%ADD34C,0.0709*%
%ADD35C,0.0300*%
%ADD36R,0.0591X0.0591*%
%ADD37C,0.0591*%
%ADD38R,0.0591X0.0591*%
%ADD39C,0.0320*%
%ADD40C,0.0500*%
D10*
X030432Y02343D02*
D03*
X029388Y023804D02*
D03*
Y023056D02*
D03*
X028532Y02343D02*
D03*
X027488Y023804D02*
D03*
Y023056D02*
D03*
X026746Y025787D02*
D03*
X027791Y025413D02*
D03*
Y026161D02*
D03*
X028714Y025787D02*
D03*
X029759Y025413D02*
D03*
Y026161D02*
D03*
D11*
X040693Y034843D02*
D03*
X037465D02*
D03*
D12*
X03967Y02248D02*
D03*
Y019252D02*
D03*
X025143D02*
D03*
Y02248D02*
D03*
D13*
X036874Y024016D02*
D03*
X036166D02*
D03*
X038252D02*
D03*
X037544D02*
D03*
X02593Y030512D02*
D03*
X026638D02*
D03*
X033725Y027362D02*
D03*
X033016D02*
D03*
X032622Y023031D02*
D03*
X033331D02*
D03*
X033804Y024016D02*
D03*
X034512D02*
D03*
X034985Y033661D02*
D03*
X035693D02*
D03*
X025457Y024016D02*
D03*
X024748D02*
D03*
X023685D02*
D03*
X022977D02*
D03*
X028095Y024409D02*
D03*
X028804D02*
D03*
X024552Y027362D02*
D03*
X02526D02*
D03*
X031835Y031693D02*
D03*
X032544D02*
D03*
X026717Y024409D02*
D03*
X027426D02*
D03*
X02526Y02815D02*
D03*
X024552D02*
D03*
X030575Y028937D02*
D03*
X029867D02*
D03*
X030575Y029921D02*
D03*
X029867D02*
D03*
X028016Y027756D02*
D03*
X027307D02*
D03*
X027307Y026969D02*
D03*
X028016D02*
D03*
X029473Y024409D02*
D03*
X030182D02*
D03*
X030851D02*
D03*
X031559D02*
D03*
X023685Y033071D02*
D03*
X022977D02*
D03*
X031835Y03248D02*
D03*
X032544D02*
D03*
X023685Y024803D02*
D03*
X022977D02*
D03*
X025457D02*
D03*
X024748D02*
D03*
D14*
X023725Y02878D02*
D03*
Y029488D02*
D03*
X03082Y025976D02*
D03*
Y026684D02*
D03*
X034945Y02563D02*
D03*
Y026339D02*
D03*
X03337Y03252D02*
D03*
Y033228D02*
D03*
Y03185D02*
D03*
Y031142D02*
D03*
X035142Y023386D02*
D03*
Y022677D02*
D03*
D15*
X026087Y033821D02*
D03*
Y034963D02*
D03*
Y036931D02*
D03*
Y035789D02*
D03*
D16*
X035172Y032052D02*
D03*
Y029052D02*
D03*
D17*
X040654Y026911D02*
D03*
X036717D02*
D03*
D18*
X033843Y034656D02*
D03*
X034748D02*
D03*
X035654D02*
D03*
X030693D02*
D03*
X031599D02*
D03*
X032504D02*
D03*
D19*
X034748Y036998D02*
D03*
X031599D02*
D03*
D20*
X02904Y019882D02*
D03*
X023725Y03636D02*
D03*
D21*
X02814Y022244D02*
D03*
X02994D02*
D03*
X024625Y033998D02*
D03*
X022825D02*
D03*
D22*
X036323Y018976D02*
D03*
Y021576D02*
D03*
X031599D02*
D03*
Y018976D02*
D03*
X034748D02*
D03*
Y021576D02*
D03*
X033174D02*
D03*
Y018976D02*
D03*
D23*
X040851Y030202D02*
D03*
Y032002D02*
D03*
D24*
X038489Y031102D02*
D03*
D25*
X033174Y030444D02*
D03*
X0328Y029399D02*
D03*
X033548D02*
D03*
X031796Y030444D02*
D03*
X031422Y029399D02*
D03*
X03217D02*
D03*
D26*
X035801Y022657D02*
D03*
Y023031D02*
D03*
X036835Y022657D02*
D03*
Y023406D02*
D03*
X024974Y028957D02*
D03*
Y029331D02*
D03*
X026008Y028957D02*
D03*
Y029705D02*
D03*
D27*
X035801Y023406D02*
D03*
X027927Y030886D02*
D03*
Y029508D02*
D03*
X024974Y029705D02*
D03*
D28*
X028961Y030886D02*
D03*
Y030138D02*
D03*
X027927Y030512D02*
D03*
Y030138D02*
D03*
X028961Y029508D02*
D03*
Y02876D02*
D03*
X027927Y029134D02*
D03*
Y02876D02*
D03*
D29*
X033764Y025037D02*
D03*
Y025537D02*
D03*
Y026037D02*
D03*
Y026537D02*
D03*
X031796Y025037D02*
D03*
Y025537D02*
D03*
Y026037D02*
D03*
D30*
Y026537D02*
D03*
D31*
X031117Y033268D02*
D03*
X032475D02*
D03*
X026372Y032874D02*
D03*
X025014D02*
D03*
D32*
X026087Y02688D02*
D03*
Y028238D02*
D03*
D33*
X034552Y018976D02*
X034748D01*
X026746Y024438D02*
Y025787D01*
X026717Y024409D02*
X026746Y024438D01*
X031796Y025537D02*
X032439D01*
X032583Y025394D01*
X031796Y026037D02*
X032333D01*
X034906Y023622D02*
X035142Y023386D01*
X030825Y026037D02*
X031796D01*
X027268Y026929D02*
X027307Y026969D01*
X028016D02*
X028952D01*
X029759Y026161D01*
X027307Y026969D02*
Y027756D01*
Y026969D02*
X027307Y026969D01*
X033764Y025537D02*
X034853D01*
X034945Y02563D01*
Y024803D02*
Y02563D01*
X027642Y025413D02*
X027791D01*
X027268Y025787D02*
Y026929D01*
Y025787D02*
X027642Y025413D01*
X034748Y033966D02*
Y034656D01*
X032504D02*
Y035945D01*
X033557Y036998D01*
X034748D01*
X032544Y03248D02*
Y033199D01*
X031117Y033199D02*
X031835Y03248D01*
X031117Y033199D02*
Y033268D01*
Y033356D01*
X030615Y033858D02*
X031117Y033356D01*
X030615Y033858D02*
Y034577D01*
X030693Y034656D01*
X033843Y032992D02*
Y034656D01*
X03337Y03252D02*
X033843Y032992D01*
X032475Y033268D02*
X032514Y033228D01*
X032544Y033199D01*
X032514Y033228D02*
X03337D01*
X022977Y033071D02*
Y033846D01*
X022825Y033998D02*
X022977Y033846D01*
X031835Y031693D02*
Y03248D01*
X03337Y03185D02*
Y03252D01*
X031098Y029399D02*
X031422D01*
X030575Y029921D02*
X031098Y029399D01*
X03217D02*
Y029705D01*
X032386Y029921D01*
X033961D01*
X028961Y02876D02*
X029689D01*
X029867Y028937D01*
X028961Y030138D02*
X02965D01*
X029867Y029921D01*
X027485Y030138D02*
X027927D01*
X027268Y029921D02*
X027485Y030138D01*
X028575Y0305D02*
X028961Y030886D01*
X028575Y029894D02*
X028961Y029508D01*
X028575Y029894D02*
Y0305D01*
X028375Y029346D02*
X028961Y02876D01*
X027268Y02874D02*
X027288Y02876D01*
X027927D01*
X038743Y025D02*
X040654Y026911D01*
X036126Y025D02*
X038743D01*
X035536Y025591D02*
X036126Y025D01*
X035536Y025591D02*
Y026772D01*
X025949Y028957D02*
X026008D01*
X0253Y028307D02*
X025949Y028957D01*
X023902Y028957D02*
X024974D01*
X023725Y02878D02*
X023902Y028957D01*
X023725Y029488D02*
X023882Y029331D01*
X024552Y027126D02*
Y027362D01*
Y027126D02*
X024798Y02688D01*
X026087D01*
X02526Y027362D02*
Y02815D01*
Y027362D02*
X02526Y027362D01*
X026008Y029705D02*
Y030433D01*
X02593Y030512D02*
X026008Y030433D01*
X027229Y029921D02*
X027268D01*
X026638Y030512D02*
X027229Y029921D01*
X033725Y027362D02*
X033764Y027323D01*
X035536Y023031D02*
X035801D01*
X035181Y022677D02*
X035536Y023031D01*
X035142Y022677D02*
X035181D01*
X035162Y023406D02*
X035801D01*
X035142Y023386D02*
X035162Y023406D01*
X036835Y023406D02*
Y023898D01*
X022544Y022638D02*
X022561Y02262D01*
X027927Y030512D02*
X028252D01*
X028375Y030389D01*
Y029346D02*
Y030389D01*
X026638Y030512D02*
X026678Y030551D01*
X033764Y026537D02*
Y027323D01*
X036874Y024016D02*
X036953D01*
X037544D01*
X038252Y022874D02*
Y024016D01*
Y022874D02*
X038292Y022835D01*
X025457Y024016D02*
Y024803D01*
X022741Y022638D02*
X022977Y022874D01*
Y024016D01*
Y024803D01*
X023685D02*
X024748D01*
X023882Y029331D02*
X024315D01*
X024974D01*
X024315D02*
Y030315D01*
X033331Y023031D02*
X033685Y022677D01*
X035142D01*
X029759Y025413D02*
X029768D01*
X029759Y026126D02*
Y026161D01*
X026087Y025984D02*
X026678Y026575D01*
X026087Y023907D02*
Y025984D01*
X026678Y026575D02*
Y028346D01*
X029473Y024409D02*
Y024843D01*
X029827Y025197D01*
Y025345D01*
X029759Y025413D02*
X029827Y025345D01*
X030182Y024409D02*
X030851D01*
X031559D02*
X0316D01*
X031796Y024605D02*
Y025037D01*
X0316Y024409D02*
X031796Y024605D01*
X040693Y035573D02*
X040851Y035415D01*
X034985Y033661D02*
X035772Y032874D01*
X035654Y033701D02*
Y034656D01*
Y033701D02*
X035693Y033661D01*
X031402Y021576D02*
X031599D01*
X035801Y023031D02*
X036105D01*
X036284Y02321D01*
X035801Y022657D02*
X036157D01*
X03644Y02294D01*
X036835Y022657D02*
X036993D01*
X03239Y018976D02*
Y01967D01*
X028843Y019825D02*
X029692Y018976D01*
X03555D02*
Y01952D01*
X03588Y01985D01*
X03639D01*
X03239Y01967D02*
X03283Y02011D01*
X0363D01*
X03644Y02294D02*
X03713D01*
X026087Y023907D02*
X026938Y023056D01*
X033961Y029921D02*
X035142Y031102D01*
X033548Y029399D02*
Y02988D01*
X030575Y028937D02*
X032507D01*
X0328Y02923D01*
Y029399D01*
X027791Y026161D02*
X028259D01*
X028633Y025787D01*
X028714D01*
X029145Y02343D02*
X030432D01*
X027488Y023056D02*
X028771D01*
X029145Y02343D01*
X028804Y023956D02*
X028956Y023804D01*
X028804Y023956D02*
Y024409D01*
X028956Y023804D02*
X029388D01*
Y022796D02*
Y023056D01*
Y022796D02*
X02994Y022244D01*
X027426Y023866D02*
X027488Y023804D01*
X027426Y023866D02*
Y024409D01*
X030415Y024846D02*
Y026279D01*
Y024846D02*
X030851Y024409D01*
X030415Y026279D02*
X030673Y026537D01*
X03082Y026684D01*
X030673Y026537D02*
X031796D01*
X030983Y025037D02*
X031796D01*
X03093Y02504D02*
Y02509D01*
X024974Y029331D02*
X025356D01*
X025496Y02919D01*
Y028956D02*
Y02919D01*
X024552Y02815D02*
Y028482D01*
X02471Y02864D01*
X02518D01*
X025496Y028956D01*
X026195Y028346D02*
X026678D01*
X026087Y028238D02*
X026195Y028346D01*
X026686Y029134D02*
X027927D01*
X024974Y029705D02*
X025395D01*
X02576Y02934D01*
X02648D01*
X026686Y029134D01*
X026678Y028346D02*
X033961D01*
X035536Y026772D01*
X026938Y023056D02*
X027488D01*
X028961Y030886D02*
Y031689D01*
X02593Y030512D02*
X027108Y03169D01*
X02896D01*
X033725Y027362D02*
Y028005D01*
X03372Y02801D02*
X033725Y028005D01*
X028016Y027756D02*
X031614D01*
X03278Y02659D01*
X032818Y027362D02*
X033016D01*
X03231Y02787D02*
X032818Y027362D01*
X034512Y024016D02*
X03535D01*
X036166D01*
X037544D02*
X037881Y024353D01*
X038717D01*
X0392Y02387D01*
X036835Y023898D02*
X036953Y024016D01*
X04018Y03107D02*
X040851Y030399D01*
X035772Y032874D02*
X039786D01*
X04018Y03248D01*
Y03107D02*
Y03248D01*
X034985Y033661D02*
Y03373D01*
X034748Y033966D02*
X034985Y03373D01*
X03289Y023906D02*
X033174Y023622D01*
X03289Y023906D02*
Y02548D01*
X032333Y026037D02*
X03289Y02548D01*
X03211Y02305D02*
X032565D01*
X032583Y023031D01*
X033769Y02405D02*
X033804Y024016D01*
X03326Y02405D02*
X033764D01*
X033769D01*
X033764D02*
Y025037D01*
X03421Y02311D02*
X03422D01*
X033174Y023622D02*
X03422D01*
X034906D01*
X03422Y02312D02*
Y023622D01*
X023725Y027045D02*
Y02878D01*
Y027045D02*
X024175Y026595D01*
X025095D01*
X02536Y02633D01*
Y025415D02*
Y02633D01*
X024748Y024803D02*
X02536Y025415D01*
X023685Y024016D02*
X024748D01*
X03421Y02311D02*
X03422Y02312D01*
X022544Y022638D02*
X022741D01*
X03093Y02509D02*
X030983Y025037D01*
X036284Y02321D02*
Y024016D01*
X03278Y02624D02*
Y02659D01*
Y02624D02*
X032983Y026037D01*
X033764D01*
X034587D01*
X034838Y026288D01*
X033174Y030444D02*
Y030574D01*
X03337Y03077D01*
Y031142D01*
X031796Y030444D02*
Y030566D01*
X032544Y031314D01*
Y031693D01*
X025457Y024016D02*
X027226Y022246D01*
X032583Y023031D02*
Y025394D01*
X028095Y023785D02*
Y024409D01*
Y023785D02*
X02845Y02343D01*
X028532D01*
X022977Y032983D02*
Y033071D01*
Y032983D02*
X02336Y0326D01*
X02474D01*
X025014Y032874D01*
X03639Y01985D02*
X0376Y02106D01*
Y02247D01*
X03713Y02294D02*
X0376Y02247D01*
X0363Y02011D02*
X0373Y02111D01*
Y02235D01*
X036993Y022657D02*
X0373Y02235D01*
D34*
X039654Y037402D02*
X040654D01*
X040851Y035415D02*
Y037205D01*
X040654Y037402D02*
X040851Y037205D01*
X039906Y019488D02*
X040654D01*
X03967Y019252D02*
X039906Y019488D01*
X036717Y026911D02*
X038489Y028683D01*
Y031102D01*
X036717Y026911D02*
Y027507D01*
X035172Y029052D02*
X036717Y027507D01*
X035142Y031102D02*
Y032022D01*
X035172Y032052D01*
X022741Y019488D02*
Y020488D01*
Y019488D02*
X02507D01*
X025103Y019252D02*
X026678Y020827D01*
Y02126D01*
X027662Y022244D02*
X02806D01*
X02904Y019882D02*
X029946Y018976D01*
X031599D01*
Y021576D02*
X033174D01*
X034748D01*
X036323D01*
X031599Y018976D02*
X03239D01*
X033174D01*
X034748D02*
X03555D01*
X036323D01*
X040654Y023306D02*
Y026911D01*
X022741Y022488D02*
X025095D01*
X025103Y02248D01*
X036323Y018976D02*
X040654Y023306D01*
X040851Y032002D02*
Y035415D01*
X026678Y02126D02*
X027019Y021601D01*
X027662Y022244D01*
X037465Y034843D02*
Y037155D01*
X037712Y037402D01*
X038654D01*
D35*
X039473Y034843D02*
X040693D01*
X038292Y033661D02*
X039473Y034843D01*
X035693Y033661D02*
X038292D01*
X035339Y035827D02*
X035693Y035472D01*
X033567Y035827D02*
X035339D01*
X033174Y035433D02*
X033567Y035827D01*
X033174Y033967D02*
Y035433D01*
X032475Y033268D02*
X033174Y033967D01*
X023716Y03304D02*
X02431D01*
X023685Y033071D02*
X023716Y03304D01*
X023685Y033071D02*
Y036321D01*
X023725Y03636D01*
X035693Y033661D02*
Y035472D01*
X026087Y036931D02*
X026154Y036998D01*
X031599Y034656D02*
Y03581D01*
Y036998D01*
X026901Y033821D02*
X02752Y03444D01*
X026087Y033821D02*
X026901D01*
X02752Y03444D02*
X02829Y03521D01*
X026154Y036998D02*
X02829D01*
X031599D01*
X02829Y03521D02*
Y036998D01*
X026087Y033159D02*
Y033821D01*
Y033159D02*
X026372Y032874D01*
X024625Y033998D02*
X025589Y034963D01*
X026087D01*
Y0355D01*
Y035789D01*
Y0355D02*
X026147Y03544D01*
X02752D01*
D36*
X040654Y037402D02*
D03*
X039654D02*
D03*
X02274Y03159D02*
D03*
X02275Y02615D02*
D03*
D37*
X038654Y037402D02*
D03*
X037654D02*
D03*
X022741Y022488D02*
D03*
Y021488D02*
D03*
X02752Y03444D02*
D03*
X02374Y03159D02*
D03*
X02474D02*
D03*
X02475Y02615D02*
D03*
X02375D02*
D03*
D38*
X022741Y020488D02*
D03*
Y019488D02*
D03*
X02752Y03544D02*
D03*
D39*
X034945Y024803D02*
D03*
X027268Y029921D02*
D03*
Y02874D02*
D03*
X03231Y02787D02*
D03*
X03535Y024016D02*
D03*
X02422Y02402D02*
D03*
X024315Y030315D02*
D03*
X035339Y035827D02*
D03*
X02431Y03304D02*
D03*
X031599Y03581D02*
D03*
X03093Y02504D02*
D03*
X028952Y026969D02*
D03*
X02896Y03169D02*
D03*
X03372Y02801D02*
D03*
X0392Y02387D02*
D03*
X03211Y02305D02*
D03*
X03326Y02405D02*
D03*
X03422Y02311D02*
D03*
D40*
X035142Y031102D02*
D03*
X038292Y022835D02*
D03*
X040654Y019488D02*
D03*
M02*
