M48
;Layer_Color=9474304
;FILE_FORMAT=2:4
INCH,LZ
;TYPE=PLATED
T1F00S00C0.0200
T2F00S00C0.0295
T3F00S00C0.0315
T4F00S00C0.0394
T5F00S00C0.0551
T6F00S00C0.1181
T7F00S00C0.1969
%
T01
X086529Y164149
X090072Y163361
Y166708
X091844Y167889
X08397Y159227
X098733Y159031
Y160802
X098999Y161764
X099127Y163755
Y164346
Y166117
X09893Y166708
X099029Y167298
X102799Y160864
X101599Y158164
X098399Y156564
X097946Y172416
T02
X094403Y155487
X09519
X095977
X096765
X093615
X092828
T03
X102136Y162893
Y162393
Y161893
T04
X100702Y164149
T05
X088891Y161983
Y160015
T06
X089088Y168676
Y157653
X100111
Y168676
T07
X100111Y160212
M30
