%FSTAX24Y24*%
%MOIN*%
G70*
G01*
G75*
G04 Layer_Color=65535*
%ADD10O,0.0630X0.0138*%
%ADD11R,0.0630X0.0138*%
%ADD12R,0.0315X0.0374*%
%ADD13O,0.0709X0.0118*%
%ADD14O,0.0118X0.0709*%
%ADD15R,0.0374X0.0315*%
%ADD16O,0.0138X0.0630*%
%ADD17R,0.0138X0.0630*%
%ADD18R,0.0630X0.0630*%
%ADD19R,0.0551X0.0827*%
%ADD20R,0.1004X0.0374*%
%ADD21R,0.1004X0.1299*%
%ADD22R,0.0512X0.0472*%
%ADD23R,0.0472X0.0512*%
%ADD24C,0.0100*%
%ADD25C,0.0200*%
%ADD26R,0.0591X0.0591*%
%ADD27C,0.0591*%
%ADD28R,0.0591X0.0591*%
%ADD29C,0.1181*%
%ADD30C,0.0787*%
%ADD31C,0.0320*%
%ADD32C,0.0472*%
%ADD33R,0.0900X0.2200*%
%ADD34R,0.0217X0.0472*%
%ADD35R,0.0256X0.0472*%
%ADD36C,0.0079*%
%ADD37C,0.0098*%
%ADD38C,0.0236*%
%ADD39C,0.0039*%
%ADD40C,0.0039*%
%ADD41O,0.0710X0.0218*%
%ADD42R,0.0710X0.0218*%
%ADD43R,0.0395X0.0454*%
%ADD44O,0.0789X0.0198*%
%ADD45O,0.0198X0.0789*%
%ADD46R,0.0454X0.0395*%
%ADD47O,0.0218X0.0710*%
%ADD48R,0.0218X0.0710*%
%ADD49R,0.0710X0.0710*%
%ADD50R,0.0631X0.0907*%
%ADD51R,0.1084X0.0454*%
%ADD52R,0.1084X0.1379*%
%ADD53R,0.0592X0.0552*%
%ADD54R,0.0552X0.0592*%
%ADD55R,0.0671X0.0671*%
%ADD56C,0.0671*%
%ADD57R,0.0671X0.0671*%
%ADD58C,0.1261*%
%ADD59C,0.0867*%
%ADD60C,0.0400*%
%ADD61C,0.0552*%
%ADD62R,0.0980X0.2280*%
%ADD63R,0.0256X0.0512*%
%ADD64R,0.0336X0.0552*%
D24*
X030996Y025083D02*
Y029633D01*
X032796Y025083D02*
Y029633D01*
X030996Y025083D02*
X031296D01*
X032496D02*
X032796D01*
X032496Y029633D02*
X032796D01*
X030996D02*
X031296D01*
X032841Y026494D02*
Y027675D01*
Y026494D02*
X033393D01*
Y027675D01*
X032841D02*
X033393D01*
X035067Y027509D02*
Y028691D01*
Y027509D02*
X035618D01*
Y028691D01*
X035067D02*
X035618D01*
Y029009D02*
Y030191D01*
X035067D02*
X035618D01*
X035067Y029009D02*
Y030191D01*
Y029009D02*
X035618D01*
X035067Y026009D02*
Y027191D01*
Y026009D02*
X035618D01*
Y027191D01*
X035067D02*
X035618D01*
X033402Y025156D02*
Y026337D01*
X032851D02*
X033402D01*
X032851Y025156D02*
Y026337D01*
Y025156D02*
X033402D01*
X033393Y027823D02*
Y029004D01*
X032841D02*
X033393D01*
X032841Y027823D02*
Y029004D01*
Y027823D02*
X033393D01*
X021154Y025083D02*
Y029633D01*
X022954Y025083D02*
Y029633D01*
X021154Y025083D02*
X021454D01*
X022654D02*
X022954D01*
X022654Y029633D02*
X022954D01*
X021154D02*
X021454D01*
X022999Y026494D02*
Y027675D01*
Y026494D02*
X02355D01*
Y027675D01*
X022999D02*
X02355D01*
X025224Y027509D02*
Y028691D01*
Y027509D02*
X025776D01*
Y028691D01*
X025224D02*
X025776D01*
Y029009D02*
Y030191D01*
X025224D02*
X025776D01*
X025224Y029009D02*
Y030191D01*
Y029009D02*
X025776D01*
X025224Y026009D02*
Y027191D01*
Y026009D02*
X025776D01*
Y027191D01*
X025224D02*
X025776D01*
X02356Y025156D02*
Y026337D01*
X023009D02*
X02356D01*
X023009Y025156D02*
Y026337D01*
Y025156D02*
X02356D01*
X02355Y027823D02*
Y029004D01*
X022999D02*
X02355D01*
X022999Y027823D02*
Y029004D01*
Y027823D02*
X02355D01*
X030391Y014758D02*
Y015309D01*
X029209Y014758D02*
X030391D01*
X029209D02*
Y015309D01*
X030391D01*
Y01405D02*
Y014601D01*
X029209Y01405D02*
X030391D01*
X029209D02*
Y014601D01*
X030391D01*
X0198Y01095D02*
Y018824D01*
Y01095D02*
X037517D01*
Y018824D01*
X0198D02*
X037517D01*
X027674Y020264D02*
Y0305D01*
X0198Y020264D02*
X027674D01*
X0198D02*
Y0305D01*
X027674D01*
X037517Y020264D02*
Y0305D01*
X029643Y020264D02*
X037517D01*
X029643D02*
Y0305D01*
X037517D01*
D36*
X03353Y027947D02*
Y028447D01*
X034751Y027947D02*
Y028447D01*
X03353D02*
X034751D01*
X03353Y027947D02*
X034751D01*
X023688D02*
Y028447D01*
X024908Y027947D02*
Y028447D01*
X023688D02*
X024908D01*
X023688Y027947D02*
X024908D01*
X029209Y015546D02*
Y015939D01*
X029013D01*
X028947Y015874D01*
Y015742D01*
X029013Y015677D01*
X029209D01*
X029078D02*
X028947Y015546D01*
X028816Y015939D02*
X028553Y015546D01*
Y015939D02*
X028816Y015546D01*
X02917Y013853D02*
X028908D01*
X029039D01*
Y013459D01*
X028777Y013853D02*
X028514Y013459D01*
Y013853D02*
X028777Y013459D01*
D40*
X031136Y02405D02*
X031097D01*
X031018Y024129D01*
X031097Y024207D01*
X031136D01*
X031018Y024129D02*
X0309D01*
Y024286D02*
Y024365D01*
Y024325D01*
X031136D01*
X031097Y024286D01*
X030861Y024483D02*
Y02464D01*
X0309Y024876D02*
Y024719D01*
X031057Y024876D01*
X031097D01*
X031136Y024837D01*
Y024758D01*
X031097Y024719D01*
X033543Y0261D02*
X033779D01*
Y026218D01*
X033739Y026257D01*
X033661D01*
X033621Y026218D01*
Y0261D01*
Y026179D02*
X033543Y026257D01*
X033739Y026336D02*
X033779Y026376D01*
Y026454D01*
X033739Y026494D01*
X0337D01*
X033661Y026454D01*
Y026415D01*
Y026454D01*
X033621Y026494D01*
X033582D01*
X033543Y026454D01*
Y026376D01*
X033582Y026336D01*
X033503Y026572D02*
Y02673D01*
X033543Y026966D02*
Y026808D01*
X0337Y026966D01*
X033739D01*
X033779Y026927D01*
Y026848D01*
X033739Y026808D01*
X034679Y0264D02*
X034443D01*
Y026557D01*
X034679Y026636D02*
X034443D01*
Y026754D01*
X034482Y026794D01*
X034639D01*
X034679Y026754D01*
Y026636D01*
Y02699D02*
Y026912D01*
X034639Y026872D01*
X034482D01*
X034443Y026912D01*
Y02699D01*
X034482Y02703D01*
X034639D01*
X034679Y02699D01*
X034443Y027108D02*
Y027187D01*
Y027148D01*
X034679D01*
X034639Y027108D01*
X034403Y027305D02*
Y027463D01*
X034443Y027541D02*
Y02762D01*
Y027581D01*
X034679D01*
X034639Y027541D01*
X035939Y028057D02*
X035979Y028018D01*
Y027939D01*
X035939Y0279D01*
X035782D01*
X035743Y027939D01*
Y028018D01*
X035782Y028057D01*
X035979Y028136D02*
Y028294D01*
X035939D01*
X035782Y028136D01*
X035743D01*
X035703Y028372D02*
Y02853D01*
X035743Y028766D02*
Y028608D01*
X0359Y028766D01*
X035939D01*
X035979Y028726D01*
Y028648D01*
X035939Y028608D01*
Y029157D02*
X035979Y029118D01*
Y029039D01*
X035939Y029D01*
X035782D01*
X035743Y029039D01*
Y029118D01*
X035782Y029157D01*
X035979Y029394D02*
X035939Y029315D01*
X035861Y029236D01*
X035782D01*
X035743Y029276D01*
Y029354D01*
X035782Y029394D01*
X035821D01*
X035861Y029354D01*
Y029236D01*
X035703Y029472D02*
Y02963D01*
X035743Y029866D02*
Y029708D01*
X0359Y029866D01*
X035939D01*
X035979Y029827D01*
Y029748D01*
X035939Y029708D01*
Y026557D02*
X035979Y026518D01*
Y026439D01*
X035939Y0264D01*
X035782D01*
X035743Y026439D01*
Y026518D01*
X035782Y026557D01*
X035979Y026794D02*
Y026636D01*
X035861D01*
X0359Y026715D01*
Y026754D01*
X035861Y026794D01*
X035782D01*
X035743Y026754D01*
Y026676D01*
X035782Y026636D01*
X035703Y026872D02*
Y02703D01*
X035743Y027266D02*
Y027108D01*
X0359Y027266D01*
X035939D01*
X035979Y027227D01*
Y027148D01*
X035939Y027108D01*
X033739Y024857D02*
X033779Y024818D01*
Y024739D01*
X033739Y0247D01*
X033582D01*
X033543Y024739D01*
Y024818D01*
X033582Y024857D01*
X033543Y025054D02*
X033779D01*
X033661Y024936D01*
Y025094D01*
X033503Y025172D02*
Y02533D01*
X033543Y025566D02*
Y025408D01*
X0337Y025566D01*
X033739D01*
X033779Y025526D01*
Y025448D01*
X033739Y025408D01*
Y027157D02*
X033779Y027118D01*
Y027039D01*
X033739Y027D01*
X033582D01*
X033543Y027039D01*
Y027118D01*
X033582Y027157D01*
X033739Y027236D02*
X033779Y027276D01*
Y027354D01*
X033739Y027394D01*
X0337D01*
X033661Y027354D01*
Y027315D01*
Y027354D01*
X033621Y027394D01*
X033582D01*
X033543Y027354D01*
Y027276D01*
X033582Y027236D01*
X033503Y027472D02*
Y02763D01*
X033543Y027866D02*
Y027708D01*
X0337Y027866D01*
X033739D01*
X033779Y027826D01*
Y027748D01*
X033739Y027708D01*
X036282Y02183D02*
X035883D01*
X036016D01*
X036282Y022097D01*
X036082Y021897D01*
X035883Y022097D01*
X036282Y022496D02*
Y02223D01*
X035883D01*
Y022496D01*
X036082Y02223D02*
Y022363D01*
X035883Y02263D02*
X036282D01*
Y02283D01*
X036216Y022896D01*
X036082D01*
X036016Y02283D01*
Y02263D01*
Y022763D02*
X035883Y022896D01*
X036282Y02303D02*
Y023296D01*
Y023163D01*
X035883D01*
X036282Y023696D02*
Y023429D01*
X035883D01*
Y023696D01*
X036082Y023429D02*
Y023563D01*
X036216Y024096D02*
X036282Y024029D01*
Y023896D01*
X036216Y023829D01*
X036149D01*
X036082Y023896D01*
Y024029D01*
X036016Y024096D01*
X035949D01*
X035883Y024029D01*
Y023896D01*
X035949Y023829D01*
X036282Y024229D02*
Y024496D01*
X036216D01*
X035949Y024229D01*
X035883D01*
Y024496D01*
X036216Y024896D02*
X036282Y024829D01*
Y024696D01*
X036216Y024629D01*
X036149D01*
X036082Y024696D01*
Y024829D01*
X036016Y024896D01*
X035949D01*
X035883Y024829D01*
Y024696D01*
X035949Y024629D01*
X035883Y025029D02*
X036149D01*
X036282Y025162D01*
X036149Y025296D01*
X035883D01*
X036082D01*
Y025029D01*
X036216Y025695D02*
X036282Y025629D01*
Y025495D01*
X036216Y025429D01*
X036149D01*
X036082Y025495D01*
Y025629D01*
X036016Y025695D01*
X035949D01*
X035883Y025629D01*
Y025495D01*
X035949Y025429D01*
X035883Y025829D02*
X036149D01*
X036282Y025962D01*
X036149Y026095D01*
X035883D01*
X036082D01*
Y025829D01*
X021336Y0242D02*
X021297D01*
X021218Y024279D01*
X021297Y024357D01*
X021336D01*
X021218Y024279D02*
X0211D01*
Y024436D02*
Y024515D01*
Y024476D01*
X021336D01*
X021297Y024436D01*
X021061Y024633D02*
Y02479D01*
X0211Y024869D02*
Y024948D01*
Y024908D01*
X021336D01*
X021297Y024869D01*
X0237Y0261D02*
X023936D01*
Y026218D01*
X023897Y026257D01*
X023818D01*
X023779Y026218D01*
Y0261D01*
Y026179D02*
X0237Y026257D01*
X023897Y026336D02*
X023936Y026376D01*
Y026454D01*
X023897Y026494D01*
X023857D01*
X023818Y026454D01*
Y026415D01*
Y026454D01*
X023779Y026494D01*
X023739D01*
X0237Y026454D01*
Y026376D01*
X023739Y026336D01*
X023661Y026572D02*
Y02673D01*
X0237Y026808D02*
Y026887D01*
Y026848D01*
X023936D01*
X023897Y026808D01*
X024836Y0264D02*
X0246D01*
Y026557D01*
X024836Y026636D02*
X0246D01*
Y026754D01*
X024639Y026794D01*
X024797D01*
X024836Y026754D01*
Y026636D01*
Y02699D02*
Y026912D01*
X024797Y026872D01*
X024639D01*
X0246Y026912D01*
Y02699D01*
X024639Y02703D01*
X024797D01*
X024836Y02699D01*
X0246Y027108D02*
Y027187D01*
Y027148D01*
X024836D01*
X024797Y027108D01*
X026097Y028057D02*
X026136Y028018D01*
Y027939D01*
X026097Y0279D01*
X025939D01*
X0259Y027939D01*
Y028018D01*
X025939Y028057D01*
X026136Y028136D02*
Y028294D01*
X026097D01*
X025939Y028136D01*
X0259D01*
X025861Y028372D02*
Y02853D01*
X0259Y028608D02*
Y028687D01*
Y028648D01*
X026136D01*
X026097Y028608D01*
Y029157D02*
X026136Y029118D01*
Y029039D01*
X026097Y029D01*
X025939D01*
X0259Y029039D01*
Y029118D01*
X025939Y029157D01*
X026136Y029394D02*
X026097Y029315D01*
X026018Y029236D01*
X025939D01*
X0259Y029276D01*
Y029354D01*
X025939Y029394D01*
X025979D01*
X026018Y029354D01*
Y029236D01*
X025861Y029472D02*
Y02963D01*
X0259Y029708D02*
Y029787D01*
Y029748D01*
X026136D01*
X026097Y029708D01*
Y026557D02*
X026136Y026518D01*
Y026439D01*
X026097Y0264D01*
X025939D01*
X0259Y026439D01*
Y026518D01*
X025939Y026557D01*
X026136Y026794D02*
Y026636D01*
X026018D01*
X026057Y026715D01*
Y026754D01*
X026018Y026794D01*
X025939D01*
X0259Y026754D01*
Y026676D01*
X025939Y026636D01*
X025861Y026872D02*
Y02703D01*
X0259Y027108D02*
Y027187D01*
Y027148D01*
X026136D01*
X026097Y027108D01*
X023897Y024857D02*
X023936Y024818D01*
Y024739D01*
X023897Y0247D01*
X023739D01*
X0237Y024739D01*
Y024818D01*
X023739Y024857D01*
X0237Y025054D02*
X023936D01*
X023818Y024936D01*
Y025094D01*
X023661Y025172D02*
Y02533D01*
X0237Y025408D02*
Y025487D01*
Y025448D01*
X023936D01*
X023897Y025408D01*
Y027157D02*
X023936Y027118D01*
Y027039D01*
X023897Y027D01*
X023739D01*
X0237Y027039D01*
Y027118D01*
X023739Y027157D01*
X023897Y027236D02*
X023936Y027276D01*
Y027354D01*
X023897Y027394D01*
X023857D01*
X023818Y027354D01*
Y027315D01*
Y027354D01*
X023779Y027394D01*
X023739D01*
X0237Y027354D01*
Y027276D01*
X023739Y027236D01*
X023661Y027472D02*
Y02763D01*
X0237Y027708D02*
Y027787D01*
Y027748D01*
X023936D01*
X023897Y027708D01*
X02644Y02183D02*
X02604D01*
X026173D01*
X02644Y022097D01*
X02624Y021897D01*
X02604Y022097D01*
X02644Y022496D02*
Y02223D01*
X02604D01*
Y022496D01*
X02624Y02223D02*
Y022363D01*
X02604Y02263D02*
X02644D01*
Y02283D01*
X026373Y022896D01*
X02624D01*
X026173Y02283D01*
Y02263D01*
Y022763D02*
X02604Y022896D01*
X02644Y02303D02*
Y023296D01*
Y023163D01*
X02604D01*
X02644Y023696D02*
Y023429D01*
X02604D01*
Y023696D01*
X02624Y023429D02*
Y023563D01*
X026373Y024096D02*
X02644Y024029D01*
Y023896D01*
X026373Y023829D01*
X026307D01*
X02624Y023896D01*
Y024029D01*
X026173Y024096D01*
X026107D01*
X02604Y024029D01*
Y023896D01*
X026107Y023829D01*
X02644Y024229D02*
Y024496D01*
X026373D01*
X026107Y024229D01*
X02604D01*
Y024496D01*
X026373Y024896D02*
X02644Y024829D01*
Y024696D01*
X026373Y024629D01*
X026307D01*
X02624Y024696D01*
Y024829D01*
X026173Y024896D01*
X026107D01*
X02604Y024829D01*
Y024696D01*
X026107Y024629D01*
X02604Y025029D02*
X026307D01*
X02644Y025162D01*
X026307Y025296D01*
X02604D01*
X02624D01*
Y025029D01*
X026373Y025695D02*
X02644Y025629D01*
Y025495D01*
X026373Y025429D01*
X026307D01*
X02624Y025495D01*
Y025629D01*
X026173Y025695D01*
X026107D01*
X02604Y025629D01*
Y025495D01*
X026107Y025429D01*
X02604Y025829D02*
X026307D01*
X02644Y025962D01*
X026307Y026095D01*
X02604D01*
X02624D01*
Y025829D01*
X025981Y01179D02*
Y01139D01*
Y011523D01*
X025715Y01179D01*
X025914Y01159D01*
X025715Y01139D01*
X025315Y01179D02*
X025581D01*
Y01139D01*
X025315D01*
X025581Y01159D02*
X025448D01*
X025181Y01139D02*
Y01179D01*
X024981D01*
X024915Y011723D01*
Y01159D01*
X024981Y011523D01*
X025181D01*
X025048D02*
X024915Y01139D01*
X024781Y01179D02*
X024515D01*
X024648D01*
Y01139D01*
X024115Y01179D02*
X024382D01*
Y01139D01*
X024115D01*
X024382Y01159D02*
X024248D01*
X023715Y011723D02*
X023782Y01179D01*
X023915D01*
X023982Y011723D01*
Y011656D01*
X023915Y01159D01*
X023782D01*
X023715Y011523D01*
Y011456D01*
X023782Y01139D01*
X023915D01*
X023982Y011456D01*
X023582Y01179D02*
X023315D01*
Y011723D01*
X023582Y011456D01*
Y01139D01*
X023315D01*
X022915Y011723D02*
X022982Y01179D01*
X023115D01*
X023182Y011723D01*
Y011656D01*
X023115Y01159D01*
X022982D01*
X022915Y011523D01*
Y011456D01*
X022982Y01139D01*
X023115D01*
X023182Y011456D01*
X022782Y01139D02*
Y011656D01*
X022649Y01179D01*
X022516Y011656D01*
Y01139D01*
Y01159D01*
X022782D01*
X022116Y011723D02*
X022182Y01179D01*
X022316D01*
X022382Y011723D01*
Y011656D01*
X022316Y01159D01*
X022182D01*
X022116Y011523D01*
Y011456D01*
X022182Y01139D01*
X022316D01*
X022382Y011456D01*
X021982Y01139D02*
Y011656D01*
X021849Y01179D01*
X021716Y011656D01*
Y01139D01*
Y01159D01*
X021982D01*
M02*
