%FSTAX24Y24*%
%MOIN*%
G70*
G01*
G75*
G04 Layer_Color=8388736*
%ADD10O,0.0630X0.0138*%
%ADD11R,0.0630X0.0138*%
%ADD12R,0.0315X0.0374*%
%ADD13O,0.0709X0.0118*%
%ADD14O,0.0118X0.0709*%
%ADD15R,0.0374X0.0315*%
%ADD16O,0.0138X0.0630*%
%ADD17R,0.0138X0.0630*%
%ADD18R,0.0630X0.0630*%
%ADD19R,0.0551X0.0827*%
%ADD20R,0.1004X0.0374*%
%ADD21R,0.1004X0.1299*%
%ADD22R,0.0512X0.0472*%
%ADD23R,0.0472X0.0512*%
%ADD24C,0.0100*%
%ADD25C,0.0200*%
%ADD26R,0.0591X0.0591*%
%ADD27C,0.0591*%
%ADD28R,0.0591X0.0591*%
%ADD29C,0.1181*%
%ADD30C,0.0787*%
%ADD31C,0.0320*%
%ADD32C,0.0472*%
%ADD33R,0.0900X0.2200*%
%ADD34R,0.0217X0.0472*%
%ADD35R,0.0256X0.0472*%
%ADD36C,0.0079*%
%ADD37C,0.0098*%
%ADD38C,0.0236*%
%ADD39C,0.0039*%
%ADD40C,0.0039*%
%ADD41O,0.0710X0.0218*%
%ADD42R,0.0710X0.0218*%
%ADD43R,0.0395X0.0454*%
%ADD44O,0.0789X0.0198*%
%ADD45O,0.0198X0.0789*%
%ADD46R,0.0454X0.0395*%
%ADD47O,0.0218X0.0710*%
%ADD48R,0.0218X0.0710*%
%ADD49R,0.0710X0.0710*%
%ADD50R,0.0631X0.0907*%
%ADD51R,0.1084X0.0454*%
%ADD52R,0.1084X0.1379*%
%ADD53R,0.0592X0.0552*%
%ADD54R,0.0552X0.0592*%
%ADD55R,0.0671X0.0671*%
%ADD56C,0.0671*%
%ADD57R,0.0671X0.0671*%
%ADD58C,0.1261*%
%ADD59C,0.0867*%
%ADD60C,0.0400*%
%ADD61C,0.0552*%
%ADD62R,0.0980X0.2280*%
%ADD63R,0.0256X0.0512*%
%ADD64R,0.0336X0.0552*%
D43*
X029446Y015034D02*
D03*
X030154D02*
D03*
X029446Y014325D02*
D03*
X030154D02*
D03*
D46*
X033117Y027439D02*
D03*
Y02673D02*
D03*
X035343Y028454D02*
D03*
Y027746D02*
D03*
Y029246D02*
D03*
Y029954D02*
D03*
Y026954D02*
D03*
Y026246D02*
D03*
X033127Y025392D02*
D03*
Y0261D02*
D03*
X033117Y028059D02*
D03*
Y028768D02*
D03*
X023274Y027439D02*
D03*
Y02673D02*
D03*
X0255Y028454D02*
D03*
Y027746D02*
D03*
Y029246D02*
D03*
Y029954D02*
D03*
Y026954D02*
D03*
Y026246D02*
D03*
X023284Y025392D02*
D03*
Y0261D02*
D03*
X023274Y028059D02*
D03*
Y028768D02*
D03*
D55*
X030143Y029902D02*
D03*
X037019Y029902D02*
D03*
X0203Y029902D02*
D03*
X027176Y029902D02*
D03*
X022961Y017518D02*
D03*
D56*
X030143Y028902D02*
D03*
Y026902D02*
D03*
Y025902D02*
D03*
Y024902D02*
D03*
Y023902D02*
D03*
Y022902D02*
D03*
Y021902D02*
D03*
Y020902D02*
D03*
Y027902D02*
D03*
X037019Y028902D02*
D03*
Y026902D02*
D03*
Y025902D02*
D03*
Y024902D02*
D03*
Y023902D02*
D03*
Y022902D02*
D03*
Y021902D02*
D03*
Y020902D02*
D03*
Y027902D02*
D03*
X033308Y029693D02*
D03*
X031971Y023382D02*
D03*
X032971Y022382D02*
D03*
Y023382D02*
D03*
X033971Y022382D02*
D03*
Y023382D02*
D03*
X034971Y022382D02*
D03*
Y023382D02*
D03*
X03558Y021159D02*
D03*
X03458D02*
D03*
X03358D02*
D03*
X03258D02*
D03*
X0203Y028902D02*
D03*
Y026902D02*
D03*
Y025902D02*
D03*
Y024902D02*
D03*
Y023902D02*
D03*
Y022902D02*
D03*
Y021902D02*
D03*
Y020902D02*
D03*
Y027902D02*
D03*
X027176Y028902D02*
D03*
Y026902D02*
D03*
Y025902D02*
D03*
Y024902D02*
D03*
Y023902D02*
D03*
Y022902D02*
D03*
Y021902D02*
D03*
Y020902D02*
D03*
Y027902D02*
D03*
X023465Y029693D02*
D03*
X022129Y023382D02*
D03*
X023129Y022382D02*
D03*
Y023382D02*
D03*
X024129Y022382D02*
D03*
Y023382D02*
D03*
X025129Y022382D02*
D03*
Y023382D02*
D03*
X025737Y021159D02*
D03*
X024737D02*
D03*
X023737D02*
D03*
X022737D02*
D03*
X02176Y016239D02*
D03*
X02176Y015239D02*
D03*
Y014435D02*
D03*
Y013435D02*
D03*
X03217Y018144D02*
D03*
X02517D02*
D03*
X02617D02*
D03*
X02717D02*
D03*
X02817D02*
D03*
X02917D02*
D03*
X03017D02*
D03*
X03117D02*
D03*
X03317D02*
D03*
X023961Y014518D02*
D03*
X022961D02*
D03*
X023961Y015518D02*
D03*
X022961D02*
D03*
X023961Y016518D02*
D03*
X022961D02*
D03*
X023961Y017518D02*
D03*
X027698Y01153D02*
D03*
X028698D02*
D03*
X029698D02*
D03*
X030698D02*
D03*
D57*
X034308Y029693D02*
D03*
X031971Y022382D02*
D03*
X03158Y021159D02*
D03*
X024465Y029693D02*
D03*
X022129Y022382D02*
D03*
X021737Y021159D02*
D03*
X03417Y018144D02*
D03*
X026698Y01153D02*
D03*
D58*
X020923Y012534D02*
D03*
X020923Y01714D02*
D03*
D59*
X031572Y016206D02*
D03*
Y014256D02*
D03*
D60*
X031453Y0239D02*
D03*
X034043Y0259D02*
D03*
X036043Y0297D02*
D03*
X033943Y0267D02*
D03*
X031843Y0276D02*
D03*
X02161Y0239D02*
D03*
X0242Y0259D02*
D03*
X0262Y0297D02*
D03*
X0241Y0267D02*
D03*
X022Y0276D02*
D03*
X029505Y016668D02*
D03*
X035154Y015703D02*
D03*
X035233Y015034D02*
D03*
X033776Y014443D02*
D03*
X033225Y015034D02*
D03*
X03295Y01275D02*
D03*
X036257Y015861D02*
D03*
X022241Y018302D02*
D03*
X024761Y016057D02*
D03*
X024052Y01338D02*
D03*
X028304Y014325D02*
D03*
X029761Y013341D02*
D03*
X035312Y016254D02*
D03*
X03169Y01279D02*
D03*
X030391Y013105D02*
D03*
X030981Y013695D02*
D03*
X035233Y012868D02*
D03*
X035745Y012632D02*
D03*
X024406Y018183D02*
D03*
X036414Y017554D02*
D03*
X027024Y014266D02*
D03*
X028619Y015231D02*
D03*
X027398Y014758D02*
D03*
X028028Y015821D02*
D03*
X027674Y014306D02*
D03*
X032713Y014286D02*
D03*
D61*
X020929Y013935D02*
D03*
Y015739D02*
D03*
D62*
X031896Y029233D02*
D03*
Y025483D02*
D03*
X022054Y029233D02*
D03*
Y025483D02*
D03*
D63*
X033767Y028719D02*
D03*
X034141D02*
D03*
X034515D02*
D03*
X023924D02*
D03*
X024298D02*
D03*
X024672D02*
D03*
D64*
X034515Y027674D02*
D03*
X033767D02*
D03*
X024672D02*
D03*
X023924D02*
D03*
M02*
