%FSTAX24Y24*%
%MOIN*%
G70*
G01*
G75*
G04 Layer_Color=65535*
%ADD10O,0.0630X0.0138*%
%ADD11R,0.0630X0.0138*%
%ADD12R,0.0315X0.0374*%
%ADD13O,0.0709X0.0118*%
%ADD14O,0.0118X0.0709*%
%ADD15R,0.0374X0.0315*%
%ADD16O,0.0138X0.0630*%
%ADD17R,0.0138X0.0630*%
%ADD18R,0.0630X0.0630*%
%ADD19R,0.0551X0.0827*%
%ADD20R,0.1004X0.0374*%
%ADD21R,0.1004X0.1299*%
%ADD22R,0.0512X0.0472*%
%ADD23R,0.0472X0.0512*%
%ADD24C,0.0100*%
%ADD25C,0.0200*%
%ADD26R,0.0591X0.0591*%
%ADD27C,0.0591*%
%ADD28R,0.0591X0.0591*%
%ADD29C,0.1181*%
%ADD30C,0.0787*%
%ADD31C,0.0320*%
%ADD32C,0.0472*%
%ADD33R,0.0900X0.2200*%
%ADD34R,0.0217X0.0472*%
%ADD35R,0.0256X0.0472*%
%ADD36C,0.0079*%
%ADD37C,0.0098*%
%ADD38C,0.0236*%
%ADD39C,0.0039*%
%ADD40C,0.0039*%
D24*
X036847Y015408D02*
G03*
X036847Y015408I-000689J0D01*
G01*
X031152Y028924D02*
X032333D01*
X031152D02*
Y029476D01*
X032333D01*
Y028924D02*
Y029476D01*
X031152Y028124D02*
X032333D01*
X031152D02*
Y028676D01*
X032333D01*
Y028124D02*
Y028676D01*
X031152Y030176D02*
X032333D01*
Y029624D02*
Y030176D01*
X031152Y029624D02*
X032333D01*
X031152D02*
Y030176D01*
X021309Y028924D02*
X022491D01*
X021309D02*
Y029476D01*
X022491D01*
Y028924D02*
Y029476D01*
X021309Y028124D02*
X022491D01*
X021309D02*
Y028676D01*
X022491D01*
Y028124D02*
Y028676D01*
X021309Y030176D02*
X022491D01*
Y029624D02*
Y030176D01*
X021309Y029624D02*
X022491D01*
X021309D02*
Y030176D01*
X031335Y012435D02*
X032517D01*
Y011884D02*
Y012435D01*
X031335Y011884D02*
X032517D01*
X031335D02*
Y012435D01*
X031335Y011018D02*
X032517D01*
X031335D02*
Y011569D01*
X032517D01*
Y011018D02*
Y011569D01*
X025154Y014561D02*
X025706D01*
X025154Y01338D02*
Y014561D01*
Y01338D02*
X025706D01*
Y014561D01*
X025233Y016372D02*
Y016924D01*
Y016372D02*
X026414D01*
Y016924D01*
X025233D02*
X026414D01*
X022871Y018144D02*
Y018695D01*
Y018144D02*
X024052D01*
Y018695D01*
X022871D02*
X024052D01*
X028619Y01216D02*
Y012711D01*
Y01216D02*
X0298D01*
Y012711D01*
X028619D02*
X0298D01*
X029957Y01216D02*
Y012711D01*
Y01216D02*
X031139D01*
Y012711D01*
X029957D02*
X031139D01*
X032635Y016333D02*
X033186D01*
Y017514D01*
X032635D02*
X033186D01*
X032635Y016333D02*
Y017514D01*
X02728Y01216D02*
Y012711D01*
Y01216D02*
X028461D01*
Y012711D01*
X02728D02*
X028461D01*
X030036Y016254D02*
X030587D01*
Y017435D01*
X030036D02*
X030587D01*
X030036Y016254D02*
Y017435D01*
X01979Y011947D02*
X02216D01*
Y017727D01*
X01979D02*
X02216D01*
X01979Y011947D02*
Y017727D01*
X030672Y012956D02*
X030972D01*
X032172D02*
X032472D01*
X032172Y017506D02*
X032472D01*
X030672D02*
X030972D01*
X032472Y012956D02*
Y017506D01*
X030672Y012956D02*
Y017506D01*
X019918Y010979D02*
X022123D01*
X019918D02*
Y011845D01*
X022123D01*
Y010979D02*
Y011845D01*
X019918Y018695D02*
X022123D01*
Y017829D02*
Y018695D01*
X019918Y017829D02*
X022123D01*
X019918D02*
Y018695D01*
X02606Y011057D02*
Y011609D01*
X024879D02*
X02606D01*
X024879Y011057D02*
Y011609D01*
Y011057D02*
X02606D01*
X030036Y016136D02*
X030587D01*
X030036Y014955D02*
Y016136D01*
Y014955D02*
X030587D01*
Y016136D01*
X034977Y016589D02*
X037339D01*
X034977Y014227D02*
Y016589D01*
Y014227D02*
X037339D01*
Y016589D01*
X033343Y012317D02*
Y012869D01*
Y012317D02*
X034524D01*
Y012869D01*
X033343D02*
X034524D01*
X034052Y016333D02*
X034603D01*
Y017514D01*
X034052D02*
X034603D01*
X034052Y016333D02*
Y017514D01*
X033343Y016333D02*
X033894D01*
Y017514D01*
X033343D02*
X033894D01*
X033343Y016333D02*
Y017514D01*
X036532Y01216D02*
X037083D01*
X036532Y010979D02*
Y01216D01*
Y010979D02*
X037083D01*
Y01216D01*
X035824Y010979D02*
X036375D01*
Y01216D01*
X035824D02*
X036375D01*
X035824Y010979D02*
Y01216D01*
X032674Y011018D02*
X033225D01*
Y012435D01*
X032674D02*
X033225D01*
X032674Y011018D02*
Y012435D01*
Y012239D02*
X033225D01*
X0348Y011018D02*
X035351D01*
Y012435D01*
X0348D02*
X035351D01*
X0348Y011018D02*
Y012435D01*
Y012239D02*
X035351D01*
X035981Y018026D02*
Y018577D01*
Y018026D02*
X037398D01*
Y018577D01*
X035981D02*
X037398D01*
X037202Y018026D02*
Y018577D01*
X034721Y018026D02*
Y018577D01*
Y018026D02*
X035902D01*
Y018577D01*
X034721D02*
X035902D01*
X033383Y012199D02*
X033934D01*
X033383Y011018D02*
Y012199D01*
Y011018D02*
X033934D01*
Y012199D01*
X034091D02*
X034643D01*
X034091Y011018D02*
Y012199D01*
Y011018D02*
X034643D01*
Y012199D01*
D36*
X033353Y027154D02*
G03*
X033353Y027154I-000118J0D01*
G01*
X023511D02*
G03*
X023511Y027154I-000118J0D01*
G01*
X033028Y014207D02*
G03*
X033028Y014207I-000118J0D01*
G01*
X029643Y020402D02*
X030643D01*
X029643D02*
Y030402D01*
X030643D01*
Y029652D02*
Y030402D01*
Y020402D02*
Y029652D01*
X036519Y020402D02*
X037519D01*
X036519D02*
Y030402D01*
X037519D01*
Y029652D02*
Y030402D01*
Y020402D02*
Y029652D01*
X032979Y024824D02*
Y02745D01*
X034279Y024824D02*
Y02745D01*
X032979D02*
X034279D01*
X032979Y024824D02*
X034279D01*
X032808Y029193D02*
X034808D01*
Y030193D01*
X032808D02*
X034808D01*
X032808Y029193D02*
Y030193D01*
X035471Y021882D02*
Y023882D01*
X031471Y021882D02*
Y023882D01*
X035471D01*
X031471Y021882D02*
X035471D01*
X03108Y020659D02*
Y021659D01*
X03608D01*
X03108Y020659D02*
X03608D01*
Y021659D01*
X0198Y020402D02*
X0208D01*
X0198D02*
Y030402D01*
X0208D01*
Y029652D02*
Y030402D01*
Y020402D02*
Y029652D01*
X026676Y020402D02*
X027676D01*
X026676D02*
Y030402D01*
X027676D01*
Y029652D02*
Y030402D01*
Y020402D02*
Y029652D01*
X023136Y024824D02*
Y02745D01*
X024436Y024824D02*
Y02745D01*
X023136D02*
X024436D01*
X023136Y024824D02*
X024436D01*
X022965Y029193D02*
X024965D01*
Y030193D01*
X022965D02*
X024965D01*
X022965Y029193D02*
Y030193D01*
X025629Y021882D02*
Y023882D01*
X021629Y021882D02*
Y023882D01*
X025629D01*
X021629Y021882D02*
X025629D01*
X021237Y020659D02*
Y021659D01*
X026237D01*
X021237Y020659D02*
X026237D01*
Y021659D01*
X028993Y013872D02*
Y016038D01*
X026828Y013872D02*
Y016038D01*
Y013872D02*
X028993D01*
X026828Y016038D02*
X028993D01*
X034662Y013951D02*
Y01525D01*
X032654Y013951D02*
Y01525D01*
X034662D01*
X032654Y013951D02*
X034662D01*
X023501Y011274D02*
Y013912D01*
X024524Y011274D02*
Y013912D01*
X023501D02*
X024524D01*
X023501Y011274D02*
X024524D01*
X02467Y017644D02*
X03392D01*
X03467D01*
Y018644D01*
X02467D02*
X03467D01*
X02467Y017644D02*
Y018644D01*
X022461Y014018D02*
Y018018D01*
X024461Y014018D02*
Y018018D01*
X022461D02*
X024461D01*
X022461Y014018D02*
X024461D01*
X031198Y01103D02*
Y01203D01*
X026198Y01103D02*
X031198D01*
X026198Y01203D02*
X031198D01*
X026198Y01103D02*
Y01203D01*
X031808Y013498D02*
Y013813D01*
X031965D01*
X032018Y013761D01*
Y013656D01*
X031965Y013603D01*
X031808D01*
X031913D02*
X032018Y013498D01*
X032333D02*
X032123D01*
X032333Y013708D01*
Y013761D01*
X03228Y013813D01*
X032175D01*
X032123Y013761D01*
X02728Y015459D02*
X027385D01*
X027333D01*
Y015144D01*
X02728D01*
X027385D01*
X027753Y015406D02*
X0277Y015459D01*
X027595D01*
X027543Y015406D01*
Y015196D01*
X027595Y015144D01*
X0277D01*
X027753Y015196D01*
X027858Y015144D02*
X027963D01*
X02791D01*
Y015459D01*
X027858Y015406D01*
X031585Y013328D02*
X031532Y01338D01*
X031427D01*
X031375Y013328D01*
Y013118D01*
X031427Y013065D01*
X031532D01*
X031585Y013118D01*
X03169Y013065D02*
X031795D01*
X031742D01*
Y01338D01*
X03169Y013328D01*
X031952D02*
X032005Y01338D01*
X032109D01*
X032162Y013328D01*
Y013118D01*
X032109Y013065D01*
X032005D01*
X031952Y013118D01*
Y013328D01*
X025246Y014981D02*
X025194Y015034D01*
X025089D01*
X025036Y014981D01*
Y014771D01*
X025089Y014719D01*
X025194D01*
X025246Y014771D01*
X025561Y014719D02*
X025351D01*
X025561Y014929D01*
Y014981D01*
X025509Y015034D01*
X025404D01*
X025351Y014981D01*
X025522Y017383D02*
X025469Y017435D01*
X025364D01*
X025312Y017383D01*
Y017173D01*
X025364Y01712D01*
X025469D01*
X025522Y017173D01*
X025627Y017383D02*
X025679Y017435D01*
X025784D01*
X025837Y017383D01*
Y01733D01*
X025784Y017278D01*
X025732D01*
X025784D01*
X025837Y017225D01*
Y017173D01*
X025784Y01712D01*
X025679D01*
X025627Y017173D01*
X024616Y017252D02*
X024564Y017199D01*
Y017094D01*
X024616Y017042D01*
X024826D01*
X024879Y017094D01*
Y017199D01*
X024826Y017252D01*
X024879Y017514D02*
X024564D01*
X024721Y017357D01*
Y017566D01*
X026349Y01237D02*
X026296Y012317D01*
Y012212D01*
X026349Y01216D01*
X026559D01*
X026611Y012212D01*
Y012317D01*
X026559Y01237D01*
X026296Y012685D02*
Y012475D01*
X026454D01*
X026401Y01258D01*
Y012632D01*
X026454Y012685D01*
X026559D01*
X026611Y012632D01*
Y012527D01*
X026559Y012475D01*
X026821Y01233D02*
X026769Y012278D01*
Y012173D01*
X026821Y01212D01*
X027031D01*
X027083Y012173D01*
Y012278D01*
X027031Y01233D01*
X027083Y012435D02*
Y01254D01*
Y012488D01*
X026769D01*
X026821Y012435D01*
X027083Y012855D02*
X026769D01*
X026926Y012698D01*
Y012908D01*
X030994Y016819D02*
X030942Y016766D01*
Y016661D01*
X030994Y016609D01*
X031204D01*
X031257Y016661D01*
Y016766D01*
X031204Y016819D01*
X031257Y016924D02*
Y017028D01*
Y016976D01*
X030942D01*
X030994Y016924D01*
X030942Y017396D02*
Y017186D01*
X031099D01*
X031047Y017291D01*
Y017343D01*
X031099Y017396D01*
X031204D01*
X031257Y017343D01*
Y017238D01*
X031204Y017186D01*
X026139Y01216D02*
X025824D01*
Y012317D01*
X025876Y01237D01*
X025981D01*
X026034Y012317D01*
Y01216D01*
Y012265D02*
X026139Y01237D01*
Y012475D02*
Y01258D01*
Y012527D01*
X025824D01*
X025876Y012475D01*
X029918Y016963D02*
X029603D01*
Y01712D01*
X029656Y017173D01*
X029761D01*
X029813Y01712D01*
Y016963D01*
Y017068D02*
X029918Y017173D01*
X029603Y017488D02*
X029656Y017383D01*
X029761Y017278D01*
X029866D01*
X029918Y01733D01*
Y017435D01*
X029866Y017488D01*
X029813D01*
X029761Y017435D01*
Y017278D01*
X03417Y014246D02*
X034433D01*
X034485Y014299D01*
Y014404D01*
X034433Y014456D01*
X03417D01*
X034485Y014771D02*
Y014561D01*
X034275Y014771D01*
X034223D01*
X03417Y014719D01*
Y014614D01*
X034223Y014561D01*
X020115Y014246D02*
X020377D01*
X02043Y014299D01*
Y014404D01*
X020377Y014456D01*
X020115D01*
X020168Y014771D02*
X020115Y014719D01*
Y014614D01*
X020168Y014561D01*
X02022D01*
X020272Y014614D01*
Y014719D01*
X020325Y014771D01*
X020377D01*
X02043Y014719D01*
Y014614D01*
X020377Y014561D01*
X020115Y014876D02*
X02043D01*
Y015034D01*
X020377Y015086D01*
X020325D01*
X020272Y015034D01*
Y014876D01*
Y015034D01*
X02022Y015086D01*
X020168D01*
X020115Y015034D01*
Y014876D01*
X02043Y015191D02*
Y015296D01*
Y015244D01*
X020115D01*
X020168Y015191D01*
X03136Y015385D02*
Y015332D01*
X031465Y015227D01*
X03157Y015332D01*
Y015385D01*
X031465Y015227D02*
Y01507D01*
X031675D02*
X03178D01*
X031727D01*
Y015385D01*
X031675Y015332D01*
X022451Y011241D02*
X022398Y011294D01*
X022293D01*
X022241Y011241D01*
Y011031D01*
X022293Y010979D01*
X022398D01*
X022451Y011031D01*
X022556Y011294D02*
X022766D01*
Y011241D01*
X022556Y011031D01*
Y010979D01*
X022412Y018315D02*
X022359Y018262D01*
Y018157D01*
X022412Y018105D01*
X022622D01*
X022674Y018157D01*
Y018262D01*
X022622Y018315D01*
Y01842D02*
X022674Y018472D01*
Y018577D01*
X022622Y018629D01*
X022412D01*
X022359Y018577D01*
Y018472D01*
X022412Y01842D01*
X022464D01*
X022517Y018472D01*
Y018629D01*
X02312Y011241D02*
X023068Y011294D01*
X022963D01*
X02291Y011241D01*
Y011031D01*
X022963Y010979D01*
X023068D01*
X02312Y011031D01*
X023435Y011294D02*
X02333Y011241D01*
X023225Y011136D01*
Y011031D01*
X023278Y010979D01*
X023383D01*
X023435Y011031D01*
Y011084D01*
X023383Y011136D01*
X023225D01*
X030246Y014496D02*
X030194Y014443D01*
Y014338D01*
X030246Y014286D01*
X030456D01*
X030509Y014338D01*
Y014443D01*
X030456Y014496D01*
X030246Y014601D02*
X030194Y014653D01*
Y014758D01*
X030246Y014811D01*
X030299D01*
X030351Y014758D01*
X030404Y014811D01*
X030456D01*
X030509Y014758D01*
Y014653D01*
X030456Y014601D01*
X030404D01*
X030351Y014653D01*
X030299Y014601D01*
X030246D01*
X030351Y014653D02*
Y014758D01*
X036073Y015414D02*
X03602Y015467D01*
X035915D01*
X035863Y015414D01*
Y015362D01*
X035915Y015309D01*
X03602D01*
X036073Y015257D01*
Y015204D01*
X03602Y015152D01*
X035915D01*
X035863Y015204D01*
X036178Y015467D02*
Y015152D01*
X036283Y015257D01*
X036388Y015152D01*
Y015467D01*
X036493Y015152D02*
X036598D01*
X036545D01*
Y015467D01*
X036493Y015414D01*
X023776Y01275D02*
Y012488D01*
X023829Y012435D01*
X023934D01*
X023986Y012488D01*
Y01275D01*
X024091Y012435D02*
X024196D01*
X024144D01*
Y01275D01*
X024091Y012698D01*
X035915Y013249D02*
X035863Y013301D01*
X035758D01*
X035706Y013249D01*
Y013039D01*
X035758Y012987D01*
X035863D01*
X035915Y013039D01*
X03602Y012987D02*
X036125D01*
X036073D01*
Y013301D01*
X03602Y013249D01*
X036283Y012987D02*
X036388D01*
X036335D01*
Y013301D01*
X036283Y013249D01*
X031979Y016819D02*
X031926Y016766D01*
Y016661D01*
X031979Y016609D01*
X032188D01*
X032241Y016661D01*
Y016766D01*
X032188Y016819D01*
X032241Y016924D02*
Y017028D01*
Y016976D01*
X031926D01*
X031979Y016924D01*
X032241Y017396D02*
Y017186D01*
X032031Y017396D01*
X031979D01*
X031926Y017343D01*
Y017238D01*
X031979Y017186D01*
X031506Y016937D02*
X031454Y016884D01*
Y016779D01*
X031506Y016727D01*
X031716D01*
X031769Y016779D01*
Y016884D01*
X031716Y016937D01*
X031769Y017042D02*
Y017147D01*
Y017094D01*
X031454D01*
X031506Y017042D01*
Y017304D02*
X031454Y017356D01*
Y017461D01*
X031506Y017514D01*
X031559D01*
X031611Y017461D01*
Y017409D01*
Y017461D01*
X031664Y017514D01*
X031716D01*
X031769Y017461D01*
Y017356D01*
X031716Y017304D01*
X037097Y012488D02*
X037044Y012435D01*
Y01233D01*
X037097Y012278D01*
X037307D01*
X037359Y01233D01*
Y012435D01*
X037307Y012488D01*
X037359Y012593D02*
Y012698D01*
Y012645D01*
X037044D01*
X037097Y012593D01*
X037044Y013065D02*
X037097Y01296D01*
X037202Y012855D01*
X037307D01*
X037359Y012908D01*
Y013013D01*
X037307Y013065D01*
X037254D01*
X037202Y013013D01*
Y012855D01*
X036926Y012317D02*
X036611D01*
Y012475D01*
X036664Y012527D01*
X036769D01*
X036821Y012475D01*
Y012317D01*
Y012422D02*
X036926Y012527D01*
X036611Y012632D02*
Y012842D01*
X036664D01*
X036874Y012632D01*
X036926D01*
X027674Y017239D02*
Y017553D01*
X027831D01*
X027884Y017501D01*
Y017396D01*
X027831Y017344D01*
X027674D01*
X027989Y017239D02*
X028094D01*
X028041D01*
Y017553D01*
X027989Y017501D01*
X0232Y01586D02*
Y016175D01*
X023357D01*
X02341Y016122D01*
Y016017D01*
X023357Y015965D01*
X0232D01*
X023725Y01586D02*
X023515D01*
X023725Y01607D01*
Y016122D01*
X023672Y016175D01*
X023567D01*
X023515Y016122D01*
X034839Y012554D02*
X035154D01*
Y012711D01*
X035102Y012763D01*
X034892D01*
X034839Y012711D01*
Y012554D01*
X035154Y012868D02*
Y012973D01*
Y012921D01*
X034839D01*
X034892Y012868D01*
X036139Y012317D02*
X036454D01*
Y012475D01*
X036401Y012527D01*
X036191D01*
X036139Y012475D01*
Y012317D01*
X036454Y012842D02*
Y012632D01*
X036244Y012842D01*
X036191D01*
X036139Y01279D01*
Y012685D01*
X036191Y012632D01*
X036178Y017357D02*
X036493D01*
Y017514D01*
X03644Y017567D01*
X036231D01*
X036178Y017514D01*
Y017357D01*
X036231Y017672D02*
X036178Y017724D01*
Y017829D01*
X036231Y017881D01*
X036283D01*
X036335Y017829D01*
Y017776D01*
Y017829D01*
X036388Y017881D01*
X03644D01*
X036493Y017829D01*
Y017724D01*
X03644Y017672D01*
X03606Y017357D02*
X035745D01*
Y017514D01*
X035797Y017567D01*
X035902D01*
X035955Y017514D01*
Y017357D01*
Y017462D02*
X03606Y017567D01*
X035745Y017881D02*
Y017672D01*
X035902D01*
X03585Y017776D01*
Y017829D01*
X035902Y017881D01*
X036007D01*
X03606Y017829D01*
Y017724D01*
X036007Y017672D01*
X027254Y011292D02*
X027202Y011345D01*
X027097D01*
X027044Y011292D01*
Y011082D01*
X027097Y01103D01*
X027202D01*
X027254Y011082D01*
X027359Y01103D02*
X027464D01*
X027411D01*
Y011345D01*
X027359Y011292D01*
X035587Y012554D02*
X035273D01*
Y012711D01*
X035325Y012763D01*
X03543D01*
X035482Y012711D01*
Y012554D01*
Y012658D02*
X035587Y012763D01*
X035325Y012868D02*
X035273Y012921D01*
Y013026D01*
X035325Y013078D01*
X035378D01*
X03543Y013026D01*
Y012973D01*
Y013026D01*
X035482Y013078D01*
X035535D01*
X035587Y013026D01*
Y012921D01*
X035535Y012868D01*
X03602Y012357D02*
X035706D01*
Y012514D01*
X035758Y012567D01*
X035863D01*
X035916Y012514D01*
Y012357D01*
Y012462D02*
X03602Y012567D01*
Y012829D02*
X035706D01*
X035863Y012672D01*
Y012881D01*
D37*
X029554Y013597D02*
G03*
X029554Y013597I-000049J0D01*
G01*
X023776Y013617D02*
G03*
X023776Y013617I-000049J0D01*
G01*
D38*
X028717Y014266D02*
G03*
X028717Y014266I-000118J0D01*
G01*
D39*
X0218Y014838D02*
D03*
D40*
X030843Y0255D02*
X031079D01*
Y025382D01*
X031039Y025343D01*
X030961D01*
X030921Y025382D01*
Y0255D01*
X030843Y025146D02*
X031079D01*
X030961Y025264D01*
Y025106D01*
X030803Y025028D02*
Y02487D01*
X030843Y024792D02*
Y024713D01*
Y024752D01*
X031079D01*
X031039Y024792D01*
X036043Y0304D02*
X036279D01*
Y030282D01*
X036239Y030243D01*
X036161D01*
X036121Y030282D01*
Y0304D01*
X036043Y030006D02*
Y030164D01*
X0362Y030006D01*
X036239D01*
X036279Y030046D01*
Y030124D01*
X036239Y030164D01*
X036003Y029928D02*
Y02977D01*
X036043Y029534D02*
Y029692D01*
X0362Y029534D01*
X036239D01*
X036279Y029574D01*
Y029652D01*
X036239Y029692D01*
X033343Y027664D02*
Y027861D01*
X033303Y0279D01*
X033224D01*
X033185Y027861D01*
Y027664D01*
X033106Y0279D02*
X033028D01*
X033067D01*
Y027664D01*
X033106Y027703D01*
X03291Y027939D02*
X032752D01*
X032516Y0279D02*
X032673D01*
X032516Y027743D01*
Y027703D01*
X032555Y027664D01*
X032634D01*
X032673Y027703D01*
X031543Y0274D02*
Y027164D01*
X031424D01*
X031385Y027203D01*
Y027282D01*
X031424Y027321D01*
X031543D01*
X031464D02*
X031385Y0274D01*
X031149D02*
X031306D01*
X031149Y027243D01*
Y027203D01*
X031188Y027164D01*
X031267D01*
X031306Y027203D01*
X03107Y027439D02*
X030913D01*
X030677Y0274D02*
X030834D01*
X030677Y027243D01*
Y027203D01*
X030716Y027164D01*
X030795D01*
X030834Y027203D01*
X031543Y027D02*
Y026764D01*
X031424D01*
X031385Y026803D01*
Y026882D01*
X031424Y026921D01*
X031543D01*
X031464D02*
X031385Y027D01*
X031306D02*
X031228D01*
X031267D01*
Y026764D01*
X031306Y026803D01*
X03111Y027039D02*
X030952D01*
X030716Y027D02*
X030873D01*
X030716Y026843D01*
Y026803D01*
X030755Y026764D01*
X030834D01*
X030873Y026803D01*
X035043Y0299D02*
X035279D01*
Y029782D01*
X035239Y029743D01*
X035161D01*
X035121Y029782D01*
Y0299D01*
X035239Y029664D02*
X035279Y029625D01*
Y029546D01*
X035239Y029506D01*
X0352D01*
X035161Y029546D01*
Y029585D01*
Y029546D01*
X035121Y029506D01*
X035082D01*
X035043Y029546D01*
Y029625D01*
X035082Y029664D01*
X035003Y029428D02*
Y02927D01*
X035043Y029192D02*
Y029113D01*
Y029152D01*
X035279D01*
X035239Y029192D01*
X03565Y02385D02*
X035886D01*
Y023732D01*
X035847Y023693D01*
X035768D01*
X035729Y023732D01*
Y02385D01*
X03565Y023614D02*
Y023535D01*
Y023575D01*
X035886D01*
X035847Y023614D01*
X035611Y023417D02*
Y02326D01*
X03565Y023024D02*
Y023181D01*
X035807Y023024D01*
X035847D01*
X035886Y023063D01*
Y023142D01*
X035847Y023181D01*
X031385Y027603D02*
X031424Y027564D01*
X031503D01*
X031543Y027603D01*
Y027761D01*
X031503Y0278D01*
X031424D01*
X031385Y027761D01*
X031149Y0278D02*
X031306D01*
X031149Y027643D01*
Y027603D01*
X031188Y027564D01*
X031267D01*
X031306Y027603D01*
X03107Y027839D02*
X030913D01*
X030677Y0278D02*
X030834D01*
X030677Y027643D01*
Y027603D01*
X030716Y027564D01*
X030795D01*
X030834Y027603D01*
X031247Y022493D02*
X031286Y022532D01*
Y022611D01*
X031247Y02265D01*
X031089D01*
X03105Y022611D01*
Y022532D01*
X031089Y022493D01*
X03105Y022414D02*
Y022335D01*
Y022374D01*
X031286D01*
X031247Y022414D01*
X031011Y022217D02*
Y02206D01*
X03105Y021823D02*
Y021981D01*
X031207Y021823D01*
X031247D01*
X031286Y021863D01*
Y021942D01*
X031247Y021981D01*
X034623Y02887D02*
X034356D01*
X034489Y028737D02*
Y029003D01*
X033423Y02887D02*
X033156D01*
X021Y0255D02*
X021236D01*
Y025382D01*
X021197Y025343D01*
X021118D01*
X021079Y025382D01*
Y0255D01*
X021Y025146D02*
X021236D01*
X021118Y025264D01*
Y025106D01*
X0262Y0304D02*
X026436D01*
Y030282D01*
X026397Y030243D01*
X026318D01*
X026279Y030282D01*
Y0304D01*
X0262Y030006D02*
Y030164D01*
X026357Y030006D01*
X026397D01*
X026436Y030046D01*
Y030124D01*
X026397Y030164D01*
X026161Y029928D02*
Y02977D01*
X0262Y029692D02*
Y029613D01*
Y029652D01*
X026436D01*
X026397Y029692D01*
X0235Y027664D02*
Y027861D01*
X023461Y0279D01*
X023382D01*
X023343Y027861D01*
Y027664D01*
X023264Y0279D02*
X023185D01*
X023224D01*
Y027664D01*
X023264Y027703D01*
X023067Y027939D02*
X02291D01*
X022831Y0279D02*
X022752D01*
X022792D01*
Y027664D01*
X022831Y027703D01*
X0217Y0274D02*
Y027164D01*
X021582D01*
X021543Y027203D01*
Y027282D01*
X021582Y027321D01*
X0217D01*
X021621D02*
X021543Y0274D01*
X021306D02*
X021464D01*
X021306Y027243D01*
Y027203D01*
X021346Y027164D01*
X021425D01*
X021464Y027203D01*
X021228Y027439D02*
X02107D01*
X020992Y0274D02*
X020913D01*
X020952D01*
Y027164D01*
X020992Y027203D01*
X0217Y027D02*
Y026764D01*
X021582D01*
X021543Y026803D01*
Y026882D01*
X021582Y026921D01*
X0217D01*
X021621D02*
X021543Y027D01*
X021464D02*
X021385D01*
X021425D01*
Y026764D01*
X021464Y026803D01*
X021267Y027039D02*
X02111D01*
X021031Y027D02*
X020952D01*
X020992D01*
Y026764D01*
X021031Y026803D01*
X0252Y0299D02*
X025436D01*
Y029782D01*
X025397Y029743D01*
X025318D01*
X025279Y029782D01*
Y0299D01*
X025397Y029664D02*
X025436Y029625D01*
Y029546D01*
X025397Y029506D01*
X025357D01*
X025318Y029546D01*
Y029585D01*
Y029546D01*
X025279Y029506D01*
X025239D01*
X0252Y029546D01*
Y029625D01*
X025239Y029664D01*
X02585Y02385D02*
X026086D01*
Y023732D01*
X026047Y023693D01*
X025968D01*
X025929Y023732D01*
Y02385D01*
X02585Y023614D02*
Y023535D01*
Y023575D01*
X026086D01*
X026047Y023614D01*
X025811Y023417D02*
Y02326D01*
X02585Y023181D02*
Y023102D01*
Y023142D01*
X026086D01*
X026047Y023181D01*
X021543Y027603D02*
X021582Y027564D01*
X021661D01*
X0217Y027603D01*
Y027761D01*
X021661Y0278D01*
X021582D01*
X021543Y027761D01*
X021306Y0278D02*
X021464D01*
X021306Y027643D01*
Y027603D01*
X021346Y027564D01*
X021425D01*
X021464Y027603D01*
X021228Y027839D02*
X02107D01*
X020992Y0278D02*
X020913D01*
X020952D01*
Y027564D01*
X020992Y027603D01*
X021397Y022393D02*
X021436Y022432D01*
Y022511D01*
X021397Y02255D01*
X021239D01*
X0212Y022511D01*
Y022432D01*
X021239Y022393D01*
X0212Y022314D02*
Y022235D01*
Y022274D01*
X021436D01*
X021397Y022314D01*
X021161Y022117D02*
Y02196D01*
X0212Y021881D02*
Y021802D01*
Y021842D01*
X021436D01*
X021397Y021881D01*
X02478Y02887D02*
X024513D01*
X024647Y028737D02*
Y029003D01*
X02358Y02887D02*
X023314D01*
M02*
