G04 Layer_Color=8388736*
%FSTAX24Y24*%
%MOIN*%
G70*
G01*
G75*
%ADD26R,0.1064X0.0867*%
%ADD27R,0.0986X0.0277*%
%ADD28R,0.0474X0.0592*%
%ADD29R,0.0395X0.0454*%
%ADD30R,0.0454X0.0395*%
%ADD31O,0.0946X0.0316*%
%ADD32R,0.0946X0.0316*%
%ADD33C,0.0592*%
%ADD34R,0.0592X0.0592*%
%ADD35C,0.0316*%
%ADD36C,0.0671*%
%ADD37R,0.0671X0.0671*%
%ADD38C,0.0867*%
D26*
X045693Y033472D02*
D03*
Y029968D02*
D03*
X047859D02*
D03*
Y033472D02*
D03*
D27*
X045654Y03235D02*
D03*
Y032035D02*
D03*
Y03172D02*
D03*
Y031405D02*
D03*
Y03109D02*
D03*
D28*
X045594Y0347D02*
D03*
X044806D02*
D03*
D29*
X037196Y03345D02*
D03*
X037904D02*
D03*
X039204Y0298D02*
D03*
X038496D02*
D03*
D30*
X0392Y029154D02*
D03*
Y028446D02*
D03*
X04455Y029204D02*
D03*
Y028496D02*
D03*
X0452Y029204D02*
D03*
Y028496D02*
D03*
X0458Y029154D02*
D03*
Y028446D02*
D03*
D31*
X043145Y03505D02*
D03*
X039255D02*
D03*
Y03455D02*
D03*
X043145D02*
D03*
Y03105D02*
D03*
Y03155D02*
D03*
Y03205D02*
D03*
Y03255D02*
D03*
Y03305D02*
D03*
Y03355D02*
D03*
X039255Y03105D02*
D03*
Y03155D02*
D03*
Y03205D02*
D03*
Y03255D02*
D03*
Y03305D02*
D03*
Y03355D02*
D03*
Y03405D02*
D03*
Y03055D02*
D03*
X043145Y03405D02*
D03*
D32*
Y03055D02*
D03*
D33*
X0411Y034687D02*
D03*
Y0339D02*
D03*
Y033112D02*
D03*
Y031537D02*
D03*
Y032325D02*
D03*
D34*
Y03075D02*
D03*
D35*
X046678Y030854D02*
D03*
Y032586D02*
D03*
D36*
X03755Y0305D02*
D03*
Y0315D02*
D03*
D37*
Y0325D02*
D03*
D38*
X040875Y0291D02*
D03*
X042825D02*
D03*
M02*
