G04 Layer_Physical_Order=1*
G04 Layer_Color=255*
%FSTAX24Y24*%
%MOIN*%
G70*
G01*
G75*
%ADD10R,0.0984X0.0787*%
%ADD11R,0.0906X0.0197*%
%ADD12R,0.0315X0.0374*%
%ADD13R,0.0374X0.0315*%
%ADD14R,0.0394X0.0512*%
%ADD15O,0.0866X0.0236*%
%ADD16R,0.0866X0.0236*%
%ADD17C,0.0100*%
%ADD18C,0.0236*%
%ADD19C,0.0591*%
%ADD20R,0.0591X0.0591*%
%ADD21C,0.0787*%
%ADD22C,0.0512*%
%ADD23R,0.0512X0.0512*%
%ADD24C,0.0320*%
D10*
X031243Y045572D02*
D03*
Y042068D02*
D03*
X033409D02*
D03*
Y045572D02*
D03*
X047343Y045522D02*
D03*
Y042018D02*
D03*
X049509D02*
D03*
Y045522D02*
D03*
X031293Y034972D02*
D03*
Y031468D02*
D03*
X033459D02*
D03*
Y034972D02*
D03*
X047393Y034922D02*
D03*
Y031418D02*
D03*
X049559D02*
D03*
Y034922D02*
D03*
X047543Y056922D02*
D03*
Y053418D02*
D03*
X049709D02*
D03*
Y056922D02*
D03*
X031443Y056972D02*
D03*
Y053468D02*
D03*
X033609D02*
D03*
Y056972D02*
D03*
D11*
X031204Y04445D02*
D03*
Y044135D02*
D03*
Y04382D02*
D03*
Y043505D02*
D03*
Y04319D02*
D03*
X047304Y0444D02*
D03*
Y044085D02*
D03*
Y04377D02*
D03*
Y043455D02*
D03*
Y04314D02*
D03*
X031254Y03385D02*
D03*
Y033535D02*
D03*
Y03322D02*
D03*
Y032905D02*
D03*
Y03259D02*
D03*
X047354Y0338D02*
D03*
Y033485D02*
D03*
Y03317D02*
D03*
Y032855D02*
D03*
Y03254D02*
D03*
X047504Y0558D02*
D03*
Y055485D02*
D03*
Y05517D02*
D03*
Y054855D02*
D03*
Y05454D02*
D03*
X031404Y05585D02*
D03*
Y055535D02*
D03*
Y05522D02*
D03*
Y054905D02*
D03*
Y05459D02*
D03*
D12*
X024754Y0419D02*
D03*
X024046D02*
D03*
X022746Y04555D02*
D03*
X023454D02*
D03*
X040854Y04185D02*
D03*
X040146D02*
D03*
X038846Y0455D02*
D03*
X039554D02*
D03*
X024804Y0313D02*
D03*
X024096D02*
D03*
X022796Y03495D02*
D03*
X023504D02*
D03*
X040904Y03125D02*
D03*
X040196D02*
D03*
X038896Y0349D02*
D03*
X039604D02*
D03*
X039046Y0569D02*
D03*
X039754D02*
D03*
X041054Y05325D02*
D03*
X040346D02*
D03*
X022946Y05695D02*
D03*
X023654D02*
D03*
X024954Y0533D02*
D03*
X024246D02*
D03*
D13*
X0301Y041304D02*
D03*
Y040596D02*
D03*
X03075Y041304D02*
D03*
Y040596D02*
D03*
X03135Y041254D02*
D03*
Y040546D02*
D03*
X02475Y041254D02*
D03*
Y040546D02*
D03*
X0462Y041254D02*
D03*
Y040546D02*
D03*
X04685Y041254D02*
D03*
Y040546D02*
D03*
X04745Y041204D02*
D03*
Y040496D02*
D03*
X04085Y041204D02*
D03*
Y040496D02*
D03*
X03015Y030704D02*
D03*
Y029996D02*
D03*
X0308Y030704D02*
D03*
Y029996D02*
D03*
X0314Y030654D02*
D03*
Y029946D02*
D03*
X0248Y030654D02*
D03*
Y029946D02*
D03*
X04625Y030654D02*
D03*
Y029946D02*
D03*
X0469Y030654D02*
D03*
Y029946D02*
D03*
X0475Y030604D02*
D03*
Y029896D02*
D03*
X0409Y030604D02*
D03*
Y029896D02*
D03*
X04105Y052604D02*
D03*
Y051896D02*
D03*
X04765Y052604D02*
D03*
Y051896D02*
D03*
X04705Y052654D02*
D03*
Y051946D02*
D03*
X0464Y052654D02*
D03*
Y051946D02*
D03*
X02495Y052654D02*
D03*
Y051946D02*
D03*
X03155Y052654D02*
D03*
Y051946D02*
D03*
X03095Y052704D02*
D03*
Y051996D02*
D03*
X0303Y052704D02*
D03*
Y051996D02*
D03*
D14*
X031144Y0468D02*
D03*
X030356D02*
D03*
X047244Y04675D02*
D03*
X046456D02*
D03*
X031194Y0362D02*
D03*
X030406D02*
D03*
X047294Y03615D02*
D03*
X046506D02*
D03*
X047444Y05815D02*
D03*
X046656D02*
D03*
X031344Y0582D02*
D03*
X030556D02*
D03*
D15*
X028695Y04715D02*
D03*
X024805D02*
D03*
Y04665D02*
D03*
X028695D02*
D03*
Y04315D02*
D03*
Y04365D02*
D03*
Y04415D02*
D03*
Y04465D02*
D03*
Y04515D02*
D03*
Y04565D02*
D03*
X024805Y04315D02*
D03*
Y04365D02*
D03*
Y04415D02*
D03*
Y04465D02*
D03*
Y04515D02*
D03*
Y04565D02*
D03*
Y04615D02*
D03*
Y04265D02*
D03*
X028695Y04615D02*
D03*
X044795Y0471D02*
D03*
X040905D02*
D03*
Y0466D02*
D03*
X044795D02*
D03*
Y0431D02*
D03*
Y0436D02*
D03*
Y0441D02*
D03*
Y0446D02*
D03*
Y0451D02*
D03*
Y0456D02*
D03*
X040905Y0431D02*
D03*
Y0436D02*
D03*
Y0441D02*
D03*
Y0446D02*
D03*
Y0451D02*
D03*
Y0456D02*
D03*
Y0461D02*
D03*
Y0426D02*
D03*
X044795Y0461D02*
D03*
X028745Y03655D02*
D03*
X024855D02*
D03*
Y03605D02*
D03*
X028745D02*
D03*
Y03255D02*
D03*
Y03305D02*
D03*
Y03355D02*
D03*
Y03405D02*
D03*
Y03455D02*
D03*
Y03505D02*
D03*
X024855Y03255D02*
D03*
Y03305D02*
D03*
Y03355D02*
D03*
Y03405D02*
D03*
Y03455D02*
D03*
Y03505D02*
D03*
Y03555D02*
D03*
Y03205D02*
D03*
X028745Y03555D02*
D03*
X044845Y0365D02*
D03*
X040955D02*
D03*
Y036D02*
D03*
X044845D02*
D03*
Y0325D02*
D03*
Y033D02*
D03*
Y0335D02*
D03*
Y034D02*
D03*
Y0345D02*
D03*
Y035D02*
D03*
X040955Y0325D02*
D03*
Y033D02*
D03*
Y0335D02*
D03*
Y034D02*
D03*
Y0345D02*
D03*
Y035D02*
D03*
Y0355D02*
D03*
Y032D02*
D03*
X044845Y0355D02*
D03*
X044995Y0585D02*
D03*
X041105D02*
D03*
Y058D02*
D03*
X044995D02*
D03*
Y0545D02*
D03*
Y055D02*
D03*
Y0555D02*
D03*
Y056D02*
D03*
Y0565D02*
D03*
Y057D02*
D03*
X041105Y0545D02*
D03*
Y055D02*
D03*
Y0555D02*
D03*
Y056D02*
D03*
Y0565D02*
D03*
Y057D02*
D03*
Y0575D02*
D03*
Y054D02*
D03*
X044995Y0575D02*
D03*
X028895Y05855D02*
D03*
X025005D02*
D03*
Y05805D02*
D03*
X028895D02*
D03*
Y05455D02*
D03*
Y05505D02*
D03*
Y05555D02*
D03*
Y05605D02*
D03*
Y05655D02*
D03*
Y05705D02*
D03*
X025005Y05455D02*
D03*
Y05505D02*
D03*
Y05555D02*
D03*
Y05605D02*
D03*
Y05655D02*
D03*
Y05705D02*
D03*
Y05755D02*
D03*
Y05405D02*
D03*
X028895Y05755D02*
D03*
D16*
X028695Y04265D02*
D03*
X044795Y0426D02*
D03*
X028745Y03205D02*
D03*
X044845Y032D02*
D03*
X044995Y054D02*
D03*
X028895Y05405D02*
D03*
D17*
X028Y04465D02*
X028695D01*
X028Y04415D02*
X028695D01*
X0277Y04385D02*
X028Y04415D01*
X0277Y041875D02*
Y04385D01*
Y041875D02*
X028375Y0412D01*
X0275Y04415D02*
X028Y04465D01*
X0275Y042275D02*
Y04415D01*
X026425Y0412D02*
X0275Y042275D01*
X0231Y0426D02*
X0238Y0419D01*
X024046D01*
X024754D02*
Y042599D01*
X02405Y04265D02*
X024805D01*
X0231Y0436D02*
X02405Y04265D01*
X024805D02*
X02645D01*
X02665Y04285D01*
X024805Y04315D02*
X025375D01*
X02665Y044425D01*
X02575Y044312D02*
X02665Y045212D01*
X02575Y04385D02*
Y044312D01*
X02555Y04365D02*
X02575Y04385D01*
X024805Y04365D02*
X02555D01*
X024805Y04415D02*
X0253D01*
X02565Y0445D01*
Y045D01*
X02665Y046D01*
X022746Y044954D02*
Y04555D01*
Y044954D02*
X0231Y0446D01*
X02425Y04715D02*
X024805D01*
X02412Y04702D02*
X02425Y04715D01*
X023454Y04555D02*
X02412Y046216D01*
Y04702D01*
X027013Y04715D02*
X028695D01*
X02665Y046787D02*
X027013Y04715D01*
X0301Y040596D02*
X03075D01*
X02475Y041254D02*
X026371D01*
X026425Y0412D01*
X024046Y04165D02*
X02412Y041575D01*
Y04083D02*
X024404Y040546D01*
X02475D01*
X024046Y04165D02*
Y0419D01*
X02412Y04083D02*
Y041575D01*
X02475Y040546D02*
X03005D01*
X0301Y040596D01*
X02848Y041304D02*
X0301D01*
X028375Y0412D02*
X02848Y041304D01*
X03075Y041304D02*
X0313D01*
X03135Y041254D01*
Y040546D02*
X031546D01*
X03185Y04085D01*
Y0413D01*
X0278Y04515D02*
X028695D01*
X0278Y04565D02*
X028695D01*
X03043Y04382D02*
X031204D01*
X0303Y04395D02*
X03043Y04382D01*
X030305Y043505D02*
X031204D01*
X0303Y0435D02*
X030305Y043505D01*
X028695Y04265D02*
X0295D01*
X03064Y04319D02*
X031204D01*
X030006Y04715D02*
X030356Y0468D01*
X028695Y04715D02*
X030006D01*
X03055Y04445D02*
X031204D01*
X030356Y044644D02*
X03055Y04445D01*
X030356Y044644D02*
Y0468D01*
X031826Y04319D02*
X0326Y043965D01*
X031204Y04319D02*
X031826D01*
X031144Y0468D02*
X0326Y045344D01*
Y043965D02*
Y045344D01*
Y04205D02*
Y043965D01*
X03185Y0413D02*
X0326Y04205D01*
X0301Y04265D02*
X03064Y04319D01*
X0301Y0426D02*
Y04265D01*
X0441Y0446D02*
X044795D01*
X0441Y0441D02*
X044795D01*
X0438Y0438D02*
X0441Y0441D01*
X0438Y041825D02*
Y0438D01*
Y041825D02*
X044475Y04115D01*
X0436Y0441D02*
X0441Y0446D01*
X0436Y042225D02*
Y0441D01*
X042525Y04115D02*
X0436Y042225D01*
X0392Y04255D02*
X0399Y04185D01*
X040146D01*
X040854D02*
Y042549D01*
X04015Y0426D02*
X040905D01*
X0392Y04355D02*
X04015Y0426D01*
X040905D02*
X04255D01*
X04275Y0428D01*
X040905Y0431D02*
X041475D01*
X04275Y044375D01*
X04185Y044262D02*
X04275Y045162D01*
X04185Y0438D02*
Y044262D01*
X04165Y0436D02*
X04185Y0438D01*
X040905Y0436D02*
X04165D01*
X040905Y0441D02*
X0414D01*
X04175Y04445D01*
Y04495D01*
X04275Y04595D01*
X038846Y044904D02*
Y0455D01*
Y044904D02*
X0392Y04455D01*
X04035Y0471D02*
X040905D01*
X04022Y04697D02*
X04035Y0471D01*
X039554Y0455D02*
X04022Y046166D01*
Y04697D01*
X043113Y0471D02*
X044795D01*
X04275Y046737D02*
X043113Y0471D01*
X0462Y040546D02*
X04685D01*
X04085Y041204D02*
X042471D01*
X042525Y04115D01*
X040146Y0416D02*
X04022Y041525D01*
Y04078D02*
X040504Y040496D01*
X04085D01*
X040146Y0416D02*
Y04185D01*
X04022Y04078D02*
Y041525D01*
X04085Y040496D02*
X04615D01*
X0462Y040546D01*
X04458Y041254D02*
X0462D01*
X044475Y04115D02*
X04458Y041254D01*
X04685Y041254D02*
X0474D01*
X04745Y041204D01*
Y040496D02*
X047646D01*
X04795Y0408D01*
Y04125D01*
X0439Y0451D02*
X044795D01*
X0439Y0456D02*
X044795D01*
X04653Y04377D02*
X047304D01*
X0464Y0439D02*
X04653Y04377D01*
X046405Y043455D02*
X047304D01*
X0464Y04345D02*
X046405Y043455D01*
X044795Y0426D02*
X0456D01*
X04674Y04314D02*
X047304D01*
X046106Y0471D02*
X046456Y04675D01*
X044795Y0471D02*
X046106D01*
X04665Y0444D02*
X047304D01*
X046456Y044594D02*
X04665Y0444D01*
X046456Y044594D02*
Y04675D01*
X047926Y04314D02*
X0487Y043914D01*
X047304Y04314D02*
X047926D01*
X047244Y04675D02*
X0487Y045294D01*
Y043914D02*
Y045294D01*
Y042D02*
Y043914D01*
X04795Y04125D02*
X0487Y042D01*
X0462Y0426D02*
X04674Y04314D01*
X0462Y04255D02*
Y0426D01*
X02805Y03405D02*
X028745D01*
X02805Y03355D02*
X028745D01*
X02775Y03325D02*
X02805Y03355D01*
X02775Y031275D02*
Y03325D01*
Y031275D02*
X028425Y0306D01*
X02755Y03355D02*
X02805Y03405D01*
X02755Y031675D02*
Y03355D01*
X026475Y0306D02*
X02755Y031675D01*
X02315Y032D02*
X02385Y0313D01*
X024096D01*
X024804D02*
Y031999D01*
X0241Y03205D02*
X024855D01*
X02315Y033D02*
X0241Y03205D01*
X024855D02*
X0265D01*
X0267Y03225D01*
X024855Y03255D02*
X025425D01*
X0267Y033825D01*
X0258Y033712D02*
X0267Y034612D01*
X0258Y03325D02*
Y033712D01*
X0256Y03305D02*
X0258Y03325D01*
X024855Y03305D02*
X0256D01*
X024855Y03355D02*
X02535D01*
X0257Y0339D01*
Y0344D01*
X0267Y0354D01*
X022796Y034354D02*
Y03495D01*
Y034354D02*
X02315Y034D01*
X0243Y03655D02*
X024855D01*
X02417Y03642D02*
X0243Y03655D01*
X023504Y03495D02*
X02417Y035616D01*
Y03642D01*
X027063Y03655D02*
X028745D01*
X0267Y036187D02*
X027063Y03655D01*
X03015Y029996D02*
X0308D01*
X0248Y030654D02*
X026421D01*
X026475Y0306D01*
X024096Y03105D02*
X02417Y030975D01*
Y03023D02*
X024454Y029946D01*
X0248D01*
X024096Y03105D02*
Y0313D01*
X02417Y03023D02*
Y030975D01*
X0248Y029946D02*
X0301D01*
X03015Y029996D01*
X02853Y030704D02*
X03015D01*
X028425Y0306D02*
X02853Y030704D01*
X0308Y030704D02*
X03135D01*
X0314Y030654D01*
Y029946D02*
X031596D01*
X0319Y03025D01*
Y0307D01*
X02785Y03455D02*
X028745D01*
X02785Y03505D02*
X028745D01*
X03048Y03322D02*
X031254D01*
X03035Y03335D02*
X03048Y03322D01*
X030355Y032905D02*
X031254D01*
X03035Y0329D02*
X030355Y032905D01*
X028745Y03205D02*
X02955D01*
X03069Y03259D02*
X031254D01*
X030056Y03655D02*
X030406Y0362D01*
X028745Y03655D02*
X030056D01*
X0306Y03385D02*
X031254D01*
X030406Y034044D02*
X0306Y03385D01*
X030406Y034044D02*
Y0362D01*
X031876Y03259D02*
X03265Y033365D01*
X031254Y03259D02*
X031876D01*
X031194Y0362D02*
X03265Y034744D01*
Y033365D02*
Y034744D01*
Y03145D02*
Y033365D01*
X0319Y0307D02*
X03265Y03145D01*
X03015Y03205D02*
X03069Y03259D01*
X03015Y032D02*
Y03205D01*
X04415Y034D02*
X044845D01*
X04415Y0335D02*
X044845D01*
X04385Y0332D02*
X04415Y0335D01*
X04385Y031225D02*
Y0332D01*
Y031225D02*
X044525Y03055D01*
X04365Y0335D02*
X04415Y034D01*
X04365Y031625D02*
Y0335D01*
X042575Y03055D02*
X04365Y031625D01*
X03925Y03195D02*
X03995Y03125D01*
X040196D01*
X040904D02*
Y031949D01*
X0402Y032D02*
X040955D01*
X03925Y03295D02*
X0402Y032D01*
X040955D02*
X0426D01*
X0428Y0322D01*
X040955Y0325D02*
X041525D01*
X0428Y033775D01*
X0419Y033662D02*
X0428Y034562D01*
X0419Y0332D02*
Y033662D01*
X0417Y033D02*
X0419Y0332D01*
X040955Y033D02*
X0417D01*
X040955Y0335D02*
X04145D01*
X0418Y03385D01*
Y03435D01*
X0428Y03535D01*
X038896Y034304D02*
Y0349D01*
Y034304D02*
X03925Y03395D01*
X0404Y0365D02*
X040955D01*
X04027Y03637D02*
X0404Y0365D01*
X039604Y0349D02*
X04027Y035566D01*
Y03637D01*
X043163Y0365D02*
X044845D01*
X0428Y036137D02*
X043163Y0365D01*
X04625Y029946D02*
X0469D01*
X0409Y030604D02*
X042521D01*
X042575Y03055D01*
X040196Y031D02*
X04027Y030925D01*
Y03018D02*
X040554Y029896D01*
X0409D01*
X040196Y031D02*
Y03125D01*
X04027Y03018D02*
Y030925D01*
X0409Y029896D02*
X0462D01*
X04625Y029946D01*
X04463Y030654D02*
X04625D01*
X044525Y03055D02*
X04463Y030654D01*
X0469Y030654D02*
X04745D01*
X0475Y030604D01*
Y029896D02*
X047696D01*
X048Y0302D01*
Y03065D01*
X04395Y0345D02*
X044845D01*
X04395Y035D02*
X044845D01*
X04658Y03317D02*
X047354D01*
X04645Y0333D02*
X04658Y03317D01*
X046455Y032855D02*
X047354D01*
X04645Y03285D02*
X046455Y032855D01*
X044845Y032D02*
X04565D01*
X04679Y03254D02*
X047354D01*
X046156Y0365D02*
X046506Y03615D01*
X044845Y0365D02*
X046156D01*
X0467Y0338D02*
X047354D01*
X046506Y033994D02*
X0467Y0338D01*
X046506Y033994D02*
Y03615D01*
X047976Y03254D02*
X04875Y033314D01*
X047354Y03254D02*
X047976D01*
X047294Y03615D02*
X04875Y034694D01*
Y033314D02*
Y034694D01*
Y0314D02*
Y033314D01*
X048Y03065D02*
X04875Y0314D01*
X04625Y032D02*
X04679Y03254D01*
X04625Y03195D02*
Y032D01*
X0464Y05395D02*
Y054D01*
X04694Y05454D01*
X04815Y05265D02*
X0489Y0534D01*
Y055314D01*
Y056694D01*
X047444Y05815D02*
X0489Y056694D01*
X047504Y05454D02*
X048126D01*
X0489Y055314D01*
X046656Y055994D02*
Y05815D01*
Y055994D02*
X04685Y0558D01*
X047504D01*
X044995Y0585D02*
X046306D01*
X046656Y05815D01*
X04694Y05454D02*
X047504D01*
X044995Y054D02*
X0458D01*
X0466Y05485D02*
X046605Y054855D01*
X047504D01*
X0466Y0553D02*
X04673Y05517D01*
X047504D01*
X0441Y057D02*
X044995D01*
X0441Y0565D02*
X044995D01*
X04815Y0522D02*
Y05265D01*
X047846Y051896D02*
X04815Y0522D01*
X04765Y051896D02*
X047846D01*
X0476Y052654D02*
X04765Y052604D01*
X04705Y052654D02*
X0476D01*
X044675Y05255D02*
X04478Y052654D01*
X0464D01*
X04635Y051896D02*
X0464Y051946D01*
X04105Y051896D02*
X04635D01*
X04042Y05218D02*
Y052925D01*
X040346Y053D02*
Y05325D01*
X040704Y051896D02*
X04105D01*
X04042Y05218D02*
X040704Y051896D01*
X040346Y053D02*
X04042Y052925D01*
X042671Y052604D02*
X042725Y05255D01*
X04105Y052604D02*
X042671D01*
X0464Y051946D02*
X04705D01*
X04295Y058137D02*
X043313Y0585D01*
X044995D01*
X04042Y057566D02*
Y05837D01*
X039754Y0569D02*
X04042Y057566D01*
Y05837D02*
X04055Y0585D01*
X041105D01*
X039046Y056304D02*
X0394Y05595D01*
X039046Y056304D02*
Y0569D01*
X04195Y05635D02*
X04295Y05735D01*
X04195Y05585D02*
Y05635D01*
X0416Y0555D02*
X04195Y05585D01*
X041105Y0555D02*
X0416D01*
X041105Y055D02*
X04185D01*
X04205Y0552D01*
Y055662D01*
X04295Y056562D01*
X041675Y0545D02*
X04295Y055775D01*
X041105Y0545D02*
X041675D01*
X04275Y054D02*
X04295Y0542D01*
X041105Y054D02*
X04275D01*
X0394Y05495D02*
X04035Y054D01*
X041105D01*
X041054Y05325D02*
Y053949D01*
X0401Y05325D02*
X040346D01*
X0394Y05395D02*
X0401Y05325D01*
X042725Y05255D02*
X0438Y053625D01*
Y0555D01*
X0443Y056D01*
X044Y053225D02*
X044675Y05255D01*
X044Y053225D02*
Y0552D01*
X0443Y0555D01*
X044995D01*
X0443Y056D02*
X044995D01*
X0303Y054D02*
Y05405D01*
X03084Y05459D01*
X03205Y0527D02*
X0328Y05345D01*
Y055364D01*
Y056744D01*
X031344Y0582D02*
X0328Y056744D01*
X031404Y05459D02*
X032026D01*
X0328Y055364D01*
X030556Y056044D02*
Y0582D01*
Y056044D02*
X03075Y05585D01*
X031404D01*
X028895Y05855D02*
X030206D01*
X030556Y0582D01*
X03084Y05459D02*
X031404D01*
X028895Y05405D02*
X0297D01*
X0305Y0549D02*
X030505Y054905D01*
X031404D01*
X0305Y05535D02*
X03063Y05522D01*
X031404D01*
X028Y05705D02*
X028895D01*
X028Y05655D02*
X028895D01*
X03205Y05225D02*
Y0527D01*
X031746Y051946D02*
X03205Y05225D01*
X03155Y051946D02*
X031746D01*
X0315Y052704D02*
X03155Y052654D01*
X03095Y052704D02*
X0315D01*
X028575Y0526D02*
X02868Y052704D01*
X0303D01*
X03025Y051946D02*
X0303Y051996D01*
X02495Y051946D02*
X03025D01*
X02432Y05223D02*
Y052975D01*
X024246Y05305D02*
Y0533D01*
X024604Y051946D02*
X02495D01*
X02432Y05223D02*
X024604Y051946D01*
X024246Y05305D02*
X02432Y052975D01*
X026571Y052654D02*
X026625Y0526D01*
X02495Y052654D02*
X026571D01*
X0303Y051996D02*
X03095D01*
X02685Y058187D02*
X027213Y05855D01*
X028895D01*
X02432Y057616D02*
Y05842D01*
X023654Y05695D02*
X02432Y057616D01*
Y05842D02*
X02445Y05855D01*
X025005D01*
X022946Y056354D02*
X0233Y056D01*
X022946Y056354D02*
Y05695D01*
X02585Y0564D02*
X02685Y0574D01*
X02585Y0559D02*
Y0564D01*
X0255Y05555D02*
X02585Y0559D01*
X025005Y05555D02*
X0255D01*
X025005Y05505D02*
X02575D01*
X02595Y05525D01*
Y055712D01*
X02685Y056612D01*
X025575Y05455D02*
X02685Y055825D01*
X025005Y05455D02*
X025575D01*
X02665Y05405D02*
X02685Y05425D01*
X025005Y05405D02*
X02665D01*
X0233Y055D02*
X02425Y05405D01*
X025005D01*
X024954Y0533D02*
Y053999D01*
X024Y0533D02*
X024246D01*
X0233Y054D02*
X024Y0533D01*
X026625Y0526D02*
X0277Y053675D01*
Y05555D01*
X0282Y05605D01*
X0279Y053275D02*
X028575Y0526D01*
X0279Y053275D02*
Y05525D01*
X0282Y05555D01*
X028895D01*
X0282Y05605D02*
X028895D01*
D18*
X032228Y042954D02*
D03*
Y044686D02*
D03*
X048328Y042904D02*
D03*
Y044636D02*
D03*
X032278Y032354D02*
D03*
Y034086D02*
D03*
X048378Y032304D02*
D03*
Y034036D02*
D03*
X048528Y054304D02*
D03*
Y056036D02*
D03*
X032428Y054354D02*
D03*
Y056086D02*
D03*
D19*
X0231Y0426D02*
D03*
Y0436D02*
D03*
X0392Y04255D02*
D03*
Y04355D02*
D03*
X02315Y032D02*
D03*
Y033D02*
D03*
X03925Y03195D02*
D03*
Y03295D02*
D03*
X0394Y05395D02*
D03*
Y05495D02*
D03*
X0233Y054D02*
D03*
Y055D02*
D03*
D20*
X0231Y0446D02*
D03*
X0392Y04455D02*
D03*
X02315Y034D02*
D03*
X03925Y03395D02*
D03*
X0394Y05595D02*
D03*
X0233Y056D02*
D03*
D21*
X026425Y0412D02*
D03*
X028375D02*
D03*
X042525Y04115D02*
D03*
X044475D02*
D03*
X026475Y0306D02*
D03*
X028425D02*
D03*
X042575Y03055D02*
D03*
X044525D02*
D03*
X042725Y05255D02*
D03*
X044675D02*
D03*
X026625Y0526D02*
D03*
X028575D02*
D03*
D22*
X02665Y046787D02*
D03*
Y046D02*
D03*
Y045212D02*
D03*
Y043637D02*
D03*
Y044425D02*
D03*
X04275Y046737D02*
D03*
Y04595D02*
D03*
Y045162D02*
D03*
Y043587D02*
D03*
Y044375D02*
D03*
X0267Y036187D02*
D03*
Y0354D02*
D03*
Y034612D02*
D03*
Y033037D02*
D03*
Y033825D02*
D03*
X0428Y036137D02*
D03*
Y03535D02*
D03*
Y034562D02*
D03*
Y032987D02*
D03*
Y033775D02*
D03*
X04295Y058137D02*
D03*
Y05735D02*
D03*
Y056562D02*
D03*
Y054987D02*
D03*
Y055775D02*
D03*
X02685Y058187D02*
D03*
Y0574D02*
D03*
Y056612D02*
D03*
Y055037D02*
D03*
Y055825D02*
D03*
D23*
X02665Y04285D02*
D03*
X04275Y0428D02*
D03*
X0267Y03225D02*
D03*
X0428Y0322D02*
D03*
X04295Y0542D02*
D03*
X02685Y05425D02*
D03*
D24*
X0278Y04515D02*
D03*
Y04565D02*
D03*
X0303Y04395D02*
D03*
Y0435D02*
D03*
X0295Y04265D02*
D03*
X0301Y0426D02*
D03*
X0439Y0451D02*
D03*
Y0456D02*
D03*
X0464Y0439D02*
D03*
Y04345D02*
D03*
X0456Y0426D02*
D03*
X0462Y04255D02*
D03*
X02785Y03455D02*
D03*
Y03505D02*
D03*
X03035Y03335D02*
D03*
Y0329D02*
D03*
X02955Y03205D02*
D03*
X03015Y032D02*
D03*
X04395Y0345D02*
D03*
Y035D02*
D03*
X04645Y0333D02*
D03*
Y03285D02*
D03*
X04565Y032D02*
D03*
X04625Y03195D02*
D03*
X0464Y05395D02*
D03*
X0458Y054D02*
D03*
X0466Y05485D02*
D03*
Y0553D02*
D03*
X0441Y057D02*
D03*
Y0565D02*
D03*
X0303Y054D02*
D03*
X0297Y05405D02*
D03*
X0305Y0549D02*
D03*
Y05535D02*
D03*
X028Y05705D02*
D03*
Y05655D02*
D03*
M02*
