G04 Layer_Color=16711935*
%FSTAX24Y24*%
%MOIN*%
G70*
G01*
G75*
%ADD17C,0.0100*%
%ADD40C,0.0079*%
D17*
X022346Y045966D02*
X023409D01*
X02392Y046478D01*
Y047541D01*
X032109Y046478D02*
Y047541D01*
Y046478D02*
X032621Y045966D01*
X033684D01*
X032621Y041675D02*
X033684D01*
X032109Y041163D02*
X032621Y041675D01*
X022346D02*
X023409D01*
X032109Y0401D02*
Y041163D01*
X023409Y041675D02*
X02392Y041163D01*
Y0401D02*
Y041163D01*
X022346Y041675D02*
Y045966D01*
X038446Y045916D02*
X039509D01*
X04002Y046428D01*
Y047491D01*
X048209Y046428D02*
Y047491D01*
Y046428D02*
X048721Y045916D01*
X049784D01*
Y041625D02*
Y045916D01*
X048721Y041625D02*
X049784D01*
X048209Y041113D02*
X048721Y041625D01*
X038446D02*
X039509D01*
X048209Y04005D02*
Y041113D01*
X039509Y041625D02*
X04002Y041113D01*
Y04005D02*
Y041113D01*
X022396Y035366D02*
X023459D01*
X02397Y035878D01*
Y036941D01*
X032159Y035878D02*
Y036941D01*
Y035878D02*
X032671Y035366D01*
X033734D01*
X032671Y031075D02*
X033734D01*
X032159Y030563D02*
X032671Y031075D01*
X022396D02*
X023459D01*
X032159Y0295D02*
Y030563D01*
X023459Y031075D02*
X02397Y030563D01*
Y0295D02*
Y030563D01*
Y0295D02*
X032159D01*
X022396Y031075D02*
Y035366D01*
X038496Y035316D02*
X039559D01*
X04007Y035828D01*
Y036891D01*
X048259Y035828D02*
Y036891D01*
Y035828D02*
X048771Y035316D01*
X049834D01*
Y031025D02*
Y035316D01*
X048771Y031025D02*
X049834D01*
X048259Y030513D02*
X048771Y031025D01*
X038496D02*
X039559D01*
X048259Y02945D02*
Y030513D01*
X039559Y031025D02*
X04007Y030513D01*
Y02945D02*
Y030513D01*
Y02945D02*
X048259D01*
X04022Y05145D02*
Y052513D01*
X039709Y053025D02*
X04022Y052513D01*
X048409Y05145D02*
Y052513D01*
X038646Y053025D02*
X039709D01*
X048409Y052513D02*
X048921Y053025D01*
X049984D01*
Y057316D01*
X048921D02*
X049984D01*
X048409Y057828D02*
X048921Y057316D01*
X048409Y057828D02*
Y058891D01*
X04022D02*
X048409D01*
X04022Y057828D02*
Y058891D01*
X039709Y057316D02*
X04022Y057828D01*
X038646Y057316D02*
X039709D01*
X022546Y053075D02*
Y057366D01*
X02412Y0515D02*
Y052563D01*
X023609Y053075D02*
X02412Y052563D01*
X032309Y0515D02*
Y052563D01*
X022546Y053075D02*
X023609D01*
X032309Y052563D02*
X032821Y053075D01*
X033884D01*
X032821Y057366D02*
X033884D01*
X032309Y057878D02*
X032821Y057366D01*
X032309Y057878D02*
Y058941D01*
X02412D02*
X032309D01*
X02412Y057878D02*
Y058941D01*
X023609Y057366D02*
X02412Y057878D01*
X022546Y057366D02*
X023609D01*
D40*
X03845Y043109D02*
Y0432D01*
X038446Y043104D02*
X03845Y043109D01*
X038446Y041625D02*
Y043104D01*
X038404Y0441D02*
X038446Y044141D01*
Y045916D01*
X033684Y044104D02*
Y045966D01*
Y041675D02*
Y043196D01*
X0267Y036941D02*
X032159D01*
X02397D02*
X0263D01*
X0267Y04005D02*
X02675Y0401D01*
X032109D01*
X02392D02*
X0263D01*
X02775Y047541D02*
X032109D01*
X02392D02*
X02735D01*
X0386Y05585D02*
X038646Y055896D01*
X03845Y03365D02*
X038496Y033696D01*
Y031025D02*
Y03275D01*
Y033696D02*
Y035316D01*
X04325Y036891D02*
X048259D01*
X04007D02*
X0428D01*
X04325Y04005D02*
X048209D01*
X04002D02*
X0428D01*
X04002Y047491D02*
X04365D01*
X04405D02*
X048209D01*
X04405Y05145D02*
X048409D01*
X04022D02*
X04365D01*
X038646Y055896D02*
Y057316D01*
Y053025D02*
Y05495D01*
X033884Y05585D02*
Y057366D01*
Y053075D02*
Y05495D01*
X02775Y0515D02*
X032309D01*
X02412D02*
X02735D01*
X033734Y031075D02*
Y03275D01*
Y03365D02*
Y035366D01*
X04405Y047491D02*
Y05145D01*
X04365Y047491D02*
Y05145D01*
X02735Y047541D02*
Y0515D01*
X02775Y047541D02*
Y0515D01*
X033884Y05585D02*
X0386D01*
X033884Y05495D02*
X038646D01*
X033689Y0441D02*
X038404D01*
X033689Y0432D02*
X03845D01*
X033734Y03275D02*
X038496D01*
X033734Y03365D02*
X03845D01*
X04325Y036891D02*
Y04005D01*
X0428Y036891D02*
Y04005D01*
X0267Y036941D02*
Y04005D01*
X02675Y0401D01*
X0263Y036941D02*
Y0401D01*
M02*
