M48
;Layer_Color=9474304
;FILE_FORMAT=2:4
INCH,LZ
;TYPE=PLATED
T1F00S00C0.0160
T2F00S00C0.0295
T3F00S00C0.0394
T4F00S00C0.0433
%
T01
X02955Y03205
X03015Y032
X03035Y0329
Y03335
X02785Y03455
Y03505
X0295Y04265
X0301Y0426
X0303Y0435
Y04395
X0278Y04515
Y04565
X0439Y0456
Y0451
X0464Y0439
Y04345
X0462Y04255
X0456Y0426
X04395Y035
Y0345
X04645Y0333
Y03285
X04625Y03195
X04565Y032
X0458Y054
X0464Y05395
X0466Y05485
Y0553
X0441Y0565
Y057
X0305Y05535
Y0549
X0303Y054
X0297Y05405
X028Y05655
Y05705
T02
X0267Y03225
Y033037
Y033825
Y034612
Y0354
Y036187
X02665Y04285
Y043637
Y044425
Y045212
Y046
Y046787
X04275Y046737
Y04595
Y045162
Y044375
Y043587
Y0428
X0428Y036137
Y03535
Y034562
Y033775
Y032987
Y0322
X04295Y0542
Y054987
Y055775
Y056562
Y05735
Y058137
X02685Y058187
Y0574
Y056612
Y055825
Y055037
Y05425
T03
X042575Y03055
X044525
X028425Y0306
X026475
X026425Y0412
X028375
X042525Y04115
X044475
X044675Y05255
X042725
X028575Y0526
X026625
T04
X02315Y032
Y033
Y034
X0231Y0426
Y0436
Y0446
X0392Y04455
Y04355
Y04255
X03925Y03395
Y03295
Y03195
X0394Y05395
Y05495
Y05595
X0233Y056
Y055
Y054
M30
