G04 Layer_Physical_Order=2*
G04 Layer_Color=16711680*
%FSTAX24Y24*%
%MOIN*%
G70*
G01*
G75*
%ADD13R,0.0374X0.0315*%
%ADD17C,0.0100*%
%ADD18C,0.0236*%
%ADD19C,0.0591*%
%ADD20R,0.0591X0.0591*%
%ADD21C,0.0787*%
%ADD22C,0.0512*%
%ADD23R,0.0512X0.0512*%
%ADD24C,0.0320*%
%ADD25R,0.0480X0.0555*%
D13*
X02845Y043896D02*
D03*
Y044604D02*
D03*
X0277Y043846D02*
D03*
Y044554D02*
D03*
X0308Y043204D02*
D03*
Y042496D02*
D03*
X0277Y043204D02*
D03*
Y042496D02*
D03*
X04455Y043846D02*
D03*
Y044554D02*
D03*
X0438Y043796D02*
D03*
Y044504D02*
D03*
X0469Y043154D02*
D03*
Y042446D02*
D03*
X0438Y043154D02*
D03*
Y042446D02*
D03*
X0285Y033296D02*
D03*
Y034004D02*
D03*
X02775Y033246D02*
D03*
Y033954D02*
D03*
X03085Y032604D02*
D03*
Y031896D02*
D03*
X02775Y032604D02*
D03*
Y031896D02*
D03*
X0446Y033246D02*
D03*
Y033954D02*
D03*
X04385Y033196D02*
D03*
Y033904D02*
D03*
X04695Y032554D02*
D03*
Y031846D02*
D03*
X04385Y032554D02*
D03*
Y031846D02*
D03*
X044Y054554D02*
D03*
Y053846D02*
D03*
X0471Y054554D02*
D03*
Y053846D02*
D03*
X044Y055196D02*
D03*
Y055904D02*
D03*
X04475Y055246D02*
D03*
Y055954D02*
D03*
X0279Y054604D02*
D03*
Y053896D02*
D03*
X031Y054604D02*
D03*
Y053896D02*
D03*
X0279Y055246D02*
D03*
Y055954D02*
D03*
X02865Y055296D02*
D03*
Y056004D02*
D03*
D17*
X02745Y044804D02*
X0277Y044554D01*
X02745Y044804D02*
Y0453D01*
X0278Y04565D01*
Y04515D02*
X0282D01*
X02845Y0449D01*
Y044604D02*
Y0449D01*
Y043896D02*
X028504Y04395D01*
X028046Y0435D02*
X0303D01*
X0277Y043846D02*
X028046Y0435D01*
X02665Y043637D02*
X027083Y043204D01*
X0277D01*
X028946D01*
X0295Y04265D01*
X027004Y042496D02*
X0277D01*
X02665Y04285D02*
X027004Y042496D01*
X02965Y046144D02*
X0305D01*
X027293D02*
X02965D01*
X02665Y046787D02*
X027293Y046144D01*
X02965Y04395D02*
Y044856D01*
X028504Y04395D02*
X02965D01*
X0303D01*
Y0435D02*
X03065D01*
X0309Y04375D01*
Y044456D01*
X0305Y044856D02*
X0309Y044456D01*
X029788Y042288D02*
X0301Y0426D01*
X027907Y042288D02*
X029788D01*
X0277Y042496D02*
X027907Y042288D01*
X0301Y0426D02*
X030696D01*
X0308Y042496D01*
X0309Y043304D02*
Y04375D01*
X0308Y043204D02*
X0309Y043304D01*
X02515Y045287D02*
X02665Y046787D01*
X02515Y04465D02*
Y045287D01*
X0231Y0426D02*
X02515Y04465D01*
X04355Y044754D02*
X0438Y044504D01*
X04355Y044754D02*
Y04525D01*
X0439Y0456D01*
Y0451D02*
X0443D01*
X04455Y04485D01*
Y044554D02*
Y04485D01*
Y043846D02*
X044604Y0439D01*
X044146Y04345D02*
X0464D01*
X0438Y043796D02*
X044146Y04345D01*
X04275Y043587D02*
X043183Y043154D01*
X0438D01*
X045046D01*
X0456Y0426D01*
X043104Y042446D02*
X0438D01*
X04275Y0428D02*
X043104Y042446D01*
X04575Y046094D02*
X0466D01*
X043393D02*
X04575D01*
X04275Y046737D02*
X043393Y046094D01*
X04575Y0439D02*
Y044806D01*
X044604Y0439D02*
X04575D01*
X0464D01*
Y04345D02*
X04675D01*
X047Y0437D01*
Y044406D01*
X0466Y044806D02*
X047Y044406D01*
X045888Y042238D02*
X0462Y04255D01*
X044007Y042238D02*
X045888D01*
X0438Y042446D02*
X044007Y042238D01*
X0462Y04255D02*
X046796D01*
X0469Y042446D01*
X047Y043254D02*
Y0437D01*
X0469Y043154D02*
X047Y043254D01*
X04125Y045237D02*
X04275Y046737D01*
X04125Y0446D02*
Y045237D01*
X0392Y04255D02*
X04125Y0446D01*
X0275Y034204D02*
X02775Y033954D01*
X0275Y034204D02*
Y0347D01*
X02785Y03505D01*
Y03455D02*
X02825D01*
X0285Y0343D01*
Y034004D02*
Y0343D01*
Y033296D02*
X028554Y03335D01*
X028096Y0329D02*
X03035D01*
X02775Y033246D02*
X028096Y0329D01*
X0267Y033037D02*
X027133Y032604D01*
X02775D01*
X028996D01*
X02955Y03205D01*
X027054Y031896D02*
X02775D01*
X0267Y03225D02*
X027054Y031896D01*
X0297Y035544D02*
X03055D01*
X027343D02*
X0297D01*
X0267Y036187D02*
X027343Y035544D01*
X0297Y03335D02*
Y034256D01*
X028554Y03335D02*
X0297D01*
X03035D01*
Y0329D02*
X0307D01*
X03095Y03315D01*
Y033856D01*
X03055Y034256D02*
X03095Y033856D01*
X029838Y031688D02*
X03015Y032D01*
X027957Y031688D02*
X029838D01*
X02775Y031896D02*
X027957Y031688D01*
X03015Y032D02*
X030746D01*
X03085Y031896D01*
X03095Y032704D02*
Y03315D01*
X03085Y032604D02*
X03095Y032704D01*
X0252Y034687D02*
X0267Y036187D01*
X0252Y03405D02*
Y034687D01*
X02315Y032D02*
X0252Y03405D01*
X0436Y034154D02*
X04385Y033904D01*
X0436Y034154D02*
Y03465D01*
X04395Y035D01*
Y0345D02*
X04435D01*
X0446Y03425D01*
Y033954D02*
Y03425D01*
Y033246D02*
X044654Y0333D01*
X044196Y03285D02*
X04645D01*
X04385Y033196D02*
X044196Y03285D01*
X0428Y032987D02*
X043233Y032554D01*
X04385D01*
X045096D01*
X04565Y032D01*
X043154Y031846D02*
X04385D01*
X0428Y0322D02*
X043154Y031846D01*
X0458Y035494D02*
X04665D01*
X043443D02*
X0458D01*
X0428Y036137D02*
X043443Y035494D01*
X0458Y0333D02*
Y034206D01*
X044654Y0333D02*
X0458D01*
X04645D01*
Y03285D02*
X0468D01*
X04705Y0331D01*
Y033806D01*
X04665Y034206D02*
X04705Y033806D01*
X045938Y031638D02*
X04625Y03195D01*
X044057Y031638D02*
X045938D01*
X04385Y031846D02*
X044057Y031638D01*
X04625Y03195D02*
X046846D01*
X04695Y031846D01*
X04705Y032654D02*
Y0331D01*
X04695Y032554D02*
X04705Y032654D01*
X0413Y034637D02*
X0428Y036137D01*
X0413Y034D02*
Y034637D01*
X03925Y03195D02*
X0413Y034D01*
X0394Y05395D02*
X04145Y056D01*
Y056637D01*
X04295Y058137D01*
X0471Y054554D02*
X0472Y054654D01*
Y0551D01*
X046996Y05395D02*
X0471Y053846D01*
X0464Y05395D02*
X046996D01*
X044Y053846D02*
X044207Y053638D01*
X046088D01*
X0464Y05395D01*
X0468Y056206D02*
X0472Y055806D01*
Y0551D02*
Y055806D01*
X04695Y05485D02*
X0472Y0551D01*
X0466Y05485D02*
X04695D01*
X04595Y0553D02*
X0466D01*
X044804D02*
X04595D01*
Y056206D01*
X04295Y058137D02*
X043593Y057494D01*
X04595D01*
X0468D01*
X04295Y0542D02*
X043304Y053846D01*
X044D01*
X045246Y054554D02*
X0458Y054D01*
X044Y054554D02*
X045246D01*
X043383D02*
X044D01*
X04295Y054987D02*
X043383Y054554D01*
X044Y055196D02*
X044346Y05485D01*
X0466D01*
X04475Y055246D02*
X044804Y0553D01*
X04475Y055954D02*
Y05625D01*
X0445Y0565D02*
X04475Y05625D01*
X0441Y0565D02*
X0445D01*
X04375Y05665D02*
X0441Y057D01*
X04375Y056154D02*
Y05665D01*
Y056154D02*
X044Y055904D01*
X0233Y054D02*
X02535Y05605D01*
Y056687D01*
X02685Y058187D01*
X031Y054604D02*
X0311Y054704D01*
Y05515D01*
X030896Y054D02*
X031Y053896D01*
X0303Y054D02*
X030896D01*
X0279Y053896D02*
X028107Y053688D01*
X029988D01*
X0303Y054D01*
X0307Y056256D02*
X0311Y055856D01*
Y05515D02*
Y055856D01*
X03085Y0549D02*
X0311Y05515D01*
X0305Y0549D02*
X03085D01*
X02985Y05535D02*
X0305D01*
X028704D02*
X02985D01*
Y056256D01*
X02685Y058187D02*
X027493Y057544D01*
X02985D01*
X0307D01*
X02685Y05425D02*
X027204Y053896D01*
X0279D01*
X029146Y054604D02*
X0297Y05405D01*
X0279Y054604D02*
X029146D01*
X027283D02*
X0279D01*
X02685Y055037D02*
X027283Y054604D01*
X0279Y055246D02*
X028246Y0549D01*
X0305D01*
X02865Y055296D02*
X028704Y05535D01*
X02865Y056004D02*
Y0563D01*
X0284Y05655D02*
X02865Y0563D01*
X028Y05655D02*
X0284D01*
X02765Y0567D02*
X028Y05705D01*
X02765Y056204D02*
Y0567D01*
Y056204D02*
X0279Y055954D01*
D18*
X032228Y042954D02*
D03*
Y044686D02*
D03*
X048328Y042904D02*
D03*
Y044636D02*
D03*
X032278Y032354D02*
D03*
Y034086D02*
D03*
X048378Y032304D02*
D03*
Y034036D02*
D03*
X048528Y054304D02*
D03*
Y056036D02*
D03*
X032428Y054354D02*
D03*
Y056086D02*
D03*
D19*
X0231Y0426D02*
D03*
Y0436D02*
D03*
X0392Y04255D02*
D03*
Y04355D02*
D03*
X02315Y032D02*
D03*
Y033D02*
D03*
X03925Y03195D02*
D03*
Y03295D02*
D03*
X0394Y05395D02*
D03*
Y05495D02*
D03*
X0233Y054D02*
D03*
Y055D02*
D03*
D20*
X0231Y0446D02*
D03*
X0392Y04455D02*
D03*
X02315Y034D02*
D03*
X03925Y03395D02*
D03*
X0394Y05595D02*
D03*
X0233Y056D02*
D03*
D21*
X026425Y0412D02*
D03*
X028375D02*
D03*
X042525Y04115D02*
D03*
X044475D02*
D03*
X026475Y0306D02*
D03*
X028425D02*
D03*
X042575Y03055D02*
D03*
X044525D02*
D03*
X042725Y05255D02*
D03*
X044675D02*
D03*
X026625Y0526D02*
D03*
X028575D02*
D03*
D22*
X02665Y046787D02*
D03*
Y046D02*
D03*
Y045212D02*
D03*
Y043637D02*
D03*
Y044425D02*
D03*
X04275Y046737D02*
D03*
Y04595D02*
D03*
Y045162D02*
D03*
Y043587D02*
D03*
Y044375D02*
D03*
X0267Y036187D02*
D03*
Y0354D02*
D03*
Y034612D02*
D03*
Y033037D02*
D03*
Y033825D02*
D03*
X0428Y036137D02*
D03*
Y03535D02*
D03*
Y034562D02*
D03*
Y032987D02*
D03*
Y033775D02*
D03*
X04295Y058137D02*
D03*
Y05735D02*
D03*
Y056562D02*
D03*
Y054987D02*
D03*
Y055775D02*
D03*
X02685Y058187D02*
D03*
Y0574D02*
D03*
Y056612D02*
D03*
Y055037D02*
D03*
Y055825D02*
D03*
D23*
X02665Y04285D02*
D03*
X04275Y0428D02*
D03*
X0267Y03225D02*
D03*
X0428Y0322D02*
D03*
X04295Y0542D02*
D03*
X02685Y05425D02*
D03*
D24*
X0278Y04515D02*
D03*
Y04565D02*
D03*
X0303Y04395D02*
D03*
Y0435D02*
D03*
X0295Y04265D02*
D03*
X0301Y0426D02*
D03*
X0439Y0451D02*
D03*
Y0456D02*
D03*
X0464Y0439D02*
D03*
Y04345D02*
D03*
X0456Y0426D02*
D03*
X0462Y04255D02*
D03*
X02785Y03455D02*
D03*
Y03505D02*
D03*
X03035Y03335D02*
D03*
Y0329D02*
D03*
X02955Y03205D02*
D03*
X03015Y032D02*
D03*
X04395Y0345D02*
D03*
Y035D02*
D03*
X04645Y0333D02*
D03*
Y03285D02*
D03*
X04565Y032D02*
D03*
X04625Y03195D02*
D03*
X0464Y05395D02*
D03*
X0458Y054D02*
D03*
X0466Y05485D02*
D03*
Y0553D02*
D03*
X0441Y057D02*
D03*
Y0565D02*
D03*
X0303Y054D02*
D03*
X0297Y05405D02*
D03*
X0305Y0549D02*
D03*
Y05535D02*
D03*
X028Y05705D02*
D03*
Y05655D02*
D03*
D25*
X0305Y044856D02*
D03*
Y046144D02*
D03*
X02965Y044856D02*
D03*
Y046144D02*
D03*
X0466Y044806D02*
D03*
Y046094D02*
D03*
X04575Y044806D02*
D03*
Y046094D02*
D03*
X03055Y034256D02*
D03*
Y035544D02*
D03*
X0297Y034256D02*
D03*
Y035544D02*
D03*
X04665Y034206D02*
D03*
Y035494D02*
D03*
X0458Y034206D02*
D03*
Y035494D02*
D03*
X04595Y056206D02*
D03*
Y057494D02*
D03*
X0468Y056206D02*
D03*
Y057494D02*
D03*
X02985Y056256D02*
D03*
Y057544D02*
D03*
X0307Y056256D02*
D03*
Y057544D02*
D03*
M02*
