G04 Layer_Color=128*
%FSTAX24Y24*%
%MOIN*%
G70*
G01*
G75*
%ADD13R,0.0374X0.0315*%
%ADD25R,0.0480X0.0555*%
D13*
X02845Y043896D02*
D03*
Y044604D02*
D03*
X0277Y043846D02*
D03*
Y044554D02*
D03*
X0308Y043204D02*
D03*
Y042496D02*
D03*
X0277Y043204D02*
D03*
Y042496D02*
D03*
X04455Y043846D02*
D03*
Y044554D02*
D03*
X0438Y043796D02*
D03*
Y044504D02*
D03*
X0469Y043154D02*
D03*
Y042446D02*
D03*
X0438Y043154D02*
D03*
Y042446D02*
D03*
X0285Y033296D02*
D03*
Y034004D02*
D03*
X02775Y033246D02*
D03*
Y033954D02*
D03*
X03085Y032604D02*
D03*
Y031896D02*
D03*
X02775Y032604D02*
D03*
Y031896D02*
D03*
X0446Y033246D02*
D03*
Y033954D02*
D03*
X04385Y033196D02*
D03*
Y033904D02*
D03*
X04695Y032554D02*
D03*
Y031846D02*
D03*
X04385Y032554D02*
D03*
Y031846D02*
D03*
X044Y054554D02*
D03*
Y053846D02*
D03*
X0471Y054554D02*
D03*
Y053846D02*
D03*
X044Y055196D02*
D03*
Y055904D02*
D03*
X04475Y055246D02*
D03*
Y055954D02*
D03*
X0279Y054604D02*
D03*
Y053896D02*
D03*
X031Y054604D02*
D03*
Y053896D02*
D03*
X0279Y055246D02*
D03*
Y055954D02*
D03*
X02865Y055296D02*
D03*
Y056004D02*
D03*
D25*
X0305Y044856D02*
D03*
Y046144D02*
D03*
X02965Y044856D02*
D03*
Y046144D02*
D03*
X0466Y044806D02*
D03*
Y046094D02*
D03*
X04575Y044806D02*
D03*
Y046094D02*
D03*
X03055Y034256D02*
D03*
Y035544D02*
D03*
X0297Y034256D02*
D03*
Y035544D02*
D03*
X04665Y034206D02*
D03*
Y035494D02*
D03*
X0458Y034206D02*
D03*
Y035494D02*
D03*
X04595Y056206D02*
D03*
Y057494D02*
D03*
X0468Y056206D02*
D03*
Y057494D02*
D03*
X02985Y056256D02*
D03*
Y057544D02*
D03*
X0307Y056256D02*
D03*
Y057544D02*
D03*
M02*
