G04 Layer_Color=8421504*
%FSTAX24Y24*%
%MOIN*%
G70*
G01*
G75*
%ADD10R,0.0984X0.0787*%
%ADD11R,0.0906X0.0197*%
%ADD12R,0.0315X0.0374*%
%ADD13R,0.0374X0.0315*%
%ADD14R,0.0394X0.0512*%
%ADD15O,0.0866X0.0236*%
%ADD16R,0.0866X0.0236*%
D10*
X031243Y045572D02*
D03*
Y042068D02*
D03*
X033409D02*
D03*
Y045572D02*
D03*
X047343Y045522D02*
D03*
Y042018D02*
D03*
X049509D02*
D03*
Y045522D02*
D03*
X031293Y034972D02*
D03*
Y031468D02*
D03*
X033459D02*
D03*
Y034972D02*
D03*
X047393Y034922D02*
D03*
Y031418D02*
D03*
X049559D02*
D03*
Y034922D02*
D03*
X047543Y056922D02*
D03*
Y053418D02*
D03*
X049709D02*
D03*
Y056922D02*
D03*
X031443Y056972D02*
D03*
Y053468D02*
D03*
X033609D02*
D03*
Y056972D02*
D03*
D11*
X031204Y04445D02*
D03*
Y044135D02*
D03*
Y04382D02*
D03*
Y043505D02*
D03*
Y04319D02*
D03*
X047304Y0444D02*
D03*
Y044085D02*
D03*
Y04377D02*
D03*
Y043455D02*
D03*
Y04314D02*
D03*
X031254Y03385D02*
D03*
Y033535D02*
D03*
Y03322D02*
D03*
Y032905D02*
D03*
Y03259D02*
D03*
X047354Y0338D02*
D03*
Y033485D02*
D03*
Y03317D02*
D03*
Y032855D02*
D03*
Y03254D02*
D03*
X047504Y0558D02*
D03*
Y055485D02*
D03*
Y05517D02*
D03*
Y054855D02*
D03*
Y05454D02*
D03*
X031404Y05585D02*
D03*
Y055535D02*
D03*
Y05522D02*
D03*
Y054905D02*
D03*
Y05459D02*
D03*
D12*
X024754Y0419D02*
D03*
X024046D02*
D03*
X022746Y04555D02*
D03*
X023454D02*
D03*
X040854Y04185D02*
D03*
X040146D02*
D03*
X038846Y0455D02*
D03*
X039554D02*
D03*
X024804Y0313D02*
D03*
X024096D02*
D03*
X022796Y03495D02*
D03*
X023504D02*
D03*
X040904Y03125D02*
D03*
X040196D02*
D03*
X038896Y0349D02*
D03*
X039604D02*
D03*
X039046Y0569D02*
D03*
X039754D02*
D03*
X041054Y05325D02*
D03*
X040346D02*
D03*
X022946Y05695D02*
D03*
X023654D02*
D03*
X024954Y0533D02*
D03*
X024246D02*
D03*
D13*
X0301Y041304D02*
D03*
Y040596D02*
D03*
X03075Y041304D02*
D03*
Y040596D02*
D03*
X03135Y041254D02*
D03*
Y040546D02*
D03*
X02475Y041254D02*
D03*
Y040546D02*
D03*
X0462Y041254D02*
D03*
Y040546D02*
D03*
X04685Y041254D02*
D03*
Y040546D02*
D03*
X04745Y041204D02*
D03*
Y040496D02*
D03*
X04085Y041204D02*
D03*
Y040496D02*
D03*
X03015Y030704D02*
D03*
Y029996D02*
D03*
X0308Y030704D02*
D03*
Y029996D02*
D03*
X0314Y030654D02*
D03*
Y029946D02*
D03*
X0248Y030654D02*
D03*
Y029946D02*
D03*
X04625Y030654D02*
D03*
Y029946D02*
D03*
X0469Y030654D02*
D03*
Y029946D02*
D03*
X0475Y030604D02*
D03*
Y029896D02*
D03*
X0409Y030604D02*
D03*
Y029896D02*
D03*
X04105Y052604D02*
D03*
Y051896D02*
D03*
X04765Y052604D02*
D03*
Y051896D02*
D03*
X04705Y052654D02*
D03*
Y051946D02*
D03*
X0464Y052654D02*
D03*
Y051946D02*
D03*
X02495Y052654D02*
D03*
Y051946D02*
D03*
X03155Y052654D02*
D03*
Y051946D02*
D03*
X03095Y052704D02*
D03*
Y051996D02*
D03*
X0303Y052704D02*
D03*
Y051996D02*
D03*
D14*
X031144Y0468D02*
D03*
X030356D02*
D03*
X047244Y04675D02*
D03*
X046456D02*
D03*
X031194Y0362D02*
D03*
X030406D02*
D03*
X047294Y03615D02*
D03*
X046506D02*
D03*
X047444Y05815D02*
D03*
X046656D02*
D03*
X031344Y0582D02*
D03*
X030556D02*
D03*
D15*
X028695Y04715D02*
D03*
X024805D02*
D03*
Y04665D02*
D03*
X028695D02*
D03*
Y04315D02*
D03*
Y04365D02*
D03*
Y04415D02*
D03*
Y04465D02*
D03*
Y04515D02*
D03*
Y04565D02*
D03*
X024805Y04315D02*
D03*
Y04365D02*
D03*
Y04415D02*
D03*
Y04465D02*
D03*
Y04515D02*
D03*
Y04565D02*
D03*
Y04615D02*
D03*
Y04265D02*
D03*
X028695Y04615D02*
D03*
X044795Y0471D02*
D03*
X040905D02*
D03*
Y0466D02*
D03*
X044795D02*
D03*
Y0431D02*
D03*
Y0436D02*
D03*
Y0441D02*
D03*
Y0446D02*
D03*
Y0451D02*
D03*
Y0456D02*
D03*
X040905Y0431D02*
D03*
Y0436D02*
D03*
Y0441D02*
D03*
Y0446D02*
D03*
Y0451D02*
D03*
Y0456D02*
D03*
Y0461D02*
D03*
Y0426D02*
D03*
X044795Y0461D02*
D03*
X028745Y03655D02*
D03*
X024855D02*
D03*
Y03605D02*
D03*
X028745D02*
D03*
Y03255D02*
D03*
Y03305D02*
D03*
Y03355D02*
D03*
Y03405D02*
D03*
Y03455D02*
D03*
Y03505D02*
D03*
X024855Y03255D02*
D03*
Y03305D02*
D03*
Y03355D02*
D03*
Y03405D02*
D03*
Y03455D02*
D03*
Y03505D02*
D03*
Y03555D02*
D03*
Y03205D02*
D03*
X028745Y03555D02*
D03*
X044845Y0365D02*
D03*
X040955D02*
D03*
Y036D02*
D03*
X044845D02*
D03*
Y0325D02*
D03*
Y033D02*
D03*
Y0335D02*
D03*
Y034D02*
D03*
Y0345D02*
D03*
Y035D02*
D03*
X040955Y0325D02*
D03*
Y033D02*
D03*
Y0335D02*
D03*
Y034D02*
D03*
Y0345D02*
D03*
Y035D02*
D03*
Y0355D02*
D03*
Y032D02*
D03*
X044845Y0355D02*
D03*
X044995Y0585D02*
D03*
X041105D02*
D03*
Y058D02*
D03*
X044995D02*
D03*
Y0545D02*
D03*
Y055D02*
D03*
Y0555D02*
D03*
Y056D02*
D03*
Y0565D02*
D03*
Y057D02*
D03*
X041105Y0545D02*
D03*
Y055D02*
D03*
Y0555D02*
D03*
Y056D02*
D03*
Y0565D02*
D03*
Y057D02*
D03*
Y0575D02*
D03*
Y054D02*
D03*
X044995Y0575D02*
D03*
X028895Y05855D02*
D03*
X025005D02*
D03*
Y05805D02*
D03*
X028895D02*
D03*
Y05455D02*
D03*
Y05505D02*
D03*
Y05555D02*
D03*
Y05605D02*
D03*
Y05655D02*
D03*
Y05705D02*
D03*
X025005Y05455D02*
D03*
Y05505D02*
D03*
Y05555D02*
D03*
Y05605D02*
D03*
Y05655D02*
D03*
Y05705D02*
D03*
Y05755D02*
D03*
Y05405D02*
D03*
X028895Y05755D02*
D03*
D16*
X028695Y04265D02*
D03*
X044795Y0426D02*
D03*
X028745Y03205D02*
D03*
X044845Y032D02*
D03*
X044995Y054D02*
D03*
X028895Y05405D02*
D03*
M02*
