G04 Layer_Color=16711935*
%FSTAX24Y24*%
%MOIN*%
G70*
G01*
G75*
%ADD29R,0.0454X0.0395*%
%ADD33C,0.0316*%
%ADD34C,0.0671*%
%ADD35R,0.0671X0.0671*%
%ADD36C,0.0867*%
%ADD37C,0.0592*%
%ADD38R,0.0592X0.0592*%
%ADD39R,0.0560X0.0635*%
D29*
X02845Y043896D02*
D03*
Y044604D02*
D03*
X0277Y043846D02*
D03*
Y044554D02*
D03*
X0308Y043204D02*
D03*
Y042496D02*
D03*
X0277Y043204D02*
D03*
Y042496D02*
D03*
X04455Y043846D02*
D03*
Y044554D02*
D03*
X0438Y043796D02*
D03*
Y044504D02*
D03*
X0469Y043154D02*
D03*
Y042446D02*
D03*
X0438Y043154D02*
D03*
Y042446D02*
D03*
X0285Y033296D02*
D03*
Y034004D02*
D03*
X02775Y033246D02*
D03*
Y033954D02*
D03*
X03085Y032604D02*
D03*
Y031896D02*
D03*
X02775Y032604D02*
D03*
Y031896D02*
D03*
X0446Y033246D02*
D03*
Y033954D02*
D03*
X04385Y033196D02*
D03*
Y033904D02*
D03*
X04695Y032554D02*
D03*
Y031846D02*
D03*
X04385Y032554D02*
D03*
Y031846D02*
D03*
X044Y054554D02*
D03*
Y053846D02*
D03*
X0471Y054554D02*
D03*
Y053846D02*
D03*
X044Y055196D02*
D03*
Y055904D02*
D03*
X04475Y055246D02*
D03*
Y055954D02*
D03*
X0279Y054604D02*
D03*
Y053896D02*
D03*
X031Y054604D02*
D03*
Y053896D02*
D03*
X0279Y055246D02*
D03*
Y055954D02*
D03*
X02865Y055296D02*
D03*
Y056004D02*
D03*
D33*
X032228Y042954D02*
D03*
Y044686D02*
D03*
X048328Y042904D02*
D03*
Y044636D02*
D03*
X032278Y032354D02*
D03*
Y034086D02*
D03*
X048378Y032304D02*
D03*
Y034036D02*
D03*
X048528Y054304D02*
D03*
Y056036D02*
D03*
X032428Y054354D02*
D03*
Y056086D02*
D03*
D34*
X0231Y0426D02*
D03*
Y0436D02*
D03*
X0392Y04255D02*
D03*
Y04355D02*
D03*
X02315Y032D02*
D03*
Y033D02*
D03*
X03925Y03195D02*
D03*
Y03295D02*
D03*
X0394Y05395D02*
D03*
Y05495D02*
D03*
X0233Y054D02*
D03*
Y055D02*
D03*
D35*
X0231Y0446D02*
D03*
X0392Y04455D02*
D03*
X02315Y034D02*
D03*
X03925Y03395D02*
D03*
X0394Y05595D02*
D03*
X0233Y056D02*
D03*
D36*
X026425Y0412D02*
D03*
X028375D02*
D03*
X042525Y04115D02*
D03*
X044475D02*
D03*
X026475Y0306D02*
D03*
X028425D02*
D03*
X042575Y03055D02*
D03*
X044525D02*
D03*
X042725Y05255D02*
D03*
X044675D02*
D03*
X026625Y0526D02*
D03*
X028575D02*
D03*
D37*
X02665Y046787D02*
D03*
Y046D02*
D03*
Y045212D02*
D03*
Y043637D02*
D03*
Y044425D02*
D03*
X04275Y046737D02*
D03*
Y04595D02*
D03*
Y045162D02*
D03*
Y043587D02*
D03*
Y044375D02*
D03*
X0267Y036187D02*
D03*
Y0354D02*
D03*
Y034612D02*
D03*
Y033037D02*
D03*
Y033825D02*
D03*
X0428Y036137D02*
D03*
Y03535D02*
D03*
Y034562D02*
D03*
Y032987D02*
D03*
Y033775D02*
D03*
X04295Y058137D02*
D03*
Y05735D02*
D03*
Y056562D02*
D03*
Y054987D02*
D03*
Y055775D02*
D03*
X02685Y058187D02*
D03*
Y0574D02*
D03*
Y056612D02*
D03*
Y055037D02*
D03*
Y055825D02*
D03*
D38*
X02665Y04285D02*
D03*
X04275Y0428D02*
D03*
X0267Y03225D02*
D03*
X0428Y0322D02*
D03*
X04295Y0542D02*
D03*
X02685Y05425D02*
D03*
D39*
X0305Y044856D02*
D03*
Y046144D02*
D03*
X02965Y044856D02*
D03*
Y046144D02*
D03*
X0466Y044806D02*
D03*
Y046094D02*
D03*
X04575Y044806D02*
D03*
Y046094D02*
D03*
X03055Y034256D02*
D03*
Y035544D02*
D03*
X0297Y034256D02*
D03*
Y035544D02*
D03*
X04665Y034206D02*
D03*
Y035494D02*
D03*
X0458Y034206D02*
D03*
Y035494D02*
D03*
X04595Y056206D02*
D03*
Y057494D02*
D03*
X0468Y056206D02*
D03*
Y057494D02*
D03*
X02985Y056256D02*
D03*
Y057544D02*
D03*
X0307Y056256D02*
D03*
Y057544D02*
D03*
M02*
