M48
;Layer_Color=9474304
;FILE_FORMAT=2:4
INCH,LZ
;TYPE=PLATED
T1F00S00C0.0160
T2F00S00C0.0280
T3F00S00C0.0394
%
T01
X03211Y02305
X03326Y02405
X03422Y02311
X03535Y024016
X034945Y024803
X03372Y02801
X03231Y02787
X0392Y02387
X03093Y02504
X028952Y026969
X027268Y02874
Y029921
X024315Y030315
X02422Y02402
X02431Y03304
X02896Y03169
X031599Y03581
X035339Y035827
T02
X040654Y019488
X038292Y022835
X035142Y031102
T03
X022741Y019488
Y020488
Y021488
Y022488
X02275Y02615
X02375
X02475
X02474Y03159
X02374
X02274
X02752Y03444
Y03544
X037654Y037402
X038654
X039654
X040654
M30
