%FSTAX24Y24*%
%MOIN*%
G70*
G01*
G75*
G04 Layer_Physical_Order=1*
G04 Layer_Color=255*
%ADD10R,0.0394X0.0787*%
%ADD11O,0.0394X0.0787*%
%ADD12R,0.0591X0.0551*%
%ADD13R,0.0315X0.0374*%
%ADD14R,0.0374X0.0315*%
%ADD15R,0.0472X0.0256*%
%ADD16R,0.0354X0.0591*%
%ADD17C,0.0100*%
%ADD18C,0.0300*%
%ADD19C,0.0600*%
%ADD20C,0.0900*%
%ADD21C,0.0200*%
%ADD22C,0.0400*%
%ADD23R,0.1250X0.1100*%
%ADD24C,0.0984*%
%ADD25C,0.0591*%
%ADD26C,0.0709*%
%ADD27R,0.0591X0.0591*%
%ADD28C,0.1969*%
%ADD29C,0.0320*%
%ADD30C,0.0500*%
D10*
X032464Y031363D02*
D03*
D11*
X031677D02*
D03*
X030889D02*
D03*
X030102D02*
D03*
X029315D02*
D03*
X028527D02*
D03*
X02774D02*
D03*
Y02656D02*
D03*
X028527D02*
D03*
X029315D02*
D03*
X030102D02*
D03*
X030889D02*
D03*
X031677D02*
D03*
X032464D02*
D03*
D12*
X037267Y024237D02*
D03*
X035929D02*
D03*
D13*
X031804Y03375D02*
D03*
X031096D02*
D03*
X033196Y02615D02*
D03*
X033904D02*
D03*
X022804Y02655D02*
D03*
X022096D02*
D03*
X026246Y0317D02*
D03*
X026954D02*
D03*
X033146Y0318D02*
D03*
X033854D02*
D03*
D14*
X0213Y026604D02*
D03*
Y025896D02*
D03*
X02985Y034004D02*
D03*
Y033296D02*
D03*
X02915Y034004D02*
D03*
Y033296D02*
D03*
X02845Y034004D02*
D03*
Y033296D02*
D03*
X02775Y034004D02*
D03*
Y033296D02*
D03*
X02515Y026204D02*
D03*
Y025496D02*
D03*
Y024904D02*
D03*
Y024196D02*
D03*
D15*
X0259Y027387D02*
D03*
X024855Y027761D02*
D03*
Y027013D02*
D03*
X0259Y028962D02*
D03*
X024855Y029336D02*
D03*
Y028588D02*
D03*
Y030163D02*
D03*
Y030911D02*
D03*
X0259Y030537D02*
D03*
D16*
X025043Y031737D02*
D03*
X023744D02*
D03*
Y033667D02*
D03*
X025043D02*
D03*
D17*
X026246Y0317D02*
X026746Y0312D01*
X02695D01*
X02508Y0317D02*
X0256D01*
X025043Y031737D02*
X02508Y0317D01*
X0256D02*
X026246D01*
X03195Y03375D02*
X0323Y0341D01*
X031804Y03375D02*
X03195D01*
X0305Y03365D02*
X030996D01*
X031096Y03375D01*
X02775Y03195D02*
X02835Y03255D01*
X03475Y0318D02*
X03485Y0319D01*
X02395Y02397D02*
Y0246D01*
X022804Y025746D02*
X02395Y0246D01*
X022804Y025746D02*
Y02655D01*
X024854Y025496D02*
X02515D01*
X02395Y0264D02*
X024854Y025496D01*
X02395Y0264D02*
Y02653D01*
X0213Y026604D02*
Y030396D01*
X022622Y031718D01*
X025286Y029336D02*
X0254Y02945D01*
X029606D01*
X024855Y029336D02*
X025286D01*
X02555Y02805D02*
X029781D01*
X025261Y027761D02*
X02555Y02805D01*
X024855Y027761D02*
X025261D01*
X029606Y02945D02*
X030889Y030733D01*
X029781Y02805D02*
X031677Y029946D01*
X027904Y029946D02*
X029118D01*
X026939Y030911D02*
X027904Y029946D01*
X024855Y030911D02*
X026939D01*
X02745Y0307D02*
X02845D01*
X02695Y0312D02*
X02745Y0307D01*
X026954Y032245D02*
X027321Y032612D01*
X023744Y031737D02*
X02375Y031744D01*
X024754Y024196D02*
X02515D01*
X02455Y0244D02*
X024754Y024196D01*
X02455Y0244D02*
Y0247D01*
X02395Y0253D02*
X02455Y0247D01*
X02205Y026D02*
X022096Y026046D01*
Y02655D01*
X030889Y02656D02*
X0309Y026571D01*
Y02735D01*
X02774Y031363D02*
X02775Y031374D01*
Y03195D01*
X0213Y025896D02*
X021441D01*
X022096Y02655D01*
X02515Y024904D02*
Y025496D01*
X026954Y0317D02*
Y032245D01*
X02845Y0307D02*
X028527Y030777D01*
Y031363D01*
X029315Y026009D02*
Y02656D01*
X028086Y024781D02*
X029315Y026009D01*
X028086Y024041D02*
Y024781D01*
X030102Y025812D02*
Y02656D01*
X029086Y024796D02*
X030102Y025812D01*
X029086Y024041D02*
Y024796D01*
X031677Y029946D02*
Y031363D01*
X030889Y030733D02*
Y031363D01*
X029118Y029946D02*
X030102Y03093D01*
Y031363D01*
X03148Y024041D02*
X032267Y024828D01*
X031086Y024041D02*
X03148D01*
X032464Y029159D02*
Y031363D01*
X033567Y025813D02*
X033904Y02615D01*
Y027719D01*
X032464Y029159D02*
X033904Y027719D01*
X032267Y024828D02*
Y02523D01*
X03285Y025813D01*
X033567D01*
X031677Y027477D02*
X0319Y0277D01*
X0328D01*
X033196Y027304D01*
X031677Y02656D02*
Y027477D01*
X033196Y02615D02*
Y027304D01*
X032709Y031363D02*
X033146Y0318D01*
X032464Y031363D02*
X032709D01*
X033854Y0318D02*
X03475D01*
X03485D02*
Y0319D01*
D18*
X02375Y0302D02*
Y031744D01*
X029315Y031363D02*
Y03325D01*
X02915Y033296D02*
X02985D01*
X0305Y032633D02*
Y03365D01*
X030521Y032612D02*
X031521D01*
X02915Y034004D02*
X02985D01*
X02845D02*
X02915D01*
X02775D02*
X02845D01*
X025381D02*
X02775D01*
X025043Y033667D02*
X025381Y034004D01*
X02985D02*
X030146D01*
X0305Y03365D01*
Y032633D02*
X030521Y032612D01*
X032464Y031363D02*
Y032036D01*
X031888Y032612D02*
X032464Y032036D01*
X031521Y032612D02*
X031888D01*
X027321Y032867D02*
X02775Y033296D01*
X027321Y032612D02*
Y032867D01*
X02845Y033296D02*
X02915D01*
X02775D02*
X02845D01*
X026321Y032612D02*
X027321D01*
X024162D02*
X026321D01*
X02375Y031744D02*
Y0322D01*
X022622Y029946D02*
Y030122D01*
X02375Y0322D02*
X024162Y032612D01*
X027321Y025312D02*
X02774Y025731D01*
Y02656D01*
D19*
X024Y027633D02*
X026321Y025312D01*
X024Y030163D02*
X024855D01*
X024Y028588D02*
Y02985D01*
Y028588D02*
X024855D01*
X024Y027633D02*
Y028588D01*
D20*
X022622Y029946D02*
X023783D01*
D21*
X035023Y024237D02*
X035929D01*
X037267D02*
Y024946D01*
X036204Y026009D02*
X037267Y024946D01*
D22*
X026321Y025312D02*
X027321D01*
D23*
X026275Y0273D02*
D03*
Y02875D02*
D03*
Y03015D02*
D03*
D24*
X036204Y031915D02*
D03*
Y029946D02*
D03*
Y027978D02*
D03*
Y026009D02*
D03*
X022622Y029946D02*
D03*
Y027978D02*
D03*
D25*
X026321Y025312D02*
D03*
X031521D02*
D03*
X027321D02*
D03*
X030521D02*
D03*
X031521Y032612D02*
D03*
X026321D02*
D03*
X027321D02*
D03*
X030521D02*
D03*
X021622Y031718D02*
D03*
X030086Y024041D02*
D03*
X029086D02*
D03*
X028086D02*
D03*
X0268Y0276D02*
D03*
X026756Y028765D02*
D03*
Y030143D02*
D03*
D26*
X02395Y02397D02*
D03*
Y02653D02*
D03*
D27*
X022622Y031718D02*
D03*
X031086Y024041D02*
D03*
D28*
X022031Y024631D02*
D03*
Y033293D02*
D03*
X033448Y024631D02*
D03*
Y033293D02*
D03*
D29*
X0323Y0341D02*
D03*
X022096Y026046D02*
D03*
X0309Y02735D02*
D03*
X02835Y03255D02*
D03*
X02395Y0253D02*
D03*
X0256Y0317D02*
D03*
D30*
X035023Y024237D02*
D03*
X03485Y0318D02*
D03*
M02*
