%FSTAX24Y24*%
%MOIN*%
G70*
G01*
G75*
G04 Layer_Color=8388736*
%ADD10R,0.0394X0.0787*%
%ADD11O,0.0394X0.0787*%
%ADD12R,0.0591X0.0551*%
%ADD13R,0.0315X0.0374*%
%ADD14R,0.0374X0.0315*%
%ADD15R,0.0472X0.0256*%
%ADD16R,0.0354X0.0591*%
%ADD17C,0.0100*%
%ADD18C,0.0300*%
%ADD19C,0.0600*%
%ADD20C,0.0900*%
%ADD21C,0.0200*%
%ADD22C,0.0400*%
%ADD23R,0.1250X0.1100*%
%ADD24C,0.0984*%
%ADD25C,0.0591*%
%ADD26C,0.0709*%
%ADD27R,0.0591X0.0591*%
%ADD28C,0.1969*%
%ADD29C,0.0320*%
%ADD30C,0.0500*%
%ADD31C,0.0800*%
%ADD32C,0.0079*%
%ADD33C,0.0020*%
%ADD34C,0.0080*%
%ADD35C,0.0070*%
%ADD36R,0.0474X0.0867*%
%ADD37O,0.0474X0.0867*%
%ADD38R,0.0671X0.0631*%
%ADD39R,0.0395X0.0454*%
%ADD40R,0.0454X0.0395*%
%ADD41R,0.0552X0.0336*%
%ADD42R,0.0434X0.0671*%
%ADD43C,0.1064*%
%ADD44C,0.0671*%
%ADD45C,0.0789*%
%ADD46R,0.0671X0.0671*%
%ADD47C,0.2049*%
%ADD48C,0.0400*%
%ADD49C,0.0580*%
D36*
X032464Y031363D02*
D03*
D37*
X031677D02*
D03*
X030889D02*
D03*
X030102D02*
D03*
X029315D02*
D03*
X028527D02*
D03*
X02774D02*
D03*
Y02656D02*
D03*
X028527D02*
D03*
X029315D02*
D03*
X030102D02*
D03*
X030889D02*
D03*
X031677D02*
D03*
X032464D02*
D03*
D38*
X037267Y024237D02*
D03*
X035929D02*
D03*
D39*
X031804Y03375D02*
D03*
X031096D02*
D03*
X033196Y02615D02*
D03*
X033904D02*
D03*
X022804Y02655D02*
D03*
X022096D02*
D03*
X026246Y0317D02*
D03*
X026954D02*
D03*
X033146Y0318D02*
D03*
X033854D02*
D03*
D40*
X0213Y026604D02*
D03*
Y025896D02*
D03*
X02985Y034004D02*
D03*
Y033296D02*
D03*
X02915Y034004D02*
D03*
Y033296D02*
D03*
X02845Y034004D02*
D03*
Y033296D02*
D03*
X02775Y034004D02*
D03*
Y033296D02*
D03*
X02515Y026204D02*
D03*
Y025496D02*
D03*
Y024904D02*
D03*
Y024196D02*
D03*
D41*
X0259Y027387D02*
D03*
X024855Y027761D02*
D03*
Y027013D02*
D03*
X0259Y028962D02*
D03*
X024855Y029336D02*
D03*
Y028588D02*
D03*
Y030163D02*
D03*
Y030911D02*
D03*
X0259Y030537D02*
D03*
D42*
X025043Y031737D02*
D03*
X023744D02*
D03*
Y033667D02*
D03*
X025043D02*
D03*
D43*
X036204Y031915D02*
D03*
Y029946D02*
D03*
Y027978D02*
D03*
Y026009D02*
D03*
X022622Y029946D02*
D03*
Y027978D02*
D03*
D44*
X026321Y025312D02*
D03*
X031521D02*
D03*
X027321D02*
D03*
X030521D02*
D03*
X031521Y032612D02*
D03*
X026321D02*
D03*
X027321D02*
D03*
X030521D02*
D03*
X021622Y031718D02*
D03*
X030086Y024041D02*
D03*
X029086D02*
D03*
X028086D02*
D03*
X0268Y0276D02*
D03*
X026756Y028765D02*
D03*
Y030143D02*
D03*
D45*
X02395Y02397D02*
D03*
Y02653D02*
D03*
D46*
X022622Y031718D02*
D03*
X031086Y024041D02*
D03*
D47*
X022031Y024631D02*
D03*
Y033293D02*
D03*
X033448Y024631D02*
D03*
Y033293D02*
D03*
D48*
X0323Y0341D02*
D03*
X022096Y026046D02*
D03*
X0309Y02735D02*
D03*
X02835Y03255D02*
D03*
X02395Y0253D02*
D03*
X0256Y0317D02*
D03*
D49*
X035023Y024237D02*
D03*
X03485Y0318D02*
D03*
M02*
