M48
;Layer_Color=9474304
;FILE_FORMAT=2:4
INCH,LZ
;TYPE=PLATED
T1F00S00C0.0160
T2F00S00C0.0280
T3F00S00C0.0354
T4F00S00C0.0433
T5F00S00C0.0472
T6F00S00C0.0551
T7F00S00C0.1260
%
T01
X022096Y026046
X02395Y0253
X0309Y02735
X02835Y03255
X0256Y0317
X0323Y0341
T02
X035023Y024237
X03485Y0318
T03
X028086Y024041
X029086
X030086
X031086
X0268Y0276
X026756Y028765
Y030143
X022622Y031718
X021622
T04
X031521Y025312
X030521
X027321
X026321
Y032612
X027321
X030521
X031521
T05
X02395Y02397
Y02653
T06
X036204Y026009
Y027978
Y029946
X022622
Y027978
X036204Y031915
T07
X033448Y024631
X022031
Y033293
X033448
M30
