M48
;Layer_Color=9474304
;FILE_FORMAT=2:4
INCH,LZ
;TYPE=PLATED
T1F00S00C0.0276
T2F00S00C0.0300
T3F00S00C0.0433
T4F00S00C0.0591
T5F00S00C0.1181
%
T01
X047Y027
Y029
X054
X055
X056
X057
Y027
X056
X055
X054
X046
X045
X044
Y029
X045
X046
X037
X036
X035
X034
Y027
X035
X036
X037
X027
X026
X025
X024
Y029
X025
X026
X027
X027Y035
X026
X025
X024
Y037
X025
X026
X027
X034
X035
X036
X037
Y035
X036
X035
X034
X044
X045
X046
Y037
X045
X044
X047
Y035
X054
X055
X056
X057
Y037
X056
X055
X054
T02
X047Y03
X057
X056Y031
X046
X037Y03
X036Y031
X027Y03
X026Y031
X025Y032
X024Y033
X023Y034
X033
X034Y033
X035Y032
X045
X044Y033
X043Y034
X053
X054Y033
X055Y032
T03
X047Y024
X053
X054
X055
X056
X057
X046
X045
X044
X043
X037
X036
X035
X034
X033
X027
X026
X025
X024
X023
X021Y03
Y031
Y032
Y033
Y034
X023Y04
X024
X025
X026
X027
X033
X034
X035
X036
X037
X043
X044
X045
X046
X047
X053
X054
X055
X056
X057
T04
X021Y029
Y035
T05
X058Y023
X021
Y041
X058
M30
