G04 Layer_Color=16711935*
%FSTAX24Y24*%
%MOIN*%
G70*
G01*
G75*
%ADD33C,0.0671*%
%ADD34R,0.0671X0.0671*%
%ADD35R,0.0671X0.0671*%
%ADD36R,0.0454X0.0395*%
%ADD37R,0.0395X0.0454*%
%ADD38R,0.0710X0.0572*%
%ADD39R,0.0552X0.0336*%
%ADD40R,0.0980X0.2280*%
D33*
X046Y0205D02*
D03*
X045D02*
D03*
X048Y021D02*
D03*
Y022D02*
D03*
Y023D02*
D03*
Y024D02*
D03*
Y025D02*
D03*
Y029D02*
D03*
Y028D02*
D03*
Y027D02*
D03*
Y026D02*
D03*
X042Y021D02*
D03*
Y022D02*
D03*
Y023D02*
D03*
Y024D02*
D03*
Y025D02*
D03*
Y029D02*
D03*
Y028D02*
D03*
Y027D02*
D03*
Y026D02*
D03*
X0445Y0305D02*
D03*
X0455D02*
D03*
X0465D02*
D03*
D34*
X044Y0205D02*
D03*
X0435Y0305D02*
D03*
D35*
X048Y03D02*
D03*
X042D02*
D03*
D36*
X0431Y022246D02*
D03*
Y022954D02*
D03*
X043154Y027746D02*
D03*
Y028454D02*
D03*
X0466Y025346D02*
D03*
Y026054D02*
D03*
Y024654D02*
D03*
Y023946D02*
D03*
D37*
X04378Y0244D02*
D03*
X043071D02*
D03*
D38*
X0468Y02851D02*
D03*
Y027152D02*
D03*
D39*
X045077Y0281D02*
D03*
X044032Y027726D02*
D03*
Y028474D02*
D03*
D40*
X0452Y025773D02*
D03*
Y022427D02*
D03*
M02*
