G04 Layer_Physical_Order=2*
G04 Layer_Color=16711680*
%FSTAX24Y24*%
%MOIN*%
G70*
G01*
G75*
%ADD15C,0.0080*%
%ADD16C,0.0200*%
%ADD17C,0.0591*%
%ADD18R,0.0591X0.0591*%
%ADD19R,0.0591X0.0591*%
%ADD20R,0.0374X0.0315*%
%ADD21R,0.0315X0.0374*%
%ADD22R,0.0630X0.0492*%
%ADD23R,0.0472X0.0256*%
%ADD24R,0.0900X0.2200*%
%ADD25C,0.0150*%
D15*
X044Y0215D02*
Y0228D01*
X042Y0248D02*
X044Y0228D01*
X042Y0248D02*
Y025D01*
X0434Y0237D02*
X044673Y022427D01*
X0434Y0237D02*
Y025485D01*
X044Y0215D02*
X045Y0205D01*
X0425Y025116D02*
X043071Y024545D01*
X042819Y023435D02*
X0431Y023154D01*
Y022954D02*
Y023154D01*
Y0214D02*
X044Y0205D01*
X0431Y0214D02*
Y022246D01*
X041565Y026565D02*
X042Y027D01*
X041565Y02382D02*
Y026565D01*
Y02382D02*
X041949Y023435D01*
X042819D01*
X0415Y027884D02*
Y0295D01*
Y027884D02*
X041949Y027435D01*
X04218D01*
X0425Y027116D01*
Y025116D02*
Y027116D01*
X046346Y0244D02*
X0466Y024654D01*
X04378Y0244D02*
X046346D01*
X0428Y026085D02*
Y0272D01*
Y026085D02*
X0434Y025485D01*
X043071Y0244D02*
Y024545D01*
X0415Y0295D02*
X042Y03D01*
X043154Y028454D02*
X043174Y028474D01*
X043174Y027726D02*
X044032D01*
X043154Y027746D02*
X043174Y027726D01*
X044673Y022427D02*
X0452D01*
X0466Y023827D02*
Y023946D01*
X0452Y022427D02*
X0466Y023827D01*
X045481Y026054D02*
X0466D01*
X0452Y025773D02*
X045481Y026054D01*
X0466Y0249D02*
X0467Y025D01*
X0466Y024654D02*
Y0249D01*
Y025346D01*
X0467Y025D02*
X04735D01*
X043174Y028474D02*
X044032D01*
X042Y028D02*
X0428Y0272D01*
X043527Y025773D02*
X0452D01*
X042435Y02782D02*
Y02818D01*
X042435Y027819D02*
X042435Y02782D01*
X042435Y027819D02*
Y027819D01*
Y027819D02*
X04298Y027275D01*
Y02632D02*
Y027275D01*
Y02632D02*
X043527Y025773D01*
X042Y028616D02*
Y029D01*
Y028616D02*
X042435Y02818D01*
X04639Y0281D02*
X0468Y02851D01*
X045077Y0281D02*
X04639D01*
X0468Y027015D02*
Y027152D01*
Y027015D02*
X04735Y026465D01*
X044032Y027726D02*
X044658Y0271D01*
X045874D01*
X046374Y0276D01*
X0478Y0272D02*
X048Y027D01*
X0475Y0272D02*
X0478D01*
X046374Y0276D02*
X0471D01*
X047255Y027445D02*
X0475Y0272D01*
X047255Y027445D02*
Y027456D01*
X047173Y027538D02*
X047255Y027456D01*
X047162Y027538D02*
X047173D01*
X0471Y0276D02*
X047162Y027538D01*
D16*
X04735Y02185D02*
Y025D01*
X046Y0205D02*
X04735Y02185D01*
X0465Y03D02*
X0468Y0297D01*
Y02851D02*
Y0297D01*
X0465Y03D02*
Y0305D01*
X0445Y028942D02*
Y0305D01*
X044266Y028264D02*
X044758Y027772D01*
X045396D01*
X045464Y02784D01*
X04746D02*
X047804Y027495D01*
X048205D02*
X048495Y027205D01*
Y025495D02*
Y027205D01*
X044266Y028264D02*
Y028708D01*
X0445Y028942D01*
X045464Y02784D02*
X04746D01*
X047804Y027495D02*
X048205D01*
X04735Y025D02*
X048D01*
X04735Y026465D02*
Y026602D01*
X0468Y027152D02*
X04735Y026602D01*
X048Y025D02*
X048495Y025495D01*
X04735Y025D02*
Y026465D01*
D17*
X046Y0205D02*
D03*
X045D02*
D03*
X048Y021D02*
D03*
Y022D02*
D03*
Y023D02*
D03*
Y024D02*
D03*
Y025D02*
D03*
Y029D02*
D03*
Y028D02*
D03*
Y027D02*
D03*
Y026D02*
D03*
X042Y021D02*
D03*
Y022D02*
D03*
Y023D02*
D03*
Y024D02*
D03*
Y025D02*
D03*
Y029D02*
D03*
Y028D02*
D03*
Y027D02*
D03*
Y026D02*
D03*
X0445Y0305D02*
D03*
X0455D02*
D03*
X0465D02*
D03*
D18*
X044Y0205D02*
D03*
X0435Y0305D02*
D03*
D19*
X048Y03D02*
D03*
X042D02*
D03*
D20*
X0431Y022246D02*
D03*
Y022954D02*
D03*
X043154Y027746D02*
D03*
Y028454D02*
D03*
X0466Y025346D02*
D03*
Y026054D02*
D03*
Y024654D02*
D03*
Y023946D02*
D03*
D21*
X04378Y0244D02*
D03*
X043071D02*
D03*
D22*
X0468Y02851D02*
D03*
Y027152D02*
D03*
D23*
X045077Y0281D02*
D03*
X044032Y027726D02*
D03*
Y028474D02*
D03*
D24*
X0452Y025773D02*
D03*
Y022427D02*
D03*
D25*
X0435Y0305D02*
X04397Y03097D01*
X04503D02*
X0455Y0305D01*
X04397Y03097D02*
X04503D01*
M02*
