G04 Layer_Color=1754623*
%FSTAX24Y24*%
%MOIN*%
G70*
G01*
G75*
%ADD15C,0.0080*%
%ADD27C,0.0100*%
D15*
X042824Y023191D02*
X043376D01*
Y022009D02*
Y023191D01*
X042824Y022009D02*
X043376D01*
X042824D02*
Y023191D01*
X042835Y024124D02*
Y024676D01*
X044016D01*
Y024124D02*
Y024676D01*
X042835Y024124D02*
X044016D01*
X046406Y028146D02*
X047194D01*
X04639Y028851D02*
X04721D01*
Y026811D02*
Y028851D01*
X04639Y026811D02*
X04721D01*
X04639D02*
Y028851D01*
X04343Y027509D02*
Y028691D01*
X042879D02*
X04343D01*
X042879Y027509D02*
Y028691D01*
Y027509D02*
X04343D01*
X043688Y02873D02*
X04542D01*
X043688Y02747D02*
X04542D01*
Y02873D01*
X043688Y02747D02*
Y02873D01*
X04424Y02122D02*
X04615D01*
X04424Y02698D02*
X04615D01*
X04424Y02122D02*
Y02698D01*
X04615Y02122D02*
Y02698D01*
X04687Y025109D02*
Y026291D01*
X046324D02*
X04687D01*
X046324Y025109D02*
Y026291D01*
Y025109D02*
X04687D01*
X04633Y023709D02*
Y024891D01*
Y023709D02*
X046876D01*
Y024891D01*
X04633D02*
X046876D01*
X0432Y0218D02*
X0429D01*
Y02165D01*
X04295Y0216D01*
X04305D01*
X0431Y02165D01*
Y0218D01*
Y0217D02*
X0432Y0216D01*
X04295Y0215D02*
X0429Y02145D01*
Y02135D01*
X04295Y0213D01*
X043D01*
X04305Y02135D01*
Y0214D01*
Y02135D01*
X0431Y0213D01*
X04315D01*
X0432Y02135D01*
Y02145D01*
X04315Y0215D01*
X0432Y0253D02*
X0429D01*
Y02515D01*
X04295Y0251D01*
X04305D01*
X0431Y02515D01*
Y0253D01*
Y0252D02*
X0432Y0251D01*
Y0248D02*
Y025D01*
X043Y0248D01*
X04295D01*
X0429Y02485D01*
Y02495D01*
X04295Y025D01*
X04705Y0243D02*
X047Y02435D01*
Y02445D01*
X04705Y0245D01*
X04725D01*
X0473Y02445D01*
Y02435D01*
X04725Y0243D01*
X04705Y0242D02*
X047Y02415D01*
Y02405D01*
X04705Y024D01*
X0471D01*
X04715Y02405D01*
Y0241D01*
Y02405D01*
X0472Y024D01*
X04725D01*
X0473Y02405D01*
Y02415D01*
X04725Y0242D01*
X04705Y0257D02*
X047Y02575D01*
Y02585D01*
X04705Y0259D01*
X04725D01*
X0473Y02585D01*
Y02575D01*
X04725Y0257D01*
X0473Y02545D02*
X047D01*
X04715Y0256D01*
Y0254D01*
X0459Y0281D02*
X0462D01*
Y02795D01*
X04615Y0279D01*
X04595D01*
X0459Y02795D01*
Y0281D01*
X0462Y0278D02*
Y0277D01*
Y02775D01*
X0459D01*
X04595Y0278D01*
X0432Y0273D02*
X0429D01*
Y02715D01*
X04295Y0271D01*
X04305D01*
X0431Y02715D01*
Y0273D01*
Y0272D02*
X0432Y0271D01*
Y027D02*
Y0269D01*
Y02695D01*
X0429D01*
X04295Y027D01*
X0437Y0273D02*
Y0271D01*
Y0272D01*
X044D01*
Y027D02*
Y0269D01*
Y02695D01*
X0437D01*
X04375Y027D01*
X0437Y0262D02*
X04375D01*
X04385Y0261D01*
X04375Y026D01*
X0437D01*
X04385Y0261D02*
X044D01*
Y0259D02*
Y0258D01*
Y02585D01*
X0437D01*
X04375Y0259D01*
D27*
X043633Y0299D02*
X0437Y029833D01*
Y0297D01*
X043633Y029633D01*
X043367D01*
X0433Y0297D01*
Y029833D01*
X043367Y0299D01*
X043433D01*
X0435Y029833D01*
Y029633D01*
X0433Y0295D02*
X043567D01*
X0437Y029367D01*
X043567Y029234D01*
X0433D01*
X0457Y0299D02*
X0453D01*
X045433Y029767D01*
X0453Y029633D01*
X0457D01*
X0455Y0295D02*
Y029234D01*
X0467Y0299D02*
X0463D01*
X046433Y029767D01*
X0463Y029633D01*
X0467D01*
X0465Y0295D02*
Y029234D01*
X046367Y029367D02*
X046633D01*
X044267Y029633D02*
X0442Y0297D01*
Y029833D01*
X044267Y0299D01*
X044533D01*
X0446Y029833D01*
Y0297D01*
X044533Y029633D01*
X0444D01*
Y029767D01*
X0446Y0295D02*
X0442D01*
X0446Y029234D01*
X0442D01*
Y0291D02*
X0446D01*
Y0289D01*
X044533Y028834D01*
X044267D01*
X0442Y0289D01*
Y0291D01*
M02*
