G04 Layer_Color=65535*
%FSTAX24Y24*%
%MOIN*%
G70*
G01*
G75*
%ADD15C,0.0080*%
%ADD26C,0.0079*%
%ADD27C,0.0100*%
D15*
X046073Y027985D02*
G03*
X046073Y027985I-000049J0D01*
G01*
X043681Y02949D02*
X046319D01*
X043681Y02591D02*
X046319D01*
Y02949D01*
X043681Y02591D02*
Y02949D01*
X04721Y02742D02*
Y02958D01*
X04639Y02742D02*
X04721D01*
X04639D02*
Y02958D01*
X04721D01*
X04279Y02742D02*
Y02958D01*
X04361D01*
Y02742D02*
Y02958D01*
X04279Y02742D02*
X04361D01*
X04277Y0254D02*
Y02515D01*
X04282Y0251D01*
X04292D01*
X04297Y02515D01*
Y0254D01*
X04327Y0251D02*
X04307D01*
X04327Y0253D01*
Y02535D01*
X04322Y0254D01*
X04312D01*
X04307Y02535D01*
X04318Y02715D02*
X04313Y0272D01*
X04303D01*
X04298Y02715D01*
Y02695D01*
X04303Y0269D01*
X04313D01*
X04318Y02695D01*
X04328Y0269D02*
X04338D01*
X04333D01*
Y0272D01*
X04328Y02715D01*
X0468D02*
X04675Y0272D01*
X04665D01*
X0466Y02715D01*
Y02695D01*
X04665Y0269D01*
X04675D01*
X0468Y02695D01*
X0471Y0269D02*
X0469D01*
X0471Y0271D01*
Y02715D01*
X04705Y0272D01*
X04695D01*
X0469Y02715D01*
X0466Y0262D02*
Y02595D01*
X04665Y0259D01*
X04675D01*
X0468Y02595D01*
Y0262D01*
X0469Y0259D02*
X047D01*
X04695D01*
Y0262D01*
X0469Y02615D01*
D26*
X044626Y025278D02*
G03*
X044626Y025278I-000118J0D01*
G01*
X043425Y02283D02*
Y025456D01*
X046575Y02283D02*
Y025456D01*
X043425D02*
X046575D01*
X043425Y02283D02*
X046575D01*
D27*
X0435Y02D02*
X0465D01*
X0435D02*
Y021D01*
X0465D01*
Y02D02*
Y021D01*
X04849Y02051D02*
X0485Y02052D01*
X0475Y020508D02*
X0485D01*
X0485Y02052D02*
Y0305D01*
X0475D02*
X0485D01*
X0475Y02051D02*
Y0305D01*
X04249Y02051D02*
X0425Y02052D01*
X0415Y020508D02*
X0425D01*
X0425Y02052D02*
Y0305D01*
X0415D02*
X0425D01*
X0415Y02051D02*
Y0305D01*
X047004Y03D02*
Y031D01*
X043D02*
X047004D01*
X043Y03D02*
Y031D01*
Y03D02*
X047004D01*
X045867Y021467D02*
X0458Y0214D01*
Y021267D01*
X045867Y0212D01*
X046133D01*
X0462Y021267D01*
Y0214D01*
X046133Y021467D01*
X046D01*
Y021333D01*
X0462Y0216D02*
X0458D01*
X0462Y021866D01*
X0458D01*
Y022D02*
X0462D01*
Y0222D01*
X046133Y022266D01*
X045867D01*
X0458Y0222D01*
Y022D01*
X043867Y0212D02*
X0438Y021267D01*
Y0214D01*
X043867Y021467D01*
X043933D01*
X044Y0214D01*
Y021333D01*
Y0214D01*
X044067Y021467D01*
X044133D01*
X0442Y0214D01*
Y021267D01*
X044133Y0212D01*
X0438Y0216D02*
X044067D01*
X0442Y021733D01*
X044067Y021866D01*
X0438D01*
X0452Y0212D02*
X044933D01*
X0448Y021333D01*
X044933Y021467D01*
X0452D01*
X045D01*
Y0212D01*
X0448Y0216D02*
X0452D01*
Y0218D01*
X045133Y021866D01*
X044867D01*
X0448Y0218D01*
Y0216D01*
M02*
