G04 Layer_Color=8388736*
%FSTAX24Y24*%
%MOIN*%
G70*
G01*
G75*
%ADD18C,0.1261*%
%ADD19R,0.0671X0.0671*%
%ADD20C,0.0671*%
%ADD21C,0.0513*%
%ADD22R,0.0671X0.0671*%
%ADD23C,0.0680*%
D18*
X021Y029D02*
D03*
Y035D02*
D03*
X058Y023D02*
D03*
Y041D02*
D03*
X021Y023D02*
D03*
Y041D02*
D03*
D19*
X053Y024D02*
D03*
X043D02*
D03*
X033D02*
D03*
X023D02*
D03*
X053Y04D02*
D03*
X043D02*
D03*
X033D02*
D03*
X023D02*
D03*
D20*
X054Y024D02*
D03*
X055D02*
D03*
X056D02*
D03*
X057D02*
D03*
X044D02*
D03*
X045D02*
D03*
X046D02*
D03*
X047D02*
D03*
X034D02*
D03*
X035D02*
D03*
X036D02*
D03*
X037D02*
D03*
X024D02*
D03*
X025D02*
D03*
X026D02*
D03*
X027D02*
D03*
X054Y04D02*
D03*
X055D02*
D03*
X056D02*
D03*
X057D02*
D03*
X044D02*
D03*
X045D02*
D03*
X046D02*
D03*
X047D02*
D03*
X034D02*
D03*
X035D02*
D03*
X036D02*
D03*
X037D02*
D03*
X024D02*
D03*
X025D02*
D03*
X026D02*
D03*
X027D02*
D03*
X021Y033D02*
D03*
Y032D02*
D03*
Y031D02*
D03*
Y03D02*
D03*
D21*
X024Y029D02*
D03*
Y027D02*
D03*
X025Y029D02*
D03*
Y027D02*
D03*
X026Y029D02*
D03*
Y027D02*
D03*
X027Y029D02*
D03*
Y027D02*
D03*
X034Y029D02*
D03*
Y027D02*
D03*
X035Y029D02*
D03*
Y027D02*
D03*
X036Y029D02*
D03*
Y027D02*
D03*
X037Y029D02*
D03*
Y027D02*
D03*
X044Y029D02*
D03*
Y027D02*
D03*
X045Y029D02*
D03*
Y027D02*
D03*
X046Y029D02*
D03*
Y027D02*
D03*
X047Y029D02*
D03*
Y027D02*
D03*
X054Y029D02*
D03*
Y027D02*
D03*
X055Y029D02*
D03*
Y027D02*
D03*
X056Y029D02*
D03*
Y027D02*
D03*
X057Y029D02*
D03*
Y027D02*
D03*
X037Y035D02*
D03*
Y037D02*
D03*
X036Y035D02*
D03*
Y037D02*
D03*
X035Y035D02*
D03*
Y037D02*
D03*
X034Y035D02*
D03*
Y037D02*
D03*
X027Y035D02*
D03*
Y037D02*
D03*
X026Y035D02*
D03*
Y037D02*
D03*
X025Y035D02*
D03*
Y037D02*
D03*
X024Y035D02*
D03*
Y037D02*
D03*
X057Y035D02*
D03*
Y037D02*
D03*
X056Y035D02*
D03*
Y037D02*
D03*
X055Y035D02*
D03*
Y037D02*
D03*
X054Y035D02*
D03*
Y037D02*
D03*
X047Y035D02*
D03*
Y037D02*
D03*
X046Y035D02*
D03*
Y037D02*
D03*
X045Y035D02*
D03*
Y037D02*
D03*
X044Y035D02*
D03*
Y037D02*
D03*
D22*
X021Y034D02*
D03*
D23*
X027Y03D02*
D03*
X026Y031D02*
D03*
X025Y032D02*
D03*
X024Y033D02*
D03*
X037Y03D02*
D03*
X036Y031D02*
D03*
X035Y032D02*
D03*
X034Y033D02*
D03*
X047Y03D02*
D03*
X046Y031D02*
D03*
X045Y032D02*
D03*
X044Y033D02*
D03*
X057Y03D02*
D03*
X056Y031D02*
D03*
X055Y032D02*
D03*
X054Y033D02*
D03*
X053Y034D02*
D03*
X043D02*
D03*
X033D02*
D03*
X023D02*
D03*
M02*
