G04 Layer_Physical_Order=1*
G04 Layer_Color=255*
%FSTAX24Y24*%
%MOIN*%
G70*
G01*
G75*
%ADD10C,0.0600*%
%ADD11C,0.1181*%
%ADD12R,0.0591X0.0591*%
%ADD13C,0.0591*%
%ADD14C,0.0433*%
%ADD15R,0.0591X0.0591*%
%ADD16C,0.0600*%
D10*
X047Y03D02*
X057D01*
X037D02*
X047D01*
X027D02*
X037D01*
X021D02*
X027D01*
X021Y029D02*
Y03D01*
X043Y034D02*
X053D01*
X033D02*
X043D01*
X023D02*
X033D01*
X021D02*
X023D01*
X021D02*
Y035D01*
Y031D02*
X056D01*
X021Y032D02*
X055D01*
X021Y033D02*
X054D01*
D11*
X021Y029D02*
D03*
Y035D02*
D03*
X058Y023D02*
D03*
Y041D02*
D03*
X021Y023D02*
D03*
Y041D02*
D03*
D12*
X053Y024D02*
D03*
X043D02*
D03*
X033D02*
D03*
X023D02*
D03*
X053Y04D02*
D03*
X043D02*
D03*
X033D02*
D03*
X023D02*
D03*
D13*
X054Y024D02*
D03*
X055D02*
D03*
X056D02*
D03*
X057D02*
D03*
X044D02*
D03*
X045D02*
D03*
X046D02*
D03*
X047D02*
D03*
X034D02*
D03*
X035D02*
D03*
X036D02*
D03*
X037D02*
D03*
X024D02*
D03*
X025D02*
D03*
X026D02*
D03*
X027D02*
D03*
X054Y04D02*
D03*
X055D02*
D03*
X056D02*
D03*
X057D02*
D03*
X044D02*
D03*
X045D02*
D03*
X046D02*
D03*
X047D02*
D03*
X034D02*
D03*
X035D02*
D03*
X036D02*
D03*
X037D02*
D03*
X024D02*
D03*
X025D02*
D03*
X026D02*
D03*
X027D02*
D03*
X021Y033D02*
D03*
Y032D02*
D03*
Y031D02*
D03*
Y03D02*
D03*
D14*
X024Y029D02*
D03*
Y027D02*
D03*
X025Y029D02*
D03*
Y027D02*
D03*
X026Y029D02*
D03*
Y027D02*
D03*
X027Y029D02*
D03*
Y027D02*
D03*
X034Y029D02*
D03*
Y027D02*
D03*
X035Y029D02*
D03*
Y027D02*
D03*
X036Y029D02*
D03*
Y027D02*
D03*
X037Y029D02*
D03*
Y027D02*
D03*
X044Y029D02*
D03*
Y027D02*
D03*
X045Y029D02*
D03*
Y027D02*
D03*
X046Y029D02*
D03*
Y027D02*
D03*
X047Y029D02*
D03*
Y027D02*
D03*
X054Y029D02*
D03*
Y027D02*
D03*
X055Y029D02*
D03*
Y027D02*
D03*
X056Y029D02*
D03*
Y027D02*
D03*
X057Y029D02*
D03*
Y027D02*
D03*
X037Y035D02*
D03*
Y037D02*
D03*
X036Y035D02*
D03*
Y037D02*
D03*
X035Y035D02*
D03*
Y037D02*
D03*
X034Y035D02*
D03*
Y037D02*
D03*
X027Y035D02*
D03*
Y037D02*
D03*
X026Y035D02*
D03*
Y037D02*
D03*
X025Y035D02*
D03*
Y037D02*
D03*
X024Y035D02*
D03*
Y037D02*
D03*
X057Y035D02*
D03*
Y037D02*
D03*
X056Y035D02*
D03*
Y037D02*
D03*
X055Y035D02*
D03*
Y037D02*
D03*
X054Y035D02*
D03*
Y037D02*
D03*
X047Y035D02*
D03*
Y037D02*
D03*
X046Y035D02*
D03*
Y037D02*
D03*
X045Y035D02*
D03*
Y037D02*
D03*
X044Y035D02*
D03*
Y037D02*
D03*
D15*
X021Y034D02*
D03*
D16*
X027Y03D02*
D03*
X026Y031D02*
D03*
X025Y032D02*
D03*
X024Y033D02*
D03*
X037Y03D02*
D03*
X036Y031D02*
D03*
X035Y032D02*
D03*
X034Y033D02*
D03*
X047Y03D02*
D03*
X046Y031D02*
D03*
X045Y032D02*
D03*
X044Y033D02*
D03*
X057Y03D02*
D03*
X056Y031D02*
D03*
X055Y032D02*
D03*
X054Y033D02*
D03*
X053Y034D02*
D03*
X043D02*
D03*
X033D02*
D03*
X023D02*
D03*
M02*
