G04 Layer_Color=65535*
%FSTAX24Y24*%
%MOIN*%
G70*
G01*
G75*
%ADD17C,0.0100*%
D17*
X0525Y0245D02*
X05749D01*
X0525Y0235D02*
Y0245D01*
Y0235D02*
X05749D01*
X057492Y0235D02*
Y0245D01*
X0425Y0245D02*
X04749D01*
X0425Y0235D02*
Y0245D01*
Y0235D02*
X04749D01*
X047492Y0235D02*
Y0245D01*
X0325Y0245D02*
X03749D01*
X0325Y0235D02*
Y0245D01*
Y0235D02*
X03749D01*
X037492Y0235D02*
Y0245D01*
X0225Y0245D02*
X02749D01*
X0225Y0235D02*
Y0245D01*
Y0235D02*
X02749D01*
X027492Y0235D02*
Y0245D01*
X0525Y0405D02*
X05749D01*
X0525Y0395D02*
Y0405D01*
Y0395D02*
X05749D01*
X057492Y0395D02*
Y0405D01*
X0425Y0405D02*
X04749D01*
X0425Y0395D02*
Y0405D01*
Y0395D02*
X04749D01*
X047492Y0395D02*
Y0405D01*
X0325Y0405D02*
X03749D01*
X0325Y0395D02*
Y0405D01*
Y0395D02*
X03749D01*
X037492Y0395D02*
Y0405D01*
X0225Y0405D02*
X02749D01*
X0225Y0395D02*
Y0405D01*
Y0395D02*
X02749D01*
X027492Y0395D02*
Y0405D01*
X02365Y029476D02*
X02435D01*
X02365Y026524D02*
X02435D01*
X02365Y02655D02*
Y02945D01*
X02435Y02655D02*
Y02945D01*
X02465Y029476D02*
X02535D01*
X02465Y026524D02*
X02535D01*
X02465Y02655D02*
Y02945D01*
X02535Y02655D02*
Y02945D01*
X02565Y029476D02*
X02635D01*
X02565Y026524D02*
X02635D01*
X02565Y02655D02*
Y02945D01*
X02635Y02655D02*
Y02945D01*
X02665Y029476D02*
X02735D01*
X02665Y026524D02*
X02735D01*
X02665Y02655D02*
Y02945D01*
X02735Y02655D02*
Y02945D01*
X03365Y029476D02*
X03435D01*
X03365Y026524D02*
X03435D01*
X03365Y02655D02*
Y02945D01*
X03435Y02655D02*
Y02945D01*
X03465Y029476D02*
X03535D01*
X03465Y026524D02*
X03535D01*
X03465Y02655D02*
Y02945D01*
X03535Y02655D02*
Y02945D01*
X03565Y029476D02*
X03635D01*
X03565Y026524D02*
X03635D01*
X03565Y02655D02*
Y02945D01*
X03635Y02655D02*
Y02945D01*
X03665Y029476D02*
X03735D01*
X03665Y026524D02*
X03735D01*
X03665Y02655D02*
Y02945D01*
X03735Y02655D02*
Y02945D01*
X04365Y029476D02*
X04435D01*
X04365Y026524D02*
X04435D01*
X04365Y02655D02*
Y02945D01*
X04435Y02655D02*
Y02945D01*
X04465Y029476D02*
X04535D01*
X04465Y026524D02*
X04535D01*
X04465Y02655D02*
Y02945D01*
X04535Y02655D02*
Y02945D01*
X04565Y029476D02*
X04635D01*
X04565Y026524D02*
X04635D01*
X04565Y02655D02*
Y02945D01*
X04635Y02655D02*
Y02945D01*
X04665Y029476D02*
X04735D01*
X04665Y026524D02*
X04735D01*
X04665Y02655D02*
Y02945D01*
X04735Y02655D02*
Y02945D01*
X05365Y029476D02*
X05435D01*
X05365Y026524D02*
X05435D01*
X05365Y02655D02*
Y02945D01*
X05435Y02655D02*
Y02945D01*
X05465Y029476D02*
X05535D01*
X05465Y026524D02*
X05535D01*
X05465Y02655D02*
Y02945D01*
X05535Y02655D02*
Y02945D01*
X05565Y029476D02*
X05635D01*
X05565Y026524D02*
X05635D01*
X05565Y02655D02*
Y02945D01*
X05635Y02655D02*
Y02945D01*
X05665Y029476D02*
X05735D01*
X05665Y026524D02*
X05735D01*
X05665Y02655D02*
Y02945D01*
X05735Y02655D02*
Y02945D01*
X03665Y034524D02*
X03735D01*
X03665Y037476D02*
X03735D01*
Y03455D02*
Y03745D01*
X03665Y03455D02*
Y03745D01*
X03565Y034524D02*
X03635D01*
X03565Y037476D02*
X03635D01*
Y03455D02*
Y03745D01*
X03565Y03455D02*
Y03745D01*
X03465Y034524D02*
X03535D01*
X03465Y037476D02*
X03535D01*
Y03455D02*
Y03745D01*
X03465Y03455D02*
Y03745D01*
X03365Y034524D02*
X03435D01*
X03365Y037476D02*
X03435D01*
Y03455D02*
Y03745D01*
X03365Y03455D02*
Y03745D01*
X02665Y034524D02*
X02735D01*
X02665Y037476D02*
X02735D01*
Y03455D02*
Y03745D01*
X02665Y03455D02*
Y03745D01*
X02565Y034524D02*
X02635D01*
X02565Y037476D02*
X02635D01*
Y03455D02*
Y03745D01*
X02565Y03455D02*
Y03745D01*
X02465Y034524D02*
X02535D01*
X02465Y037476D02*
X02535D01*
Y03455D02*
Y03745D01*
X02465Y03455D02*
Y03745D01*
X02365Y034524D02*
X02435D01*
X02365Y037476D02*
X02435D01*
Y03455D02*
Y03745D01*
X02365Y03455D02*
Y03745D01*
X05665Y034524D02*
X05735D01*
X05665Y037476D02*
X05735D01*
Y03455D02*
Y03745D01*
X05665Y03455D02*
Y03745D01*
X05565Y034524D02*
X05635D01*
X05565Y037476D02*
X05635D01*
Y03455D02*
Y03745D01*
X05565Y03455D02*
Y03745D01*
X05465Y034524D02*
X05535D01*
X05465Y037476D02*
X05535D01*
Y03455D02*
Y03745D01*
X05465Y03455D02*
Y03745D01*
X05365Y034524D02*
X05435D01*
X05365Y037476D02*
X05435D01*
Y03455D02*
Y03745D01*
X05365Y03455D02*
Y03745D01*
X04665Y034524D02*
X04735D01*
X04665Y037476D02*
X04735D01*
Y03455D02*
Y03745D01*
X04665Y03455D02*
Y03745D01*
X04565Y034524D02*
X04635D01*
X04565Y037476D02*
X04635D01*
Y03455D02*
Y03745D01*
X04565Y03455D02*
Y03745D01*
X04465Y034524D02*
X04535D01*
X04465Y037476D02*
X04535D01*
Y03455D02*
Y03745D01*
X04465Y03455D02*
Y03745D01*
X04365Y034524D02*
X04435D01*
X04365Y037476D02*
X04435D01*
Y03455D02*
Y03745D01*
X04365Y03455D02*
Y03745D01*
X0215Y02951D02*
Y0345D01*
X0205D02*
X0215D01*
X0205Y02951D02*
Y0345D01*
X0205Y029508D02*
X0215D01*
X0527Y0261D02*
X0533D01*
Y0265D01*
X0527Y0267D02*
Y0269D01*
Y0268D01*
X0533D01*
Y0267D01*
Y0269D01*
Y0272D02*
X0527D01*
Y0275D01*
X0528Y0276D01*
X053D01*
X0531Y0275D01*
Y0272D01*
X0527Y028099D02*
Y027899D01*
X0528Y027799D01*
X0532D01*
X0533Y027899D01*
Y028099D01*
X0532Y028199D01*
X0528D01*
X0527Y028099D01*
X053Y028399D02*
Y028799D01*
X0528Y028999D02*
X0527Y029099D01*
Y029299D01*
X0528Y029399D01*
X0529D01*
X053Y029299D01*
X0531Y029399D01*
X0532D01*
X0533Y029299D01*
Y029099D01*
X0532Y028999D01*
X0531D01*
X053Y029099D01*
X0529Y028999D01*
X0528D01*
X053Y029099D02*
Y029299D01*
X0425Y0261D02*
X0431D01*
Y0265D01*
X0425Y0267D02*
Y0269D01*
Y0268D01*
X0431D01*
Y0267D01*
Y0269D01*
Y0272D02*
X0425D01*
Y0275D01*
X0426Y0276D01*
X0428D01*
X0429Y0275D01*
Y0272D01*
X0425Y028099D02*
Y027899D01*
X0426Y027799D01*
X043D01*
X0431Y027899D01*
Y028099D01*
X043Y028199D01*
X0426D01*
X0425Y028099D01*
X0428Y028399D02*
Y028799D01*
X0425Y028999D02*
Y029399D01*
X0426D01*
X043Y028999D01*
X0431D01*
X0326Y0261D02*
X0332D01*
Y0265D01*
X0326Y0267D02*
Y0269D01*
Y0268D01*
X0332D01*
Y0267D01*
Y0269D01*
Y0272D02*
X0326D01*
Y0275D01*
X0327Y0276D01*
X0329D01*
X033Y0275D01*
Y0272D01*
X0326Y028099D02*
Y027899D01*
X0327Y027799D01*
X0331D01*
X0332Y027899D01*
Y028099D01*
X0331Y028199D01*
X0327D01*
X0326Y028099D01*
X0329Y028399D02*
Y028799D01*
X0326Y029399D02*
X0327Y029199D01*
X0329Y028999D01*
X0331D01*
X0332Y029099D01*
Y029299D01*
X0331Y029399D01*
X033D01*
X0329Y029299D01*
Y028999D01*
X0227Y0261D02*
X0233D01*
Y0265D01*
X0227Y0267D02*
Y0269D01*
Y0268D01*
X0233D01*
Y0267D01*
Y0269D01*
Y0272D02*
X0227D01*
Y0275D01*
X0228Y0276D01*
X023D01*
X0231Y0275D01*
Y0272D01*
X0227Y028099D02*
Y027899D01*
X0228Y027799D01*
X0232D01*
X0233Y027899D01*
Y028099D01*
X0232Y028199D01*
X0228D01*
X0227Y028099D01*
X023Y028399D02*
Y028799D01*
X0227Y029399D02*
Y028999D01*
X023D01*
X0229Y029199D01*
Y029299D01*
X023Y029399D01*
X0232D01*
X0233Y029299D01*
Y029099D01*
X0232Y028999D01*
X0527Y0345D02*
X0533D01*
Y0349D01*
X0527Y0351D02*
Y0353D01*
Y0352D01*
X0533D01*
Y0351D01*
Y0353D01*
Y0356D02*
X0527D01*
Y0359D01*
X0528Y036D01*
X053D01*
X0531Y0359D01*
Y0356D01*
X0527Y036499D02*
Y036299D01*
X0528Y036199D01*
X0532D01*
X0533Y036299D01*
Y036499D01*
X0532Y036599D01*
X0528D01*
X0527Y036499D01*
X053Y036799D02*
Y037199D01*
X0533Y037699D02*
X0527D01*
X053Y037399D01*
Y037799D01*
X0425Y0345D02*
X0431D01*
Y0349D01*
X0425Y0351D02*
Y0353D01*
Y0352D01*
X0431D01*
Y0351D01*
Y0353D01*
Y0356D02*
X0425D01*
Y0359D01*
X0426Y036D01*
X0428D01*
X0429Y0359D01*
Y0356D01*
X0425Y036499D02*
Y036299D01*
X0426Y036199D01*
X043D01*
X0431Y036299D01*
Y036499D01*
X043Y036599D01*
X0426D01*
X0425Y036499D01*
X0428Y036799D02*
Y037199D01*
X0426Y037399D02*
X0425Y037499D01*
Y037699D01*
X0426Y037799D01*
X0427D01*
X0428Y037699D01*
Y037599D01*
Y037699D01*
X0429Y037799D01*
X043D01*
X0431Y037699D01*
Y037499D01*
X043Y037399D01*
X0326Y0345D02*
X0332D01*
Y0349D01*
X0326Y0351D02*
Y0353D01*
Y0352D01*
X0332D01*
Y0351D01*
Y0353D01*
Y0356D02*
X0326D01*
Y0359D01*
X0327Y036D01*
X0329D01*
X033Y0359D01*
Y0356D01*
X0326Y036499D02*
Y036299D01*
X0327Y036199D01*
X0331D01*
X0332Y036299D01*
Y036499D01*
X0331Y036599D01*
X0327D01*
X0326Y036499D01*
X0329Y036799D02*
Y037199D01*
X0332Y037799D02*
Y037399D01*
X0328Y037799D01*
X0327D01*
X0326Y037699D01*
Y037499D01*
X0327Y037399D01*
X0227Y0348D02*
X0233D01*
Y0352D01*
X0227Y0354D02*
Y0356D01*
Y0355D01*
X0233D01*
Y0354D01*
Y0356D01*
Y0359D02*
X0227D01*
Y0362D01*
X0228Y0363D01*
X023D01*
X0231Y0362D01*
Y0359D01*
X0227Y036799D02*
Y036599D01*
X0228Y036499D01*
X0232D01*
X0233Y036599D01*
Y036799D01*
X0232Y036899D01*
X0228D01*
X0227Y036799D01*
X023Y037099D02*
Y037499D01*
X0233Y037699D02*
Y037899D01*
Y037799D01*
X0227D01*
X0228Y037699D01*
X0237Y02507D02*
Y02467D01*
X024D01*
Y02487D01*
Y02467D01*
X0243D01*
Y02527D02*
Y02547D01*
Y02537D01*
X0237D01*
X0238Y02527D01*
X0237Y02577D02*
Y02617D01*
X0238D01*
X0242Y02577D01*
X0243D01*
X0247Y02507D02*
Y02467D01*
X025D01*
Y02487D01*
Y02467D01*
X0253D01*
Y02527D02*
Y02547D01*
Y02537D01*
X0247D01*
X0248Y02527D01*
Y02577D02*
X0247Y02587D01*
Y02607D01*
X0248Y02617D01*
X0249D01*
X025Y02607D01*
X0251Y02617D01*
X0252D01*
X0253Y02607D01*
Y02587D01*
X0252Y02577D01*
X0251D01*
X025Y02587D01*
X0249Y02577D01*
X0248D01*
X025Y02587D02*
Y02607D01*
X0257Y02507D02*
Y02467D01*
X026D01*
Y02487D01*
Y02467D01*
X0263D01*
Y02527D02*
Y02547D01*
Y02537D01*
X0257D01*
X0258Y02527D01*
X0262Y02577D02*
X0263Y02587D01*
Y02607D01*
X0262Y02617D01*
X0258D01*
X0257Y02607D01*
Y02587D01*
X0258Y02577D01*
X0259D01*
X026Y02587D01*
Y02617D01*
X0267Y02497D02*
Y02457D01*
X027D01*
Y02477D01*
Y02457D01*
X0273D01*
Y02557D02*
Y02517D01*
X0269Y02557D01*
X0268D01*
X0267Y02547D01*
Y02527D01*
X0268Y02517D01*
Y02577D02*
X0267Y02587D01*
Y02607D01*
X0268Y026169D01*
X0272D01*
X0273Y02607D01*
Y02587D01*
X0272Y02577D01*
X0268D01*
X0337Y02517D02*
Y02477D01*
X034D01*
Y02497D01*
Y02477D01*
X0343D01*
Y02577D02*
Y02537D01*
X0339Y02577D01*
X0338D01*
X0337Y02567D01*
Y02547D01*
X0338Y02537D01*
X0343Y02597D02*
Y02617D01*
Y02607D01*
X0337D01*
X0338Y02597D01*
X0347Y02497D02*
Y02457D01*
X035D01*
Y02477D01*
Y02457D01*
X0353D01*
Y02557D02*
Y02517D01*
X0349Y02557D01*
X0348D01*
X0347Y02547D01*
Y02527D01*
X0348Y02517D01*
X0353Y026169D02*
Y02577D01*
X0349Y026169D01*
X0348D01*
X0347Y02607D01*
Y02587D01*
X0348Y02577D01*
X0357Y02497D02*
Y02457D01*
X036D01*
Y02477D01*
Y02457D01*
X0363D01*
Y02557D02*
Y02517D01*
X0359Y02557D01*
X0358D01*
X0357Y02547D01*
Y02527D01*
X0358Y02517D01*
Y02577D02*
X0357Y02587D01*
Y02607D01*
X0358Y026169D01*
X0359D01*
X036Y02607D01*
Y02597D01*
Y02607D01*
X0361Y026169D01*
X0362D01*
X0363Y02607D01*
Y02587D01*
X0362Y02577D01*
X0367Y02497D02*
Y02457D01*
X037D01*
Y02477D01*
Y02457D01*
X0373D01*
Y02557D02*
Y02517D01*
X0369Y02557D01*
X0368D01*
X0367Y02547D01*
Y02527D01*
X0368Y02517D01*
X0373Y02607D02*
X0367D01*
X037Y02577D01*
Y026169D01*
X0437Y02497D02*
Y02457D01*
X044D01*
Y02477D01*
Y02457D01*
X0443D01*
Y02557D02*
Y02517D01*
X0439Y02557D01*
X0438D01*
X0437Y02547D01*
Y02527D01*
X0438Y02517D01*
X0437Y026169D02*
Y02577D01*
X044D01*
X0439Y02597D01*
Y02607D01*
X044Y026169D01*
X0442D01*
X0443Y02607D01*
Y02587D01*
X0442Y02577D01*
X0447Y02497D02*
Y02457D01*
X045D01*
Y02477D01*
Y02457D01*
X0453D01*
Y02557D02*
Y02517D01*
X0449Y02557D01*
X0448D01*
X0447Y02547D01*
Y02527D01*
X0448Y02517D01*
X0447Y026169D02*
X0448Y02597D01*
X045Y02577D01*
X0452D01*
X0453Y02587D01*
Y02607D01*
X0452Y026169D01*
X0451D01*
X045Y02607D01*
Y02577D01*
X0457Y02497D02*
Y02457D01*
X046D01*
Y02477D01*
Y02457D01*
X0463D01*
Y02557D02*
Y02517D01*
X0459Y02557D01*
X0458D01*
X0457Y02547D01*
Y02527D01*
X0458Y02517D01*
X0457Y02577D02*
Y026169D01*
X0458D01*
X0462Y02577D01*
X0463D01*
X0467Y02497D02*
Y02457D01*
X047D01*
Y02477D01*
Y02457D01*
X0473D01*
Y02557D02*
Y02517D01*
X0469Y02557D01*
X0468D01*
X0467Y02547D01*
Y02527D01*
X0468Y02517D01*
Y02577D02*
X0467Y02587D01*
Y02607D01*
X0468Y026169D01*
X0469D01*
X047Y02607D01*
X0471Y026169D01*
X0472D01*
X0473Y02607D01*
Y02587D01*
X0472Y02577D01*
X0471D01*
X047Y02587D01*
X0469Y02577D01*
X0468D01*
X047Y02587D02*
Y02607D01*
X0537Y02497D02*
Y02457D01*
X054D01*
Y02477D01*
Y02457D01*
X0543D01*
Y02557D02*
Y02517D01*
X0539Y02557D01*
X0538D01*
X0537Y02547D01*
Y02527D01*
X0538Y02517D01*
X0542Y02577D02*
X0543Y02587D01*
Y02607D01*
X0542Y026169D01*
X0538D01*
X0537Y02607D01*
Y02587D01*
X0538Y02577D01*
X0539D01*
X054Y02587D01*
Y026169D01*
X0547Y02497D02*
Y02457D01*
X055D01*
Y02477D01*
Y02457D01*
X0553D01*
X0548Y02517D02*
X0547Y02527D01*
Y02547D01*
X0548Y02557D01*
X0549D01*
X055Y02547D01*
Y02537D01*
Y02547D01*
X0551Y02557D01*
X0552D01*
X0553Y02547D01*
Y02527D01*
X0552Y02517D01*
X0548Y02577D02*
X0547Y02587D01*
Y02607D01*
X0548Y026169D01*
X0552D01*
X0553Y02607D01*
Y02587D01*
X0552Y02577D01*
X0548D01*
X0557Y02517D02*
Y02477D01*
X056D01*
Y02497D01*
Y02477D01*
X0563D01*
X0558Y02537D02*
X0557Y02547D01*
Y02567D01*
X0558Y02577D01*
X0559D01*
X056Y02567D01*
Y02557D01*
Y02567D01*
X0561Y02577D01*
X0562D01*
X0563Y02567D01*
Y02547D01*
X0562Y02537D01*
X0563Y02597D02*
Y02617D01*
Y02607D01*
X0557D01*
X0558Y02597D01*
X0567Y02497D02*
Y02457D01*
X057D01*
Y02477D01*
Y02457D01*
X0573D01*
X0568Y02517D02*
X0567Y02527D01*
Y02547D01*
X0568Y02557D01*
X0569D01*
X057Y02547D01*
Y02537D01*
Y02547D01*
X0571Y02557D01*
X0572D01*
X0573Y02547D01*
Y02527D01*
X0572Y02517D01*
X0573Y026169D02*
Y02577D01*
X0569Y026169D01*
X0568D01*
X0567Y02607D01*
Y02587D01*
X0568Y02577D01*
X0367Y03823D02*
Y03783D01*
X037D01*
Y03803D01*
Y03783D01*
X0373D01*
X0368Y03843D02*
X0367Y03853D01*
Y03873D01*
X0368Y03883D01*
X0369D01*
X037Y03873D01*
X0371Y03883D01*
X0372D01*
X0373Y03873D01*
Y03853D01*
X0372Y03843D01*
X0371D01*
X037Y03853D01*
X0369Y03843D01*
X0368D01*
X037Y03853D02*
Y03873D01*
X0357Y03823D02*
Y03783D01*
X036D01*
Y03803D01*
Y03783D01*
X0363D01*
X0357Y03843D02*
Y03883D01*
X0358D01*
X0362Y03843D01*
X0363D01*
X0347Y03823D02*
Y03783D01*
X035D01*
Y03803D01*
Y03783D01*
X0353D01*
X0347Y03883D02*
X0348Y03863D01*
X035Y03843D01*
X0352D01*
X0353Y03853D01*
Y03873D01*
X0352Y03883D01*
X0351D01*
X035Y03873D01*
Y03843D01*
X0337Y03823D02*
Y03783D01*
X034D01*
Y03803D01*
Y03783D01*
X0343D01*
X0337Y03883D02*
Y03843D01*
X034D01*
X0339Y03863D01*
Y03873D01*
X034Y03883D01*
X0342D01*
X0343Y03873D01*
Y03853D01*
X0342Y03843D01*
X0267Y03823D02*
Y03783D01*
X027D01*
Y03803D01*
Y03783D01*
X0273D01*
Y03873D02*
X0267D01*
X027Y03843D01*
Y03883D01*
X0257Y03823D02*
Y03783D01*
X026D01*
Y03803D01*
Y03783D01*
X0263D01*
X0258Y03843D02*
X0257Y03853D01*
Y03873D01*
X0258Y03883D01*
X0259D01*
X026Y03873D01*
Y03863D01*
Y03873D01*
X0261Y03883D01*
X0262D01*
X0263Y03873D01*
Y03853D01*
X0262Y03843D01*
X0247Y03823D02*
Y03783D01*
X025D01*
Y03803D01*
Y03783D01*
X0253D01*
Y03883D02*
Y03843D01*
X0249Y03883D01*
X0248D01*
X0247Y03873D01*
Y03853D01*
X0248Y03843D01*
X0237Y03823D02*
Y03783D01*
X024D01*
Y03803D01*
Y03783D01*
X0243D01*
Y03843D02*
Y03863D01*
Y03853D01*
X0237D01*
X0238Y03843D01*
X0567Y03823D02*
Y03783D01*
X057D01*
Y03803D01*
Y03783D01*
X0573D01*
Y03843D02*
Y03863D01*
Y03853D01*
X0567D01*
X0568Y03843D01*
X0567Y03933D02*
X0568Y03913D01*
X057Y03893D01*
X0572D01*
X0573Y03903D01*
Y03923D01*
X0572Y03933D01*
X0571D01*
X057Y03923D01*
Y03893D01*
X0557Y03823D02*
Y03783D01*
X056D01*
Y03803D01*
Y03783D01*
X0563D01*
Y03843D02*
Y03863D01*
Y03853D01*
X0557D01*
X0558Y03843D01*
X0557Y03933D02*
Y03893D01*
X056D01*
X0559Y03913D01*
Y03923D01*
X056Y03933D01*
X0562D01*
X0563Y03923D01*
Y03903D01*
X0562Y03893D01*
X0547Y03823D02*
Y03783D01*
X055D01*
Y03803D01*
Y03783D01*
X0553D01*
Y03843D02*
Y03863D01*
Y03853D01*
X0547D01*
X0548Y03843D01*
X0553Y03923D02*
X0547D01*
X055Y03893D01*
Y03933D01*
X0537Y03823D02*
Y03783D01*
X054D01*
Y03803D01*
Y03783D01*
X0543D01*
Y03843D02*
Y03863D01*
Y03853D01*
X0537D01*
X0538Y03843D01*
Y03893D02*
X0537Y03903D01*
Y03923D01*
X0538Y03933D01*
X0539D01*
X054Y03923D01*
Y03913D01*
Y03923D01*
X0541Y03933D01*
X0542D01*
X0543Y03923D01*
Y03903D01*
X0542Y03893D01*
X0467Y03823D02*
Y03783D01*
X047D01*
Y03803D01*
Y03783D01*
X0473D01*
Y03843D02*
Y03863D01*
Y03853D01*
X0467D01*
X0468Y03843D01*
X0473Y03933D02*
Y03893D01*
X0469Y03933D01*
X0468D01*
X0467Y03923D01*
Y03903D01*
X0468Y03893D01*
X0457Y03823D02*
Y03783D01*
X046D01*
Y03803D01*
Y03783D01*
X0463D01*
Y03843D02*
Y03863D01*
Y03853D01*
X0457D01*
X0458Y03843D01*
X0463Y03893D02*
Y03913D01*
Y03903D01*
X0457D01*
X0458Y03893D01*
X0447Y03823D02*
Y03783D01*
X045D01*
Y03803D01*
Y03783D01*
X0453D01*
Y03843D02*
Y03863D01*
Y03853D01*
X0447D01*
X0448Y03843D01*
Y03893D02*
X0447Y03903D01*
Y03923D01*
X0448Y03933D01*
X0452D01*
X0453Y03923D01*
Y03903D01*
X0452Y03893D01*
X0448D01*
X0437Y03823D02*
Y03783D01*
X044D01*
Y03803D01*
Y03783D01*
X0443D01*
X0442Y03843D02*
X0443Y03853D01*
Y03873D01*
X0442Y03883D01*
X0438D01*
X0437Y03873D01*
Y03853D01*
X0438Y03843D01*
X0439D01*
X044Y03853D01*
Y03883D01*
X028Y0326D02*
Y032D01*
X0283D01*
X0284Y0321D01*
Y0322D01*
X0283Y0323D01*
X028D01*
X0283D01*
X0284Y0324D01*
Y0325D01*
X0283Y0326D01*
X028D01*
X0286Y032D02*
Y0324D01*
X0288Y0326D01*
X029Y0324D01*
Y032D01*
Y0323D01*
X0286D01*
X0292Y0326D02*
Y032D01*
X029599D01*
X029799D02*
Y0324D01*
X029999Y0326D01*
X030199Y0324D01*
Y032D01*
Y0323D01*
X029799D01*
X030399Y032D02*
Y0326D01*
X030799Y032D01*
Y0326D01*
X031399Y0325D02*
X031299Y0326D01*
X031099D01*
X030999Y0325D01*
Y0321D01*
X031099Y032D01*
X031299D01*
X031399Y0321D01*
X031999Y0326D02*
X031599D01*
Y032D01*
X031999D01*
X031599Y0323D02*
X031799D01*
X032199Y032D02*
Y0326D01*
X032499D01*
X032599Y0325D01*
Y0323D01*
X032499Y0322D01*
X032199D01*
X032399D02*
X032599Y032D01*
M02*
