M48
;Layer_Color=9474304
;FILE_FORMAT=2:5
INCH,TZ
;TYPE=PLATED
T1F00S00C0.02800
T2F00S00C0.03543
T3F00S00C0.04400
T4F00S00C0.10236
T5F00S00C0.13780
%
T01
X17000Y341000
X1700Y357837
X16100Y392100
X26500Y382800
X23000Y408400
X19000Y417000
X8200Y432200
X34200Y433300
X38500Y451600
X48200Y459300
X102362Y458661
X73000Y423300
X77000Y416300
X66500Y383000
X68300Y370300
X54300Y358500
X41600Y366700
X38659Y377559
X88800Y377200
X94300Y373200
X112400Y367700
X137200Y375500
X144600Y369700
X154300Y378000
X117000Y334300
X72100Y333900
X60000Y339100
X49800Y483100
X51100Y500100
X107283Y477821
X163700Y473000
T02
X7874Y343701
Y353701
Y363701
Y373701
Y383701
Y393701
X7874Y455900
Y465900
X188976Y384058
Y364373
X188900Y341500
X178900
X168900
X182700Y485658
Y505342
X7874Y475900
T03
X31300Y406500
X41500
X51700
X77042Y406936
X87242
X97442
X123008
X133208
X143408
X146700Y443630
X136500
X126300
X100539Y443713
X90339
X80139
T04
X187008Y403543
Y423228
Y442913
Y462598
T05
X41500Y340708
X87242Y341144
X133208
X136500Y509422
X90339Y509505
M30
