M48
;Layer_Color=9474304
;FILE_FORMAT=2:4
INCH,LZ
;TYPE=PLATED
T1F00S00C0.0160
T2F00S00C0.0180
T3F00S00C0.0295
T4F00S00C0.0354
T5F00S00C0.0400
T6F00S00C0.0433
T7F00S00C0.0472
T8F00S00C0.1299
%
T01
X074686Y040546
X073877Y041979
X075395Y043154
X07624Y0434
X07574Y0444
X07126Y0453
X07904Y045761
X082199
Y046761
X084438Y046646
X085068
X085383Y046246
X086013
X086328Y046546
X086643Y046846
X085595Y041546
X085698Y048346
X084887
X088019Y048482
X087994Y048013
Y047498
X08764Y0513
X086328Y051654
X085383
X085698Y052854
X086013Y053154
X086643Y053254
X08664Y0546
X08604Y0541
X08474Y0538
X084438Y0532
X08384Y052846
X08314Y0529
X08204Y051688
X08414Y0543
X08454Y0546
X087995Y0547
X08554Y058998
X08314Y0605
X074095Y0593
Y0586
X07174Y0576
X071436Y056019
X07274Y0559
X07234Y0549
X071436Y052515
X07234Y0516
X07494Y0506
X06927Y052515
Y056019
X069388Y057023
X07394Y06204
Y0634
X07189Y06496
T02
X07215Y06285
X07263
X07311
Y06335
X07263
X07215
T03
X087892Y055461
Y056248
Y057035
Y057823
Y05861
Y059398
T04
X07714Y042259
X08014
T05
X077364Y062518
Y06429
X079923
Y062518
T06
X08324Y0405
X08424
X08524
X08064Y052329
X07964
X07864
Y060929
X07964
X08064
X08164
X07764
X07664
Y052329
X07564
X07764
X08304Y0644
X08404
T07
X072638Y046393
Y047377
Y049346
Y05033
X070669Y048361
T08
X069979Y041078
Y043637
X087302
Y041078
Y061354
X069979
Y063913
X087302
M30
