M48
;Layer_Color=9474304
;FILE_FORMAT=2:5
INCH,TZ
;TYPE=PLATED
T1F00S00C0.02800
T2F00S00C0.03150
T3F00S00C0.03543
T4F00S00C0.04331
T5F00S00C0.05512
T6F00S00C0.10236
T7F00S00C0.13780
%
T01
X246062Y2920270
X255906Y2927165
X261700Y2923400
X281653Y2952598
X301181Y2955709
X333661Y2988189
X392717Y2987205
X369094Y3070866
X360236Y3078740
X322835Y3083661
X315846Y3056201
X318898Y3046260
X276575Y3051181
X269685Y3040354
X272638Y3073819
X259842Y3079724
X288386Y3090551
X157480Y3083661
X142717Y3074803
X190945Y3026575
X250000Y2978346
X109300Y3076500
X125984Y3109252
X69800Y3096200
X57200Y3098400
X57900Y3051700
X70866Y3062008
X84300Y3130000
X156496Y3141732
X278543Y3143701
X316929Y3165354
X319882Y3237205
X381889Y3238182
T02
X34795Y3255579
Y3245579
Y3235579
Y3225579
Y3215579
Y3205579
Y3195579
Y3185579
Y3175579
Y3165579
Y3155579
Y3145579
X93890
Y3155579
Y3165579
Y3175579
Y3185579
Y3195579
Y3205579
Y3215579
Y3225579
Y3235579
Y3245579
Y3255579
T03
X15748Y2932661
Y2922661
Y2912661
Y2902661
X39882Y2862531
X49882
X59882
X69882
X84173
X94173
X104173Y2863268
X114173Y2862531
X127480
X137480
X147480
X157480
X171772
X181772
X191772
X201772
X238032
X248031
X261811
X271811
X284134
X294134
X304134
X317598
X327598
X337598
X353410
X363409
X373410
X15748Y3042898
Y3052898
Y3062898
Y3072898
Y3082898
Y3092898
Y3102898
Y3112898
Y3122898
X136795Y3151536
Y3171221
X179295
Y3151536
X221795
Y3171221
X218504Y3251968
X208504
X260827Y3247779
Y3237780
X270827
X280827
X290827
Y3247779
X280827
X270827
X292323Y3148213
X302323
X312323
X322323
X333661Y3237780
X343661
X353661
X363661
X373661
Y3247779
X363661
X353661
X343661
X333661
X300827
Y3237780
T04
X159000Y2912563
Y2902563
X169000
X179000
X189000
X199000
X209000
X219000
X229000
X239000
X249000
X259000
X269000
X279000
X289000
Y2912563
X279000
X269000
X259000
X249000
X239000
X229000
X219000
X209000
X199000
X189000
X179000
X169000
X299000
Y2902563
X309000
X319000
X329000
X339000
X349000
X359000
X369000
X379000
X389000
X399000
Y2912563
X389000
X379000
X369000
X359000
X349000
X339000
X329000
X319000
X309000
Y3102563
X299000
Y3112563
X309000
X319000
Y3102563
X329000
X339000
X349000
X359000
X369000
X379000
X389000
X399000
Y3112563
X389000
X379000
X369000
X359000
X349000
X339000
X329000
X289000
Y3102563
X279000
X269000
X259000
X249000
X239000
X229000
X219000
X209000
X199000
X189000
X179000
X169000
X159000
Y3112563
X169000
X179000
X189000
X199000
X209000
X219000
X229000
X239000
X249000
X259000
X269000
X279000
T05
X334646Y3201362
X354331
X376969
X396654
X386811Y3161992
X344488
T06
X113878Y3250917
Y3230248
T07
X15748Y2864748
X399606
X15748Y3246638
X399606
M30
