%FSLAX25Y25*%
%MOIN*%
G70*
G01*
G75*
G04 Layer_Color=16711935*
%ADD10R,0.03937X0.05118*%
%ADD11R,0.04724X0.05118*%
%ADD12R,0.05118X0.03937*%
%ADD13R,0.07000X0.10000*%
%ADD14R,0.05500X0.07600*%
%ADD15R,0.08000X0.02000*%
%ADD16O,0.08000X0.02000*%
%ADD17R,0.02559X0.04724*%
%ADD18R,0.06299X0.04921*%
%ADD19R,0.05118X0.04724*%
%ADD20C,0.07874*%
%ADD21C,0.02000*%
%ADD22C,0.06000*%
%ADD23C,0.01500*%
%ADD24C,0.04000*%
%ADD25C,0.03000*%
%ADD26C,0.01000*%
%ADD27C,0.05906*%
%ADD28R,0.05906X0.05906*%
%ADD29R,0.05906X0.05906*%
%ADD30R,0.08400X0.08400*%
%ADD31R,0.13780X0.13780*%
%ADD32C,0.21654*%
%ADD33C,0.05000*%
%ADD34R,0.02362X0.09449*%
%ADD35O,0.02362X0.09449*%
%ADD36R,0.04921X0.06299*%
%ADD37R,0.05118X0.10630*%
%ADD38O,0.02165X0.06496*%
%ADD39O,0.06496X0.02165*%
%ADD40C,0.00787*%
%ADD41C,0.00800*%
%ADD42R,0.04737X0.05918*%
%ADD43R,0.05524X0.05918*%
%ADD44R,0.05918X0.04737*%
%ADD45R,0.07800X0.10800*%
%ADD46R,0.06300X0.08400*%
%ADD47R,0.08800X0.02800*%
%ADD48O,0.08800X0.02800*%
%ADD49R,0.03359X0.05524*%
%ADD50R,0.07099X0.05721*%
%ADD51R,0.05918X0.05524*%
%ADD52C,0.06706*%
%ADD53R,0.06706X0.06706*%
%ADD54R,0.06706X0.06706*%
%ADD55R,0.09200X0.09200*%
%ADD56R,0.14579X0.14579*%
%ADD57C,0.22453*%
%ADD58C,0.05800*%
%ADD59R,0.03162X0.10249*%
%ADD60O,0.03162X0.10249*%
%ADD61R,0.05721X0.07099*%
%ADD62R,0.05918X0.11430*%
%ADD63O,0.02965X0.07296*%
%ADD64O,0.07296X0.02965*%
D20*
X130000Y423500D02*
X152000D01*
X171957Y403543D01*
X126300Y427200D02*
X130000Y423500D01*
X126300Y427200D02*
Y443630D01*
X171957Y403543D02*
X187008D01*
X133208Y406936D02*
Y420292D01*
X114000Y450500D02*
X118700Y455200D01*
X132200D01*
X139598Y462598D01*
X187008D01*
X114000Y430300D02*
Y450500D01*
X108200Y424500D02*
X114000Y430300D01*
X83000Y424500D02*
X108200D01*
X80139Y427361D02*
X87242Y420259D01*
Y406936D02*
Y420259D01*
X80139Y427361D02*
Y443713D01*
D42*
X116142Y507874D02*
D03*
X108268D02*
D03*
Y498032D02*
D03*
X116142D02*
D03*
X189037Y331200D02*
D03*
X181163D02*
D03*
X111237Y433600D02*
D03*
X103363D02*
D03*
X80709Y494095D02*
D03*
X88583D02*
D03*
D44*
X147400Y426663D02*
D03*
Y434537D02*
D03*
X120079Y470472D02*
D03*
Y478346D02*
D03*
X70400Y435563D02*
D03*
Y443437D02*
D03*
X62000Y435463D02*
D03*
Y443337D02*
D03*
X8500Y439363D02*
D03*
Y447237D02*
D03*
X2200Y338137D02*
D03*
Y330263D02*
D03*
X1700Y369763D02*
D03*
Y377637D02*
D03*
X68100Y400263D02*
D03*
Y408137D02*
D03*
X60200Y398437D02*
D03*
Y390563D02*
D03*
X124016Y381890D02*
D03*
Y389764D02*
D03*
X117200Y343063D02*
D03*
Y350937D02*
D03*
D47*
X76500Y355100D02*
D03*
D48*
Y360100D02*
D03*
Y365100D02*
D03*
Y370100D02*
D03*
Y375100D02*
D03*
Y380100D02*
D03*
Y385100D02*
D03*
X102500D02*
D03*
Y380100D02*
D03*
Y375100D02*
D03*
Y370100D02*
D03*
Y365100D02*
D03*
Y360100D02*
D03*
Y355100D02*
D03*
D49*
X49200Y435476D02*
D03*
X45460Y445924D02*
D03*
X52940D02*
D03*
D50*
X156200Y443991D02*
D03*
Y430409D02*
D03*
D52*
X182700Y505342D02*
D03*
X188976Y384058D02*
D03*
X178900Y341500D02*
D03*
X168900D02*
D03*
X7874Y383701D02*
D03*
Y373701D02*
D03*
Y363701D02*
D03*
Y353701D02*
D03*
Y343701D02*
D03*
X7874Y465900D02*
D03*
Y455900D02*
D03*
D53*
X182700Y485658D02*
D03*
X188976Y364373D02*
D03*
X7874Y393701D02*
D03*
X7874Y475900D02*
D03*
D54*
X188900Y341500D02*
D03*
D55*
X133208Y406936D02*
D03*
X123008D02*
D03*
X143408D02*
D03*
X87242D02*
D03*
X77042D02*
D03*
X97442D02*
D03*
X41500Y406500D02*
D03*
X31300D02*
D03*
X51700D02*
D03*
X90339Y443713D02*
D03*
X100539D02*
D03*
X80139D02*
D03*
X136500Y443630D02*
D03*
X146700D02*
D03*
X126300D02*
D03*
D56*
X187008Y403543D02*
D03*
Y462598D02*
D03*
Y442913D02*
D03*
Y423228D02*
D03*
D57*
X133208Y341144D02*
D03*
X87242D02*
D03*
X41500Y340708D02*
D03*
X90339Y509505D02*
D03*
X136500Y509422D02*
D03*
D58*
X107283Y477821D02*
D03*
X102362Y458661D02*
D03*
X38500Y451600D02*
D03*
X72100Y333900D02*
D03*
X54300Y358500D02*
D03*
X60000Y339100D02*
D03*
X137200Y375500D02*
D03*
X34200Y433300D02*
D03*
X51100Y500100D02*
D03*
X163700Y473000D02*
D03*
X38659Y377559D02*
D03*
X41600Y366700D02*
D03*
X49800Y483100D02*
D03*
X48200Y459300D02*
D03*
X26500Y382800D02*
D03*
X17000Y341000D02*
D03*
X117000Y334300D02*
D03*
X23000Y408400D02*
D03*
X8200Y432200D02*
D03*
X19000Y417000D02*
D03*
X77000Y416300D02*
D03*
X73000Y423300D02*
D03*
X154300Y378000D02*
D03*
X144600Y369700D02*
D03*
X88800Y377200D02*
D03*
X66500Y383000D02*
D03*
X94300Y373200D02*
D03*
X68300Y370300D02*
D03*
X112400Y367700D02*
D03*
X16100Y392100D02*
D03*
X1700Y357837D02*
D03*
D59*
X113799Y468504D02*
D03*
D60*
X108799D02*
D03*
X103799D02*
D03*
X98799D02*
D03*
X113799Y488189D02*
D03*
X108799D02*
D03*
X103799D02*
D03*
X98799D02*
D03*
D61*
X56701Y494095D02*
D03*
X70284D02*
D03*
X92905Y458661D02*
D03*
X79323D02*
D03*
X73220D02*
D03*
X59638D02*
D03*
X84209Y433400D02*
D03*
X97791D02*
D03*
X144087Y395669D02*
D03*
X130504D02*
D03*
X96691Y397200D02*
D03*
X83109D02*
D03*
D62*
X78319Y483425D02*
D03*
X89736D02*
D03*
X57342Y483071D02*
D03*
X68760D02*
D03*
X78319Y469425D02*
D03*
X89736D02*
D03*
X57319D02*
D03*
X68736D02*
D03*
X169391Y349000D02*
D03*
X180809D02*
D03*
X41709Y418600D02*
D03*
X30291D02*
D03*
D63*
X46625Y392520D02*
D03*
X43476D02*
D03*
X40326D02*
D03*
X37176D02*
D03*
X34027D02*
D03*
X30877D02*
D03*
X27728D02*
D03*
X24578D02*
D03*
Y359449D02*
D03*
X27728D02*
D03*
X30877D02*
D03*
X34027D02*
D03*
X37176D02*
D03*
X40326D02*
D03*
X43476D02*
D03*
X46625D02*
D03*
D64*
X19066Y387008D02*
D03*
Y383858D02*
D03*
Y380709D02*
D03*
Y377559D02*
D03*
Y374410D02*
D03*
Y371260D02*
D03*
Y368110D02*
D03*
Y364961D02*
D03*
X52137D02*
D03*
Y368110D02*
D03*
Y371260D02*
D03*
Y374410D02*
D03*
Y377559D02*
D03*
Y380709D02*
D03*
Y383858D02*
D03*
Y387008D02*
D03*
M02*
