%FSLAX25Y25*%
%MOIN*%
G70*
G01*
G75*
G04 Layer_Color=8388736*
%ADD10R,0.03937X0.05118*%
%ADD11R,0.04724X0.05118*%
%ADD12R,0.05118X0.03937*%
%ADD13R,0.07000X0.10000*%
%ADD14R,0.05500X0.07600*%
%ADD15R,0.08000X0.02000*%
%ADD16O,0.08000X0.02000*%
%ADD17R,0.02559X0.04724*%
%ADD18R,0.06299X0.04921*%
%ADD19R,0.05118X0.04724*%
%ADD20C,0.07874*%
%ADD21C,0.02000*%
%ADD22C,0.06000*%
%ADD23C,0.01500*%
%ADD24C,0.04000*%
%ADD25C,0.03000*%
%ADD26C,0.01000*%
%ADD27C,0.05906*%
%ADD28R,0.05906X0.05906*%
%ADD29R,0.05906X0.05906*%
%ADD30R,0.08400X0.08400*%
%ADD31R,0.13780X0.13780*%
%ADD32C,0.21654*%
%ADD33C,0.05000*%
%ADD34R,0.02362X0.09449*%
%ADD35O,0.02362X0.09449*%
%ADD36R,0.04921X0.06299*%
%ADD37R,0.05118X0.10630*%
%ADD38O,0.02165X0.06496*%
%ADD39O,0.06496X0.02165*%
%ADD40C,0.00787*%
%ADD41C,0.00800*%
%ADD42R,0.04737X0.05918*%
%ADD43R,0.05524X0.05918*%
%ADD44R,0.05918X0.04737*%
%ADD45R,0.07800X0.10800*%
%ADD46R,0.06300X0.08400*%
%ADD47R,0.08800X0.02800*%
%ADD48O,0.08800X0.02800*%
%ADD49R,0.03359X0.05524*%
%ADD50R,0.07099X0.05721*%
%ADD51R,0.05918X0.05524*%
%ADD52C,0.06706*%
%ADD53R,0.06706X0.06706*%
%ADD54R,0.06706X0.06706*%
%ADD55R,0.09200X0.09200*%
%ADD56R,0.14579X0.14579*%
%ADD57C,0.22453*%
%ADD58C,0.05800*%
D20*
X171300Y417500D02*
X177342D01*
X142500D02*
X171300D01*
X177342D02*
X181102Y421260D01*
X108005Y417500D02*
X142500D01*
X97442Y406936D02*
X108005Y417500D01*
X143408Y406936D02*
Y416592D01*
X137000Y432670D02*
Y444300D01*
Y432670D02*
X168000D01*
X93500D02*
X137000D01*
X90839Y435331D02*
X93500Y432670D01*
X168000D02*
X178913Y443583D01*
X90839Y435331D02*
Y444383D01*
D25*
X-4900Y323000D02*
Y522900D01*
X197500D01*
Y323000D02*
Y522900D01*
X-4900Y323000D02*
X197500D01*
D42*
X185337Y331100D02*
D03*
X177463D02*
D03*
X32163Y415100D02*
D03*
X40037D02*
D03*
X52637D02*
D03*
X44763D02*
D03*
X31063Y462100D02*
D03*
X38937D02*
D03*
X154763Y443600D02*
D03*
X162637D02*
D03*
D43*
X163032Y331100D02*
D03*
X171694D02*
D03*
D44*
X116500Y348837D02*
D03*
Y340963D02*
D03*
X151900Y342037D02*
D03*
Y334163D02*
D03*
X167900Y389963D02*
D03*
Y397837D02*
D03*
X7300Y410537D02*
D03*
Y402663D02*
D03*
X7500Y416963D02*
D03*
Y424837D02*
D03*
X9300Y438763D02*
D03*
Y446637D02*
D03*
X64961Y480315D02*
D03*
Y472441D02*
D03*
X49800Y468963D02*
D03*
Y476837D02*
D03*
X160800Y449963D02*
D03*
Y457837D02*
D03*
D45*
X160243Y388000D02*
D03*
X177959D02*
D03*
Y352000D02*
D03*
X160243D02*
D03*
D46*
X77225Y431600D02*
D03*
X90175D02*
D03*
D47*
X24065Y453415D02*
D03*
D48*
Y448415D02*
D03*
Y443415D02*
D03*
Y438415D02*
D03*
Y433415D02*
D03*
Y428415D02*
D03*
Y423415D02*
D03*
X50065D02*
D03*
Y428415D02*
D03*
Y433415D02*
D03*
Y438415D02*
D03*
Y443415D02*
D03*
Y448415D02*
D03*
Y453415D02*
D03*
D49*
X35740Y471276D02*
D03*
X28260D02*
D03*
X32000Y481724D02*
D03*
X166760Y459324D02*
D03*
X174240D02*
D03*
X170500Y448876D02*
D03*
D50*
X64961Y452370D02*
D03*
Y465953D02*
D03*
Y486803D02*
D03*
Y500386D02*
D03*
D51*
X188800Y348332D02*
D03*
Y356994D02*
D03*
D52*
X182700Y505342D02*
D03*
X188976Y384058D02*
D03*
X178900Y341500D02*
D03*
X168900D02*
D03*
X7874Y383701D02*
D03*
Y373701D02*
D03*
Y363701D02*
D03*
Y353701D02*
D03*
Y343701D02*
D03*
X7874Y465900D02*
D03*
Y455900D02*
D03*
D53*
X182700Y485658D02*
D03*
X188976Y364373D02*
D03*
X7874Y393701D02*
D03*
X7874Y475900D02*
D03*
D54*
X188900Y341500D02*
D03*
D55*
X133208Y406936D02*
D03*
X123008D02*
D03*
X143408D02*
D03*
X87242D02*
D03*
X77042D02*
D03*
X97442D02*
D03*
X41500Y406500D02*
D03*
X31300D02*
D03*
X51700D02*
D03*
X90339Y443713D02*
D03*
X100539D02*
D03*
X80139D02*
D03*
X136500Y443630D02*
D03*
X146700D02*
D03*
X126300D02*
D03*
D56*
X187008Y403543D02*
D03*
Y462598D02*
D03*
Y442913D02*
D03*
Y423228D02*
D03*
D57*
X133208Y341144D02*
D03*
X87242D02*
D03*
X41500Y340708D02*
D03*
X90339Y509505D02*
D03*
X136500Y509422D02*
D03*
D58*
X107283Y477821D02*
D03*
X102362Y458661D02*
D03*
X38500Y451600D02*
D03*
X72100Y333900D02*
D03*
X54300Y358500D02*
D03*
X60000Y339100D02*
D03*
X137200Y375500D02*
D03*
X34200Y433300D02*
D03*
X51100Y500100D02*
D03*
X163700Y473000D02*
D03*
X38659Y377559D02*
D03*
X41600Y366700D02*
D03*
X49800Y483100D02*
D03*
X48200Y459300D02*
D03*
X26500Y382800D02*
D03*
X17000Y341000D02*
D03*
X117000Y334300D02*
D03*
X23000Y408400D02*
D03*
X8200Y432200D02*
D03*
X19000Y417000D02*
D03*
X77000Y416300D02*
D03*
X73000Y423300D02*
D03*
X154300Y378000D02*
D03*
X144600Y369700D02*
D03*
X88800Y377200D02*
D03*
X66500Y383000D02*
D03*
X94300Y373200D02*
D03*
X68300Y370300D02*
D03*
X112400Y367700D02*
D03*
X16100Y392100D02*
D03*
X1700Y357837D02*
D03*
M02*
