%FSLAX25Y25*%
%MOIN*%
G70*
G01*
G75*
G04 Layer_Physical_Order=2*
G04 Layer_Color=16711680*
%ADD10R,0.03937X0.05118*%
%ADD11R,0.04724X0.05118*%
%ADD12R,0.05118X0.03937*%
%ADD13R,0.07000X0.10000*%
%ADD14R,0.05500X0.07600*%
%ADD15R,0.08000X0.02000*%
%ADD16O,0.08000X0.02000*%
%ADD17R,0.02559X0.04724*%
%ADD18R,0.06299X0.04921*%
%ADD19R,0.05118X0.04724*%
%ADD20C,0.07874*%
%ADD21C,0.02000*%
%ADD22C,0.06000*%
%ADD23C,0.01500*%
%ADD24C,0.04000*%
%ADD25C,0.03000*%
%ADD26C,0.01000*%
%ADD27C,0.05906*%
%ADD28R,0.05906X0.05906*%
%ADD29R,0.05906X0.05906*%
%ADD30R,0.08400X0.08400*%
%ADD31R,0.13780X0.13780*%
%ADD32C,0.21654*%
%ADD33C,0.05000*%
%ADD34R,0.02362X0.09449*%
%ADD35O,0.02362X0.09449*%
%ADD36R,0.04921X0.06299*%
%ADD37R,0.05118X0.10630*%
%ADD38O,0.02165X0.06496*%
%ADD39O,0.06496X0.02165*%
D10*
X116142Y507874D02*
D03*
X108268D02*
D03*
Y498032D02*
D03*
X116142D02*
D03*
X189037Y331200D02*
D03*
X181163D02*
D03*
X111237Y433600D02*
D03*
X103363D02*
D03*
X80709Y494095D02*
D03*
X88583D02*
D03*
D12*
X147400Y426663D02*
D03*
Y434537D02*
D03*
X120079Y470472D02*
D03*
Y478346D02*
D03*
X70400Y435563D02*
D03*
Y443437D02*
D03*
X62000Y435463D02*
D03*
Y443337D02*
D03*
X8500Y439363D02*
D03*
Y447237D02*
D03*
X2200Y338137D02*
D03*
Y330263D02*
D03*
X1700Y369763D02*
D03*
Y377637D02*
D03*
X68100Y400263D02*
D03*
Y408137D02*
D03*
X60200Y398437D02*
D03*
Y390563D02*
D03*
X124016Y381890D02*
D03*
Y389764D02*
D03*
X117200Y343063D02*
D03*
Y350937D02*
D03*
D15*
X76500Y355100D02*
D03*
D16*
Y360100D02*
D03*
Y365100D02*
D03*
Y370100D02*
D03*
Y375100D02*
D03*
Y380100D02*
D03*
Y385100D02*
D03*
X102500D02*
D03*
Y380100D02*
D03*
Y375100D02*
D03*
Y370100D02*
D03*
Y365100D02*
D03*
Y360100D02*
D03*
Y355100D02*
D03*
D17*
X49200Y435476D02*
D03*
X45460Y445924D02*
D03*
X52940D02*
D03*
D18*
X156200Y443991D02*
D03*
Y430409D02*
D03*
D20*
X133208Y406936D02*
Y420292D01*
X80139Y427361D02*
Y443713D01*
X87242Y406936D02*
Y420259D01*
X171957Y403543D02*
X187008D01*
X126300Y427200D02*
Y443630D01*
X80139Y427361D02*
X87242Y420259D01*
X126300Y427200D02*
X130000Y423500D01*
X152000D02*
X171957Y403543D01*
X83000Y424500D02*
X108200D01*
X114000Y430300D01*
Y450500D01*
X139598Y462598D02*
X187008D01*
X132200Y455200D02*
X139598Y462598D01*
X118700Y455200D02*
X132200D01*
X114000Y450500D02*
X118700Y455200D01*
X130000Y423500D02*
X152000D01*
D21*
X68736Y469425D02*
Y483047D01*
X70284Y484594D02*
Y494095D01*
X68736Y483047D02*
X68760Y483071D01*
X70284Y484594D01*
X59638Y458661D02*
X64961D01*
X66929Y460630D01*
Y467618D01*
X68736Y469425D01*
X78319D02*
Y483425D01*
Y469425D02*
X79323Y468421D01*
Y464764D02*
Y468421D01*
X73220Y458661D02*
X79323D01*
X73220D02*
X79323Y464764D01*
X90551Y476378D02*
X91083Y476909D01*
X89736Y469425D02*
Y483425D01*
X98799Y464555D02*
Y468504D01*
X108799Y488189D02*
Y497500D01*
X108268Y498032D02*
X108799Y497500D01*
X88583Y494095D02*
X96457D01*
X98799Y491752D01*
Y488189D02*
Y491752D01*
X103799Y488189D02*
Y503406D01*
X108268Y507874D01*
X116142Y498032D02*
Y507874D01*
X115768Y470472D02*
X120079D01*
X113799Y468504D02*
X115768Y470472D01*
X108268Y507874D02*
Y511811D01*
X112205Y515748D01*
X118110D01*
X107436Y477821D02*
X113799Y484184D01*
X108799Y468504D02*
Y472972D01*
X114173Y478346D01*
X120079D01*
X107283Y477821D02*
X107436D01*
X92905Y458661D02*
X92905Y458661D01*
X98799Y464555D01*
X92905Y458661D02*
X102362D01*
X91083Y476909D02*
X99862D01*
X103799Y472972D01*
Y468504D02*
Y472972D01*
X77042Y401305D02*
Y406936D01*
Y401305D02*
X78740Y399606D01*
X70599Y406936D02*
X77042D01*
X78740Y399606D02*
X80702D01*
X96691Y397200D02*
Y406186D01*
X123639Y395669D02*
X130504D01*
X123008Y390771D02*
Y406936D01*
X116952Y381890D02*
X124016D01*
X144087Y395669D02*
Y406258D01*
X9775Y351800D02*
X26300D01*
X7874Y353701D02*
X9775Y351800D01*
X12126Y359449D02*
X24578D01*
X7874Y363701D02*
X12126Y359449D01*
X14939Y364961D02*
X20866D01*
X7874Y372026D02*
X14939Y364961D01*
X7874Y372026D02*
Y373701D01*
X20866Y377559D02*
X34341D01*
X52137D02*
X58000D01*
X57360Y371260D02*
X58300Y372200D01*
X52137Y371260D02*
X57360D01*
X33660D02*
X52137D01*
X30510Y374410D02*
X33660Y371260D01*
X19066Y374410D02*
X30510D01*
X19066Y368110D02*
X30510D01*
X33660Y371260D01*
X26300Y351800D02*
X27728Y353228D01*
Y359449D01*
X30877Y350277D02*
Y359449D01*
X100539Y434361D02*
Y443713D01*
Y434361D02*
X100900Y434000D01*
X100539Y443713D02*
Y447161D01*
X97300Y450400D02*
X100539Y447161D01*
X74400Y450400D02*
X97300D01*
X70400Y446400D02*
X74400Y450400D01*
X70400Y443437D02*
Y446400D01*
X62100Y435563D02*
X70400D01*
X62000Y443337D02*
Y447900D01*
X59638Y450262D02*
X62000Y447900D01*
X59638Y450262D02*
Y458661D01*
X147400Y434537D02*
Y442930D01*
X147061Y443991D02*
X156200D01*
Y427700D02*
Y430409D01*
X152000Y423500D02*
X156200Y427700D01*
X40326Y355474D02*
Y359449D01*
Y355474D02*
X42265Y353535D01*
X52137Y374410D02*
X53937D01*
X52137Y380709D02*
X53937D01*
X72100Y333400D02*
X77183Y328317D01*
X72100Y333400D02*
Y333900D01*
X188900Y331337D02*
Y341500D01*
Y331337D02*
X189037Y331200D01*
X51700Y394300D02*
Y406500D01*
Y394300D02*
X55437Y390563D01*
X58300D02*
X60200D01*
X55437D02*
X58300D01*
X46625Y359449D02*
X53351D01*
X54300Y358500D01*
X60000Y339100D02*
Y346100D01*
X178900Y341500D02*
Y344800D01*
X180500Y346400D01*
Y351991D02*
X180809Y352300D01*
X178900Y339900D02*
Y341500D01*
X171800Y332800D02*
X178900Y339900D01*
X46625Y386825D02*
Y392520D01*
X43509Y383709D02*
X46625Y386825D01*
X29809Y383709D02*
X43509D01*
X181163Y331200D02*
X182063D01*
X39784Y451600D02*
X45460Y445924D01*
X38500Y451600D02*
X39784D01*
X49200Y435476D02*
X61987D01*
X62000Y435463D01*
X120079Y470472D02*
X147830D01*
X182700Y505342D01*
X74203Y500600D02*
X80709Y494095D01*
X58900Y500600D02*
X74203D01*
X56701Y498401D02*
X58900Y500600D01*
X56701Y494095D02*
Y498401D01*
X51600Y500600D02*
X58900D01*
X51100Y500100D02*
X51600Y500600D01*
X127900Y360900D02*
Y374400D01*
X137558Y384058D01*
X188976D01*
X60200Y398437D02*
X73537Y385100D01*
X34341Y377559D02*
X38659D01*
X43476Y359449D02*
Y364824D01*
X41600Y366700D02*
X43476Y364824D01*
X49800Y483100D02*
X49829Y483071D01*
X56701D01*
X48100Y459300D02*
X48200D01*
X48539Y458661D02*
X59638D01*
X52940Y445924D02*
Y452140D01*
X51680Y453400D02*
X52940Y452140D01*
X44800Y453400D02*
X51680D01*
X38400Y459800D02*
X44800Y453400D01*
X38400Y459800D02*
Y465600D01*
X42225Y469425D01*
X57319D01*
Y482453D01*
X56701Y483071D02*
X57342D01*
X116142Y495942D02*
Y498032D01*
X113799Y493599D02*
X116142Y495942D01*
X113799Y488189D02*
Y493599D01*
X120079Y478346D02*
X122100Y480368D01*
Y511758D01*
X118110Y515748D02*
X122100Y511758D01*
X26500Y382800D02*
X28900D01*
X29809Y383709D01*
X17000Y341000D02*
X21600D01*
X30877Y350277D01*
X22250Y444850D02*
X33800Y433300D01*
X22250Y444850D02*
Y461524D01*
X7874Y475900D02*
X22250Y461524D01*
X116300Y335000D02*
X117000Y334300D01*
X157750Y478950D02*
X163700Y473000D01*
X137200Y363500D02*
Y375500D01*
X117342Y343642D02*
X137200Y363500D01*
X116300Y335000D02*
Y342357D01*
X77183Y328317D02*
X177017D01*
X179900Y331200D01*
X181163D01*
X163000Y332800D02*
X171800D01*
X156700Y339100D02*
X163000Y332800D01*
X156700Y339100D02*
Y356000D01*
X149200Y363500D02*
X156700Y356000D01*
X137200Y363500D02*
X149200D01*
X152900Y378000D02*
X154300D01*
X144600Y369700D02*
X152900Y378000D01*
X127163Y360900D02*
X127900D01*
X117200Y350937D02*
X127163Y360900D01*
X102500Y385100D02*
X113742D01*
X116952Y381890D01*
X117100Y381742D01*
X8500Y439363D02*
X16763D01*
X22250Y444850D01*
X18100Y417200D02*
X34200Y433300D01*
X91700Y380100D02*
X102500D01*
X88800Y377200D02*
X91700Y380100D01*
X93600Y365100D02*
X102500D01*
X88800Y369900D02*
X93600Y365100D01*
X88800Y369900D02*
Y377200D01*
X76500Y365100D02*
X81600D01*
X83800Y367300D01*
X79636Y389764D02*
X83800D01*
X76500Y380100D02*
X83500D01*
X83800Y367300D02*
Y380400D01*
Y389764D01*
X83500Y380100D02*
X83800Y380400D01*
X68619Y400781D02*
X79636Y389764D01*
X73537Y385100D02*
X76500D01*
X62100Y375100D02*
X76500D01*
X102500Y360100D02*
X108037D01*
X102500Y349173D02*
Y355100D01*
Y349173D02*
X108031Y343642D01*
X89500Y360100D02*
X102500D01*
X84500Y355100D02*
X89500Y360100D01*
X76500Y355100D02*
X84500D01*
X96200Y375100D02*
X102500D01*
X94300Y373200D02*
X96200Y375100D01*
X61800Y378300D02*
X66500Y383000D01*
X61800Y363200D02*
Y378300D01*
Y363200D02*
X64900Y360100D01*
X76500D01*
X68500Y370100D02*
X76500D01*
X68300Y370300D02*
X68500Y370100D01*
X109169Y363268D02*
X111500Y365600D01*
X109169Y358968D02*
Y363268D01*
Y358968D02*
X117200Y350937D01*
X108037Y360100D02*
X109169Y358968D01*
X117100Y379000D02*
Y381742D01*
X102500Y370100D02*
X108200D01*
X117100Y379000D01*
X112400Y365700D02*
X112500Y365600D01*
X112400Y365700D02*
Y367700D01*
X16800Y389274D02*
X19066Y387008D01*
X16800Y389274D02*
Y392000D01*
X16700Y392100D02*
X16800Y392000D01*
X16100Y392100D02*
X16700D01*
X7874Y390705D02*
Y393701D01*
Y390705D02*
X12827Y385752D01*
Y381522D02*
Y385752D01*
X12700Y381396D02*
X12827Y381522D01*
X12700Y376300D02*
Y381396D01*
Y376300D02*
X14591Y374410D01*
X19066D01*
X108031Y343642D02*
X117342D01*
X58300Y372200D02*
Y390563D01*
X180500Y346400D02*
Y351991D01*
X2200Y330263D02*
X3063Y331126D01*
X34341Y377559D02*
X37490Y374410D01*
X34341Y377559D02*
X37490Y380709D01*
Y374410D02*
X52137D01*
X37490Y380709D02*
X52137D01*
X56701Y483071D02*
Y494095D01*
X111500Y365600D02*
X112500D01*
X7874Y334174D02*
Y343701D01*
X4826Y331126D02*
X7874Y334174D01*
X3063Y331126D02*
X4826D01*
X42265Y353535D02*
X52565D01*
X60000Y346100D01*
D22*
X168900Y363982D02*
X188976Y384058D01*
X168900Y341500D02*
Y363982D01*
D23*
X34500Y399200D02*
X37200Y396500D01*
Y392520D02*
Y396500D01*
X4639Y399200D02*
X34500D01*
X3171Y388404D02*
Y397732D01*
Y388404D02*
X7874Y383701D01*
X3171Y397732D02*
X4639Y399200D01*
X-150Y379487D02*
Y397946D01*
Y379487D02*
X1700Y377637D01*
Y357837D02*
Y366500D01*
Y369763D01*
X1600Y366600D02*
X1700Y366500D01*
X2200Y338137D02*
Y357337D01*
X-150Y397946D02*
X5304Y403400D01*
X28200D01*
X31300Y406500D01*
D24*
X41709Y406709D02*
Y418600D01*
X8200Y412300D02*
Y432200D01*
Y412300D02*
X12100Y408400D01*
X23000D01*
X23600D01*
X58800Y416300D02*
X77000D01*
X44109Y416200D02*
X58900D01*
X60200D01*
D25*
X30291Y418600D02*
Y422791D01*
X35800Y428300D01*
X68300D01*
X73400Y422000D02*
Y423200D01*
X41500Y406500D02*
X41709Y406709D01*
X31300Y406500D02*
Y417591D01*
X30291Y418600D02*
X31300Y417591D01*
X187008Y423228D02*
X192228D01*
X73000Y422400D02*
X73400Y422000D01*
X73000Y422400D02*
Y423300D01*
X41709Y418600D02*
X44109Y416200D01*
X60200Y398437D02*
Y414900D01*
Y416200D01*
X58900D02*
X60200Y414900D01*
X58800Y416300D02*
X58900Y416200D01*
X8500Y447237D02*
Y455274D01*
X30300Y406500D02*
X31300D01*
X68300Y428300D02*
X73400Y423200D01*
D27*
X182700Y505342D02*
D03*
X188976Y384058D02*
D03*
X178900Y341500D02*
D03*
X168900D02*
D03*
X7874Y383701D02*
D03*
Y373701D02*
D03*
Y363701D02*
D03*
Y353701D02*
D03*
Y343701D02*
D03*
X7874Y465900D02*
D03*
Y455900D02*
D03*
D28*
X182700Y485658D02*
D03*
X188976Y364373D02*
D03*
X7874Y393701D02*
D03*
X7874Y475900D02*
D03*
D29*
X188900Y341500D02*
D03*
D30*
X133208Y406936D02*
D03*
X123008D02*
D03*
X143408D02*
D03*
X87242D02*
D03*
X77042D02*
D03*
X97442D02*
D03*
X41500Y406500D02*
D03*
X31300D02*
D03*
X51700D02*
D03*
X90339Y443713D02*
D03*
X100539D02*
D03*
X80139D02*
D03*
X136500Y443630D02*
D03*
X146700D02*
D03*
X126300D02*
D03*
D31*
X187008Y403543D02*
D03*
Y462598D02*
D03*
Y442913D02*
D03*
Y423228D02*
D03*
D32*
X133208Y341144D02*
D03*
X87242D02*
D03*
X41500Y340708D02*
D03*
X90339Y509505D02*
D03*
X136500Y509422D02*
D03*
D33*
X107283Y477821D02*
D03*
X102362Y458661D02*
D03*
X38500Y451600D02*
D03*
X72100Y333900D02*
D03*
X54300Y358500D02*
D03*
X60000Y339100D02*
D03*
X137200Y375500D02*
D03*
X34200Y433300D02*
D03*
X51100Y500100D02*
D03*
X163700Y473000D02*
D03*
X38659Y377559D02*
D03*
X41600Y366700D02*
D03*
X49800Y483100D02*
D03*
X48200Y459300D02*
D03*
X26500Y382800D02*
D03*
X17000Y341000D02*
D03*
X117000Y334300D02*
D03*
X23000Y408400D02*
D03*
X8200Y432200D02*
D03*
X19000Y417000D02*
D03*
X77000Y416300D02*
D03*
X73000Y423300D02*
D03*
X154300Y378000D02*
D03*
X144600Y369700D02*
D03*
X88800Y377200D02*
D03*
X66500Y383000D02*
D03*
X94300Y373200D02*
D03*
X68300Y370300D02*
D03*
X112400Y367700D02*
D03*
X16100Y392100D02*
D03*
X1700Y357837D02*
D03*
D34*
X113799Y468504D02*
D03*
D35*
X108799D02*
D03*
X103799D02*
D03*
X98799D02*
D03*
X113799Y488189D02*
D03*
X108799D02*
D03*
X103799D02*
D03*
X98799D02*
D03*
D36*
X56701Y494095D02*
D03*
X70284D02*
D03*
X92905Y458661D02*
D03*
X79323D02*
D03*
X73220D02*
D03*
X59638D02*
D03*
X84209Y433400D02*
D03*
X97791D02*
D03*
X144087Y395669D02*
D03*
X130504D02*
D03*
X96691Y397200D02*
D03*
X83109D02*
D03*
D37*
X78319Y483425D02*
D03*
X89736D02*
D03*
X57342Y483071D02*
D03*
X68760D02*
D03*
X78319Y469425D02*
D03*
X89736D02*
D03*
X57319D02*
D03*
X68736D02*
D03*
X169391Y349000D02*
D03*
X180809D02*
D03*
X41709Y418600D02*
D03*
X30291D02*
D03*
D38*
X46625Y392520D02*
D03*
X43476D02*
D03*
X40326D02*
D03*
X37176D02*
D03*
X34027D02*
D03*
X30877D02*
D03*
X27728D02*
D03*
X24578D02*
D03*
Y359449D02*
D03*
X27728D02*
D03*
X30877D02*
D03*
X34027D02*
D03*
X37176D02*
D03*
X40326D02*
D03*
X43476D02*
D03*
X46625D02*
D03*
D39*
X19066Y387008D02*
D03*
Y383858D02*
D03*
Y380709D02*
D03*
Y377559D02*
D03*
Y374410D02*
D03*
Y371260D02*
D03*
Y368110D02*
D03*
Y364961D02*
D03*
X52137D02*
D03*
Y368110D02*
D03*
Y371260D02*
D03*
Y374410D02*
D03*
Y377559D02*
D03*
Y380709D02*
D03*
Y383858D02*
D03*
Y387008D02*
D03*
M02*
