%FSLAX25Y25*%
%MOIN*%
G70*
G01*
G75*
G04 Layer_Physical_Order=1*
G04 Layer_Color=255*
%ADD10R,0.03937X0.05118*%
%ADD11R,0.04724X0.05118*%
%ADD12R,0.05118X0.03937*%
%ADD13R,0.07000X0.10000*%
%ADD14R,0.05500X0.07600*%
%ADD15R,0.08000X0.02000*%
%ADD16O,0.08000X0.02000*%
%ADD17R,0.02559X0.04724*%
%ADD18R,0.06299X0.04921*%
%ADD19R,0.05118X0.04724*%
%ADD20C,0.07874*%
%ADD21C,0.02000*%
%ADD22C,0.06000*%
%ADD23C,0.01500*%
%ADD24C,0.04000*%
%ADD25C,0.03000*%
%ADD26C,0.01000*%
%ADD27C,0.05906*%
%ADD28R,0.05906X0.05906*%
%ADD29R,0.05906X0.05906*%
%ADD30R,0.08400X0.08400*%
%ADD31R,0.13780X0.13780*%
%ADD32C,0.21654*%
%ADD33C,0.05000*%
D10*
X185337Y331100D02*
D03*
X177463D02*
D03*
X32163Y415100D02*
D03*
X40037D02*
D03*
X52637D02*
D03*
X44763D02*
D03*
X31063Y462100D02*
D03*
X38937D02*
D03*
X154763Y443600D02*
D03*
X162637D02*
D03*
D11*
X163032Y331100D02*
D03*
X171694D02*
D03*
D12*
X116500Y348837D02*
D03*
Y340963D02*
D03*
X151900Y342037D02*
D03*
Y334163D02*
D03*
X167900Y389963D02*
D03*
Y397837D02*
D03*
X7300Y410537D02*
D03*
Y402663D02*
D03*
X7500Y416963D02*
D03*
Y424837D02*
D03*
X9300Y438763D02*
D03*
Y446637D02*
D03*
X64961Y480315D02*
D03*
Y472441D02*
D03*
X49800Y468963D02*
D03*
Y476837D02*
D03*
X160800Y449963D02*
D03*
Y457837D02*
D03*
D13*
X160243Y388000D02*
D03*
X177959D02*
D03*
Y352000D02*
D03*
X160243D02*
D03*
D14*
X77225Y431600D02*
D03*
X90175D02*
D03*
D15*
X24065Y453415D02*
D03*
D16*
Y448415D02*
D03*
Y443415D02*
D03*
Y438415D02*
D03*
Y433415D02*
D03*
Y428415D02*
D03*
Y423415D02*
D03*
X50065D02*
D03*
Y428415D02*
D03*
Y433415D02*
D03*
Y438415D02*
D03*
Y443415D02*
D03*
Y448415D02*
D03*
Y453415D02*
D03*
D17*
X35740Y471276D02*
D03*
X28260D02*
D03*
X32000Y481724D02*
D03*
X166760Y459324D02*
D03*
X174240D02*
D03*
X170500Y448876D02*
D03*
D18*
X64961Y452370D02*
D03*
Y465953D02*
D03*
Y486803D02*
D03*
Y500386D02*
D03*
D19*
X188800Y348332D02*
D03*
Y356994D02*
D03*
D20*
X90339Y434661D02*
Y443713D01*
X178413Y442913D02*
X187008D01*
X143408Y406936D02*
Y416592D01*
X142500Y417500D02*
X143408Y416592D01*
X167500Y432000D02*
X178413Y442913D01*
X90339Y434661D02*
X93000Y432000D01*
X97442Y406936D02*
X108005Y417500D01*
X142500D01*
X93000Y432000D02*
X136500D01*
X167500D01*
X136500D02*
Y443630D01*
X185039Y421260D02*
X187008Y423228D01*
X181102Y421260D02*
X185039D01*
X177342Y417500D02*
X181102Y421260D01*
X142500Y417500D02*
X171300D01*
X177342D01*
D21*
X107283Y463583D02*
Y477821D01*
X102362Y458661D02*
X107283Y463583D01*
X64961Y452370D02*
X87000D01*
X90339Y449031D01*
Y443713D02*
Y449031D01*
X64961Y465953D02*
Y472441D01*
Y480315D02*
Y486803D01*
X66106Y485658D01*
X50065Y443415D02*
Y448415D01*
X24065Y443415D02*
X50065D01*
Y423415D02*
Y428415D01*
X16900Y448415D02*
X24065D01*
X16300Y433415D02*
X24065D01*
X50065D02*
X57285D01*
X50065Y438415D02*
X59356D01*
X12998Y466102D02*
X16191Y462909D01*
X24065Y428415D02*
X32315D01*
X12550Y471150D02*
X21086D01*
X31900Y455600D02*
Y481724D01*
X29715Y453415D02*
X31900Y455600D01*
X24065Y453415D02*
X29715D01*
X35900Y451600D02*
X38500D01*
X31900Y455600D02*
X35900Y451600D01*
X89000Y461000D02*
X97000Y453000D01*
X150500D01*
X155337Y457837D01*
X160800D01*
X146730Y443600D02*
X154763D01*
X146700Y443630D02*
X146730Y443600D01*
X160800Y449100D02*
Y449963D01*
X162637Y443600D02*
Y447263D01*
X160800Y449100D02*
X161024Y448876D01*
X162637Y447263D01*
X161024Y448876D02*
X170500D01*
X174240Y459324D02*
Y471640D01*
X178500Y475900D01*
X186800D01*
X191800Y480900D01*
X21086Y471150D02*
Y481286D01*
X191800Y480900D02*
Y489000D01*
X185706Y356994D02*
X188800D01*
X180400Y362300D02*
X185706Y356994D01*
X156600Y362300D02*
X180400D01*
X152000Y342037D02*
Y357700D01*
X156600Y362300D01*
X163032Y335632D02*
X168900Y341500D01*
X181627Y348332D02*
X188800D01*
X177959Y352000D02*
X181627Y348332D01*
X171694Y331100D02*
X177463D01*
X163032D02*
Y335632D01*
X185337Y331100D02*
Y335063D01*
X178900Y341500D02*
X185337Y335063D01*
X60000Y339100D02*
Y355700D01*
X65000Y360700D01*
X54300Y358500D02*
X54327Y358473D01*
Y337173D02*
Y358473D01*
Y337173D02*
X58700Y332800D01*
X64700D01*
X67600Y335700D01*
Y335864D01*
X67700Y335964D01*
Y352900D01*
X70800Y356000D01*
X98841D01*
X146054Y328317D02*
X151900Y334163D01*
X100300Y375500D02*
X137200D01*
X51700Y380500D02*
Y406500D01*
X24065Y438415D02*
X36085D01*
X46085Y428415D01*
X50065D01*
X34200Y430300D02*
Y433300D01*
X32315Y428415D02*
X34200Y430300D01*
X98841Y356000D02*
X103600Y351241D01*
Y336000D02*
Y351241D01*
Y336000D02*
X111283Y328317D01*
X146054D01*
X9300Y438763D02*
X15628D01*
X7382Y466102D02*
X12998D01*
X41900Y457500D02*
X45985Y453415D01*
X50065D01*
X26500Y335400D02*
X34900Y327000D01*
X65200D01*
X72100Y333900D01*
X166760Y459324D02*
Y469940D01*
X163700Y473000D02*
X166760Y469940D01*
X38659Y377559D02*
X41500Y380400D01*
Y406500D01*
X34159Y374141D02*
X41600Y366700D01*
X35740Y471276D02*
X40908Y476443D01*
X41900Y465200D02*
X45663Y468963D01*
X49406D01*
X48100Y459300D02*
X48200D01*
X49800Y461000D02*
X89000D01*
X48100Y459300D02*
X49800Y461000D01*
X38659Y377559D02*
X39441D01*
X49400Y367600D01*
Y364200D02*
Y367600D01*
X44700Y359500D02*
X49400Y364200D01*
X38100Y359500D02*
X44700D01*
X7874Y339426D02*
Y343701D01*
X26500Y335400D02*
Y382800D01*
X7874Y339426D02*
X13100Y334200D01*
X19200D01*
X21500Y336500D01*
X21086Y481286D02*
X33100Y493300D01*
X187500D02*
X191800Y489000D01*
X71700Y493300D02*
X77600Y487400D01*
X33100Y493300D02*
X71700D01*
X77600Y487400D02*
X159200D01*
X165100Y493300D01*
X187500D01*
X165157Y485658D02*
X182700D01*
X157321Y477821D02*
X165157Y485658D01*
X107283Y477821D02*
X157321D01*
X64961Y480315D02*
X104789D01*
X107283Y477821D01*
X116500Y334800D02*
Y340963D01*
Y334800D02*
X117000Y334300D01*
X50065Y453415D02*
X56385D01*
X58400Y451400D01*
Y446200D02*
Y451400D01*
X31159Y366441D02*
X38100Y359500D01*
X31159Y366441D02*
Y384798D01*
X28057Y387900D02*
X31159Y384798D01*
X16191Y432432D02*
Y462909D01*
X23600Y408400D02*
X24065Y408865D01*
X2700Y432000D02*
X2900Y432200D01*
X160243Y388000D02*
X162206Y389963D01*
X167900D01*
X13800Y430040D02*
X16191Y432432D01*
X41500Y415100D02*
X43557D01*
X52637Y407437D02*
Y415100D01*
X51700Y406500D02*
X52637Y407437D01*
X57285Y433415D02*
X58200Y432500D01*
X160243Y383943D02*
Y388000D01*
X154300Y378000D02*
X160243Y383943D01*
X65400Y396400D02*
X72800Y389000D01*
X65400Y396400D02*
Y439200D01*
X58400Y446200D02*
X65400Y439200D01*
X61700Y387800D02*
Y436071D01*
X59356Y438415D02*
X61700Y436071D01*
X39243Y415100D02*
X40037D01*
X41500D01*
X49800Y476443D02*
Y476837D01*
Y483100D01*
X7800Y475900D02*
X12550Y471150D01*
X21086D02*
X28434D01*
X58200Y382000D02*
Y432500D01*
Y382000D02*
X63000Y377200D01*
X88800D01*
X61700Y387800D02*
X66500Y383000D01*
X72800Y389000D02*
X86800D01*
X51700Y380500D02*
X67300Y364900D01*
X86800Y389000D02*
X100300Y375500D01*
X94300Y373200D02*
X98357D01*
X102957Y368600D01*
X67300Y364900D02*
X105800D01*
X108700Y362000D01*
X123700D01*
X137200Y375500D01*
X65000Y360700D02*
X102400D01*
X114263Y348837D01*
X116500D01*
X137363Y369700D01*
X144600D01*
X68300Y370300D02*
X91400D01*
X94300Y373200D01*
X21500Y336500D02*
Y385900D01*
X23500Y387900D01*
X28057D01*
X16191Y341000D02*
Y384891D01*
X20600Y389300D01*
X34159Y374141D02*
Y386041D01*
X18300Y401900D02*
Y417000D01*
Y401900D02*
X34159Y386041D01*
X13800Y401000D02*
Y430040D01*
Y401000D02*
X20600Y394200D01*
Y389300D02*
Y394200D01*
X7874Y393701D02*
Y402663D01*
X41900Y457500D02*
Y465200D01*
X49406Y468963D02*
X49800Y469357D01*
X32157Y407357D02*
Y415100D01*
X40908Y476443D02*
X49800D01*
X102957Y368600D02*
X112400D01*
D22*
X181901Y384058D02*
X188976D01*
X177959Y388000D02*
X181901Y384058D01*
X168900Y341500D02*
Y342941D01*
X177959Y352000D01*
X171300Y417500D02*
X172137Y416663D01*
X97442Y399258D02*
X102200Y394500D01*
X97442Y399258D02*
Y406936D01*
X177959Y388000D02*
Y390741D01*
X102200Y394500D02*
X147600D01*
X153359Y400259D01*
X168441D01*
X177959Y390741D01*
D23*
X1600Y389975D02*
X7874Y383701D01*
X1600Y389975D02*
Y406500D01*
X5637Y410537D01*
X7300D01*
X7500Y410737D02*
Y416963D01*
X1200Y367000D02*
Y375100D01*
X5098Y378998D01*
X9822D01*
X12577Y381753D01*
Y386477D01*
X16100Y390000D01*
Y392100D01*
X1700Y357837D02*
Y366500D01*
X1200Y367000D02*
X1700Y366500D01*
D24*
X2700Y428100D02*
X5663Y425137D01*
X2700Y451100D02*
X7500Y455900D01*
X64961Y500386D02*
X75114D01*
X81900Y493600D01*
X156100D01*
X167842Y505342D01*
X182700D01*
X2900Y432200D02*
X8200D01*
X2700Y428100D02*
Y432000D01*
Y451100D01*
X97442Y406936D02*
Y411959D01*
X1200Y461200D02*
X6500Y455900D01*
X1200Y461200D02*
Y483200D01*
X18386Y500386D01*
X23000Y408400D02*
X23700Y409100D01*
Y413400D01*
X27000Y416700D01*
Y421900D01*
X39200D02*
X41500Y419600D01*
X27000Y421900D02*
X39200D01*
X93000Y416400D02*
X97442Y411959D01*
X182150Y371200D02*
X188976Y364373D01*
X88000Y394700D02*
X97700Y385000D01*
X73300Y394700D02*
X88000D01*
X97700Y385000D02*
X137800D01*
X151600Y371200D01*
X182150D01*
X69800Y398200D02*
X73300Y394700D01*
X69800Y398200D02*
Y419200D01*
X73000Y422400D01*
X41500Y406500D02*
Y415100D01*
Y419600D01*
X18386Y500386D02*
X64961D01*
X77000Y416400D02*
X93000D01*
D25*
X3663Y446637D02*
X9300D01*
X6500Y455900D02*
X7500D01*
X7874D01*
X73000Y422400D02*
Y423300D01*
Y428191D01*
X76409Y431600D01*
X72250Y423150D02*
X73000Y422400D01*
D26*
X2500Y516198D02*
Y510200D01*
X5499D01*
X6499Y511200D01*
Y512199D01*
X5499Y513199D01*
X2500D01*
X5499D01*
X6499Y514199D01*
Y515198D01*
X5499Y516198D01*
X2500D01*
X8498D02*
Y511200D01*
X9498Y510200D01*
X11497D01*
X12497Y511200D01*
Y516198D01*
X18495Y515198D02*
X17495Y516198D01*
X15496D01*
X14496Y515198D01*
Y511200D01*
X15496Y510200D01*
X17495D01*
X18495Y511200D01*
Y513199D01*
X16496D01*
X20494Y516198D02*
Y510200D01*
X23493D01*
X24493Y511200D01*
Y512199D01*
X23493Y513199D01*
X20494D01*
X23493D01*
X24493Y514199D01*
Y515198D01*
X23493Y516198D01*
X20494D01*
X26492D02*
Y511200D01*
X27492Y510200D01*
X29491D01*
X30491Y511200D01*
Y516198D01*
X36489Y515198D02*
X35489Y516198D01*
X33490D01*
X32490Y515198D01*
Y514199D01*
X33490Y513199D01*
X35489D01*
X36489Y512199D01*
Y511200D01*
X35489Y510200D01*
X33490D01*
X32490Y511200D01*
X38488Y516198D02*
X42487D01*
X40488D01*
Y510200D01*
X48485Y516198D02*
X44486D01*
Y510200D01*
X48485D01*
X44486Y513199D02*
X46486D01*
X50485Y510200D02*
Y516198D01*
X53483D01*
X54483Y515198D01*
Y513199D01*
X53483Y512199D01*
X50485D01*
X52484D02*
X54483Y510200D01*
X60481Y515198D02*
X59482Y516198D01*
X57482D01*
X56482Y515198D01*
Y514199D01*
X57482Y513199D01*
X59482D01*
X60481Y512199D01*
Y511200D01*
X59482Y510200D01*
X57482D01*
X56482Y511200D01*
D27*
X182700Y505342D02*
D03*
X188976Y384058D02*
D03*
X178900Y341500D02*
D03*
X168900D02*
D03*
X7874Y383701D02*
D03*
Y373701D02*
D03*
Y363701D02*
D03*
Y353701D02*
D03*
Y343701D02*
D03*
X7874Y465900D02*
D03*
Y455900D02*
D03*
D28*
X182700Y485658D02*
D03*
X188976Y364373D02*
D03*
X7874Y393701D02*
D03*
X7874Y475900D02*
D03*
D29*
X188900Y341500D02*
D03*
D30*
X133208Y406936D02*
D03*
X123008D02*
D03*
X143408D02*
D03*
X87242D02*
D03*
X77042D02*
D03*
X97442D02*
D03*
X41500Y406500D02*
D03*
X31300D02*
D03*
X51700D02*
D03*
X90339Y443713D02*
D03*
X100539D02*
D03*
X80139D02*
D03*
X136500Y443630D02*
D03*
X146700D02*
D03*
X126300D02*
D03*
D31*
X187008Y403543D02*
D03*
Y462598D02*
D03*
Y442913D02*
D03*
Y423228D02*
D03*
D32*
X133208Y341144D02*
D03*
X87242D02*
D03*
X41500Y340708D02*
D03*
X90339Y509505D02*
D03*
X136500Y509422D02*
D03*
D33*
X107283Y477821D02*
D03*
X102362Y458661D02*
D03*
X38500Y451600D02*
D03*
X72100Y333900D02*
D03*
X54300Y358500D02*
D03*
X60000Y339100D02*
D03*
X137200Y375500D02*
D03*
X34200Y433300D02*
D03*
X51100Y500100D02*
D03*
X163700Y473000D02*
D03*
X38659Y377559D02*
D03*
X41600Y366700D02*
D03*
X49800Y483100D02*
D03*
X48200Y459300D02*
D03*
X26500Y382800D02*
D03*
X17000Y341000D02*
D03*
X117000Y334300D02*
D03*
X23000Y408400D02*
D03*
X8200Y432200D02*
D03*
X19000Y417000D02*
D03*
X77000Y416300D02*
D03*
X73000Y423300D02*
D03*
X154300Y378000D02*
D03*
X144600Y369700D02*
D03*
X88800Y377200D02*
D03*
X66500Y383000D02*
D03*
X94300Y373200D02*
D03*
X68300Y370300D02*
D03*
X112400Y367700D02*
D03*
X16100Y392100D02*
D03*
X1700Y357837D02*
D03*
M02*
