%FSLAX25Y25*%
%MOIN*%
G70*
G01*
G75*
G04 Layer_Color=16711935*
%ADD10R,0.03937X0.05118*%
%ADD11R,0.21654X0.15748*%
%ADD12R,0.39370X0.39370*%
%ADD13R,0.05512X0.11811*%
%ADD14R,0.14961X0.11811*%
%ADD15R,0.04921X0.06299*%
%ADD16R,0.07000X0.10000*%
%ADD17R,0.10039X0.03740*%
%ADD18R,0.10039X0.12992*%
%ADD19R,0.03150X0.03740*%
%ADD20R,0.05118X0.03937*%
%ADD21O,0.01378X0.08268*%
%ADD22R,0.01378X0.08268*%
%ADD23R,0.09449X0.02362*%
%ADD24O,0.09449X0.02362*%
%ADD25R,0.02000X0.08000*%
%ADD26O,0.02000X0.08000*%
%ADD27R,0.02756X0.05118*%
%ADD28C,0.01000*%
%ADD29C,0.03000*%
%ADD30R,0.04724X0.04724*%
%ADD31C,0.04724*%
%ADD32C,0.05906*%
%ADD33R,0.05906X0.05906*%
%ADD34C,0.07874*%
%ADD35R,0.05906X0.05906*%
%ADD36R,0.13780X0.13780*%
%ADD37C,0.05000*%
%ADD38C,0.27559*%
%ADD39C,0.00787*%
%ADD40C,0.00984*%
%ADD41C,0.00591*%
%ADD42C,0.00800*%
%ADD43R,0.04737X0.05918*%
%ADD44R,0.22453X0.16548*%
%ADD45R,0.40170X0.40170*%
%ADD46R,0.06312X0.12611*%
%ADD47R,0.15761X0.12611*%
%ADD48R,0.05721X0.07099*%
%ADD49R,0.07800X0.10800*%
%ADD50R,0.10839X0.04540*%
%ADD51R,0.10839X0.13792*%
%ADD52R,0.03950X0.04540*%
%ADD53R,0.05918X0.04737*%
%ADD54O,0.02178X0.09068*%
%ADD55R,0.02178X0.09068*%
%ADD56R,0.10249X0.03162*%
%ADD57O,0.10249X0.03162*%
%ADD58R,0.02800X0.08800*%
%ADD59O,0.02800X0.08800*%
%ADD60R,0.03556X0.05918*%
%ADD61R,0.05524X0.05524*%
%ADD62C,0.05524*%
%ADD63C,0.06706*%
%ADD64R,0.06706X0.06706*%
%ADD65C,0.08674*%
%ADD66R,0.06706X0.06706*%
%ADD67R,0.14579X0.14579*%
%ADD68C,0.05800*%
%ADD69C,0.28359*%
D43*
X232858Y2873031D02*
D03*
X240732D02*
D03*
X249590D02*
D03*
X257465D02*
D03*
D48*
X246055Y2881890D02*
D03*
X232472D02*
D03*
D53*
X221457Y2880906D02*
D03*
Y2888779D02*
D03*
D61*
X34795Y3255579D02*
D03*
D62*
Y3245579D02*
D03*
Y3235579D02*
D03*
Y3225579D02*
D03*
Y3215579D02*
D03*
Y3205579D02*
D03*
Y3195579D02*
D03*
Y3185579D02*
D03*
Y3175579D02*
D03*
Y3165579D02*
D03*
Y3155579D02*
D03*
Y3145579D02*
D03*
X93890Y3255579D02*
D03*
Y3245579D02*
D03*
Y3235579D02*
D03*
Y3225579D02*
D03*
Y3215579D02*
D03*
Y3205579D02*
D03*
Y3195579D02*
D03*
Y3185579D02*
D03*
Y3175579D02*
D03*
Y3165579D02*
D03*
Y3155579D02*
D03*
Y3145579D02*
D03*
D63*
X136795Y3151536D02*
D03*
X179295D02*
D03*
X221795D02*
D03*
X302323Y3148213D02*
D03*
X312323D02*
D03*
X322323D02*
D03*
X169000Y2902563D02*
D03*
X179000D02*
D03*
X189000D02*
D03*
X199000D02*
D03*
X209000D02*
D03*
X219000D02*
D03*
X229000D02*
D03*
X239000D02*
D03*
X249000D02*
D03*
X259000D02*
D03*
X269000D02*
D03*
X279000D02*
D03*
X289000D02*
D03*
X299000D02*
D03*
X309000D02*
D03*
X319000D02*
D03*
X329000D02*
D03*
X339000D02*
D03*
X349000D02*
D03*
X359000D02*
D03*
X369000D02*
D03*
X379000D02*
D03*
X389000D02*
D03*
X399000D02*
D03*
X159000Y2912563D02*
D03*
X169000D02*
D03*
X179000D02*
D03*
X189000D02*
D03*
X199000D02*
D03*
X209000D02*
D03*
X219000D02*
D03*
X229000D02*
D03*
X239000D02*
D03*
X249000D02*
D03*
X259000D02*
D03*
X269000D02*
D03*
X279000D02*
D03*
X289000D02*
D03*
X299000D02*
D03*
X309000D02*
D03*
X319000D02*
D03*
X329000D02*
D03*
X339000D02*
D03*
X349000D02*
D03*
X359000D02*
D03*
X369000D02*
D03*
X379000D02*
D03*
X389000D02*
D03*
X399000D02*
D03*
X169000Y3102563D02*
D03*
X179000D02*
D03*
X189000D02*
D03*
X199000D02*
D03*
X209000D02*
D03*
X219000D02*
D03*
X229000D02*
D03*
X239000D02*
D03*
X249000D02*
D03*
X259000D02*
D03*
X269000D02*
D03*
X279000D02*
D03*
X289000D02*
D03*
X299000D02*
D03*
X309000D02*
D03*
X319000D02*
D03*
X329000D02*
D03*
X339000D02*
D03*
X349000D02*
D03*
X359000D02*
D03*
X369000D02*
D03*
X379000D02*
D03*
X389000D02*
D03*
X399000D02*
D03*
X159000Y3112563D02*
D03*
X169000D02*
D03*
X179000D02*
D03*
X189000D02*
D03*
X199000D02*
D03*
X209000D02*
D03*
X219000D02*
D03*
X229000D02*
D03*
X239000D02*
D03*
X249000D02*
D03*
X259000D02*
D03*
X269000D02*
D03*
X279000D02*
D03*
X289000D02*
D03*
X299000D02*
D03*
X309000D02*
D03*
X319000D02*
D03*
X329000D02*
D03*
X339000D02*
D03*
X349000D02*
D03*
X359000D02*
D03*
X369000D02*
D03*
X379000D02*
D03*
X389000D02*
D03*
X399000D02*
D03*
X238032Y2862531D02*
D03*
X271811D02*
D03*
X353410D02*
D03*
X363409D02*
D03*
X317598D02*
D03*
X327598D02*
D03*
X284134D02*
D03*
X294134D02*
D03*
X191772D02*
D03*
X181772D02*
D03*
X171772D02*
D03*
X147480D02*
D03*
X137480D02*
D03*
X127480D02*
D03*
X104173Y2863268D02*
D03*
X94173Y2862531D02*
D03*
X84173D02*
D03*
X59882D02*
D03*
X49882D02*
D03*
X39882D02*
D03*
X15748Y2922661D02*
D03*
Y2912661D02*
D03*
Y2902661D02*
D03*
Y3052898D02*
D03*
Y3122898D02*
D03*
Y3112898D02*
D03*
Y3102898D02*
D03*
Y3092898D02*
D03*
Y3082898D02*
D03*
Y3072898D02*
D03*
Y3062898D02*
D03*
X270827Y3237780D02*
D03*
X280827D02*
D03*
X290827D02*
D03*
X300827D02*
D03*
X260827Y3247779D02*
D03*
X270827D02*
D03*
X280827D02*
D03*
X290827D02*
D03*
X300827D02*
D03*
X343661Y3237780D02*
D03*
X353661D02*
D03*
X363661D02*
D03*
X373661D02*
D03*
X333661Y3247779D02*
D03*
X343661D02*
D03*
X353661D02*
D03*
X363661D02*
D03*
X373661D02*
D03*
X208504Y3251968D02*
D03*
D64*
X136795Y3171221D02*
D03*
X179295D02*
D03*
X221795D02*
D03*
X15748Y2932661D02*
D03*
Y3042898D02*
D03*
D65*
X386811Y3161992D02*
D03*
X376969Y3201362D02*
D03*
X396654D02*
D03*
X344488Y3161992D02*
D03*
X334646Y3201362D02*
D03*
X354331D02*
D03*
D66*
X292323Y3148213D02*
D03*
X159000Y2902563D02*
D03*
Y3102563D02*
D03*
X248031Y2862531D02*
D03*
X261811D02*
D03*
X373410D02*
D03*
X337598D02*
D03*
X304134D02*
D03*
X201772D02*
D03*
X157480D02*
D03*
X114173D02*
D03*
X69882D02*
D03*
X260827Y3237780D02*
D03*
X333661D02*
D03*
X218504Y3251968D02*
D03*
D67*
X113878Y3230248D02*
D03*
Y3250917D02*
D03*
D68*
X84300Y3130000D02*
D03*
X261700Y2923400D02*
D03*
X57900Y3051700D02*
D03*
X109300Y3076500D02*
D03*
X259842Y3079724D02*
D03*
X125984Y3109252D02*
D03*
X315846Y3056201D02*
D03*
X322835Y3083661D02*
D03*
X288386Y3090551D02*
D03*
X272638Y3073819D02*
D03*
X250000Y2978346D02*
D03*
X319882Y3237205D02*
D03*
X316929Y3165354D02*
D03*
X157480Y3083661D02*
D03*
X269685Y3040354D02*
D03*
X278543Y3143701D02*
D03*
X142717Y3074803D02*
D03*
X70866Y3062008D02*
D03*
X190945Y3026575D02*
D03*
X156496Y3141732D02*
D03*
X333661Y2988189D02*
D03*
X255906Y2927165D02*
D03*
X392717Y2987205D02*
D03*
X381889Y3238182D02*
D03*
X369094Y3070866D02*
D03*
X360236Y3078740D02*
D03*
X318898Y3046260D02*
D03*
X276575Y3051181D02*
D03*
X246062Y2920270D02*
D03*
X301181Y2955709D02*
D03*
X281653Y2952598D02*
D03*
X57200Y3098400D02*
D03*
X69800Y3096200D02*
D03*
D69*
X15748Y2864748D02*
D03*
Y3246638D02*
D03*
X399606D02*
D03*
Y2864748D02*
D03*
M02*
