%FSLAX23Y23*%
%MOMM*%
%SFA1B1*%

%IPPOS*%
%ADD10R,0.999998X0.999998*%
%ADD11R,1.199896X0.320040*%
%ADD12R,0.320040X1.199896*%
%ADD13O,1.199896X0.549910*%
%ADD14R,1.199896X0.549910*%
%ADD15O,0.549910X1.199896*%
%ADD16R,0.549910X1.199896*%
%ADD17C,0.203200*%
%ADD18C,0.152400*%
%ADD19C,0.100076*%
%ADD20C,0.199898*%
%ADD21C,0.508000*%
%ADD22R,0.599948X0.599948*%
G54D10*
X6800Y9299D03*
X5599Y11599D03*
X2999Y9899D03*
X1199Y11500D03*
G54D11*
X8676Y9999D03*
X11522D03*
G54D12*
X11100Y8398D03*
X10599Y8400D03*
X10100D03*
X9599D03*
X9100D03*
X11100Y11599D03*
X10599D03*
X10100D03*
X9599D03*
X9100D03*
G54D13*
X10827Y2949D03*
Y1999D03*
X8199Y2949D03*
Y1050D03*
G54D14*
X10827Y1050D03*
G54D15*
X4050Y973D03*
X3100D03*
X4050Y3599D03*
X2150D03*
X10050Y4373D03*
X9100D03*
X10050Y6999D03*
X8150D03*
X3949Y5673D03*
X2999D03*
X3949Y8299D03*
X2050D03*
G54D16*
X2150Y973D03*
X8150Y4373D03*
X2050Y5673D03*
G54D17*
X6800Y9299D02*
Y10500D01*
X6599Y10700D02*
X6800Y10500D01*
X6199Y10700D02*
X6599D01*
X5500Y9999D02*
X6199Y10700D01*
X5500Y9199D02*
Y9999D01*
X5199Y8899D02*
X5500Y9199D01*
X4899Y8899D02*
X5199D01*
X4599Y9199D02*
X4899Y8899D01*
X4599Y9199D02*
Y9599D01*
X5800Y10800*
Y11400*
G54D18*
X5400Y11800D02*
X5599Y11599D01*
X4800Y11800D02*
X5400D01*
X4800Y10800D02*
Y11800D01*
Y10700D02*
Y10800D01*
X4500Y10400D02*
X4800Y10700D01*
X4400Y10400D02*
X4500D01*
X3899D02*
X4400D01*
X3700Y10599D02*
X3899Y10400D01*
X3700Y10599D02*
Y11199D01*
X4100Y11599*
Y11800*
X3800Y12100D02*
X4100Y11800D01*
X3299Y12100D02*
X3800D01*
X3100Y11899D02*
X3299Y12100D01*
X3100Y11299D02*
Y11899D01*
Y11299D02*
X3199Y11199D01*
Y9899D02*
Y11199D01*
X8100Y11999D02*
X8579Y11519D01*
X11599Y8500D02*
X12100Y7999D01*
G54D19*
X2299Y9999D02*
X2899D01*
X2299Y9899D02*
Y9999D01*
X2199Y9800D02*
X2299Y9899D01*
X2199Y9400D02*
Y9800D01*
X2100Y9400D02*
X2199D01*
X1899Y9199D02*
X2100Y9400D01*
X1800Y9299D02*
X1899Y9199D01*
X1800Y9299D02*
Y9599D01*
X1700Y9700D02*
X1800Y9599D01*
X1700Y9700D02*
Y9800D01*
X1400Y10100D02*
X1700Y9800D01*
X1299Y10100D02*
X1400D01*
X1100Y9899D02*
X1299Y10100D01*
X1100Y9599D02*
Y9899D01*
X700Y9199D02*
X1100Y9599D01*
X700Y9199D02*
D01*
X599Y9299D02*
X700Y9199D01*
X599Y9299D02*
Y10100D01*
X899Y10400*
X1599*
X2100Y10899*
Y10999*
X2599Y11500*
X1199D02*
X2599D01*
G54D20*
X6100Y3299D02*
Y3599D01*
X10599Y5299D02*
X11899Y3999D01*
X9500Y5299D02*
X10599D01*
X8999Y4800D02*
X9500Y5299D01*
X11899Y2199D02*
Y3999D01*
X8999Y4199D02*
Y4800D01*
X7100Y5599D02*
X7999D01*
X8500Y6100*
X9599*
X9949Y6450*
X5800Y4599D02*
X6100D01*
X7100Y5599*
X7500Y6999D02*
X8150D01*
X6199Y8299D02*
X7500Y6999D01*
X3949Y4649D02*
Y5673D01*
Y4649D02*
X3999Y4599D01*
X5800*
X3949Y8299D02*
X6199D01*
X2150Y3599D02*
Y3649D01*
X2999Y4500*
Y5673*
X10827Y1999D02*
X11700D01*
X11899Y2199*
X4050Y3599D02*
X6100D01*
Y3299D02*
X6450Y2949D01*
X8199*
G54D21*
X12699Y0D02*
Y12699D01*
X0D02*
X12699D01*
X0Y0D02*
Y12699D01*
Y0D02*
X12699D01*
G54D22*
X8400Y8299D03*
X11800Y11700D03*
M02*